<svg xmlns="http://www.w3.org/2000/svg" fill="none" viewBox="0 0 128 128"><path fill="#1e1c29" stroke="#fff" stroke-width="2.53" d="M78 101.999C78 88.739 88.74 78 101.999 78 115.259 78 126 88.74 126 101.999c0 13.26-10.741 24.001-24.001 24.001S78 115.259 78 101.999Z"/><path fill="#1e1c29" d="M78.715 95.352c4.515-1.302 3.688-1.61 4.642-1.302.954.31 17.288 30.796 17.39 31.233"/><path stroke="#fff" stroke-width="2.53" d="M78.715 95.352c4.515-1.302 3.688-1.61 4.642-1.302.954.31 17.288 30.796 17.39 31.233"/><path fill="#1e1c29" d="M83.373 94.298c.562.114 6.867 4.002 7.561 4.892.695.891 1.638 3.749 2.394 4.321s1.45.381 2.143.127 3.025-3.367 3.656-3.812c.63-.445 1.386-.19 1.764.509.377.698 12.105 21.771 12.571 22.619m-13.97-22.924-1.791 19.521Zm3.761 3.824c.698-.507.762-.254 1.142-.696.381-.445.508-1.521.699-2.155.191-.635.952-.446 1.459-.255s1.016.445 1.46 1.08c.445.632 10.344 12.231 11.424 12.74 1.077.505 1.208.394 2.443.505"/><path stroke="#fff" stroke-width="2.53" d="M83.373 94.298c.562.114 6.867 4.002 7.561 4.892.695.891 1.638 3.749 2.394 4.321s1.45.381 2.143.127 3.025-3.367 3.656-3.812c.63-.445 1.386-.19 1.764.509.377.698 12.105 21.771 12.571 22.619m-13.97-22.924-1.791 19.521m5.552-15.697c.698-.507.762-.254 1.142-.696.381-.445.508-1.521.699-2.155.191-.635.952-.446 1.459-.255s1.016.445 1.46 1.08c.445.632 10.344 12.231 11.424 12.74 1.077.505 1.208.394 2.443.505"/></svg>
