<svg xmlns="http://www.w3.org/2000/svg" fill="none" viewBox="0 0 128 128"><path fill="#1E1C29" stroke="#fff" stroke-width="3.37" d="M62 93.999C62 76.319 76.32 62 93.999 62 111.679 62 126 76.32 126 93.999 126 111.679 111.679 126 93.999 126S62 111.679 62 93.999Z"/><path fill="#1E1C29" d="M62.953 85.136c6.02-1.736 4.918-2.147 6.19-1.736 1.272.413 23.05 41.061 23.186 41.644"/><path stroke="#fff" stroke-width="3.37" d="M62.953 85.136c6.02-1.736 4.918-2.147 6.19-1.736 1.272.413 23.05 41.061 23.186 41.644"/><path fill="#1E1C29" d="M69.164 83.73c.75.153 9.156 5.337 10.081 6.523.927 1.188 2.184 4.999 3.192 5.762s1.934.508 2.858.169 4.033-4.49 4.874-5.083 1.848-.253 2.352.679c.503.93 16.14 29.028 16.762 30.159M95.671 96.472c.93-.676 1.016-.339 1.522-.928.508-.593.678-2.028.932-2.873.255-.847 1.27-.595 1.946-.34s1.354.593 1.946 1.44c.594.842 13.792 16.308 15.232 16.986 1.436.674 1.611.526 3.258.674"/><path stroke="#fff" stroke-width="3.37" d="M69.164 83.73c.75.153 9.156 5.337 10.081 6.523.927 1.188 2.184 4.999 3.192 5.762s1.934.508 2.858.169 4.033-4.49 4.874-5.083 1.848-.253 2.352.679c.503.93 16.14 29.028 16.762 30.159M90.656 91.373l-2.388 26.028m7.403-20.929c.93-.676 1.016-.339 1.522-.928.508-.593.678-2.028.932-2.873.255-.847 1.27-.595 1.946-.34s1.354.593 1.946 1.44c.594.842 13.792 16.308 15.232 16.986 1.436.674 1.611.526 3.258.674"/></svg>
