<svg xmlns="http://www.w3.org/2000/svg" viewBox="0 0 800 800"><circle cx="400" cy="400" r="400"/><path fill="#DCEFFE" d="M406.595 531.218c165.469 48.77 229.234 44.405 330.405 15.068-14.528 36.434-35.255 69.881-60.93 99.124-77.181 21.327-141.625 18.318-278.327-29.41-128.849-44.986-212.062-44.061-301.423-21.415-14.025-23.474-25.276-48.697-33.32-75.249 105.037-26.213 195.267-31.836 343.595 11.882M124.243 634.583C189.425 715.197 290.828 767 404.718 767c84.201 0 161.576-28.315 222.535-75.653-59.227 8.005-120.696-.214-228.049-34.129-116.56-36.823-194.666-38.641-274.961-22.635"/><path fill="#fff" fill-rule="evenodd" d="M672.991 525.307c-75.968 22.157-138.305 19.647-272.315-28.645-104.745-37.746-178.362-43.169-250.488-30.56 12.54-51.086 24.977-97.802 31.58-116.866 4.242-12.251 7.832-22.618 10.115-29.719a330 330 0 0 1 6.824-19.196c-17.17-15.649-28.392-41.536-28.392-70.821 0-47.772 29.862-86.5 66.698-86.5 21.942 0 41.409 13.741 53.564 34.949a205 205 0 0 1 21.387-13.183c26.92-14.37 55.773-21.766 84.91-21.766 29.138 0 57.991 7.396 84.911 21.766 9.949 5.311 19.562 11.536 28.769 18.614 11.814-24.264 32.674-40.38 56.437-40.38 36.836 0 66.697 38.728 66.697 86.5 0 33.572-14.747 62.677-36.298 77.014a333 333 0 0 1 4.477 13.003c3.349 10.422 10.339 27.806 18.467 48.02l.042.104c9.999 24.864 33.073 94.057 52.615 157.666M259.636 204.258c-6.877 6.976-13.441 14.485-19.655 22.493-7.691 9.911-14.788 20.514-21.243 31.716-6.018-6.958-9.808-17.095-9.808-28.382 0-20.982 13.097-37.99 29.253-37.99 8.477 0 16.111 4.682 21.453 12.163m89.716 94.209c0 12.266-10.217 22.209-22.821 22.209s-22.82-9.943-22.82-22.209 10.216-22.21 22.82-22.21 22.821 9.944 22.821 22.21m114.667 96.046c0 18.829-40.294 53.576-61.432 53.576-23.119 0-61.432-34.747-61.432-53.576s27.504-34.093 61.432-34.093 61.432 15.264 61.432 34.093m36.274-96.046c0 12.266-10.217 22.209-22.82 22.209s-22.821-9.943-22.821-22.209 10.217-22.21 22.821-22.21c12.603 0 22.82 9.944 22.82 22.21m52.42-71.716c-6.215-8.008-12.779-15.517-19.656-22.493 5.343-7.481 12.976-12.163 21.453-12.163 16.156 0 29.253 17.008 29.253 37.99 0 11.287-3.79 21.424-9.808 28.382-6.455-11.202-13.552-21.805-21.242-31.716"/></svg>
