<svg xmlns="http://www.w3.org/2000/svg" viewBox="0 0 32 32"><rect width="32" height="32" fill="#354809" rx="8"/><path fill="#F0FEC7" d="m19.028 15.766-2.553-2.552-.044-.012-3.219 1.002a2.068 2.068 0 0 1-1.564-3.811l2.91-1.503-3.284-.089a2.95 2.95 0 0 1-2.006-.86l-.323-.323a.84.84 0 0 0-1.19 0l-4.13 4.13a.84.84 0 0 0 0 1.191l.863.861c.314.315.553.696.699 1.116l.534 1.534c.262.75.688 1.43 1.248 1.991l4.692 4.692 3.224 3.222a.933.933 0 1 0 1.318-1.317l-3.767-3.768a.494.494 0 1 1 .698-.697l4.327 4.327a.97.97 0 0 0 1.378.01.935.935 0 0 0-.024-1.293l-3.47-3.469a.494.494 0 1 1 .698-.698l4.363 4.36a.93.93 0 0 0 1.52-.301.93.93 0 0 0-.202-1.016l-4.81-4.807a.495.495 0 0 1 .35-.845.5.5 0 0 1 .35.146l3.767 3.765a.933.933 0 1 0 1.317-1.317z"/><path fill="#F0FEC7" d="m28.375 11.748-4.13-4.13a.84.84 0 0 0-1.19-.001l-.31.309a2.95 2.95 0 0 1-2.038.863l-3.029.046a2.9 2.9 0 0 0-1.304.326l-4.233 2.185a.993.993 0 0 0 .751 1.834l3.22-1.002a1.57 1.57 0 0 1 1.197.113c1.012.528 3.295 1.427 5.674.373a.42.42 0 0 1 .374.752c-1.796.952-3.572.73-4.826.321l4.704 4.704a1.27 1.27 0 0 0 1.793 0c.56-.56.987-1.239 1.247-1.987l.536-1.538c.148-.42.387-.8.701-1.116l.862-.86a.84.84 0 0 0 0-1.192"/></svg>
