<svg xmlns="http://www.w3.org/2000/svg" viewBox="0 0 500 500"><path fill="url(#a)" d="M407.375 54.5C460.322 98.748 493.106 159.063 500 228c1.585 76.392-18.212 142.382-71.543 198.477-43.285 44.116-104.152 72.438-166.25 73.726C187.808 500.51 123.553 477.543 70 425 19.938 374.503-.44 308.61-.21 238.875 1.066 172.977 31.97 112.66 78.175 66.852 167.879-18.272 311.45-22.09 407.375 54.5"/><path fill="#FAEDB8" d="M274.52 259.645c10.175 7.475 14.304 16.031 18.98 27.793 5.65 14.197 11.37 26.428 25.563 33.187 4.415 1.901 8.894 3.26 13.5 4.625 10.741 3.493 18.27 10.77 23.437 20.75 5.54 11.528 5.784 24.828 2.375 37.063-2 5.612-4.741 10.242-8.375 14.937l-2.187 3.125c-8.92 9.117-20.358 13.584-32.938 14.25-11.128-.165-20.086-6.602-29.29-12.23-15.385-9.202-33.17-13.888-51.054-10.485-10.215 2.864-19.72 7.88-28.656 13.528-9.483 5.76-19.79 8.72-30.875 6.812-13.92-5.11-24.403-12.666-31-26l-1.254-2.379c-4.843-10.783-4.625-24.73-.683-35.746 8.02-17.495 20.823-25.594 38.507-32.21 1.111-.406 2.223-.81 3.368-1.227 10.662-4.012 17.714-10.696 22.808-20.985l2.692-6.203c5.882-13.53 12.304-27.51 26.5-33.75 13.388-4.193 26.959-2.442 38.582 5.145"/><path fill="#F9ECB7" d="M295 55h1l1.813 12.188 1.132 7.449c.64 4.47 1.216 8.952 1.672 13.445C301.831 99.61 303.8 105.856 312 114c15.887 20.295 17.072 47.174 14.492 71.86-2.141 12.65-6.25 24.511-13.492 35.14l-1.875 2.813c-5.04 5.187-10.58 7.943-17.687 8.625-6.34-.111-10.645-2.382-15.438-6.438-6.23-6.775-9.906-14.415-13-23l-1.687-4.562c-5.518-18.656-3.57-38.663.687-57.438l.875-3.984c2.937-12.19 7.414-21.836 17.125-30.016l2-1c1.428-6.083 2.74-12.193 4-18.312l2.125-10.239c1.096-5.524 2.142-11.06 3.063-16.617C294 56 294 56 295 55m-82-3c4.625 9.25 4.378 21.225 5.684 31.387 1.204 10.761 1.204 10.761 6.437 19.847l2.316 1.516c9.516 6.733 13.626 16.392 16.813 27.438l1.516 5.167c2.47 9.296 2.436 18.114 2.484 27.708l.078 9.222c-.617 16.378-5.142 36.14-17.672 47.918-6.149 4.911-10.633 6.28-18.515 6.203-6.658-.86-10.694-4.987-15.328-9.531-11.372-15.668-15.102-33.533-15.063-52.625l-.016-7.672c.676-19.272 4.768-38.672 19.278-52.277 6.326-7.99 6.922-13.74 8.05-23.801l1.098-9.156c.497-4.935.972-9.872 1.399-14.813C212 54 212 54 213 52m167 93c5.704 2.282 7.394 4.734 10 10 6.615 16.456 6.588 37.704 1.004 54.418-1.258 4.487-1.578 8.814-1.942 13.457-1.748 19.49-8.703 38.483-22.062 53.125l-2.34 2.582c-7.633 8.033-15.03 13.411-26.473 13.793-4.13-.07-6.22-.39-10.062-2.125-8.146-8.472-10.467-18.35-10.34-29.777 1.274-20.597 9.52-40.089 23.215-55.473l1.934-2.184c5.356-5.7 11.588-10.323 19.066-12.816 2.228-.07 4.458-.085 6.688-.062l3.574.027L375 190l.406-2.672c.527-2.955 1.27-5.697 2.094-8.578 2.635-10.991 2.257-22.508 2.5-33.75"/><path fill="#FAECB7" d="M122 145h3l-.14 4.469c-.199 10.932.037 20.741 3.167 31.254.918 3.092 1.512 6.089 1.973 9.277l2.273-.14c11.07-.391 17.534 1.895 25.852 9.265 15.156 14.71 26.984 34.703 28.168 56.191.335 23.756.335 23.756-6.73 31.184-4.147 4.074-6.963 5.792-12.688 5.875-10.564-.253-18.436-5.128-25.875-12.375-16.04-17.632-24.003-38.074-25.348-61.7-.51-5.54-.51-5.54-2.683-11.546-4.546-15.595-4.917-38.146 2.238-53.313 1.916-3.247 4.128-5.776 6.793-8.441"/><defs><linearGradient id="a" gradientTransform="rotate(90)"><stop offset="20%" stop-color="#8a4518"/><stop offset="90%" stop-color="#2a1507"/></linearGradient></defs></svg>
