<svg xmlns="http://www.w3.org/2000/svg" viewBox="0 0 3238.5 1608"><path fill="#fff" d="M1286.9 687.3c-2.2-7-3.8-14.1-5-21.3-.6-3.3-1.2-6.7-1.9-10-1.6-7.2-3.3-14.3-5.2-21.4 31.5-47.6 181.9-296.1 10.7-455.6-190-177-412 55-412 55l.7 1c-99.8-30.3-208-33.9-313.2-1-1.3-1.4-222.5-231.5-412-55s15.1 462.1 16.2 463.6c-2.2 6.7-3.9 13.6-5.1 20.5C139.6 785.4 0 823.1 0 1036s146 388 444 388h122.3c.5.8 50.9 72.1 154.3 72.1 96-.1 159.3-71.4 159.9-72.1h116.7c298 0 444-171 444-388 0-198.2-121.1-244.6-154.3-348.7M3223.3 377s25.2-233.3-166.4-283.4V0h-148.3v91.2c-202.1 44.7-176 285.8-176 285.8v40s-26.1 241.1 176.1 285.8v200.3c-213 38.8-186.1 287.8-186.1 287.8v40s-26.1 241.1 176 285.8v91.2H3047v-93.6c191.6-50.1 166.4-283.4 166.4-283.4 8.4 0 15.2-6.8 15.2-15.2v-9.7c0-8.4-6.8-15.2-15.2-15.2 0 0 25-231.3-163.9-282.8V702.8h-2.2c202.1-44.7 176.1-285.8 176.1-285.8 8.4 0 15.2-6.8 15.2-15.2v-9.7c-.1-8.3-6.9-15.1-15.3-15.1m-120.9 813.8h-13.6c-8.4 0-15.2 6.8-15.2 15.2v9.7c0 8.4 6.8 15.2 15.2 15.2h13.6c0 144.7-48.1 169.1-64.2 173.2-2.7.7-5.2-1.3-5.2-4V1354c0-25.5-16.2-39.5-32.5-47.1-20.5-9.6-44.5-9.6-65 0-16.2 7.6-32.5 21.6-32.5 47.1v46.1c0 2.7-2.5 4.7-5.1 4.1-16.1-4-64.3-28.2-64.3-173.2v-40c0-144.7 48.1-169.1 64.2-173.2 2.7-.7 5.2 1.3 5.2 4v46.1c0 25.5 16.2 39.5 32.5 47.1 20.5 9.6 44.5 9.6 65 0 16.2-7.6 32.5-21.6 32.5-47.1v-46.1c0-2.7 2.5-4.7 5.1-4.1 16.1 4 64.3 28.2 64.3 173.1m-3.5-773.8h13.6c0 145-48.2 169.2-64.3 173.2-2.6.7-5.1-1.4-5.1-4.1V540c0-25.5-16.2-39.5-32.5-47.1-20.5-9.6-44.5-9.6-65 0-16.2 7.6-32.5 21.6-32.5 47.1v46.1c0 2.7-2.6 4.7-5.2 4-16.2-4.1-64.2-28.5-64.2-173.2v-40c0-145 48.2-169.2 64.3-173.2 2.6-.7 5.1 1.4 5.1 4.1V254c0 25.5 16.2 39.5 32.5 47.1 20.5 9.6 44.5 9.6 65 0 16.2-7.6 32.5-21.6 32.5-47.1v-46.1c0-2.7 2.6-4.7 5.2-4 16.2 4.1 64.2 28.4 64.2 173.2h-13.6c-8.4 0-15.2 6.8-15.2 15.2v9.7c0 8.2 6.8 15 15.2 15m-608.6 372s26.2-242.5-177.8-286.1V285c198.6-46.5 172.8-285 172.8-285h-110.9c0 145-48.2 169.2-64.3 173.2-2.6.7-5.1-1.4-5.1-4.1V123c0-25.5-16.2-39.5-32.5-47.1-20.5-9.6-44.5-9.6-65 0-16.2 7.6-32.5 21.6-32.5 47.1v46.1c0 2.7-2.6 4.7-5.2 4-16.2-4.1-64.2-28.4-64.2-173.2h-110.9s-26.7 247.5 184.2 287.4v215.1c-205.6 43-179.3 286.6-179.3 286.6v40s-26.3 243.6 179.2 286.4v205.1c-210.9 39.9-184.2 287.4-184.2 287.4h110.9c0-145 48.2-169.2 64.3-173.2 2.6-.7 5.1 1.4 5.1 4.1v46.1c0 25.5 16.2 39.5 32.5 47.1 20.5 9.6 44.5 9.6 65 0 16.2-7.6 32.5-21.6 32.5-47.1v-46.1c0-2.7 2.6-4.7 5.2-4 16.2 4.1 64.2 28.4 64.2 173.2h110.9s25.8-238.5-172.8-285v-207.8c204-43.7 177.8-286.1 177.8-286.1 8.4 0 15.2-6.8 15.2-15.2v-9.7c.1-8.4-6.7-15.2-15.1-15.2m-124.4 40h13.6c0 145-48.2 169.2-64.3 173.2-2.6.7-5.1-1.4-5.1-4.1V952c0-25.5-16.2-39.5-32.5-47.1-20.5-9.6-44.5-9.6-65 0-16.2 7.6-32.5 21.6-32.5 47.1v46.1c0 2.7-2.6 4.7-5.2 4-16.2-4.1-64.2-28.5-64.2-173.2v-40c0-145 48.2-169.2 64.3-173.2 2.6-.7 5.1 1.4 5.1 4.1V666c0 25.5 16.2 39.5 32.5 47.1 20.5 9.6 44.5 9.6 65 0 16.2-7.6 32.5-21.6 32.5-47.1v-46.1c0-2.7 2.6-4.7 5.2-4 16.2 4.1 64.2 28.5 64.2 173.2h-13.6c-8.4 0-15.2 6.8-15.2 15.2v9.7c0 8.2 6.8 15 15.2 15"/></svg>
