<svg xmlns="http://www.w3.org/2000/svg" viewBox="0 0 128 128"><rect width="128" height="128" fill="url(#a)" rx="32"/><path fill="#F1EBE4" d="M90.246 74.867q4.992 6.663 2.093 14.49-2.895 7.824-11.497 10.265a16 16 0 0 1-8.39.09q-4.28-1.076-7.015-4.067-9.92 4.433-18.64-.435t-10.48-15.812a15.04 15.04 0 0 1-7.376-4.17q-3.04-3.11-4.384-7.846-2.154-7.602 3.437-14.24 5.587-6.636 12.972-5.77l8.647 1.05a20.35 20.35 0 0 1 4.819-8.17 19.84 19.84 0 0 1 8.09-5.19l-1.84-6.48a3.775 3.775 0 0 1 1.301-4.136 3.8 3.8 0 0 1 1.377-.664 3.78 3.78 0 0 1 2.98.298q1.36.759 1.823 2.378l2.119 7.478q5.001.064 8.822 2.144t7.427 6.714l7.232-2.052a3.78 3.78 0 0 1 2.976.298q1.36.76 1.824 2.38a3.775 3.775 0 0 1-2.681 4.8l-6.48 1.838a20.8 20.8 0 0 1-.045 9.574 19.2 19.2 0 0 1-4.295 8.355zM60.186 86.63a39 39 0 0 1-1.296-6.704 36 36 0 0 1-.064-6.646 24.3 24.3 0 0 1-5.626 3.68 27.8 27.8 0 0 1-6.454 2.17q1.38 4.863 4.979 6.87 3.603 2.01 8.46.63m-15.02-17.824q3.987-1.132 6.758-2.995 2.772-1.862 6.784-6.233L41.981 57.59q-4.04-.47-6.15 1.812-2.113 2.284-1.159 5.648.918 3.24 3.462 4.137 2.544.893 7.03-.38m32.848 20.845q3.113-.88 4.429-3.616 1.311-2.73-.356-4.813l-11.542-15.04q-1.235 4.66-1.411 9.021-.18 4.36.742 7.6 1.165 4.112 3.22 5.888 2.05 1.776 4.918.96m.374-30.003q.893-1.6 1.056-3.869a12.8 12.8 0 0 0-.473-4.512q-1.13-3.983-4.525-5.984-3.399-2-7.261-.905a12.5 12.5 0 0 0-4.026 1.952q-1.779 1.311-2.761 3.072l10.995 1.728z" filter="url(#b)"/><defs><radialGradient id="a" cx="0" cy="0" r="1" gradientTransform="rotate(90 0 64)scale(64)" gradientUnits="userSpaceOnUse"><stop stop-color="#E9D9B2"/><stop offset="1" stop-color="#E6B434"/></radialGradient><filter id="b" width="76.781" height="78.623" x="22.958" y="23.105" color-interpolation-filters="sRGB" filterUnits="userSpaceOnUse"><feFlood flood-opacity="0" result="BackgroundImageFix"/><feColorMatrix in="SourceAlpha" result="hardAlpha" values="0 0 0 0 0 0 0 0 0 0 0 0 0 0 0 0 0 0 127 0"/><feOffset dy=".5"/><feGaussianBlur stdDeviation=".5"/><feComposite in2="hardAlpha" operator="out"/><feColorMatrix values="0 0 0 0 0.909804 0 0 0 0 0.490196 0 0 0 0 0.247059 0 0 0 0.75 0"/><feBlend in2="BackgroundImageFix" result="effect1"/><feBlend in="SourceGraphic" in2="effect1" result="shape"/><feColorMatrix in="SourceAlpha" result="hardAlpha" values="0 0 0 0 0 0 0 0 0 0 0 0 0 0 0 0 0 0 127 0"/><feOffset dy="1"/><feGaussianBlur stdDeviation="1"/><feComposite in2="hardAlpha" k2="-1" k3="1" operator="arithmetic"/><feColorMatrix values="0 0 0 0 0 0 0 0 0 0 0 0 0 0 0 0 0 0 0.45 0"/><feBlend in2="shape" result="effect2_innerShadow_1_163"/></filter></defs></svg>
