<svg xmlns="http://www.w3.org/2000/svg" fill="none" viewBox="0 0 40 40"><rect width="40" height="40" fill="#fff" rx="8"/><path fill="#3F8A68" fill-rule="evenodd" d="M29.326 6.444c-.28 1.325-.41 1.742-.797 2.529-.761 1.55-2.665 3.348-4.523 4.27-1.937.96-4.018 1.363-7.565 1.464-4.433.125-6.775-.254-9.246-1.496-2.696-1.356-4.287-3.07-5.046-5.435a56 56 0 0 0-.472-1.432c-.045-.115-.101.194-.126.687-.05 1.014.304 2.376.95 3.651 1.179 2.333 3.607 4.467 6.808 5.983.725.343 1.319.644 1.319.669 0 .024-.156.383-.346.797-.924 2.02-.463 4.363 1.187 6.024 1.795 1.806 4.091 2.235 6.374 1.19.84-.385 1.914-1.311 2.377-2.05.849-1.352 1.015-3.265.433-4.973-.184-.54-.325-.985-.312-.99 4.459-1.873 7.145-4.128 8.513-7.146.648-1.429 1.056-3.823.69-4.05-.075-.045-.173.093-.218.308M16.455 17.338c1.612.479 2.592 2.545 1.943 4.098-.547 1.31-1.562 2-2.94 2-1.857 0-3.143-1.262-3.143-3.083 0-1.38.873-2.625 2.111-3.011.807-.252 1.192-.253 2.029-.004" clip-rule="evenodd"/><path fill="#3F8A68" fill-rule="evenodd" d="M29.327 6.353c-.051.161-.063.324-.025.36.117.119-.677 2.196-1.09 2.85-.859 1.358-2.584 2.87-4.206 3.684-.657.33-2.172.82-3.782 1.226-.416.104-2.052.203-4.022.243-3.551.071-5.098-.08-7.11-.693-2.212-.675-4.818-2.459-5.884-4.028-.595-.877-1.406-2.793-1.406-3.324 0-.17-.068-.352-.15-.403-.243-.15-.117 1.708.18 2.665 1.036 3.333 3.44 5.82 7.477 7.732.725.343 1.318.644 1.318.669 0 .024-.155.383-.345.797-.924 2.02-.463 4.363 1.187 6.024 1.795 1.806 4.091 2.235 6.374 1.19.84-.385 1.914-1.31 2.377-2.05.848-1.352 1.015-3.265.433-4.973-.184-.539-.325-.985-.312-.99q4.224-1.774 6.276-3.95c1.956-2.073 2.758-3.763 3.015-6.354.08-.798-.124-1.247-.305-.675M16.455 17.338c1.567.465 2.538 2.416 1.996 4.01-.718 2.11-3.579 2.809-5.215 1.275-.895-.84-1.192-2.445-.666-3.6.306-.674 1.263-1.571 1.801-1.69.214-.047.452-.107.53-.133.321-.107.902-.056 1.554.138" clip-rule="evenodd"/><path fill="#3F8A68" fill-rule="evenodd" d="M29.327 6.353c-.051.161-.063.324-.025.36.143.144-.767 2.396-1.255 3.105-1.044 1.515-2.97 3.02-4.827 3.77-2.065.834-3.313 1.039-6.827 1.121-3.32.078-4.926-.036-6.59-.47-2.682-.697-5.361-2.427-6.612-4.269-.581-.856-1.39-2.774-1.39-3.299 0-.17-.067-.352-.15-.403-.102-.063-.139.211-.115.864.135 3.72 3.039 7.29 7.74 9.517.743.352 1.351.662 1.351.688s-.154.38-.343.788c-.433.934-.557 1.919-.379 3.011.198 1.215.663 2.111 1.564 3.019.92.925 1.843 1.43 3.05 1.667 1.517.299 3.445-.26 4.648-1.347 1.249-1.128 1.827-2.41 1.827-4.05 0-.96-.305-2.377-.573-2.656-.23-.241-.133-.426.328-.624 2.607-1.115 4.55-2.367 5.903-3.8 1.9-2.014 2.727-3.767 2.98-6.317.08-.798-.123-1.247-.305-.675M16.453 17.337c.45.134.87.392 1.196.736 2.022 2.131.658 5.363-2.263 5.363-2.929 0-4.193-3.504-1.983-5.495.319-.287.755-.56.968-.608.214-.047.452-.107.53-.133.321-.107.902-.056 1.552.137" clip-rule="evenodd"/><path fill="#3F8A68" fill-rule="evenodd" d="M29.344 6.287c-.138.36-.095.569.07.338.112-.159.129-.093.066.27-.047.265-.178.586-.293.713-.115.126-.172.267-.127.312.136.136-.779 1.66-1.589 2.646-1.203 1.466-3.275 2.815-5.216 3.397a1.2 1.2 0 0 0-.212.111c-.25.16-1.79.505-2.94.658-1.636.219-5.782.183-7.355-.062-1.439-.224-2.588-.5-2.748-.66-.055-.056-.207-.1-.336-.1s-.79-.286-1.466-.634c-1.3-.668-2.723-1.72-3.387-2.5-.69-.813-.889-1.07-.889-1.154 0-.045-.124-.257-.276-.47-.151-.213-.235-.428-.186-.477s.005-.09-.098-.09-.148-.038-.1-.086-.01-.183-.128-.3c-.118-.119-.183-.332-.146-.475s.016-.227-.047-.188c-.064.04-.142-.008-.175-.105s-.09.026-.127.272-.022.42.032.387c.055-.034.143.227.196.58.052.353.281 1.043.508 1.532 1.257 2.717 3.235 4.606 6.547 6.252 1.317.655 1.71.912 1.657 1.083-.039.124-.22.64-.404 1.146-.299.823-.323 1.049-.228 2.13.06.69.2 1.353.324 1.542.12.183.175.375.123.426-.051.052-.02.094.07.094s.163.1.163.221c0 .343 1.546 1.807 2.32 2.197 2.418 1.22 5.372.467 7.008-1.787.224-.309.46-.6.525-.647.064-.047.112-.141.106-.21-.024-.256.162-1.035.248-1.036.16-.002.166-1.436.01-2.297-.084-.461-.272-1.072-.417-1.358-.308-.604-.274-.65.777-1.036 1.043-.382 2.836-1.393 3.974-2.24.196-.146 2.08-2.047 2.468-2.49.282-.324 1.332-2.364 1.333-2.59 0-.097.047-.176.105-.176s.118-.141.133-.315c.015-.173.089-.63.164-1.015.294-1.501.328-1.857.19-1.943-.079-.048-.18.012-.227.134m-27.743.099c.052.138.13.215.174.172s0-.156-.096-.25c-.138-.138-.154-.122-.078.078M16.65 17.38c.804.334 1.17.663 1.576 1.416.469.87.518 2.022.124 2.89-.269.591-1.155 1.47-1.483 1.47-.106 0-.219.075-.25.168-.037.111-.413.171-1.097.175-.865.006-1.136-.051-1.602-.337-1.2-.735-1.68-1.572-1.65-2.879.03-1.34.598-2.2 1.911-2.894.541-.286 1.793-.29 2.471-.009" clip-rule="evenodd"/><path fill="#3F8A68" fill-rule="evenodd" d="M29.344 6.287c-.138.36-.095.569.07.338.112-.159.129-.093.066.27-.047.265-.178.586-.293.713-.115.126-.172.267-.127.312.136.136-.779 1.66-1.589 2.646-1.203 1.466-3.275 2.815-5.216 3.397a1.2 1.2 0 0 0-.212.111c-.25.16-1.79.505-2.94.658-1.636.219-5.782.183-7.355-.062-1.439-.224-2.588-.5-2.748-.66-.055-.056-.207-.1-.336-.1-.412 0-2.662-1.24-3.587-1.975-.841-.67-2.155-2.067-2.155-2.292 0-.057-.124-.278-.276-.491-.151-.213-.235-.428-.186-.477s.005-.09-.098-.09-.148-.038-.1-.086-.01-.183-.128-.3c-.118-.119-.183-.332-.146-.475s.016-.227-.047-.188c-.064.04-.142-.008-.175-.105s-.09.026-.127.272-.022.42.032.387c.055-.034.143.227.196.58.052.353.281 1.043.508 1.532 1.257 2.717 3.235 4.606 6.547 6.252 1.325.659 1.71.91 1.653 1.083-.04.124-.22.656-.4 1.182-.984 2.887.803 6.146 3.815 6.958 2.21.597 4.582-.267 5.965-2.171.224-.309.46-.6.525-.647.064-.047.112-.141.106-.21-.024-.256.162-1.035.248-1.036.16-.002.166-1.436.01-2.297-.084-.461-.272-1.072-.417-1.358-.29-.568-.226-.703.427-.896.87-.256 3.388-1.659 4.402-2.452.26-.202 1.947-1.91 2.39-2.419.283-.324 1.332-2.364 1.333-2.59 0-.096.047-.175.105-.175s.118-.141.133-.315c.015-.173.089-.63.164-1.015.294-1.501.328-1.857.19-1.943-.079-.048-.18.012-.227.134m-27.743.099c.052.138.13.215.174.172s0-.156-.096-.25c-.138-.138-.154-.122-.078.078M17.119 17.6c.92.54 1.49 1.553 1.492 2.652.002 1.313-.458 2.135-1.61 2.876-.798.514-2.27.53-3.082.033-1.2-.735-1.68-1.572-1.65-2.879.03-1.339.504-2.094 1.757-2.806.832-.473 2.165-.42 3.093.124" clip-rule="evenodd"/><path fill="#599952" fill-rule="evenodd" d="M29.327 6.353c-.052.161-.056.33-.01.376.045.046.089-.006.096-.116.008-.109.065-.04.126.152.108.335.113.33.127-.097.016-.527-.206-.734-.34-.315M1.6 6.386c.052.138.13.216.174.173s0-.156-.096-.252c-.138-.137-.154-.12-.078.079m27.332 2.228c-.497 1.3-2.527 3.513-3.871 4.22l-1.233.65c-.328.173-.747.324-.932.335-.184.012-.31.063-.277.114.077.126-1.028.473-2.396.752-.864.176-1.94.229-4.693.229-3.113 0-3.735-.038-4.834-.29-1.79-.412-1.898-.449-1.798-.612.055-.088.022-.103-.083-.038-.232.143-1.997-.61-1.878-.802.053-.086.023-.104-.073-.045-.195.12-1.81-.94-2.612-1.714-.857-.828-1.497-1.69-1.387-1.869.056-.09.038-.122-.041-.073-.077.047-.31-.21-.516-.574l-.375-.66.094.56c.117.705.994 2.473 1.658 3.343.278.364.462.732.41.817-.056.09-.033.116.056.061.153-.094.375.141.38.401 0 .077.064.14.142.14s.534.33 1.016.73c.482.402 1.16.896 1.506 1.1.346.202.63.43.63.504s.063.096.14.048.14-.02.14.062c0 .081.047.136.105.12.057-.015.389.104.735.264.347.16.871.375 1.165.479.79.279.828.395.415 1.253-.489 1.014-.604 2.727-.255 3.807.213.66 1.122 2.214 1.36 2.323.05.023.233.165.406.315s.371.273.441.273.087.064.038.143c-.049.08-.036.13.027.113.172-.047.746.168.746.278 0 .053.216.111.479.13s.657.105.875.191c.436.173 1.308.246 1.308.11 0-.048.34-.154.756-.238.995-.2 2.007-.838 2.8-1.767.828-.969 1.193-1.835 1.297-3.078.07-.853.03-1.146-.289-2.046-.204-.578-.385-1.135-.402-1.238-.018-.113.333-.329.881-.542 1.055-.41 1.123-.44 1.961-.909 1.138-.635 1.938-1.233 3.059-2.288.608-.572 1.13-1.025 1.16-1.008s.043.01.03-.017c-.014-.026.281-.514.654-1.086.373-.571.846-1.543 1.051-2.16.403-1.207.421-1.852.024-.81m-12.91 8.515c-.05.08.007.103.133.055.249-.096 1.197.311 1.197.514 0 .073.08.133.179.133.217 0 .56.387.896 1.01.176.324.25.773.251 1.512.001.9-.051 1.13-.366 1.61-1.348 2.054-3.668 2.333-5.297.638-.543-.566-.988-1.577-.985-2.238.003-.563.156-.997.316-.898.087.054.104.022.04-.08-.227-.369.491-1.501.831-1.309.078.044.098.031.044-.029-.159-.176.654-.81 1.225-.954.52-.132 1.624-.106 1.536.036" clip-rule="evenodd"/><path fill="#3F8A68" fill-rule="evenodd" d="M29.327 6.353c-.052.161-.056.33-.01.376.045.046.089-.006.096-.116.008-.109.065-.04.126.152.108.335.113.33.127-.097.016-.527-.206-.734-.34-.315M1.6 6.386c.052.138.13.216.174.173s0-.156-.096-.252c-.138-.137-.154-.12-.078.079" clip-rule="evenodd"/><path fill="#3F8A68" fill-rule="evenodd" d="M29.308 6.42c-.046.12-.044.256.004.304s.094-.002.101-.11c.008-.11.065-.042.127.15.106.333.112.327.126-.104.014-.47-.212-.621-.358-.24" clip-rule="evenodd"/></svg>
