<svg xmlns="http://www.w3.org/2000/svg" viewBox="0 0 128 128"><path fill="#fff" d="M102.4 0H25.6C11.461 0 0 11.462 0 25.6v76.8C0 116.538 11.462 128 25.6 128h76.8c14.138 0 25.6-11.462 25.6-25.6V25.6C128 11.461 116.538 0 102.4 0"/><path fill="#3F8A68" d="M93.843 20.62c-.896 4.24-1.312 5.575-2.55 8.094-2.435 4.96-8.528 10.713-14.474 13.664-6.198 3.072-12.857 4.361-24.208 4.684-14.185.4-21.68-.812-29.587-4.787-8.627-4.339-13.718-9.824-16.147-17.392a179 179 0 0 0-1.51-4.582c-.145-.368-.324.62-.404 2.198-.16 3.245.973 7.603 3.04 11.683 3.773 7.466 11.543 14.295 21.786 19.146 2.32 1.098 4.22 2.06 4.22 2.14 0 .078-.499 1.226-1.107 2.551-2.956 6.464-1.481 13.962 3.799 19.277 5.744 5.78 13.091 7.152 20.397 3.808 2.688-1.232 6.124-4.195 7.606-6.56 2.717-4.326 3.248-10.448 1.386-15.914-.59-1.728-1.04-3.152-.999-3.168 14.269-5.993 22.864-13.21 27.242-22.867 2.073-4.573 3.379-12.233 2.208-12.96-.24-.144-.554.298-.698.986M52.656 55.483c5.158 1.532 8.294 8.144 6.218 13.113-1.75 4.192-4.999 6.4-9.408 6.4-5.943 0-10.058-4.038-10.058-9.865 0-4.416 2.794-8.4 6.755-9.636 2.583-.806 3.815-.81 6.493-.012"/><path fill="#3F8A68" d="M93.846 20.33c-.163.515-.201 1.036-.08 1.152.375.38-2.166 7.027-3.488 9.12-2.748 4.345-8.268 9.184-13.459 11.788-2.102 1.056-6.95 2.624-12.102 3.924-1.331.332-6.567.65-12.87.777-11.364.227-16.314-.256-22.753-2.217-7.078-2.16-15.417-7.87-18.828-12.89-1.904-2.806-4.5-8.938-4.5-10.637 0-.544-.217-1.126-.48-1.29-.777-.48-.374 5.466.576 8.529C9.178 39.25 16.87 47.21 29.79 53.328c2.32 1.098 4.217 2.06 4.217 2.14 0 .078-.496 1.226-1.104 2.551-2.956 6.464-1.481 13.962 3.799 19.277 5.744 5.78 13.091 7.152 20.397 3.808 2.688-1.232 6.124-4.192 7.606-6.56 2.714-4.326 3.248-10.448 1.386-15.914-.59-1.724-1.04-3.152-.999-3.168q13.517-5.677 20.083-12.64C91.434 36.19 94 30.781 94.822 22.49c.256-2.554-.396-3.99-.976-2.16m-41.19 35.152c5.014 1.488 8.122 7.73 6.387 12.832-2.297 6.752-11.453 8.988-16.688 4.08-2.864-2.688-3.814-7.824-2.131-11.52.98-2.157 4.042-5.028 5.763-5.408.685-.15 1.447-.343 1.696-.426 1.027-.342 2.887-.18 4.973.442"/><path fill="#3F8A68" d="M93.846 20.33c-.163.515-.201 1.036-.08 1.152.458.46-2.454 7.667-4.016 9.936-3.34 4.848-9.504 9.664-15.446 12.064-6.608 2.668-10.602 3.324-21.846 3.587-10.624.25-15.764-.115-21.088-1.504-8.583-2.23-17.156-7.767-21.159-13.661-1.859-2.74-4.448-8.877-4.448-10.557 0-.544-.214-1.126-.48-1.29-.326-.201-.445.676-.368 2.765.432 11.904 9.725 23.328 24.768 30.455 2.378 1.126 4.323 2.118 4.323 2.201S33.514 56.694 32.91 58c-1.386 2.989-1.783 6.14-1.213 9.635.634 3.888 2.122 6.755 5.005 9.661 2.944 2.96 5.897 4.576 9.76 5.334 4.854.957 11.024-.832 14.873-4.31 3.997-3.61 5.847-7.712 5.847-12.96 0-3.072-.976-7.606-1.834-8.5-.736-.77-.425-1.362 1.05-1.996 8.342-3.568 14.56-7.574 18.89-12.16 6.08-6.445 8.726-12.054 9.535-20.214.256-2.554-.393-3.99-.976-2.16M52.65 55.478a8.8 8.8 0 0 1 3.827 2.356c6.47 6.819 2.105 17.161-7.242 17.161-9.373 0-13.417-11.213-6.345-17.584 1.02-.918 2.416-1.792 3.097-1.945.685-.15 1.447-.343 1.696-.426 1.027-.342 2.887-.18 4.967.438"/><path fill="#3F8A68" d="M93.9 20.118c-.44 1.152-.303 1.821.225 1.082.358-.509.413-.298.211.864-.15.848-.57 1.875-.938 2.282-.368.403-.55.854-.406.998.435.435-2.493 5.312-5.085 8.467-3.85 4.691-10.48 9.008-16.691 10.87a4 4 0 0 0-.678.356c-.8.512-5.728 1.616-9.408 2.105-5.236.701-18.503.586-23.536-.198-4.605-.717-8.282-1.6-8.794-2.112-.176-.18-.662-.32-1.075-.32s-2.528-.915-4.691-2.029c-4.16-2.137-8.714-5.504-10.839-8C9.987 31.882 9.35 31.06 9.35 30.79c0-.144-.396-.822-.883-1.504-.483-.681-.752-1.37-.595-1.526.157-.157.016-.288-.314-.288s-.473-.122-.32-.275c.154-.154-.032-.586-.41-.96-.377-.381-.585-1.063-.466-1.52s.05-.727-.15-.602c-.206.128-.455-.025-.56-.336-.106-.31-.289.083-.407.87-.119.788-.07 1.345.102 1.239.176-.109.458.726.627 1.856.167 1.13.9 3.338 1.626 4.902 4.022 8.695 10.352 14.74 20.95 20.007 4.215 2.096 5.472 2.918 5.303 3.465a152 152 0 0 1-1.293 3.668c-.957 2.633-1.034 3.356-.73 6.816.192 2.208.64 4.33 1.037 4.934.384.586.56 1.2.394 1.363-.163.167-.064.301.224.301s.521.32.521.707c0 1.098 4.948 5.783 7.424 7.03 7.738 3.905 17.19 1.495 22.426-5.718.717-.989 1.472-1.92 1.68-2.07.205-.15.358-.451.34-.672-.078-.82.518-3.312.793-3.315.512-.007.531-4.596.032-7.35-.269-1.476-.87-3.431-1.335-4.346-.985-1.933-.876-2.08 2.487-3.316 3.337-1.222 9.075-4.457 12.717-7.168.627-.467 6.656-6.55 7.897-7.968.903-1.036 4.263-7.564 4.266-8.288 0-.31.15-.563.336-.563.185 0 .377-.451.425-1.008.048-.553.285-2.016.525-3.248.941-4.803 1.05-5.942.608-6.217-.253-.154-.576.038-.726.428m-88.777.317c.167.442.416.688.557.55.14-.137 0-.499-.307-.8-.442-.441-.493-.39-.25.25M53.28 55.616c2.573 1.069 3.744 2.122 5.043 4.531 1.501 2.784 1.658 6.47.397 9.248-.86 1.891-3.696 4.704-4.746 4.704-.339 0-.7.24-.8.538-.118.355-1.321.547-3.51.56-2.768.019-3.635-.163-5.126-1.079-3.84-2.352-5.376-5.03-5.28-9.212.096-4.288 1.913-7.04 6.115-9.261 1.731-.915 5.737-.928 7.907-.029"/><path fill="#3F8A68" d="M93.9 20.118c-.44 1.152-.303 1.821.225 1.082.358-.509.413-.298.211.864-.15.848-.57 1.875-.938 2.282-.368.403-.55.854-.406.998.435.435-2.493 5.312-5.085 8.467-3.85 4.691-10.48 9.008-16.691 10.87a4 4 0 0 0-.678.356c-.8.512-5.728 1.616-9.408 2.105-5.236.701-18.503.586-23.536-.198-4.605-.717-8.282-1.6-8.794-2.112-.176-.18-.662-.32-1.075-.32-1.319 0-8.519-3.968-11.479-6.32-2.69-2.144-6.896-6.614-6.896-7.334 0-.183-.396-.89-.883-1.572-.483-.681-.752-1.37-.595-1.526.157-.157.016-.288-.314-.288s-.473-.122-.32-.275c.154-.154-.032-.586-.41-.96-.377-.381-.585-1.063-.466-1.52s.05-.727-.15-.602c-.206.128-.455-.025-.56-.336-.106-.31-.289.083-.407.87-.119.788-.07 1.345.102 1.239.176-.109.458.726.627 1.856.167 1.13.9 3.338 1.626 4.902 4.022 8.695 10.352 14.74 20.95 20.007 4.24 2.109 5.472 2.912 5.29 3.465-.128.397-.704 2.1-1.28 3.783-3.149 9.238 2.57 19.667 12.208 22.265 7.072 1.91 14.662-.854 19.088-6.947.717-.989 1.472-1.92 1.68-2.07.205-.15.358-.451.34-.672-.078-.82.518-3.312.793-3.315.512-.007.531-4.596.032-7.35-.269-1.476-.87-3.431-1.335-4.346-.928-1.818-.723-2.25 1.367-2.868 2.784-.819 10.841-5.308 14.086-7.846.832-.646 6.23-6.112 7.648-7.74.906-1.038 4.263-7.566 4.266-8.289 0-.307.15-.56.336-.56.185 0 .377-.451.425-1.008.048-.553.285-2.016.525-3.248.941-4.803 1.05-5.942.608-6.217-.253-.154-.576.038-.726.428m-88.777.317c.167.442.416.688.557.55.14-.137 0-.499-.307-.8-.442-.441-.493-.39-.25.25M54.781 56.32c2.944 1.728 4.768 4.97 4.774 8.486.007 4.202-1.465 6.832-5.152 9.204-2.553 1.644-7.264 1.696-9.862.105-3.84-2.352-5.376-5.03-5.28-9.213.096-4.284 1.613-6.7 5.622-8.979 2.663-1.513 6.928-1.344 9.898.397"/><path fill="#599952" d="M93.846 20.33c-.166.515-.179 1.056-.032 1.203.144.147.285-.02.308-.371.025-.35.208-.128.403.486.345 1.072.361 1.056.406-.31.051-1.687-.656-2.35-1.085-1.008m-88.726.105c.166.442.416.691.557.554.14-.138 0-.5-.307-.807-.442-.438-.493-.384-.25.253m87.462 7.13c-1.59 4.16-8.086 11.241-12.387 13.504l-3.945 2.08c-1.05.553-2.39 1.037-2.983 1.072-.589.038-.992.201-.886.365.246.403-3.29 1.513-7.667 2.406-2.765.563-6.208.733-15.018.733-9.962 0-11.952-.122-15.469-.928-5.728-1.319-6.073-1.437-5.753-1.959.176-.281.07-.33-.266-.121-.742.457-6.39-1.952-6.01-2.567.17-.275.074-.332-.233-.144-.624.384-5.792-3.008-8.359-5.484-2.742-2.65-4.79-5.408-4.438-5.981.18-.288.122-.39-.131-.234-.247.15-.992-.672-1.651-1.837l-1.2-2.112.3 1.792c.375 2.256 3.181 7.914 5.306 10.698.89 1.165 1.478 2.342 1.312 2.614-.18.288-.106.372.18.196.489-.301 1.2.45 1.215 1.283 0 .246.205.448.455.448s1.708 1.056 3.25 2.336c1.543 1.286 3.713 2.867 4.82 3.52 1.107.646 2.016 1.376 2.016 1.613 0 .236.202.307.448.153.246-.153.448-.064.448.199 0 .259.15.435.336.384.182-.048 1.245.332 2.352.844 1.11.512 2.787 1.2 3.728 1.533 2.528.893 2.65 1.264 1.328 4.01-1.565 3.245-1.933 8.726-.816 12.182.682 2.112 3.59 7.085 4.352 7.434.16.073.746.528 1.3 1.008.553.48 1.186.873 1.41.873s.279.205.122.458c-.157.256-.115.416.086.362.55-.15 2.388.537 2.388.89 0 .169.69.354 1.532.415s2.103.336 2.8.611c1.396.554 4.186.788 4.186.352 0-.153 1.088-.492 2.42-.761 3.183-.64 6.422-2.682 8.96-5.655 2.649-3.1 3.817-5.872 4.15-9.85.224-2.729.096-3.666-.925-6.546-.653-1.85-1.232-3.632-1.287-3.962-.057-.362 1.066-1.053 2.82-1.734 3.376-1.312 3.593-1.408 6.275-2.91 3.641-2.031 6.201-3.945 9.789-7.32 1.945-1.831 3.616-3.28 3.712-3.226s.137.032.096-.055c-.045-.083.899-1.645 2.092-3.475 1.194-1.827 2.708-4.938 3.364-6.912 1.29-3.862 1.347-5.93.076-2.595M51.27 54.816c-.16.256.023.33.426.176.797-.307 3.83.995 3.83 1.645 0 .233.256.425.573.425.695 0 1.792 1.239 2.867 3.232.564 1.037.8 2.474.804 4.839.003 2.88-.164 3.616-1.172 5.152-4.313 6.573-11.737 7.465-16.95 2.041-1.738-1.81-3.162-5.046-3.152-7.161.01-1.802.5-3.19 1.011-2.874.279.173.333.07.128-.256-.726-1.18 1.571-4.803 2.66-4.189.249.141.313.1.14-.092-.509-.564 2.093-2.592 3.92-3.053 1.664-.423 5.197-.34 4.915.115"/><path fill="#3F8A68" d="M93.846 20.33c-.166.515-.179 1.056-.032 1.203.144.147.285-.02.308-.371.025-.35.208-.128.403.486.345 1.072.361 1.056.406-.31.051-1.687-.656-2.35-1.085-1.008m-88.726.105c.166.442.416.691.557.554.14-.138 0-.5-.307-.807-.442-.438-.493-.384-.25.253"/><path fill="#3F8A68" d="M93.786 20.544c-.148.384-.141.82.012.973.154.153.301-.007.324-.352.025-.352.208-.135.406.48.34 1.065.358 1.046.403-.333.045-1.504-.678-1.987-1.145-.768"/></svg>
