<svg xmlns="http://www.w3.org/2000/svg" viewBox="0 0 400 400"><path fill="#75E8F1" d="M324 41.313c6.617 5.271 12.874 10.855 19 16.687l1.984 1.86C359.508 73.85 370.774 91.213 380 109l1.898 3.633c13.677 27.663 18.813 57.135 18.727 87.867l.04 13.906c-2.197 44.945-20.056 87.228-50.513 120.254-2.12 2.304-4.166 4.66-6.214 7.027C340.249 345.824 336.29 349.5 332 353l-3.125 2.563c-37.15 29.852-79.981 44.86-127.562 44.875l-12.762.058C145.374 398.79 103.667 382.345 71 354l-2.477-2.14C28.535 316.567 4.13 268.342 0 215c-1.146-38.53 4.526-74.819 23-109l2.086-3.984c7.07-13.12 15.754-24.958 25.91-35.86 1.862-2.003 3.621-4.062 5.379-6.156C123.009-15.893 246.85-17.995 324 41.313"/><path fill="#FD7805" d="M210 48v8l4.875-.5c8.368-.712 16.734-.584 25.125-.5l-.937 2.313A111 111 0 0 0 237 63l4.313 1.188c4.98 1.48 9.566 3.477 14.242 5.726 2.64 1.257 2.64 1.257 6.445 2.086l2-4c7.508-6.257 12.972-8.792 23-8 10.219 2.428 17.952 9.323 23.5 18.063 4.94 9.139 5.454 18.69 4.5 28.937-2.84 7.878-6.836 13.152-14.375 16.938A203 203 0 0 1 296 126c.65 6.129 2.34 11.692 4.188 17.563 2.475 8.046 4.935 16.093 7.25 24.187l1.496 5.172c1.5 7.147 2.585 14.722-.997 21.39-.382.76-.765 1.519-1.16 2.301C297.13 209.57 277.868 215.223 263 220l-2.898 1.043c-44.424 15.216-98.382 10.321-140.633-9.129C107.302 205.942 96.659 200.43 92 187c-2.192-10.944 2.709-21.74 6-32q1.682-5.618 3.313-11.25c.49-1.676.982-3.352 1.488-5.078 1.09-4.25 1.772-8.312 2.199-12.672l-1.977-.848c-7.502-3.44-11.926-7.237-15.898-14.652-2.988-11.953-1.651-22.824 4.57-33.375 5.192-7.735 11.234-13.114 19.93-16.562C119.63 59.228 125.94 59.986 133 64c2.016 1.86 2.016 1.86 3.813 3.813L140 71c6.085-1.217 11.035-3.616 16.688-6.187C166.992 60.232 177.213 56.26 188 53l4.707-1.469C204.272 48 204.272 48 210 48"/><path fill="#76E7EF" d="m200.188 124.688 7.167.011c10.804.49 21.165 1.821 29.083 9.739 6.677 9.283 5.676 20.972 4.062 31.968A56.4 56.4 0 0 1 238 174l-1.031 2.598c-3.667 8.213-8.79 14.376-17.219 17.84-11.69 4.15-27.924 5.26-39.426.019-7.567-4.744-12.968-10.068-16.324-18.457l-1.187-2.625c-2.316-6.77-2.047-13.814-2.125-20.875l-.114-6.656c.556-7.626 2.436-9.998 7.863-15.031 9.754-6.013 20.556-6.205 31.75-6.125"/><path fill="#FC7806" d="m102.188 249.438 9.355-.067c9.332.694 15.295 2.015 21.52 9.129 3.255 5.88 3.3 10.778 2.937 17.5-1.437 3.938-1.437 3.938-3 7l-1 2a198 198 0 0 0 3 5c1.98 7.923 1.194 14.51-2 22-4.87 6.088-10.393 8.732-18 10-4.665.171-9.332.266-14 .313l-7.5.113c-8.713-.571-8.713-.571-12.5-4.426-6.062-10.608-4.488-20.451-4.437-32.562l.003-13.942C77 260 77 260 80 254c7.246-5.797 13.01-4.566 22.188-4.562"/><path fill="#FD7704" d="m224.875 249.75 6.992-.016c8.622.374 15.756 2.88 21.942 9.078 5.342 6.15 5.533 9.752 5.476 17.758-.452 5.44-2.658 7.979-6.598 11.493L251 290c1.504 7.52 5.004 14.132 8.164 21.094C261 316 261 316 260 321c-2.537 1.268-4.416 1.204-7.25 1.25l-2.828.078c-3.766-.423-5.802-1.126-8.922-3.328-2.266-4.16-2.266-4.16-4.25-9.062-2.158-5.933-2.158-5.933-5.75-10.938a200 200 0 0 0-10 0l-.113 4.27-.2 5.543-.175 5.519C220 319 220 319 217 322c-2.777.398-2.777.398-5.937.375l-3.153.023C205 322 205 322 201 319c-.346-8.91-.426-17.833-.375-26.75l.04-14.86C201.162 259 201.162 259 208 252c5.675-2.838 10.554-2.264 16.875-2.25"/><path fill="#FD7805" d="m288.313 249.375 7.05.023c9.73.882 16.772 3.6 23.637 10.602 3.846 5.03 4.633 9.111 4.387 15.281-.793 5.573-3.016 9.473-7.137 13.219L314 290c1.753 7.01 5.132 13.47 8.066 20.059C324 315 324 315 324 320c-2.753 2.753-4.472 2.332-8.312 2.375l-3.426.086c-4.097-.579-5.458-1.415-8.262-4.461-2.203-4.293-2.203-4.293-4.25-9.187-1.824-5.22-1.824-5.22-4.75-9.813a123 123 0 0 0-5.562-.562l-3.067-.254L284 298l.14 4.488.11 5.825.14 5.8L284 319c-4.218 3.164-5.085 3.412-10.062 3.375l-3.16.023C268 322 268 322 265 319c-.3-9.434-.389-18.874-.375-28.312l-.023-15.739c.478-15.537.478-15.537 6.253-22.285 5.906-3.796 10.497-3.389 17.457-3.289"/><path fill="#FE7704" d="m144.91 249.504 3.152.058 3.16.004C154 250 154 250 157 253c.356 7.661.536 15.331.625 23-.543 13.12-.543 13.12 1.375 26q3.72.04 7.437.062l4.184.036c3.216.294 3.216.294 4.379-1.098.25-12.414.386-24.827.523-37.242C176 253 176 253 179 250c3.031-.434 3.031-.434 6.5-.438l3.469-.058C192 250 192 250 195 254c.298 9.1.39 18.207.375 27.312l.023 15.114c-.529 16.705-.529 16.705-5.71 21.886-7.437 4.67-15.072 4.022-23.563 4.063l-7.992.086c-6.48-.419-9.847-.894-15.133-4.461-8.325-10.246-5.25-24.607-5.313-37l-.113-14.938c.544-15.4.544-15.4 7.336-16.558"/><path fill="#75E8F0" d="m173.434 86.434 27.004.004 26.996-.067C249 87 249 87 254 92c.664 4.652.664 4.652.625 9.938l.04 5.277c-.732 5.267-1.846 7.191-5.665 10.785-4.368 2.184-10.52 1.265-15.25 1.313l-7.328.113c-7.335-.487-9.88-1.673-14.672-6.863-3.815-5.586-3.952-9.782-3.75-16.563h-15l.25 4.5c-.023 5.412-1.222 8.919-4.25 13.5-6.381 6.21-12.527 5.639-21.125 5.563l-7.508.003C154 119 154 119 149 115c-1.488-4.463-1.251-8.745-1.312-13.437l-.114-5.684c1.23-14.098 12.497-9.092 25.86-9.445"/><path fill="#F97B0C" d="m199.875 137.688 5.805-.051c4.952.338 8.038.94 12.32 3.363 1.188 2.375 1.188 2.375 1 5-2.91 5.425-7.554 6.79-13 9-1.307 1.1-1.307 1.1-1.312 3.813.056 3.154.056 3.154 1.687 5.25 3.917 2.89 8.222 4.887 12.625 6.937l-1 4c-5.944-.41-9.186-1.576-14-5-2.386-1.244-2.386-1.244-5-1l-3.312 2.375c-4.11 2.925-6.722 3.364-11.688 3.625l-1-4 2-1.187 3-1.813 4.25-2.562c3.73-1.974 3.73-1.974 4.75-4.438.04-2 .043-4 0-6l-2.266-.664c-4.763-1.534-8.036-2.607-11.547-6.274C182 145 182 145 182.438 142.25c3.96-5.701 11.265-4.55 17.438-4.562"/><path fill="#78E6EB" d="M286 77c5.686 2.896 8.75 6.757 11.813 12.25 1.503 4.747 1.213 7.895.187 12.75-2.05 3.76-3.439 5.626-7 8h-3l-1.469-3.113C282.37 98.282 277.961 90.482 272 83c3.396-6.791 6.806-6.576 14-6"/><path fill="#78E6EC" d="M123 77c3 1 3 1 5 2-.134 6.177-2.469 9.344-6.012 14.09-3.617 5.294-6.246 11.127-8.988 16.91-5.448-1.362-6.903-3.354-10-8-1.104-5.545-.344-10.01 1.5-15.312 4.735-6.985 9.653-10.848 18.5-9.688"/><path fill="#7AE4E7" d="M228.875 266.563c3.899.103 5.87.305 9.375 2.125C240 271 240 271 240 276c-4.477 3.358-5.735 3.386-11.125 3.313l-3.758-.012C222 279 222 279 220 277c-.312-3.437-.312-3.437 0-7 3.473-3.473 4.178-3.432 8.875-3.437"/><path fill="#7AE4E9" d="M298 267c3.688 2 3.688 2 6 4-.187 2.875-.187 2.875-1 6-3.734 2.042-6.985 2.245-11.187 2.188l-3.168-.02C286 279 286 279 284 278c-.187-4.375-.187-4.375 0-9 4.453-2.969 8.776-2.64 14-2"/><path fill="#7CE3E5" d="m104.813 292.75 3.769-.078C112 293 112 293 116 296c.375 3.063.375 3.063 0 6-2 2-2 2-5.914 2.195l-4.711-.07-4.727-.055L97 304c-.098-7.715-.098-7.715 0-10 1.924-1.924 5.257-1.218 7.813-1.25"/><path fill="#77E6ED" d="M97 267q3.938-.04 7.875-.062l4.43-.036C113 267 113 267 115 268c.125 2.875.125 2.875 0 6-2 2-2 2-5.66 2.23l-4.403-.043-4.41-.019C97 276 97 276 96 275c-.235-5.53-.235-5.53 1-8"/></svg>
