<svg xmlns="http://www.w3.org/2000/svg" viewBox="0 0 400 400"><circle cx="200" cy="200" r="150" fill="#FFF"/><path d="M0 200v200h400V0H0zm279-94.5V121l-39.2.2-39.1.3 30.2 12c19.8 7.9 31.8 13.2 34.9 15.5 6.1 4.6 10.8 11.6 12.2 18.3.7 3.6 1 23.6.8 62.3l-.3 56.9-2.8 5.7c-1.6 3.3-4.9 7.6-7.8 10.2-8.6 7.7-7.7 7.6-64.3 7.6h-50.1l15.5-15.5 15.5-15.5H247v-95h-94v126h-32v-93.5l15.5-15.5c8.5-8.5 15.5-15.8 15.5-16.2 0-.5-7-.8-15.5-.8H121v-31l46.8-.2 46.7-.3-46.5-15.6-46.5-15.6-.3-15.6-.3-15.7H279z"/></svg>
