<svg xmlns="http://www.w3.org/2000/svg" fill="none" viewBox="0 0 128 128"><g stroke="#000" stroke-width="6.75"><path d="M3.606 64C3.606 30.633 30.633 3.606 64 3.606S124.394 30.633 124.394 64 97.367 124.394 64 124.394 3.606 97.367 3.606 64Z"/><path d="M5.408 47.272c11.36-3.275 9.28-4.054 11.68-3.275s43.505 77.496 43.757 78.595"/><path d="M17.127 44.62c1.415.29 17.284 10.073 19.029 12.312 1.744 2.238 4.122 9.433 6.025 10.872s3.647.96 5.391.32 7.612-8.474 9.198-9.593c1.586-1.12 3.488-.48 4.44 1.279.951 1.758 30.463 54.787 31.635 56.922M57.69 59.042l-4.507 49.127M67.155 68.67c1.757-1.276 1.916-.639 2.874-1.755s1.278-3.828 1.757-5.423c.48-1.595 2.396-1.117 3.674-.638 1.277.479 2.555 1.117 3.673 2.712s26.031 30.784 28.746 32.06c2.715 1.275 3.039.995 6.149 1.275"/></g></svg>
