<svg xmlns="http://www.w3.org/2000/svg" viewBox="0 0 284 284"><g fill="#0FFFFF" stroke="#FFF" stroke-width="15"><path fill="none" d="M8 142C8 67.967 67.967 8 142 8s134 59.967 134 134-59.967 134-134 134S8 216.033 8 142Z"/><path fill="none" d="M12 104.885c25.203-7.266 20.589-8.995 25.913-7.266C43.238 99.35 134.44 269.562 135 272"/><path fill="none" d="M38 99c3.14.646 38.35 22.35 42.22 27.317s9.147 20.931 13.37 24.124c4.221 3.193 8.091 2.129 11.961.71s16.888-18.803 20.407-21.286 7.74-1.065 9.85 2.838C137.92 136.605 203.4 254.263 206 259"/><path d="m128 131-10 109z"/><path fill="none" d="M149 152.36c3.898-2.83 4.252-1.415 6.378-3.892s2.835-8.493 3.898-12.032c1.063-3.54 5.315-2.478 8.15-1.416s5.67 2.477 8.15 6.016 57.757 68.302 63.781 71.133S246.1 214.379 253 215"/></g></svg>
