<svg xmlns="http://www.w3.org/2000/svg" viewBox="0 0 64 64"><circle cx="32" cy="32" r="32" fill="#FEF3C7"/><path fill="#D97706" d="M22.867 46.94h-4.908a4.84 4.84 0 0 1-2.338-.576 4.57 4.57 0 0 1-1.713-1.598l-2.616-4.262a3.7 3.7 0 0 1-.625-2.089c0-.767.208-1.428.625-2.067l2.662-4.327-2.662-4.305a3.77 3.77 0 0 1-.625-2.088c0-.746.208-1.45.625-2.089l2.616-4.262a4.4 4.4 0 0 1 1.713-1.599 4.9 4.9 0 0 1 2.338-.596h4.908l2.593-4.22a4.4 4.4 0 0 1 1.713-1.598 4.9 4.9 0 0 1 2.338-.597h4.978c.856 0 1.62.192 2.338.597a4.57 4.57 0 0 1 1.713 1.598l2.616 4.22h4.908c.857 0 1.62.191 2.338.596a4.57 4.57 0 0 1 1.713 1.599l2.593 4.262c.417.64.625 1.322.625 2.089s-.208 1.449-.625 2.088l-2.662 4.305 2.662 4.327c.417.64.625 1.321.625 2.067s-.208 1.45-.625 2.089l-2.593 4.262a4.4 4.4 0 0 1-1.713 1.598 4.9 4.9 0 0 1-2.338.576h-4.908l-2.616 4.22a4.4 4.4 0 0 1-1.713 1.598 4.9 4.9 0 0 1-2.338.575H29.51a4.84 4.84 0 0 1-2.338-.575 4.57 4.57 0 0 1-1.713-1.598zm18.289-17.05h4.977l2.547-4.262-2.547-4.263h-4.977l-2.616 4.263zm-11.575 6.394h4.861l2.593-4.263-2.593-4.262h-4.861l-2.593 4.262zm0-12.787h4.861l2.663-4.327-2.593-4.198h-4.978l-2.592 4.198 2.662 4.327zm-4.098 2.13-2.593-4.262h-4.908l-2.593 4.263 2.593 4.262h4.908zm0 12.788-2.593-4.262h-4.977l-2.547 4.262 2.593 4.262h4.908l2.593-4.262zm4.098 2.131-2.663 4.305 2.593 4.22h4.978l2.593-4.22-2.663-4.305h-4.861zm11.575 2.131h4.908l2.593-4.262-2.593-4.262h-4.908l-2.616 4.262z"/></svg>
