<svg xmlns="http://www.w3.org/2000/svg" viewBox="0 0 64 64"><circle cx="32" cy="32" r="32" fill="#FFCD4D"/><path fill-rule="evenodd" d="M23.264 19.488c0-3.15 2.542-5.705 5.677-5.705h6.113c3.136 0 5.676 2.555 5.676 5.705zm-6.11 7.023c0-3.152 2.54-5.706 5.675-5.706h18.339c3.133 0 5.675 2.554 5.675 5.706zm.874 1.317c-2.171 0-3.931 1.77-3.931 3.951a3.94 3.94 0 0 0 3.931 3.949h27.944c2.169 0 3.929-1.767 3.929-3.949s-1.76-3.951-3.929-3.951zm-.438 9.658c0 3.153 2.541 5.707 5.676 5.707h18.339c3.133 0 5.675-2.554 5.675-5.707zm11.351 12.729c-3.135 0-5.677-2.554-5.677-5.705h17.903c0 3.151-2.542 5.705-5.677 5.705z"/></svg>
