<svg xmlns="http://www.w3.org/2000/svg" viewBox="0 0 64 64"><path fill="url(#a)" d="M32 0C5.645 0 0 5.645 0 32s5.645 32 32 32 32-5.645 32-32S58.355 0 32 0M18.156 8.895a2.31 2.31 0 0 1 2.309-2.31h4.633a2.314 2.314 0 0 1 2.312 2.31V13.5a2.31 2.31 0 0 0 2.309 2.309h4.59a2.31 2.31 0 0 0 2.308-2.309V8.895a2.313 2.313 0 0 1 2.309-2.31h4.64a2.314 2.314 0 0 1 2.313 2.31v4.636a2.317 2.317 0 0 1-2.313 2.313h-4.609a2.31 2.31 0 0 0-2.305 2.308v4.606a2.316 2.316 0 0 1-2.308 2.312h-4.64a2.32 2.32 0 0 1-2.31-2.312v-4.606a2.316 2.316 0 0 0-2.312-2.308H20.48a2.316 2.316 0 0 1-2.308-2.313V8.895Zm-2.312 30.07v4.601a2.317 2.317 0 0 1-2.313 2.313H8.895a2.314 2.314 0 0 1-2.31-2.313V38.93a2.313 2.313 0 0 1 2.31-2.309H13.5a2.31 2.31 0 0 0 2.309-2.312v-4.59A2.31 2.31 0 0 0 13.5 27.41H8.895a2.316 2.316 0 0 1-2.31-2.312v-4.641c0-1.27 1.04-2.309 2.31-2.309h4.636a2.316 2.316 0 0 1 2.313 2.309v4.61a2.314 2.314 0 0 0 2.312 2.308h4.602a2.314 2.314 0 0 1 2.312 2.309v4.636a2.317 2.317 0 0 1-2.312 2.313h-4.602a2.314 2.314 0 0 0-2.312 2.308v.02M45.89 55.133a2.316 2.316 0 0 1-2.309 2.312h-4.637a2.32 2.32 0 0 1-2.308-2.312v-4.606c0-1.27-1.04-2.308-2.313-2.308h-4.586a2.313 2.313 0 0 0-2.308 2.308v4.606a2.317 2.317 0 0 1-2.313 2.312h-4.64a2.32 2.32 0 0 1-2.309-2.312v-4.637a2.313 2.313 0 0 1 2.309-2.309h4.605a2.317 2.317 0 0 0 2.313-2.312V41.27a2.313 2.313 0 0 1 2.308-2.31h4.64a2.313 2.313 0 0 1 2.31 2.31v4.605a2.313 2.313 0 0 0 2.304 2.313h4.61a2.314 2.314 0 0 1 2.312 2.308v4.637Zm11.57-30.051a2.316 2.316 0 0 1-2.309 2.313h-4.605a2.31 2.31 0 0 0-2.313 2.308v4.59a2.315 2.315 0 0 0 2.313 2.312h4.605a2.313 2.313 0 0 1 2.309 2.31v4.636a2.316 2.316 0 0 1-2.309 2.312h-4.64a2.32 2.32 0 0 1-2.313-2.312v-4.606a2.313 2.313 0 0 0-2.308-2.308h-4.606a2.32 2.32 0 0 1-2.308-2.313v-4.633a2.314 2.314 0 0 1 2.308-2.312h4.606a2.314 2.314 0 0 0 2.308-2.313V20.47a2.317 2.317 0 0 1 2.313-2.313h4.64c1.27 0 2.309 1.04 2.309 2.313v4.636Zm0 0"/><defs><linearGradient id="a" x1="64.037" x2="-21.861" y1="21.132" y2="22.336" gradientTransform="scale(2.13333)" gradientUnits="userSpaceOnUse"><stop stop-color="#F8F29C"/><stop offset=".165" stop-color="#F6DB2A"/><stop offset=".333" stop-color="#F4A435"/><stop offset=".55" stop-color="#E85A46"/><stop offset=".699" stop-color="#B93483"/><stop offset=".867" stop-color="#502B6E"/><stop offset="1" stop-color="#2A2136"/></linearGradient></defs></svg>
