<svg xmlns="http://www.w3.org/2000/svg" viewBox="0 0 128 128"><path fill="url(#a)" d="M64 0C11.29 0 0 11.29 0 64s11.29 64 64 64 64-11.29 64-64S116.71 0 64 0M36.312 17.79a4.62 4.62 0 0 1 4.618-4.62h9.266a4.63 4.63 0 0 1 4.624 4.62V27a4.62 4.62 0 0 0 4.618 4.618h9.18A4.62 4.62 0 0 0 73.234 27v-9.21a4.626 4.626 0 0 1 4.618-4.62h9.28a4.63 4.63 0 0 1 4.626 4.62v9.272a4.634 4.634 0 0 1-4.626 4.626h-9.218a4.62 4.62 0 0 0-4.61 4.616v9.212a4.63 4.63 0 0 1-4.616 4.624h-9.28a4.64 4.64 0 0 1-4.62-4.624v-9.212a4.63 4.63 0 0 0-4.624-4.616H40.96a4.63 4.63 0 0 1-4.616-4.626V17.79zm-4.624 60.14v9.202a4.634 4.634 0 0 1-4.626 4.626H17.79a4.63 4.63 0 0 1-4.62-4.626V77.86a4.626 4.626 0 0 1 4.62-4.618H27a4.62 4.62 0 0 0 4.618-4.624v-9.18A4.62 4.62 0 0 0 27 54.82h-9.21a4.63 4.63 0 0 1-4.62-4.624v-9.282c0-2.54 2.08-4.618 4.62-4.618h9.272a4.63 4.63 0 0 1 4.626 4.618v9.22a4.63 4.63 0 0 0 4.624 4.616h9.204a4.63 4.63 0 0 1 4.624 4.618v9.272a4.634 4.634 0 0 1-4.624 4.626h-9.204a4.63 4.63 0 0 0-4.624 4.616v.04m60.092 32.344a4.63 4.63 0 0 1-4.618 4.624h-9.274a4.64 4.64 0 0 1-4.616-4.624v-9.212c0-2.54-2.08-4.616-4.626-4.616h-9.172a4.626 4.626 0 0 0-4.616 4.616v9.212a4.63 4.63 0 0 1-4.626 4.624h-9.28a4.64 4.64 0 0 1-4.618-4.624v-9.274a4.626 4.626 0 0 1 4.618-4.618h9.21a4.634 4.634 0 0 0 4.626-4.624v-9.21a4.626 4.626 0 0 1 4.616-4.62h9.28a4.626 4.626 0 0 1 4.62 4.62v9.21a4.626 4.626 0 0 0 4.608 4.626h9.22a4.63 4.63 0 0 1 4.624 4.616v9.274zm23.14-60.102a4.63 4.63 0 0 1-4.618 4.626h-9.21a4.62 4.62 0 0 0-4.626 4.616v9.18a4.63 4.63 0 0 0 4.626 4.624h9.21a4.63 4.63 0 0 1 4.618 4.62v9.272a4.63 4.63 0 0 1-4.618 4.624h-9.28a4.64 4.64 0 0 1-4.626-4.624V77.89a4.626 4.626 0 0 0-4.616-4.616h-9.212a4.64 4.64 0 0 1-4.616-4.626v-9.266a4.63 4.63 0 0 1 4.616-4.624h9.212a4.63 4.63 0 0 0 4.616-4.626V40.94a4.634 4.634 0 0 1 4.626-4.626h9.28c2.54 0 4.618 2.08 4.618 4.626v9.272z"/><defs><linearGradient id="a" x1="273.224" x2="-93.273" y1="90.163" y2="95.3" gradientUnits="userSpaceOnUse"><stop stop-color="#F8F29C"/><stop offset=".165" stop-color="#F6DB2A"/><stop offset=".333" stop-color="#F4A435"/><stop offset=".55" stop-color="#E85A46"/><stop offset=".699" stop-color="#B93483"/><stop offset=".867" stop-color="#502B6E"/><stop offset="1" stop-color="#2A2136"/></linearGradient></defs></svg>
