<svg xmlns="http://www.w3.org/2000/svg" viewBox="0 0 400 400"><path fill="#0D2819" d="M0 0h400v400H0z"/><path fill="#FAFAFA" d="M165 103c4.58 3.364 7.13 5.687 9 11l2.648-.656c16.3-3.69 33.45-3.943 49.352 1.656l1.215-1.758c4.78-6.567 9.874-11.605 17.785-14.242 11.643-.75 19.58-.445 29.25 6.25 6.65 6.65 10.005 14.043 10.188 23.375C284.27 139.9 279.876 148.124 272 156l1.61 3.48c10.772 23.688 17.52 49.447 9.202 75.196-3.096 8.102-6.977 15.696-11.175 23.277-1.704 2.964-1.704 2.964-2.637 6.047.845 2.43 1.8 4.823 2.813 7.188 3.86 9.377 5.44 16.716 5.187 26.812h-14l-.629-3.375c-1.96-9.715-4.621-18.318-8.883-27.27-2.339-5.273-2.339-5.273-2.488-8.355 1.605-1.81 3.22-3.61 4.887-5.363 13.374-16.688 15.729-36.643 13.652-57.2-2.573-16.466-9.591-32.102-18.277-46.273C250 148 250 148 250 146l2.484-.516 3.266-.734 3.234-.703c4.272-1.483 6.208-3.46 8.243-7.457 1.736-5.816 1.704-11.584-.852-17.09-4.074-4.288-7.033-5.39-12.937-5.875-5.303.427-5.303.427-9.438 3.375-5.212 6.546-6.161 12.786-7 21l-2.02-1.172C212.37 124.052 190.83 125.237 166 132h-2l-.516-2.23c-1.823-7.616-1.823-7.616-6.484-13.77-3.59-1.197-6.59-1.205-10.375-1.25l-3.96-.078c-3.896.349-5.655.882-8.665 3.328-2.996 3.812-3.385 6.713-3.312 11.5l.011 3.344c.301 3.16.827 5.355 2.301 8.156 3.45 2.3 6.138 2.808 10.188 3.625 1.272.26 2.544.52 3.855.79.976.192 1.952.386 2.957.585-2 5-2 5-4.863 9.18C131.686 175.85 129.306 199.973 131 224c1.24 5.586 3.113 10.079 6 15l2.262 3.863c3.196 5.172 6.267 9.98 10.738 14.137-1.491 4.771-3.39 9.254-5.437 13.813-3.968 9.012-6.789 17.496-8.563 27.187h-14c-.861-11.025 2.598-21.253 7.375-31.125 1.802-4.297 1.78-5.49.625-9.875a105 105 0 0 0-3.687-6.437c-12.758-21.66-14.234-44.032-8.735-68.56 2.53-8.9 5.888-17.459 9.422-26.003l-2.86-2.266c-6.577-5.726-8.6-13.738-9.363-22.21-.3-8.416 1.897-15.902 7.223-22.524 11.469-11.877 28.44-13.904 43-6"/></svg>
