<svg xmlns="http://www.w3.org/2000/svg" fill="none" viewBox="0 0 35 41"><path stroke="#73FF9F" stroke-miterlimit="10" stroke-width="2" d="M32.116 40.784c-.548-3.738-2.515-7.338-2.515-7.338.941-.909 3.293-5.05 3.67-7.56.376-2.513.37-5.675-.633-8.907-.912-2.944-2.757-6.184-2.757-6.184 1.758-.355 2.235-1.317 2.235-1.317 2.21-3.42.661-7.812-3.583-7.934-4.242-.122-4.736 4.06-4.736 4.06-5.178-3.05-12.607-.652-12.607-.652C10.387.892 6.417 1 6.417 1c-4.242.123-5.79 4.515-3.583 7.935 0 0 .479.961 2.237 1.316 0 0-1.675 2.517-2.808 6.587-.827 2.97-.93 6.463-.554 8.974s2.7 6.181 3.642 7.09c0 0-3.004 4.41-2.433 7.615"/></svg>
