<svg xmlns="http://www.w3.org/2000/svg" viewBox="0 0 64 64"><path fill="#fff" d="M9.184 29.34a.16.16 0 0 1-.16-.16 2.574 2.574 0 0 0-2.575-2.575.158.158 0 1 1 0-.316 2.58 2.58 0 0 0 2.574-2.574c0-.09.07-.16.16-.16.087 0 .16.07.16.16a2.58 2.58 0 0 0 2.571 2.574.158.158 0 1 1 0 .316 2.58 2.58 0 0 0-2.57 2.575c0 .09-.07.16-.16.16"/><path fill="#fff" d="M9.184 23.715a2.735 2.735 0 0 0 2.734 2.734 2.734 2.734 0 0 0-2.734 2.73 2.73 2.73 0 0 0-2.73-2.73 2.73 2.73 0 0 0 2.73-2.734m0-.32a.32.32 0 0 0-.32.32 2.41 2.41 0 0 1-2.41 2.414.32.32 0 0 0-.321.32c0 .176.144.32.32.32a2.41 2.41 0 0 1 2.41 2.41c0 .18.145.321.32.321.18 0 .32-.14.32-.32a2.415 2.415 0 0 1 2.415-2.41c.176 0 .32-.145.32-.32a.32.32 0 0 0-.32-.321 2.42 2.42 0 0 1-2.414-2.414.32.32 0 0 0-.32-.32m24.91-4.352a.16.16 0 0 1-.16-.16 2.57 2.57 0 0 0-2.57-2.57.16.16 0 0 1-.16-.16c0-.09.07-.16.16-.16a2.576 2.576 0 0 0 2.57-2.575c0-.09.074-.16.16-.16.09 0 .16.07.16.16a2.58 2.58 0 0 0 2.574 2.574.16.16 0 0 1 .152.16.165.165 0 0 1-.152.16 2.576 2.576 0 0 0-2.574 2.57c0 .09-.07.161-.16.161"/><path fill="#fff" d="M34.094 13.418a2.735 2.735 0 0 0 2.734 2.734 2.734 2.734 0 0 0-2.734 2.73 2.73 2.73 0 0 0-2.73-2.73 2.734 2.734 0 0 0 2.73-2.734m0-.32a.32.32 0 0 0-.32.32 2.415 2.415 0 0 1-2.41 2.414c-.18 0-.321.14-.321.32 0 .176.14.32.32.32a2.41 2.41 0 0 1 2.414 2.41c0 .18.145.321.32.321a.32.32 0 0 0 .321-.32 2.416 2.416 0 0 1 2.41-2.41.318.318 0 1 0 0-.637 2.42 2.42 0 0 1-2.414-2.414c0-.18-.14-.32-.32-.32Zm27.258 37.488-19.547-28.02-5.637 4.243 6.883 8.628-18.992-18.8-21.41 33.949Zm0 0"/><path fill="url(#a)" d="M23.563 39.148s1.328 3.586.425 11.434h3.832s2.157-7.145 1.5-8.512c-.656-1.37-5.757-2.922-5.757-2.922"/><path fill="#3083dc" d="M44.277 43.844c-1.976-6.5-7.906-7.63-10.37-7.63-1.134 0-5.321-1.8-6.852-2.585-.215-.11-.508-.746-.422-.969l.437-.707c.117-.488.207-1.023-.203-1.316l-.719-.356a.59.59 0 0 0-.652.09l-.683.617s-3.426-.758-4.02-.668c-.348.051-.672.63-.883 1.102a.556.556 0 0 1-.672.289c-1.222-.43-1.718-.29-1.718-.29s-1.075 1.395 0 2.466c8.304 8.535 11.12 6.832 12.171 16.73h3.793l1.77-3.734 3.004.027 1.433 3.707h5.602Zm-23.136-11.7a.38.38 0 1 1 0-.758.38.38 0 0 1 0 .759"/><defs><linearGradient id="a" x1="418.11" x2="485.9" y1="773.65" y2="700.97" gradientTransform="rotate(.278)scale(.05926)" gradientUnits="userSpaceOnUse"><stop offset="0" stop-color="#3083dc"/><stop offset=".1" stop-color="#2e7fd5"/><stop offset=".24" stop-color="#2a72c0"/><stop offset=".41" stop-color="#235f9f"/><stop offset=".61" stop-color="#194370"/><stop offset=".82" stop-color="#0c2036"/><stop offset="1"/></linearGradient></defs></svg>
