<svg xmlns="http://www.w3.org/2000/svg" viewBox="0 0 47 30"><path fill="#3083DC" d="M5.179 12.988a.13.13 0 0 1-.09-.037.13.13 0 0 1-.037-.09 2.07 2.07 0 0 0-.598-1.456 2.03 2.03 0 0 0-1.442-.603.13.13 0 0 1-.09-.037.129.129 0 0 1 .09-.219 2.03 2.03 0 0 0 1.44-.603A2.07 2.07 0 0 0 5.05 8.49q0-.053.037-.09a.126.126 0 0 1 .179 0 .13.13 0 0 1 .037.09c0 .545.216 1.068.598 1.454s.9.603 1.44.603a.126.126 0 0 1 .127.128.13.13 0 0 1-.037.09.13.13 0 0 1-.09.038 2.03 2.03 0 0 0-1.44.603 2.07 2.07 0 0 0-.598 1.455.13.13 0 0 1-.124.128"/><path fill="#3083DC" d="M5.179 8.49c0 .58.228 1.135.634 1.545s.957.64 1.53.64c-.573 0-1.124.23-1.53.64s-.634.966-.634 1.545c0-.58-.228-1.135-.634-1.545a2.15 2.15 0 0 0-1.53-.64c.573 0 1.124-.23 1.53-.64s.634-.966.634-1.545m0-.256a.25.25 0 0 0-.18.075.26.26 0 0 0-.073.18 1.95 1.95 0 0 1-.56 1.364 1.9 1.9 0 0 1-1.352.566.253.253 0 0 0-.253.256.25.25 0 0 0 .253.256 1.9 1.9 0 0 1 1.351.566c.358.361.56.852.56 1.363a.257.257 0 0 0 .254.256.257.257 0 0 0 .253-.256 1.95 1.95 0 0 1 .56-1.364 1.9 1.9 0 0 1 1.352-.565.25.25 0 0 0 .179-.075.257.257 0 0 0-.18-.437 1.9 1.9 0 0 1-1.35-.566 1.94 1.94 0 0 1-.56-1.363.26.26 0 0 0-.075-.181.25.25 0 0 0-.179-.075M24.91 4.755a.13.13 0 0 1-.127-.128 2.07 2.07 0 0 0-.598-1.454 2.03 2.03 0 0 0-1.44-.604.128.128 0 0 1 0-.256 2.03 2.03 0 0 0 1.44-.603 2.07 2.07 0 0 0 .598-1.454.13.13 0 0 1 .078-.118.126.126 0 0 1 .166.069.1.1 0 0 1 .01.049c0 .545.215 1.068.597 1.454s.9.603 1.441.604q.052 0 .09.037a.13.13 0 0 1 0 .181.13.13 0 0 1-.09.037 2.03 2.03 0 0 0-1.44.604 2.07 2.07 0 0 0-.599 1.454.13.13 0 0 1-.126.128"/><path fill="#3083DC" d="M24.91.256a2.2 2.2 0 0 0 .633 1.545 2.16 2.16 0 0 0 1.531.64 2.15 2.15 0 0 0-1.53.64c-.407.41-.634.966-.634 1.546a2.2 2.2 0 0 0-.634-1.546 2.16 2.16 0 0 0-1.531-.64 2.15 2.15 0 0 0 1.53-.64A2.2 2.2 0 0 0 24.91.256m0-.256a.25.25 0 0 0-.18.075.26.26 0 0 0-.074.18 1.94 1.94 0 0 1-.56 1.365 1.9 1.9 0 0 1-1.351.566.25.25 0 0 0-.18.075.257.257 0 0 0 .18.436c.507 0 .993.203 1.352.565s.56.853.561 1.365a.257.257 0 0 0 .254.256.257.257 0 0 0 .253-.256c.001-.51.203-1 .56-1.362a1.9 1.9 0 0 1 1.35-.565.25.25 0 0 0 .178-.075.257.257 0 0 0-.179-.437c-.507 0-.992-.204-1.35-.566a1.94 1.94 0 0 1-.561-1.364.26.26 0 0 0-.074-.18.25.25 0 0 0-.18-.076zM46.5 29.973 31.016 7.571l-4.464 3.392 5.452 6.9L16.96 2.83 0 29.973z"/><path fill="url(#a)" d="M16.566 20.828s1.054 2.868.339 9.145h3.034s1.708-5.715 1.188-6.809-4.56-2.336-4.56-2.336"/><path fill="#FFF" d="M32.976 24.584c-1.565-5.197-6.264-6.1-8.214-6.1-.899 0-4.217-1.441-5.43-2.067-.17-.088-.402-.597-.332-.776l.344-.564c.094-.39.165-.82-.16-1.052l-.568-.285a.46.46 0 0 0-.517.071l-.54.492s-2.715-.605-3.186-.534c-.276.043-.533.504-.7.881a.44.44 0 0 1-.532.231c-.967-.342-1.361-.23-1.361-.23s-.85 1.114 0 1.972c6.578 6.823 8.808 5.462 9.643 13.376h3.004l1.4-2.985 2.38.022L29.342 30h4.438zm-18.327-9.355a.3.3 0 0 1-.277-.187.305.305 0 0 1 .218-.413.3.3 0 0 1 .308.129.305.305 0 0 1-.037.382.3.3 0 0 1-.212.089"/><defs><linearGradient id="a" x1="17.529" x2="20.743" y1="26.184" y2="22.771" gradientUnits="userSpaceOnUse"><stop stop-color="#fff"/><stop offset=".14" stop-color="#F8F8F8"/><stop offset=".35" stop-color="#E3E3E3"/><stop offset=".6" stop-color="#C2C2C2"/><stop offset=".89" stop-color="#949494"/><stop offset="1" stop-color="gray"/></linearGradient></defs></svg>
