<svg xmlns="http://www.w3.org/2000/svg" fill="none" viewBox="0 0 105 93"><g filter="url(#a)"><path fill="#31CECE" d="M37.031 31.353c-1.935-.825-3.503-.018-4.09.368-.583.386-1.949 1.514-1.949 3.615v24.677a8.65 8.65 0 0 1-2.891 6.459l-9.436 8.424a.4.4 0 0 1-.665-.303V35.716c0-5.355 2.286-10.537 6.473-13.885a17.29 17.29 0 0 1 17.66-2.434l26.382 11.261a.403.403 0 0 1 .125.66c-1.912 1.881-10.06 9.23-17.75 5.947zm17.072 24.38c-7.69-3.283-15.836 4.067-17.748 5.948a.406.406 0 0 0 .124.66L62.862 73.6c5.86 2.505 12.612 1.615 17.666-2.428C84.708 67.825 87 62.643 87 57.288V18.406c0-.35-.41-.535-.671-.303l-9.435 8.424a8.66 8.66 0 0 0-2.892 6.458v24.677c0 2.102-1.36 3.23-1.948 3.616s-2.156 1.193-4.091.368z"/><path stroke="#fff" stroke-opacity=".35" stroke-width="1.333" d="M37.293 30.74c-2.237-.954-4.052-.014-4.719.424l-.002.001c-.66.437-2.246 1.741-2.246 4.171v24.677c0 2.28-.97 4.444-2.67 5.962L18.667 74V35.716c0-5.17 2.208-10.153 6.223-13.364v-.001a16.63 16.63 0 0 1 16.982-2.34L67.89 31.116c-1.092 1.04-3.39 3.044-6.262 4.519-3.158 1.621-6.893 2.546-10.474 1.017zm16.549 25.606 13.86 5.913c2.236.953 4.051.013 4.718-.424.67-.44 2.248-1.744 2.248-4.173V32.985c0-2.273.97-4.443 2.67-5.961l8.995-8.031v38.295c0 5.17-2.213 10.154-6.222 13.365-4.861 3.889-11.352 4.744-16.987 2.335L37.105 61.883c1.093-1.04 3.39-3.045 6.262-4.52 3.158-1.62 6.893-2.546 10.475-1.017Z"/></g><defs><filter id="a" width="104.467" height="92.467" x=".267" y=".267" color-interpolation-filters="sRGB" filterUnits="userSpaceOnUse"><feFlood flood-opacity="0" result="BackgroundImageFix"/><feColorMatrix in="SourceAlpha" result="hardAlpha" values="0 0 0 0 0 0 0 0 0 0 0 0 0 0 0 0 0 0 127 0"/><feOffset/><feGaussianBlur stdDeviation="8.867"/><feComposite in2="hardAlpha" operator="out"/><feColorMatrix values="0 0 0 0 0.192157 0 0 0 0 0.807843 0 0 0 0 0.807843 0 0 0 0.53 0"/><feBlend in2="BackgroundImageFix" result="effect1"/><feBlend in="SourceGraphic" in2="effect1" result="shape"/></filter></defs></svg>