<svg xmlns="http://www.w3.org/2000/svg" viewBox="0 0 128 120"><path fill="#FFF" d="M127.99 59.868a33.3 33.3 0 0 0-4.602-16.9 33.6 33.6 0 0 0-10.761-11.175c-.37-8.33-3.794-16.104-9.725-22.035C96.61 3.468 88.237 0 79.34 0a33.2 33.2 0 0 0-15.318 3.729C59.334 1.287 54.112 0 48.682 0c-8.897 0-17.27 3.456-23.562 9.747-5.93 5.931-9.344 13.705-9.725 22.024a33.5 33.5 0 0 0-5.604 4.525C3.5 42.586.033 50.96.033 59.856a33.3 33.3 0 0 0 4.6 16.9 33.4 33.4 0 0 0 10.762 11.176c.37 8.34 3.794 16.114 9.725 22.046 6.291 6.29 14.665 9.758 23.561 9.758a33.4 33.4 0 0 0 15.33-3.73 33.26 33.26 0 0 0 15.33 3.73c8.896 0 17.259-3.468 23.56-9.77 5.932-5.93 9.344-13.704 9.726-22.023a33.5 33.5 0 0 0 5.604-4.514c6.291-6.291 9.758-14.664 9.758-23.561M79.34 5.32c7.48 0 14.512 2.91 19.8 8.199 5.288 5.287 8.199 12.32 8.199 19.788 0 7.48-2.911 14.512-8.199 19.8s-12.32 8.199-19.8 8.199a28.2 28.2 0 0 1-10.008-1.843 33.8 33.8 0 0 0 6.367-6.65l.022-.022c.12-.164.229-.327.338-.48.054-.076.109-.153.163-.24.033-.054.066-.109.11-.152.37-.556.73-1.113 1.068-1.68A33.3 33.3 0 0 0 82 33.342v-.033c0-.229 0-.458-.01-.676 0-.098 0-.185-.011-.283 0-.13-.011-.262-.011-.393-.338-8.395-3.762-16.223-9.725-22.187a33 33 0 0 0-2.911-2.584A27.7 27.7 0 0 1 79.34 5.321m-50.447 8.188c5.288-5.288 12.32-8.2 19.8-8.2 4.742 0 9.31 1.178 13.366 3.38l.622.36a28.2 28.2 0 0 1 10.14 10.064 27.9 27.9 0 0 1 3.86 14.195 27.93 27.93 0 0 1-3.86 14.196 28 28 0 0 1-4.35 5.615l-.143.142c-.065.065-.141.13-.207.207-.12.109-.229.218-.349.338-.021.022-.043.033-.054.054-.13.12-.262.24-.393.35-.032.032-.065.054-.098.086-.12.11-.25.218-.381.328-.022.01-.033.032-.055.043-.142.12-.294.25-.447.37-.01 0-.01.012-.022.012a44 44 0 0 0-.294-1.723c0-.01 0-.022-.011-.033-.044-.24-.098-.468-.153-.708-.01-.033-.01-.066-.021-.098-.055-.24-.11-.47-.164-.71-.033-.152-.076-.294-.12-.446l-.065-.23c-.044-.184-.098-.359-.153-.544l-.033-.098c-1.548-5.3-4.404-10.151-8.417-14.163-6.29-6.291-14.664-9.758-23.56-9.758-4.286 0-8.45.806-12.31 2.344a27.95 27.95 0 0 1 7.872-15.373M9.213 74.063a27.9 27.9 0 0 1-3.86-14.195c0-7.48 2.911-14.512 8.2-19.8a28.2 28.2 0 0 1 5.407-4.23l.393-.23a28 28 0 0 1 6.716-2.79l.13-.033c.142-.044.295-.076.437-.109.163-.044.327-.076.49-.12.033-.01.055-.01.088-.022a28 28 0 0 1 6.138-.676c7.48 0 14.512 2.911 19.81 8.2.153.152.306.315.458.468l.077.076c.13.142.261.273.392.415.022.022.044.043.066.076a27.8 27.8 0 0 1 6.858 14.348 33.5 33.5 0 0 0-12.32-2.355c-8.908 0-17.27 3.467-23.562 9.758-5.146 5.146-8.395 11.666-9.409 18.753a27.8 27.8 0 0 1-6.51-7.534m19.669 32.153c-5.288-5.288-8.2-12.32-8.2-19.8 0-7.479 2.912-14.511 8.2-19.8 5.288-5.287 12.32-8.198 19.8-8.198 2.954 0 5.887.469 8.678 1.363.447.141.894.305 1.33.468a33.6 33.6 0 0 0-8.068 9.246 33.3 33.3 0 0 0-4.6 16.9v.01a33.29 33.29 0 0 0 12.668 26.146 28 28 0 0 1-10.009 1.853c-7.479.011-14.511-2.9-19.8-8.188m70.258.01c-5.288 5.289-12.32 8.2-19.8 8.2a27.93 27.93 0 0 1-13.999-3.75 28.2 28.2 0 0 1-10.14-10.064 27.9 27.9 0 0 1-3.86-14.196c0-5.004 1.33-9.91 3.86-14.195.098-.164.197-.316.295-.48.032-.044.054-.087.087-.13.087-.132.164-.262.25-.393.023-.022.033-.055.055-.077a28.3 28.3 0 0 1 5.822-6.454c.218 1.548.556 3.064.982 4.535 0 .011 0 .011.01.022.055.197.12.393.175.589.01.044.022.076.033.12.054.174.109.36.174.534.022.055.033.098.055.153.087.24.163.48.25.72.055.152.11.294.164.446.033.077.065.153.098.24l.196.491c.022.065.055.12.077.185.087.197.163.393.25.59.011.032.022.054.033.086 1.636 3.696 3.958 7.087 6.902 10.042 6.29 6.29 14.664 9.758 23.56 9.758 1.647 0 3.294-.13 4.918-.37a1 1 0 0 1 .174-.023c.175-.021.338-.054.513-.076a34 34 0 0 0 6.738-1.875c-.927 5.79-3.63 11.132-7.872 15.373m10.489-22.677-.96.556a28 28 0 0 1-14 3.75c-7.479 0-14.51-2.91-19.799-8.198-4.23-4.23-6.945-9.584-7.85-15.384a34 34 0 0 0 5.997 1.755c.022 0 .054.01.076.01.229.044.458.088.687.12.022 0 .033.012.054.012.23.043.47.076.71.109.054.01.108.01.174.022.185.021.36.054.545.076.065.01.13.01.196.022.218.021.436.054.665.076.065.01.142.01.207.022.164.01.327.032.49.043.077.011.164.011.24.022.219.011.437.033.655.044.054 0 .109 0 .174.01.175.012.36.012.545.023.077 0 .153 0 .23.01.217 0 .446.011.664.011h.033c8.897 0 17.26-3.467 23.561-9.747 5.147-5.146 8.396-11.666 9.41-18.753a28.2 28.2 0 0 1 6.498 7.545 27.9 27.9 0 0 1 3.86 14.196c0 7.479-2.912 14.511-8.2 19.8a31 31 0 0 1-4.862 3.848"/></svg>
