<svg xmlns="http://www.w3.org/2000/svg" viewBox="0 0 24 24"><g clip-path="url(#a)"><mask id="b" width="24" height="24" x="0" y="0" maskUnits="userSpaceOnUse" style="mask-type:luminance"><path fill="#fff" d="M18.667 0H5.333A5.333 5.333 0 0 0 0 5.333v13.334A5.333 5.333 0 0 0 5.333 24h13.334A5.333 5.333 0 0 0 24 18.667V5.333A5.333 5.333 0 0 0 18.667 0"/></mask><g mask="url(#b)"><path fill="#C7F121" d="M24 12c0-6.627-5.373-12-12-12S0 5.373 0 12s5.373 12 12 12 12-5.373 12-12"/><mask id="c" width="19" height="18" x="3" y="3" maskUnits="userSpaceOnUse" style="mask-type:luminance"><path fill="#fff" d="M21.667 3.053H3.889v17.778h17.778z"/></mask><g mask="url(#c)"><path fill="#F7E9BF" d="M18.674 8.364H17.47V9.37h1.205zm2.219 2.826.442 1.14-.442.006v.677H19.79V11.19z"/><path fill="#F7E9BF" d="M18.06 9.17v.84h-.26l-.87.333V9.17zm1.461 2.973h-1.813v.96h.907l1.507.707v-.707h.306v-.96z"/><path fill="#232326" d="M17.8 14.053v.594h.774l-.773 1.22h-1.203v-1.814zm-2.318-6.36h-1.169v1.169h1.17z"/><path fill="#16171C" d="M5.436 10.01h-.774v1.548h.774zm13.912.774h-.774v.774h.774zm0-1.547V6.919h-.774v-.774h-2.318v.774h-.774v.774h.774v-.774h2.318v2.318H17.8v.774h2.322v-.774zm1.548.773h-.774v.774h.774zm.77.774h-.774v1.548h.774z"/><path fill="#16171C" d="M20.122 12.328v.774H17.8v-.774h.774v-.773H17.03v-.77h.77v-.775h-1.544v1.545h.774v3.091h.77v-.773l2.322.003v-.774h.77v-.774zM6.98 7.69v.773h-.773v.774h.773v-.774h1.548v-.774z"/><path fill="#16171C" d="M16.256 8.463v.774h-.774v-.774h-.77v-.774h-1.548v.774h1.544v.774h.774v.774h.774v-.774h.774v-.774zm-4.639 5.41v.774H7.75v-.774h-.77v3.092h5.41v-3.092zm-3.089 2.321-.774-.003v-.774h.774zm.77 0v-.774h.774v.774zm2.319 0h-.774v-.774h.774zM6.98 12.329h.774v-.774H6.98v-.77h-.773v.77h.773zh-.773v.773h.773zm6.184-.774v-.77h-.774v.77h-.77v.774h.77v.773h.774v-.774h-.774v-.773zm-.774-4.636V3.053h-1.544V4.6h.774v2.32H9.299V5.37h-.771V4.6h-.774v-.774H6.207V5.37h1.547v.774h.774v1.544h4.636v-.77zM6.206 9.237h-.773v.774h.773zm12.368 6.183v-.773H17.8v.773h-.773v1.545h-.774v.773h-.774v.774h-.774v.774h-.774v.774h1.545v-.774h1.544v-.774h1.548v-.774h.773V15.42zM5.436 17.739v-.774h-.003v-.77h-.77v-4.64h-.775v4.64h.774v1.544h.77v.774h.775v-.774zm1.544.774h-.773v.773h.773zm1.545.773H6.98v.774h1.545z"/><path fill="#16171C" d="M13.938 20.06h-5.41v.774h5.41z"/><path fill="#fff" d="M17.03 9.237h-.774v.774h.774zm3.092 1.548v-.774h-2.317v.774h-.774v.77h1.544v-.77h.773v.77h-.773v.774h1.547v-.774h.77v-.77z"/><path fill="#fff" d="M16.256 6.919v.77h-.773v1.548h.773v-.774h.774v.774h.774v-.774h.77V6.919zM8.528 15.42h-.774v.775h.774zm3.092 0h-.774v.775h.774zm-1.548 0H9.3v.775h.773z"/><path fill="#FFD745" d="M16.256 10.01h-.774v-.773h-.773v-.774h-1.545v-.774H8.528v.774H6.98v.774h-.773v.774h-.77v1.544h-.775v4.636h.774v.774h.774v.774h1.544v.774h6.184v-.774h.774V16.19h.774v-.774h.774zm-4.636 1.545h.77v.774h-.773v-.774zm-5.413-.77h.773v.77h.774v.774H6.98v-.774h-.773zm0 2.318v-.774h.773v.774zm6.184 1.544v2.321H6.98v-3.095h.774v.774h3.869v-.774h.768zm.773-2.318v.774h-.774v-.774zm0-.774h-.774v-.774h.774z"/><path fill="#ED8F3A" d="M6.206 16.965h-.773v.774h.773zm10.05-5.41v3.866h-.774v.774h-.773v1.547h-.774v.774h-6.18v-.774H6.206v.774h.773v.774h1.545v.774h5.41v-.774h.774v-.774h.773v-.774h.774v-.774h.774v-5.413z"/></g></g></g><defs><clipPath id="a"><path fill="#fff" d="M0 0h24v24H0z"/></clipPath></defs></svg>
