<svg xmlns="http://www.w3.org/2000/svg" viewBox="0 0 255 255"><path fill="#82C1E7" d="m163 5 4.324 1.285C183.21 11.465 197.264 19.208 210 30c1.005.842 2.01 1.684 3.047 2.55C236.867 53.38 249.862 81.17 255 112c.598 17.36 1.038 34.254-4 51l-1.285 4.324C244.535 183.21 236.792 197.264 226 210c-.842 1.005-1.684 2.01-2.55 3.047-20.83 23.82-48.62 36.815-79.45 41.953-17.36.598-34.254 1.038-51-4l-4.324-1.285C72.79 244.535 58.736 236.792 46 226c-1.005-.842-2.01-1.684-3.047-2.55C19.133 202.62 6.138 174.83 1 144c-.598-17.36-1.038-34.254 4-51l1.285-4.324C11.465 72.79 19.208 58.736 30 46c.842-1.005 1.684-2.01 2.55-3.047C64.116 6.853 116.804-8.898 163 5"/><path fill="#FBD628" d="m124.375 111.5 34.71-.094c31.103.662 31.103.662 38.415 8.156 2.263 5.187 2.455 9.877 1.5 15.438-2.861 6.34-6.531 8.228-13 11-20.644.352-41.291.481-61.937.5-11.353.03-22.706.062-34.403.094-30.849-.662-30.849-.662-38.16-8.156-2.262-5.184-2.461-9.88-1.5-15.438 10.54-22.632 56.406-11.484 74.375-11.5"/><path fill="#F2CF27" d="m123.938 83.625 24.277-.023c25.692.517 25.692.517 32.097 7.148 5.5 5.91 6.688 10.066 6.688 18.25H62c0-8.18 1.78-12.894 7.313-18.812 13.81-11.938 37.994-6.58 54.625-6.563"/><path fill="#F9D428" d="M64 151h124c0 8.97-1.018 12.961-7.25 19.313-15.028 10.77-38.011 6.122-55.25 6.125l-23.969.058c-23.134-.588-23.134-.588-30.344-6.996C65.42 162.908 64 159.812 64 151"/><path fill="#F8D428" d="M87 179h77c-1.303 13.033-1.303 13.033-7 19-2.927 2.058-5.737 3.464-9 5l-2 1c-6.54.153-13.083.222-19.625.25l-10.914.078c-9.617-.333-16.65-1.366-23.461-8.328-4.455-6.148-5-8.94-5-17"/><path fill="#F3CF27" d="m124.25 55.563 11.078-.122c9.736.563 15.135 1.958 22.11 9.059C162.044 70.792 162 72.687 162 81H87c0-7.919.41-12.184 5.871-17.988 9.376-8.561 18.882-7.375 31.379-7.45"/><path fill="#221D07" d="m124.375 111.5 34.71-.094c31.103.662 31.103.662 38.415 8.156 2.263 5.187 2.455 9.877 1.5 15.438-2.861 6.34-6.531 8.228-13 11-20.644.352-41.291.481-61.937.5-11.353.03-22.706.062-34.403.094-30.849-.662-30.849-.662-38.16-8.156-2.262-5.184-2.461-9.88-1.5-15.438 10.54-22.632 56.406-11.484 74.375-11.5M54 121c-2.517 4.823-2.288 8.766-1 14 3.377 4.699 3.377 4.699 8 8 20.437.154 40.875.222 61.313.25l34.363.078c24.39 2.004 24.39 2.004 32.324-3.328 3.257-3.71 4.9-5.79 5.313-10.75-.353-4.797-1.253-6.61-4.313-10.25-12.578-10.062-52.72-4.615-66.875-4.625l-34.492-.102C62.962 112.043 62.962 112.043 54 121"/><path fill="#030302" d="M64 151h124c0 8.97-1.018 12.961-7.25 19.313-15.028 10.77-38.011 6.122-55.25 6.125l-23.969.058c-23.134-.588-23.134-.588-30.344-6.996C65.42 162.908 64 159.812 64 151m2 2c1.27 7.616 3.597 12.053 9.625 16.938 12.575 7.684 34.79 3.378 48.438 3.437l23.472.148c18.425.878 18.425.878 29.465-5.523 2.342-2.35 2.342-2.35 3.625-5l1.414-2.5c1.26-2.831 1.26-2.831.961-7.5z"/><path fill="#020202" d="m123.938 83.625 24.277-.023c25.692.517 25.692.517 32.097 7.148 5.5 5.91 6.688 10.066 6.688 18.25H62c0-8.18 1.78-12.894 7.313-18.812 13.81-11.938 37.994-6.58 54.625-6.563M69 94.063c-3.312 4.864-4 6.845-4 12.937h116c0-6.741-1.133-8.673-5-14-12.773-12.773-37.464-7.478-53.375-7.5-7.33-.03-14.66-.062-22.21-.094-17.684-.37-17.684-.37-31.415 8.656"/><path fill="#050604" d="M87 179h77c-1.303 13.033-1.303 13.033-7 19-2.927 2.058-5.737 3.464-9 5l-2 1c-6.54.153-13.083.222-19.625.25l-10.914.078c-9.617-.333-16.65-1.366-23.461-8.328-4.455-6.148-5-8.94-5-17m2 2c1.333 7.875 1.333 7.875 5.25 13.375l1.703 1.898c8.053 6.793 17.49 5.16 27.422 5.165l10.523.058c8.562-.467 13.856-1.108 19.977-7.496 3.444-4.862 4.125-6.845 4.125-13z"/><path fill="#040403" d="m124.25 55.563 11.078-.122c9.736.563 15.135 1.958 22.11 9.059C162.044 70.792 162 72.687 162 81H87c0-7.919.41-12.184 5.871-17.988 9.376-8.561 18.882-7.375 31.379-7.45m-28.492 8.261-1.633 1.864-1.68 1.824C90.332 70.86 90.332 70.86 89 79h68c-1.1-7.7-2.816-12.425-8.937-17.375-8.35-4.43-16.164-3.96-25.438-4l-8.836-.086c-7.905.468-12.017 1.392-18.031 6.285"/><path fill="#232210" d="M81 173c14.292-.08 28.583-.139 42.875-.187l24.117-.106L167 173l2 3H82z"/><path fill="#0F110D" d="M64 112v3l-2.75 1.188c-3.578 1.995-5.18 3.286-7.25 6.812-.98 4.64-1.41 7.795.125 12.313 3.077 4.41 5.646 6.38 10.875 7.687l-1 3c-5.496-1.534-9.27-3.556-12.61-8.273-2.433-4.772-2.22-9.514-1.39-14.727 2.092-4.515 4.996-7.382 9.25-10 2.75-1 2.75-1 4.75-1"/><path fill="#322E10" d="M89 184c2 3 2 3 3.25 5.875 2.831 5.055 6.638 7.57 11.75 10.125 6.08.305 12.164.496 18.25.625l10.016.227L140 201v1h-31v2c-6.871-1.074-12.03-2.88-17-8-2.087-2.95-3.486-5.679-5-9 1-2 1-2 2-3"/><path fill="#0F110E" d="m84 85-2 1.188L79 88l-4 2.188c-5.406 3.8-8.311 7.845-9.812 14.312L65 107l-3 1c-.636-6.359 1.61-11.03 5.578-15.96C72.392 86.9 76.886 83.221 84 85"/><path d="m143 202-1 2h-33v-2q7.656-.29 15.313-.562l8.613-.317C140 201 140 201 143 202"/><path fill="#1B1D12" d="M104 58c-3 3-3 3-4.937 4.508C93.553 66.828 91.67 70.21 90 77l-3-2c1.435-7.655 5.653-12.49 11.75-17.062C101 57 101 57 104 58"/><path fill="#121510" d="M64 156c4.173 1.39 4.592 3.996 6.54 7.707 2.174 3.413 5.049 5.208 8.46 7.293l3 2-2 2c-6.357-2.809-9.863-6.483-14-12a118 118 0 0 1-2-7"/><path fill="#181C16" d="M64 112v3l-2.75 1.188C56.379 118.904 54.465 122.07 52 127h-2c.39-5.458 2.155-8.155 6-12 5.1-3 5.1-3 8-3"/><path fill="#131613" d="M65 98c1.16 3.478.708 5.459 0 9l-3 1c-.337-4.94-.161-5.785 3-10"/><path fill="#0F1314" d="M64 112v3l-7 2c2.5-5 2.5-5 7-5"/><path fill="#101514" d="m101 57 3 1c-3 3-3 3-7 4 2-4 2-4 4-5"/></svg>
