<svg xmlns="http://www.w3.org/2000/svg" viewBox="0 0 128 128"><path fill="#000" d="M59.794 91.28c-1.834.01-4.025-.1-6.214-.236-1.801-.113-3.59-.35-5.374-.64-3.216-.52-6.371-1.28-9.456-2.337-2.885-.987-5.664-2.209-8.3-3.749-2.64-1.541-4.758-3.625-6.394-6.197-1.354-2.132-1.998-4.484-2.046-7.002-.024-1.257-.016-2.513.222-3.754.303-1.59.952-3.034 1.872-4.36.424-.61.896-1.18 1.37-1.75q.667-.796 1.321-1.604c2.348-2.908 3.769-6.24 4.465-9.885.242-1.264.401-2.546.443-3.835.027-.786-.205-1.474-.827-2.02-1.676-1.477-2.834-3.325-3.724-5.35a27.8 27.8 0 0 1-2.04-7.174c-.173-1.179-.356-2.356-.431-3.547-.218-3.543-.077-7.05 1.108-10.446.468-1.344 1.047-2.63 1.874-3.795 1.458-2.06 3.492-3.293 5.856-4.039 2.044-.645 4.11-.762 6.19-.187.526.145 1.045.324 1.509.626.849.555 1.363 1.349 1.648 2.308.167.562.177.516.647.516.525 0 .844.28.993.76.09.29.161.59.208.89.04.257.19.357.417.39.192.026.386.026.573.086.49.16.72.524.638 1.038-.02.127-.067.248-.04.381.038.202.09.34.358.357.541.034.977.32 1.324.721.5.579.861 1.234 1.105 1.963.355 1.069.753 2.123 1.013 3.22.141.594.275 1.19.357 1.797.047.345.168.653.406.909.272.292.605.43 1 .35 2.258-.445 4.545-.511 6.835-.564a70 70 0 0 0 2.514-.099c1.017-.058 2.03-.02 3.044.019 1.58.056 3.16.119 4.737.173.823.028 1.642.103 2.457.212.624.082 1.098-.158 1.517-.575.091-.09.17-.195.242-.3 1.205-1.756 2.9-2.733 4.951-3.18 3.076-.67 5.99-.186 8.77 1.207 2.81 1.407 4.13 3.77 4.26 6.844.055 1.288.059 2.576-.27 3.842-.153.594-.335 1.178-.615 1.723-.234.451-.192.812.123 1.231 1.575 2.086 3.004 4.265 3.986 6.705.718 1.784 1.196 3.634 1.612 5.505.363 1.636.664 3.283.71 4.964.024.868.073 1.74.042 2.608-.044 1.207.483 1.97 1.6 2.41a16.5 16.5 0 0 1 4.237 2.479c.29.232.571.474.851.715 1.743 1.496 2.461 3.43 2.524 5.686.101 3.654-1.108 6.89-3.25 9.753-3.095 4.133-7.087 7.175-11.862 9.174-2.768 1.159-5.641 1.991-8.548 2.71-1.953.484-3.908.96-5.897 1.282a83 83 0 0 1-6.232.784c-3.808.32-6.364.35-10.41.287m-5.748 16.806c.803-.171 1.608-.338 2.43-.393.778-.052 1.569-.038 2.283.28.992.442 1.749 1.161 2.283 2.139.801 1.465.64 2.977.36 4.514-.22 1.206-.9 2.115-1.832 2.862-.769.617-1.65.994-2.603 1.22a7.7 7.7 0 0 1-1.43.219c-1.58.069-3.163.139-4.735-.036-1.997-.222-3.55-1.175-4.543-2.963-.698-1.257-1.033-2.632-1.311-4.023-.4-2.001-.458-4.026-.343-6.06.074-1.302.133-2.604.42-3.884a13.6 13.6 0 0 1 .82-2.519c1.011-2.283 2.748-3.678 5.183-4.216 1.412-.313 2.847-.33 4.281-.319 1.03.008 2.064-.01 3.08.218.57.127 1.12.308 1.63.587 1.267.689 1.905 1.739 1.796 3.202-.028.369-.02.74-.123 1.102-.416 1.46-1.321 2.459-2.8 2.856-1.378.371-2.774.339-4.168.037-.25-.055-.492-.156-.755-.154-.181-.07-.367-.05-.552-.012-.029.006-.093-.008-.079.031.01.026.077.042.111.074.34.091.682.184.989.371.411.25.663.611.746 1.076.135.752.079 1.508-.04 2.256-.111.697-.602 1.072-1.219 1.308-.15.056-.309.092-.462.137-.048.042-.099.076-.165.074.024.032.062.02.094.026.218.043.436.067.652-.004zm20.128-.096c.79-.156 1.577-.327 2.382-.385.797-.059 1.604-.045 2.33.28 1.06.469 1.836 1.253 2.369 2.313.599 1.192.575 2.427.417 3.681-.333 2.654-2.033 4.041-4.468 4.718a7.3 7.3 0 0 1-1.72.256c-1.466.042-2.934.106-4.399-.039-2.163-.211-3.789-1.239-4.797-3.196-.56-1.086-.864-2.253-1.118-3.432-.44-2.06-.547-4.146-.432-6.248.055-1.014.077-2.028.222-3.035a13.1 13.1 0 0 1 1.136-3.826c1.041-2.17 2.776-3.452 5.114-3.956 1.398-.3 2.816-.316 4.235-.306 1.014.006 2.031-.008 3.034.211.617.135 1.212.333 1.76.647 1.114.635 1.7 1.578 1.718 2.876.012.905-.105 1.766-.614 2.54-.73 1.108-1.769 1.695-3.076 1.86a9.9 9.9 0 0 1-3.835-.242c-.408-.109-.82-.177-1.255-.123.06.149.196.143.309.169.14.035.284.055.423.093.942.27 1.342.738 1.447 1.701.058.53.028 1.062-.008 1.592-.057.841-.527 1.355-1.295 1.629q-.182.061-.368.121c-.082.09-.203.082-.308.117-.047.014-.091.012-.097 0 .282-.061.585.088.892-.016zm-40.6-15.398c-.067.737-.15.993.833 1.296.107.032.208.088.315.124.266.09.49.071.684-.18.195-.255.435-.474.653-.712 1.174-1.272 2.786-1.33 4.077-.716 1.338.635 2.07 1.758 2.38 3.164.525 2.387-.118 4.489-1.64 6.351-.814.998-1.783 1.814-2.959 2.362-1.674.782-2.806 2.062-3.508 3.755-.283.683-.601 1.352-.912 2.023-.46.998-1.16 1.82-1.965 2.548-.892.808-1.957 1.09-3.141.852-1.128-.225-2.185-.645-3.195-1.197-1.544-.842-2.087-2.406-1.893-3.912.113-.884.393-1.723.674-2.563.256-.764.49-1.532.637-2.324.253-1.363.115-2.693-.32-4-.22-.656-.493-1.297-.63-1.976-.333-1.644-.056-3.212.71-4.682.682-1.306 1.685-2.356 2.883-3.202 1.043-.736 2.203-1.036 3.482-.768 1.826.383 2.976 1.9 2.837 3.757zm51.01 4.256c-.009-.6.14-1.449.483-2.263a4.33 4.33 0 0 1 1.727-2.024 9.6 9.6 0 0 1 1.683-.834c1.608-.615 3.187-1.3 4.813-1.868.714-.248 1.415-.536 2.129-.782 1.924-.667 3.677-.391 5.231.965.488.427.93.895 1.281 1.441 1.077 1.679 1.456 3.521 1.245 5.492a3.34 3.34 0 0 1-.707 1.721c-.179.228-.351.462-.538.682-.597.699-.7 1.505-.484 2.36.232.923.665 1.775 1.004 2.662.478 1.25.9 2.515 1.029 3.856.061.612.028 1.219-.173 1.811-.271.792-.747 1.417-1.455 1.867a9.6 9.6 0 0 1-3.813 1.421c-1.166.163-2.154-.262-2.983-1.067-.634-.616-1.037-1.388-1.406-2.178-.477-1.022-.858-2.08-1.231-3.142a7.5 7.5 0 0 0-.611-1.363c-.529-.889-1.237-1.501-2.327-1.598-.726-.064-1.428-.254-2.025-.709a6.6 6.6 0 0 1-1.497-1.564c-.938-1.393-1.362-2.937-1.374-4.884z"/><path fill="#CDD7D7" d="M74.174 107.99c-.317.147-.65.098-1.041.072.195-.153.365-.197.556-.173.134.167.331.028.485.101"/><path fill="#BFC3C3" d="M54.046 108.086c-.325.152-.655.109-1.073.063.194-.155.333-.196.494-.159.168.191.396.012.581.096z"/><path fill="#CBEAEA" d="M53.451 102.842c-.163.031-.29-.046-.424-.137.321-.054.634-.103.94.045-.167.058-.367-.057-.518.092z"/><path fill="#FFDC70" d="M35.646 44.931c.016-.389-.17-.637-.527-.776-.21-.083-.411-.183-.62-.272-1.783-.752-3.207-1.955-4.363-3.489-1.305-1.733-2.142-3.692-2.808-5.74-.577-1.767-.898-3.585-1.162-5.417a31 31 0 0 1-.339-4.523c.006-2.914.524-5.73 1.699-8.408.415-.947.946-1.828 1.618-2.622 1.273-1.506 2.929-2.39 4.773-2.97 1.775-.56 3.57-.662 5.382-.19.327.084.638.213.948.352.733.327 1.154.901 1.4 1.633.083.244.154.494.259.725.215.478.58.782 1.123.772.297-.006.406.117.436.38q.023.19.065.38c.137.685.534 1.129 1.232 1.254.228.04.309.11.244.342-.038.137-.05.287-.046.43.024.596.381.99.976 1.076.127.018.257.018.386.026.34.02.615.17.827.437q.302.38.494.827c.882 2.068 1.54 4.198 1.723 6.451.095 1.161-.006 2.316-.107 3.473-.02.24-.05.481-.053.721-.006.371.136.6.41.691.307.103.53-.026.708-.27l.059-.076c.633-.369.855-1.008.926-1.655.086-.782.589-1.16 1.168-1.52.066-.042.151-.056.195-.13.59-.178 1.2-.206 1.806-.267 1.347-.133 2.7-.173 4.053-.199a78 78 0 0 0 2.415-.093c1.19-.058 2.38-.03 3.57.014q2.416.09 4.828.182c.323.012.642.042.958.103.458.344.844.72.811 1.368-.032.657.365 1.05.908 1.326.6.393 1.017.202 1.1-.508.064-.558.042-1.13.207-1.672.626-2.04 1.919-3.485 3.936-4.195 2.44-.858 4.898-.788 7.346.019.813.268 1.593.604 2.326 1.048q2.247 1.359 2.822 3.918c.401 1.787.293 3.545-.373 5.26a5.42 5.42 0 0 1-2.397 2.807c-.222.13-.45.252-.67.385-.55.333-.593.684-.14 1.157.074.095.2.018.282.089h.004c.308.11.619.119.948.099.897-.055 1.656.179 2.223.975.847 1.193 1.48 2.493 2.048 3.827 1.123 2.653 1.932 5.4 2.305 8.262.128.971.228 1.949.243 2.932.034 2.4.694 4.587 2.13 6.544a12.1 12.1 0 0 1 2.07 4.597c.403 1.82.036 3.55-.648 5.238-1.091 2.695-2.748 5.019-4.69 7.16-1.648 1.817-3.367 3.554-5.4 4.957-2.45 1.69-5.151 2.796-8.032 3.47-2.028.476-4.103.648-6.175.81a151 151 0 0 1-7.134.408c-1.386.044-2.772.093-4.156.056-3.822-.102-7.627-.389-11.343-1.384-2.401-.643-4.745-1.431-6.99-2.534-1.667-.818-3.343-1.592-4.88-2.644-1.976-1.35-3.854-2.817-5.486-4.57-2.207-2.369-3.91-5.04-4.662-8.234-.67-2.846-.208-5.524 1.202-8.07.585-1.058 1.257-2.063 1.838-3.123.817-1.49 1.178-3.104 1.305-4.767.142-1.846.78-3.541 1.427-5.238.135-.353.379-.637.67-.875.181-.149.304-.326.363-.55z"/><path fill="#EAC451" d="M35.646 44.931c.036.248-.073.452-.248.599-.709.598-.918 1.45-1.189 2.273-.16.486-.298.974-.498 1.447-.198.468-.224.994-.285 1.502-.163 1.382-.284 2.77-.744 4.101-.391 1.133-.99 2.158-1.63 3.164-.795 1.252-1.49 2.554-1.94 3.973a9.8 9.8 0 0 0-.432 2.646c-.047 1.43.185 2.817.637 4.162.478 1.42 1.156 2.75 1.985 4.006 1.015 1.54 2.22 2.917 3.567 4.164 1.916 1.774 4.039 3.275 6.288 4.595.706.414 1.469.734 2.223 1.058.474.204.93.442 1.392.668 1.467.713 3.012 1.207 4.566 1.683 1.351.413 2.721.75 4.111 1 .755.134 1.515.25 2.274.364.809.123 1.624.19 2.435.252.861.068 1.733.095 2.598.137 1.497.075 2.994.113 4.489.056 1.077-.04 2.154-.03 3.23-.09 1.04-.06 2.084-.11 3.12-.2.957-.085 1.917-.137 2.871-.248.747-.086 1.501-.13 2.248-.225 2.138-.269 4.238-.692 6.243-1.522.908-.375 1.796-.79 2.686-1.203 1.026-.478 1.918-1.17 2.824-1.834 1.513-1.11 2.816-2.453 4.087-3.816 1.281-1.372 2.49-2.817 3.472-4.423 1.01-1.651 1.874-3.376 2.288-5.287.286-1.328.187-2.646-.228-3.94-.44-1.373-1.055-2.654-1.91-3.82-.323-.439-.67-.884-.874-1.382-.414-1.001-.912-1.979-1.015-3.091a98 98 0 0 1-.198-2.538 36 36 0 0 0-.252-2.578 28 28 0 0 0-.597-3.061c-.508-1.977-1.152-3.908-2.02-5.764-.43-.92-.869-1.828-1.44-2.669-.216-.318-.438-.635-.726-.897-.095-.086-.178-.189-.313-.217-.5-.105-.99-.278-1.515-.143-.302.078-.569.022-.756-.254a3.7 3.7 0 0 0 .782-.37c.166-.098.331-.199.505-.285.83-.41 1.489-.268 2.045.473 2.052 2.73 3.652 5.682 4.493 9.017.474 1.875.906 3.755 1.136 5.676.147 1.235.125 2.477.125 3.716 0 .39.036.772.095 1.155.129.859.54 1.538 1.267 2.024.39.262.809.467 1.24.647 1.44.598 2.746 1.418 3.95 2.404.287.234.555.49.83.74 1.283 1.177 1.789 2.676 1.815 4.373.026 1.657-.407 3.209-1.014 4.734-.918 2.302-2.353 4.239-4.076 5.992-3.316 3.376-7.24 5.762-11.729 7.246a83 83 0 0 1-11.886 2.995c-2.35.409-4.723.647-7.103.828-3.432.264-6.863.212-10.297.167a81 81 0 0 1-6.278-.316 59 59 0 0 1-7.158-1.123c-3.966-.86-7.8-2.118-11.453-3.894-1.902-.925-3.76-1.926-5.348-3.353-1.904-1.713-3.516-3.65-4.4-6.089-.986-2.719-1.083-5.48-.161-8.241.424-1.268 1.162-2.364 2.005-3.392.716-.873 1.45-1.73 2.14-2.62 2.48-3.203 3.955-6.834 4.578-10.82q.242-1.553.357-3.119c.016-.227.069-.445.135-.659.164-.536.479-.679.999-.467.18.072.355.155.535.225.544.218.722.162 1.05-.322z"/><path fill="#E9C351" d="M52.67 26.849c-.147.328-.488.453-.738.667-.23.197-.4.365-.426.7-.038.479-.218.938-.403 1.38-.125.296-.345.546-.72.556.028-.302.048-.607.084-.909.081-.681.259-1.326.767-1.824a1.92 1.92 0 0 1 1.436-.572z"/><path fill="#E8C351" d="M72.021 29.283c-.165-.054-.335-.1-.496-.163a.66.66 0 0 1-.434-.532c-.04-.282-.155-.554-.115-.847.034-.243-.058-.429-.242-.588-.181-.157-.345-.333-.432-.564a1.2 1.2 0 0 1 .474.032c.888.216 1.164.574 1.17 1.483.002.393-.13.798.077 1.177z"/><path fill="#EAC451" d="M86.46 37.587c-.111.02-.216.03-.283-.089a.4.4 0 0 1 .283.089"/><path fill="#DC0000" d="M52.49 101.109c-.108.065-.223.125-.328.198-.571.391-.722.852-.537 1.632.188 1.215 1.005 1.88 2.048 2.354.272.123.539.264.365.645-.074.191-.258.234-.421.288-.26.083-.53.143-.791.218a1.8 1.8 0 0 0-.977.669c-.55.736-.17 1.554.38 1.87.677.389 1.38.377 2.096.186.988-.262 1.99-.357 3.012-.345 1.016.012 1.793.478 2.39 1.254.375.487.636 1.044.708 1.668.101.349 0 .668-.151.974-.448.913-1.17 1.516-2.114 1.874-.81.309-1.659.395-2.508.472a34 34 0 0 1-3.956.103c-1.828-.049-3.367-.718-4.436-2.241-.65-.928-.93-2.012-1.088-3.12-.137-.956-.258-1.917-.203-2.882.03-.528-.259-.998-.21-1.522.014-.143-.028-.29.036-.427 0-1.943.38-3.805 1.259-5.543.775-1.53 2.003-2.527 3.668-2.985.794-.217 1.604-.312 2.425-.382.982-.085 1.965-.067 2.943-.043.896.022 1.801.043 2.667.343.411.143.817.308 1.166.57.748.56.898 1.338.74 2.203-.074.415-.226.804-.544 1.104-.692.488-1.48.666-2.308.724-1.176.083-2.328-.242-3.502-.191-.626.026-1.245.08-1.828.336z"/><path fill="#A91616" d="M45.803 104.975c-.002.417 0 .828.224 1.207.055.091.07.216.073.324.016.786.008 1.57.093 2.354.145 1.333.38 2.637 1.06 3.812.291.501.685.921 1.165 1.265.621.446 1.279.804 2.033.943.392.073.785.156 1.188.156.822 0 1.647.052 2.464-.012 1.351-.107 2.725-.079 4.03-.557 1.104-.405 1.806-1.187 2.246-2.245.064-.155.028-.318.054-.476.16.303.105.631.091.946-.048 1.066-.303 2.064-1.043 2.884a4.55 4.55 0 0 1-1.727 1.195 7 7 0 0 1-2.683.504c-1.208-.014-2.417 0-3.623-.004-1.219-.004-2.316-.369-3.24-1.169-.765-.661-1.192-1.546-1.517-2.481-.535-1.542-.81-3.138-.948-4.755-.081-.929-.06-1.866-.017-2.797.019-.363-.098-.738.077-1.09zm6.688-3.866c.431-.359.962-.431 1.485-.468.833-.058 1.658.065 2.487.15.807.082 1.634.137 2.433-.15.405-.145.821-.268 1.23-.399-.598.853-1.476 1.123-2.459 1.171-1.121.055-2.23.031-3.322-.29-.608-.177-1.235-.165-1.854-.014"/><path fill="#A81616" d="M54.038 105.938c.036-.24-.07-.375-.29-.478-.388-.183-.775-.366-1.12-.636a3.7 3.7 0 0 1-.775-.835c-.22-.32-.276-.673-.228-1.05.384.615.959.913 1.657 1.01.078.01.153.044.23.068.569.184.637.252.617.849-.012.357.109.731-.09 1.074z"/><path fill="#DC0000" d="M65.93 104.878c-.005-1.959.38-3.833 1.278-5.579.766-1.49 1.97-2.469 3.593-2.928.823-.234 1.662-.333 2.515-.4.983-.076 1.963-.066 2.942-.04.974.027 1.963.049 2.889.44.34.143.68.288.972.524.678.546.83 1.274.694 2.084-.053.312-.117.635-.353.88-1.106.633-2.284.901-3.559.776-1.017-.098-2.027-.352-3.062-.155-.793.151-1.521.403-1.985 1.125-.144.3-.246.609-.184.947.063.091-.012.222.087.302v-.004c.335.992 1.039 1.641 1.969 2.06.393.178.593.421.464.863-.024.219-.202.28-.367.334-.275.091-.557.16-.835.236a1.8 1.8 0 0 0-1.017.689c-.517.708-.22 1.516.395 1.865.456.26.944.346 1.48.284.707-.081 1.377-.321 2.085-.387.66-.063 1.32-.107 1.973-.026.714.086 1.305.463 1.775.991.476.536.789 1.169.884 1.893.018.86-.513 1.435-1.094 1.935-.936.804-2.11.979-3.292 1.098-.833.083-1.668.105-2.504.169-1.127.089-2.265.045-3.359-.25-1.573-.421-2.745-1.36-3.393-2.904-.559-1.33-.702-2.739-.809-4.15-.054-.719.026-1.447-.197-2.152a.8.8 0 0 1 .02-.522z"/><path fill="#A91616" d="M65.93 104.878c.005.29.027.57.172.838.113.21.141.456.133.704a16 16 0 0 0 .4 4.006c.23 1.026.623 2.014 1.396 2.755.712.682 1.557 1.194 2.556 1.365.966.165 1.947.256 2.925.187.96-.066 1.923-.094 2.879-.197.76-.083 1.52-.216 2.229-.556 1.009-.486 1.614-1.284 1.94-2.328.154.318.11.663.091.993-.056 1.048-.31 2.032-1.042 2.834a4.7 4.7 0 0 1-1.953 1.284 7.2 7.2 0 0 1-2.462.415c-1.224-.014-2.449 0-3.673-.006a4.97 4.97 0 0 1-2.61-.736c-1.038-.628-1.619-1.596-2.012-2.688a18 18 0 0 1-.888-3.741c-.183-1.378-.197-2.753-.153-4.135.01-.331-.103-.674.073-.994m5.922-3.275a1.25 1.25 0 0 1 .522-.714c.48-.316.999-.471 1.568-.564.764-.125 1.499-.012 2.239.107 1.368.218 2.685.072 3.95-.506a.7.7 0 0 1 .327-.069c-.38.623-.878 1.099-1.602 1.29a6.6 6.6 0 0 1-1.186.18c-1.213.09-2.39-.085-3.567-.349-.851-.191-1.63-.042-2.251.627z"/><path fill="#A81616" d="M74.186 105.773c.062-.405-.16-.603-.507-.748a3.77 3.77 0 0 1-1.684-1.37c-.168-.244-.272-.504-.244-.805.36.555.88.837 1.519.986 1.13.264.995.359.99 1.288 0 .217.081.447-.074.649"/><path fill="#A81616" d="M71.753 102.852c-.12-.074-.107-.187-.087-.302.077.087.093.192.087.302"/><path fill="#DC0000" d="M26.162 92.31c.82-1.306 1.886-2.272 3.492-2.463.922-.109 2.4.474 2.738 1.638q.086.308.088.617c.004.323-.008.643-.016.965q-.028 1.07.906 1.583c.452.247.92.447 1.447.497.536.053.986-.104 1.353-.487a8 8 0 0 0 .535-.621c.853-1.094 2.053-1.099 3.074-.575 1.124.577 1.6 1.595 1.765 2.774.27 1.93-.334 3.61-1.573 5.083a1.8 1.8 0 0 1-.432.381c-.585.308-1.216.514-1.791.846-2.441 1.421-4.217 3.461-5.536 5.925-.23.428-.504.825-.799 1.208-.272.354-.633.554-1.081.546-1.186-.02-2.298-.357-3.313-.947-.704-.41-.968-1.087-.837-1.909.204-1.29.474-2.566.742-3.843a8.1 8.1 0 0 0-.36-4.565c-.729-1.94-.622-3.926-.614-5.918 0-.262.151-.487.214-.737z"/><path fill="#A91616" d="M26.162 92.31c-.166 1.118-.06 2.245-.097 3.367-.028.863.133 1.695.406 2.504.266.792.498 1.592.631 2.416.15.921.165 1.844-.022 2.769-.28 1.379-.54 2.763-.8 4.146-.114.617.235 1.393.848 1.707.99.512 2.044.855 3.176.885.431.012.75-.171 1.024-.518.573-.724.96-1.556 1.44-2.334.473-.768.995-1.497 1.637-2.136.706-.704 1.366-1.455 2.205-2.012.819-.544 1.656-1.046 2.598-1.354a.7.7 0 0 1 .331-.046c-.397.437-.924.685-1.43.959-1.053.568-2.05 1.211-2.869 2.098-.78.849-1.354 1.83-1.84 2.868-.379.814-.736 1.638-1.146 2.437-.332.651-.782 1.209-1.466 1.549-.654.325-1.312.269-1.975.089-.888-.24-1.723-.6-2.544-1.022-1.146-.588-1.467-1.916-1.318-2.817.136-.814.41-1.582.66-2.36.474-1.474.866-2.959.763-4.533a10 10 0 0 0-.597-2.77c-.343-.94-.664-1.88-.584-2.903.083-1.075.392-2.074.969-2.987z"/><path fill="#DC0000" d="M87.908 101.79c-.375-.179-.65-.477-.886-.804-.952-1.32-1.476-2.773-1.335-4.424.054-.647.196-1.278.518-1.844.446-.786 1.162-1.302 1.967-1.636a188 188 0 0 1 5.522-2.177c.78-.296 1.563-.603 2.362-.843.783-.233 1.608-.322 2.421-.068.515.161.962.46 1.368.802.853.718 1.509 1.58 1.818 2.673.062.205.05.407.004.616-.315 1.47-.805 2.882-1.354 4.277-.393 1-.662 2.034-.64 3.102.02.947.214 1.884.468 2.803.245.885.529 1.756.699 2.663.129.693-.029 1.314-.36 1.9-.76 1.346-2.346 2.016-3.845 1.649-.556-.137-.924-.494-1.19-.984-.549-1.007-.926-2.088-1.337-3.154-.35-.901-.725-1.78-1.443-2.483-.738-.721-1.6-1.167-2.578-1.449-.726-.21-1.485-.302-2.179-.617z"/><path fill="#A91616" d="M87.908 101.79c.535.024 1.039.192 1.553.315.452.106.9.248 1.336.409 1.467.538 2.493 1.542 3.109 2.977.542 1.269.94 2.597 1.583 3.827.331.633.785.979 1.517 1.098 1.808.297 3.515-1.096 3.759-2.739.058-.391-.047-.77-.133-1.138-.174-.732-.402-1.454-.591-2.181a17 17 0 0 1-.438-2.308c-.157-1.336.165-2.57.621-3.795.476-1.278.975-2.55 1.233-3.898.056-.298.226-.57.208-.886.318.828.51 1.666.405 2.575-.089.768-.355 1.425-.875 1.985-1.047 1.127-1.177 2.459-.84 3.876.23.972.672 1.872 1.023 2.806.355.947.714 1.894.906 2.89.093.477.113.963-.006 1.435a2.46 2.46 0 0 1-1.301 1.65c-.89.462-1.81.825-2.784 1.065-1.013.249-1.836-.067-2.534-.789-.34-.348-.581-.767-.799-1.199-.678-1.354-1.156-2.789-1.707-4.196a6 6 0 0 0-.559-1.118c-.732-1.123-1.708-1.859-3.086-1.982-.533-.048-1.05-.173-1.475-.528-.048-.04-.08-.098-.12-.147z"/><path fill="#000" d="M52.977 45.237c.498.121 1 .226 1.493.37 2.03.59 3.587 1.813 4.74 3.569.34.514.507 1.102.715 1.672.258.496.306 1.036.371 1.58.141 1.17.194 2.34.174 3.517-.027 1.546-.73 2.701-2.008 3.537-.752.494-1.6.764-2.45 1.008-2.036.585-4.118.923-6.224 1.135-2.084.21-4.166.431-6.25.625-2.117.197-4.235.38-6.36.046-.935-.147-1.71-.542-2.301-1.288-.706-.96-.724-2.015-.432-3.114.158-.59.406-1.145.66-1.697.093-.201.216-.393.262-.614.678-1.897 1.848-3.49 3.133-5.003 1.003-1.179 2.058-2.31 3.387-3.14 2.04-1.271 4.239-2.076 6.64-2.346 1.063-.119 2.124-.064 3.185-.082.434-.008.843.159 1.269.223zm36.577 4.835c.337 1.077.567 2.177.779 3.283.434 1.82.363 3.675.307 5.517-.04 1.348-.733 2.37-2.185 2.692-.888.198-1.786.286-2.681.323-2.762.11-5.508.008-8.205-.697-1.388-.363-2.806-.591-4.21-.887-1.531-.323-3.04-.73-4.497-1.308-1.511-.6-2.258-1.89-2.01-3.497.224-1.441.654-2.818 1.409-4.08.403-.781.797-1.57 1.236-2.331.444-.77 1.013-1.431 1.6-2.094.856-.97 1.905-1.655 2.986-2.314.845-.629 1.822-.981 2.838-1.145 3.303-.528 6.452-.137 9.278 1.798 1.695 1.161 2.746 2.8 3.357 4.74zm-10.07 26.481a6.8 6.8 0 0 0 1.371-.74c.303-.294.672-.493 1.03-.709.792-.478.838-.582.677-1.48-.038-.21-.153-.437.042-.638.105-.14.186-.3.362-.375.322-.135.698-.008.83.36.348.966 1.005 1.665 1.812 2.254.077.056.151.123.212.195.188.226.21.486.075.714-.138.232-.37.334-.658.286-.079-.014-.153-.044-.23-.066-.131-.063-.278-.079-.407-.148-1.02-.548-2.06.047-2.657.83-.486.64-.759 1.377-.868 2.177-.185 1.355-.835 2.387-2.112 2.967-.426.194-.64.504-.61.992.031.532-.094 1.026-.526 1.39-.883.817-1.97.95-3.18.111-.61-.365-.857-.933-.901-1.614-.044-.66-.278-1.211-.84-1.608-.415-.295-.845-.448-1.357-.345-1.404.282-2.802.609-4.234.736-1.81.16-3.614.278-5.443.191-2.708-.129-5.352-.548-7.933-1.346-3.427-1.058-6.738-2.407-9.792-4.31-.777-.483-1.445-.594-2.205-.005-.442.34-.69.246-1.051-.216-.143-.41-.002-.711.335-.957.391-.284.762-.59 1.067-.968.274-.336.504-.701.65-1.116.098-.284.258-.522.599-.548.318-.027.508.15.645.41.103.267.08.527 0 .8-.155.539-.034.855.438 1.15.222.137.414.302.605.473.749.474 1.503.933 2.328 1.264.478.048.878.302 1.301.492 2.998 1.33 6.067 2.446 9.319 2.974 1.287.21 2.584.3 3.89.371 2.608.145 5.176-.086 7.724-.596 2.713-.544 5.293-1.502 7.827-2.6.614-.266 1.172-.683 1.867-.756z"/><path fill="#FFE9A5" d="M57.036 34.503c-.902.03-1.8 0-2.685-.195a4 4 0 0 1-1.156-.464c-.605-.35-1.029-1.266-.817-2.044.294-1.08.934-1.85 1.884-2.386.734-.413 1.53-.655 2.354-.83.943-.2 1.895-.323 2.84-.478a23 23 0 0 1 2.39-.244c1.038-.06 2.087-.096 3.135.039.508.066 1.018.098 1.525.193.748.141 1.464.393 2.156.681 1.098.456 2.159 1 3.238 1.498.519.238.845.62.974 1.177q.054.217.017.431c-.202 1.08-.795 1.879-1.762 2.4-.454.246-.922.466-1.422.593-.841.214-1.426.752-1.959 1.405a3.23 3.23 0 0 1-2.23 1.205c-.346.034-.699-.073-1.04-.17-.99-.281-1.862-.791-2.679-1.398-.466-.347-.936-.673-1.459-.935-.633-.319-1.307-.433-1.999-.474-.434-.026-.871-.004-1.305-.004"/><path fill="#000" d="M68.269 63.404q.235.162.472.32c.585.39.954.926 1.087 1.617.418 1.282-.034 2.4-.67 3.479-1.154 1.957-2.959 2.91-5.14 3.194-.857.113-1.688-.201-2.48-.54-1.544-.66-2.658-1.781-3.439-3.253-.488-.919-.393-1.896-.296-2.876.14-.745.565-1.298 1.182-1.717a5.2 5.2 0 0 1 2.281-.83 23 23 0 0 1 3.61-.101c1.164.05 2.35.05 3.393.707m-30.192-26.6c.167.136.377.18.562.273.115.058.238.107.335.187a.58.58 0 0 1 .162.66.56.56 0 0 1-.52.364c-.219.014-.412-.068-.604-.149-1.682-.715-2.978-1.897-4.02-3.37-1.495-2.112-2.315-4.47-2.526-7.046-.144-1.745.056-3.438.702-5.07a7.4 7.4 0 0 1 1.02-1.8c1.574-2.038 3.965-2.733 6.39-1.853 1.724.627 3.05 1.78 4.13 3.225 1.621 2.17 2.493 4.628 2.715 7.322.056.694.044 1.38-.007 2.074-.036.49-.599.873-1.049.448q-.053-.048-.108-.095c-.227-.188-.156-.448-.146-.677a13.3 13.3 0 0 0-.603-4.575c-.734-2.302-1.973-4.265-3.946-5.704-.946-.69-2.02-1.074-3.212-1.018-1.71.079-2.824 1.058-3.61 2.475-.91 1.639-1.08 3.43-.93 5.252a12.56 12.56 0 0 0 1.714 5.388c.777 1.324 1.757 2.462 3.066 3.293.178.113.351.23.487.393z"/><path fill="#FFE9A5" d="M37.713 16.892c-1.242.079-2.334.319-3.417.633-1.2.35-2.064 1.125-2.847 2.046a11 11 0 0 0-1.16 1.655c-.595 1.025-.948 2.138-1.218 3.283-.07.296-.127.596-.204.89-.07.269-.302.432-.526.393-.208-.036-.323-.21-.333-.513-.008-.274.044-.54.085-.81.123-.871.183-1.752.31-2.62.246-1.702.537-3.399 1.356-4.94 1.045-1.967 2.606-3.366 4.712-4.132.408-.147.842-.183 1.274-.232 1.012-.115 1.987.046 2.919.401 1.07.407 2.043.992 2.945 1.717 1.023.827 1.725 1.893 2.453 2.95.567.823 1.124 1.656 1.537 2.56.442.966.985 1.885 1.356 2.88.19.51.363 1.026.418 1.577.016.157.082.308.125.463.095.35-.093.61-.456.609a.68.68 0 0 1-.656-.411c-.123-.262-.25-.524-.345-.796-.54-1.552-1.444-2.895-2.404-4.209a9.2 9.2 0 0 0-2.895-2.567 5.5 5.5 0 0 0-2.236-.71c-.302-.03-.595-.16-.79-.115z"/><path fill="#EAC451" d="M38.077 36.805c-.975-.44-1.76-1.127-2.443-1.927-1.65-1.925-2.575-4.172-2.895-6.675-.202-1.586-.111-3.148.399-4.672a6.4 6.4 0 0 1 1.124-2.066c1.182-1.433 2.868-1.938 4.644-1.398.942.286 1.759.792 2.485 1.443 1.679 1.507 2.724 3.404 3.349 5.546a12.2 12.2 0 0 1 .48 4.152c-.014.258-.022.514.036.768-.484-.09-.542-.488-.603-.867-.16-1.01-.242-2.031-.57-3.013-.438-1.312-1.114-2.487-1.935-3.591-.547-.734-1.2-1.343-2.032-1.738-1.358-.647-2.705-.598-4.024.111-.616.333-1.021.873-1.316 1.49-.385.806-.54 1.672-.575 2.561-.016.434-.012.87-.002 1.304.034 1.457.331 2.858.858 4.219.55 1.422 1.444 2.603 2.533 3.651.208.2.436.39.484.702zm30.182 14.614c-.36.945-.753 1.878-1.023 2.856-.2.715-.357 1.437-.256 2.188.147 1.095.7 1.877 1.722 2.326.933.41 1.915.667 2.89.943 1.613.458 3.272.708 4.908 1.066 1.321.29 2.632.62 3.976.8 1.138.156 2.28.204 3.424.192 1.256-.012 2.513-.038 3.762-.218a6.2 6.2 0 0 0 1.267-.296c.712-.262 1.182-.752 1.41-1.481.174-.56.22-1.137.224-1.717a43 43 0 0 0-.21-4.293c-.014-.143-.012-.288-.018-.433.175.513.363 1.023.523 1.541.183.599.447 1.17.603 1.778a6.3 6.3 0 0 1 .203 1.614c-.006.946-.357 1.808-.823 2.632-.575 1.016-1.53 1.435-2.576 1.697-.9.226-1.822.333-2.75.426-.885.086-1.767.084-2.65.064a26 26 0 0 1-2.155-.157q-.906-.099-1.814-.206c-.653-.076-1.297-.201-1.942-.31-1.09-.183-2.165-.443-3.24-.703-1.193-.287-2.316-.76-3.444-1.232a14.4 14.4 0 0 1-2.63-1.41 3.6 3.6 0 0 1-.896-.87c-.503-.707-.634-1.499-.533-2.367.196-1.677 1.037-3.048 1.969-4.384.016-.024.052-.034.08-.05zM40.887 76.16c.442.363.625.415 1.063.067.736-.583 1.38-.494 2.156-.023 3.894 2.37 8.082 4.04 12.526 5.053 1.7.387 3.43.564 5.171.647 2.18.103 4.347-.008 6.506-.312q1.388-.196 2.746-.54c.702-.178 1.364-.164 1.969.312.466.367.79.802.805 1.415.018.743.28 1.376.813 1.898-.602-.215-.953-.68-1.227-1.221-.042-.085-.06-.184-.099-.27-.41-.931-.661-1.01-1.713-.887-.718.085-1.406.314-2.11.47-.956.21-1.92.32-2.9.377-1.673.096-3.346.08-5.02.082-1.335.002-2.65-.181-3.964-.403a20 20 0 0 1-2.984-.744 40 40 0 0 1-3.064-1.159 51 51 0 0 1-3.408-1.598c-1.258-.647-2.479-1.362-3.72-2.04a6.1 6.1 0 0 0-1.765-.616.86.86 0 0 0-.56.095c-.459.233-1.064.048-1.223-.6zm-6.012-15.15c.871.873 1.967 1.167 3.155 1.254 2.213.163 4.41-.037 6.61-.266q2.114-.22 4.232-.417c2.667-.25 5.307-.635 7.865-1.464a7.7 7.7 0 0 0 1.544-.68q1.894-1.115 2.045-3.304c.079-1.161-.022-2.318-.14-3.47-.063-.607-.172-1.21-.261-1.815.559.599.787 1.355.962 2.12.238 1.034.38 2.084.31 3.15-.086 1.387-.389 2.703-1.31 3.796a5.9 5.9 0 0 1-2.201 1.614c-1.306.566-2.694.818-4.096 1.024-1.03.151-2.072.203-3.098.365a1 1 0 0 1-.194.008c-.759-.059-1.51.078-2.262.117-1.105.058-2.213.105-3.314.193-1.723.14-3.446.085-5.167.057-1.24-.02-2.469-.26-3.5-1.042-.456-.347-.9-.722-1.18-1.242z"/><path fill="#FFE9A5" d="M79.484 76.553c-.902.5-1.85.897-2.8 1.292-2.43 1.008-4.909 1.852-7.501 2.33a32 32 0 0 1-4.37.48 32.4 32.4 0 0 1-6.839-.42c-1.878-.314-3.706-.83-5.495-1.475a48 48 0 0 1-4.59-1.907c-.113-.054-.244-.082-.33-.185.215-.208.45-.107.671-.024 1.083.403 2.179.77 3.282 1.114 1.302.405 2.629.698 3.97.944.866.157 1.733.308 2.603.429.742.103 1.49.195 2.243.248.916.062 1.834.14 2.744.058.815-.072 1.634-.012 2.447-.151.424-.073.861-.062 1.293-.103a38 38 0 0 0 3.371-.475c2.623-.474 5.193-1.15 7.745-1.901q.485-.144.968-.29c.202-.06.402-.127.59.036z"/><path fill="#000" d="M78.507 30.428c-.57-.05-.767-.21-.773-.768-.026-1.878.733-3.31 2.397-3.972 1.493-.595 2.97-.52 4.388.215 1.55.803 2.29 2.51 1.888 4.207-.405 1.71-1.485 2.769-3.151 3.258-.387.115-.696.013-.835-.266-.152-.302-.027-.604.343-.834l.119-.08c.208-.25.528-.297.793-.444 1.218-.671 1.787-2.197 1.293-3.479-.228-.592-.664-.997-1.219-1.243-1.08-.476-2.183-.506-3.274-.014-1.146.516-1.352 1.554-1.43 2.644-.029.381-.067.716-.535.776zM48.22 39.542c-.079-.006-.161-.002-.238-.022-.502-.137-.65-.601-.319-.996.05-.06.12-.105.18-.157.25-.222.556-.309.873-.38 1.935-.43 3.876-.846 5.857-.979 1.7-.114 3.395-.044 4.96.73 1.51.746 2.19 2.023 2.193 3.68 0 .466.037.933-.024 1.397-.04.068-.072.143-.123.205a.55.55 0 0 1-.64.2c-.258-.077-.389-.266-.419-.526-.03-.252.03-.512-.079-.754-.228-.213-.117-.518-.21-.768-.173-1.336-.79-2.025-2.092-2.386-1.357-.377-2.735-.318-4.115-.22-.736.053-1.469.145-2.19.303a66 66 0 0 0-3.003.628c-.2.047-.397.133-.609.047zm20.037 4.44-.142.127c-.201.177-.425.213-.667.09-.228-.116-.353-.366-.321-.646.02-.174.056-.347.085-.52.094-1.405.637-2.637 1.483-3.74.37-.483.903-.763 1.47-.973 1.003-.368 2.046-.55 3.105-.667 1.801-.197 3.595-.082 5.388.087.408.038.842-.11 1.22.153.146.083.31.065.467.09.407.071.635.325.603.67-.032.34-.294.536-.724.532-.079 0-.157-.006-.236-.008-.817.167-1.634.014-2.45-.014-.415-.014-.832-.067-1.25-.067-1.449-.17-2.877.037-4.307.24-1.622.232-2.687 1.058-3.038 2.7q-.237.623-.368 1.277c-.048.247-.106.497-.318.67z"/><path fill="#EAC451" d="M78.507 30.428c.343-.175.456-.451.434-.832-.03-.538.107-1.054.308-1.552.19-.468.529-.814.967-1.042 1.301-.68 2.61-.651 3.877.068.922.526 1.352 1.568 1.15 2.612-.256 1.335-1.035 2.179-2.364 2.506a1.17 1.17 0 0 1 .29-.839c.325-.37.523-.814.557-1.302.05-.736-.161-1.407-.712-1.913-.319-.29-.74-.374-1.174-.26a2.3 2.3 0 0 0-.858.422c-.514.413-1.022.83-1.29 1.459-.225.524-.602.776-1.183.671zm-25.53 14.81c-.752-.057-1.505-.13-2.261-.136-2.912-.02-5.635.653-8.177 2.09-1.323.748-2.419 1.75-3.425 2.868-1.429 1.586-2.667 3.302-3.577 5.24-.047.1-.073.216-.174.285.101-.74.365-1.431.67-2.1.488-1.069 1.009-2.123 1.757-3.04.75-.919 1.52-1.816 2.425-2.6a14 14 0 0 1 3.22-2.096 12.8 12.8 0 0 1 3.72-1.11c.934-.131 1.868-.121 2.792-.059 1.03.069 2.062.246 3.028.66zm26.902-7.345c-.967.012-1.93-.072-2.893-.145-1.874-.141-3.732-.052-5.572.337-.361.076-.714.191-1.065.306-1.021.333-1.75 1.002-2.2 1.97-.358.773-.669 1.565-.849 2.401-.02.093-.014.194-.09.269-.378-1.097-.307-2.193.123-3.243.29-.708.83-1.248 1.466-1.69 1.053-.73 2.225-1.108 3.488-1.287 1.078-.153 2.157-.113 3.23-.065a15.6 15.6 0 0 1 3.644.601c.298.087.653.137.718.546m-18.175 4.92c.008-.885-.012-1.768-.264-2.628-.355-1.214-1.134-2.034-2.3-2.493-.984-.39-2.015-.544-3.068-.569-1.699-.038-3.373.186-5.034.516-1.071.214-2.146.411-3.193.728.056-.115.135-.226.165-.347.073-.296.285-.447.533-.582.756-.41 1.58-.623 2.413-.803a38 38 0 0 1 1.884-.358q.616-.1 1.24-.123c.26-.01.509-.087.761-.093 1.487-.04 2.968.053 4.32.73 1.512.758 2.432 1.973 2.634 3.708.083.707-.093 1.4-.008 2.1.01.08-.018.16-.085.216z"/><path fill="#FFE9A5" d="M74.363 27.879c.152-.946.43-1.837 1.047-2.598 1.068-1.316 2.486-2.004 4.118-2.26.9-.14 1.813-.207 2.731-.044.327.058.67.048.999.12.109.025.22.055.317.108.322.177.375.322.276.71-.095.37-.167.428-.569.437-1.061.02-2.124.058-3.125.443-1.468.566-2.812 1.344-3.88 2.531-.233.26-.425.563-.633.847-.038.052-.064.113-.105.161-.25.308-.542.425-.788.316-.228-.1-.406-.453-.39-.773zM60.35 41.17c.103.248.083.508.091.768l-.04.617c-.23-.01-.345-.14-.446-.288-.998-1.474-2.437-2.227-4.148-2.546a11.5 11.5 0 0 0-3.119-.171c-1.036.09-2.084.046-3.11.258-.263.054-.539.034-.811.084-.242.045-.48-.056-.547-.352 1.172-.363 2.372-.593 3.583-.78.611.002 1.216-.085 1.824-.121a15 15 0 0 1 3.607.228c1.402.258 2.384 1.118 3.116 2.3z"/><path fill="#E2BC46" d="M57.803 65.343c-.014.563-.05 1.127.054 1.683.23 1.24.916 2.221 1.808 3.066 1.057 1.003 2.33 1.586 3.774 1.785a3.3 3.3 0 0 0 1.342-.098c1.186-.333 2.328-.786 3.218-1.675 1.034-1.036 1.763-2.243 1.88-3.753.026-.343-.077-.671-.049-1.008.26.224.244.542.273.837.09.981-.18 1.88-.668 2.716a9.2 9.2 0 0 1-2.28 2.649c-.288.225-.617.34-.94.475a7.3 7.3 0 0 1-2.475.563c-1.255.056-2.365-.39-3.35-1.147a10.4 10.4 0 0 1-1.942-1.927c-.736-.965-.948-2.06-.785-3.23.043-.31-.056-.65.142-.936z"/><path fill="#EAC451" d="M77.823 84.566a2.32 2.32 0 0 0 .4-1.551c-.04-.41.157-.67.498-.853q.106-.058.216-.107c1.214-.544 1.832-1.523 1.999-2.803.119-.917.418-1.776 1.035-2.447.87-.943 1.9-1.37 3.032-.45-.688-.008-1.202.404-1.735.75-.32.208-.601.476-.877.748-.291.286-.428.623-.489 1.016-.08.518-.125 1.044-.357 1.531-.436.913-1.004 1.718-1.86 2.276a2.7 2.7 0 0 0-.865.873c-.25.413-.58.761-.997 1.017"/><path fill="#EAC351" d="M89.554 50.072c-.254-.536-.482-1.082-.768-1.604-1.124-2.056-2.8-3.466-5-4.25a13.03 13.03 0 0 0-6.992-.529c-.793.156-1.539.464-2.271.803-.146.066-.277.169-.442.187.058-.256.296-.339.48-.443.841-.478 1.72-.859 2.683-1.036.472-.087.918-.282 1.404-.313.666-.044 1.312-.175 2-.094.982.115 1.93.312 2.834.701 1.11.476 2.187 1.008 3.107 1.816 1.341 1.181 2.322 2.596 2.889 4.295.052.155.098.306.076.47z"/><path fill="#FFE9A5" d="M76.21 38.96c.849-.035 1.69.096 2.535.126.414.014.827.059 1.243.091-.037.1-.101.167-.212.16-.547-.037-1.083.09-1.628.11-1.906.073-3.79.302-5.604.937-1.104.387-2.113.925-2.915 1.798-.406.44-.745.919-1.005 1.46-.073.15-.097.386-.365.342q.192-.736.391-1.47c.044-.165.063-.342.176-.485.762-1.39 2.007-2.088 3.494-2.461 1.144-.286 2.306-.411 3.476-.514.145-.012.29-.01.417-.093z"/><path fill="#010000" d="M94.091 61.885q-.023.04.008.074a.42.42 0 0 1 .027.282c-.362 1.492-1.378 2.957-3.117 3.382q-.049.005-.095.012c-.454.081-.714-.032-.83-.358-.108-.31.045-.589.445-.798q.21-.114.431-.21c.959-.41 1.501-1.167 1.808-2.126q.035-.115.075-.228c.225-.665.692-.762 1.176-.244.04.067.034.147.07.214z"/><path fill="#010100" d="M29.553 62.733c.059-.094.105-.203.18-.282.302-.312.778-.234.958.161.065.143.08.309.115.466.181.844.547 1.542 1.46 1.79.03.008.061.022.091.032.29.103.523.27.543.602.02.315-.182.498-.444.625-.107.085-.23.099-.363.087-1.432-.131-2.84-2.06-2.54-3.483z"/><path fill="#EAC451" d="M91.007 65.623c.266-.143.53-.292.803-.427 1.216-.606 1.813-1.679 2.195-2.914l.094-.323c.563.293.598.782.477 1.314a9 9 0 0 1-.347 1.15c-.352.936-1.088 1.44-1.971 1.779a.82.82 0 0 1-1.031-.355c-.059-.099-.087-.203-.218-.224z"/><path fill="#FFE9A5" d="M42.466 32.085c.154 0 .234-.004.315 0 .31.014.456.113.51.338.063.268-.014.46-.262.615-.204.127-.417.24-.623.365-.775.473-1.467 1.034-1.945 1.826a3.4 3.4 0 0 1-.272.395c-.2.242-.34.278-.585.173-.295-.125-.5-.365-.458-.608.1-.583.214-1.16.542-1.677.465-.726 1.152-1.099 1.95-1.308.292-.077.586-.18.828-.121z"/><path fill="#E9C451" d="M29.553 62.733c-.012.875.315 1.639.83 2.316.512.675 1.242.99 2.075 1.078-.22.615-.694.84-1.232.524-.836-.492-1.604-1.068-2.048-1.97a1.8 1.8 0 0 1-.206-.833c.004-.238.057-.456.232-.61.162-.144.228-.341.351-.505z"/><path fill="#E9C250" d="M68.269 63.405c-.573-.196-1.132-.46-1.755-.466q-.602-.006-1.2-.073c-1.415-.157-2.825-.024-4.231.093-.617.052-1.215.286-1.79.54q-.153.065-.308.127c.018-.105.089-.167.177-.213.638-.337 1.27-.674 2.002-.774 1.06-.146 2.11-.371 3.193-.299 1.269.087 2.504.295 3.662.849.102.05.201.1.25.213z"/><path fill="#FFE9A5" d="M82.007 31.375c.043.25-.099.422-.296.55-.214.14-.416.035-.575-.1a9 9 0 0 0-1.086-.792.57.57 0 0 1-.242-.714c.089-.191.353-.256.674-.211.508.068.964.221 1.3.64.145.184.245.375.223.625z"/><path fill="#E9C250" d="M82.604 72.986c-.014.29.063.566.125.846.134.599.019.9-.498 1.208-.45.27-.883.57-1.374.773a.3.3 0 0 1 .117-.201c.573-.506.88-1.163 1.092-1.878.093-.313.214-.603.54-.746z"/><path fill="#E7C150" d="M45.228 75.404c-.276-.092-.508-.266-.75-.42-.44-.283-.587-.698-.436-1.206.079-.262.177-.516.141-.796.222.242.351.524.371.852.01.165.095.3.166.444.181.37.383.731.508 1.128z"/><path fill="#EAC451" d="M94.091 61.885a.25.25 0 0 1-.07-.214c.082.053.093.127.07.214"/><path fill="#FFA9A9" d="M55.218 96.732c.696.004 1.326-.029 1.943.124.299.075.59.172.85.333.837.52.857 1.614.036 2.165-.3.201-.636.292-1 .316-.687.044-1.342-.139-2.01-.234-.904-.13-1.8-.107-2.68.16-1.325.405-2.132 1.33-2.565 2.611-.156.458-.24.934-.299 1.413-.018.143-.034.288-.07.428-.122.449-.406.711-.79.735-.367.024-.702-.211-.871-.641a4.6 4.6 0 0 1-.288-1.265c-.107-1.087.171-2.062.8-2.96 1.26-1.79 2.95-2.827 5.13-3.079.628-.072 1.255-.066 1.814-.104zm-1.388 16.762c-1.412-.057-2.689-.452-3.69-1.512-.334-.356-.587-.762-.69-1.251-.106-.512.136-1.153.566-1.447.244-.168.504-.178.782-.077.396.141.779.314 1.132.536 1.166.726 2.415.81 3.72.522.329-.072.658-.151.989-.218.306-.062.609-.044.903.069.493.191.735.699.59 1.219-.13.462-.45.776-.818 1.042a5.8 5.8 0 0 1-2.426 1.018c-.35.063-.699.119-1.06.101zm21.397-16.73c.643-.024 1.289-.065 1.924.093.283.07.56.159.81.308.889.534.901 1.665.022 2.219-.604.38-1.27.334-1.923.228-.779-.127-1.551-.283-2.348-.244a5.7 5.7 0 0 0-1.098.153c-1.715.423-2.614 1.602-2.99 3.253-.084.375-.125.762-.191 1.141a1.6 1.6 0 0 1-.107.368c-.14.303-.383.482-.716.496-.331.014-.59-.139-.76-.425-.194-.325-.275-.691-.334-1.052-.197-1.24.02-2.376.769-3.43 1.469-2.07 3.49-3.02 5.975-3.104.323-.01.644 0 .967 0zm-1.364 16.73c-1.202-.016-2.28-.341-3.23-1.04a3.24 3.24 0 0 1-1.057-1.294c-.26-.574-.232-1.115.184-1.622.314-.383.589-.482 1.055-.321q.572.198 1.087.518c1.18.732 2.445.82 3.765.52.328-.074.657-.155.988-.214.64-.112 1.152.089 1.388.528.234.434.113.984-.333 1.448a3.3 3.3 0 0 1-.478.403c-1.02.709-2.159 1.048-3.369 1.074M39.525 97.51c-.04 1.322-1.124 2.636-2.175 3.081-.173.075-.375.097-.565.113-.353.03-.708.05-1.06.05-.77 0-1.492.139-2.167.543-.979.586-2.207.044-2.573-.97-.375-1.044-.952-1.957-1.654-2.803-.35-.424-.663-.869-.779-1.425-.12-.589-.006-1.13.364-1.593.708-.884 1.529-.614 2.019-.044.305.355.654.67.942 1.032.539.683 1.277.925 2.086 1.078.874.166 1.646-.036 2.385-.505.704-.448 1.476-.474 2.223-.152.61.262.96.792.954 1.592zm56.564-4.987c.95-.014 1.484.528 1.392 1.399-.037.329-.204.603-.404.857q-.225.284-.452.564c-.369.455-.47.965-.347 1.538.121.566.212 1.138.053 1.717-.115.421-.26.828-.547 1.165-.545.635-1.317.874-2.024.375-.754-.535-1.52-.508-2.336-.446-.647.049-1.275.01-1.886-.256-1.186-.516-1.53-1.568-1.287-2.648.202-.893.759-1.542 1.499-2.044.938-.636 1.99-1.03 3.048-1.402.696-.246 1.4-.47 2.129-.599.21-.036.38-.18.583-.214.187-.032.385-.006.577-.006z"/><path fill="#fff" d="M47.278 49.607c-.347.867-.654 1.75-.742 2.684-.28 2.957.52 5.505 2.852 7.466.131.11.303.191.373.413-.155.106-.34.125-.524.145-2.179.218-4.356.453-6.539.645-1.652.145-3.312.225-4.968.04-.45-.05-.89-.143-1.298-.35-.728-.371-1.049-.974-.94-1.784q.103-.769.424-1.478c.335-.745.646-1.503 1.083-2.198a18 18 0 0 1 3.615-3.022c1.913-1.229 3.999-2.067 6.186-2.67.32-.089.32-.083.48.109z"/><path fill="#D9D9D9" fill-opacity=".314" d="M47.278 49.607c-.065-.103-.147-.085-.25-.055-1.184.353-2.36.72-3.498 1.212a20.7 20.7 0 0 0-3.57 1.985c-.514.357-.994.752-1.456 1.175-.482.443-1.002.842-1.507 1.261.18-.485.458-.919.737-1.35 1-1.55 2.144-2.99 3.526-4.214 1.929-1.71 4.196-2.72 6.762-3.047.416-.053.831-.105 1.251-.101.109 0 .244-.006.282.129.03.109-.07.171-.143.232-.924.76-1.583 1.723-2.134 2.767z"/><path fill="#FEFFFF" d="M54.835 50.8c.004.238-.065.421-.23.538-.244.175-.343.405-.37.693a.58.58 0 0 1-.427.528.584.584 0 0 1-.684-.23c-.163-.223-.387-.32-.633-.406-.652-.232-.757-.738-.248-1.206.28-.256.478-.544.566-.925.083-.358.356-.562.693-.562.328 0 .536.18.647.482.085.23.212.425.414.578a.64.64 0 0 1 .272.508z"/><path fill="#FEFEFE" d="M55.896 49.172a.48.48 0 0 1 .36.237c.114.192.284.297.475.39.289.138.497.358.587.668.093.315-.026.617-.278.752-.25.133-.524.093-.736-.161-.132-.155-.289-.248-.454-.347-.267-.159-.507-.348-.616-.655-.165-.461.123-.903.66-.884z"/><path fill="#FDFDFD" d="M56.653 52.404c-.012.411-.444.774-.906.762-.486-.012-.801-.33-.785-.792.016-.45.365-.774.823-.764.486.01.878.371.868.792z"/><path fill="#fff" d="M88.49 50.937c.376.967.552 1.983.649 3.005.129 1.36.218 2.729.21 4.097a6 6 0 0 1-.152 1.292c-.099.438-.367.698-.787.83a5.5 5.5 0 0 1-1.182.232c-2.346.21-4.694.295-7.034-.078-.698-.111-1.392-.26-2.084-.407-.414-.089-.424-.14-.164-.492.085-.115.188-.22.289-.323 1.295-1.287 1.997-2.864 2.225-4.657.274-2.157-.178-4.156-1.342-5.994-.016-.026-.022-.06-.034-.09-.024-.22.153-.235.284-.239 2.143-.062 4.26.1 6.277.88.84.324 1.571.882 2.324 1.382.218.145.401.322.522.558z"/><path fill="#D9D9D9" fill-opacity=".314" d="M88.49 50.937c-.765-.613-1.61-1.104-2.446-1.61-.787-.476-1.674-.64-2.554-.792-1.295-.226-2.602-.355-3.92-.307-.167.006-.36-.062-.484.125-.317-.38-.605-.786-.96-1.136a7 7 0 0 0-2.187-1.472c-.115-.048-.293-.054-.303-.195-.014-.18.144-.272.299-.335a6.5 6.5 0 0 1 1.483-.413c2.43-.353 4.787-.1 6.998 1.014 2.134 1.076 3.417 2.86 4.077 5.121z"/><path fill="#FEFEFE" d="M73.7 52.302c-.004.026.004.098-.027.15-.195.353-.244.762-.423 1.12-.246.487-.773.52-1.072.066-.191-.293-.258-.655-.494-.925q-.013-.02-.018-.045c-.085-.264.246-1.34.464-1.511.222-.174.557-.186.746.032.2.232.43.43.646.64.12.116.174.269.176.474z"/><path fill="#FDFDFD" d="M71.848 50.736c-.596.012-.92-.454-.7-.948a2.9 2.9 0 0 1 .635-.903c.365-.354.868-.19 1.015.3.119.39.073.726-.244 1.01-.107.097-.19.22-.289.325a.7.7 0 0 1-.42.215z"/><path fill="#F9FAFA" d="M70.674 52.12a.59.59 0 0 1-.618-.544.605.605 0 0 1 .591-.627c.305 0 .587.276.595.583a.58.58 0 0 1-.569.59z"/><path fill="#ADDDF6" d="M75.05 82.071c-.11-.556-.404-1-.81-1.388-.312-.3-.266-.478.144-.623a55 55 0 0 0 4.809-1.955c.028-.012.063-.01.095-.014.276.431.066.84-.091 1.23a2.8 2.8 0 0 1-1.07 1.275c-.677.45-1.266.97-1.726 1.649-.424.624-1.237.491-1.352-.172z"/><path fill="#6AAACB" d="M75.05 82.071c.032.037.064.069.094.107.375.482.815.486 1.176-.004.19-.256.353-.53.575-.764.313-.328.678-.584 1.051-.83a3.5 3.5 0 0 0 .886-.867c.353-.485.518-1.021.454-1.622.066-.087.167-.087.262-.09.297-.009.345.041.274.332-.07.28-.103.566-.147.85-.119.778-.49 1.385-1.237 1.715a3.3 3.3 0 0 0-.667.383c-.517.395-.805.907-.807 1.566 0 .13.004.258 0 .385-.01.502-.293.77-.79.75a1.12 1.12 0 0 1-1.048-.903 5.4 5.4 0 0 1-.083-1.006z"/><path fill="#FFF6DB" d="M62.033 29.469c1.384.024 3 .117 4.584.493.784.188 1.537.468 2.198.948.065.046.142.082.196.14.603.66.519 1.224-.236 1.641-.252.14-.526.236-.79.357-.543.246-.963.649-1.32 1.106-.28.36-.597.678-.93.978-.577.524-1.646.6-2.306.18a5.8 5.8 0 0 1-1.122-.91c-.609-.647-1.36-1.078-2.2-1.342-.537-.167-1.074-.238-1.657-.137-.724.125-1.467.151-2.209.137-.71-.014-1.487-.72-.936-1.673.339-.588.865-.949 1.47-1.19.975-.392 1.998-.557 3.045-.642a36 36 0 0 1 2.213-.086"/><path fill="#fff" d="M64.018 64.743c.807.004 1.604.13 2.403.227.095.013.188.05.276.087.273.11.46.302.495.6.038.321-.105.571-.378.728-.42.243-.893.381-1.378.405-.788.04-1.575.053-2.348-.185a3.7 3.7 0 0 0-1.72-.125c-.259.044-.515.034-.725-.165-.208-.198-.238-.351-.107-.599a.95.95 0 0 1 .377-.363 3 3 0 0 1 .997-.352c.696-.127 1.392-.272 2.108-.256z"/><path fill="#FFF6DB" d="M36.31 13.33c1.1-.06 2.03.35 2.92.842.916.508 1.717 1.17 2.5 1.872 1.315 1.179 2.389 2.545 3.33 4.027.087.137.136.29.2.435.095.216.073.391-.13.494-.206.103-.315-.065-.426-.21-.295-.38-.608-.747-.892-1.136-.785-1.065-1.743-1.941-2.92-2.536a10.1 10.1 0 0 0-3.344-1.008c-1.402-.17-2.665.21-3.914.74-.385.163-.77.32-1.166.458-.22.076-.44.088-.666.078-.421-.018-.657-.346-.554-.76.103-.41.296-.78.542-1.12.602-.835 1.435-1.37 2.365-1.762.702-.294 1.432-.473 2.158-.42z"/><path fill="#FEF5DA" d="M60.35 41.17q-.55-.563-1.103-1.124c-.621-.63-1.388-.97-2.25-1.089a18.6 18.6 0 0 0-3.157-.191c-.526.018-1.049.129-1.58.089-.154-.013-.324.044-.455-.091.46-.163.946-.19 1.422-.246 1.54-.187 3.08-.298 4.614.048q.351.081.696.198c1.162.387 1.812 1.318 1.813 2.408zm15.86-2.21c-.249.3-.614.245-.93.271-1.36.105-2.7.309-3.977.794a4.64 4.64 0 0 0-2.296 1.885c-.038.058-.032.224-.185.119.112-.506.322-.974.58-1.421a2.27 2.27 0 0 1 1.19-1.008c.68-.266 1.387-.415 2.105-.51 1.055-.139 2.112-.233 3.18-.173.11.006.221.028.332.044z"/><path fill="#FFF6DB" d="M74.841 27.262c.059-.528.305-.976.644-1.373.93-1.086 2.126-1.729 3.482-2.14.654-.198 1.323-.23 1.983-.359a.6.6 0 0 1 .194 0c.208.022.395.107.431.323.043.243-.169.338-.349.389-.338.094-.687.137-1.03.22-1.284.308-2.365.959-3.343 1.827-.388.345-.74.704-1.033 1.13a1.5 1.5 0 0 1-.35.33c-.116.086-.247.13-.403.046-.163-.089-.234-.212-.226-.393m-33.07 5.405c.133-.004.262.01.328.147.069.145.055.309-.078.39-.628.378-1.104.91-1.56 1.466a.314.314 0 0 1-.434.069c-.14-.089-.221-.206-.177-.401.163-.738 1.2-1.649 1.924-1.67z"/><path fill="#FFF6DA" d="M81.202 31.408c-.129.004-.222-.019-.294-.091-.127-.13-.285-.206-.438-.294-.242-.142-.307-.299-.212-.464.13-.228.323-.16.507-.1.272.086.45.3.639.495.089.09.111.186.042.302-.064.111-.147.168-.246.15z"/><path fill="#FFE6E6" d="M56.42 99.164c-.435-.088-.859-.173-1.274-.304-1.009-.317-2-.232-2.964.183-.31.133-.605.303-.918.427-.312.126-.534.061-.684-.153-.127-.183-.105-.415.073-.669q.351-.503.896-.786a6.4 6.4 0 0 1 2.062-.63 8.4 8.4 0 0 1 2.4.01c.527.078.944.302 1.19.795.232.466.039.907-.462 1.047-.108.03-.217.054-.318.078zm-2.47 13.55c-.981-.111-2-.476-2.78-1.359-.132-.149-.204-.326-.283-.501a.43.43 0 0 1 .097-.49c.143-.149.329-.202.528-.111.162.073.32.149.462.258.848.653 1.804.871 2.853.701a2.2 2.2 0 0 1 .526-.034c.485.038.668.377.454.816a.8.8 0 0 1-.326.343c-.414.25-.884.385-1.532.381zm22.927-14.562c-.004.252-.107.478-.337.593-.317.16-.674.238-1.025.212-.653-.049-1.303-.19-1.957-.202-.52-.01-1.057.03-1.553.242-.119.05-.244.082-.361.135-.186.085-.35.028-.503-.069-.278-.175-.308-.419-.048-.618a4.4 4.4 0 0 1 1.316-.692c.954-.302 1.932-.475 2.94-.415.356.022.705.08 1.034.21.258.1.486.262.494.6zm-2.762 14.272c-.96.102-1.834-.212-2.645-.762-.175-.119-.32-.268-.47-.413-.242-.24-.276-.397-.143-.585.141-.199.462-.318.682-.215.337.155.68.28 1.04.374.907.236 1.815.188 2.729.083.334-.038.673-.081.996.071.43.201.502.582.184.927-.232.25-.535.356-.852.419-.49.095-.986.137-1.52.103zM34.812 99.952c-.44-.022-1.095-.094-1.755-.107-.518-.01-.885-.35-1.039-.814a4.2 4.2 0 0 0-1.305-1.927 1.2 1.2 0 0 1-.3-.373c-.132-.26-.095-.5.066-.727.172-.242.39-.272.615-.073.194.17.357.373.55.545.42.377.875.699 1.415.892.924.333 1.826.236 2.724-.092.421-.153.817-.37 1.275-.432.766-.102 1.184.341.964 1.08-.242.819-.764 1.401-1.54 1.758-.465.216-.81.276-1.67.27m59.392-5.998c.27.004.529-.034.73.196.245.278.295.518.106.83-.11.177-.245.337-.374.5-.195.246-.306.51-.282.84.028.402.006.805.01 1.206.004.3-.14.526-.36.703-.18.147-.395.24-.625.12-.78-.4-1.618-.348-2.453-.324-.294.008-.583-.022-.833-.183-.361-.232-.555-.74-.446-1.19.09-.364.269-.668.557-.93.656-.6 1.437-.962 2.248-1.274.359-.139.726-.258 1.079-.411.22-.097.442-.063.647-.083z"/><path fill="#D9F2FF" d="M75.037 80.705c-.004-.349.048-.436.373-.552.317-.113.64-.21.96-.313.26-.082.513-.181.757-.308.113-.059.228-.131.351-.153.184-.032.386-.073.505.155.12.234-.02.373-.174.488-.268.2-.55.38-.835.558-.341.212-.664.44-.944.734-.267.282-.543.245-.76-.069-.116-.167-.275-.327-.229-.542z"/></svg>
