<svg xmlns="http://www.w3.org/2000/svg" viewBox="0 0 128 128"><path fill="#213147" d="M11.571 38.912v50.176c0 3.226 1.69 6.144 4.506 7.782l43.469 25.088a9.02 9.02 0 0 0 8.96 0l43.468-25.088a8.99 8.99 0 0 0 4.506-7.782V38.912c0-3.226-1.69-6.144-4.506-7.782L68.506 6.042a9.03 9.03 0 0 0-8.96 0L16.076 31.13c-2.764 1.587-4.454 4.556-4.454 7.782z"/><path fill="#12AAFF" d="m73.472 73.728-6.195 16.998a2.44 2.44 0 0 0 0 1.485l10.65 29.235 12.339-7.116-14.797-40.602a1.067 1.067 0 0 0-1.997 0m12.442-28.57a1.067 1.067 0 0 0-1.997 0l-6.195 16.999c-.154.46-.154.973 0 1.485l17.459 47.872 12.339-7.117L85.914 45.21z"/><path fill="#9DCCED" d="M64 7.936c.307 0 .614.102.87.256l47.002 27.136c.563.307.87.922.87 1.536v54.272c0 .614-.358 1.229-.87 1.536L64.87 119.808a1.7 1.7 0 0 1-.87.256c-.307 0-.614-.102-.87-.256L16.128 92.672c-.563-.307-.87-.922-.87-1.536V36.813c0-.615.358-1.229.87-1.536L63.13 8.14c.256-.154.563-.256.87-.256zM64 0a9.74 9.74 0 0 0-4.864 1.28L12.134 28.416a9.66 9.66 0 0 0-4.864 8.397v54.272a9.66 9.66 0 0 0 4.864 8.397l47.002 27.136c1.485.87 3.174 1.28 4.864 1.28s3.328-.41 4.864-1.28l47.002-27.136a9.66 9.66 0 0 0 4.864-8.397V36.813a9.66 9.66 0 0 0-4.864-8.397L68.813 1.28C67.328.41 65.638 0 63.949 0z"/><path fill="#213147" d="m32.87 111.565 4.352-11.879 8.704 7.22-8.14 7.475z"/><path fill="#fff" d="M60.006 32.973h-11.93c-.87 0-1.689.563-1.996 1.382l-25.549 70.042 12.34 7.117 28.16-77.159c.255-.717-.257-1.433-.973-1.433zm20.89 0h-11.93c-.87 0-1.69.563-1.996 1.382L37.786 114.33l12.339 7.116 31.744-87.09c.256-.718-.256-1.434-.973-1.434z"/></svg>
