<svg xmlns="http://www.w3.org/2000/svg" viewBox="0 0 800 800"><path fill="#dfbf6a" d="M-.5-.5h800v800H-.5z"/><path fill="#fefefe" d="M233.5 163.5q170.085-.741 340 1.5 6.606 2.665 10.5 8.5l97 170q3.459 10.915-2 21A50000 50000 0 0 1 412.5 630q-12.746 8.221-26 1L121 367.5q-8.268-10.932-4-24a22163 22163 0 0 0 104-171q5.477-5.837 12.5-9"/><path fill="#dfbf6a" d="M537.5 472.5a1190 1190 0 0 1-69 1 10765 10765 0 0 1-17-36l-3.5-1a431 431 0 0 1-99 0q-2.835.428-4 3a1062 1062 0 0 1-14.5 34q-35.259.497-70-1a1091 1091 0 0 1 24-48.5 194.2 194.2 0 0 1-41-17l-5.5-5.5a484 484 0 0 1 0-44q2.607-5.612 7.5-9.5 23.011-12.884 49-18a646 646 0 0 1 40-6.5 5816 5816 0 0 1 64.5-129l64.5 129a419.4 419.4 0 0 1 74 16.5 161 161 0 0 1 15 8q4.893 3.888 7.5 9.5a271.3 271.3 0 0 1-1 46q-7.61 8.598-18.5 12.5a1203 1203 0 0 0-26 9.5 1526 1526 0 0 1 23 47"/><path fill="#fefefc" d="M398.5 320.5a1537 1537 0 0 1 33 71 326 326 0 0 0 62-6q-6.18-17.385-16-34 37.733 1.062 71 19.5 4.712 2.83 8 7-8.189 7.857-19 12a284.2 284.2 0 0 1-68 15q-87.384 10.846-174-5-26.706-4.42-50-18-6.472-3.254-1-7 34.756-22.785 76-23.5l-15.5 31q-1.026 1.926.5 3.5a306 306 0 0 0 61 5.5q16.01-35.544 32-71"/></svg>
