<svg xmlns="http://www.w3.org/2000/svg" fill="none" viewBox="0 0 756 721"><path fill="#D0D0D0" d="M0 0h756v721H0z"/><path fill="url(#a)" fill-rule="evenodd" d="M346.062 691.6c91.782 0 179.804-36.432 244.704-101.282 64.899-64.851 101.359-152.806 101.359-244.518s-36.46-179.667-101.359-244.518C525.866 36.432 437.844 0 346.062 0c-91.781 0-179.803 36.432-244.703 101.282C36.46 166.133 0 254.088 0 345.8s36.46 179.667 101.359 244.518c64.9 64.85 152.922 101.282 244.703 101.282" clip-rule="evenodd"/><path fill="#fff" d="m202.457 364.819 143.616 84.968 143.369-84.968-143.369 202.293z"/><path fill="#F5EBE4" d="m202.457 364.819 143.616 84.968v117.325z"/><path fill="#fff" d="m346.073 418.171-143.616-84.968 143.616-226.005 143.616 226.005z"/><path fill="#F5EBE4" d="m346.073 418.171-143.616-84.968 143.616-226.005z"/><g clip-path="url(#b)"><rect width="323" height="322" x="430" y="399" fill="url(#c)" rx="161"/><path fill="#fff" d="M654.265 547.035a17 17 0 0 1-.551-2.361q-.091-.555-.213-1.104a55 55 0 0 0-.58-2.371v-.002c3.487-5.28 20.16-32.816 1.188-50.491-21.057-19.616-45.66 6.095-45.66 6.095l.076.115c-11.058-3.361-23.048-3.755-34.713-.116h-.002c-.144-.15-24.664-25.652-45.659-6.094-21.001 19.565 1.677 51.218 1.795 51.383v.002a16 16 0 0 0-.565 2.275c-2.272 13.545-17.738 17.725-17.738 41.319 0 23.593 16.18 43 49.206 43h13.554c.06.087 5.639 7.995 17.096 7.986 10.636-.008 17.66-7.918 17.721-7.986h12.931c33.026 0 49.206-18.951 49.206-43 0-21.971-13.413-27.108-17.091-38.65z"/></g><defs><linearGradient id="a" x1="692.125" x2=".525" y1="0" y2="692.125" gradientUnits="userSpaceOnUse"><stop offset=".265" stop-color="#DFBF0E"/><stop offset=".82" stop-color="#D98E1F"/></linearGradient><linearGradient id="c" x1="591.5" x2="591.5" y1="399" y2="721" gradientUnits="userSpaceOnUse"><stop stop-color="#714800"/><stop offset="1" stop-color="#BA7600"/></linearGradient><clipPath id="b"><rect width="323" height="322" x="430" y="399" fill="#fff" rx="161"/></clipPath></defs></svg>
