<svg xmlns="http://www.w3.org/2000/svg" viewBox="0 0 128 128"><circle cx="64" cy="64" r="64" fill="#381D8F"/><circle cx="64" cy="64" r="46" fill="#FEFEFE"/><path fill="#371C8A" d="M103.55 54.183c1.134 1.702 1.132 5.308 1.273 7.3l.027.35c.129 1.92.106 3.854-.058 5.77l-.019.245c-.055.667-.137 1.33-.229 1.993l-.034.245a22 22 0 0 1-.215 1.277l-.055.292a34 34 0 0 1-.411 1.883l-.097.412q-.108.45-.245.893l-.06.211c-.468 1.642-.468 1.642-.716 2.243l-.094.27a34.7 34.7 0 0 1-2.632 5.765l-.2.354a31 31 0 0 1-.802 1.347l-.108.172a38 38 0 0 1-1.29 1.91l-.099.137q-.345.482-.71.95l-.106.139q-.325.42-.665.83l-.24.293q-.369.448-.76.876-.086.094-.17.192c-.333.381-.672.76-1.036 1.112q-.085.088-.165.182a9 9 0 0 1-.413.432l-.151.152q-.193.185-.394.359-.103.1-.202.202a6 6 0 0 1-.382.36q-.143.126-.28.257a8 8 0 0 1-.481.416 6 6 0 0 0-.27.24 8 8 0 0 1-.433.373q-.178.145-.354.292-.35.286-.705.563l-.13.102c-.505.396-1.022.773-1.548 1.14l-.149.106q-.539.38-1.094.733l-.127.084a32 32 0 0 1-1.86 1.128l-.125.07c-2.531 1.437-5.188 2.569-7.954 3.472l-.187.062c-.366.119-.736.222-1.109.321q-.255.068-.507.143a28 28 0 0 1-3.282.724 6 6 0 0 0-.382.086c-1.72.276-3.476.528-5.22.528V92.023c.15-.064.292-.118.447-.169a6.7 6.7 0 0 0 1.976-1.105l.216-.168.22-.173a163 163 0 0 1 1.211-.948q.248-.195.497-.388.358-.279.715-.56a174 174 0 0 1 1.211-.947q.249-.196.497-.388.359-.279.715-.56a168 168 0 0 1 1.212-.947q.247-.195.497-.388.359-.28.714-.56a174 174 0 0 1 1.212-.947q.247-.195.497-.389l.143-.111.254-.197c.569-.442 1.124-.916 1.56-1.493l.1-.13c1.37-1.801 1.892-4.084 1.62-6.317-.077-.52-.164-1.046-.353-1.538v-.093q.344.03.686.075c.709.086 1.408.12 2.122.119h.463c1.02-.018 2.093-.08 3.09-.325q.173-.04.348-.077a18.6 18.6 0 0 0 7.24-3.365l.1-.074q.313-.24.612-.496.13-.11.264-.216c.183-.15.354-.311.526-.473q.148-.139.299-.275.478-.434.903-.92l.198-.212q.214-.228.41-.472.085-.106.174-.21c.27-.325.524-.66.771-1.001l.105-.144q.337-.46.641-.944l.1-.158q.287-.456.546-.93.088-.158.181-.314c.129-.22.242-.449.353-.68l.106-.217c.277-.583.528-1.171.764-1.77l.067-.167c.66-1.662 1.07-3.448 1.304-5.218l.031-.235q.027-.217.045-.435c.013-.16.013-.16.045-.19m-79.348.87h.062l.027.182c.646 4.223 2.286 8.293 5.08 11.56q.108.126.212.257c1.693 2.066 3.929 3.678 6.3 4.87l.17.086c3.188 1.561 6.899 2.058 10.39 1.502q.28-.044.563-.065l-.043.135a9.7 9.7 0 0 0-.392 1.977l-.018.166c-.166 2.161.514 4.385 1.913 6.048q.182.207.373.404l.105.11c.206.21.417.401.652.58q.184.142.363.29.268.22.543.428.496.383.99.771.194.154.392.306l.818.641q.376.296.754.59.23.178.459.358.194.154.392.306l.818.641q.377.296.755.59l.458.359.392.306q.41.319.819.64.376.297.754.59l.458.359q.267.21.536.417.18.14.357.283c.748.586 1.55.983 2.45 1.283v12.148c-3.12 0-6.355-.617-9.35-1.46l-.166-.046c-3.022-.854-5.982-2.047-8.72-3.59l-.17-.093a42 42 0 0 1-1.415-.838l-.154-.094a34 34 0 0 1-2.455-1.646l-.28-.2q-.356-.259-.7-.53-.204-.159-.41-.315a12 12 0 0 1-.593-.485 11 11 0 0 0-.27-.225q-.432-.355-.847-.73l-.193-.171a18 18 0 0 1-.973-.896c-.11-.113-.11-.113-.218-.202-.207-.185-.401-.382-.598-.578l-.239-.239a9 9 0 0 1-.427-.462l-.14-.14a5 5 0 0 1-.293-.315q-.129-.144-.262-.285a9 9 0 0 1-.418-.483 6 6 0 0 0-.223-.253 9 9 0 0 1-.356-.415q-.143-.177-.288-.35-.27-.33-.528-.67l-.319-.411a25 25 0 0 1-.621-.841l-.212-.291q-.195-.27-.377-.543-.118-.18-.238-.358a40.3 40.3 0 0 1-4.393-8.812l-.124-.342a13 13 0 0 1-.31-.945q-.057-.195-.121-.389a18 18 0 0 1-.284-1.027l-.06-.225-.03-.112-.08-.298a25 25 0 0 1-.55-2.562q-.037-.225-.084-.45c-.182-.95-.287-1.914-.376-2.877l-.026-.273a35.7 35.7 0 0 1-.067-5.879l.025-.347c.158-2.005.439-4.007.923-5.96q.057-.232.108-.466"/><path fill="#371C8B" d="m63.986 72.318 5.902-.002c5.602.012 5.602.012 6.634.995a4.07 4.07 0 0 1 1.055 2.06l.026.108c.24 1.064-.035 2.155-.595 3.069a4 4 0 0 1-.488.582l-.102.11c-.17.166-.363.305-.55.45l-.28.217-.143.111-.571.448a168 168 0 0 1-1.212.948l-.64.5q-.178.137-.354.276l-.497.389q-.358.278-.715.559a173 173 0 0 1-1.211.947l-.497.389q-.359.278-.715.559a168 168 0 0 1-1.212.948q-.247.195-.497.388-.413.32-.822.644l-.327.257-.114.089c-.795.604-1.692.83-2.687.697a4 4 0 0 1-.368-.103l-.12-.04a3.3 3.3 0 0 1-1.06-.643l-.25-.19q-.268-.204-.53-.418a16 16 0 0 0-.619-.479q-.253-.194-.497-.398a12 12 0 0 0-.373-.286 17 17 0 0 1-.628-.495q-.204-.165-.413-.323-.497-.383-.99-.771-.195-.154-.392-.306l-.819-.641q-.376-.296-.754-.59l-.458-.358-.392-.306-.602-.471-.392-.306q-.411-.319-.819-.641-.307-.242-.616-.481a20 20 0 0 1-.616-.493l-.079-.066c-.442-.383-.753-.857-.977-1.395l-.047-.104c-.418-1.022-.294-2.253.12-3.251.104-.232.212-.447.362-.653l.06-.087c.26-.367.58-.703.965-.938l.088-.055c2.266-1.39 9.634-.449 11.828-.45"/><path fill="#381E90" d="M28.396 47.099c.15.049.257.134.38.23q.328.247.666.483.349.247.694.499l.28.202 1.677 1.211.14.1.284.206q.315.229.633.455.39.28.776.56l.28.202.559.404.14.1.284.206.632.455q.39.278.777.559l.28.202.423.306.633.455q.39.278.777.56l.28.201.423.306q.315.229.633.455.39.279.776.56l.28.202 1.056.76.777.56.28.202 1.056.761q.39.278.776.56l.28.201.424.306q.315.229.633.455.39.278.776.56l.28.202.423.306.633.455q.39.278.777.559l.28.202 1.056.761q.39.278.776.56l.28.201.56.404.139.1.284.206q.321.233.644.463.293.21.579.427a9 9 0 0 1-.994.87l-.146.112c-.683.519-1.4.97-2.153 1.38l-.118.066c-.722.397-1.495.697-2.275.959l-.159.053a13.9 13.9 0 0 1-6.458.506l-.193-.03q-.247-.043-.49-.094l-.179-.036a10 10 0 0 1-1.007-.26q-.147-.045-.294-.086c-2.638-.742-5.185-2.486-6.971-4.558l-.136-.15a11 11 0 0 1-.423-.503l-.1-.124c-.865-1.098-1.657-2.315-2.208-3.603a10 10 0 0 0-.164-.358 9 9 0 0 1-.272-.66 4 4 0 0 0-.11-.253c-.101-.241-.175-.491-.253-.742l-.097-.31-.09-.288-.067-.213c-.857-2.864-.927-5.999-.367-8.92l.043-.23a8 8 0 0 1 .205-.858m70.866-.031.222.993c.102.452.158.909.213 1.368l.035.273c.327 2.842-.03 5.657-.905 8.364l-.04.127-.04.12-.033.101a10 10 0 0 1-.198.49l-.074.182c-.722 1.737-1.663 3.351-2.877 4.79l-.095.113a14.6 14.6 0 0 1-1.614 1.658l-.107.095c-.286.251-.583.484-.887.712l-.122.094c-2.5 1.914-5.647 2.952-8.785 2.957l-.41.001c-3.128-.055-6.213-1.227-8.671-3.145l-.11-.084a14 14 0 0 1-.686-.57 14 14 0 0 0-.292-.247c.082-.164.184-.214.336-.314.178-.12.354-.239.523-.371.19-.15.389-.29.588-.43q.35-.247.697-.5l.28-.202.424-.306q.367-.267.737-.53l.672-.485.419-.302.284-.206.738-.53q.336-.24.671-.484l.42-.302.284-.206q.368-.267.738-.53l.671-.484.28-.202.14-.101.558-.404.285-.205q.367-.267.737-.53l.672-.484.419-.303.284-.206.738-.53q.337-.24.671-.484l.42-.302.284-.206q.367-.266.738-.53.336-.241.671-.484l.419-.303.284-.205q.369-.267.738-.53l.672-.484.419-.303.284-.206q.368-.266.738-.53.336-.24.671-.484l.42-.302.284-.206q.367-.266.738-.53.336-.24.67-.484l.42-.303.284-.205q.369-.267.738-.53.337-.241.671-.484l.28-.203.14-.1.283-.205.142-.102.138-.1q.259-.188.514-.38c.088-.06.088-.06.15-.06"/><path fill="#3A1F96" d="m68.816 27.03.08.062q.242.19.468.399.095.086.193.17c.289.252.543.528.78.828l.068.08c3.113 3.691 2.115 9.676 2.108 14.025h-.062c-.041-.056-.041-.056-.09-.138-.617-.995-1.417-2.014-2.34-2.744q-.138-.112-.272-.23a9 9 0 0 0-1.284-.883.88.88 0 0 1-.364-.416q-.015-.744-.017-1.488c.062-2.884.062-2.884-1.164-5.378l-.065-.079a3.86 3.86 0 0 0-2.575-1.288c-1.098-.078-2.042.363-2.867 1.047-.865.758-1.242 1.788-1.39 2.898-.025 2.06.006 4.119.047 6.178q.024 1.347.033 2.696c.039 1.354.285 2.604 1.256 3.584l.07.075a3.63 3.63 0 0 0 2.458 1.114c.4.008.772-.03 1.163-.105.357-.06.357-.06.482.017.663 1.008.509 3.071.456 4.212-.093.218-.093.218-.217.31-1.53.54-3.442.156-4.866-.52a9 9 0 0 1-2.031-1.374l-.079-.068a7.6 7.6 0 0 1-1.009-1.05l-.081-.102c-1.032-1.284-1.632-2.82-1.907-4.435l-.021-.123c-.364-2.41-.706-7.533-.134-9.819l.025-.45c.062-1.007.236-1.982.565-2.936l.04-.121a7.9 7.9 0 0 1 1.7-2.8l.109-.126c.231-.265.486-.493.76-.712l.08-.067c2.933-2.467 6.877-2.597 9.894-.244"/><path fill="#391E92" d="m66.734 40.109.138.058a7.6 7.6 0 0 1 1.602.936l.11.083q.32.246.614.523.107.099.218.194c.199.175.377.366.549.567l.077.087c.943 1.087 1.578 2.402 1.911 3.796l.036.14c.896 3.599 1.02 12.039-1.03 15.674-.623.998-1.383 1.904-2.33 2.61l-.12.09c-.981.716-2.079 1.166-3.266 1.401l-.173.034c-2.013.332-4.043-.28-5.678-1.449a14 14 0 0 1-.512-.399 9 9 0 0 0-.255-.2 3.5 3.5 0 0 1-.497-.494q-.113-.127-.229-.251l-.175-.193-.07-.078c-.234-.269-.404-.578-.582-.885l-.08-.132a11 11 0 0 1-.852-1.7l-.048-.119c-1.288-3.375-.609-7.76-.605-11.221.117.116.202.23.295.365.358.51.738.992 1.158 1.453l.146.162a8.6 8.6 0 0 0 1.104 1.033l.127.102q.508.402 1.063.737c.235.143.383.265.488.528.056 1.057.041 2.118.047 3.176.032 1.519.299 2.787 1.351 3.908l.097.106c.748.731 1.74 1.03 2.763 1.023 1.039-.06 2.03-.609 2.745-1.349 1.2-1.358 1.051-3.045 1.05-4.778l-.001-1.187a203 203 0 0 0-.068-4.569l-.015-.586c-.01-.938-.01-.938-.14-1.864l-.027-.126c-.255-1.103-.955-2.037-1.91-2.635-.886-.515-1.845-.61-2.845-.404-.38.065-.38.065-.527-.033-.527-.76-.478-2.125-.475-2.971v-.441c.01-.77.01-.77.192-1.002 1.058-.793 3.466-.232 4.629.28"/></svg>
