<svg xmlns="http://www.w3.org/2000/svg" viewBox="0 0 128 122"><path fill="url(#a)" d="M58.593 117.025a58.63 58.63 0 0 0 41.431-17.138 58.47 58.47 0 0 0 17.161-41.374 58.47 58.47 0 0 0-17.161-41.375A58.63 58.63 0 0 0 58.593 0 58.63 58.63 0 0 0 17.16 17.138 58.47 58.47 0 0 0 0 58.513a58.47 58.47 0 0 0 17.161 41.374 58.63 58.63 0 0 0 41.432 17.138"/><path fill="#fff" d="m34.278 61.73 24.316 14.378 24.274-14.377-24.274 34.23z"/><path fill="#F5EBE4" d="m34.278 61.73 24.316 14.378v19.853z"/><path fill="#fff" d="M58.594 70.759 34.278 56.38l24.316-38.24L82.91 56.38z"/><path fill="#F5EBE4" d="M58.594 70.759 34.278 56.38l24.316-38.24z"/><path fill="url(#b)" d="M100.233 67.515h-.17c-15.054 0-27.259 12.197-27.259 27.242S85.01 122 100.063 122h.17c15.055 0 27.259-12.197 27.259-27.243s-12.204-27.242-27.259-27.242"/><path fill="#fff" d="M110.775 92.564a3 3 0 0 1-.093-.4 6 6 0 0 0-.135-.588c.591-.894 3.414-5.553.202-8.544-3.566-3.32-7.731 1.031-7.731 1.031l.013.02c-1.873-.569-3.903-.635-5.878-.02-.024-.025-4.176-4.34-7.73-1.03-3.556 3.31.283 8.666.303 8.694a3 3 0 0 0-.095.385c-.385 2.292-3.004 3-3.004 6.991 0 3.993 2.74 7.276 8.332 7.276h2.294c.01.015.955 1.353 2.895 1.352 1.801-.002 2.99-1.34 3-1.352h2.19c5.591 0 8.331-3.206 8.331-7.276 0-3.717-2.271-4.587-2.894-6.54"/><defs><linearGradient id="a" x1="117.185" x2=".16" y1="0" y2="117.185" gradientUnits="userSpaceOnUse"><stop offset=".265" stop-color="#DFBF0E"/><stop offset=".82" stop-color="#D98E1F"/></linearGradient><linearGradient id="b" x1="100.148" x2="100.148" y1="67.515" y2="122" gradientUnits="userSpaceOnUse"><stop stop-color="#714800"/><stop offset="1" stop-color="#BA7600"/></linearGradient></defs></svg>
