<svg xmlns="http://www.w3.org/2000/svg" viewBox="0 0 128 128"><circle cx="64" cy="64" r="64" fill="#FBBF24"/><path fill="#78350F" d="M90.248 75.656q4.984 6.664 2.088 14.492-2.892 7.824-11.496 10.264a16 16 0 0 1-8.388.092q-4.28-1.08-7.012-4.072-9.92 4.432-18.64-.432T36.32 80.188a15.1 15.1 0 0 1-7.38-4.168q-3.036-3.112-4.38-7.848-2.16-7.6 3.432-14.24t12.976-5.768l8.644 1.048a20.4 20.4 0 0 1 4.82-8.168 20 20 0 0 1 8.088-5.192l-1.84-6.48a3.76 3.76 0 0 1 1.3-4.137c.41-.313.88-.539 1.38-.663a3.76 3.76 0 0 1 4.8 2.676l2.12 7.48q5.008.06 8.824 2.14 3.82 2.08 7.428 6.716l7.228-2.052a3.76 3.76 0 0 1 2.98.3 3.76 3.76 0 0 1 1.82 2.376 3.76 3.76 0 0 1-.3 2.98 3.76 3.76 0 0 1-2.376 1.82l-6.48 1.84a20.8 20.8 0 0 1-.048 9.576 19.2 19.2 0 0 1-4.292 8.356zm-30.06 11.76a40 40 0 0 1-1.296-6.7 36 36 0 0 1-.068-6.648 24 24 0 0 1-5.624 3.684 27.7 27.7 0 0 1-6.452 2.168q1.38 4.86 4.98 6.872 3.6 2.01 8.46.624M45.16 69.6q3.988-1.127 6.76-2.996 2.768-1.86 6.78-6.232l-16.72-1.988q-4.044-.468-6.156 1.812-2.108 2.28-1.16 5.648.924 3.24 3.464 4.136 2.544.892 7.032-.38m32.848 20.844q3.12-.88 4.428-3.612 1.316-2.728-.356-4.816l-11.54-15.04a41.6 41.6 0 0 0-1.412 9.02q-.18 4.36.74 7.6 1.168 4.116 3.22 5.888t4.92.96m.376-30q.888-1.6 1.056-3.872a12.8 12.8 0 0 0-.472-4.512q-1.132-3.983-4.528-5.984a8.96 8.96 0 0 0-7.26-.904q-2.248.636-4.024 1.948a9.6 9.6 0 0 0-2.764 3.076l10.996 1.728z"/></svg>
