<svg xmlns="http://www.w3.org/2000/svg" xml:space="preserve" id="Layer_1" x="0" y="0" version="1.1" viewBox="0 0 564 573.9"><style>.st0{fill:#2c2621}.st1{fill:#107de8}.st2{fill:#f68e1f}.st3{fill:#f7f7f6}.st4{fill:#fbe707}.st5{fill:#e91f25}.st6{fill:#93c63e}.st7{fill:#d0cece}</style><g id="Layer_2_00000002381239116939360010000009501782284655868605_"><g id="Layer_1-2"><path d="M432.3 190.3c10.2 3.8 20.2 7.3 29.9 11.4 13.4 5.7 25.7 13.9 35.9 24.3 11.7 11.8 19.9 25.7 23.6 42 1.7 7.4 2.6 15 3.9 22.5 0 .4-.1.9-.3 1.3l-12.6-2.8c-16.5-3.6-33.1-5.6-50-4.9-4.3.3-8.6 1-12.8 2.1-2.5.6-4.7 2.3-7.2 3.6 1 1.5 1.7 2.7 2.4 3.8 2.5 3.7 3.1 7.9 2.9 12.2-.1 2.7 1.2 4.3 3.2 5.8 8.6 6.1 16 13.8 21.7 22.7 5.1 8.1 8.6 17.1 10.4 26.5 1.5 7.7 1.2 15.3.8 23 4.5 1.1 8.7 2.2 13 3.4 10.3 2.8 19.5 7.9 28.1 14.2 13.2 9.6 23.6 21.8 30.3 36.7 2.8 6.2 4.5 13 6.8 19.5 2 5.7 2.1 11.6 1.9 17.5-.2 7-.2 14-.7 21-.2 2.6-1.3 5.2-2.1 7.8-3.1 10.6-7.3 20.6-13.7 29.7-8.2 11.7-18.9 21.6-31.2 28.8-10 5.9-21 9.7-32.4 11.2-4.8.6-9.8.3-14.6.4-8.7.1-17.4.3-26-2.2-2-.6-4.4-.1-6.6-.1-17.4 0-34.9.2-52.3-.1-13-.2-26.1-.5-39.1-1.6-10.6-.9-20.9 1-31.4 1.4-15.1.6-30.2.8-45.2.9-11.1 0-22.3-.3-33.4-.8-10.6-.5-21.1-1.6-31.7-2.2-6-.3-12.1-.3-18.2-.2-7.8.1-15.2-1.5-22.6-3.6s-14.6-4.6-20.9-9.2c-3.2-2.3-5.7-5.4-7.4-9-2.5-5.6-1.1-10.5 2.7-15 3.6-4.2 8.4-6.5 13.4-8.4q7.35-2.7 14.7-5.1c3.1-1 3.1-1 2.9-4.2-.9-9.5-.4-19.1 1.5-28.5 1.5-6.6 3.8-13 5.8-19.5.1-.4.2-.8.4-1.2-4.1-1.1-8.1-1.9-12-3.1-7.7-2.5-15.1-5.8-21.2-11.2-4.9-4.2-9.1-9.3-12.2-15-5.6-10.6-.6-20.5 9-24.7 6.9-3 13.8-3.4 20.5.4.8.4 1.7.6 2.6.5q-.45-1.35-1.2-2.4c-1.6-2-3.5-3.8-4.9-5.9-10.8-16-9.9-36.4 6.6-50.3 8.4-7.1 18.2-11.5 28.5-15.1 1.3-.4 2.6-1.1 3.7-2-1.1-.4-2.2-.9-3.3-1.2-13.2-4.8-25.2-11.7-35.2-21.8-2.8-2.9-5.5-5.9-7.9-9.1-1-1.2-2.4-2-4-2.2-6.2-1.5-12.2-3.6-17.4-7.4-3.2-2.3-5.7-5.4-7.2-9.1-2.3-6 .1-12.7 6.2-16.4 1.5-.9 3.2-1.7 5-2.6-.3-1-.5-2.1-.8-3-4.7-12.9-7.1-26.2-5.8-40 .5-6.1 2.1-12.2 4.6-17.8.8-1.5.8-3.3.1-4.8-3.9-9-6.1-18.6-6.5-28.4-.3-9 1.2-17.8 6.3-25.6 1.1-1.8 3-3 5.1-3.4 22-4.7 43.5-2.9 64.6 4.3 1.7.6 3.5.5 5.1-.3a417 417 0 0 1 91-30.1c16.5-3.4 33.2-6 50.1-6.6 10.7-.4 21.5-.9 32.2-.3 32.7 1.7 64 9.2 93.1 24.4 16.1 8.5 31.1 19 44.6 31.2 3.9 3.5 7.9 6.8 11.9 10.1.8.7 1.5 1.4 2.7 2.4-3.3 0-6 .1-8.8 0-6.6-.3-13.1-1-19.7-1.2-22.3-.6-44.1 2-64.8 10.7-1.8.5-3.1 1.2-4.4 1.9M315.5 426.5c.3-.3.5-.6.8-.9 5.6-4.1 10.2-9.5 13.3-15.7.7-1.4 1.7-1.4 2.9-1.3 5.6.4 11.2.7 16.9 1.2 10.2 1 20.3 3.4 29.9 7.2 3.9 1.6 7.7 3.3 11.6 5 2.5-2.9 4.8-5.8 7.4-8.5 5.2-5.5 5.4-5.5 3.7-13-2.4-10.4-7.5-19.1-16-25.6-.8-.6-1.8-.9-2.9-.9-3.6.2-7.1.7-10.7 1-2.5 4.3-3.5 5.3-6.9 5.8-1.9.4-3.8.4-5.7-.1-4.3-1.6-6.8-.1-9.4 3.4-3.8 5-8.7 9.1-14.3 12-6.3 3.3-11.9 1.7-14.8-4.7-1.8-3.9-2.6-8.3-3.4-12.5q-.3-3.15-2.4-5.7c-4-4.6-7.4-9.6-8.9-15.6-1.1-4.4-.9-8.8 3-12 4.2-3.4 8.9-4.6 13.8-1.7 2.5 1.4 4.7 3.2 6.8 5.1 1.3 1.3 2.4 1.9 4.2 1.1 1.1-.3 2.1-.5 3.2-.7-1.7-3.5-2.5-7-1-10.4 1.2-2.8 2.8-5.4 4.7-7.8 2.3-2.7 5.1-5 7.8-7.6-.7-1-1.4-2.1-2-3.2-4.4-9-4.6-14.2.6-21.4 4.2-5.7 10.2-9.8 17-11.7 3.4-1.2 7.2-.8 10.4.9 2.8 1.6 5.4 3.3 7.8 5.4 1.1.9 1.8 2.4 2.8 3.7 2.5-1.5 4.6-2.4 6-3.8 1.8-1.8 3-4.1 4.7-6 7.7-9.1 15-18.4 24-26.3 8.4-7.5 18.1-13.4 28.6-17.4 4.7-1.7 9.5-2.9 14.5-3.7 2.4-.3 4.9-.1 7.2.7 7.1 2.2 8.8 8.8 4 15.2-3.5 4.7-8 8.5-13.2 11.3-2.8 1.5-5.5 3.2-8.2 4.8-.6.5-1.2 1-1.7 1.6 10.3-1.2 20.7-1.3 31-.4 10.1.8 20.1 2.6 30.6 4-1.1-4.4-2-8.4-3.2-12.4-5.3-17.4-16.1-30.9-30.6-41.5-12.6-9.2-26.8-15.5-41.7-20-10.6-3.1-21.5-5.4-32.4-6.9 3.9-3.7 8-7.2 12.4-10.4 10.2-7.3 21.9-11.6 34-14.6 14.1-3.4 28.5-5.1 42.9-5.1h3.2c-.1-.4-.2-.8-.4-1.2-.4-.5-.8-1-1.3-1.4-14-11-29.5-20-45.9-26.8-21-8.7-43.3-13.9-66-15.2-12.8-.7-25.7-1-38.6-.4-15.4.6-30.6 3-45.7 6-33.1 6.6-65.2 17.3-95.6 31.9-1.3.7-2.8.8-4.2.2-10.2-4.2-21-6.7-31.9-7.5-8.8-.7-17.6-.4-26.4 1-3.5.6-5.1 2-6.1 5.2-2.2 7.4-2.2 14.9-.9 22.4 1.5 8 4 15.8 7.6 23.2-9.5 14.9-7.8 39.7-3.7 45.9.1-1 .2-1.7.2-2.4l.6-11.1c.5-7 2-13.9 4.6-20.4 1.3-3.6 3-7 6-9.7 3.2-2.9 6.6-2.9 9.4.5 1.8 2.2 3.2 4.7 4.2 7.4 3.1 8.6 5.8 17.4 9 26 1.5 4 3.5 7.9 5.8 11.6 1.9 3.2 4.5 3.3 7.1.8 2-1.9 3.9-3.9 5.6-6.1 7.3-9.4 14.4-18.9 21.9-28.1 7.7-9.5 16.3-18.3 26.6-25 15.4-10 31.2-11.9 47.6-2 11.8 7.1 18.2 17.6 18.6 31.3.2 6.9-1.4 13.6-3.7 20.2-3.7 10.3-8.7 20.1-14.9 29.1l-1.8 3c.7.2 1.4.1 2-.2 7.3-4.2 15.2-6.9 23.5-8.1 7.8-1 15.6-.8 22.6 3.1 5.2 2.9 8.3 7.2 8.2 13.4-.2 11.8-5 21.7-13.3 29.7-6.6 6.4-14.7 10.6-23.4 13.6-16.3 5.7-33.3 7.5-50.4 8.2-1.8.1-3.5.4-5.3.6 1.5 1 3.3 1.7 5.1 2 7.7 1.5 15.1 4.3 21.9 8.2 9.8 5.7 16.7 13.7 19.5 24.8 1.9 7.3 1.6 14.7.5 22.1-3.3 24.1-22 38.3-43.7 40.7-4.9.5-9.9.6-15.1.9 1.4 3.7 3.1 7.4 4.3 11.2s2.1 7.9 1.3 12.2c-1.2.1-2.3.1-3.5 0-2.1-.5-4.1.7-4.9 2.6-1.5 3.3-2.8 6.7-4.2 10.3.6.2 1.2.4 1.8.5 1.4 0 2.8-.1 4.1-.3 12.3-1 15.2-.8 22.5 11 2.5 4 4.4 8.4 6.9 13.2l14.2-3.4c-1.8-3.4-3.4-6.1-4.7-9.1s-2.1-6.1-3.2-9.4c14.6-8 24.5-19 25.4-36.4 4.6 5.4 8.8 10.8 13.4 15.8 8.7 9.4 18.3 17.8 29.9 23.5 2.8 1.4 5.7 2.3 8.6 3.4l.6-.8c-14.3-15.4-27.1-31.8-34.6-51.6m153.1 144.6c4.3 0 8.9.4 13.4-.1 10.9-1.2 20.9-5.2 30.5-10.2 12.7-6.7 23.7-16.3 31.8-28.1 4.6-6.7 8.4-13.9 11.3-21.5 5.4-13.5 6.7-27.5 5.7-41.8-.6-8.3-3-16.3-6-24.2-4.4-11.8-11.3-22.6-20.2-31.5-11.9-12.1-25.9-21-42.7-24.8-7.1-1.8-14.3-3-21.6-3.9-4.5-.4-9.2.4-13.8 1.3-6 1.1-11.8 2.9-17.7 4.2-10.3 2.3-18.8 8-27.2 13.9-6 4.4-11.4 9.7-15.9 15.6-6.1 7.7-11.4 15.8-14.6 25.1-4.5 12.7-7.1 25.6-6 39.3.6 8.1 2.1 16.1 4.6 23.8 2.5 8.1 6.2 15.7 10.9 22.8 6 8.7 13.3 16.5 21.8 22.9 8.2 6.4 17.6 10.4 27.3 13.8 9 3.1 18.7 4.3 28.4 3.4M142.5 272.2c-.4-.9-.8-1.7-1.1-2.4-6.2-14-10.1-28.4-9-43.9.4-6.9 2.2-13.7 5.4-19.8.9-1.5 1-3.4.2-5-4-9.2-6.8-18.8-7.1-28.9-.2-6.4.6-12.7 3.4-18.6.6-1.6 2.1-2.7 3.8-2.9 6.2-.7 12.4-1.8 18.7-2 14.6-.3 29.1 2.2 42.8 7.5 1.3.7 2.9.7 4.2.1 35.8-17.1 73.9-28.8 113.1-34.8 28.8-4.3 57.6-5 86.5-.4 38.3 6.1 72.4 21.2 101.7 46.7.6.5 1 1.1 2 2.1-1.9-.1-3.2-.2-4.5-.2-18.8-.9-37.7 1.3-55.9 6.4-11.8 3.4-22.7 8.4-32.3 16.1-.9.7-1.7 1.6-2.8 2.5 5.6 1.1 10.6 1.9 15.6 3.1 18.7 4.4 36.4 11.1 52.1 22.3 19 13.5 31.6 31.2 36 54.4.4 2.2.7 4.5 1.1 6.9-4.2-.8-7.8-1.5-11.5-2.1-15.4-2.6-30.7-4.1-46.4-2.9-11.9.9-21.2 6.2-28.5 15.6 3.6 1.5 7.3 3.1 9.2 6.8 2 3.9 1.1 7.8-.2 11.5 1.3 1.5 2.5 2.9 3.8 4.1s2.7 2.4 4.1 3.4c19.7 14.7 30.6 33.9 29.7 58.9-.1 1.9-.3 3.8-.4 5.8.7.2 1.3.3 2 .4h3.6c.1-.9.4-1.8.4-2.6 1.4-17.6-2.6-33.8-12.9-48.2-5.4-7.7-12.2-14.3-19.9-19.6-2.5-1.7-3.8-3.6-3.3-6.9.8-5.2-.9-9.9-4.7-13.6l-1.5-1.5c3-3.7 7.3-6.2 12-7 3.5-.6 7.1-1.1 10.7-1.4 12.5-.8 24.9.3 37.2 2.4 7.7 1.3 15.4 2.9 23.4 4.5-.4-2.8-.8-5.6-1.1-8.5-2.9-25.4-14.8-45.8-34.8-61.5-16.8-13.2-36-21-56.5-26.1-1.5-.4-3-.8-4.4-1.1l-.1-.8c4.1-1.9 8.1-4.1 12.3-5.7 16.6-6.6 34-9.4 51.8-9.6 10.5-.1 21 .8 31.6 1.2.6 0 1.3 0 2.4-.1-4.6-4-8.9-7.5-13-11.2-35.6-31.7-77.6-48.2-124.8-52.2-24.8-2-49.8-1-74.4 3.2-37.2 6.1-73.5 17.3-107.7 33.3-1.7.9-3.6.9-5.4.2-20.8-7.2-42-9.1-63.7-4.5-2.1.4-3.9 1.7-4.9 3.6-4.5 7.6-5.6 16-5.2 24.6.6 9.5 2.8 18.8 6.5 27.5.7 1.5.7 3.3-.1 4.7-2.6 5.8-4.2 12.1-4.7 18.4-1.2 13.2 1.1 25.8 5.5 38.2.6 1.8 1.2 3.5 1.9 5.3-2.1.9-4 1.5-5.8 2.5-8.1 4.5-9.5 13.4-2.9 20 1.7 1.8 3.7 3.2 5.9 4.4 3.7 1.9 7.5 3.5 11.5 4.7 4 .9 7.5 3.2 9.9 6.5 10.9 13.7 25.4 22.4 41.8 28.1 2.9 1 5.8 1.9 8.8 2.9-.3.3-.4.5-.6.5-.6.2-1.2.3-1.9.5-11.4 3.1-22.5 7.2-32.3 14-6.5 4.5-11.7 10.1-14.9 17.5-4.7 10.9-2.3 29.5 9.1 38.9.8.6 1.9 1.5 1.9 2.3 0 2.2-.2 4.4-.5 6.6-.5-.4-.9-.6-1.2-.9-9-8.3-20.9-5.3-27-.5-4.9 3.8-6.8 8.8-5.5 15 1.1 5 3.8 8.9 7.1 12.6 8.4 9.7 19.3 15.1 31.5 18.3 3.2.9 6.6 1.3 10.1 2-8.7 17.7-10.6 36.3-8.7 55.5-.8.3-1.3.5-1.9.7-6.1 2.1-12.3 4-18.3 6.4-3.7 1.5-7.2 3.6-10.3 6.1-6.1 5.2-6.4 12.8-.9 18.5 2.5 2.6 5.4 4.8 8.6 6.4 11.7 6 24.6 9.3 37.7 9.7 6.1.1 12.1-.2 18.2.1 17.5.9 35 2.2 52.6 2.8 21 .7 41.9.7 62.8-1.2 8.7-.8 17.3-1.6 26.1-1 27.5 1.8 55 2.7 82.6 2.2 2.6 0 5.1-.2 7.7-.3q-3.15-1.8-6.6-3.3a22.1 22.1 0 0 0-10.1-2.1c-23.9-.6-47.9-1.4-71.8-2.1-5.1-.2-10.2-.8-15.3-.5-7.9.4-15.7 1.6-23.5 2.1-21.2 1.3-42.3.9-63.5.2-18.9-.6-37.8-3-56.7-2.6-12.2.2-23.8-2.9-34.9-7.8-3.6-1.7-6.8-3.9-9.7-6.5-3.4-3.1-3.1-7.1.3-10 2.4-2.1 5.1-3.8 8.1-4.9 7.7-2.8 15.5-5.2 23.2-7.7.7-.2 1.3-.5 1.9-.7-3.1-23.6-1.1-46 12.5-65.7-5.4-.4-10.9-.3-16.1-1.4-11.6-2.2-22.1-7.1-30.2-16-2.5-2.8-4.7-6-6.3-9.5-2-4.2-.8-7.9 2.5-10.6 6.4-5.4 15.9-4.7 21.4 1.7.2.2.3.4.5.6 1 1.3 1.9 2.7 2.7 3.9l9.9-5.1c-4.8-4.2-4.5-9-1.6-14-.6-.4-.9-.6-1.3-.8-14.1-7-18.4-29.7-8.1-41.9 3.5-4.1 7.7-7.7 12.3-10.5 9.7-5.9 20.4-9.5 31.4-12.1 3.9-.9 8-1.5 11.8-2.6 4.4-1.3 8.7-3 13.3-4.6-1.2-.1-2.3-.3-3.3-.4-12.9-.8-25.5-3.6-37.5-8.4-15.3-6.3-28.3-15.5-37.7-29.3-.6-1-2.2-1.4-3.4-1.9-5.1-1.8-10.3-3.4-15.3-5.4-2-1-3.8-2.3-5.3-4-3.4-3.5-2.8-7.5 1.5-10.1 1.4-.8 2.8-1.4 4.4-1.8 2.3-.8 4.7-1.1 7.4-1.7m26.3-35.4c-2.2-6.6-4.2-12.9-6.5-19.2-1.1-3-2.5-5.8-4.2-8.5-2-3.1-4.5-3.4-6.7-.5s-4 6.2-5.4 9.6c-4.1 11.3-5.6 23.5-4.3 35.5.5 5.6 2.3 11.2 3.6 16.8.3 1.2.8 2.1 2.3 2.2 2.3.1 4.7.3 7 .6 8.6 1.2 16.9 3.2 24.1 8.3.8.7 1.9.9 2.8.5 5.4-2.2 10.8-1.6 16.1.5q3 1.2 6 2.1c7.9 2 16.1 3 24.2 3.1 8.9.4 17.9 0 26.7-1.1 7.3-.9 14.4-2.8 21.2-5.5 1.4-.6 2.5-1.4 3.5-2.6 5.8-7.3 10.8-15.2 15-23.6 4.6-9.3 8.3-18.8 8.9-29.3.5-8.6-1.3-16.5-6.9-23.2-10.7-12.8-30.7-21.6-52-9.1-10 5.9-18.4 13.7-25.8 22.6-7.8 9.4-15.1 19.3-22.7 28.8-2.8 3.7-6 7.2-9.5 10.3-2 1.7-2.7 3.1-2.6 5.5.3 4-.7 7.9-2.8 11.3-2.6 4-6.9 5-10.7 2.2-2.1-1.6-3.9-3.6-5.2-5.9-3.1-5.5-4.5-11.8-3.9-18.1.6-5.5 1.9-10.6 7.8-13.3m125.8 147.4c.2-18.4-7-30.2-21.3-37.8-9-4.8-18.7-7.2-28.8-8.3-16.1-1.7-29.6 3.9-40.1 15.8-11.3 12.9-13.4 28.6-10.9 44.9 2 13.4 10.6 21.9 22.9 26.7 13 5.1 27.3 6.5 41 3.8 10.9-2.1 20.4-7.1 27.5-16.1 6.5-8.2 9.9-18.5 9.7-29m-89.3-56.1c5.5 1 10.9 2.1 16.4 2.9 3.2.5 6.3.7 9.5.8 14.9.6 29.8 0 44.5-1.7 12.4-1.5 24.5-4 35.9-9.2 14.2-6.5 24.3-16.6 27.3-32.5 1.7-9-.2-15.1-10.4-18.5-2.6-.8-5.4-1.3-8.1-1.4-12.6-.6-24.1 3.1-34.6 9.9-6.2 4-12.9 6.9-20.1 8.6-12.5 3.1-25.2 3.7-38 3.2-11.1-.4-22-1.5-32.4-5.9-4.2-1.8-8.7-1.6-13.3-.1.3 1.7.5 3.2.8 4.8 6.1 0 10.7 2.4 13.3 7.5 4.9 9.9 9.3 19.8 9.2 31.6m46.2 190.1-.3.7c7 3.5 12.9 8.1 17.1 14.8s5.9 14.2 5.9 22.4c3.2-.2 6.2-.4 9.1-.5 14.3-.5 28.7-1 43-1.6 6.1-.3 12-1.4 17.2-5 2.8-1.8 4.7-4.7 5.4-8 1-4.2 0-8-1.7-11.8-4.5-10.2-12.7-16.9-21.9-22.5-.8-.3-1.8-.4-2.6 0-4.1 1.4-8.1 3.1-12.3 4.4-16.2 4.9-32.8 8.1-49.8 7.8-3-.1-6-.5-9.1-.7m-71.1 7.7-3.2.8c-9.6 2-18.9 5.2-27.7 9.4-7.1 3.5-7.3 7.7-.6 11.7 10.3 6.1 21.6 9.8 33.5 10 18.7.3 37.4-.3 56.1-.5 4.4-.1 8.8-.4 13.6-.7-4.2-18.4-15.6-29.5-33-35.9l24.8-4.7c-20.8-4.2-49.4-1.5-64 6.4.1 1.1.3 2.2.5 3.5m70.4 33.8-.1 1c1.2.2 2.4.3 3.6.4 14.5 0 28.9.1 43.4 0 6.4-.1 12.7-.7 19.1-1 7.7-.4 15.4-2.2 23.2-1.4 5.4.5 10.8.9 16.2 1.1 19.5.5 39.1 1 58.7 1.4h3.4c-1-.8-1.3-1-1.6-1.3-6.2-4.4-12.3-8.9-17.5-14.5-9.2-9.8-16.6-20.7-21-33.5-.3-1.4-1.6-2.3-3-2.1-9.3.1-18.5.5-27.6 2.2-2.5.5-4.9 1.1-7.8 1.8.9 1.1 1.4 1.7 1.9 2.3 4 4.6 7.5 9.4 9.2 15.4 2.9 10.2-.6 17.8-10.3 22-4.5 1.9-9.3 2.9-14.2 3l-24.9.9-47.1 1.8c-1.1.1-2.4.3-3.6.5m99.8-233.6c-4 3-7.6 6-10.1 10-1.9 3.1-3 6.5-1.6 10 1.9 4.8 4.6 9.6 9.5 11.6 4.2 1.8 7.2 4.5 10.3 7.5.7.7 1.4 1.3 2.2 1.9 4.2 3.4 8.7 5.7 14.3 5 4.7-.6 9.5-1.1 14.2-1.9 10.5-1.7 20.7-4.8 30.3-9.5 4.8-2.4 9.2-5.4 12-10.2 1.8-3 2.7-6.1 1.1-9.6-3.1 1.6-6 3.1-8.9 4.6-9.5 4.9-20.2 7-30.8 6.1-3.7-.3-7.3-1-10.8-2.2-6.7-2.5-8.2-9.1-3.6-14.7.6-.8 1.4-1.6 2-2.3-.6-1.6-2.2-2.6-3.9-2.4-1.9-.1-3.8-.3-5.6-.6-.7-.1-1.5-.1-2.2.1-6.9 2-12.9 1.1-18.4-3.4m8.3 156c-2.4 0-4 .1-5.5 0-6.7-.8-12.7-3.5-18.4-6.9-13-7.7-23.5-18.2-33-29.8-.6-.7-1.2-1.3-2-2.3-2.1 9.8-7.1 17.3-14.5 24 5.3 0 9.9-.4 14.4.1 4.2.6 8.3 1.7 12.2 3.3 3.8 1.5 5.5 4.8 6 9 .6 6.8 3.7 13.2 8.8 17.8 1.4 1 1.9 2.9 1.2 4.5-.3.6-.6 1.2-1 1.8 3.2 2.3 6.1 4.6 9.2 6.6.9.4 1.9.6 2.9.3 7.1-1.1 14.2-2.5 21.4-3.4 5.1-.6 10.4-.6 15.8-.9-.5-1.8-1-3.6-1.5-5.5-.7 0-1.2-.1-1.7-.1-11 0-21.9 1.2-32.6 3.5-2.5.6-6.2-1.8-6.3-4.1 0-3.1-1.6-6.1-4.2-7.8-.6-.4-1.1-1-1.5-1.6-3-4.9-5.3-10.1-5-16 23.3 16.1 31.4 13.3 49.5 12.6-18.9-17.3-36.3-35.2-46.9-58.2 3-3.8 5.8-7.4 8.7-10.9q1.2-1.05 2.7-.9c15.9.8 31.3 3.5 45.6 10.7.9.5 1.9.8 2.8 1.2l3-4.6c-.3-.2-.5-.4-.8-.6-17.1-9-35.5-12.1-54.5-12.6-.9.1-1.7.5-2.2 1.2-3.4 5.6-7.7 10.5-12.8 14.6 2.1 4.2 4.1 8.5 6.3 12.5 8.8 16 20.3 29.6 33.9 42.5m25.8-50.9c-2.3-1.1-4.5-2.2-6.7-3.1-12.5-5.4-25.8-7.6-39.3-8.5-1.2.1-2.4.6-3.2 1.5-2.4 2.7-4.5 5.6-7 8.7 10.2 21.5 26.3 38.4 44.2 54.7-1.3-19.1 2.9-36.5 12-53.3m-222 .6c-1.1-2.3-2.3-4.6-3.6-6.7-3.5-5.1-8.4-6.6-14.2-4.5s-7.7 6.1-4.2 11.4c2.5 4 5.7 7.6 9.5 10.6 11.6 8.6 24.6 13.1 39.3 11.3 2.5-.3 4.4-.9 5.9-3s3.3-3.9 4.9-5.8c3.2-4 7.1-6.3 12.4-5.9.9.1 1.7 0 2.6 0 4.9 0 5.7-.7 6.5-5.4.5-2.7.1-3.1-2.5-4.2-4-1.7-8.2-3.2-11.7-5.6-3-2.2-6.7-3.2-10.4-2.8-1.4.1-2.8 0-4.1.1-11.2.8-21.9 2.5-30.4 10.5M414.6 366c.4.6.5.7.6.7 1.8.3 3.5.6 5.3.9 13.3 1.9 26.4 4.9 37.9 12.1 4.6 2.9 9.3 2.8 14.5 2.5 1.9-13.9-.9-28.1-8-40.2-5.1-8.8-12.1-15.9-20.5-22.1-.9 6.8-1.6 8-5.4 13-1.5 2-2.3 4.5-3.3 6.9-.1.4 0 .9.1 1.2 1.5 5.9-.9 10.6-4.7 14.8-3.6 3.9-8.1 6.5-12.9 8.6zm-89.1 135.2c-6.3-6.1-9.7-13-10.6-20.7-.5-4-2.2-6.3-5.6-7.6-1.9-.8-3.8-1.4-5.8-1.8-7.4-1.4-14.8-1-22.2 0-1.8.2-3.4 1.6-5.2 2.4l.3.7c.9-.1 1.9-.2 2.8-.3 5.2-.3 10.4-.9 15.6-.8 3.1.2 6.1.7 9 1.6 1.8.5 3.4 1.8 2.8 4-.7 2.6-1.6 5.1-4.1 6.6-2.2 1.5-4.5 2.7-7 3.6-7.9 2.5-15.8 5.1-23.9 6.8-8.4 1.8-17.1 2.8-24.7-3.8-.5 2.3-1.1 4.3-1.4 6.2-.7 5.4 0 10.4 3.6 14.7 1 1.4 2.6 2.3 4.3 2.3 7.1 0 14.2.4 21.3-.2 15.3-1.3 30.2-4.8 44.5-10.4 2.3-.5 4.2-2 6.3-3.3m70.7-208.8c.1.1.2.2.3.2 9.4-1.9 19-2.4 28.5-1.5.8 0 1.6-.4 2.1-1 9.8-10.5 21.4-18.7 34-25.6 5-2.6 9.3-6.6 12.2-11.4 2.8-4.7.9-9.2-4.5-9.9-3.3-.5-6.7-.4-10.1.3-11.9 2.4-22.3 8.2-31.8 15.5-11.9 9.1-21.1 20.9-30.5 32.5 0 .3-.1.6-.2.9M221 497.2c-.4-.5-.8-1.1-1.3-1.6-5.8-4.7-9.5-10.8-12.4-17.5-2-4.3-2-9.2-.3-13.6 1.8-4.4 4.8-8.3 8.5-11.3 3.1-2.5 2.7-5.8-1.1-7.1-2.3-.6-4.8-.9-7.2-.6-1.6.1-3.6.4-4.6 1.5-4 4.1-7.7 8.5-11.1 13-7.6 10.4-11.1 22.3-12.5 34.9-.4 3.4-.4 6.9-.7 10.8 13.2-9 27.4-9.9 42.7-8.5m130-118.1c-9.1-3.1-14.9-7.5-18.7-14.3-1.9-3.4-3.4-6.9-2.4-10.9.1-.6-.1-1.2-.5-1.7-2.2-2.9-5.1-5.1-8.5-6.6-5.7-2.4-13.6 2.3-12.3 9q.3 3.15 1.8 6c2.4 4.1 5.1 8 7.9 11.9 1.1 1.3 1.7 2.9 1.8 4.6 0 4.5 1.1 8.9 3.1 12.9 2.7 5.1 6.2 6.3 11.3 3.7 6.6-3.4 11.5-8.7 16.5-14.6m65.4-70.7c-8.3.4-16.6 1.9-24.5 4.6-4.1 1.4-8 3.3-11.7 5.6-2.9 1.8-2.9 4.9-.9 7.9 2.5 3.8 3.5 4.2 7.3 2.4q1.2-.6 2.4-.9c15.5-4.7 30.7-4.7 45.5 2.8 1 .7 2.3.5 3.1-.5 6.7-6.9 4.8-15.8-4.3-19-.5-.2-1-.3-1.5-.5-5.2-.8-10.3-1.6-15.4-2.4m-226.2 89.5c-1.4-.1-2.5-.1-3.7-.2-3.8-.3-7.5-1.8-10.3-4.4-7.3-7-6.7-18.6 1.4-25.2 4.9-4 10.8-6 16.8-7.4 1.5-.4 2.8-1.4 3.6-2.7 2.8-3.6 5.8-7 8.8-10.4.8-.9 1.7-1.7 2.7-2.5-1.1-.2-2.2-.1-3.3.2-11 2.8-21.8 6.2-31.4 12.7-9.9 6.6-16.4 15-14.3 27.9 1 5.7 2.9 11 7.3 14.8 7 6 15.3 7.4 24.1 6.6.1 0 .3-.3.6-.6-.7-2.8-1.5-5.6-2.3-8.8m245.2-62.6v-1.1c-3-1.4-6-3.1-9.2-4.1-10.2-3-21-3.4-31.4-1-4.4.9-8.6 2.4-12.1 5.3-2.5 2.1-4.7 4.6-3.8 8.2.9 3.4 3.9 4.4 6.8 5.1 7.7 1.8 15.7 1.8 23.4.2 8.8-1.9 16.7-6.2 24.4-10.7.6-.5 1.3-1.1 1.9-1.9m.3-26.2c3.1-5.5 1.8-10.3-3.6-12.9-1.9-1-3.9-1.6-6-1.9-5.8-.5-11.7-.7-17.5-.6-8.8.2-17.3 2.7-24.8 7.3-7.5 4.7-12.7 11.2-14 20.3-.6 4.6 1.9 6.7 6.4 5.6-1.8-6.3-.4-9.5 5.5-12.8.3-.2.6-.3.9-.4 15.5-7.1 31.6-9.4 48.5-6 1.4.3 3 .9 4.6 1.4m-52.7-11c-4.8-6.9-13-10.8-20.8-7.1-5.3 2.5-9.9 5.8-13.2 10.6-5.5 8-.9 22.1 8.3 25.3 3.4 1.2 6.8.8 9.9.3 0-2.9-.3-5.2.1-7.5 1.5-8.1 6-14.4 12.5-19.3 1-.7 2.1-1.5 3.2-2.3M229.5 521.8c13.9 8 22.6 19.2 25.6 34.1h15.8c.1-.8.2-1.1.2-1.4.1-18.3-11.4-30.1-26-34.9-.8-.3-1.6-.3-2.4-.2-4.2.7-8.3 1.5-13.2 2.4m14.9-9.6c-.7-2.2-1.4-4-1.8-5.8-.3-1.4-1.1-1.8-2.4-2-2.4-.4-4.8-1-7.1-1.6-12-3.4-24.6-4-36.9-1.6-5.7 1.1-11 3.2-15.5 7-.9.7-1.5 1.7-1.7 2.8 0 2.6.2 5.2.6 7.7 21-8.4 42.6-9.2 64.8-6.5m-2.4-10.6c.8-5.7 1.5-11.1 4.9-15.8.2-.3.2-.6.2-.9-.7-3.6-1.4-7.3-2.3-10.9-.4-.8-1.1-1.3-2-1.5-3.3.1-6.7.4-10 .6l-.5.8c1.3 1.8 2.7 3.6 4.2 5.3 1.5 1.5 3.4 2.6 4.9 4 .5.5.6 1.4.8 2.1-.7.2-1.5.3-2.3.2-.7-.3-1.3-.6-1.9-1.1-4-2.6-7.1-6.4-8.8-10.8-6.5 1.1-12.7 2.3-17.7 6.7 6.3 13 16.6 19.4 30.5 21.3m158.8-124.8c3.6-1.4 7.5-1.9 11.4-1.5 11.9.9 23.4 3.3 34.2 8.3 2.5 1.2 4.7.6 7.1.3 1.3-.3 2.5-.8 3.7-1.5-.7-.4-1.4-.9-2.2-1.2-8.3-4.3-17.1-7.5-26.2-9.5-13.3-3.1-26.5-3.1-39.5 2.1 9.5 8.3 14.8 19 16.4 31.6 5.1-2.4 5.6-3.2 4.4-7.9-.4-2.1-1.1-4.1-1.9-6.1-2.4-4.8-4.9-9.6-7.4-14.6M202.5 327c.1-1.2.1-2.5 0-3.7-1.5-9.2-4.7-18.1-9.5-26.2-2.6-4.3-6.7-5.7-11.6-4.7-1.5.4-3 1-4.4 1.8-3 1.4-4 3.3-2.8 6.4.8 2 1.8 3.9 3 5.6 6 8.2 13.8 14.4 22.3 19.7 1 .4 2 .8 3 1.1m123.3 152.3c1.1 4.9 2.5 9.3 6.3 12.5 2.1 1.7 3.5 4.1 3.9 6.7.5 3.4 1.9 4.6 5.2 3.8 8.2-1.8 16.5-2.9 24.9-3.2 2.7-.1 5.4-.3 8.2-.4-.5-3.1-1-5.8-1.6-8.6-4.7 0-9.2-.2-13.6 0-6.9.4-13.8-1-20.1-4-4.3-2-8.5-4.4-13.2-6.8m77.9-101.6c2.1 4.2 4 7.6 5.4 11.3s2.5 7.5 3.8 11.5c9.5-6.8 20.2-11.9 31.5-15-13-5.6-26.2-8.7-40.7-7.8m-34.6-2.9c-5.2-1.6-9.3-4.5-13.1-8.1-2.6-2.5-5.1-4.8-8.6-6.2-2.8-1.1-4.8-4-7.1-6.1-1.6-1.5-4.6-2.3-6.1-1.5s-2.2 2.8-1.4 5.4c.5 1.6 1.1 3.2 1.9 4.7 6.3 11.3 17.1 14.4 28.9 15.4 2.4.2 4.7-1.3 5.5-3.6m-174.6-11c-5.7 1.5-10.8 3.2-15 6.7-5.2 4.3-6.8 9.9-4.4 15.9 2.2 5.5 7.7 8.7 14.6 8.1-.5-10.3.5-20.5 4.8-30.7m20.7 78.9c3.4 1.3 5.7 4.4 6 8.1 3.6 0 6.8.1 10.1 0 2-.2 4.1.6 5.4 2.1 1.2 1.5 2.5 1.7 4.2.8a44.5 44.5 0 0 0-5-17c-1.2-2.4-2.5-4.3-5.6-4.1-1.7-.1-3.3-.4-4.9-.9-2.3 10.1-3.1 10.3-10.2 11m68.1 47.3c5.4-2.1 10.2-3.9 15-5.9 2.5-1.1 4.6-2.9 5-6.3-8.7-2.5-17.2-1.4-26.6-.2zM148.1 276.3c-1.2-.1-2.3-.1-3.5 0-2.2.2-5.2.2-5.6 2.6-.5 2.8 2.5 3.6 4.6 4.4 5.8 2.5 12.1 3.4 18.4 2.6 1.9-.2 4.3-.4 4.7-2.5.5-2.3-1.9-3.1-3.5-3.9-4.7-2.2-9.8-3.3-15.1-3.2m8.1 19.7c7.8 10.6 18.1 19.1 30 24.7-.2-.8-.2-1.1-.3-1.2-.8-.7-1.6-1.4-2.3-2.2-5.9-6.1-12.8-11.8-12.5-21.4zM175 409.3c-.6 1.2-1.1 2.5-1.5 3.8-.7 3.3 2.6 7.4 5.6 7 6.6-.8 13.2-1.7 19.8-2.6l-4.6-6.5zm55 53.5c-6.7-.1-13 .8-18.8 4.1-1.2.6-2 1.7-2.4 3-.4 2.6.2 5.3 1.6 7.5 5.6-4 11.8-5.4 18.1-6.6.4-2.6.8-5.1 1.3-8zm-18.8.4c5.7-2.5 11.7-3.2 17.7-3.3 3.5-.1 4.6-2.1 6.2-5-1.1-.5-2.2-.8-3.4-1-3.9 0-7.9.2-11.8.5-.7 0-1.4.3-2 .7-3 2-5.3 4.8-6.8 8.1zm46.6 20.8-8.8 4.3c3 4.3 8.1 6.1 13.5 4.8zm-1.4-2.7c-2.3-3.5-4.5-6.7-8.6-8.7.8 4.2 1.6 7.7 2.3 11.5zm-85.1-234.1c-.1-2.2-1.6-4-3.4-3.9s-3.3 2.2-3.2 4.4c.1 2.1 1.6 3.7 3.2 3.8 1.9 0 3.5-2 3.4-4.3M157.6 44.1c-4.5.3-7.5 2.5-10.3 5.5-3.5 3.8-7.3 7.5-11.1 11.1-1.4 1.2-2.1 2.9-2 4.7 0 1.8-.2 3.6-.6 5.3-.4 2.5-.3 5 .5 7.4 2.9 10.2-6.5 16.6-14.8 15.4-4.1-.5-7.7-3-9.5-6.8-6.1 6.2-15.8 7-20.5.8-2.8 1.7-5.5 3.6-8.4 5-8 4-17.7 2.4-21.7-9.1-2.3 4.4-7.2 7-12.1 6.4-5.1-.2-9.8-2.4-13.3-6.1-.2 1.2-.3 1.9-.4 2.7-1 6-5.6 9.8-11.7 9.2-4.8-.4-9.1-2.3-11.6-6.7-1-1.8-1.4-3.9-1-6 1.8-6.7 1.7-13.7 2.6-20.5.3-2.7 0-5.5-1.1-8-1.5-3.9-1.4-7.9 2-11.2.6-.6.9-1.4 1-2.2 1-8.1 2-16.2 2.9-24.4.1-.6.1-1.3 0-1.9-.7-5.7 2.8-10.9 8.7-11.6 6.1-.7 11.1-.8 16.9 4.3C47.2-2.7 60-.4 65.4 4.8c4.2 4 4.4 9.5.4 13.9-1.1 1.1-1.8 2.6-1.9 4.1-.4 5.1-1.1 10.2-1.6 15.2-.2 1.5-.5 3.1 1.4 3.8 3.2-6.3 8.8-10 15.1-12.4 4.4-1.7 9.2-2.7 13.9-2.8 11-.3 16.3 5.1 16.6 15.5.3 8.9 0 17.8-.1 26.8 0 1.5.2 3 .3 4.5h.9c.4-2.9.9-5.9 1.2-8.8.8-6.8 1.5-13.5 2.1-20.3.1-1.5 0-2.9-.4-4.3-1.2-4 .7-8.3 4.5-10.1 6.3-3.2 12.4-2.4 18.8.6 3.4-2.7 6.8-6.2 12-6 4.8.2 9.1 1.6 12.3 5.5 6.4-2.7 12.9-3.2 19.6.8 6.7-7.7 14.6-8.3 23-2.6 5.5-3.3 11.3-3.4 16.9-1.2 4.4 1.7 5.6 6 5.8 10.5.1 3.1.2 6.3.3 9.4l.9.2c1.9-3.8 3.8-7.7 5.6-11.5.2-.5.4-1 .5-1.5 2.2-9.5 11.3-10.1 17.5-6.6 6.6 3.7 8.1 11.4 4.1 17.7-4.5 7-8.3 14.4-12.2 21.7-3.1 5.8-5.9 11.7-8.7 17.6-2.2 4.8-4.2 9.6-4.5 15.1-.2 3.6-2.4 6.3-5.6 8-5.6 3.1-12.7 1.7-16.6-3.4-2.3-3.1-2.4-6.6-.9-10.2s2.9-7.7 4.2-11.5c.2-.6.3-1.2.2-1.8-3.1-12.3-6.2-24.6-9.4-36.8 0-.1-.1-.2-.2-.2-.2.1-.4.1-.5.2-5.7.9-9 5.1-12.8 8.8-2.8 2.8-5.5 5.6-8.4 8.3-1.2 1.1-1.9 2.6-2 4.2-.5 5.1-.9 10 .5 15.1 1.3 4.9-2.9 10.6-8.5 12.6-5.8 2.1-12.9-.2-15.4-4.3-1.6-2.7-1.7-5.6-1.3-8.6.7-5.9 1.6-11.8 2.3-17.7.7-5.7 1.3-11.4 1.9-17.1.5-.5.5-.8.4-1.1M109.8 81c-.7-1.6-1.6-3.4-2.2-5.3-.7-1.6-1.1-3.3-1.3-5.1-.1-9.8.1-19.6-.1-29.5-.2-8-4.2-11.9-11.8-11.7-4.4.1-8.9.8-13.1 2.1-7.6 2.5-14.4 6.3-15.7 15.7l-2.9-.2c-.5-1.2-.6-2.3-1.3-2.8-2.1-1.8-1.9-4.1-1.8-6.5.3-4.3 1-8.6 1.2-13 0-2.8 1-5.5 2.8-7.7 3.1-3.9 3.1-7.2-1-10.8-3.1-2.7-7.3-3.8-11.3-3-4.8.9-7.5 5.1-7.1 10 .1 1.7 0 3.3-.3 5-.7 5.9-1.6 11.7-2.1 17.6-.3 3.8-.5 4.2-4.2 5.2-2.7.7-3.7.1-3.5-2.7.3-4.3 1.2-8.5 1.5-12.8.2-3.1 1.8-5.5 3.5-7.9.3-.3.5-.7.7-1 2-3.6.8-7.2-2.8-9.4s-7.6-2-11.4-1.5-6.1 3.9-6.2 8c-.1 3.8-.3 7.6-.7 11.4-.5 5.1-1.4 10.2-1.8 15.3-.1 2-.9 3.9-2.4 5.3-1.1 1.2-1.8 2.7-2 4.3-.1 1.7.8 3.4 1.2 5.2s1.1 3.7 1 5.5c-.2 3.8-.7 7.6-1.2 11.3s-1.5 7.7-1.9 11.5c-.1 1.7.3 3.3 1.3 4.7 1.2 1.5 2.7 2.7 4.5 3.4 3.5 1.6 7.2 2 10.5-.6s3.2-6 2.4-9.6c-.2-.9-.3-1.9-.2-2.8.5-5.2.9-10.4 1.5-15.5.4-3.8.5-3.8 4.4-4.8 2.9-.7 4.1.2 3.6 3.2-.7 4.7-1.2 9.2-3.6 13.6s-.6 7.3 3.2 9.5c1.4.6 2.9 1.2 4.4 1.6 3.5 1.5 6.7 1 9.9-.9 1.8-1 2.9-2.4 2.7-4.6-.3-1.9-.5-3.7-.6-5.6.3-5.4.7-10.7 1.3-16.1.2-1.4.9-2.8 2-3.7 2-1.4 3.9-2.5 3.9-5.3.2-.8.8-1.4 1.6-1.6.6-.1 1.4.7 2 1.2 1.3 1.2 2.4 2.7 3.8 3.8 2 1.7 2 2.3.1 4-2.9 2.6-6 5.1-7.5 8.9-2.2 5.3-2.4 11.1-.7 16.6 2.2 6.8 8 9.5 13.7 8.2 4.5-1.1 8.1-3.4 11.5-6.3 2.4-2 3.1-1.9 4.8.8.6.9 1.4 2.2 2.3 2.3 5.3 1.1 10.3 1 13.3-4.4.7-.7 1.4-1.6 2.1-2.5m115.5-29c-.4-.9-.6-1.9-.8-2.9-.2-3.8-1.9-7.4-1.1-11.5.5-2.5-.1-6.2-3.3-7.6-4.7-2.1-9.7-2.4-14.3.3-1.9 1.1-2.9 1-4.7-.2-4.8-3.5-12.2-3.9-16.7 1-.6.7-1.4 1.4-2 2-.8 1-2.4 1.2-3.4.4-.1-.1-.2-.2-.3-.2-.8-.8-1.8-1.5-2.9-1.9-4.5-1.1-9.1-1.1-13.3 1.2-1.6.9-2.8 1.1-4-.7-3.8-5.2-12.2-6-17.1-1.7-1.1 1-2.1 2.1-3.2 3.1-.7.9-2.1 1.1-3 .3l-.1-.1c-4.4-4-9.5-3.1-14.4-1.9-3.8.9-5.3 4-4.4 7.8.3 1.2.4 2.5.3 3.8-.9 9.2-1.8 18.3-2.7 27.5-.3 3-.4 6.2-1.4 9.1-1.5 4.4 1 9.4 4.8 10.5 3.4 1.1 7.2.8 10.4-1 3.3-1.8 5.3-6.2 4-9.5-1.2-3.2-1.4-6.6-.6-9.9q.6-3.15.6-6.3c0-1.5.6-2.9 1.7-3.9 4.6-4.5 9.2-8.8 13.5-13.6 3.7-4.1 8.9-4.2 13.4-6.3.1-.1.4.2.8.4.1 1 .1 2 0 2.9-.8 6.6-1.6 13.2-2.5 19.7-.8 5.9-1.5 11.9-2.4 17.8-.7 4.7 1.4 8.8 5.8 9.9 3.5 1 7.2.3 10.2-1.8 3.3-2.4 4.6-6.6 3.1-10.4-.6-1.7-.8-3.5-.8-5.2 0-2.2.4-4.4.6-6.6.1-3.5 1.6-6.8 4.3-9.1 4.5-3.9 8.4-8.4 12.8-12.5 1.3-1.1 2.9-2 4.5-2.7 1.4-.7 3-.8 4.4-1.5 1.6-.8 2.6-.6 3.2 1.1l.9 2.7c2.6 10.5 4.8 21 7.9 31.3 2.1 6.8-.2 12.5-3 18-1.9 3.9-1.3 10.2 4.1 12s12 0 12.8-7.1q1.05-7.2 4.2-13.8c3.7-8.3 7.9-16.3 12.1-24.3 3.1-6 6.8-11.7 9.9-17.7 1-1.8 1.5-3.9 1.3-6-1.2-7-7.5-9.2-13.2-8-1.6.3-3.7 2.1-4.1 3.6-1.6 6.6-5.7 11.9-8.4 18-.6 1.6-1.6 2.1-3.5 1.5M65.9 53.6c-4.7 3-7.4 6.8-6.2 12.1l8-10.3zM37.4 38.1c.4-.1 1.1-.1 1.1-.2.7-5.4 1.4-10.8 2.1-16.6-1.9 2.1-3.6 11.8-3.2 16.8M34.3 72c2.3-3.6 2.2-7.1 2.6-10.9-2.8 1.4-3.1 2.5-2.6 10.9m449 11.7c-5.6 6.3-13 8.8-21.2 9.5-8.6.7-15.4-5.2-18.1-12.7-2.4-6.6-2.3-13.3-1.6-20.1.4-4.2 1.6-8.3 2.4-12.4l-6.5-1.3c-.5 4.4-1.1 8.8-1.6 13.2-.5 4-.8 8-1.3 12-.3 2.4-.3 4.6 1 6.7.3.6.5 1.1.7 1.8 1.6 5.3.4 9.1-4.3 12-5.3 3.3-12.5 4.1-17.5-.2-4.4-3.8-5.1-8.6-4.3-14 1.1-7.6 2.1-15.3 3.2-23-4.9-1.8-10.1-2.7-12.4-7.3l-7.5-1c-.6 5.3-1.3 10.8-1.9 16.3q-.75 6.15-1.2 12.3c.1.9.4 1.8.9 2.6 3.5 7.3 1.2 13.1-6.5 15.8-5.5 1.9-10.5 1.8-15.1-2.4-2.2-1.9-3.3-4.7-3.2-7.6.4-6.4 1-12.9 1.6-19.3.3-3.2.7-6.3 1.1-9.5l-8.1-2.9c-1.2 6-1.9 12-3.5 17.8-2.2 7.7-5.8 14.6-12.7 19.4-8.9 6.2-20.3 5.2-27.5-2.6-3.4-3.8-5.4-8.7-5.6-13.8-.5-5.8-.1-11.7-.1-18.1-4 5.8-8.4 10.8-15.3 13.4 0 4.6-.2 9.3.1 14 .3 4-1.9 7.8-5.5 9.7-5.7 3-15 1-19-3.9-2.6-3.2-2.7-7.4-.6-11.3.8-1.5 1.3-3 1.5-4.7 1.1-13.8 2.2-27.5 3.2-41.3.5-6 .8-12.1 1.1-18.1.4-4 3.3-7.3 7.2-8.2 2.3-.7 4.8-.9 7.2-.6 2.6.5 4.8-.3 7.1-1 2.8-.9 5.6-1.9 8.5-2.5 9.2-2 17.9 3.6 21.6 11.4 1.6 3.4 1.2 7.1.4 10.6-.4 1.5-.9 3-1.5 5 1.2-.2 2.2-.3 3.1-.6 4.7-1.3 9.7-1.3 14.4-.1 5.4 1.5 9 3.8 13 11.3 2.4-.8 4.7-1.6 7-2.5 2-.7 4.2-1.1 5.8-2.4 2.2-1.8 1.4-4.6 1.2-7.1-.2-1.3-.3-2.7-.1-4 1.8-7.9 10.3-11 17.3-9.3 5.5 1.4 8.2 5 8.8 11.4 6.1 1.3 10.1 4.8 10.7 11.8 2.2-1 4.2-1.8 6-2.7.6-.4 1-1 1.1-1.7.3-1.8.4-3.6.1-5.4-1.5-6.5 3.9-12.6 10.3-13.6 4.8-.8 9.7-.6 12.9 3.8 1.5 2.1 2.2 4.8 3.6 8 4 1.2 8.6 3 9.2 9.2 11.5-11.8 29.9-9.7 34.2 3.3 1-5.3 4.5-8 8.6-8.7 5-.8 10.4-1.2 15.2 2.6 1-1 2-2 3.1-3 6.4-5.9 18.5-4 21.7 3.7 2.2 5.3.5 11-4.9 12.4-4.5 1.2-7.9 3.8-10.9 7.1s-6.4 6.3-9.4 9.5c-1 1.1-1.6 2.4-2 3.8-.5 2.4-.7 4.8-.7 7.3-.1 2.2.2 4.4.6 6.5 1.4 5.5-.3 10.1-5 13.2-5.7 3.7-13.2 3-17.4-1.9-1.2-1.5-1.8-3.7-2.7-5.6m39.9-40.3c2-.6 3.9-1.3 5.9-1.9 5.2-1.5 6.8-7.1 3-10.8-2.9-2.8-7.1-3.9-11-3-3.3.7-5.5 2.9-7.9 5-1.2 1.1-2.2 1.7-3.8.4-4-3.1-11.9-3.3-16.3-.7-2.2 1.2-3.2 3.8-2.5 6.2.8 2.1.9 4.4.4 6.5-.4 2.4-.7 4.8-.8 7.3-.8 7.1-1.5 14.1-2.3 21.3h-3.3c-1.1-3.9-2.9-6.7-7-7.8-2.1-.6-2.2-1.9-.7-3.7.3-.4.6-.8 1-1.2 5-5.7 8.2-12 7-20-.9-6.2-2.7-9.9-7.8-11.5-6.3-2.1-13.2-1-18.4 3.1-1.6 1.3-3 2.7-4.3 4.2-1.1 1.3-2.3 1.8-3.9.8-.1-2.8.4-6.1-2.4-7.9-2.4-1.6-5.2-2.5-7.9-3.7 0-.7 0-1.3-.1-1.9-.4-3.5-1.3-6.6-4.9-8.2-4.4-1.8-9.5-.9-13.1 2.3-1.6 1.4-2.5 3.5-2.4 5.6.1 2.5.1 5.1 0 7.6-.1 1.1-.3 2.8-1 3.2-3.6 1.9-7 4.7-11.7 3.2.1-5.5-2-9.5-7.9-10.5-2.5-.4-3.3-1.8-3-4.1 0-.8-.2-1.7-.5-2.4-2.4-7.5-13.4-7-17.3-2.6-2.1 2.2-2.9 5.2-2.2 8.1.4 2.5.2 5-.6 7.4-.4 1.2-2.5 2.1-4 2.7-1.8.8-3.8 1.1-5.6 1.8q-2.55.9-4.5 2.7c-2.2 2.4-3.2 2.4-4.7-.6-.9-2-1.9-3.9-3.1-5.8-5.3-7.4-19.6-7.4-25.5-2.9-1.3 1-2.6 2.2-4.6.6.3-.9.6-1.7.9-2.6 1-2.6 2.2-5.2 3-7.9 1.1-3.5.8-7.2-1.1-10.4C323 5.6 314.2 1 307.8 3.1c-2.9 1-5.8 1.9-8.8 2.7-2.1.5-4.3.8-6.5 1-2.1.2-4.2-.2-6.2.2-4.2.8-5.9 3.6-5.1 7.8.1.8.1 1.7 0 2.5-.6 6.6-1.3 13.2-1.9 19.8-.3 3.4-.4 6.7-.7 10.1-.6 7.3-1.1 14.6-1.9 21.8-.4 3.3-.2 6.6-2.3 9.7-1.9 2.6-1.1 5.7 1.2 8.1 3.6 3.8 8.2 4.3 12.9 3.6 3.8-.7 5.4-3.3 5.5-7.3.1-5.7-.7-11.4.9-17.2 4.5-.9 7.9-3.5 10.7-6.9s5.3-6.8 7.8-10.4c1.2-1.8 2.4-2.1 4-1.1.1.3.2.4.2.5-.3 1.1-.5 2.2-.9 3.4-2.4 7.9-2.7 16.2-.9 24.2 1.5 6.2 4.6 11.4 10.9 13.8 9 3.4 18-.4 23.3-8.1 5.7-8.4 8-18 8.5-28 .1-1.8 0-3.5 0-5.8 1.5.4 2.5.6 3.4 1 3 1.2 5.9 2.6 9 3.8 2.1.8 2.6 1.5 2.3 3.7-.7 4.5-1.3 8.9-1.8 13.4-.5 3.8-.9 7.5-1.2 11.3-.5 5.6 1 10.6 7.9 11.5 2.2.2 4.4-.1 6.5-.9 6.1-1.9 7.9-6.3 5.2-12.1-.8-1.6-1.2-3.3-1.1-5.1.5-6.3 1.2-12.7 1.9-19 .3-3 .8-6.1 1.3-9.1.3-1.6 1.8-2.7 3.4-2.5 2.8.5 5.5 1 8.6 1.6 1.3 3.9 5 5.3 8.7 6.6 4.8 1.7 4.8 1.7 4.2 6.8 0 .4-.2.8-.2 1.2-.8 8-1.7 16.1-2.2 24.1-.3 3.9 2.5 6.9 6.3 8 3.4 1 6.5.3 9.6-1 4.9-2.1 6.5-6.7 3.8-11.2-1.1-1.7-1.5-3.7-1.3-5.7.7-6.3 1.4-12.7 2.1-19 .3-2.8.5-5.7 1-8.5.4-2.5 1.9-3.3 4.3-2.6 2.1.7 4.2 1.1 6.5.2.7-.3 1.8 0 3.1.1-.7 2.2-1.1 4-1.8 5.7-3.5 9-4 18.9-1.5 28.3 1.4 5.1 4.2 9.2 9.4 11.2 3.5 1.3 7.3 1.5 10.9.5 7.2-1.7 13.5-4.8 17.1-11.8 1-1.8 2.1-2.1 3.8-1.1-.2 1.4-.4 2.6-.6 3.8-.9 3.1.3 6.3 3 8.1 2.8 2.1 6 2.1 9.1 1.4 5-1 9.6-7 6.9-12.4-.5-1.1-.8-2.4-.7-3.7.2-3.5.5-7 1-10.5.2-1.7.9-3.2 1.8-4.6 1.2-1.7 3.1-2.9 4.5-4.4 3.6-3.8 7.2-7.7 10.8-11.5zm-35.9 8.8-7.2 11.5 5.5 4.1c.6-5.4 1.2-10.6 1.7-15.6M0 468.3v-21.8h10.4v-25.1H.1v-22c1.3-.1 2.3-.2 3.3-.2 15.1 0 30.2 0 45.3-.1 2.4 0 3.6.6 4.4 3 1.9 5.6 4.1 11.1 6.5 17.2.7-1.2 1.1-1.8 1.4-2.5 2-5.1 4-10.3 5.9-15.4.6-1.5 1.2-2.2 3-2.2 15.8.1 31.7 0 47.5 0 .5 0 1 .1 1.4.2V421H109v25.4h10v21.4c-1 .3-2.1.5-3.1.6H1c-.4 0-.7 0-1-.1m2.2-2.1h114.6v-17.9h-9.9V419h9.9v-17.5c-.3-.1-.7-.2-1.1-.3H71c-1.8 0-2.4.8-2.9 2.2-2.4 6.3-4.9 12.7-7.3 19-.3.7-.6 1.4-1.2 2.5l-.8-2c-2.5-6.5-5-12.9-7.3-19.4-.7-1.8-1.5-2.4-3.5-2.4-14.5.1-28.9 0-43.4.1-.8 0-1.6.1-2.5.2v17.7h10.5v29.3H2.2zm12.4-167.9v-21.8h10.3v-25H14.6v-22.1c1-.1 1.9-.2 2.8-.2 16.9 0 33.8-.1 50.7 0 6.3.1 12.7.5 18.7 3.1 6.6 2.8 11.2 7.2 12.4 14.6.8 5.2-.7 9.8-3.9 14.2.7.7 1.3 1.5 2.1 2.3 5.7 5.6 6.6 12.3 4.6 19.7-1.9 6.9-6.9 10.4-13.2 12.7-5.8 2.1-11.8 2.7-17.8 2.7-18.2.1-36.4.1-54.5.1-.5-.1-1.2-.3-1.9-.3m2.3-2.4c.3.1.5.2.8.2 19 0 38.1 0 57.1-.2 5.3 0 10.6-1.1 15.5-3.1 6.2-2.8 10-7.4 10.7-14.3s-1.8-12.5-7.9-16.2c-.3-.2-.6-.5-.9-.7 0-.2 0-.4.1-.4.3-.4.7-.8 1-1.2 3.3-3.3 4.8-8 4.1-12.6-1-7.3-5.8-11.3-12.2-13.8-5-1.8-10.3-2.6-15.7-2.4-16.8-.1-33.6 0-50.4 0-.8 0-1.6.1-2.4.2v17.7h10.2v29.3h-10zm-5.5 87.4v-21.9c2.9 0 5.6-.2 8.2 0 2.3.2 3.4-.6 4.3-2.7 6.1-13.9 12.3-27.7 18.4-41.6.6-1.9 2.5-3.2 4.5-2.9q12.75.15 25.5 0c1.6-.2 3.1.8 3.6 2.3 6.1 13.9 12.4 27.7 18.4 41.6 1.1 2.6 2.5 3.6 5.2 3.3 1.8-.2 3.6 0 5.4-.1 1.6-.1 2.4.6 2.4 2.2V381c.2 1.1-.5 2.1-1.6 2.2h-.5c-.5 0-1.1.1-1.6.1H13.3c-.6.1-1.2.1-1.9 0m93.4-2.2v-17.8c-2-.1-3.9-.1-5.9 0-3.3.5-4.9-.9-6.2-3.9C87 346 80.8 332.5 75 319c-1-2.2-2.2-2.9-4.5-2.9-7.1.1-14.3.3-21.4 0-3.3-.1-4.8 1-6.1 4-5.8 13.5-11.9 26.8-17.8 40.2-1 2.2-2.2 3.4-4.8 3.1-2.3-.1-4.6-.2-6.9 0v17.8zm2.1 150.3c.2 1.1.3 2.2.4 3.3v15.6c0 3-.2 3.2-3.3 3.3H14.2c-3.1 0-3.2 0-3.2-3.2v-19c3.3 0 6.2-.1 9 0 1.6.3 3.1-.7 3.6-2.2 6.2-14.1 12.5-28.1 18.7-42.2.9-2.1 2-2.9 4.3-2.8q12.75.15 25.5 0c2 0 2.9.7 3.8 2.5 6.1 14 12.3 27.8 18.4 41.7 1.1 2.4 2.3 3.4 5 3.1 2.5-.2 5.1-.2 7.6-.1m-93.3 19.8h91.2v-17.6c-1.9-.1-3.8-.1-5.6 0-3.5.6-5.1-1.1-6.4-4.1-5.9-13.6-12-27.2-18-40.8-.5-1.6-2.1-2.7-3.8-2.5-7.7.1-15.3.1-23 0-2.3 0-3.5.6-4.5 2.9-6 13.8-12.2 27.6-18.3 41.4-1 2.2-2.2 3.4-4.8 3.1-2.3-.1-4.5-.1-6.8 0zm45.8-336.1c-10.6-.3-21.5-1.8-31.1-8.1-10.3-6.9-15.9-16.5-15.3-29 .7-16.2 9.7-26.5 24.4-31.6 17.2-6 34.5-5.6 51 2.6 14 6.7 21.4 22.3 17.7 37.4C103 200 93.8 207.7 81.2 212c-6.8 2.2-14 3-21.8 3.1m.1-2.2c9.6-.1 18.6-1.4 27-5.5 14.1-6.9 21-20.4 17.8-35.6-2.5-11.7-10.1-19-20.8-23.1-15.2-5.8-30.6-5.7-45.9-.5-7.3 2.3-13.5 7.1-17.8 13.4-8.2 12.3-7.9 35.4 13.7 45.8 8.4 4.1 17.3 5.3 26 5.5" class="st0"/><path d="M315.5 426.5c7.6 19.8 20.3 36.3 35 51.4l-.6.8c-2.9-1.1-5.8-2-8.6-3.4-11.6-5.7-21.2-14.1-29.9-23.5-4.6-5-8.8-10.3-13.4-15.8-.9 17.3-10.7 28.4-25.4 36.4 1.1 3.2 1.9 6.4 3.2 9.4s3 5.8 4.7 9.1l-14.2 3.4c-2.5-4.8-4.4-9.1-6.9-13.2-7.3-11.8-10.3-12-22.5-11-1.4.1-2.8.2-4.1.3-.6-.1-1.2-.2-1.8-.5 1.4-3.5 2.6-7 4.2-10.3.8-2 2.8-3.1 4.9-2.6 1.2.1 2.3.1 3.5 0 .8-4.3-.2-8.3-1.3-12.2s-2.9-7.5-4.3-11.2c5.1-.3 10.1-.3 15.1-.9 21.7-2.4 40.3-16.6 43.7-40.7 1-7.4 1.3-14.8-.5-22.1-2.9-11.1-9.7-19.2-19.5-24.8-6.8-3.9-14.2-6.6-21.9-8.1-1.8-.3-3.5-1-5.1-2 1.8-.2 3.5-.5 5.3-.6 17.1-.7 34.1-2.5 50.4-8.2 8.7-3 16.8-7.2 23.4-13.6 8.3-8 13.1-17.9 13.3-29.7.1-6.2-3-10.5-8.2-13.4-7.1-3.9-14.9-4.1-22.6-3.1-8.3 1.2-16.3 3.9-23.5 8.1-.6.3-1.3.4-2 .2.6-1 1.1-2 1.8-3 6.2-9 11.2-18.8 14.9-29.1 2.3-6.5 3.9-13.3 3.7-20.2-.4-13.8-6.8-24.2-18.6-31.3-16.3-9.9-32.1-8-47.6 2-10.4 6.7-18.9 15.5-26.6 25-7.5 9.2-14.6 18.8-21.9 28.1-1.7 2.2-3.6 4.2-5.6 6.1-2.6 2.5-5.2 2.4-7.1-.8-2.3-3.7-4.2-7.5-5.7-11.6-3.2-8.6-5.9-17.4-9-26-1-2.7-2.4-5.2-4.2-7.4-2.8-3.4-6.1-3.4-9.4-.5-2.9 2.6-4.6 6.1-6 9.7-2.5 6.5-4.1 13.4-4.6 20.4l-.6 11.1c0 .7-.1 1.4-.2 2.4-4.1-6.2-5.8-31 3.7-45.9-3.5-7.4-6.1-15.2-7.6-23.2-1.3-7.5-1.4-15 .9-22.4 1-3.2 2.6-4.7 6.1-5.2 8.7-1.4 17.6-1.7 26.4-.9 11 .8 21.8 3.3 32 7.5 1.3.6 2.9.5 4.2-.2 30.4-14.6 62.6-25.3 95.6-31.9 15.1-3 30.3-5.4 45.7-6 12.8-.5 25.8-.3 38.6.4 22.7 1.3 45 6.5 66 15.2 16.5 6.8 31.9 15.8 45.9 26.8.5.4.9.9 1.3 1.4.2.4.3.8.4 1.2h-3.2c-14.5 0-28.9 1.8-42.9 5.1-12.1 3-23.7 7.4-34 14.6-4.3 3.2-8.5 6.7-12.4 10.4q16.5 2.25 32.4 6.9c14.9 4.5 29 10.8 41.7 20 14.5 10.6 25.3 24.1 30.6 41.5 1.2 3.9 2 7.9 3.2 12.4-10.4-1.4-20.5-3.2-30.5-4-10.3-.9-20.7-.8-31 .4.5-.6 1.1-1.1 1.7-1.6 2.7-1.6 5.5-3.3 8.2-4.8 5.2-2.8 9.7-6.6 13.2-11.3 4.8-6.4 3.1-13-4-15.2-2.3-.8-4.8-1-7.2-.7-4.9.7-9.8 2-14.5 3.7-10.5 4.1-20.2 10-28.6 17.4-9 7.9-16.3 17.2-24 26.3-1.6 1.9-2.9 4.2-4.7 6-1.5 1.4-3.5 2.2-6 3.8-1-1.4-1.7-2.8-2.8-3.7-2.4-2-5.1-3.8-7.8-5.4-3.2-1.8-7-2.1-10.4-.9-6.8 1.9-12.8 6-17 11.7-5.2 7.2-5 12.4-.6 21.4.6 1.1 1.3 2.1 2 3.2-2.7 2.6-5.5 4.8-7.8 7.6-1.9 2.4-3.5 5-4.7 7.8-1.5 3.4-.7 6.9 1 10.4-1.1.1-2.2.4-3.2.7-1.8.7-2.8.1-4.2-1.1-2-2-4.3-3.7-6.8-5.1-5-2.9-9.7-1.7-13.8 1.7-3.9 3.2-4.1 7.5-3 12 1.5 6 4.9 11 8.9 15.6 1.3 1.6 2.1 3.6 2.4 5.7.8 4.2 1.6 8.6 3.4 12.5 2.9 6.4 8.5 8 14.8 4.7 5.6-2.9 10.5-7 14.3-12 2.6-3.5 5.1-5 9.4-3.4 1.8.5 3.8.6 5.7.1 3.5-.6 4.4-1.6 6.9-5.8 3.6-.4 7.2-.8 10.7-1 1 0 2 .3 2.9.9 8.5 6.5 13.6 15.2 16 25.6 1.7 7.5 1.6 7.5-3.7 13-2.5 2.7-4.9 5.6-7.4 8.5-3.9-1.7-7.7-3.4-11.6-5-9.6-3.8-19.6-6.2-29.9-7.2-5.6-.6-11.2-.8-16.9-1.2-1.2-.1-2.2 0-2.9 1.3-3.1 6.2-7.7 11.6-13.3 15.7-1 .2-1.3.5-1.5.9M303 166.4l2.5.8c7.2 2.3 14.1 5.4 20.1 9.9 3.8 2.9 7.4 6.1 10.9 9.2s7.3 3 9.4-.8c4.2-7.6 7.2-15.6 7.4-24.4.2-9.5-5.4-12.9-13.5-12.2-12.4 1.1-23.4 6.4-34.1 12.5-1.6 1-3 2.4-2.7 5M261.4 440c-.1 8.1 2 15.4 3.6 23 11.6-5.9 15.8-15.7 11.7-23z" class="st1"/><path d="M468.6 571.1c-9.6.9-19.4-.3-28.5-3.6-9.7-3.5-19.1-7.5-27.3-13.8-8.4-6.4-15.8-14.1-21.8-22.9-4.7-7-8.4-14.7-10.9-22.8-2.4-7.7-4-15.7-4.6-23.8-1.1-13.7 1.6-26.6 6-39.3 3.3-9.3 8.5-17.4 14.6-25.1 4.5-5.9 9.9-11.2 15.9-15.6 8.4-5.9 16.9-11.6 27.2-13.9 5.9-1.3 11.8-3 17.7-4.2 4.5-.9 9.2-1.7 13.8-1.3q10.95 1.2 21.6 3.9c16.8 3.8 30.8 12.7 42.7 24.8 8.9 8.9 15.8 19.7 20.2 31.5 2.9 7.8 5.3 15.9 6 24.2 1 14.2-.3 28.2-5.7 41.8-2.9 7.6-6.7 14.8-11.3 21.5-8.2 11.8-19.1 21.5-31.8 28.1-9.6 5-19.7 9-30.5 10.2-4.4.7-9 .3-13.3.3m32.7-88.2c2-1.3 3.3-2.1 4.5-3.1 9.6-8.2 8.8-23.6-1.9-31-3.6-2.5-7.7-4.3-11.8-6.5 1.1-4.2 2.2-8.7 3.4-13.2.7-2.8.4-3.2-2.5-4-2-.5-3.9-1-5.9-1.5-3.4-.9-4-.6-4.8 2.9l-3.1 12.3-5.5-1.1c.6-2.5 1.1-4.6 1.6-6.8s1.1-4.5 1.7-6.8c.6-2 0-3-2-3.5-2.2-.5-4.3-1.1-6.5-1.7-3.4-.9-3.8-.6-4.7 2.7-1.1 4.3-2.1 8.6-3.2 13-.6 0-1.1-.1-1.7-.2l-15.7-4c-1.7-.4-3.3-.5-3.8 1.6-.8 3-1.5 6-2.2 9-.4 1.5.1 2.4 1.7 2.8 2 .4 3.9.9 5.9 1.5 4.1 1.2 4.9 2.6 3.9 6.8-1.6 6.6-3.3 13.2-4.9 19.8l-5.7 22.5c-.7 2.8-1.6 3.3-4.4 2.6-1.8-.4-3.5-.9-5.2-1.4-1.6-.4-2.6-.1-3.3 1.5-1.3 3.1-2.7 6.2-4 9.4-.9 2.1-.5 2.9 1.8 3.5 3.4.9 6.8 1.7 10.2 2.5 2.5.7 5.1 1.3 7.7 2.1-1.3 5-2.4 9.6-3.6 14.2-.5 1.9.1 2.9 1.8 3.3 2.2.6 4.3 1.1 6.5 1.6 3.8.9 3.9.9 4.9-3.1 1.1-4.2 2.2-8.3 3.3-12.6l5.4 1.4c-1.1 4.7-2.2 9.1-3.3 13.5-.7 2.8-.4 3.2 2.5 4 2 .5 3.9 1 5.9 1.5 3.4.8 3.8.7 4.7-2.7 1.1-4.4 2.2-8.8 3.4-13.3 2 .3 3.7.6 5.5.8 6.1.6 12.1.9 17.9-1.4 8.5-3.4 12.3-10.6 14.1-19.1 1.6-7.6-.5-13.8-6.6-18.7-.7-.4-1.3-.8-2-1.1" class="st2"/><path d="M142.5 272.2c-2.7.5-5.1.9-7.5 1.5-1.5.4-3 1-4.4 1.8-4.2 2.5-4.9 6.5-1.5 10.1 1.5 1.7 3.3 3 5.3 4 5 2 10.2 3.5 15.3 5.4 1.2.4 2.8.9 3.4 1.9 9.4 13.9 22.4 23 37.7 29.3 12 4.8 24.6 7.7 37.5 8.4 1 .1 2 .2 3.3.4-4.6 1.6-8.9 3.4-13.3 4.6-3.9 1.1-7.9 1.6-11.8 2.6-11 2.6-21.7 6.1-31.4 12.1q-7.05 4.2-12.3 10.5c-10.3 12.2-6 34.9 8.1 41.9.4.2.7.4 1.3.8-3 5-3.2 9.8 1.6 14l-9.9 5.1c-.8-1.2-1.7-2.6-2.7-3.9-5.1-6.6-14.6-7.9-21.2-2.8-.2.2-.4.3-.6.5-3.3 2.7-4.5 6.4-2.5 10.6 1.6 3.4 3.7 6.6 6.3 9.5 8.1 8.9 18.6 13.7 30.2 16 5.3 1 10.7.9 16.1 1.4-13.5 19.7-15.6 42.1-12.5 65.7-.6.2-1.3.5-1.9.7-7.8 2.5-15.6 4.9-23.2 7.7-3 1.2-5.7 2.8-8.1 4.9-3.5 3-3.7 6.9-.3 10 2.9 2.7 6.1 4.9 9.7 6.5 11.1 5 22.6 8.1 34.9 7.8 19-.4 37.8 2 56.7 2.6 21.2.7 42.3 1.1 63.5-.2 7.9-.5 15.7-1.7 23.5-2.1 5.1-.3 10.2.3 15.3.5 23.9.7 47.9 1.5 71.8 2.1 3.5-.1 6.9.6 10.1 2.1q3.45 1.5 6.6 3.3c-2.6.1-5.1.3-7.7.3-27.6.5-55.1-.3-82.6-2.2-8.8-.6-17.4.2-26.1 1-20.9 1.9-41.9 1.9-62.9 1.2-17.5-.6-35-2-52.6-2.8-6-.3-12.1 0-18.2-.1-13.1-.4-26-3.7-37.7-9.7-3.2-1.6-6.1-3.8-8.6-6.4-5.6-5.8-5.2-13.3.9-18.5 3.1-2.6 6.6-4.6 10.3-6.1 6-2.5 12.2-4.3 18.3-6.4.6-.2 1.2-.4 1.9-.7-1.9-19.2 0-37.8 8.7-55.5-3.5-.7-6.9-1.1-10.1-2-12.2-3.2-23-8.7-31.5-18.3-3.2-3.7-6-7.7-7.1-12.6-1.3-6.1.6-11.1 5.5-15 6.1-4.8 18.1-7.7 27 .5.3.3.6.5 1.2.9.3-2.2.5-4.4.5-6.6 0-.8-1.1-1.7-1.9-2.3-11.4-9.3-13.8-27.9-9.1-38.9 3.2-7.4 8.4-13 14.9-17.5 9.8-6.9 20.9-10.9 32.3-14 .6-.2 1.2-.3 1.9-.5.2-.1.3-.3.6-.5-3-1-5.9-1.9-8.8-2.9-16.3-5.7-30.8-14.4-41.7-28.1-2.4-3.2-6-5.5-9.9-6.5-4-1.2-7.8-2.7-11.5-4.7-2.2-1.1-4.1-2.6-5.8-4.4-6.6-6.5-5.2-15.5 2.9-20 1.8-1 3.7-1.6 5.8-2.5-.6-1.8-1.2-3.5-1.9-5.3-4.4-12.4-6.7-25-5.5-38.2.5-6.4 2.1-12.6 4.7-18.4.8-1.5.8-3.2.1-4.7-3.7-8.7-6-18-6.5-27.5-.4-8.6.7-17 5.2-24.6 1-1.9 2.8-3.2 4.9-3.6 21.7-4.6 42.9-2.7 63.7 4.5 1.8.7 3.7.6 5.4-.2 34.2-15.9 70.5-27.1 107.8-33.2 24.6-4.2 49.6-5.3 74.4-3.2 47.1 4.1 89.1 20.6 124.8 52.2 4.1 3.7 8.4 7.2 13 11.2-1.2.1-1.8.1-2.4.1-10.5-.4-21-1.3-31.5-1.2-17.8.3-35.2 3-51.8 9.6-4.2 1.7-8.2 3.8-12.3 5.7l.1.8c1.5.4 3 .8 4.4 1.1 20.5 5.1 39.8 12.9 56.5 26.1 20 15.8 31.9 36.1 34.8 61.5.3 2.8.8 5.6 1.1 8.5-8-1.5-15.7-3.1-23.4-4.5-12.3-2.1-24.7-3.2-37.2-2.4-3.6.3-7.2.8-10.7 1.4-4.7.8-9 3.3-12 7l1.5 1.5c3.8 3.8 5.5 8.4 4.7 13.6-.5 3.3.8 5.2 3.3 6.9 7.7 5.3 14.5 11.9 19.9 19.5 10.3 14.5 14.4 30.6 12.9 48.2-.1.8-.3 1.6-.4 2.6h-3.6c-.7-.1-1.3-.2-2-.4.1-2 .4-3.9.4-5.8.9-25.1-10-44.2-29.7-58.9-1.4-1-2.8-2.2-4.1-3.4s-2.4-2.6-3.8-4.1c1.4-3.7 2.2-7.6.2-11.5-1.9-3.8-5.5-5.3-9.2-6.8 7.3-9.4 16.5-14.7 28.5-15.6 15.6-1.2 31 .4 46.4 2.9 3.7.6 7.3 1.4 11.5 2.1-.4-2.4-.7-4.7-1.1-6.9-4.4-23.2-17-40.9-36-54.4-15.8-11.2-33.4-17.9-52.1-22.3-5-1.2-10-2-15.6-3.1 1-1 1.8-1.8 2.8-2.5 9.6-7.7 20.6-12.7 32.3-16.1 18.2-5.1 37-7.3 55.9-6.4 1.3 0 2.5.1 4.5.2-.9-1-1.4-1.6-2-2.1-29.4-25.5-63.5-40.6-101.7-46.7-28.9-4.6-57.7-3.9-86.5.4-39.2 6-77.3 17.7-113.1 34.8-1.3.6-2.9.6-4.2-.1-13.6-5.3-28.2-7.8-42.8-7.5-6.2.1-12.5 1.3-18.7 2-1.7.2-3.2 1.3-3.8 2.9-2.8 5.9-3.6 12.2-3.4 18.6.3 10.1 3.1 19.7 7.1 28.9.8 1.6.7 3.5-.2 5-3.2 6.2-5 12.9-5.4 19.8-1.1 15.5 2.9 29.9 9 43.9.1 1 .4 1.7.8 2.6" class="st3"/><path d="M168.8 236.8c-5.9 2.8-7.1 7.8-7.6 13.1-.6 6.3.7 12.6 3.8 18.1 1.3 2.3 3.1 4.3 5.1 5.9 3.8 2.9 8.1 1.8 10.7-2.2 2.1-3.4 3.1-7.3 2.8-11.3-.1-2.4.6-3.8 2.6-5.5 3.5-3.1 6.7-6.6 9.5-10.3 7.6-9.5 14.9-19.4 22.7-28.8 7.4-8.9 15.7-16.7 25.8-22.6 21.3-12.5 41.3-3.8 52 9.1 5.6 6.7 7.4 14.7 6.9 23.2-.6 10.5-4.3 20.1-8.9 29.3-4.2 8.4-9.2 16.3-15 23.6-.9 1.1-2.1 2-3.5 2.6-6.8 2.7-13.9 4.5-21.2 5.5-8.8 1.2-17.8 1.5-26.7 1.1-8.2-.1-16.3-1.2-24.2-3.1q-3-.9-6-2.1c-5.3-2.1-10.7-2.6-16.1-.5-1 .4-2.1.2-2.8-.5-7.2-5.2-15.5-7.2-24.1-8.3-2.3-.3-4.7-.5-7-.6-1.6 0-2-1-2.3-2.2-1.2-5.6-3-11.1-3.6-16.8-1.2-12 .3-24.1 4.4-35.5q1.95-5.25 5.4-9.6c2.2-2.9 4.7-2.6 6.7.5 1.7 2.7 3.1 5.5 4.2 8.5 2.2 6.4 4.2 12.8 6.4 19.4M280 252c.1-7.6-1-14-5-19.6-4.4-6.1-11.2-6-15.5.1-.4.5-.7 1-1 1.6-5.2 11-5.4 22.1 0 33 1.8 3.6 4.6 6.4 8.8 6.3s7.1-3 9.1-6.6c2.4-4.4 3.7-9.6 3.6-14.8m14.6 132.2c.1 10.5-3.3 20.8-9.7 29.1-7 8.9-16.5 14-27.5 16.1-13.7 2.7-28 1.3-41-3.8-12.3-4.8-20.9-13.4-22.9-26.7-2.5-16.3-.4-32 10.9-44.9 10.5-12 24-17.5 40.1-15.8 10.1 1 19.8 3.5 28.8 8.3 14.3 7.5 21.6 19.3 21.3 37.7m-25.6-.7c.4-4.4-.9-8.9-2.6-13.2-2.1-5.5-6.1-8.6-12.1-8.9s-10.7 2.7-12.9 8.6c-3.5 9-3.4 19 .2 28 1.8 5 6.5 8.3 11.8 8.2 5.4.4 10.4-2.8 12.4-7.8 2.3-4.7 3.4-9.8 3.2-14.9M232.5 399c-.7-.1-1.1-.1-1.5-.2-3.2-.2-3.6-.6-3.9-3.7v-29.7c0-.9-.1-1.8-.2-2.7l-1.9-.1c-2.6-.2-5-.2-6.1 3-.4 1.1-2 1.9-3.2 2.4-1 .3-2.1.5-3.2.6v5.4l5.5.4v18.8c0 5.2 0 5.2-5.1 5.9-.1 0-.2.1-.4.3v5.2h20.1z" class="st4"/><path d="M205.3 328.1c.1-11.8-4.3-21.7-9.2-31.4-2.6-5.2-7.2-7.6-13.3-7.5-.2-1.6-.5-3.1-.8-4.8 4.7-1.5 9.1-1.7 13.3.1 10.4 4.4 21.3 5.4 32.4 5.9 12.8.5 25.5-.1 38-3.2 7.1-1.7 13.9-4.7 20.1-8.6 10.5-6.8 22-10.5 34.6-9.9 2.8.1 5.5.6 8.1 1.4 10.2 3.3 12.1 9.5 10.4 18.5-3 15.9-13.1 26-27.3 32.5-11.4 5.2-23.5 7.7-35.9 9.2-14.8 1.7-29.7 2.3-44.6 1.7-3.2-.1-6.4-.3-9.5-.8-5.4-1-10.7-2.1-16.3-3.1m97.9-41.6c3.7 1.9 7.7-.3 11.8 1.1-.4.7-.9 1.4-1.5 2-3.3 2.6-6.5 5.5-10.1 7.7-9.9 5.8-20.7 8.6-32 10.1-1.3.2-2.6 0-2.8 1.8 3.1 1.7 16.8-.1 27.6-3.5 9.1-2.8 17.5-7.7 24.4-14.3 1.8 2.5.5 5.5 2.9 7.4.6-.5 1.2-.8 1.4-1.3 2.2-4.9 1.9-11.5-4.6-14.3-6.3-2.7-11.8-.2-17.1 3.3m-51.7 231.7c3.1.2 6.1.6 9.2.7 17 .2 33.6-2.9 49.8-7.9 4.1-1.3 8.2-3 12.3-4.4.8-.3 1.8-.3 2.6 0 9.2 5.6 17.4 12.3 21.9 22.5 1.7 3.7 2.6 7.6 1.7 11.8-.7 3.3-2.6 6.1-5.4 8-5.2 3.6-11.1 4.8-17.2 5-14.3.6-28.7 1.1-43 1.6-3 .1-5.9.3-9.1.5 0-8.2-1.7-15.6-5.9-22.4s-10.1-11.2-17.1-14.8zm-71.1 7.7c-.2-1.3-.4-2.4-.5-3.5 14.6-8 43.2-10.6 64-6.4l-24.8 4.7c17.4 6.3 28.8 17.5 33 35.9-4.8.2-9.2.6-13.6.7-18.7.3-37.4.8-56.1.5-11.9-.2-23.2-3.9-33.5-10-6.8-4-6.6-8.1.6-11.7 8.8-4.2 18.1-7.4 27.7-9.4zm24 2.3v.5q-2.4-.15-4.8 0c-7 .7-13.9 1.7-20.2 4.9-1.2.6-2 2-2.9 3 1.2.7 2.4 1.5 3.6 2.2.3.1.6.2.9.2 7 .9 14 .5 20.8-1.3 4.1-1.1 8.1-2.5 11.9-4.2.9-.5 1.4-1.4 1.5-2.5 0-.5-1.3-1.4-2.1-1.6-2.8-.6-5.7-.9-8.7-1.2" class="st5"/><path d="M250.8 559.7c1.2-.1 2.4-.4 3.7-.4l47.1-1.8 24.9-.9c4.9-.1 9.7-1.1 14.2-3 9.7-4.3 13.2-11.8 10.3-22-1.7-6-5.3-10.8-9.2-15.4-.5-.6-1-1.3-1.9-2.3 2.9-.7 5.3-1.3 7.8-1.8 9.1-1.8 18.3-2.2 27.6-2.2 1.4-.2 2.7.7 3 2.1 4.3 12.8 11.7 23.7 21 33.5 5.2 5.6 11.4 10.1 17.5 14.5.3.2.6.5 1.6 1.3H415c-19.5-.5-39.1-.9-58.7-1.4-5.4-.2-10.8-.5-16.2-1.1-7.8-.8-15.5 1-23.2 1.4-6.4.3-12.7 1-19.1 1-14.5.2-28.9.1-43.4 0-1.2-.1-2.4-.2-3.6-.4z" class="st6"/><path d="M350.6 326.1c5.5 4.6 11.5 5.4 18.1 3.4.7-.2 1.4-.2 2.2-.1 1.9.3 3.8.5 5.6.6 1.7-.2 3.3.8 3.9 2.4-.6.7-1.3 1.5-2 2.3-4.6 5.5-3.1 12.2 3.6 14.7 3.5 1.2 7.1 2 10.8 2.2 10.6 1 21.3-1.2 30.8-6.1 2.9-1.5 5.8-3 8.9-4.6 1.6 3.5.7 6.7-1.1 9.6-2.8 4.8-7.2 7.8-12 10.2-9.6 4.6-19.8 7.8-30.3 9.5-4.7.8-9.5 1.3-14.2 1.9-5.6.8-10.1-1.6-14.3-5-.7-.6-1.5-1.2-2.2-1.9-3-3-6.1-5.7-10.3-7.5-4.8-2-7.6-6.7-9.5-11.6-1.4-3.5-.3-6.9 1.6-10 2.8-4 6.4-7 10.4-10" class="st5"/><path d="M358.9 482.1c-13.6-12.9-25.2-26.5-33.9-42.2-2.3-4-4.2-8.3-6.3-12.5 5.1-4.1 9.4-9 12.8-14.6.5-.7 1.3-1.2 2.2-1.2 19 .4 37.4 3.6 54.5 12.6.3.2.6.4.8.6l-3 4.6c-1-.4-1.9-.8-2.8-1.2-14.4-7.2-29.8-9.9-45.6-10.7-1-.1-2 .3-2.7.9-3 3.5-5.7 7.1-8.7 10.9 10.6 23 28.1 40.9 46.9 58.2-18 .7-26.2 3.6-49.5-12.6-.3 6 2 11.1 5 16 .4.6.9 1.2 1.5 1.6 2.6 1.7 4.2 4.6 4.2 7.8.1 2.4 3.8 4.7 6.3 4.1 10.7-2.3 21.6-3.5 32.5-3.5.5 0 1 0 1.7.1.5 1.9 1 3.7 1.5 5.5-5.4.3-10.6.2-15.8.9-7.2.9-14.2 2.3-21.4 3.4-1 .2-2 .1-2.9-.3-3.1-2.1-6-4.3-9.2-6.6.4-.6.7-1.2 1-1.8.8-1.6.3-3.5-1.2-4.5-5.1-4.6-8.2-11-8.8-17.8-.5-4.3-2.2-7.5-6-9-3.9-1.6-8-2.8-12.1-3.4-4.5-.6-9.1-.1-14.4-.1 7.4-6.7 12.4-14.2 14.5-24 .8.9 1.5 1.6 2 2.3 9.5 11.5 20 22.1 33 29.8 5.7 3.4 11.7 6.1 18.4 6.9 1.6 0 3.2-.2 5.5-.2m-49.6-19.3.2.4.2-.2zl-6.8-8.1-3.6 6.5z" class="st3"/><path d="M162.7 431.9c8.5-8 19.2-9.8 30.3-10.5 1.4-.1 2.8 0 4.1-.1 3.7-.4 7.4.7 10.4 2.8 3.5 2.4 7.7 3.9 11.7 5.6 2.6 1.1 3 1.4 2.5 4.2-.8 4.7-1.6 5.4-6.5 5.4h-2.6c-5.2-.4-9.2 1.9-12.4 5.9-1.6 2-3.4 3.8-4.9 5.8s-3.4 2.6-5.9 3c-14.8 1.9-27.7-2.6-39.3-11.3-3.7-3-6.9-6.6-9.5-10.6-3.5-5.2-1.7-9.2 4.2-11.4s10.7-.6 14.2 4.5c1.4 2.2 2.6 4.4 3.7 6.7M414.6 366l3.6-1.6c4.8-2.1 9.3-4.8 12.9-8.6 3.9-4.1 6.2-8.9 4.7-14.8-.2-.4-.2-.8-.1-1.2 1-2.3 1.8-4.9 3.3-6.9 3.7-5 4.5-6.2 5.4-13 8.5 6.2 15.4 13.3 20.5 22.1 7.1 12.1 9.9 26.3 8 40.2-5.2.3-9.9.5-14.5-2.5-11.6-7.2-24.6-10.2-37.9-12.1-1.8-.3-3.5-.6-5.3-.9-.1 0-.2-.1-.6-.7" class="st4"/><path d="M325.5 501.2c-2.2 1.3-4 2.8-6.1 3.6-14.3 5.5-29.3 9-44.5 10.3-7.1.5-14.2.1-21.3.2-1.7 0-3.3-.9-4.3-2.3-3.6-4.3-4.4-9.3-3.6-14.7.3-2 .9-3.9 1.4-6.2 7.6 6.6 16.3 5.5 24.7 3.8 8.1-1.7 16-4.3 23.9-6.8 2.5-1 4.8-2.2 7-3.6 2.5-1.5 3.4-4 4.1-6.6.6-2.2-1-3.5-2.8-4-2.9-.9-5.9-1.5-9-1.6-5.2 0-10.4.5-15.6.8-.9 0-1.9.2-2.8.3l-.3-.7c1.7-.8 3.4-2.2 5.2-2.4 7.4-1 14.8-1.4 22.2 0 2 .4 3.9 1 5.8 1.8 3.4 1.4 5.1 3.6 5.6 7.6.8 7.5 4.2 14.3 10.4 20.5" class="st3"/><path d="M396.2 292.4c0-.3.1-.6.2-.8 9.4-11.5 18.6-23.3 30.5-32.5 9.5-7.3 19.9-13.2 31.8-15.6 3.3-.6 6.7-.7 10.1-.3 5.4.7 7.4 5.1 4.5 9.9-3 4.8-7.2 8.8-12.2 11.4-12.6 6.8-24.2 15-34 25.6-.5.6-1.3 1-2.1 1-9.5-.9-19.1-.4-28.5 1.5 0 0-.1-.1-.3-.2M221 497.2c-15.3-1.4-29.5-.5-42.6 8.5.2-4 .3-7.4.7-10.8 1.4-12.6 4.9-24.5 12.5-34.9 3.4-4.6 7.2-8.9 11.1-13 1-1 3-1.4 4.6-1.5q3.6-.3 7.2.6c3.8 1.3 4.2 4.5 1.1 7.1-3.8 3-6.7 6.8-8.5 11.3-1.8 4.4-1.7 9.3.3 13.6 2.9 6.7 6.6 12.8 12.4 17.5.4.6.8 1.1 1.2 1.6" class="st5"/><path d="M351 379.1c-5 5.9-9.9 11.3-16.5 14.7-5.1 2.6-8.6 1.4-11.3-3.7-2-4-3.1-8.4-3.1-12.9-.1-1.7-.7-3.3-1.8-4.6-2.8-3.9-5.5-7.8-7.9-11.9-.9-1.9-1.5-4-1.8-6-1.3-6.8 6.6-11.5 12.3-9 3.3 1.5 6.2 3.7 8.5 6.6.4.5.6 1.1.5 1.7-1 4 .6 7.5 2.4 10.9 3.9 6.7 9.6 11.1 18.7 14.2" class="st4"/><path d="M416.4 308.4c5.1.8 10.2 1.7 15.3 2.5.5.1 1 .3 1.5.5 9 3.2 11 12.1 4.3 19-.7 1-2.1 1.2-3.1.5-14.8-7.5-30-7.5-45.5-2.8l-2.4.9c-3.8 1.7-4.8 1.4-7.3-2.4-1.9-3-1.9-6.1.9-7.9 3.7-2.3 7.6-4.2 11.7-5.6 8-2.8 16.2-4.4 24.6-4.7m-226.2 89.5c.9 3.2 1.6 6 2.4 8.8-.3.3-.4.6-.6.6-8.9.9-17.2-.6-24.1-6.6-4.5-3.9-6.4-9.1-7.3-14.8-2.1-12.9 4.4-21.2 14.3-27.9 9.6-6.5 20.4-9.9 31.4-12.7 1.1-.3 2.2-.4 3.3-.2-.9.8-1.8 1.6-2.7 2.5-3 3.4-6 6.8-8.8 10.4-.8 1.3-2.1 2.3-3.6 2.7-6 1.4-11.9 3.4-16.8 7.4-8.1 6.6-8.7 18.1-1.4 25.2 2.8 2.6 6.5 4.2 10.3 4.4 1 .2 2.2.2 3.6.2" class="st5"/><path d="M435.4 335.3c-.6.7-1.3 1.3-2 1.9-7.7 4.4-15.6 8.7-24.4 10.7-7.7 1.6-15.7 1.6-23.4-.2-2.9-.6-5.9-1.7-6.8-5.1-.9-3.6 1.2-6.1 3.8-8.2 3.5-2.9 7.8-4.3 12.1-5.3 10.4-2.4 21.2-2 31.4 1 3.2 1 6.1 2.7 9.2 4.1zm.3-26.2c-1.6-.5-3.1-1.1-4.8-1.4-16.8-3.4-33-1.1-48.5 6-.3.1-.6.3-.9.4-5.9 3.3-7.3 6.5-5.5 12.8-4.5 1.1-7-1-6.4-5.6 1.3-9.1 6.5-15.6 14-20.3 7.5-4.6 16-7.1 24.8-7.3 5.8-.1 11.7.1 17.5.6 2.1.2 4.2.9 6 1.9 5.6 2.6 6.9 7.4 3.8 12.9" class="st5"/><path d="m383 298.1-3.3 2.4c-6.5 4.9-11.1 11.1-12.5 19.3-.4 2.2-.1 4.6-.1 7.5-3.1.5-6.5.9-9.9-.3-9.2-3.2-13.8-17.3-8.3-25.3 3.4-4.9 7.9-8.1 13.2-10.6 7.9-3.8 16 .1 20.9 7" class="st5"/><path d="M229.5 521.8c4.9-.9 9-1.7 13.1-2.4.8-.1 1.7 0 2.4.2 14.5 4.8 26.1 16.6 26 34.9 0 .3-.1.6-.2 1.4H255c-2.9-14.9-11.6-26.1-25.5-34.1m14.9-9.6c-22.2-2.8-43.8-1.9-64.9 6.6q-.45-3.9-.6-7.8c.2-1.1.8-2.1 1.7-2.8 4.4-3.9 9.8-5.9 15.5-7 12.3-2.4 24.9-1.8 36.9 1.6 2.4.7 4.7 1.2 7.1 1.6 1.3.2 2.1.6 2.4 2 .5 1.8 1.2 3.6 1.9 5.8" class="st3"/><path d="M242 501.6c-13.9-1.9-24.2-8.3-30.5-21.2 5-4.4 11.3-5.6 17.7-6.7 1.8 4.4 4.8 8.2 8.8 10.8.6.5 1.2.9 1.9 1.1.8 0 1.5 0 2.3-.2-.2-.7-.3-1.6-.8-2.1-1.6-1.4-3.5-2.5-4.9-4-1.5-1.7-2.9-3.5-4.2-5.3l.5-.8c3.3-.2 6.7-.5 10-.6.9.1 1.6.7 2 1.5.9 3.6 1.6 7.2 2.3 10.9.1.3 0 .6-.2.9-3.3 4.5-4 10-4.9 15.7" class="st4"/><path d="M400.8 376.8c2.5 5 5 9.8 7.3 14.6.8 2 1.5 4 1.9 6.1 1.2 4.7.7 5.6-4.4 7.9-1.6-12.6-6.9-23.4-16.4-31.6 13-5.2 26.1-5.2 39.5-2.1 9.1 2 17.9 5.2 26.2 9.5.7.4 1.4.8 2.2 1.2-1.2.6-2.4 1.1-3.7 1.5-2.3.3-4.6.9-7.1-.3-10.8-5-22.3-7.4-34.2-8.3-3.8-.3-7.7.2-11.3 1.5" class="st3"/><path d="M202.5 327c-1-.3-2-.8-2.9-1.2-8.5-5.3-16.3-11.5-22.3-19.7-1.2-1.7-2.2-3.6-3-5.6-1.2-3.1-.3-5 2.8-6.4 1.4-.8 2.9-1.3 4.4-1.8 4.8-1 9 .4 11.6 4.7 4.8 8 8 16.9 9.5 26.2 0 1.3.1 2.6-.1 3.8m166.6 47.8c-.7 2.3-3 3.8-5.5 3.5-11.8-1-22.6-4.1-28.9-15.4-.8-1.5-1.4-3.1-1.9-4.7-.8-2.6-.2-4.4 1.4-5.4s4.5 0 6.1 1.5c2.3 2.2 4.4 5 7.1 6.1 3.5 1.5 6 3.8 8.6 6.2 3.7 3.6 7.8 6.6 13.1 8.2" class="st4"/><path d="M194.5 363.8c-4.3 10.1-5.3 20.4-4.8 30.8-6.9.5-12.4-2.7-14.6-8.1-2.4-6-.9-11.6 4.4-15.9 4.3-3.6 9.3-5.3 15-6.8m-9.3 9.8c-3 2-5.4 4-5.3 7.5.1 2.6.7 5.1 3.7 6.5.5-4.6 1-9 1.6-14m30 69.1c7.2-.8 8-1 10.1-11 1.6.5 3.3.8 4.9.9 3.1-.1 4.4 1.7 5.6 4.1a44.5 44.5 0 0 1 5 17c-1.7.8-3.1.7-4.2-.8-1.3-1.6-3.3-2.4-5.4-2.1-3.3.1-6.6 0-10.1 0-.2-3.6-2.6-6.8-5.9-8.1m11.5 2.1h6.5l-3.1-6.5zm56.6 45.3-6.6-12.4c9.3-1.1 17.9-2.3 26.6.2-.4 3.4-2.4 5.2-5 6.3-4.8 2-9.7 3.8-15 5.9M148.1 276.3c5.2-.1 10.4 1 15.1 3.2 1.6.8 4 1.6 3.5 3.9-.5 2.1-2.9 2.3-4.7 2.5-6.2.8-12.6-.1-18.4-2.5-2.1-.9-5.1-1.7-4.6-4.4.4-2.4 3.4-2.4 5.6-2.6 1.2-.1 2.4-.1 3.5-.1" class="st3"/><path d="M156.2 296H171c-.3 9.6 6.6 15.2 12.5 21.4.7.8 1.6 1.4 2.3 2.2.1.1.1.4.3 1.2-11.8-5.7-22.1-14.2-29.9-24.8" class="st5"/><path d="m175 409.3 19.3 1.7 4.5 6.5c-6.6.9-13.2 1.8-19.8 2.6-3 .4-6.3-3.7-5.6-7 .4-1.3 1-2.6 1.6-3.8" class="st3"/><path d="M229.9 462.8c-.5 2.9-1 5.3-1.4 8-6.3 1.2-12.6 2.6-18.1 6.6-1.5-2.2-2-4.9-1.6-7.5.4-1.3 1.2-2.4 2.4-3 5.7-3.3 12-4.2 18.7-4.1m-18.8.4c1.4-3.3 3.7-6.1 6.7-8.1.6-.4 1.3-.6 2-.7 3.9-.2 7.9-.4 11.8-.5 1.2.2 2.3.5 3.4 1-1.6 2.8-2.7 4.9-6.2 5-6 .1-12 .8-17.7 3.3" class="st4"/><path d="m257.8 484 4.7 9.1c-5.4 1.2-10.5-.5-13.5-4.8z" class="st3"/><path d="m256.4 481.3-6.3 2.8c-.8-3.8-1.5-7.3-2.3-11.5 4.1 2 6.3 5.2 8.6 8.7" class="st4"/><path d="M171.3 247.2c.1 2.3-1.5 4.3-3.4 4.3-1.7 0-3.1-1.7-3.2-3.8-.1-2.3 1.4-4.4 3.2-4.4s3.3 1.7 3.4 3.9M109.8 81c-.7.9-1.4 1.8-2 2.8-3 5.4-7.9 5.5-13.3 4.4-.9-.2-1.7-1.4-2.3-2.3-1.7-2.7-2.5-2.9-4.8-.8-3.4 2.9-6.9 5.3-11.5 6.3-5.7 1.3-11.6-1.3-13.7-8.2-1.8-5.4-1.5-11.3.7-16.6 1.5-3.8 4.6-6.3 7.5-8.9 1.9-1.7 1.9-2.4-.1-4-1.3-1.2-2.4-2.6-3.7-3.9-.6-.5-1.3-1.3-2-1.2-.8.2-1.4.8-1.6 1.6 0 2.8-2 3.9-3.9 5.3-1.1.9-1.8 2.2-2 3.7-.6 5.3-1 10.7-1.3 16.1.1 1.9.3 3.8.6 5.6.2 2.2-1 3.5-2.7 4.6-3.2 1.9-6.4 2.4-9.9.9-1.5-.5-3-1-4.4-1.6-3.8-2.2-5.6-5.2-3.2-9.5s2.9-9 3.6-13.6c.5-2.9-.7-3.9-3.6-3.2-3.9 1-4 1-4.4 4.8-.6 5.2-1 10.4-1.5 15.5-.1 1 0 1.9.2 2.8.8 3.6.8 7.1-2.4 9.6s-7 2.2-10.5.6c-1.7-.8-3.3-1.9-4.5-3.4-1-1.4-1.4-3-1.3-4.7.4-3.9 1.3-7.7 1.9-11.5s1-7.5 1.2-11.3c.1-1.8-.6-3.7-1-5.5s-1.3-3.5-1.2-5.2c.2-1.6.9-3.2 2-4.3 1.4-1.4 2.3-3.3 2.4-5.3.4-5.1 1.3-10.2 1.8-15.3.4-3.8.6-7.6.7-11.4.1-4.1 2.3-7.4 6.2-7.9s7.6-.8 11.2 1.3 4.7 5.7 2.8 9.4c-.2.3-.5.7-.7 1-1.7 2.4-3.2 4.8-3.5 7.9-.3 4.3-1.2 8.5-1.5 12.8-.2 2.7.8 3.3 3.5 2.7 3.7-.9 3.8-1.4 4.2-5.2.5-5.9 1.4-11.7 2.1-17.6.3-1.7.4-3.3.3-5-.4-4.9 2.3-9.1 7.1-10 4-.8 8.2.3 11.3 3 4 3.5 4.1 6.9 1 10.8-1.8 2.2-2.8 4.9-2.8 7.8-.2 4.3-.8 8.6-1.2 13-.2 2.3-.3 4.6 1.8 6.5.6.5.8 1.7 1.3 2.8l2.9.2c1.3-9.4 8.2-13.1 15.7-15.6 4.2-1.3 8.7-2 13.1-2.1 7.6-.2 11.6 3.6 11.8 11.7.2 9.8 0 19.6.1 29.4.2 1.8.6 3.5 1.3 5.1.6 1.7 1.5 3.5 2.2 5.1m-71.2.6c3.2 3.6 7.3 4.5 11.8 3.7 3.9-.7 5.2-3.3 4.2-7.2-.3-.9-.5-1.8-.5-2.7.5-6 1.3-11.9 1.7-17.9.2-2 .7-3.3 2.7-4 2.5-.9 3.6-2.7 3-4.8-.3-1.6-1-3-2-4.2-2.2-2.1-1.8-4.6-1.7-7.1.3-3.7.7-7.3 1.2-10.9s0-7.3 3-10.3c3.3-3.2 2.7-6.8-1.2-9.1-2.4-1.5-5.3-2.2-8.2-2-4.7.3-7.5 4-6.6 8.6.2 1.1.2 2.1 0 3.2-.8 6.4-1.6 12.8-2.5 19.2-.2 1.6-.4 3.1-.7 4.6-.2.5-.5.8-1 1-3.1.7-6.3 1.2-9.7 1.8 0-1.2-.1-2 0-2.7.4-3.4.7-6.9 1.3-10.3.8-5 1.1-10.2 4.7-14.4 2.1-2.5 1.1-5.6-1.8-7.2C32.7 6.6 28.6 7 24.6 8c-2 .5-4.3 3-4.1 5.4.2 2.7.2 5.3-.1 8-.5 5-1.2 10-1.8 15-.3 2.6-.4 5.2-.7 7.9-.1.6-.5 1.1-.9 1.5-3.3 2.9-3.6 4.2-2 8.1.7 1.7 1.6 3.6 1.5 5.3-.3 5.4-1 10.9-1.7 16.3-.3 2.7-.9 5.3-1.4 8-.1.7-.1 1.3 0 2 1.2 4.2 8.6 7.3 12.3 4.9 2-1.2 3.7-2.9 3.2-5.7-.4-1.8-.6-3.7-.6-5.6.5-6.4 1.3-12.8 1.8-19.1.1-1.6.7-2.5 2.4-2.7 3-.4 6-1.1 9.1-1.7-.5 7.1-.5 14-4.5 20.2-1.3 2.5-.8 3.5 1.5 5.8m53.6-4.8c0 1.7-.1 2.7 0 3.7.3 3.9 2.1 6.5 5 6.8s5.8-.3 8.1-2.6c2.6-2.6 3.1-4.8 1.3-8-1.1-2-1.7-4.3-1.6-6.6.1-9.5.1-18.9 0-28.4 0-5.6-3.6-11.3-10.6-10.6-2.8.3-5.7.2-8.5.8-6.4 1.4-12.2 4.1-16.5 9.2-2.9 3.4-2.6 6.6.3 9.9 2.4 2.7 6.5 2.3 8.9-.4 2-2.4 4.3-4.6 6.8-6.5 1.1-.8 3.2-.7 4.8-.4.4.1.8 2.3.6 3.4-.5 1-1.3 1.8-2.3 2.3-4.8 2.7-9.7 5.1-14.4 7.9-10 6-13.6 14.7-10 25.8 1.2 3.5 3.3 5.9 7 6.7 3.8.8 7.3-.5 10.5-2.4 4.3-2.6 7.9-6.3 10.6-10.6M225.3 52c1.9.6 2.9.1 3.7-1.6 2.6-6 6.8-11.4 8.4-18 .4-1.5 2.5-3.2 4.1-3.6 5.7-1.2 11.9.9 13.2 8 .2 2.1-.2 4.2-1.3 6-3.1 6-6.8 11.7-9.9 17.7-4.2 8-8.4 16.1-12.1 24.3q-3.15 6.6-4.2 13.8c-.8 7.1-7.3 8.9-12.8 7.1s-6-8.1-4.1-12c2.8-5.5 5.1-11.2 3-18-3.1-10.3-5.3-20.8-7.9-31.3q-.3-1.35-.9-2.7c-.6-1.7-1.6-1.9-3.2-1.1-1.4.7-3 .8-4.4 1.5q-2.4 1.05-4.5 2.7c-4.3 4.1-8.3 8.6-12.8 12.5-2.6 2.3-4.2 5.6-4.3 9.1-.2 2.2-.6 4.4-.6 6.6 0 1.8.3 3.6.9 5.2 1.4 3.8.1 8-3.2 10.3-3 2.1-6.8 2.7-10.3 1.7-4.4-1.1-6.6-5.2-5.8-9.9.9-5.9 1.6-11.9 2.4-17.8.8-6.6 1.7-13.1 2.5-19.7.1-1 .1-2 0-2.9-.5-.3-.7-.5-.8-.4-4.5 2.1-9.7 2.2-13.4 6.3-4.3 4.7-9 9.1-13.5 13.6-1.1 1-1.7 2.4-1.7 3.9q0 3.15-.6 6.3c-.8 3.3-.6 6.8.6 9.9 1.4 3.4-.7 7.7-4 9.5-3.2 1.8-6.9 2.1-10.4 1-3.7-1.1-6.3-6.1-4.8-10.5 1-2.8 1.1-6 1.4-9.1 1-9.1 1.9-18.3 2.7-27.5.1-1.3 0-2.5-.3-3.8-.9-3.8.6-6.9 4.4-7.8 5-1.2 10.1-2 14.4 1.9.9.8 2.2.8 3-.1l.1-.1c1.1-1 2.1-2.1 3.2-3.1 4.9-4.3 13.3-3.5 17.1 1.7 1.3 1.7 2.4 1.6 4 .7 4.2-2.3 8.8-2.3 13.3-1.2 1.1.4 2.1 1 2.9 1.9.9 1 2.4 1 3.4.1.1-.1.2-.2.2-.3.7-.7 1.4-1.3 2-2 4.5-4.8 11.8-4.5 16.7-1 1.7 1.3 2.7 1.4 4.7.2 4.6-2.7 9.6-2.5 14.3-.3 3.2 1.5 3.7 5.2 3.3 7.6-.8 4.1.9 7.7 1.1 11.5.1 1.3.4 2.3.8 3.2m-25.2-20.2c-3.9-4.4-9.5-4.4-13.4 0h.1l-8.8 7.5c.7-3.9-.7-6.5-4.1-6.8-2.1-.2-4.3-.2-6.4 0-4.9.6-6.2 2.6-5.3 7.4q.45 2.85 0 5.7c-.5 4.7-1.2 9.3-1.8 14-.7 5.6-1.3 11.2-1.9 16.9-.3 2.2-.5 4.3-.6 6.5 0 4.1 2.7 6.1 6.9 5.2h.9c2.7 1.2 4.9-.1 6.5-1.8 1.8-2 3.1-4.4 1.8-7.5-.8-1.9-1.2-3.9-1.1-6 .1-3.3.9-6.7 1-10 0-1.5.6-2.9 1.7-3.9 4.3-4.2 8.7-8.5 12.8-12.9 2.7-2.8 5.6-5.1 9.4-6 .9-.2 1.6-1.2 2.4-1.9l-.1.1c2.8-1.7 2.8-4 0-6.5m-65.7 7.1-.6-.4c.7-3-.1-5.2-3-5.8-3.7-.7-7.6-.9-11.1 1-2 1.1-2.9 3-1.8 5.1 1.4 2.7.4 5.4.3 7.9-.5 6.7-1.6 13.3-2.4 19.9-.6 4.6-1.1 9.1-1.8 13.7-.6 3.7.1 6.7 3.3 7.7 2.7.8 5.7.7 8.4-.1 4.5-1.4 5.7-4.9 4.2-9.3-.4-1.4-1.2-2.8-1.1-4.2.2-4.1.7-8.2 1.3-12.2.3-1.4 1.1-2.7 2.1-3.7 3.8-4 7.9-7.8 11.7-11.8 2.9-3.1 5.9-5.9 10.3-6.6 2.1-.2 3.7-2 3.9-4.1.3-2.3-.9-4.5-2.9-5.5-5-2.8-9.6-2.9-13.1 2h.1c-.8.4-1.6 1-2.3 1.5-2 1.6-3.7 3.3-5.5 4.9M225.9 60l-.7-.2c0-.5 0-1-.1-1.5-1.5-7.5-3.7-14.8-3.3-22.7.2-2.6-1.7-4.8-4.3-5.1-2.6-.4-5.4-.4-8 0-4.3 1-5.6 3.9-4.2 8.1.5 1.4 1 2.8 1.3 4.2 3.1 12.3 6.2 24.5 9.3 36.8.3.7.4 1.4.2 2.2-1.3 4.3-2.4 8.7-4.3 12.8s-1.9 5.8 1.3 8.6c3.2 2.7 7.9 2.4 10.6-.8q1.05-1.2 1.5-2.7c.5-1.6.6-3.3 1-4.9 2.7-11.5 8.8-21.5 14.2-31.9 3.7-7.2 8-14.1 12-21.1 1.6-2.6 1.3-6-.8-8.3-2.1-2.7-5.4-4-8.7-3.5-3.2.5-4.2 3.2-5 5.9-.5 1.7-1.1 3.4-1.9 5-2.4 4.7-4.9 9.4-7.3 14-1.1 1.6-1.9 3.4-2.8 5.1" class="st3"/><path d="M37.4 38.1c-.4-5 1.3-14.7 3.3-16.8-.7 5.9-1.4 11.3-2.1 16.6-.1.1-.8.1-1.2.2" class="st7"/><path d="M523.2 43.3c-3.6 3.8-7.1 7.7-10.8 11.5-1.5 1.5-3.3 2.8-4.5 4.4-1 1.4-1.6 2.9-1.8 4.6-.5 3.5-.8 7-1 10.5-.1 1.3.2 2.5.7 3.7 2.7 5.4-2 11.4-6.9 12.4-3.1.6-6.3.7-9.1-1.4-2.7-1.8-3.9-5-3-8.1.3-1.2.4-2.5.6-3.8-1.7-1-2.9-.8-3.8 1.1-3.6 6.9-9.9 10-17.1 11.8-3.6 1-7.4.8-10.9-.5-5.2-2-8-6.2-9.4-11.2-2.5-9.3-2-19.2 1.5-28.3.6-1.7 1.1-3.5 1.8-5.7-1.3-.1-2.4-.4-3.1-.1-2.2 1-4.3.5-6.5-.2-2.3-.7-3.8.1-4.3 2.6-.5 2.8-.7 5.7-1 8.5-.7 6.3-1.4 12.6-2.1 19-.2 2 .2 4 1.3 5.7 2.8 4.6 1.2 9.1-3.8 11.2-3 1.3-6.2 2-9.6 1-3.8-1.2-6.6-4.1-6.3-8 .6-8 1.5-16.1 2.2-24.1 0-.4.2-.8.2-1.2.6-5.2.6-5.1-4.2-6.8-3.7-1.3-7.5-2.7-8.7-6.6-3.1-.6-5.8-1.1-8.6-1.6-1.6-.3-3.2.8-3.5 2.4-.5 3-.9 6.1-1.3 9.1-.7 6.3-1.4 12.6-1.9 19 0 1.8.3 3.5 1.1 5.1 2.6 5.7.9 10.2-5.2 12.1-2.1.8-4.3 1.1-6.5.9-7-1-8.4-6-7.9-11.5.3-3.8.8-7.5 1.2-11.3.6-4.5 1.2-9 1.8-13.4.3-2.3-.1-3-2.3-3.7-3-1.1-6-2.5-9-3.8-.9-.4-1.9-.5-3.4-1 0 2.3.1 4 0 5.8-.5 10-2.7 19.6-8.5 28-5.3 7.8-14.3 11.6-23.3 8.1-6.3-2.4-9.4-7.7-10.9-13.8-1.8-8-1.5-16.3.9-24.2.3-1.1.6-2.2.9-3.4 0-.1-.1-.2-.2-.5-1.6-1-2.8-.7-4 1.1-2.4 3.6-5 7-7.8 10.4s-6.2 6-10.7 6.9c-1.6 5.8-.8 11.5-.9 17.2-.1 3.9-1.7 6.6-5.5 7.3-4.8.8-9.3.2-12.9-3.6-2.3-2.4-3.1-5.4-1.2-8.1 2.1-3 2-6.4 2.3-9.7.8-7.2 1.3-14.5 1.9-21.8.3-3.4.4-6.7.7-10.1.6-6.6 1.2-13.2 1.9-19.8.1-.8.1-1.7 0-2.5-.7-4.2 1-7 5.1-7.8 2-.4 4.2 0 6.2-.2 2.2-.2 4.3-.5 6.5-1 3-.8 5.9-1.7 8.8-2.7 6.4-2.2 15.2 2.4 18.3 8.3 1.8 3.2 2.2 6.9 1.1 10.4-.9 2.7-2 5.3-3 7.9-.3.9-.6 1.7-.9 2.6 2 1.6 3.3.5 4.6-.6 6-4.5 20.3-4.5 25.5 2.8 1.2 1.8 2.2 3.8 3.1 5.8 1.5 3 2.5 3 4.7.6q1.95-1.8 4.5-2.7c1.8-.8 3.8-1 5.6-1.8 1.5-.7 3.6-1.5 4-2.7.8-2.4 1-4.9.6-7.4-.7-2.9.2-5.9 2.2-8.1 3.9-4.4 14.9-4.9 17.3 2.6.3.8.5 1.6.5 2.4-.2 2.4.5 3.7 3 4.1 5.8 1 7.9 5 7.9 10.5 4.8 1.5 8.2-1.3 11.7-3.2.7-.4 1-2.1 1-3.2.1-2.5.1-5.1 0-7.6-.1-2.1.8-4.2 2.4-5.6 3.5-3.2 8.6-4.1 13.1-2.3 3.6 1.6 4.5 4.7 4.9 8.2.1.6.1 1.3.1 1.9 2.7 1.2 5.5 2.1 7.9 3.7 2.7 1.8 2.2 5 2.4 7.9 1.6 1 2.8.5 3.9-.8 1.3-1.5 2.7-2.9 4.3-4.2 5.2-4.1 12.1-5.3 18.3-3.1 5.1 1.6 6.9 5.3 7.8 11.5 1.2 7.9-2 14.2-7 20-.3.4-.6.8-1 1.2-1.5 1.8-1.4 3.2.7 3.7 4 1 5.9 3.8 7 7.8h3.3c.8-7.2 1.5-14.3 2.3-21.3.1-2.4.4-4.9.8-7.3.5-2.2.4-4.4-.4-6.5-.7-2.4.3-5 2.5-6.3 4.4-2.7 12.3-2.5 16.3.7 1.6 1.3 2.6.7 3.8-.4 2.3-2.1 4.6-4.3 7.9-5 3.9-1 8.1.1 11.1 2.9 3.9 3.7 2.3 9.3-3 10.8-1.5.6-3.5 1.3-5.3 1.9.2-.6.4-1.5.8-1.7q1.65-.6 3.3-.9c4.5-1.3 5.7-3.5 4.1-7.6-2.5-4.8-9.9-5.9-14.1-2.1-2 1.9-3.8 3.9-5.8 5.9l-3.1 1.9c0-4.2-.6-5.9-3.2-6.1-3.3-.3-6.7-.1-10 .6-3 .7-3.8 3.4-2.7 6.5.4.9.5 1.8.5 2.7-.8 6.5-1.6 13.1-2.5 19.6S488.9 75.4 488 82c-.2 3.4 2.3 6.4 5.8 6.6h3.5c4 .1 7.4-3 7.5-7 0-.8-.1-1.7-.3-2.5-.6-2-.9-4.1-.9-6.2 0-2.7.5-5.4.6-8.2.2-3.8 2-6.6 4.8-9.1 4.3-3.9 8.3-8.3 12.4-12.4zm-49.5 19.5 1.3-1.3c5.6-5.2 9.3-11.2 8.6-19.2-.4-4.8-1.8-9.3-6.9-11.1-5.3-1.8-10.7-1.5-15.5 1.6-5.7 3.7-9 9.3-11.5 15.5-3.3 7.8-3.6 16-3.1 24.3.1 4 1.7 7.9 4.4 10.9l2.9 2.9c.8.6 1.7 1.2 2.6 1.6 7.3 2 14 0 19.9-4.2 2.5-1.8 4.5-4.7 6.2-7.4 1.5-2.5 0-5.7-2.8-7.6-2.5-1.7-4.6-1.5-6.7.4-.7.6-1.2 1.4-1.7 2.2-1.1 2.9-3.4 4.4-6.1 5.4s-4.4.1-5.1-2.4c-.2-.9-.3-1.7-.3-2.6 5.1-2.2 10.1-4.6 13.8-9m-168.2-7.3c.6-.3 1.3-.5 1.7-1 6.6-9.1 13-18.4 17.2-28.9 1.5-3.8 2.3-7.8 1.2-11.8-1.4-5.1-9.5-10.2-14.8-9.3-4 .8-8 1.9-11.8 3.2-2 .6-3.8 1.5-6 .7-1.7-.4-3.4-.5-5-.1-4.3.7-5.4 2.2-5.5 6.5-.1 4.9-.3 9.7-.6 14.5-.3 4.9-.9 9.8-1.2 14.7-.3 3.1-.4 6.3-.6 9.4-.6 6.8-1.4 13.5-1.9 20.3 0 1.8-.6 3.5-1.7 4.9-1.6 1.7-1.1 5 .4 6.9 2.6 3.3 9 3.7 12.3 2.5 2.8-1 4.2-2.8 3.6-4.8-1.5-6 .1-12 .1-17.9 0-.6.5-1.1.8-1.6 4.8 0 10.6-4 11.8-8.2m68.9 33.1c1.7 2.2 4.2 2.2 6.6 2 7.5-.6 9.8-5.1 6.5-11.7-.8-1.7-.7-3.9-.8-5.8.1-1.5.3-2.9.5-4.3.3-2.4.4-4.8.7-7.2.6-5 1.3-10 1.8-15 .3-2.6 2.2-4.7 4.8-4.4 1 .1 2 .7 3 .8q1.8.3 3.6-.3c3.6-1.8 5-6.2 3.2-9.8-.1-.3-.3-.5-.4-.8-2.4-3.6-6.2-4.5-10.1-2-.6.4-1.2.7-1.9 1l-.5-.4c.5-1.2 1-2.3 1.7-3.4 2.1-2.9 1.5-6.9-1.3-9.1-.5-.4-1-.7-1.6-.9-2.5-.9-5.2-.9-7.6-.1-2.9 1.1-4.9 3.8-4.9 6.9v7c0 2.8-.8 5.1-3.8 6s-5.7 1.9-8.6 2.8c-1.7.5-3.2 1.5-3.4 3.3-.1 1.2.3 3 1.1 3.6 3.5 2.5 7.4 4.3 12.2 2.7-.7 6.3-1.4 12.5-2 18.6-.5 5.3-.9 10.7-1.2 16-.4 2.1.7 3.9 2.4 4.5m61.9-61.2c2.4-1.2 2.3-3.5 1.9-5.5-.5-2.4-2.3-4.2-4.7-4.7-2-.3-4.1-.3-6.1 0-2.9.4-6.4 4.5-6.3 6.8.1 3.4.1 6.9-.1 10.3-.2 1-.8 1.8-1.6 2.3-3.2 1.6-6.1 3.6-9.9 3.7-1.8 0-3.3 1.3-3.6 3-.5 1.9.5 3.9 2.3 4.7 3.5 1.8 6.9 3.5 11.2 1.6-.5 4.7-.9 9-1.5 13.2-1 7.2-2.1 14.4-1.8 21.7 0 2.4 1.5 4.5 3.8 5.3 3.1 1.3 6.5 1.1 9.4-.4 4.3-2.1 5.1-4.7 3.2-9q-1.35-2.7-1.5-5.7c.1-4.4.8-8.8 1.3-13.2.6-5 1.3-10 1.8-15 .3-2.7 1.8-4.5 4.5-4.4 1.1 0 2.2.7 3.3.8 1.3.2 2.6.1 3.9-.4 3.7-2.1 4.7-6.6 2.4-10.4-2.1-3.3-6.5-4.3-9.9-2.2l-2.5 1.4c.3-1.6.6-2.8.9-4zm-79.7 25c0-1.5.1-3 0-4.5-1.1-14.5-10.5-19.4-23-16.9-1.7.4-3.4 1.2-4.8 2.3-3.2 2.7-5.8 6.2-7.4 10.1-2.4 5.4-4 11.1-4.6 16.9-1 6.2-.4 12.7 1.9 18.6 1.7 4.2 4.3 7.9 9 9.1 8.4 2.1 14.9.5 20.6-7.1 6.2-8.5 8.4-18.2 8.3-28.5m111.1 19.2c-3.9-.3-5.3.8-4.7 3.5 2.9-.1 4-.9 4.7-3.5M2.2 466.2v-17.7h10.5v-29.3H2.2v-17.7c.9-.1 1.7-.2 2.5-.2 14.5 0 28.9 0 43.4-.1 1.9 0 2.8.6 3.5 2.4 2.3 6.5 4.8 12.9 7.3 19.4.2.5.4.9.8 2 .5-1.1.9-1.8 1.2-2.5 2.5-6.3 4.9-12.6 7.3-19 .5-1.4 1.1-2.2 2.9-2.2 14.9.1 29.8 0 44.7 0 .4.1.7.1 1.1.3V419H107v29.3h9.9v17.9zm109.6-12.6H106c-3.4-.2-4.3-1.1-4.3-4.5v-30.6c0-3.4.8-4.3 4.4-4.4 1.9-.1 3.8 0 5.8 0v-7.3c-.3-.2-.7-.3-1-.3-12.1 0-24.2 0-36.4-.1-1.8 0-2.3 1.1-2.8 2.4-2.7 7-5.4 14.1-8.1 21.1-1.2 3-2.4 6.1-3.8 9.7-4-10.6-7.8-20.5-11.4-30.4-.8-2.2-1.9-2.8-4.2-2.8-11.4.1-22.8 0-34.2.1-.8 0-1.6.1-2.6.1v7.4c2.1 0 4.1-.1 6.1 0 3.7.2 4.5 1 4.5 4.6V449c0 3.5-1 4.5-4.5 4.6-2 .1-4 0-6 0v7.4H39v-7.4c-1.7 0-3.3.1-4.9 0-2.8-.2-3.8-1.3-3.8-4v-33.3c.8 1.9 1.3 3.1 1.8 4.3l14.1 38.1c.7 1.9 1.7 2.6 3.7 2.5q5.25-.3 10.5 0c2.3.2 3.4-.6 4.2-2.8 4.2-11.4 8.6-22.8 12.9-34.2.9-2.3 1.8-4.5 2.7-6.8.4 10.7.4 21.2.4 31.7 0 3.1-1 4.2-4.2 4.4-1.5.1-3.1 0-4.6 0v7.6h39.8zM16.9 295.9v-17.6h10V249H16.8v-17.7c.8-.1 1.6-.2 2.4-.2h50.4c5.3-.1 10.6.7 15.7 2.4 6.4 2.4 11.2 6.5 12.2 13.8.8 4.6-.8 9.3-4.1 12.6-.4.4-.7.8-1 1.2 0 .1 0 .2-.1.4.3.3.6.5.9.7 6 3.8 8.5 9.3 7.9 16.2s-4.5 11.5-10.7 14.3c-4.9 2.1-10.2 3.2-15.6 3.1-19 .2-38 .2-57.1.2-.3.2-.6.1-.8-.1m5.1-5.2.9.3c17.3 0 34.7.1 52-.1 5.1.1 10.2-1.1 14.8-3.4 5-2.8 7.5-8.6 5.9-14.1-1.4-5.3-5.6-7.5-10.2-9.1-2.1-.7-4.3-1.2-6.9-1.9 2.6-1 4.9-1.7 6.9-2.7 3.7-1.9 6.6-4.7 7-9.2.5-5.4-2.3-9.4-7.9-11.7-4.7-1.8-9.7-2.6-14.7-2.5-15-.1-30 0-45 0-.9 0-1.8.1-2.7.2v7.6c2.1 0 4.1-.1 6.1 0 2.9.2 3.9 1.3 3.9 4.2v31c0 3.2-1 4.2-4.2 4.3-2 .1-3.9 0-5.9 0zm82.8 90.4H13.5v-17.8q3.45-.15 6.9 0c2.6.3 3.8-.8 4.8-3.1 5.9-13.4 12-26.8 17.8-40.2 1.3-3 2.7-4.1 6.1-4 7.1.3 14.2.2 21.4 0 2.3 0 3.6.6 4.5 2.9 5.9 13.5 12 27 17.8 40.5 1.3 3 2.9 4.4 6.2 3.9 2-.2 3.9-.2 5.9 0v17.8zm-4.7-12.3c-.2-.2-.5-.3-.8-.4-.4-.1-.8-.1-1.3-.1-4.8.7-7.4-1.8-9.2-6-2.7-6.5-5.7-12.8-8.5-19.2s-5.7-13-8.6-19.5c-.6-1.4-1.2-2.6-3.1-2.6-6.3.1-12.5.1-18.8 0-1.2-.1-2.3.6-2.6 1.8-.3.9-.8 1.7-1.2 2.6l-16.5 37.2c-1.7 3.9-4.3 6.3-8.8 5.7-.6 0-1.2.1-1.8.2v7.8h32.2v-7.7l-10.1-1c1.1-2.9 1.9-5.2 2.9-7.4.5-.8 1.4-1.3 2.3-1.4 5.7-.1 11.5-.1 17.2 0 1 0 2 .5 2.6 1.4 1.1 2.4 2.1 4.8 2.9 7.3-2.3.3-4.2.6-6 .7-3.8.1-3.8 0-3.8 4v1c0 3.3.1 3.3 3.5 3.3h34.8c.8 0 1.6-.1 2.7-.2zM13.6 551.2v-17.6c2.3-.1 4.5-.1 6.8 0 2.6.2 3.8-.9 4.8-3.1 6.1-13.8 12.3-27.5 18.3-41.4 1-2.2 2.2-2.9 4.5-2.9 7.6.1 15.3.1 23 0 1.7-.2 3.3.8 3.8 2.5 6 13.6 12.1 27.1 18 40.8 1.3 3 2.9 4.7 6.4 4.1 1.9-.2 3.8-.2 5.6 0v17.7zm86.3-12.7h-3.8c-2.9.2-5.5-1.5-6.5-4.2-.3-.8-.8-1.5-1.1-2.3-5.6-12.7-11.3-25.3-16.8-38-1-2.2-2.2-3.2-4.8-3.1q-7.5.3-15 0c-2.7-.1-4.1.7-5.2 3.3-5.3 12.4-11.1 24.7-16.4 37.2-2.1 5-5 8-10.7 7.3-.2 0-.4.1-.7.2v7.6h29.9c1.2 0 2.5.1 2.5-1.6V539l-10.4-1.2c1-2.7 1.8-4.8 2.5-6.9.3-1.2 1.4-2 2.6-1.7 6.1.1 12.1 0 18.2.1.7 0 1.8.2 2 .6 1 2.6 2.6 5 2.4 8.2l-8.7.8v7.4h40zM59.5 212.9c-8.7-.2-17.6-1.4-25.9-5.4C12 197.1 11.7 174 19.9 161.7c4.2-6.3 10.5-11.1 17.8-13.4 15.3-5.2 30.7-5.3 45.9.5 10.7 4.1 18.4 11.5 20.8 23.1 3.2 15.1-3.7 28.7-17.8 35.6-8.5 4-17.5 5.3-27.1 5.4m.3-5.1c9.6-.3 16.9-1.4 23.7-4.6 9.7-4.6 15.9-12 16.4-23.1.5-11.6-5-19.9-15.1-25.2-8.8-4.6-18.4-5.6-28.2-5.2-8.5.3-16.7 2-24 6.6-17.3 11-16.9 34.6.7 45.1 8.8 5.4 18.5 6.4 26.5 6.4" class="st3"/><path d="M303 166.4c-.3-2.6 1.1-4 2.8-4.9 10.6-6.1 21.6-11.4 34.1-12.5 8.1-.7 13.7 2.8 13.5 12.2-.2 8.8-3.2 16.8-7.4 24.4-2.1 3.8-5.9 3.9-9.4.8s-7.1-6.3-10.9-9.2c-6.1-4.6-13-7.6-20.1-9.9zm3.7-2.2c.2.4.2.6.3.6 11.9 3.9 22.6 10.5 31.3 19.5 2.4 2.5 4.6 2.2 5.9-1.1 2.2-5.4 4.2-10.9 5.9-16.4.6-2.5.8-5 .6-7.6-.2-4.3-2.4-6.6-6.6-7.4-1.8-.3-3.6-.4-5.4-.2-11.2 1.6-21.3 6.2-31.1 11.8-.3.3-.6.5-.9.8M261.4 440h15.3c4.1 7.3-.1 17.1-11.7 23-1.6-7.6-3.7-14.9-3.6-23m13.7 2.8h-11.3l2.9 15.8c6.6-3.2 9.9-9.6 8.4-15.8m226.2 40.1c.7.3 1.3.7 1.9 1.1 6.1 4.9 8.3 11.1 6.6 18.7-1.8 8.5-5.6 15.6-14.1 19.1-5.8 2.3-11.9 2-17.9 1.4-1.8-.2-3.5-.5-5.5-.8-1.1 4.5-2.2 8.9-3.4 13.3-.9 3.4-1.3 3.6-4.7 2.7-2-.5-3.9-1-5.9-1.5-2.8-.7-3.1-1.2-2.5-4 1.1-4.4 2.1-8.8 3.3-13.5l-5.4-1.3q-1.65 6.45-3.3 12.6c-1 4-1.1 4-4.9 3.1-2.2-.5-4.3-1-6.5-1.6-1.7-.5-2.4-1.4-1.8-3.3 1.3-4.6 2.4-9.2 3.6-14.2-2.6-.7-5.2-1.4-7.7-2.1-3.4-.9-6.8-1.6-10.2-2.5-2.2-.6-2.6-1.4-1.8-3.5 1.3-3.1 2.8-6.2 4-9.4.7-1.6 1.7-2 3.3-1.5 1.7.5 3.5.9 5.2 1.4 2.8.7 3.7.2 4.4-2.6l5.7-22.5c1.6-6.6 3.3-13.2 4.9-19.8 1-4.2.3-5.6-3.9-6.8-1.9-.6-3.9-1.1-5.9-1.5-1.6-.3-2.1-1.3-1.7-2.8.7-3 1.4-6 2.2-9 .5-2.1 2.1-2.1 3.8-1.6l15.7 4c.6.1 1.1.2 1.7.2 1.1-4.4 2.1-8.7 3.2-13 .9-3.3 1.2-3.5 4.7-2.7 2.2.5 4.3 1.1 6.5 1.7 2 .5 2.6 1.5 2 3.5-.7 2.2-1.2 4.5-1.7 6.8s-1 4.3-1.6 6.8l5.5 1.1 3.1-12.3c.9-3.5 1.4-3.8 4.8-2.9 2 .5 3.9 1 5.9 1.5 2.9.8 3.1 1.2 2.5 4-1.1 4.5-2.3 9-3.4 13.2 4 2.2 8.1 4 11.8 6.5 10.7 7.4 11.5 22.8 1.9 31-1.1.9-2.4 1.7-4.4 3m-35.2 53.4c1.2-4.6 2.3-9.1 3.4-13.6.8-3 1.2-3.1 4.2-2.8 4 .6 8 .9 12 1 11.7-.1 19.1-6.4 21.4-17.9 1.8-8.7-.6-14.2-8.2-18.9-.8-.5-1.5-1.1-2.7-2 1.1-.7 2.2-1.2 3.4-1.8 3.9-1.2 7.1-4.2 8.6-8 3.3-8.3 2.2-16-5.7-21.4-3.3-2.1-6.8-3.9-10.4-5.4-3-1.4-3.1-1.2-2.3-4.4 1.1-4.4 2.2-8.8 3.3-13.4l-7.9-2c-1.2 4.8-2.4 9.3-3.5 13.8-.4 1.9-1.3 2.5-3.2 1.9-1.3-.4-2.7-.7-4-1-3.7-.8-3.9-1.2-3-4.9 1-4.1 2-8.2 3.1-12.5l-7.9-1.9c-1.4 5.5-2.7 10.8-4.1 16.3-7.1-.7-13.6-3.4-20.7-4.6-.7 2.8-1.4 5.6-2.1 8.5 2.6.7 4.8 1.1 6.9 1.8 4.1 1.4 5.7 4.2 4.7 8.4-.5 2.3-1.2 4.5-1.7 6.8-3 12.1-6.1 24.3-9 36.5-1 4.3-3.7 6.1-8 4.5-1.6-.5-3.3-.9-5-1.2l-4 9.3c5.6 1.5 11.1 2.9 16.5 4.3 3.8 1 3.8 1 2.9 4.7-1.1 4.4-2.1 8.7-3.2 13.2l7.9 2c1.1-4.4 2.2-8.7 3.3-13 .9-3.6 1-3.7 4.7-2.8 1.2.3 2.5.6 3.7 1 2.7.8 2.9 1.2 2.2 3.8-1.1 4.4-2.2 8.8-3.4 13.5zM280 252c.1 5.2-1.2 10.4-3.7 15-2 3.6-4.7 6.5-9.1 6.6s-7-2.8-8.8-6.3c-5.5-11-5.3-22 0-33 .3-.6.6-1.1 1-1.6 4.3-6.1 11.1-6.2 15.5-.1 4.1 5.4 5.2 11.8 5.1 19.4m-15-7.4c2.7-.1 4.8-2.3 4.7-5s-2.3-4.8-5-4.7-4.8 2.3-4.7 5c.1 2.6 2.3 4.7 5 4.7m4 138.9c.2 5.1-.8 10.3-3.1 14.9-2 5-7 8.2-12.4 7.8-5.3.1-10.1-3.2-11.8-8.2-3.6-9-3.6-19-.2-28 2.1-5.8 6.9-8.8 12.9-8.6s10 3.4 12.1 8.9c1.6 4.3 2.9 8.8 2.5 13.2m-10 .5h-.2c.1-1.3.1-2.5 0-3.8-.4-3.4-.8-6.7-1.4-10-.3-1.7-1.8-2.8-3.5-2.7-1.9 0-2.9 1.1-3.4 2.8-.3.8-.5 1.6-.7 2.4q-1.65 11.1 0 22.2c.6 3.7 2.1 5.2 4.2 5.2 2.1-.1 3.8-2 4.2-5.6s.5-7 .8-10.5m-26.5 15v5.6h-20.1v-5.2c.3-.2.4-.3.4-.3 5.1-.7 5.1-.7 5.1-5.9v-18.8l-5.5-.4v-5.4c1.1 0 2.2-.2 3.2-.6 1.2-.6 2.8-1.4 3.2-2.4 1.1-3.2 3.5-3.2 6.1-3l1.9.1c.1.9.2 1.8.2 2.7v29.7c.2 3.1.6 3.5 3.9 3.7.5.1.9.1 1.6.2m70.7-112.5c5.3-3.5 10.8-6 17-3.3 6.5 2.8 6.8 9.4 4.6 14.3-.2.5-.9.8-1.4 1.3-2.4-1.9-1.1-5-2.9-7.4-6.9 6.6-15.2 11.5-24.4 14.3-10.8 3.5-24.5 5.3-27.6 3.5.2-1.7 1.6-1.6 2.8-1.8 11.2-1.6 22.1-4.4 32-10.1 3.6-2.1 6.8-5 10.1-7.7.6-.6 1.1-1.3 1.5-2-3.9-1.4-7.9.8-11.7-1.1" class="st0"/><path d="M204.4 528.2c2.9.4 5.9.7 8.8 1.2.8.2 2.1 1.1 2.1 1.6-.1 1-.7 1.9-1.5 2.5-3.9 1.7-7.9 3.1-11.9 4.2-6.8 1.8-13.9 2.2-20.9 1.3-.3 0-.6-.1-.9-.2-1.2-.7-2.4-1.4-3.6-2.2 1-1 1.7-2.4 2.9-3 6.3-3.3 13.3-4.2 20.2-4.9q2.4-.15 4.8 0z" class="st3"/><path d="m309.3 462.8-10.5-1.6 3.6-6.5zm-.1 0 .5.1-.2.2zm-124-89.2c-.6 5-1 9.4-1.6 14-3-1.4-3.6-3.9-3.7-6.5-.1-3.5 2.2-5.5 5.3-7.5m41.5 71.2 3.4-6.5 3.1 6.5zM38.6 81.6c-2.3-2.3-2.8-3.3-1.2-5.7 4-6.2 3.9-13.1 4.5-20.2-3.2.6-6.1 1.3-9.1 1.7-1.7.2-2.3 1.1-2.4 2.7-.6 6.4-1.3 12.8-1.8 19.1 0 1.9.2 3.8.6 5.6.5 2.8-1.3 4.4-3.2 5.7-3.7 2.3-11.1-.7-12.3-4.9-.1-.7-.1-1.3 0-2 .4-2.7 1-5.3 1.4-8 .7-5.4 1.4-10.8 1.7-16.3.1-1.7-.8-3.6-1.5-5.3-1.6-3.9-1.3-5.2 2-8.1q.75-.6.9-1.5c.3-2.6.4-5.2.7-7.9.6-5 1.3-10 1.8-15 .3-2.7.3-5.3.1-8-.5-2.5 1.8-5 3.8-5.5 4-1 8-1.3 11.8.9 2.9 1.7 3.9 4.8 1.8 7.2-3.7 4.2-3.9 9.4-4.7 14.4-.6 3.4-.9 6.9-1.3 10.3-.1.7 0 1.5 0 2.7 3.4-.6 6.6-1.2 9.7-1.8.5-.2.8-.5 1-1 .3-1.5.5-3.1.7-4.6.8-6.4 1.7-12.8 2.5-19.2.2-1.1.2-2.1 0-3.2-.9-4.6 2-8.3 6.6-8.6 2.9-.2 5.7.5 8.2 2 3.9 2.3 4.5 6 1.2 9.1-3 2.9-2.4 6.7-3 10.3s-1 7.3-1.2 10.9c-.2 2.5-.5 5 1.7 7.1 1 1.2 1.7 2.7 2 4.2.6 2.2-.4 4-3 4.8-2.1.7-2.6 1.9-2.7 4-.4 6-1.2 11.9-1.7 17.9 0 .9.2 1.8.5 2.7.9 3.9-.3 6.4-4.2 7.2-4.5.8-8.7-.1-11.9-3.7.8.3 1.5.6 2.3.9 2.5 1.5 5.4 2.2 8.2 2 3.6-.3 5.1-2.5 4.4-6-.2-.8-.3-1.7-.2-2.5.5-6.6 1.2-13.1 1.7-19.7 0-1.5 1-2.8 2.4-3.3 3.5-1.6 4-3.1 2.1-6.5-.5-.9-1.3-1.7-1.7-2.7-.6-1-1-2.2-1.1-3.4.3-4.7.8-9.3 1.3-14 .5-4.3.5-8.7 4.2-12 1.6-1.4 1.2-3.6-.3-5.1-2.7-2.7-6.6-3.8-10.3-3-3.2.6-4.9 3.3-4.7 6.6.1 1 .2 2.1.1 3.1-.9 8.2-1.9 16.5-2.9 24.7-.1.7-.7 1.8-1.2 1.9-3.8.8-7.6 1.5-11.9 2.3.3-3 .4-5.6.8-8.1 1.2-7.4.5-15.1 5.6-21.5 1.5-1.9.5-4.5-1.8-5.6-3.4-1.7-7.3-1.9-10.8-.5-2.5 1.1-3.1 2.3-2.7 5.1.1.8.2 1.7.1 2.5-1 9-1.9 18-3 26.9-.2 1.2-.8 2.3-1.7 3.1-2.3 2.1-3.1 3.5-1.6 6.1 2.1 3.4 1.7 6.9 1.4 10.4-.2 2.5-.4 5.1-.7 7.6-.3 4.1-.9 8.2-1.7 12.3-.5 2-.2 3.5 1.3 4.4 1.7 1.2 3.7 2 5.7 2.5 4.3.6 6.2-1.6 6.2-5.9 0-5.8.4-11.7.7-17.5.2-3.2.6-6.3 1-9.5l13.4-2.7c-.5 4-.8 7.5-1.3 11.1-.4 2.5-.6 5.1-1.7 7.3-1.6 2.8-3.1 5.4-1.6 8.7m53.6-4.8c-2.7 4.3-6.3 8-10.7 10.6-3.2 1.9-6.7 3.2-10.5 2.4-3.6-.7-5.8-3.1-7-6.6-3.5-11.2 0-19.9 10-25.9 4.7-2.8 9.6-5.2 14.4-7.9 1-.5 1.9-1.3 2.3-2.3.3-1-.1-3.3-.6-3.4-1.5-.3-3.6-.5-4.8.4-2.5 1.9-4.8 4.1-6.8 6.5-2.4 2.7-6.5 3-8.9.4-2.9-3.2-3.2-6.4-.3-9.9 4.3-5.1 10.1-7.9 16.5-9.2 2.8-.6 5.7-.5 8.5-.8 7-.7 10.6 5 10.6 10.6.1 9.5.1 18.9 0 28.4-.1 2.3.5 4.6 1.6 6.6 1.8 3.2 1.3 5.3-1.3 8-2.3 2.3-5.2 2.8-8.1 2.6s-4.6-2.9-5-6.8c0-1 .1-2 .1-3.7m.2-2.5c.3 1.3.6 2.6.8 4s.3 2.8.5 4.1c.3 1.6.8 3.4 2.7 3.6 2.1.3 4.2.1 6.2-.6 3.8-1.5 4.5-5 2.8-8.7-.9-2-1.4-4.2-1.5-6.4-.1-6.7.3-13.4.3-20.1 0-4-.3-8-1-12-.7-3.9-3.4-5.7-7.3-5.8-1.7-.1-3.4-.1-5.1.1-7.9.7-15 3.1-20.4 9.3-2.5 2.9-2.3 6.5.3 8.8s5.1 1.5 7.9-1.6c1.9-2.1 4.1-4.1 6.3-5.9 1.7-1.4 5-1.3 6.3 0 1.5 1.5 1 3.5.3 5.1-.6 1-1.5 1.8-2.5 2.3-4.7 2.6-9.4 4.9-14 7.5-9.2 5.3-13 13.7-10.6 23 1.9 7.3 6.8 9.8 13.8 7 1-.4 1.9-.9 2.8-1.5 4.8-3.1 8.8-6.8 11.4-12.2" class="st0"/><path d="M165.7 88.3h-.9c-5.6-1.4-6.7-3.2-5.6-8.9.2-.9.4-1.9.5-2.8 1-9 2.1-17.9 3-26.9.4-3.9 1.6-7.9.1-11.9-.7-1.9.9-3.3 2.7-3.6 2.8-.4 5.7-.6 8.5-.4 3 .2 3.8 2.7 2.2 5.3-.6 1.2-1 2.4-1.4 3.6l.8.5 11.1-10.8c.1-.1 0-.4-.1-.6h-.1c.5-.1 1.1 0 1.4-.3 3.2-2.4 6.4-2 9.8-.5.7.3 1.5.5 2.3.8h-.1c.5 2.2 1.4 4.3.1 6.5l.1-.1c-1.3.5-2.6 1-3.9 1.3-2.6.6-5 2-6.8 3.9-3.9 4.1-7.8 8.2-12 11.9-3.4 3-5.2 6.2-5 10.8q0 2.85-.6 5.7c-.5 2.5-.2 5.1.8 7.5 1.2 2.9-.1 6.2-2.9 7.6-1.1.5-2.5 1-4 1.4" class="st5"/><path d="M225.9 60c.9-1.7 1.8-3.5 2.7-5.2 2.4-4.7 4.9-9.3 7.3-14 .8-1.6 1.4-3.3 1.9-5 .8-2.7 1.8-5.3 5-5.9 3.3-.5 6.7.8 8.7 3.5 2.1 2.3 2.4 5.6.8 8.3-4 7-8.3 13.9-12 21.1-5.3 10.4-11.4 20.4-14.1 31.9-.4 1.6-.5 3.3-1 4.9-1.2 4-5.4 6.2-9.4 5q-1.5-.45-2.7-1.5c-3.2-2.8-3.1-4.6-1.3-8.6s3-8.5 4.3-12.8c.1-.7 0-1.5-.2-2.2-3.1-12.3-6.2-24.5-9.3-36.8-.4-1.4-.9-2.8-1.3-4.2-1.4-4.2-.1-7.1 4.2-8.1 2.6-.4 5.4-.4 8 0 2.6.3 4.5 2.5 4.3 5.1-.4 7.8 1.8 15.2 3.3 22.7.1.5.1 1 .1 1.5zm-.7 3.4c-.5-2.3-1-3.7-1.2-5.2-1.2-6.9-3.7-13.5-3.3-20.7.3-4.4-1.5-6.1-6-6.5-1.5-.1-3-.1-4.4.1-3.9.7-5.5 3.6-4.3 7.3.5 1.4 1.2 2.7 1.6 4.2 3.1 12.4 6.2 24.9 9.3 37.3.3.7.3 1.4.2 2.2-1.6 4.6-3.3 9.1-4.9 13.7-.4.9-.6 2-.6 3 .3 2.8 3.2 4.6 6.8 4.5s5.6-1.6 6.1-4.7 1-6.6 2.3-9.6c3.1-7.4 6.4-14.8 10.1-22 4.3-8.3 8.6-16.6 13.6-24.5 3.8-5.9.1-10.8-5.4-11.7-2.8-.5-4.6.8-5.7 3.4-1.9 4.5-3.9 8.9-6 13.3-2.6 5.4-5.3 10.3-8.2 15.9m-83.3-30.9c3.5-4.8 8.1-4.8 13.1-2 2.1 1 3.2 3.2 2.9 5.5-.2 2.1-1.8 3.7-3.8 4-4.5.8-7.4 3.6-10.3 6.6-3.8 4-7.9 7.8-11.7 11.8-1.1 1-1.8 2.3-2.2 3.8-.7 4-1.1 8.1-1.3 12.2-.1 1.4.7 2.8 1.1 4.2 1.5 4.4.2 7.9-4.2 9.3-2.7.8-5.6.8-8.4.1-3.2-.9-3.9-3.9-3.3-7.7.8-4.5 1.2-9.1 1.8-13.7.8-6.6 1.9-13.3 2.4-19.9.2-2.5 1.1-5.2-.3-7.9-1.1-2.1-.1-4.1 1.8-5.1 3.6-1.9 7.4-1.8 11.1-1 2.8.6 3.7 2.8 3 5.8v.8l.6-.4c1.8-1.7 3.5-3.3 5.3-5 .9-.5 1.7-1 2.4-1.4.1.3.1.7 0 .8-3.4 3.3-6.9 6.5-10.3 9.8l-.8-.5c.4-1.3 1-2.6 1.6-3.8 1.2-2 .8-4.3-1.4-4.9-3.4-.9-7-.7-10.3.5-1.4.6-2.9 1.9-2 3.4 1.5 2.7.7 5.4.4 8.1-1.3 11.6-2.6 23.2-4 34.8-.5 4.5.8 6.6 5.3 7.3 2.8.5 5.6-.5 7.4-2.7 1.7-1.9 2.1-4.6.9-6.8-.6-1.3-.9-2.8-.8-4.3.3-4.1.8-8.2 1.4-12.3.3-1.4.9-2.7 1.9-3.8 3.6-3.9 7.5-7.5 11.2-11.3 3.3-3.4 6.5-7 11.7-7.7 1.6-.2 2.8-1.4 2.9-3 .2-1.7-.5-3.4-2-4.4-3.3-2.5-7.7-2.5-11 0-.8.3-1.4.6-2.1.8m44.8-.7c0 .2.2.5.1.6l-11.1 10.8-.8-.5c.3-1.2.8-2.4 1.4-3.6 1.6-2.6.8-5.1-2.2-5.3-2.8-.1-5.7 0-8.5.4-1.8.2-3.5 1.7-2.7 3.6 1.6 4.1.3 8-.1 11.9-.8 9-1.9 17.9-3 26.9-.1.9-.3 1.9-.5 2.8-1.2 5.7-.1 7.4 5.6 8.9-4.2.9-7-1.2-6.9-5.2q.15-3.3.6-6.6c.6-5.6 1.2-11.2 1.9-16.9.6-4.7 1.3-9.3 1.8-14q.45-2.85 0-5.7c-.9-4.8.3-6.8 5.3-7.4 2.1-.2 4.3-.2 6.4 0 3.3.3 4.8 2.9 4.1 6.8z" class="st0"/><path d="M165.7 88.3c1.4-.3 2.8-.8 4.2-1.4 2.8-1.3 4.1-4.7 2.9-7.6-1-2.4-1.3-5-.8-7.5q.6-2.85.6-5.7c-.2-4.5 1.6-7.8 5-10.8 4.2-3.7 8.1-7.8 12-11.9 1.8-2 4.2-3.3 6.8-3.9 1.3-.4 2.6-.8 3.9-1.3-.8.7-1.5 1.7-2.4 1.9-3.9 1-6.7 3.2-9.4 6-4.2 4.4-8.5 8.6-12.8 12.9-1.1 1-1.7 2.4-1.7 3.9-.1 3.3-.9 6.6-1 10 0 2.1.4 4.1 1.1 6 1.3 3.1 0 5.5-1.8 7.5-1.7 1.8-3.9 3.1-6.6 1.9m34.4-56.5c-.8-.3-1.5-.5-2.3-.8-3.3-1.5-6.6-2-9.8.5-.4.3-1 .2-1.4.3 4-4.4 9.6-4.4 13.5 0" class="st0"/><path d="M200.1 38.3c1.3-2.2.4-4.3-.1-6.5 2.9 2.5 2.9 4.8.1 6.5m236.2-11c-.3 1.2-.5 2.4-.9 4l2.5-1.5c3.3-2.1 7.7-1.1 9.9 2.2 2.3 3.8 1.4 8.4-2.4 10.4-1.2.5-2.6.6-3.9.4-1.1-.1-2.2-.8-3.3-.8-2.6-.1-4.2 1.8-4.5 4.4-.5 5-1.2 10-1.8 15-.5 4.4-1.1 8.8-1.3 13.2q.15 3 1.5 5.7c1.9 4.3 1 6.9-3.2 9-2.9 1.6-6.4 1.7-9.4.4-2.3-.8-3.8-2.9-3.8-5.3-.3-7.3.8-14.5 1.8-21.7.6-4.2 1-8.5 1.5-13.2-4.3 1.8-7.8.2-11.2-1.6-1.8-.8-2.8-2.8-2.3-4.7.3-1.7 1.9-3 3.6-3 3.8-.1 6.8-2.1 9.9-3.7.9-.5 1.5-1.3 1.6-2.3.2-3.4.2-6.9.1-10.3-.1-2.2 3.5-6.4 6.3-6.8 2-.3 4.1-.3 6.1 0 2.4.4 4.2 2.3 4.7 4.7.9 2.1 1 4.4-1.5 5.5.3-1.6 1.2-3.4.8-4.9-1.2-4.8-7.8-6.2-12.1-2.8-1.6 1.3-3 2.6-2.8 5 .2 3.1-.1 6.3-.1 9.5.1 1.5-.8 3-2.3 3.4-3.5 1.3-6.9 2.6-10.4 3.8-2.6.9-3.8 3.1-2.1 4.7 2.4 2.5 5.9 3.7 9.3 3.3 1.2-.2 2.4-1 3.9-1.7-.6 4.9-1.2 9.4-1.7 14-.8 6.9-1.5 13.7-2.1 20.6-.4 3.9 1.5 6.8 4.7 7.2q3 .45 6-.3 7.2-2.1 3.6-8.7c-1.1-2.1-1.6-4.6-1.2-7 1.1-8.8 2.1-17.7 2.8-26.6.2-2.8 1.2-4.5 3.8-5 1.6-.3 3.3-.2 4.9.1 1.6.4 3.1.6 4.5-.5 2.4-2.3 2.9-5.9 1.1-8.7-1.9-2.7-5.6-3.4-8.4-1.6-1.3.8-2.5 1.6-4.2 2.6 0-1.4.2-2.8.5-4.1.1-1 .9-1.6 1.5-2.3m-61.9 61.3c-1.7-.6-2.8-2.4-2.6-4.2.4-5.4.7-10.7 1.2-16 .6-6.2 1.3-12.3 2-18.6-4.8 1.6-8.7-.2-12.2-2.7-.9-.6-1.2-2.4-1.1-3.6.2-1.8 1.7-2.8 3.4-3.3 2.9-.9 5.7-1.9 8.6-2.8s3.8-3.2 3.8-6v-7c0-3.1 2-5.9 4.9-6.9 2.5-.9 5.2-.8 7.6.1 3.4 1.2 5.1 5 3.8 8.3-.2.6-.5 1.1-.9 1.6-.7 1.1-1.3 2.2-1.7 3.4l.5.4c.6-.3 1.3-.6 1.9-1 3.8-2.5 7.6-1.7 10.1 2 2.2 3.4 1.2 7.9-2.1 10.1-.2.1-.4.2-.5.3-1.1.4-2.4.5-3.6.3-1-.1-2-.7-3-.8-2.6-.3-4.5 1.8-4.8 4.4-.5 5-1.2 10-1.8 15-.3 2.4-.4 4.8-.7 7.2-.3 1.4-.5 2.9-.5 4.3.1 2 0 4.2.8 5.8 3.3 6.6 1 11.1-6.5 11.7-2.4.2-4.9.3-6.6-2l1.8.3c2.7.9 5.5.7 8.1-.3 4.1-1.8 4.8-4 2.9-8.1-.8-1.7-1.6-3.6-1.5-5.4.8-9.5 2.1-19 2.9-28.5.3-3 1.6-4.8 4.4-5.3 1.3-.2 2.6.2 4 .2s3 .4 4.2-.1c2.7-1.3 3.6-6.1 1.9-8.7-1.8-2.7-5.5-3.6-8.4-2l-4.1 2.6c-.3-2.9-.2-5.1 1.8-6.9 1.6-1.4 1.5-3.1.6-5-1.3-2.5-4-3.9-7.2-3.6-3 .2-6.7 2.7-7.3 5-.1.5-.1 1.1-.1 1.6 0 3.3-.1 6.5-.1 9.8.1 1.4-.7 2.7-2.1 3.2-3.5 1.3-6.9 2.7-10.4 3.9-1.6.5-3.1 1.1-3 2.8.2 1.3 1 2.4 2.1 3.1 3.6 2 7.3 3.8 11.3.2.1 1.1.1 2.1 0 3.2-.9 7.8-2 15.6-2.8 23.4-.5 4.8-1.8 9.9 1 14.6m-68.9-33.1c-1.3 4.2-7 8.2-12 8.3-.2.5-.8 1-.8 1.6 0 6-1.7 11.9-.1 17.9.5 2-.9 3.8-3.6 4.8-3.3 1.2-9.8.8-12.3-2.5-1.5-1.9-2-5.2-.4-6.9 1.1-1.4 1.8-3.1 1.7-4.9.5-6.8 1.3-13.6 1.9-20.3.3-3.1.4-6.3.6-9.4.4-4.9.9-9.8 1.2-14.7s.5-9.7.6-14.5c.1-4.3 1.2-5.8 5.5-6.5 1.7-.4 3.4-.4 5 .1 2.3.8 4-.1 6-.7 3.9-1.3 7.8-2.4 11.8-3.2 5.3-.9 13.4 4.2 14.8 9.3 1.1 3.9.4 8-1.2 11.8-4.3 10.5-10.6 19.8-17.2 28.9-.2.4-1 .6-1.5.9q.45-1.05 1.2-2.1c5.9-7.7 11-16 15.1-24.7 1.3-3 2.4-6.1 3.2-9.3.7-2.5.1-5.2-1.5-7.2-3.8-5.3-8.9-7.5-15.3-6.1-3.1.7-6.1 2-9.1 2.8-1.9.4-3.9.6-5.9.7-2.5.3-5 .4-7.5.9-1.6.3-2.3 1.6-2.2 3.4.1 1.7.1 3.4-.1 5.1-.5 6-1.1 12.1-1.5 18.1-1 12.4-1.9 24.8-2.9 37.2 0 1.9-.7 3.8-1.9 5.3-1.7 2-1.4 3.9.4 5.7 2.7 2.7 6.7 3.7 10.3 2.6 2.9-.7 3.6-2.3 3.6-5.1 0-5.3.2-10.6.4-15.9.1-1.6.4-3.2.7-4.8 2 1.2 4.5 1 6.2-.6 2.4-2 4.6-4.1 6.8-6m51.1-3.2c.1 10.4-2.1 20.1-8.4 28.5-5.7 7.6-12.2 9.2-20.6 7.1-4.7-1.2-7.3-4.9-9-9.1-2.3-5.9-2.9-12.3-1.9-18.6.7-5.8 2.2-11.5 4.6-16.9 1.7-3.9 4.2-7.3 7.4-10.1 1.4-1.1 3-1.9 4.8-2.3 12.5-2.5 22 2.4 23 16.9.2 1.6.1 3.1.1 4.5m-39.1 13.3c-.2 4.7.7 9.4 2.5 13.7 2.8 6.6 10.1 10.1 17 8.1 5.5-1.5 9.2-5.1 12-9.8 6-10 7.6-20.9 6.1-32.2-.7-5.4-3.2-9.9-8.4-12.4-7.8-3.8-17.1-1.2-21.8 6.1-5.2 8-7.3 17-7.4 26.5m203.8-22.3c-4.1 4.2-8 8.5-12.4 12.4-2.8 2.5-4.6 5.3-4.8 9.1-.1 2.7-.6 5.4-.6 8.2 0 2.1.4 4.2.9 6.2 1.2 3.8-.9 7.9-4.7 9.1-.8.3-1.6.4-2.5.3h-3.5c-3.4-.2-6-3.2-5.8-6.6.9-6.6 1.7-13.3 2.6-19.9s1.7-13.1 2.5-19.6c.1-.9-.1-1.9-.5-2.7-1.1-3.1-.4-5.8 2.7-6.5 3.3-.7 6.7-.9 10-.6 2.6.2 3.3 1.9 3.2 6.1l3.1-1.9.4.4-6 5.9-.8-.5c.5-1.3 1-2.5 1.6-3.8 1.5-2.5.6-4.9-2.2-5.2-2.8-.2-5.7-.1-8.5.4-2.9.6-3.4 2.1-2.5 5 .3 1 .5 2 .4 3.1-1.5 13.1-3 26.2-4.6 39.2-.4 3.1 1 5.8 4 6.2 2.3.4 4.6.1 6.8-.7 3.2-1.3 4.1-4.7 3.1-8.1-.6-1.9-.9-3.9-.8-5.9.2-3.9.7-7.8 1.2-11.7.1-.8.4-1.6 1-2.2 5.4-5.4 10.9-10.8 16.3-16.1zM451 83.5c-2.7-3-4.3-6.8-4.4-10.8-.5-8.2-.2-16.4 3.1-24.3 2.6-6.1 5.8-11.7 11.5-15.5 4.8-3.2 10.2-3.4 15.5-1.6 5.1 1.7 6.5 6.3 6.9 11.1.7 8-3 14-8.6 19.1l-.4-.4c1.2-1.6 2.5-3.2 3.7-4.8 3.5-4.4 4.9-10 4-15.6-.7-4.8-3.3-8.2-7.4-9-6.1-1.1-11.6 0-16.2 4.4-4.1 3.9-7.1 8.8-8.7 14.3-3.4 11-4.8 22 1.3 32.7zm22-14.4c2.1-2 4.3-2.1 6.7-.4 2.8 1.9 4.2 5.2 2.8 7.6-1.7 2.7-3.6 5.6-6.2 7.4-5.8 4.3-12.5 6.2-19.8 4.3-.9-.4-1.8-.9-2.6-1.5l.4-.4c1.3.6 2.8 1.1 4.2 1.4 8.8.9 16.3-1.8 21.8-9 2-2.7 2.1-5.2.4-7.3-2.1-2.6-3.8-3-7.3-1.6z" class="st0"/><path d="M473.7 62.8c-3.7 4.4-8.7 6.8-13.9 8.9 0 .9.1 1.8.3 2.6.7 2.6 2.6 3.5 5.1 2.4s5-2.5 6.1-5.4c.5-.8 1-1.6 1.7-2.2l.3.4c-1.1 4.2-4.4 7.4-8.5 8.6-2.5.7-4.4 0-5.2-2.2-.4-1.3-.7-2.5-.9-3.8l14.6-9.5c.2 0 .3.1.4.2m38-25.9c1.9-2 3.8-4 5.8-5.9 4.2-3.9 11.6-2.7 14.1 2.1l-.2.2c-.3-.1-.6-.3-.8-.4-5.1-4.2-9.1-4-14 .5-1.5 1.4-3 2.7-4.5 4-.2-.2-.3-.4-.4-.5" class="st0"/><path d="M523.2 43.3h-2l-.4-.4c1.4-2.2 3.6-2.7 5.9-3.3 4.3-1.2 4.9-1.9 4.6-6.4l.2-.2c1.6 4.1.4 6.4-4.1 7.6q-1.65.3-3.3.9c-.5.2-.6 1.1-.9 1.8m-55.5 28.3c-.7 2.7-1.8 3.4-4.7 3.5-.6-2.8.8-3.9 4.7-3.5m-13.8 14.8-2.9-2.9.4-.4 2.9 2.8zM475 61.5l-1.3 1.3-.4-.4 1.3-1.3c.1.2.3.3.4.4" class="st0"/><path d="M111.8 453.6v7.5H72v-7.6c1.5 0 3 .1 4.6 0 3.2-.2 4.1-1.3 4.2-4.4 0-10.5 0-21.1-.4-31.7-.9 2.3-1.9 4.5-2.7 6.8-4.3 11.4-8.7 22.8-12.9 34.2-.8 2.1-1.8 3-4.2 2.8q-5.25-.3-10.5 0c-2 .1-3-.7-3.7-2.5l-14.1-38.1c-.5-1.2-1-2.5-1.8-4.3v33.3c0 2.8 1 3.8 3.8 4 1.6.1 3.1 0 4.9 0v7.4H7.4v-7.4c2.1 0 4.1.1 6.1 0 3.6-.1 4.6-1.1 4.6-4.6v-30.3c0-3.7-.8-4.5-4.5-4.6-2-.1-4 0-6.1 0v-7.5c.9 0 1.7-.1 2.6-.1 11.4 0 22.8 0 34.2-.1 2.2 0 3.3.5 4.2 2.8 3.6 10 7.4 19.9 11.4 30.4 1.4-3.6 2.6-6.7 3.8-9.7 2.7-7 5.4-14 8.1-21.1.5-1.4 1-2.4 2.8-2.4 12.1.1 24.2 0 36.4.1.3.1.7.2 1 .3v7.2c-2 0-3.9-.1-5.8 0-3.5.2-4.3 1-4.4 4.4V449c0 3.4.9 4.3 4.3 4.5h2.9z" class="st5"/><path d="M22 290.7v-7.3h6c3.2-.1 4.2-1.1 4.2-4.3v-30.9c0-2.9-1.1-4.1-3.9-4.2-2-.1-4 0-6.1 0v-7.6c.9-.1 1.8-.2 2.7-.2h45c5-.1 10 .8 14.7 2.5 5.7 2.3 8.4 6.3 7.9 11.7-.4 4.5-3.2 7.3-7 9.2-2 1-4.3 1.7-6.9 2.7 2.6.7 4.8 1.2 6.9 1.9 4.6 1.6 8.8 3.7 10.2 9.1 1.6 5.5-.9 11.4-5.9 14.1-4.6 2.3-9.7 3.5-14.8 3.4-17.3.2-34.7.1-52 .1-.4.1-.7-.1-1-.2m31.5-24.3v17.3c4.8-.3 9.3-.3 13.8-1s6.5-3.4 6.6-7.3c.1-4.3-1.7-7-6.3-7.9s-9.3-.8-14.1-1.1m0-7.6c4.8.1 9.5.4 13.9-1.3 2.8-1.1 4-3.3 4.1-6.2.2-2.7-1.5-5.1-4-6-4.6-1.7-9.3-1.6-14-1.2z" class="st1"/><path d="M100.1 368.8v7.5c-1 .1-1.9.2-2.7.2H62.6c-3.4 0-3.4-.1-3.5-3.3v-1c0-3.9 0-3.9 3.8-4 1.8-.1 3.7-.4 6-.7-.8-2.5-1.8-4.9-2.9-7.3-.6-.8-1.6-1.3-2.6-1.4-5.7-.1-11.5-.1-17.2 0-.9.1-1.8.6-2.3 1.4-1 2.1-1.8 4.4-2.9 7.4l10.1 1v7.7H18.9v-7.8c.6-.1 1.2-.2 1.8-.2 4.5.5 7.1-1.8 8.8-5.7L46 325.4c.4-.9.8-1.7 1.2-2.6.3-1.2 1.4-1.9 2.6-1.8 6.3.1 12.5.1 18.8 0 2 0 2.5 1.2 3.1 2.6 2.9 6.5 5.7 13 8.6 19.5s5.8 12.8 8.5 19.2c1.8 4.2 4.3 6.7 9.2 6 .4 0 .9 0 1.3.1.3.1.5.2.8.4M48 350.9h14.1c-2.4-5.4-4.7-10.5-7.2-16-2.4 5.6-4.6 10.7-6.9 16" class="st4"/><path d="M99.9 538.5v7.7H59.8v-7.4l8.7-.8c.3-3.2-1.4-5.7-2.4-8.2-.2-.4-1.3-.6-2-.6-6.1 0-12.1 0-18.2-.1-1.2-.2-2.3.6-2.6 1.7-.7 2.1-1.5 4.2-2.5 6.9l10.4 1.2v5.9c0 1.8-1.3 1.6-2.5 1.6H18.9v-7.6c.3-.1.5-.3.7-.2 5.7.6 8.6-2.3 10.7-7.3 5.3-12.5 11-24.7 16.4-37.2 1.1-2.6 2.5-3.4 5.2-3.3q7.5.3 15 0c2.6-.1 3.8.8 4.8 3.1 5.5 12.7 11.2 25.3 16.8 38 .3.8.8 1.5 1.1 2.3 1 2.7 3.6 4.4 6.5 4.2zm-37.6-17.6c-2.5-5.5-4.8-10.7-7.4-16.4l-7.1 16.4z" class="st6"/><path d="M59.8 207.9c-7.9 0-17.7-1.1-26.5-6.4-17.6-10.6-17.9-34.1-.7-45.1 7.3-4.6 15.5-6.3 24-6.6 9.8-.4 19.3.5 28.2 5.2 10.1 5.3 15.6 13.6 15.1 25.2-.5 11.1-6.7 18.5-16.4 23.1-6.8 3.2-14.2 4.3-23.7 4.6m16.1-29.1c-.3-3-.5-6.1-1.1-9.1-1.5-7.2-5.3-11-12.4-11.8-8.8-1-14.9 2.2-17.1 11-1.8 6.9-1.7 14.2.4 21.1 1.6 5.4 5.2 8.8 10.8 9.5 9.6 1.3 16.3-2 18.3-12.1.6-2.8.8-5.7 1.1-8.6" class="st5"/><path d="M306.7 164.2c.3-.3.6-.6 1-.8 9.7-5.6 19.8-10.2 31.1-11.8 1.8-.2 3.6-.2 5.4.2 4.2.8 6.3 3.1 6.6 7.4.2 2.5 0 5.1-.6 7.6-1.7 5.6-3.6 11.1-5.9 16.4-1.4 3.3-3.5 3.6-5.9 1.1-8.7-8.9-19.5-15.6-31.3-19.5-.2.1-.2-.1-.4-.6m-31.6 278.6c1.5 6.2-1.8 12.6-8.4 15.8l-2.9-15.8z" class="st4"/><path d="m466.1 536.3-7.9-2.1c1.2-4.7 2.3-9.1 3.4-13.5.7-2.7.5-3.1-2.2-3.8-1.2-.4-2.5-.7-3.7-1-3.7-1-3.9-.8-4.7 2.8-1.1 4.3-2.2 8.6-3.3 13l-7.9-2c1.1-4.5 2.1-8.8 3.2-13.2.9-3.7.9-3.7-2.9-4.7-5.4-1.4-10.9-2.8-16.5-4.3l4-9.3c1.7.3 3.4.7 5 1.2 4.3 1.5 7-.2 8-4.5 3-12.2 6-24.3 9-36.5.6-2.3 1.2-4.5 1.7-6.8 1-4.2-.6-7.1-4.7-8.4-2.1-.7-4.3-1.2-6.9-1.8.7-2.8 1.4-5.6 2.1-8.5 7.1 1.3 13.6 4 20.7 4.6 1.4-5.6 2.7-10.8 4.1-16.3l7.9 1.9c-1.1 4.3-2.1 8.4-3.1 12.5-1 3.8-.8 4.1 3 4.9 1.3.3 2.7.6 4 1 1.8.6 2.7 0 3.2-1.9 1.1-4.5 2.3-9 3.5-13.8l7.9 2c-1.1 4.6-2.2 9-3.3 13.4-.8 3.1-.8 3 2.3 4.4 3.6 1.5 7.1 3.3 10.4 5.4 7.9 5.4 9 13.1 5.7 21.4-1.5 3.8-4.7 6.8-8.6 8-1.2.5-2.3 1.1-3.4 1.8 1.3 1 1.9 1.6 2.7 2 7.6 4.7 10 10.2 8.2 18.9-2.4 11.5-9.7 17.8-21.4 17.9-4-.1-8.1-.4-12-1-3-.4-3.4-.2-4.2 2.8q-1.5 6.6-3.3 13.5m-5.2-56c-2 7.8-3.8 15.1-5.7 22.4-.4 1.1.2 2.4 1.3 2.8.1.1.3.1.4.1 1.5.5 3.1.8 4.6 1.1 6 1.4 12 2.8 18.2 1.5 4.4-.9 7.6-3.2 8.9-7.6 1.4-4.3-.2-9-3.9-11.6-1.9-1.5-4-2.8-6.3-3.7-4-1.5-8.2-2.7-12.4-3.9-1.5-.6-3.1-.8-5.1-1.1m17.9-4.7.1-.4c1.3 0 2.6-.1 3.8-.2 4.4-.7 7.8-2.7 9.1-7.3 1.4-4.3-.2-9-4-11.5-1.6-1.2-3.4-2.2-5.3-2.9-3.6-1.2-7.3-2.2-11-3.2-2.7-.7-3.1-.4-3.8 2.2-1.5 5.8-2.8 11.5-4.3 17.3-.5 1.8 0 2.7 1.7 3 4.6 1 9.1 2 13.7 3M265 244.6c-2.7.1-4.9-2-5-4.7s2-4.9 4.7-5 4.9 2 5 4.7c.1 2.6-2 4.8-4.7 5" class="st3"/><path d="M259 384c-.3 3.5-.5 7-.8 10.5s-2 5.5-4.2 5.6-3.6-1.5-4.2-5.2q-1.65-11.1 0-22.2c.2-.8.4-1.6.7-2.4.5-1.7 1.5-2.8 3.4-2.8 1.7-.1 3.2 1 3.5 2.7.7 3.3 1 6.7 1.4 10 .1 1.3.1 2.5 0 3.8z" class="st4"/><path d="M38.6 81.6c-1.5-3.3 0-5.9 1.5-8.8 1.1-2.2 1.3-4.8 1.7-7.3.5-3.5.9-7.1 1.3-11.1l-13.4 2.7c-.3 3.2-.8 6.3-1 9.5-.3 5.8-.7 11.7-.7 17.5 0 4.3-1.9 6.5-6.2 5.9q-3.15-.6-5.7-2.4c-1.5-.9-1.8-2.4-1.3-4.4.8-4.1 1.4-8.2 1.7-12.3.3-2.5.5-5.1.7-7.6.4-3.6.7-7-1.4-10.4-1.5-2.5-.7-4 1.6-6.1.9-.8 1.5-1.9 1.7-3.1 1.1-9 2.1-18 3-26.9.1-.8 0-1.7-.1-2.5-.4-2.7.2-4 2.7-5.1 3.5-1.4 7.5-1.2 10.8.5 2.4 1.1 3.4 3.7 1.8 5.6-5.1 6.4-4.5 14.2-5.6 21.5-.4 2.5-.5 5-.8 8.1 4.2-.8 8.1-1.5 11.9-2.3.5-.1 1.2-1.2 1.2-1.9 1.1-8.2 2-16.4 2.9-24.7 0-1.1 0-2.1-.1-3.2-.2-3.3 1.6-5.9 4.7-6.6 3.7-.8 7.6.3 10.3 3 1.6 1.5 2 3.7.3 5.1-3.7 3.3-3.7 7.7-4.2 12-.5 4.6-1 9.3-1.3 14 .1 1.2.4 2.4 1.1 3.4.4 1 1.2 1.8 1.7 2.7 1.8 3.4 1.4 4.9-2.1 6.5-1.3.5-2.3 1.8-2.3 3.3-.6 6.6-1.2 13.1-1.7 19.7 0 .9 0 1.7.2 2.5.7 3.5-.8 5.7-4.4 6-2.9.2-5.8-.5-8.2-2-.8-.3-1.5-.6-2.3-.8m53.8-7.3c-2.6 5.4-6.6 9.1-11.4 12.1-.9.6-1.8 1.1-2.8 1.5-7 2.8-11.9.3-13.8-7-2.4-9.4 1.3-17.7 10.6-23 4.6-2.6 9.4-5 14-7.5 1-.5 1.9-1.3 2.5-2.3.7-1.6 1.2-3.5-.3-5.1-1.3-1.3-4.6-1.4-6.3 0-2.3 1.8-4.4 3.7-6.3 5.8-2.8 3.2-5.3 3.8-7.9 1.6s-2.9-5.9-.3-8.8c5.4-6.2 12.5-8.6 20.4-9.3 1.7-.1 3.4-.2 5.1-.1 3.9.2 6.6 2 7.3 5.8.7 4 1 8 1 12 .1 6.7-.3 13.4-.3 20.1.1 2.2.6 4.4 1.5 6.4 1.7 3.7 1 7.1-2.8 8.7-2 .7-4.1.9-6.2.6-1.9-.1-2.4-1.9-2.7-3.5-.2-1.4-.3-2.8-.5-4.1s-.5-2.6-.8-3.9m-14.8-6c-.8.9-1.5 1.9-2.1 2.9-.8 2 .2 5.7 1.9 6.6 2.4 1.2 3.6-1 5-2.2.1-.1.1-.2.2-.2 4-5 6.4-10.8 8.8-17.3-3.1 1.7-5.8 2.8-8 4.4s-3.9 3.8-5.8 5.8m147.6-4.9c2.9-5.7 5.6-10.6 8.1-15.6 2.1-4.4 4.1-8.8 6-13.3 1.2-2.6 2.9-3.9 5.7-3.4 5.6.9 9.2 5.8 5.4 11.7-5 7.8-9.4 16.2-13.6 24.5-3.7 7.2-7 14.5-10.1 22-1.3 3-1.7 6.3-2.3 9.6s-2.5 4.7-6.1 4.7-6.4-1.8-6.8-4.5c0-1 .1-2.1.6-3 1.6-4.6 3.4-9.1 4.9-13.7.1-.7.1-1.5-.2-2.2-3.1-12.4-6.2-24.9-9.3-37.3-.4-1.4-1.1-2.8-1.6-4.2-1.2-3.7.4-6.6 4.3-7.3 1.5-.2 3-.3 4.4-.1 4.4.4 6.2 2.1 6 6.5-.4 7.2 2.1 13.8 3.3 20.7.4 1.2.8 2.7 1.3 4.9m-83.3-30.9c.7-.2 1.3-.5 1.9-.8 3.3-2.5 7.7-2.5 11 0 1.5.9 2.2 2.7 2 4.4-.1 1.6-1.3 2.8-2.9 3-5.1.8-8.3 4.3-11.7 7.7-3.7 3.8-7.6 7.5-11.2 11.3-1 1.1-1.6 2.4-1.9 3.8-.6 4.1-1.1 8.2-1.4 12.3-.1 1.5.2 2.9.8 4.3 1.2 2.2.9 5-.9 6.8-1.8 2.2-4.6 3.2-7.4 2.7-4.5-.7-5.9-2.8-5.3-7.3 1.4-11.6 2.7-23.2 4-34.8.3-2.7 1-5.3-.4-8.1-.8-1.6.6-2.8 2-3.4 3.3-1.3 6.9-1.5 10.3-.5 2.2.5 2.7 2.8 1.4 4.9-.6 1.2-1.2 2.5-1.6 3.8l.8.5c3.4-3.3 6.9-6.5 10.3-9.8.4-.2.2-.6.2-.8" class="st5"/><path d="m134.4 38.9-.6.4v-.8z" class="st3"/><path d="M436.3 27.3c-.6.7-1.5 1.2-1.7 2-.3 1.4-.4 2.7-.5 4.1 1.7-1.1 3-1.8 4.2-2.6 2.8-1.8 6.5-1.1 8.4 1.6 1.8 2.8 1.3 6.5-1.1 8.7-1.4 1.2-2.9.9-4.5.5s-3.3-.4-4.9-.1c-2.6.5-3.5 2.3-3.8 5-.7 8.9-1.7 17.8-2.8 26.6-.4 2.4.1 4.9 1.2 7 2.4 4.5 1.2 7.3-3.6 8.7q-3 .75-6 .3c-3.2-.4-5.1-3.3-4.7-7.2.6-6.9 1.4-13.7 2.1-20.6.5-4.5 1.1-9 1.7-14-1.5.7-2.6 1.5-3.9 1.7-3.4.4-6.9-.8-9.3-3.3-1.7-1.6-.5-3.8 2.1-4.7 3.5-1.2 6.9-2.6 10.4-3.8 1.5-.4 2.4-1.8 2.3-3.4 0-3.2.3-6.3.1-9.5-.2-2.5 1.2-3.8 2.8-5 4.3-3.4 10.9-1.9 12.1 2.8.6 1.7-.3 3.5-.6 5.2m-61.9 61.3c-2.8-4.8-1.5-9.8-1-14.8.8-7.8 1.9-15.6 2.8-23.4.1-1.1.1-2.1 0-3.2-4 3.6-7.8 1.8-11.3-.2-1.1-.7-1.9-1.8-2.1-3.1-.1-1.6 1.4-2.3 3-2.8 3.5-1.1 6.9-2.6 10.4-3.9 1.4-.4 2.2-1.8 2.1-3.2 0-3.3.1-6.5.1-9.8 0-.5 0-1.1.1-1.6.6-2.3 4.2-4.7 7.3-5 3.3-.3 6 1.1 7.2 3.6.9 1.8 1 3.5-.6 4.9-2 1.8-2 4.1-1.8 6.9l4.1-2.6c2.9-1.6 6.5-.7 8.4 2 1.7 2.7.9 7.5-1.9 8.7-1.2.5-2.8.2-4.2.1s-2.7-.5-4-.2c-2.8.5-4.1 2.3-4.4 5.3-.8 9.5-2.1 19-2.9 28.5-.1 1.8.7 3.7 1.5 5.4 1.9 4.1 1.2 6.3-2.9 8.1-2.6 1.1-5.4 1.2-8.1.3-.6.2-1.2.1-1.8 0m-68.9-33.1c-2.2 1.9-4.4 3.9-6.7 5.8-1.7 1.6-4.3 1.8-6.2.6-.3 1.6-.5 3.2-.7 4.8-.2 5.3-.4 10.6-.4 15.9 0 2.8-.7 4.4-3.6 5.1-3.7 1.1-7.6.1-10.3-2.6-1.9-1.8-2.1-3.6-.4-5.7 1.2-1.5 1.9-3.3 1.9-5.3 1-12.4 1.9-24.8 2.9-37.2.5-6 1.1-12.1 1.5-18.1.2-1.7.2-3.4.1-5.1-.1-1.8.6-3.1 2.2-3.4 2.5-.5 5-.6 7.5-.9 2-.1 3.9-.3 5.8-.7 3.1-.8 6-2.1 9.1-2.8 6.4-1.3 11.5.8 15.3 6.1 1.6 2 2.2 4.7 1.6 7.2-.8 3.2-1.8 6.3-3.1 9.3-4.2 8.7-9.2 17-15.1 24.7-.6.9-1 1.6-1.4 2.3m-6.4-14.8c.3 0 .7 0 .8-.1 4.5-5.9 8.8-12 10.8-19.3.3-1.1.2-2.8-.4-3.5-1-.6-2.3-.7-3.4-.2-3.5 2-6.9 4.1-10.1 6.5-.8.8-1.3 1.9-1.3 3.1-.5 4.8-.9 9.5-1.3 14.3-.1 1.6-.1 3.2-.2 4.8l1 .4zm18.4 24.9c.2-9.5 2.2-18.5 7.5-26.6 4.7-7.3 14.1-9.9 21.9-6.1 5.2 2.5 7.7 7 8.4 12.4 1.5 11.4-.2 22.3-6.1 32.2-2.8 4.7-6.5 8.4-12 9.8-6.9 2.1-14.3-1.4-17.1-8.1-2-4.2-2.9-8.9-2.6-13.6m11.2 1.6c.5 2.8.7 5.7 1.7 8.3 1.5 3.9 4.8 4 7.1.6.4-.6.8-1.3 1.1-1.9 4-8.1 5.9-17.1 5.5-26.2-.1-1.7-.6-3.3-1.4-4.8-1.5-2.8-4.3-3.2-6.6-.9-1.1 1.2-2 2.5-2.8 3.9-3.4 6.5-3.8 13.7-4.6 21m202.6-34c.3 4.5-.2 5.2-4.6 6.4-2.2.6-4.5 1.2-5.9 3.3-5.4 5.4-10.9 10.7-16.3 16.1-.6.6-.9 1.4-1 2.2-.5 3.9-1 7.8-1.2 11.7-.1 2 .2 4 .8 5.9 1 3.4.1 6.8-3.1 8.1-2.2.8-4.5 1.1-6.8.7-3-.4-4.4-3.1-4-6.2 1.6-13.1 3.1-26.1 4.6-39.2.1-1-.1-2.1-.4-3.1-.9-2.9-.4-4.4 2.5-5 2.8-.5 5.7-.7 8.5-.4 2.9.2 3.7 2.7 2.2 5.2-.6 1.2-1.1 2.5-1.6 3.8l.8.5 6-5.9c1.5-1.3 3-2.6 4.5-4 4.9-4.6 8.8-4.7 14-.5.5.1.7.3 1 .4m-56.7 27.9-1.3 1.3-14.6 9.6q.3 1.95.9 3.9c.8 2.2 2.7 3 5.2 2.2 4.2-1.1 7.4-4.4 8.5-8.6 3.5-1.3 5.2-1 7.3 1.6 1.7 2.1 1.6 4.6-.4 7.3-5.5 7.3-13 9.9-21.8 9-1.4-.3-2.9-.8-4.2-1.4l-2.9-2.9c-6.1-10.7-4.7-21.7-1.3-32.7 1.6-5.4 4.6-10.3 8.7-14.3 4.6-4.4 10.2-5.5 16.2-4.4 4.1.8 6.6 4.2 7.4 9 .9 5.5-.5 11.2-4 15.6-1.2 1.7-2.4 3.3-3.7 4.8m-8.8-16.5c-.8.7-2 1.2-2.4 2.1-1.6 4-3.1 8.1-4.5 12.2-.1 1-.1 1.9 0 2.9 7-3.5 11.6-8.3 13.8-15.2.5-1.7.6-3.5-1.5-4.3-2.2-.9-4.6.1-5.4 2.3" class="st5"/><path d="M53.5 266.4c4.9.3 9.6.3 14.1 1.1s6.3 3.5 6.3 7.9c-.1 3.9-2.1 6.6-6.6 7.3s-9 .7-13.8 1zm5 12.2c3-.3 5.6-.6 8.2-1 1.5-.3 2.4-1.6 2.2-3.1-.2-1.1-1.1-2-2.2-2.2-2.7-.4-5.4-.6-8.2-.9zm-5.1-19.7v-14.8c4.8-.4 9.5-.5 14 1.2 2.5.9 4.2 3.3 4 6-.1 2.9-1.2 5.1-4.1 6.2-4.4 1.8-9.1 1.4-13.9 1.4m5-5c2.2-.3 4.3-.4 6.3-.9.8-.3 1.3-.9 1.5-1.7-.2-.8-.8-1.4-1.5-1.6-2-.4-4.1-.6-6.3-.8zm-10.4 97c2.3-5.3 4.5-10.4 7-16 2.5 5.6 4.8 10.7 7.2 16zm14.3 170H47.8l7.1-16.4c2.6 5.7 5 10.9 7.4 16.4m13.6-342.1c-.3 2.9-.5 5.8-1 8.6-2 10.1-8.7 13.4-18.3 12.1-5.6-.8-9.2-4.2-10.8-9.5-2-6.9-2.2-14.2-.4-21.1 2.2-8.8 8.3-12 17.1-11 7 .8 10.9 4.6 12.4 11.8.5 2.9.7 6 1 9.1m-4.9 0c-.6-3.4-.9-6.9-1.9-10.2-1.3-4.2-4.3-5.8-9.2-5.8s-7.8 1.7-9.1 5.9c-2.1 6.5-2.1 13.5 0 20 1.3 4.2 4.2 5.9 9.1 5.9 5.1 0 8-1.6 9.3-6 .8-3.2 1.4-6.5 1.8-9.8" class="st3"/><path d="M460.9 480.2c2 .4 3.7.6 5.3 1 4.2 1.2 8.4 2.4 12.4 3.9 2.3.9 4.4 2.1 6.3 3.7 3.7 2.6 5.2 7.3 3.9 11.6-1.2 4.5-4.5 6.8-8.9 7.6-6.2 1.2-12.2-.2-18.2-1.5-1.5-.4-3.1-.7-4.6-1.1-1.2-.2-2-1.3-1.8-2.4 0-.2.1-.3.1-.4 1.6-7.3 3.5-14.5 5.5-22.4m-3.1 22.5c6.3 2.5 15.4 3.7 20.8 3 4.1-.6 6.8-2.6 7.5-5.8 1-4-.3-7.1-3.8-9.6-5.8-4.1-12.5-5.5-19.5-7.1-1.7 6.5-3.3 12.9-5 19.5m21-27.2c-4.5-1-9.1-2-13.6-3-1.7-.4-2.2-1.3-1.7-3 1.5-5.7 2.9-11.5 4.3-17.3.7-2.6 1.1-2.9 3.8-2.2 3.7 1 7.4 1.9 11 3.2 1.9.7 3.7 1.7 5.3 2.9 3.8 2.5 5.4 7.2 4 11.5-1.3 4.6-4.7 6.6-9.1 7.3-1.3.1-2.5.2-3.8.2zm-12.9-5.3c1.7.6 3.5 1 5.3 1.3 3.7.5 7.4.8 11.1.8 3.2-.1 6-1.7 6.9-5.2s.3-6.4-2.6-8.6c-4.8-3.6-10.4-5-16.3-6-1.4 6-2.9 11.8-4.4 17.7M77.6 68.3c1.9-2 3.7-4.2 5.9-5.9s4.9-2.8 8-4.4c-2.3 6.6-4.8 12.4-8.8 17.4-.1.1-.1.2-.2.2-1.4 1.2-2.6 3.4-5 2.2-1.7-.8-2.8-4.5-1.9-6.6.5-1 1.2-2 2-2.9-.3 1-.6 1.9-1 2.9-.9 2.6-.2 4.5 2.5 6 5.3-4.2 7.5-10.3 9.9-16.4-1.3.4-2.6.9-3.7 1.7-2.6 1.9-5.2 3.9-7.7 5.8m221.5-27.6-4.2 5.9-1-.4c.1-1.6.1-3.2.2-4.8.4-4.8.8-9.5 1.3-14.3 0-1.2.5-2.3 1.3-3.1 3.3-2.3 6.6-4.5 10.1-6.5 1.1-.5 2.4-.4 3.4.2.7.6.7 2.4.4 3.5-2.1 7.3-6.3 13.4-10.8 19.3 0 .3-.4.2-.7.2.8-1.3 1.8-2.7 2.6-4.1 2.8-4.8 6.3-9.2 7.8-14.7.4-1.5.9-2.8-.4-4-4.5 1.1-8 3.8-11.4 6.6-.7.7-1.1 1.7-1.2 2.7-.4 3-.6 6-.8 9.1-.2 2.5-.5 5-.7 8.1zm29.6 26.5c.8-7.3 1.2-14.5 4.8-21 .7-1.4 1.7-2.7 2.8-3.9 2.2-2.3 5.1-1.9 6.6.9.8 1.5 1.2 3.1 1.3 4.8.4 9.1-1.5 18.1-5.5 26.2-.3.7-.7 1.3-1.1 1.9-2.3 3.4-5.6 3.3-7.1-.6-1.1-2.6-1.3-5.5-1.8-8.3m8.7-23.3c-.4.1-1.1 0-1.2.2-1.2 1.8-2.2 3.8-3.2 5.8-2.9 7.2-2.8 14.8-2.5 22.4-.1 2.6 1.8 4.9 4.4 5.4.9-1.1 1.7-2.2 2.5-3.5 4.3-8.3 6.3-17.5 5.6-26.8-.2-1.7-.9-3.4-2.1-4.7-1.3-1.5-3-.8-3.5 1.2m128.3.7c.9-2.2 3.3-3.3 5.5-2.5 2.1.9 2 2.7 1.5 4.3-2.2 6.9-6.8 11.7-13.8 15.2-.1-1-.1-1.9 0-2.9 1.4-4.1 2.8-8.2 4.5-12.2.3-.7 1.5-1.3 2.3-1.9-.3.6-.7 1.2-1.1 1.8-2.5 4.1-4.5 8.3-4.7 13.4 6-2.4 10.1-8.8 11.9-13.6.2-1.1-.1-2.2-.9-3-.5-.5-1.9-.2-2.8.1-.8.3-1.6.8-2.4 1.3m-407.3 234v-7.1c2.8.3 5.5.5 8.2.9 1.5.3 2.4 1.6 2.2 3.1-.2 1.1-1.1 2-2.2 2.2-2.5.4-5.2.6-8.2.9m8.2-3.1v-1.1c-1.5-.3-3-.4-4.6-.5-.5 0-1 .7-1.5 1.1.5.4 1 1.2 1.4 1.2 1.5-.2 3.1-.4 4.7-.7m-8.2-21.6v-5c2.2.2 4.3.4 6.3.8.8.3 1.3.9 1.5 1.6-.2.8-.7 1.4-1.5 1.7-1.9.5-4 .6-6.3.9M71 178.7q-.6 4.95-1.8 9.9c-1.3 4.4-4.2 6-9.3 6-4.9 0-7.8-1.7-9.1-5.9-2.1-6.5-2.1-13.5 0-20 1.3-4.1 4.3-5.9 9.1-5.9s7.9 1.6 9.2 5.8c1 3.3 1.3 6.8 1.9 10.1m-2.2.3-.2-.1-.3-5.4c-.1-1.1-.3-2.1-.6-3.1-1.2-3.9-3.1-5.4-7.2-5.4-4.9-.1-6.6 1.1-8 5.2-1.6 4.8-1.2 9.6-.6 14.5.9 6.7 3.9 8.8 10.5 7.7 2.5-.2 4.6-2.1 5-4.6.6-3 .9-5.9 1.4-8.8" class="st0"/><path d="M457.8 502.7c1.7-6.6 3.3-13 4.9-19.6 7 1.6 13.8 3 19.5 7.1 3.5 2.5 4.8 5.6 3.8 9.6-.8 3.2-3.4 5.2-7.5 5.8-5.3.8-14.4-.4-20.7-2.9m8.1-32.5c1.5-5.9 2.9-11.6 4.4-17.7 5.9 1 11.5 2.4 16.3 6 2.9 2.2 3.5 5.2 2.6 8.6s-3.7 5.1-6.9 5.2c-3.7 0-7.4-.3-11.1-.8-1.7-.3-3.5-.8-5.3-1.3" class="st2"/><path d="M77.6 68.3c2.6-1.9 5.1-3.9 7.7-5.8 1.1-.8 2.4-1.4 3.7-1.7-2.4 6-4.6 12.2-9.9 16.3-2.7-1.5-3.4-3.4-2.5-6 .3-1 .7-1.9 1-2.8m221.5-27.6-4.1 3.7c.3-3.1.5-5.6.7-8.1.3-3 .5-6.1.8-9.1.1-1 .5-2 1.2-2.7 3.4-2.8 6.9-5.5 11.4-6.6 1.3 1.2.8 2.6.4 4-1.5 5.5-5 9.9-7.8 14.7-.8 1.4-1.8 2.7-2.6 4.1m-.9-5c.8-.2 1.8-.2 2.2-.6 2.9-3.7 5.8-7.5 7-12.1.1-.4-.1-.8-.2-1.1-6.5-1.1-10.7 5.5-9 13.8m39.1 8.3c.6-2.1 2.2-2.8 3.5-1.3 1.2 1.3 1.9 2.9 2.1 4.7.6 9.3-1.3 18.6-5.6 26.8-.7 1.2-1.6 2.4-2.5 3.5-2.6-.5-4.5-2.7-4.4-5.4-.3-7.6-.4-15.2 2.5-22.4.9-2 2-3.9 3.2-5.8.2-.2.9-.1 1.2-.1-.1.6-.3 1.3-.6 1.9-5.1 8.9-5 18.6-4.4 28.3 2.7 1.1 3.8-.3 4.6-2.2 3.4-7.7 4.9-16.2 4.4-24.6-.2-3.3-.6-3.5-4-3.4m128.4.6c.8-.5 1.6-1 2.5-1.3.9-.2 2.3-.6 2.8-.1.8.8 1.1 1.9.9 3-1.8 4.8-5.9 11.2-11.9 13.6.1-5.1 2.1-9.3 4.7-13.4.3-.6.7-1.2 1-1.8" class="st3"/><path d="M66.6 275.5q-2.4.45-4.8.6c-.5 0-.9-.8-1.4-1.2.5-.4 1-1.1 1.5-1.1 1.5.1 3.1.3 4.6.5z" class="st7"/><path d="M298.2 35.7c-1.7-8.4 2.5-14.9 9-13.9.1.3.3.8.2 1.1-1.2 4.7-4.1 8.4-7 12.1-.4.6-1.5.5-2.2.7m39.1 8.3c3.4 0 3.8.1 4 3.4.6 8.4-.9 16.9-4.4 24.6-.8 1.9-2 3.3-4.6 2.2-.6-9.7-.7-19.4 4.4-28.3.3-.6.5-1.3.6-1.9m-2.4 24.8c3-6.9 4.5-15.9 3.3-19.7-3.1 6.1-3.7 12.6-3.3 19.7" class="st0"/><path d="M334.9 68.8c-.4-7.2.2-13.6 3.3-19.7 1.2 3.9-.3 12.9-3.3 19.7" class="st3"/></g></g></svg>
