<svg xmlns="http://www.w3.org/2000/svg" viewBox="0 0 1024 1024"><path fill="#EEFEF4" d="M0 0h1024v1024H0z"/><path fill="#0D804B" d="M488 291h47v56h23v169h23v-26h23v-23h26v-22h24v-19h49v64h-25v51h-24v27h-24v29h-48v46h-47v-71h-47v-56h-22V347h22z"/><path fill="#0F824D" d="M557 347h1v169h23v-26h23v-23h26v-22h24v-19h49v64h-25v51h-24v27h-24v29h-48v46h-47V516h22z"/><path fill="#0D814B" d="M320 426h48v20h24v21h27v23h23v26h23v56h23v71h-46v-46h-48v-28h-25v-27h-24v-52h-25z"/><path fill="#0E804B" d="M630 597h103v23h-28v23h-26v23h-74v-45h25z"/><path fill="#0E7F4C" d="M291 597h102v24h25v45h-74v-23h-26v-23h-27z"/><path fill="#10814D" d="M535 666h70v23h25v21h24v23h-73v-21h-23v-21h-23z"/><path fill="#10804C" d="M418 666h70v25h-23v21h-23v21h-72v-23h23v-21h25z"/><path fill="#DDF6E9" d="M465 464h1v52h22v56h-23v-56h-23v-26h-23v-1h24v26h22z"/><path fill="#EBFDF4" d="M536 516h21v55h-21z"/><path fill="#BDEDD6" d="M582 597h48v24h-25v-1h24v-22h-45v47c-7.875 1.125-7.875 1.125-11.65.93l-2.547-.122-2.674-.148-2.795-.139a2562 2562 0 0 1-8.771-.458l-5.975-.303q-7.295-.37-14.588-.76v-1h47z"/><path fill="#11774A" d="M605 621h25v2l-3 1-1-1h-18l-1 41h70l-1-18 2-2v21h-73z"/><path fill="#C3F7DF" d="M369 569h24v28H291v-1l99-1c1-3 1.116-4.974 1.098-8.105l-.008-2.685-.027-3.398L391 570h-22z"/><path fill="#B0E4CC" d="m584.762 488.121 3.388.147 3.538.17 3.572.158q4.37.195 8.74.404v1h-23v26h-23v-1l3.867-.184 5.008-.254 2.55-.119 2.442-.127 2.254-.11c1.968-.106 1.968-.106 3.879-1.206q.08-4.594.125-9.187l.05-2.62c.035-4.515-.02-8.094-2.175-12.193 3.248-1.083 5.359-1.034 8.762-.879"/><path fill="#127446" d="M582 714c2 2 2 2 2.195 5.258l-.07 3.867-.055 3.883L584 730q12.412.141 24.826.207 5.765.03 11.528.095 5.564.063 11.127.078a423 423 0 0 1 4.244.043c1.981.029 3.964.03 5.946.031l3.418.027c3.527-.583 4.691-1.754 6.911-4.481l1 6h-71z"/><path fill="#C8EFDA" d="M442 643h46v1l-1.924.06c-2.9.096-5.8.205-8.701.315l-3.027.094c-5.199.206-9.43.733-14.348 2.531-3.07.266-3.07.266-6.125.25l-3.07.016c-3.97-.376-6.009-1.47-8.805-4.266"/><path fill="#D2FCE8" d="M487 292h1v55h-22v-1l20-3z"/><path fill="#18794C" d="M653 538c3.272.11 6.542.24 9.813.375l2.814.094 2.705.117 2.491.095C673 539 673 539 676 541h-22v27h-24v-1h23l-.254-5.836-.308-7.539-.17-3.852-.147-3.671-.143-3.396C652 540 652 540 653 538"/><path fill="#C8F4DE" d="M679 643h26v1q-4.594.506-9.187 1l-2.62.29c-4.08.437-8.08.846-12.193.71l.035 2.344c.052 5.995-.123 11.729-1.035 17.656h-1z"/><path fill="#1A6F4A" d="M605 621h25v2l-3 1-1-1-20-1v42h-1z"/><path fill="#187147" d="M536 625h1l1 17q8.463-.177 16.925-.372 2.88-.066 5.759-.125 4.137-.088 8.273-.187l2.604-.05 2.427-.06 2.133-.048c2.106-.103 2.106-.103 4.879-1.158v3h-45z"/><path fill="#C1EED8" d="M558 712h23v21c-2-2-2-2-2.195-5.695q.02-2.216.07-4.43l.027-2.285c.024-1.864.06-3.727.098-5.59-2.66-.886-4.48-1.18-7.23-1.316l-2.432-.127-2.525-.12-2.561-.13A2136 2136 0 0 0 558 713z"/><path fill="#378B65" d="M654 426h29v1l-2.156.044c-3.22.075-6.438.171-9.657.269l-3.392.068-3.252.107-3 .08c-2.564.241-2.564.241-4.357 1.754-1.945 2.751-1.722 5.561-1.874 8.865l-.199 3.856L655 445h-1z"/><path fill="#C6F1DB" d="M291 620h27v23h-1v-19h-2v-3h-24z"/><path fill="#D0FBE6" d="M536 336h1l1 8 3.867-.105q2.505-.043 5.008-.082l2.55-.077 2.442-.029 2.254-.048L556 344l2 3h-22z"/><path fill="#C3ECD9" d="M442 712h23v1l-3.36.184-4.39.254-2.21.119c-4.123.224-4.123.224-8.158 1.025C445 715 445 715 443 714v19h-1z"/><path fill="#1B774E" d="M466 347h22l-1 4-21-3z"/><path fill="#D6FCEA" d="m289 592 5 1v2l2 1h-5v24h-1v-20h-2l.5-1.875c.576-2.086.576-2.086.5-4.125z"/><path fill="#16754A" d="M535 572h23v4h-4v-3h-19z"/><path fill="#E0FEF1" d="M626 598h3v17c-2.453-2.453-2.354-3.488-2.625-6.875l-.227-2.617C626 603 626 600.512 626 598"/><path fill="#18774E" d="M651 726c2 2 2 2 2 6h-14l2-2 3.438.125c3.612.285 3.612.285 5.5-2.125z"/><path fill="#E0FEF1" d="M653 426h1v19h-5l1.492-1.059c2.272-2.924 1.76-5.367 1.633-9.003-.21-6.769-.21-6.769.875-8.938"/><path fill="#E2FEF0" d="M628 444c2 2 2 2 2.227 3.971-.01.786-.02 1.571-.032 2.38l-.02 2.579-.05 2.695-.027 2.719A843 843 0 0 1 630 465h-1v-17h-2z"/><path fill="#FAF8F4" d="M468 518h2c.188 2.875.188 2.875 0 6l-3 2q-.062-3.5 0-7z"/><path fill="#197E4E" d="M533 341c1.063 1.875 1.063 1.875 2 4l-1 2-4-1v-4z"/></svg>
