<?xml version="1.0" encoding="UTF-8"?>
<svg version="1.1" xmlns="http://www.w3.org/2000/svg" width="1024" height="1024">
<path d="M0 0 C337.92 0 675.84 0 1024 0 C1024 337.92 1024 675.84 1024 1024 C686.08 1024 348.16 1024 0 1024 C0 686.08 0 348.16 0 0 Z " fill="#EEFEF4" transform="translate(0,0)"/>
<path d="M0 0 C15.51 0 31.02 0 47 0 C47 18.48 47 36.96 47 56 C54.59 56 62.18 56 70 56 C70 111.77 70 167.54 70 225 C77.59 225 85.18 225 93 225 C93 216.42 93 207.84 93 199 C100.59 199 108.18 199 116 199 C116 191.41 116 183.82 116 176 C124.58 176 133.16 176 142 176 C142 168.74 142 161.48 142 154 C149.92 154 157.84 154 166 154 C166 147.73 166 141.46 166 135 C182.17 135 198.34 135 215 135 C215 156.12 215 177.24 215 199 C206.75 199 198.5 199 190 199 C190 215.83 190 232.66 190 250 C182.08 250 174.16 250 166 250 C166 258.91 166 267.82 166 277 C158.08 277 150.16 277 142 277 C142 286.57 142 296.14 142 306 C126.16 306 110.32 306 94 306 C94 321.18 94 336.36 94 352 C78.49 352 62.98 352 47 352 C47 328.57 47 305.14 47 281 C31.49 281 15.98 281 0 281 C0 262.52 0 244.04 0 225 C-7.26 225 -14.52 225 -22 225 C-22 169.23 -22 113.46 -22 56 C-14.74 56 -7.48 56 0 56 C0 37.52 0 19.04 0 0 Z " fill="#0D804B" transform="translate(488,291)"/>
<path d="M0 0 C0.33 0 0.66 0 1 0 C1 55.77 1 111.54 1 169 C8.59 169 16.18 169 24 169 C24 160.42 24 151.84 24 143 C31.59 143 39.18 143 47 143 C47 135.41 47 127.82 47 120 C55.58 120 64.16 120 73 120 C73 112.74 73 105.48 73 98 C80.92 98 88.84 98 97 98 C97 91.73 97 85.46 97 79 C113.17 79 129.34 79 146 79 C146 100.12 146 121.24 146 143 C137.75 143 129.5 143 121 143 C121 159.83 121 176.66 121 194 C113.08 194 105.16 194 97 194 C97 202.91 97 211.82 97 221 C89.08 221 81.16 221 73 221 C73 230.57 73 240.14 73 250 C57.16 250 41.32 250 25 250 C25 265.18 25 280.36 25 296 C9.49 296 -6.02 296 -22 296 C-22 254.09 -22 212.18 -22 169 C-14.74 169 -7.48 169 0 169 C0 113.23 0 57.46 0 0 Z " fill="#0F824D" transform="translate(557,347)"/>
<path d="M0 0 C15.84 0 31.68 0 48 0 C48 6.6 48 13.2 48 20 C55.92 20 63.84 20 72 20 C72 26.93 72 33.86 72 41 C80.91 41 89.82 41 99 41 C99 48.59 99 56.18 99 64 C106.59 64 114.18 64 122 64 C122 72.58 122 81.16 122 90 C129.59 90 137.18 90 145 90 C145 108.48 145 126.96 145 146 C152.59 146 160.18 146 168 146 C168 169.43 168 192.86 168 217 C152.82 217 137.64 217 122 217 C122 201.82 122 186.64 122 171 C106.16 171 90.32 171 74 171 C74 161.76 74 152.52 74 143 C65.75 143 57.5 143 49 143 C49 134.09 49 125.18 49 116 C41.08 116 33.16 116 25 116 C25 98.84 25 81.68 25 64 C16.75 64 8.5 64 0 64 C0 42.88 0 21.76 0 0 Z " fill="#0D814B" transform="translate(320,426)"/>
<path d="M0 0 C33.99 0 67.98 0 103 0 C103 7.59 103 15.18 103 23 C93.76 23 84.52 23 75 23 C75 30.59 75 38.18 75 46 C66.42 46 57.84 46 49 46 C49 53.59 49 61.18 49 69 C24.58 69 0.16 69 -25 69 C-25 54.15 -25 39.3 -25 24 C-16.75 24 -8.5 24 0 24 C0 16.08 0 8.16 0 0 Z " fill="#0E804B" transform="translate(630,597)"/>
<path d="M0 0 C33.66 0 67.32 0 102 0 C102 7.92 102 15.84 102 24 C110.25 24 118.5 24 127 24 C127 38.85 127 53.7 127 69 C102.58 69 78.16 69 53 69 C53 61.41 53 53.82 53 46 C44.42 46 35.84 46 27 46 C27 38.41 27 30.82 27 23 C18.09 23 9.18 23 0 23 C0 15.41 0 7.82 0 0 Z " fill="#0E7F4C" transform="translate(291,597)"/>
<path d="M0 0 C23.1 0 46.2 0 70 0 C70 7.59 70 15.18 70 23 C78.25 23 86.5 23 95 23 C95 29.93 95 36.86 95 44 C102.92 44 110.84 44 119 44 C119 51.59 119 59.18 119 67 C94.91 67 70.82 67 46 67 C46 60.07 46 53.14 46 46 C38.41 46 30.82 46 23 46 C23 39.07 23 32.14 23 25 C15.41 25 7.82 25 0 25 C0 16.75 0 8.5 0 0 Z " fill="#10814D" transform="translate(535,666)"/>
<path d="M0 0 C23.1 0 46.2 0 70 0 C70 8.25 70 16.5 70 25 C62.41 25 54.82 25 47 25 C47 31.93 47 38.86 47 46 C39.41 46 31.82 46 24 46 C24 52.93 24 59.86 24 67 C0.24 67 -23.52 67 -48 67 C-48 59.41 -48 51.82 -48 44 C-40.41 44 -32.82 44 -25 44 C-25 37.07 -25 30.14 -25 23 C-16.75 23 -8.5 23 0 23 C0 15.41 0 7.82 0 0 Z " fill="#10804C" transform="translate(418,666)"/>
<path d="M0 0 C0.33 0 0.66 0 1 0 C1 17.16 1 34.32 1 52 C8.26 52 15.52 52 23 52 C23 70.48 23 88.96 23 108 C15.41 108 7.82 108 0 108 C0 89.52 0 71.04 0 52 C-7.59 52 -15.18 52 -23 52 C-23 43.42 -23 34.84 -23 26 C-30.59 26 -38.18 26 -46 26 C-46 25.67 -46 25.34 -46 25 C-38.08 25 -30.16 25 -22 25 C-22 33.58 -22 42.16 -22 51 C-14.74 51 -7.48 51 0 51 C0 34.17 0 17.34 0 0 Z " fill="#DDF6E9" transform="translate(465,464)"/>
<path d="M0 0 C6.93 0 13.86 0 21 0 C21 18.15 21 36.3 21 55 C14.07 55 7.14 55 0 55 C0 36.85 0 18.7 0 0 Z " fill="#EBFDF4" transform="translate(536,516)"/>
<path d="M0 0 C15.84 0 31.68 0 48 0 C48 7.92 48 15.84 48 24 C39.75 24 31.5 24 23 24 C23 23.67 23 23.34 23 23 C30.92 23 38.84 23 47 23 C47 15.74 47 8.48 47 1 C32.15 1 17.3 1 2 1 C2 16.51 2 32.02 2 48 C-5.875 49.125 -5.875 49.125 -9.65014648 48.92993164 C-10.49048935 48.88981461 -11.33083221 48.84969757 -12.19664001 48.80836487 C-13.52049461 48.7350016 -13.52049461 48.7350016 -14.87109375 48.66015625 C-15.793423 48.61434921 -16.71575226 48.56854218 -17.66603088 48.52134705 C-20.5902135 48.37468147 -23.51381462 48.21873481 -26.4375 48.0625 C-28.4290052 47.96097355 -30.42054153 47.8600557 -32.41210938 47.75976562 C-37.27512803 47.51355155 -42.13764714 47.25901691 -47 47 C-47 46.67 -47 46.34 -47 46 C-31.49 46 -15.98 46 0 46 C0 30.82 0 15.64 0 0 Z " fill="#BDEDD6" transform="translate(582,597)"/>
<path d="M0 0 C8.25 0 16.5 0 25 0 C25 0.66 25 1.32 25 2 C24.01 2.33 23.02 2.66 22 3 C21.67 2.67 21.34 2.34 21 2 C15.06 2 9.12 2 3 2 C2.67 15.53 2.34 29.06 2 43 C25.1 43 48.2 43 72 43 C71.505 34.09 71.505 34.09 71 25 C71.66 24.34 72.32 23.68 73 23 C73 29.93 73 36.86 73 44 C48.91 44 24.82 44 0 44 C0 29.48 0 14.96 0 0 Z " fill="#11774A" transform="translate(605,621)"/>
<path d="M0 0 C7.92 0 15.84 0 24 0 C24 9.24 24 18.48 24 28 C-9.66 28 -43.32 28 -78 28 C-78 27.67 -78 27.34 -78 27 C-28.995 26.505 -28.995 26.505 21 26 C22.00005304 22.99984088 22.11575585 21.02576244 22.09765625 17.89453125 C22.09515869 17.00870361 22.09266113 16.12287598 22.09008789 15.21020508 C22.08098389 14.0889624 22.07187988 12.96771973 22.0625 11.8125 C22.041875 8.244375 22.02125 4.67625 22 1 C14.74 1 7.48 1 0 1 C0 0.67 0 0.34 0 0 Z " fill="#C3F7DF" transform="translate(369,569)"/>
<path d="M0 0 C1.67739258 0.07250977 1.67739258 0.07250977 3.38867188 0.14648438 C4.55591797 0.20255859 5.72316406 0.25863281 6.92578125 0.31640625 C8.69405273 0.3947168 8.69405273 0.3947168 10.49804688 0.47460938 C13.41172219 0.60436819 16.32506203 0.73933757 19.23828125 0.87890625 C19.23828125 1.20890625 19.23828125 1.53890625 19.23828125 1.87890625 C11.64828125 1.87890625 4.05828125 1.87890625 -3.76171875 1.87890625 C-3.76171875 10.45890625 -3.76171875 19.03890625 -3.76171875 27.87890625 C-11.35171875 27.87890625 -18.94171875 27.87890625 -26.76171875 27.87890625 C-26.76171875 27.54890625 -26.76171875 27.21890625 -26.76171875 26.87890625 C-25.48554687 26.81832031 -24.209375 26.75773438 -22.89453125 26.6953125 C-21.22524859 26.61091057 -19.55597838 26.52626239 -17.88671875 26.44140625 C-17.04496094 26.40208984 -16.20320312 26.36277344 -15.3359375 26.32226562 C-14.53027344 26.28037109 -13.72460938 26.23847656 -12.89453125 26.1953125 C-11.77908936 26.14032593 -11.77908936 26.14032593 -10.64111328 26.08422852 C-8.67307563 25.9793476 -8.67307563 25.9793476 -6.76171875 24.87890625 C-6.70761739 21.81616794 -6.6679965 18.75439173 -6.63671875 15.69140625 C-6.61996094 14.82708984 -6.60320313 13.96277344 -6.5859375 13.07226562 C-6.55133642 8.55682522 -6.60603959 4.97809142 -8.76171875 0.87890625 C-5.51373132 -0.20375623 -3.40275048 -0.15545561 0 0 Z " fill="#B0E4CC" transform="translate(584.76171875,488.12109375)"/>
<path d="M0 0 C2 2 2 2 2.1953125 5.2578125 C2.17210937 6.53398438 2.14890625 7.81015625 2.125 9.125 C2.10695313 10.40632812 2.08890625 11.68765625 2.0703125 13.0078125 C2.04710937 13.99523437 2.02390625 14.98265625 2 16 C10.27542296 16.09270357 18.55062878 16.16376616 26.82644272 16.20724869 C30.66931252 16.22811884 34.51182693 16.25642506 38.35449219 16.30175781 C42.06331115 16.34523745 45.77178842 16.36914142 49.48084259 16.37950897 C50.89546335 16.38689667 52.31006552 16.40132343 53.72454071 16.42292023 C55.70647423 16.45197615 57.688752 16.45363408 59.67089844 16.45410156 C60.79896912 16.46298401 61.92703979 16.47186646 63.08929443 16.48101807 C66.61604954 15.89819274 67.78049082 14.72746243 70 12 C70.495 14.97 70.495 14.97 71 18 C47.57 18 24.14 18 0 18 C0 12.06 0 6.12 0 0 Z " fill="#127446" transform="translate(582,714)"/>
<path d="M0 0 C15.18 0 30.36 0 46 0 C46 0.33 46 0.66 46 1 C45.36497559 1.01981934 44.72995117 1.03963867 44.07568359 1.06005859 C41.17506674 1.15581122 38.27512095 1.26528546 35.375 1.375 C33.87646484 1.42140625 33.87646484 1.42140625 32.34765625 1.46875 C27.14913807 1.67531364 22.91894746 2.20213909 18 4 C14.9296875 4.265625 14.9296875 4.265625 11.875 4.25 C10.86179687 4.25515625 9.84859375 4.2603125 8.8046875 4.265625 C4.83585448 3.88974666 2.79602745 2.79602745 0 0 Z " fill="#C8EFDA" transform="translate(442,643)"/>
<path d="M0 0 C0.33 0 0.66 0 1 0 C1 18.15 1 36.3 1 55 C-6.26 55 -13.52 55 -21 55 C-21 54.67 -21 54.34 -21 54 C-14.4 53.01 -7.8 52.02 -1 51 C-0.67 34.17 -0.34 17.34 0 0 Z " fill="#D2FCE8" transform="translate(487,292)"/>
<path d="M0 0 C3.27152618 0.10986968 6.54190114 0.2404997 9.8125 0.375 C10.74126953 0.4059375 11.67003906 0.436875 12.62695312 0.46875 C13.51962891 0.50742187 14.41230469 0.54609375 15.33203125 0.5859375 C16.15421143 0.6173584 16.9763916 0.6487793 17.82348633 0.68115234 C20 1 20 1 23 3 C15.74 3 8.48 3 1 3 C1 11.91 1 20.82 1 30 C-6.92 30 -14.84 30 -23 30 C-23 29.67 -23 29.34 -23 29 C-15.41 29 -7.82 29 0 29 C-0.12568359 26.11121094 -0.12568359 26.11121094 -0.25390625 23.1640625 C-0.35705215 20.6510532 -0.45990143 18.13803171 -0.5625 15.625 C-0.61857422 14.35398437 -0.67464844 13.08296875 -0.73242188 11.7734375 C-0.80493164 9.95585938 -0.80493164 9.95585938 -0.87890625 8.1015625 C-0.9260376 6.98088379 -0.97316895 5.86020508 -1.02172852 4.70556641 C-1 2 -1 2 0 0 Z " fill="#18794C" transform="translate(653,538)"/>
<path d="M0 0 C8.58 0 17.16 0 26 0 C26 0.33 26 0.66 26 1 C22.93796326 1.33768172 19.87530542 1.66936893 16.8125 2 C15.51602539 2.14308594 15.51602539 2.14308594 14.19335938 2.2890625 C10.11207075 2.72690189 6.11211498 3.13621913 2 3 C2.01160156 3.7734375 2.02320313 4.546875 2.03515625 5.34375 C2.08709845 11.33936364 1.91184156 17.07302983 1 23 C0.67 23 0.34 23 0 23 C0 15.41 0 7.82 0 0 Z " fill="#C8F4DE" transform="translate(679,643)"/>
<path d="M0 0 C8.25 0 16.5 0 25 0 C25 0.66 25 1.32 25 2 C24.01 2.33 23.02 2.66 22 3 C21.67 2.67 21.34 2.34 21 2 C14.4 1.67 7.8 1.34 1 1 C1 14.86 1 28.72 1 43 C0.67 43 0.34 43 0 43 C0 28.81 0 14.62 0 0 Z " fill="#1A6F4A" transform="translate(605,621)"/>
<path d="M0 0 C0.33 0 0.66 0 1 0 C1.33 5.61 1.66 11.22 2 17 C7.6418279 16.88180475 13.28347768 16.75755997 18.92504883 16.62768555 C20.84460825 16.5843506 22.76420585 16.54267448 24.68383789 16.50268555 C27.44168614 16.44494822 30.19934241 16.38126365 32.95703125 16.31640625 C33.81649857 16.29969376 34.67596588 16.28298126 35.56147766 16.26576233 C36.36208115 16.24581711 37.16268463 16.22587189 37.98754883 16.20532227 C38.6914827 16.18977798 39.39541656 16.1742337 40.12068176 16.15821838 C42.22699083 16.05518396 42.22699083 16.05518396 45 15 C45 15.99 45 16.98 45 18 C30.15 18 15.3 18 0 18 C0 12.06 0 6.12 0 0 Z " fill="#187147" transform="translate(536,625)"/>
<path d="M0 0 C7.59 0 15.18 0 23 0 C23 6.93 23 13.86 23 21 C21 19 21 19 20.8046875 15.3046875 C20.817991 13.82799892 20.84185165 12.35137642 20.875 10.875 C20.88402344 10.12089844 20.89304687 9.36679687 20.90234375 8.58984375 C20.9259313 6.72642746 20.96180281 4.86317407 21 3 C18.34081834 2.11360611 16.51935359 1.82010975 13.76953125 1.68359375 C12.56586914 1.62075195 12.56586914 1.62075195 11.33789062 1.55664062 C10.50451172 1.51732422 9.67113281 1.47800781 8.8125 1.4375 C7.96751953 1.39431641 7.12253906 1.35113281 6.25195312 1.30664062 C4.16815567 1.20068482 2.08409897 1.0998498 0 1 C0 0.67 0 0.34 0 0 Z " fill="#C1EED8" transform="translate(558,712)"/>
<path d="M0 0 C9.57 0 19.14 0 29 0 C29 0.33 29 0.66 29 1 C28.2886792 1.01458252 27.5773584 1.02916504 26.84448242 1.04418945 C23.62493668 1.11861006 20.40643482 1.21529 17.1875 1.3125 C16.06794922 1.33505859 14.94839844 1.35761719 13.79492188 1.38085938 C12.72177734 1.41630859 11.64863281 1.45175781 10.54296875 1.48828125 C9.55321045 1.51446533 8.56345215 1.54064941 7.54370117 1.56762695 C4.97864107 1.80943883 4.97864107 1.80943883 3.18554688 3.32226562 C1.24146299 6.07344859 1.46407357 8.88319618 1.3125 12.1875 C1.24675781 13.45980469 1.18101562 14.73210937 1.11328125 16.04296875 C1.07589844 17.01878906 1.03851562 17.99460937 1 19 C0.67 19 0.34 19 0 19 C0 12.73 0 6.46 0 0 Z " fill="#378B65" transform="translate(654,426)"/>
<path d="M0 0 C8.91 0 17.82 0 27 0 C27 7.59 27 15.18 27 23 C26.67 23 26.34 23 26 23 C26 16.73 26 10.46 26 4 C25.34 4 24.68 4 24 4 C24 3.01 24 2.02 24 1 C16.08 1 8.16 1 0 1 C0 0.67 0 0.34 0 0 Z " fill="#C6F1DB" transform="translate(291,620)"/>
<path d="M0 0 C0.33 0 0.66 0 1 0 C1.33 2.64 1.66 5.28 2 8 C3.91425781 7.94779297 3.91425781 7.94779297 5.8671875 7.89453125 C7.53644521 7.86639769 9.2057171 7.83909707 10.875 7.8125 C12.13763672 7.77479492 12.13763672 7.77479492 13.42578125 7.73632812 C14.23144531 7.72666016 15.03710938 7.71699219 15.8671875 7.70703125 C16.98262939 7.68346558 16.98262939 7.68346558 18.12060547 7.65942383 C19.05090576 7.82800903 19.05090576 7.82800903 20 8 C20.99 9.485 20.99 9.485 22 11 C14.74 11 7.48 11 0 11 C0 7.37 0 3.74 0 0 Z " fill="#D0FBE6" transform="translate(536,336)"/>
<path d="M0 0 C7.59 0 15.18 0 23 0 C23 0.33 23 0.66 23 1 C21.89140625 1.06058594 20.7828125 1.12117187 19.640625 1.18359375 C18.1770718 1.26802951 16.71353075 1.35267599 15.25 1.4375 C14.15558594 1.49647461 14.15558594 1.49647461 13.0390625 1.55664062 C8.91748091 1.78089574 8.91748091 1.78089574 4.88183594 2.58227539 C3 3 3 3 1 2 C1 8.27 1 14.54 1 21 C0.67 21 0.34 21 0 21 C0 14.07 0 7.14 0 0 Z " fill="#C3ECD9" transform="translate(442,712)"/>
<path d="M0 0 C7.26 0 14.52 0 22 0 C21.67 1.32 21.34 2.64 21 4 C14.07 3.01 7.14 2.02 0 1 C0 0.67 0 0.34 0 0 Z " fill="#1B774E" transform="translate(466,347)"/>
<path d="M0 0 C1.65 0.33 3.3 0.66 5 1 C5 1.66 5 2.32 5 3 C5.66 3.33 6.32 3.66 7 4 C5.35 4 3.7 4 2 4 C2 11.92 2 19.84 2 28 C1.67 28 1.34 28 1 28 C1 21.4 1 14.8 1 8 C0.34 8 -0.32 8 -1 8 C-0.835 7.38125 -0.67 6.7625 -0.5 6.125 C0.07634644 4.03936614 0.07634644 4.03936614 0 2 C0 1.34 0 0.68 0 0 Z " fill="#D6FCEA" transform="translate(289,592)"/>
<path d="M0 0 C7.59 0 15.18 0 23 0 C23 1.32 23 2.64 23 4 C21.68 4 20.36 4 19 4 C19 3.01 19 2.02 19 1 C12.73 1 6.46 1 0 1 C0 0.67 0 0.34 0 0 Z " fill="#16754A" transform="translate(535,572)"/>
<path d="M0 0 C0.99 0 1.98 0 3 0 C3 5.61 3 11.22 3 17 C0.54667367 14.54667367 0.64636312 13.51201372 0.375 10.125 C0.30023437 9.26132812 0.22546875 8.39765625 0.1484375 7.5078125 C0.00003696 5.00062444 0 2.51222352 0 0 Z " fill="#E0FEF1" transform="translate(626,598)"/>
<path d="M0 0 C2 2 2 2 2 6 C-2.62 6 -7.24 6 -12 6 C-11.34 5.34 -10.68 4.68 -10 4 C-8.865625 4.04125 -7.73125 4.0825 -6.5625 4.125 C-2.94957079 4.41044347 -2.94957079 4.41044347 -1.0625 2 C-0.711875 1.34 -0.36125 0.68 0 0 Z " fill="#18774E" transform="translate(651,726)"/>
<path d="M0 0 C0.33 0 0.66 0 1 0 C1 6.27 1 12.54 1 19 C-0.65 19 -2.3 19 -4 19 C-3.50757813 18.65066406 -3.01515625 18.30132812 -2.5078125 17.94140625 C-0.23616401 15.01651169 -0.747128 12.57433017 -0.875 8.9375 C-1.0845481 2.16909621 -1.0845481 2.16909621 0 0 Z " fill="#E0FEF1" transform="translate(653,426)"/>
<path d="M0 0 C2 2 2 2 2.22705078 3.97119141 C2.21657715 4.75671387 2.20610352 5.54223633 2.1953125 6.3515625 C2.18886719 7.20234375 2.18242188 8.053125 2.17578125 8.9296875 C2.15902344 9.81914062 2.14226563 10.70859375 2.125 11.625 C2.11597656 12.5221875 2.10695313 13.419375 2.09765625 14.34375 C2.0740497 16.56276586 2.0411231 18.78125077 2 21 C1.67 21 1.34 21 1 21 C1 15.39 1 9.78 1 4 C0.34 4 -0.32 4 -1 4 C-0.67 2.68 -0.34 1.36 0 0 Z " fill="#E2FEF0" transform="translate(628,444)"/>
<path d="M0 0 C0.66 0 1.32 0 2 0 C2.1875 2.875 2.1875 2.875 2 6 C1.01 6.66 0.02 7.32 -1 8 C-1.04241723 5.66705225 -1.04092937 3.33297433 -1 1 C-0.67 0.67 -0.34 0.34 0 0 Z " fill="#FAF8F4" transform="translate(468,518)"/>
<path d="M0 0 C1.0625 1.875 1.0625 1.875 2 4 C1.67 4.66 1.34 5.32 1 6 C-0.32 5.67 -1.64 5.34 -3 5 C-3 3.68 -3 2.36 -3 1 C-2.01 0.67 -1.02 0.34 0 0 Z " fill="#197E4E" transform="translate(533,341)"/>
</svg>
