<svg xmlns="http://www.w3.org/2000/svg" viewBox="0 0 128 128"><circle cx="64" cy="64" r="64" fill="#FEB800"/><path fill="#823D00" d="M50.133 28.021c-.944.224-1.69.758-2.165 1.531-.39.645-.501 1.152-.848 3.861l-.379 2.907-.474 3.707c-.219 1.701-.448 3.45-.507 3.893-.059.437-.256 1.925-.432 3.307a2374 2374 0 0 1-1.275 9.92c-.058.437-.261 2.01-.453 3.493-.187 1.483-.395 3.077-.453 3.547-.059.469-.118.88-.134.917-.016.043-.133.059-.384.043-.389-.022-4.261-.091-5.589-.102-.699-.005-.848.011-1.2.118-1.328.421-2.517 1.493-3.019 2.741-.16.379-.288 1.008-.288 1.365 0 .31.128.848.267 1.158.144.32.63.826.95 1.002.591.32.778.342 4.01.406 3.11.064 4.325.101 4.357.133.022.021-.33 2.816-.709 5.653a69 69 0 0 0-.181 1.43c0 .032-1.328.037-3.344.01-3.696-.037-3.68-.037-4.416.294a4.84 4.84 0 0 0-2.592 2.832c-.155.469-.166.538-.144 1.146.016.64.021.656.245 1.11.256.522.533.8 1.045 1.05.598.294.8.31 4.715.352l3.584.038v.112c0 .106-.064.618-.432 3.445-.09.688-.25 1.968-.368 2.837-.112.87-.219 1.606-.24 1.643-.053.09-1.216.853-1.787 1.173-.837.47-2.837 1.723-4 2.507-.602.4-1.354.896-1.68 1.093-.32.192-.608.374-.629.4-.07.064.528.219.95.246.442.026 3.573.101 8.853.208 2.112.037 4.32.09 4.906.106.587.016 2.208.054 3.6.08s3.088.064 3.76.08c.678.016 2.294.054 3.6.08 2.448.054 5.686.139 7.28.187 1.91.059 5.632.069 6.347.021 1.376-.096 2.992-.261 3.568-.373.667-.123 2.101-.528 3.099-.864 5.402-1.84 10.096-5.003 13.552-9.141.88-1.051 2.096-2.795 2.634-3.776 1.52-2.774 2.406-5.328 2.8-8.054.192-1.338.208-1.642.208-3.2-.005-2.165-.154-3.45-.613-5.306-.421-1.707-.923-3.035-1.808-4.774-.576-1.136-.645-1.258-.96-1.786-.261-.432-1.152-1.611-1.616-2.144-3.248-3.707-8.437-6.667-13.957-7.968-2.07-.491-3.707-.683-5.744-.688h-1.504l.026-.134c.011-.074.176-1.333.368-2.8s.384-2.917.427-3.226.15-1.115.24-1.787c.16-1.264 1.419-10.773 1.584-11.99.112-.853.064-1.247-.245-1.877-.395-.8-.811-1.2-1.739-1.669-.955-.475-.49-.437-6.08-.49-10.752-.102-14.272-.107-14.587-.033m13.376 6.8c1.12.006 2.038.032 2.038.054 0 .042-.512 3.946-.774 5.872-.117.858-.57 4.277-1.306 9.893-.214 1.621-.278 2.085-.486 3.627-.16 1.168-.096 1.877.235 2.768.112.309.464.757.752.976.352.256 1.381.618 2.021.704.23.032 1.131.058 2 .058 3.936.011 5.99.208 8.288.795 4.806 1.232 8.619 3.776 10.982 7.312 2.128 3.195 2.848 6.955 2.101 10.933-.176.934-.635 2.384-1.056 3.36-1.237 2.864-3.083 5.323-5.637 7.526-1.36 1.173-1.867 1.477-4.027 2.405-2.075.896-3.717 1.408-5.19 1.616-2.207.32-2.847.363-5.423.363-2.059.005-5.307-.054-8.88-.15-.512-.01-1.654-.037-2.534-.053-3.301-.059-6.848-.133-7.44-.16a59 59 0 0 0-1.653-.032c-.576 0-1.072-.021-1.11-.043-.042-.026-.015-.4.123-1.472a2662 2662 0 0 0 1.174-9.093c.101-.779.304-2.352.453-3.493.144-1.147.288-2.262.32-2.48a3777 3777 0 0 0 .928-7.2c.09-.683.235-1.798.587-4.56.133-1.03.421-3.27.645-4.987s.453-3.493.512-3.947c.059-.453.176-1.381.261-2.053.091-.677.235-1.792.32-2.48.091-.688.208-1.616.267-2.053.053-.443.15-1.184.213-1.654.059-.469.288-2.245.507-3.946s.533-4.128.693-5.387c.166-1.264.32-2.453.342-2.65a2.3 2.3 0 0 1 .074-.4c.016-.022 1.739-.027 3.835-.011 2.09.021 4.72.037 5.845.042"/><path fill="#823D00" d="M56.224 65.435c-.032.016-.085.24-.117.485a159 159 0 0 0-.454 3.947c-.042.426-.101.965-.133 1.2-.027.234-.059.586-.075.784l-.026.362h.384c.33 0 2.341.048 8.464.187.746.021 2.042.053 2.88.08.837.027 2.234.048 3.104.048.874.005 1.706.032 1.856.059.682.128 1.098.576 1.365 1.466.144.486.133 1.515-.027 2.102a4.83 4.83 0 0 1-1.312 2.272c-.464.453-.757.618-1.445.81s-.123.192-13.413.038l-2.752-.032-.064.656a74 74 0 0 1-.352 3.221c-.182 1.419-.31 2.853-.256 2.907.01.016 1.552.042 3.418.058 1.867.022 4.683.054 6.251.08 3.899.064 7.355.054 8.053-.026.571-.07 1.883-.459 2.576-.774.667-.293 1.974-1.141 2.592-1.674 2.096-1.803 3.318-3.952 3.878-6.811.149-.763.138-2.821-.016-3.69-.464-2.555-1.915-4.806-4.006-6.225-.501-.341-1.173-.688-1.61-.842-.784-.272-2.262-.384-5.707-.438a732 732 0 0 1-5.307-.112c-.586-.016-2.48-.048-4.213-.08a204 204 0 0 1-3.312-.074c-.09-.011-.192-.006-.224.016"/></svg>
