<svg xmlns="http://www.w3.org/2000/svg" viewBox="0 0 128 128"><circle cx="64" cy="64" r="64" fill="url(#a)"/><path fill="#fff" d="M102.067 53.555h-7.603c-4.25-11.52-15.309-19.737-28.314-19.737H39.757v19.737H31.36v6.912h8.397v7.399H31.36v6.912h8.397v19.404H66.15c12.877 0 23.86-8.064 28.186-19.404h7.731v-6.912h-5.99c.153-1.255.256-2.56.256-3.866 0-1.203-.077-2.38-.205-3.533h5.965v-6.912zM46.669 40.422h19.2c9.19 0 17.1 5.376 20.813 13.133H46.669zm19.2 47.156h-19.2v-12.8h39.859c-3.763 7.577-11.597 12.8-20.66 12.8m23.065-24.09v1.05a24 24 0 0 1-.23 3.328H46.669v-7.399h42.06c.129.999.205 1.997.205 3.021"/><defs><linearGradient id="a" x1="18.745" x2="109.255" y1="18.745" y2="109.255" gradientUnits="userSpaceOnUse"><stop stop-color="#F9AF1A"/><stop offset="1" stop-color="#FBC349"/></linearGradient></defs></svg>
