<svg xmlns="http://www.w3.org/2000/svg" fill="none" viewBox="0 0 200 200"><g clip-path="url(#a)"><rect width="200" height="200" fill="#fff" rx="100"/><path fill="#fff" d="M100 200c55.228 0 100-44.772 100-100S155.228 0 100 0 0 44.772 0 100s44.772 100 100 100"/><path fill="#000" d="M100 200c55.228 0 100-44.772 100-100S155.228 0 100 0 0 44.772 0 100s44.772 100 100 100"/><path fill="#6649DF" d="M200 0H100v200h100z"/><path fill="#fff" d="M100 30h-4v140h4zm8 0h-4v140h4z"/><path stroke="#fff" stroke-linecap="round" stroke-width="4" d="M118.483 51.234C67 43.356 54.129 74.867 105.612 98.5c51.484 23.633 25.742 55.144-38.612 47.266"/></g><defs><clipPath id="a"><rect width="200" height="200" fill="#fff" rx="100"/></clipPath></defs></svg>
