<svg xmlns="http://www.w3.org/2000/svg" fill="none" viewBox="0 0 128 128"><circle cx="64" cy="64" r="64" fill="#FEF3C7"/><path fill="#D97706" d="M45.734 93.88h-9.816a9.7 9.7 0 0 1-4.676-1.152 9.14 9.14 0 0 1-3.426-3.196l-5.232-8.524a7.4 7.4 0 0 1-1.25-4.178c0-1.534.416-2.856 1.25-4.134l5.324-8.654-5.324-8.61a7.54 7.54 0 0 1-1.25-4.176c0-1.492.416-2.9 1.25-4.178l5.232-8.524a8.8 8.8 0 0 1 3.426-3.198 9.8 9.8 0 0 1 4.676-1.192h9.816l5.186-8.44a8.8 8.8 0 0 1 3.426-3.196 9.8 9.8 0 0 1 4.676-1.194h9.956c1.712 0 3.24.384 4.676 1.194a9.14 9.14 0 0 1 3.426 3.196l5.232 8.44h9.816c1.714 0 3.24.382 4.676 1.192a9.14 9.14 0 0 1 3.426 3.198l5.186 8.524c.834 1.28 1.25 2.644 1.25 4.178s-.416 2.898-1.25 4.176l-5.324 8.61 5.324 8.654c.834 1.28 1.25 2.642 1.25 4.134a7.53 7.53 0 0 1-1.25 4.178l-5.186 8.524a8.8 8.8 0 0 1-3.426 3.196 9.8 9.8 0 0 1-4.676 1.152h-9.816l-5.232 8.44a8.8 8.8 0 0 1-3.426 3.196 9.8 9.8 0 0 1-4.676 1.15H59.02a9.7 9.7 0 0 1-4.676-1.15 9.14 9.14 0 0 1-3.426-3.196zm36.578-34.1h9.954l5.094-8.524-5.094-8.526h-9.954l-5.232 8.526zm-23.15 12.788h9.722l5.186-8.526-5.186-8.524h-9.722l-5.186 8.524zm0-25.574h9.722l5.326-8.654-5.186-8.396h-9.956l-5.184 8.396 5.324 8.654zm-8.196 4.26L45.78 42.73h-9.816l-5.186 8.526 5.186 8.524h9.816zm0 25.576-5.186-8.524h-9.954l-5.094 8.524 5.186 8.524h9.816l5.186-8.524zm8.196 4.262-5.326 8.61 5.186 8.44h9.956l5.186-8.44-5.326-8.61h-9.722zm23.15 4.262h9.816l5.186-8.524-5.186-8.524h-9.816L77.08 76.83z"/><svg xmlns="http://www.w3.org/2000/svg" viewBox="0 0 128 128"><path fill="#1e1c29" stroke="#fff" stroke-width="2.53" d="M78 101.999C78 88.739 88.74 78 101.999 78 115.259 78 126 88.74 126 101.999c0 13.26-10.741 24.001-24.001 24.001S78 115.259 78 101.999Z"/><path fill="#1e1c29" d="M78.715 95.352c4.515-1.302 3.688-1.61 4.642-1.302.954.31 17.288 30.796 17.39 31.233"/><path stroke="#fff" stroke-width="2.53" d="M78.715 95.352c4.515-1.302 3.688-1.61 4.642-1.302.954.31 17.288 30.796 17.39 31.233"/><path fill="#1e1c29" d="M83.373 94.298c.562.114 6.867 4.002 7.561 4.892.695.891 1.638 3.749 2.394 4.321s1.45.381 2.143.127 3.025-3.367 3.656-3.812c.63-.445 1.386-.19 1.764.509.377.698 12.105 21.771 12.571 22.619m-13.97-22.924-1.791 19.521Zm3.761 3.824c.698-.507.762-.254 1.142-.696.381-.445.508-1.521.699-2.155.191-.635.952-.446 1.459-.255s1.016.445 1.46 1.08c.445.632 10.344 12.231 11.424 12.74 1.077.505 1.208.394 2.443.505"/><path stroke="#fff" stroke-width="2.53" d="M83.373 94.298c.562.114 6.867 4.002 7.561 4.892.695.891 1.638 3.749 2.394 4.321s1.45.381 2.143.127 3.025-3.367 3.656-3.812c.63-.445 1.386-.19 1.764.509.377.698 12.105 21.771 12.571 22.619m-13.97-22.924-1.791 19.521m5.552-15.697c.698-.507.762-.254 1.142-.696.381-.445.508-1.521.699-2.155.191-.635.952-.446 1.459-.255s1.016.445 1.46 1.08c.445.632 10.344 12.231 11.424 12.74 1.077.505 1.208.394 2.443.505"/></svg></svg>
