<svg xmlns="http://www.w3.org/2000/svg" viewBox="0 0 580 580"><path fill="#0A0A0A" d="m418 32 5.16 2.52C440.958 43.517 457.512 54.444 473 67l2.867 2.25C503.79 91.878 526.27 119.896 544 151l2.172 3.75c36.214 64.895 42.271 144.77 22.316 215.617A396 396 0 0 1 564 384l-1.395 4.016C544.555 437.938 511.275 485.715 468 517l-2.844 2.223C428.928 547.439 384.987 565.05 340 573l-5.148.969C277.97 582.937 217.586 573.312 166 548l-5.16-2.52c-17.784-8.99-34.394-19.89-49.84-32.48l-3.125-2.508C81.975 489.052 59.534 463.315 43 434l-2.64-4.531C8.69 373.914-3.487 304.995 8 242l1.148-6.332C19.093 186.608 40.806 142.126 73 104l2.156-2.559C86.308 88.674 98.442 76.211 112 66l3.55-2.773C153.417 34.088 197.068 15.424 244 7l5.16-.973C306.05-2.92 366.408 6.685 418 32"/><path fill="#FAFAF8" d="M295 99c2.7 1.8 4.542 3.084 6 6 .04 2 .043 4 0 6h9l-.25-3.25c.25-3.75.25-3.75 1.688-6.187C315.42 99.134 318.45 99.43 323 100c2.563 2.125 2.563 2.125 4 5 .25 3.313.25 3.313 0 6l3.313-.062C334 111 334 111 337 112l-.812-3.187C336 105 336 105 338.063 102.063 341 100 341 100 344 99.437c3.843.721 5.458 1.572 8 4.563.625 4 .625 4 0 8-2.125 2.5-2.125 2.5-5 4-3.312.25-3.312.25-6 0v7h7l.188-3.25c.812-3.75.812-3.75 3-6.187 3.305-1.837 5.085-2.039 8.812-1.563 4 2 4 2 6 5a98 98 0 0 1 0 7l3.25-.125C373 124 373 124 377 126c3.317 4.423 3.305 5.72 3 11h8l-.312-2.687C388 131 388 131 390.063 128.125 393 126 393 126 396.5 125.375c3.5.625 3.5.625 6.5 2.688 2 2.937 2 2.937 1.938 6.562C404 138 404 138 402 141c-4.625.688-4.625.688-9 1l1 7h7l-.312-2.75C401 143 401 143 403 140.625c3.99-2.161 6.527-2.264 11-1.625 3 2.55 3.855 4.129 4.5 8-.639 3.834-1.567 5.443-4.5 8-3.75.313-3.75.313-7 0v7l7 1-.375-3.187C414 156 414 156 416.563 153c3.437-2 3.437-2 7.062-2.062 3.732 1.174 5.264 1.77 7.375 5.062.526 6.947.526 6.947-1 10l2-1c7.086-.571 7.086-.571 10.5 1.563 2.093 3.4 2.051 5.508 1.5 9.437-1.437 2.938-1.437 2.938-4 5-4.75.313-4.75.313-9 0l.5 3.313C432 188 432 188 432 191l3.188-.312c3.812.312 3.812.312 6.75 2.437C444 196 444 196 444.563 199c-.714 3.805-1.64 5.451-4.563 8-4.103.671-6.218.425-9.875-1.562-2.73-3.132-2.973-5.339-3.125-9.438l1-2-2 1c-3.812.438-3.812.438-8 0-3-2.687-3-2.687-5-6v-5h-7l-.187 3.25C405 191 405 191 402.875 193.438c-3.676 1.997-5.747 2.226-9.875 1.562-3.47-2.565-4.78-4.106-5.812-8.312L387 184h-9l.313 2.75C378 190 378 190 375.875 192.375c-3.372 1.906-5.065 2.274-8.875 1.625-2.375-1.562-2.375-1.562-4-4-.25-3.75-.25-3.75 0-7h-11l.25 2.75c-.25 3.25-.25 3.25-1.875 5.563C347.42 193.412 345.631 194 342 194c-2.875-1.5-2.875-1.5-5-4-.312-3.75-.312-3.75 0-7h-10l-.25 3.813C326 191 326 191 322 194c-6.942.76-6.942.76-10.437-1.75C310 190 310 190 309 186l-6-1-.25 2.188c-.907 3.4-2.389 5.236-4.75 7.812-3.203 1.601-6.479 1.057-10 1l-.125 3.75c-.875 4.25-.875 4.25-3.5 6.813-4.147 1.766-6.102 1.861-10.375.437-4-4.82-4-4.82-4-8h-5v5l2.813.25C271 205 271 205 274 209c-.062 4.063-.062 4.063-1 8-4 3-4 3-6.937 3.5-4.148-.677-5.559-2.186-8.063-5.5v-5l-6 1-1 6 2.813.313C257 218 257 218 260 221c.375 4 .375 4 0 8-3 3-3 3-6.937 3.563C249 232 249 232 246.5 229.188 245 226 245 226 245 223h-6l-1 7 2.813.313C244 231 244 231 247 234c.375 4 .375 4 0 8-3 3-3 3-7 3.375-4-.375-4-.375-7-3.375-.687-3.187-.687-3.187-1-6l-5 1v5l2.313.813C232 244 232 244 235 247c.522 4.025.353 6.309-1.5 9.938-3.5 2.887-6.098 2.429-10.5 2.062l.188 4.25C223 268 223 268 220 272c-4.187.75-4.187.75-8 1l-1 10 3.313-.25L218 283c3 4 3 4 3.438 7-.438 3-.438 3-2.063 5.375-3.087 2.112-4.703 2.237-8.375 1.625-2.375-1.562-2.375-1.562-4-4-.25-3.75-.25-3.75 0-7l-6 2c.03 2.416.03 2.416 1 5 2.917 1.667 2.917 1.667 6 3 2.63 3.945 2.431 6.33 2 11-2.163 3.245-3.444 3.872-7.25 4.75L200 312v8l2.75.188c3.25.812 3.25.812 5.688 2.937 2.078 3.824 1.765 5.738.562 9.875-1.75 2.438-1.75 2.438-4 4h-5v9l3.313.25C207 347 207 347 210 351c.419 4.688.14 6.72-2 11-4.125 1.25-4.125 1.25-8 2l1 5 6 2-.187-2.75C207 365 207 365 210 361c3.943-.573 6.094-.566 9.5 1.563 1.5 2.437 1.5 2.437 1.5 6-1 3.437-1 3.437-5 6.437-3.25-.312-3.25-.312-6-1l1 2c.04 3 .043 6 0 9l3.188-.312c3.812.312 3.812.312 6.75 2.375C223 390 223 390 223.625 393.5c-.787 4.408-2.084 5.824-5.625 8.5-2.812.813-2.812.813-5 1l1 6h5l.313-3.312C220 402 220 402 223 399c5.303-.579 6.589-.308 11 3 .438 4.5.438 4.5 0 9-3 3-3 3-6.187 3.188L225 414v9l2.688-.312c4.337.409 5.547 2.073 8.312 5.312l1 1q.061 3.5 0 7l3.188.188c4.592.978 6.123 1.983 8.812 5.812.313 4.313.313 4.313 0 8l3.75-.312C257 450 257 450 259.5 452c1.997 3.994 2.13 6.592 1.5 11-2.713 3.288-4.348 3.909-8.562 4.5-3.438-.5-3.438-.5-5.813-2-2.22-3.415-2.358-6.488-2.625-10.5h-8l.313 3.188C236 462 236 462 233.938 464.875c-3.53 2.553-5.587 3.203-9.938 3.125-2.802-1.766-4.515-3.03-6-6-.04-2.333-.043-4.667 0-7h-9l.313 2.688C209 461 209 461 206.938 463.875 204 466 204 466 200.438 466.625 197 466 197 466 194.563 463.875c-1.84-3.386-2.289-5.085-1.563-8.875 2.735-3.057 4.202-3.94 8.313-4.25L204 451l-1-7-7-1 .25 2.75c-.25 3.25-.25 3.25-2.125 5.563-2.504 1.988-3.762 2.63-6.937 3.125C184 454 184 454 181.125 451.313 179 448 179 448 179 443c2.063-2.812 2.063-2.812 5-5 3.813-.312 3.813-.312 7 0l-1-7-7-1 .313 2.688C183 436 183 436 180.938 438.875 178 441 178 441 174.5 441.625c-4.43-.791-5.892-1.99-8.5-5.625-.712-3.8-.313-5.437 1.563-8.812 3.095-2.778 5.353-2.952 9.437-3.188v-6h-7l.25 2.75c-.25 3.25-.25 3.25-1.75 5.625-3.696 2.402-6.186 2.222-10.5 1.625-3.408-2.414-4.753-3.839-5.625-7.937.86-4.218 2.465-6.177 5.625-9.063 3.313-.375 3.313-.375 6 0v-6l-7-1 .313 2.688C157 410 157 410 154.938 412.875 152 415 152 415 148.438 415.563 145 415 145 415 142.625 413.438c-2.208-3.313-2.694-5.45-2.625-9.438 2.063-3.437 2.063-3.437 5-6 3.313-.375 3.313-.375 6 0l-1-6-6-1 .375 2.688C144 397 144 397 141.438 399.938 138 402 138 402 134.375 402.063c-3.669-1.156-5.227-1.884-7.375-5.063-.637-3.74-.256-5.51 1.5-8.875 2.5-2.125 2.5-2.125 6.75-2.437L139 386l-1-8-8-1 .25 3.25c-.25 3.75-.25 3.75-1.812 6.188-3.38 2.166-5.498 2.125-9.438 1.562-2.437-1.625-2.437-1.625-4-4-.649-3.81-.28-5.503 1.625-8.875 2.375-2.125 2.375-2.125 5.5-2.5C125 373 125 373 127 374l-1-3a195 195 0 0 1 0-7l-3.187.313C119 364 119 364 116.125 361.938c-2.58-3.567-3.28-5.532-3.125-9.938 2.063-3.437 2.063-3.437 5-6 3.313-.375 3.313-.375 6 0v-7l-7-1 .313 3.188C117 345 117 345 114.937 348c-2.937 2-2.937 2-6.5 2.125-4.102-1.343-5.443-2.304-7.437-6.125 0-3.625 0-3.625 1-7 4.423-3.317 5.72-3.305 11-3v-10l-3.75.313C105 324 105 324 102.5 321.938c-1.895-3.711-2.162-5.822-1.5-9.938 2.125-2.937 2.125-2.937 5-5 3.313-.312 3.313-.312 6 0v-8l-2.687.313C106 299 106 299 103.125 297.063c-2.957-4.261-2.84-6.99-2.125-12.063 3.185-3.748 6.189-4.552 11-5v-7l-3.25-.187C105 272 105 272 102.563 269.875c-2.012-3.701-2.305-5.722-1.563-9.875 3.05-3.414 4.775-4.887 9.375-5.312L113 255v-9l-3.25.25c-3.75-.25-3.75-.25-6.125-1.875-2.057-3.006-2.698-4.713-2.625-8.375 2-3.375 2-3.375 5-6 3.987-.7 5.98-.628 9.438 1.5 2.21 3.536 1.834 6.422 1.562 10.5l7-1v-7h-5c-2.812-2-2.812-2-5-5-.74-4.738-.715-6.982 2.063-10.937 3.405-2.392 5.823-2.821 9.937-3.063l-.312-3.187c.312-3.813.312-3.813 2.75-6.688L131 203l1-1c2-.04 4-.043 6 0v-8l-2.687.313C132 194 132 194 129.063 191.938 127 189 127 189 126.938 185.438c1.156-3.743 1.797-5.29 5.062-7.438 3.438-.562 3.438-.562 7 0 2.938 2.125 2.938 2.125 5 5 .313 3.313.313 3.313 0 6l6-1 1-6-2.75-.312C145 181 145 181 141 178c-1.062-3.875-1.062-3.875-1-8 2-3 2-3 5-5 4.184-.672 6.227-.428 9.938 1.625C157 169 157 169 157.313 172.25L157 175l6-1 1-5-3.312-.312C157 168 157 168 154 165c-1.647-7.795-1.647-7.795.375-11.562 3.91-2.142 7.253-1.75 11.625-1.438l2 1-2-3c-.614-4.036-.344-5.521 2.063-8.875C171 139 171 139 174.5 138.438c4.086.656 5.789 1.44 8.5 4.562.313 3.25.313 3.25 0 6h7l1-7-3.25.25c-3.75-.25-3.75-.25-6.187-1.75-2.291-3.665-2.092-6.269-1.563-10.5 1.563-2.5 1.563-2.5 4-4 3.438-.562 3.438-.562 7 0 2.938 2.125 2.938 2.125 5 5 .313 3.313.313 3.313 0 6h8l-.437-3.125c.437-3.875.437-3.875 3.5-7.312 4.202-2.736 6.05-3.161 10.937-2.563l-.312-3.187c.312-3.813.312-3.813 2.375-6.75C223 112 223 112 226.5 111.375c4.328.773 5.737 2.294 8.5 5.625l1 1v5h7v-7l-2.687.313C237 116 237 116 234.125 113.937 232 111 232 111 231.375 107.438c.625-3.437.625-3.437 2.75-5.874 3.41-1.854 5.057-2.279 8.875-1.563 2.875 2.063 2.875 2.063 5 5 .313 3.813.313 3.813 0 7l3.313-.562C255 111 255 111 258 112l-.25-3.75c.25-4.25.25-4.25 1.75-6.75 3.718-2.23 6.25-2.089 10.5-1.5 3 2.125 3 2.125 5 5 .313 3.313.313 3.313 0 6h8l-.25-2.687c.305-4.038 1.47-5.452 4.25-8.313 2.853-1.427 4.835-1.31 8-1"/><path fill="#05465B" d="M327 183h10l.25 3.313c.414 4.127.414 4.127 4.75 6.687 4.56-.186 5.687-.687 9-4 .727-3.108.727-3.108 1-6h11l.313 3.313c.375 3.94.375 3.94 3.687 6.687 4.926.629 5.834.125 10-3 .81-3.102.81-3.102 1-6h9l1.313 3.875c1.296 4.27 1.296 4.27 4.687 6.125 5.315.483 6.57.322 11-3 1.288-3.59 1.288-3.59 2-7h7l.813 3.313c.947 3.904.947 3.904 4.187 6.687 2.513.362 2.513.362 5.188.188L428 194l-.312 3.125c.39 4.853 2.048 6.378 5.312 9.875 1.996 3.991 2.195 5.7 2 10l2.75-.125C441 217 441 217 445 219v2h2l2 10 3.25.25c3.75.75 3.75.75 6.188 2.313 2.26 3.526 1.892 6.342 1.562 10.437l-1 2 3-2c3.705-.483 5.526-.263 8.813 1.563 2.839 3.163 3.112 5.229 3.187 9.437l-2 4h5l3 3c-.245 3.342-.605 4.605-3 7-5.568-.568-5.568-.568-7-2q.43-3.51 1-7l-2 1c-2.333.04-4.667.043-7 0v9l2.688-.312c3.312.312 3.312.312 6.187 2.375C473 275 473 275 473.563 278.5c-.673 4.184-1.247 5.831-4.563 8.5-4.75.313-4.75.313-9 0l1 7 3.188.188c4.592.978 6.123 1.983 8.812 5.812.688 4 .688 4 0 8-2.5 3.063-2.5 3.063-6 5-4.375-.187-4.375-.187-8-1l.25 4.25c-.25 4.75-.25 4.75-1.687 7.313-4.056 2.274-7.015 2.06-11.563 1.437-3.54-3.034-4.88-4.709-5.312-9.375L441 313l-3.687.313C433 313 433 313 430 310.938c-2.44-3.585-2.417-5.688-2-9.938l-3.687.313C420 301 420 301 417.063 298.875 414.452 295.235 414 292.399 414 288l-3.187.313C407 288 407 288 404.188 285.938c-2.43-3.262-3.336-5.986-4.188-9.938l-3.187-.187c-4.593-.98-6.124-1.983-8.813-5.813-.312-4.312-.312-4.312 0-8l-3.687.25c-4.313-.25-4.313-.25-7.25-1.875-2.449-2.819-2.812-4.696-3.063-8.375l-7-1 .313 2.688C367 257 367 257 365.063 259.875c-4.24 2.942-7.012 2.765-12.063 2.125-2.5-1.562-2.5-1.562-4-4-.75-3.75-.75-3.75-1-7h-8l.313 2.688C340 257 340 257 338.063 259.875c-4.298 2.982-6.945 2.907-12.063 2.125-3.062-2.75-3.062-2.75-5-6v-4h-5l-.125 2.688c-1.181 4.47-3.063 5.794-6.875 8.312-3.375.813-3.375.813-6 1l-.25 2.188c-1.266 4.748-3.627 7.147-7.812 9.625C292 277 292 277 289 277l-.187 3.188c-.97 4.548-2.133 6.032-5.813 8.812-3.312.813-3.312.813-6 1l-1 7 3.375.813C283 299 283 299 285 302c-.125 3-.125 3-1 6-4 3-4 3-7.062 3.438C274 311 274 311 271 307v-5l-5 1-1 6 2.813.313C271 310 271 310 274 313c.466 4.191.757 6.864-1.625 10.438-2.812 1.85-5.048 2.26-8.375 2.562v7l2.75.75c3.487 1.341 5.108 2.202 7.25 5.25.604 4.152.446 6.24-1.687 9.875-2.527 2.321-3.94 2.844-7.313 3.125.106 2.452.106 2.452 1 5 2.476 1.375 2.476 1.375 5 2l-.187-3.312C271 352 271 352 274 349c3.653-.544 5.343-.438 8.438 1.625C284 353 284 353 283.938 356.063 283 359 283 359 280 362c-3.187.188-3.187.188-6 0l2 3c.125 3.188.125 3.188 0 6l2.688.188c4.237 1.039 5.76 2.284 8.312 5.812.313 4.313.313 4.313 0 8l4.188-.375c4.812.375 4.812.375 7.875 3 2.047 3.566 2.416 5.348 1.937 9.375l3.188-.25c4.38.287 5.76 1.198 8.812 4.25 1.354 2.709 1.065 5.01 1 8h9v-5c1.563-2.312 1.563-2.312 4-4 3.5-.562 3.5-.562 7 0 2.5 2.125 2.5 2.125 4 5 0 3.125 0 3.125-1 6-4 3-4 3-9 3l1 7h6l.75-2.75c1.33-3.458 2.258-5.09 5.25-7.25 4.21-.824 5.72-.177 9.375 2.125C353 416 353 416 353.438 419.188 353 422 353 422 352 424l2-1c3-.04 6-.043 9 0l-.312-3.75c.312-4.25.312-4.25 2.437-6.75 3.387-1.767 5.109-2.128 8.875-1.5 2.875 1.438 2.875 1.438 5 4 .313 4.75.313 4.75 0 9l2-1c6.47-.353 6.47-.353 10 2l-1-2c-.486-4.293-.462-6.32 2-9.937 3.861-2.655 6.411-2.452 11-2.063l-.75-3.187C402 404 402 404 403.5 401.125c3.247-2.76 5.263-3.125 9.5-3.125 2.948 1.346 4.543 2.086 6 5 .495 4.374.492 6.32-2.125 9.938-3.323 2.383-4.88 2.516-8.875 2.062h-1l.25 3.75c-.25 4.25-.25 4.25-2.125 6.688-4.073 2.994-7.109 2.643-12.125 2.562l.25 3.75c-.25 4.25-.25 4.25-1.812 6.688-3.17 2.031-5.703 2.358-9.438 2.562l-3-1 .625 3.25C380 447 380 447 378 451c-3.945 2.63-6.33 2.431-11 2-2.5-1.5-2.5-1.5-4-4-.25-4.25-.25-4.25 0-8h-8l-1 9 2.688-.312c3.312.312 3.312.312 6.25 2.375C365 455 365 455 365 458.625 364 462 364 462 361 465c-3.937.5-3.937.5-8 0-2.562-2.125-2.562-2.125-4-5 .25-3.312.25-3.312 1-6l-3.875.563C342 455 342 455 340 454l.313 3.188C340 461 340 461 338 463.938c-3.965 2.725-6.28 2.736-11 2.062-2.5-1.562-2.5-1.562-4-4-.25-3.75-.25-3.75 0-7l-2 1c-2.666.04-5.334.043-8 0v5c-2.625 3.58-4.097 4.839-8.5 5.625-4.408-.787-5.824-2.084-8.5-5.625-.812-2.812-.812-2.812-1-5l-3.375.063C288 456 288 456 286 455v7l-5 2v2c-4.352.427-6.329.51-9.875-2.187-2.108-2.79-2.83-4.378-3.125-7.813h-6v5h-1l-.875-3.875c-.745-4.076-.745-4.076-3.125-6.125a162 162 0 0 0-9 0l.25-4.25c.152-4.564.152-4.564-1.812-7.187-3.03-1.942-5.947-2.757-9.438-3.563l-.187-3.187c-.97-4.55-2.133-6.033-5.813-8.813-3.182-.88-3.182-.88-6-1v-9l3.438-.937c3.35-.692 3.35-.692 4.562-2.063.333-4.458.333-4.458 0-9-3.704-2.47-5.621-2.47-10-2-2.718 3.625-3.418 4.809-4 9h-5l-1-6 3.938-1.875c4.05-1.614 4.05-1.614 5.062-4.125.464-4.968.464-4.968-1.562-9.375-3.117-2.077-5.743-2.34-9.438-2.625l-1-11 2.75.25c3.274.006 3.274.006 5.688-1.812 1.91-2.473 1.91-2.473 1.437-6.125L219 363c-3.043-1.522-5.654-1.239-9-1-2.125 3.188-2.502 5.265-3 9l-7-2v-5l8-2c.994-3.977 1.363-6.929 1-11-2.056-2.894-3.325-3.816-6.75-4.75L200 346v-9l3.375-.75c4.044-.921 4.044-.921 5.625-5.25 0-3.578 0-3.578-1-7-3.741-3.21-3.741-3.21-8-4v-8l3.938-1.375c4.082-1.111 4.082-1.111 5.062-3.625.566-5.548.566-5.548-1.75-10.375-2.44-1.855-2.44-1.855-6.25-3.625v-5l6-2 .875 4.438L209 295c2.799 1.4 4.905 1.253 8 1 3.282-2.652 3.282-2.652 3.313-6-.096-3.18-.096-3.18-2.313-6-3.568-.736-3.568-.736-7-1l1-10 4.438-1.375c4.552-1.028 4.552-1.028 5.562-3.625q.548-4.495 1-9l3.813-.25c4.582-.33 4.582-.33 7.187-4.75.5-3.542.5-3.542 0-7-2.833-2.833-4.354-3.72-8-5 0-5 0-5 1-6h5l1.438 3.438c1.198 3.32 1.198 3.32 2.562 4.562 3.958.25 3.958.25 8 0 2.243-1.812 2.243-1.812 2.195-4.383l-.07-2.742L246 232l-8-2 1-7h6l4 8c2.665.086 5.335.08 8 0 2.421-1.997 2.421-1.997 2.375-5.937L259 221c-3.741-3.21-3.741-3.21-8-4l1-6 6-1 .813 2.813c1.033 3.449 1.033 3.449 4.187 6.187 4.078.425 5.53.313 9-2 .919-3.932.919-3.932 1-8-2.404-3.607-3.947-3.855-8-5v-5h5l1.563 3.438c2.094 3.836 2.094 3.836 5.875 4.687 4.03-.141 5.626-.357 8.562-3.125 1.376-4.084 1.376-4.084 2-8l4.75-.625c4.064-.799 4.979-1.064 7.813-4.312 1.483-3.005 1.483-3.005 2.437-6.063h6l1.375 2.875c1.427 3.128 1.427 3.128 3.625 5.125 5.854.444 5.854.444 11-2 1.223-4.059 1.223-4.059 2-8"/><path fill="#034256" d="M415 399c2.438 1.625 2.438 1.625 4 4 .563 3.438.563 3.438 0 7-2.125 2.938-2.125 2.938-5 5-4.218.615-7.178-.202-11-2-1.472-8.219-1.472-8.219.813-12 3.894-3.56 6.086-3.143 11.187-2"/><path fill="#F4F4F2" d="M448.5 177.313c4.4.864 5.898 2.06 8.5 5.687.625 3 .625 3 0 6-2.062 2.875-2.062 2.875-5 5-3.998.631-6.007.68-9.375-1.625-2.057-3.006-2.698-4.713-2.625-8.375 2.435-4.11 3.755-5.755 8.5-6.687"/><path fill="#034357" d="M440 348c3 2.063 3 2.063 5 5 .07 3.992-.414 6.154-2.687 9.438-3.069 2.073-4.673 2.156-8.313 1.562-3.458-1.998-4.74-3.166-5.937-7-.063-3-.063-3 1.937-7 3.75-2.5 5.559-2.536 10-2m0-26c3 2.063 3 2.063 5 5 .07 3.958-.43 6.145-2.625 9.438-3.405 2.24-5.382 2.263-9.375 1.562-3-2.625-3-2.625-5-6-.073-3.662.568-5.369 2.625-8.375 3.368-2.304 5.377-2.256 9.375-1.625"/><path fill="#034358" d="M454 335c2.5 1.563 2.5 1.563 4 4 .725 4.429.495 6.28-2.062 10-2.938 2-2.938 2-6.5 2.125-4.081-1.336-5.364-2.391-7.438-6.125-.592-3.628-.467-5.26 1.5-8.375 3.656-2.376 6.236-2.158 10.5-1.625"/><path fill="#034458" d="M468 323c3 3 3 3 3.438 6.938C471 334 471 334 469.5 336.5c-3.704 2.223-6.27 2.095-10.5 1.5-3.028-2.574-3.862-4.152-4.5-8.062.5-2.938.5-2.938 1.938-5.313 3.9-2.474 7.06-2.069 11.562-1.625"/><path fill="#034459" d="M454 361c2.5 1.563 2.5 1.563 4 4 .558 3.906.584 6.051-1.5 9.438-3.665 2.29-6.269 2.09-10.5 1.562-2.5-1.562-2.5-1.562-4-4-.558-3.906-.584-6.051 1.5-9.437 3.665-2.291 6.269-2.092 10.5-1.563"/><path fill="#F5F5F3" d="M239.938 463.563c4.062.437 4.062.437 6.562 2 2.128 3.457 2.2 5.45 1.5 9.437-2.625 3-2.625 3-6 5-3.99.16-5.436-.508-8.437-3.125-2.061-3.792-1.704-5.77-.563-9.875 3-3 3-3 6.938-3.437M269 464c2.938 2.063 2.938 2.063 5 5 0 3.625 0 3.625-1 7-3 3-3 3-6.937 3.5-4.063-.5-4.063-.5-6.563-2.625-1.766-3.384-2.22-5.119-1.5-8.875 3.342-3.735 6.042-4.93 11-4"/><path fill="#034357" d="M428 387c2.563 1.5 2.563 1.5 4 4 0 4.063 0 4.063-1 8-4 3-4 3-6.937 3.5-4.177-.682-5.572-2.13-8.063-5.5-.67-3.651-.482-5.237 1.5-8.375 3.656-2.376 6.236-2.158 10.5-1.625"/><path fill="#034458" d="M436.938 373.5c3.062.5 3.062.5 6 2.563C445 379 445 379 445 382.625 444 386 444 386 441 389c-4.393.65-6.31.474-10-2.062-2-2.938-2-2.938-2.062-6.563 1.396-4.436 3.385-6.09 8-6.875M467 348c2.438 1.563 2.438 1.563 4 4 .563 3.94.604 6.058-1.562 9.438-3.38 2.166-5.498 2.125-9.438 1.562-2.437-1.562-2.437-1.562-4-4-.563-3.94-.604-6.058 1.563-9.437 3.38-2.167 5.497-2.126 9.437-1.563"/><path fill="#F1F1EF" d="M123.625 191c3.375 1 3.375 1 6.375 4 .65 4.393.474 6.31-2.062 10-2.938 2-2.938 2-6.563 2.063C118 206 118 206 115 202c-.695-4.082-.337-5.52 2.063-8.937C120 191 120 191 123.625 191"/><path fill="#F3F3F1" d="M450.188 204c2.812 1 2.812 1 5.812 4 .5 3.938.5 3.938 0 8-2.187 2.5-2.187 2.5-5 4-5 0-5 0-7.812-2.687C441 214 441 214 441 209c3.012-3.3 4.628-5 9.188-5"/><path fill="#F4F4F3" d="m204 114 4 3c.563 3.938.563 3.938 0 8-2.062 2.563-2.062 2.563-5 4-3.625 0-3.625 0-7-1-3-4-3-4-3.437-7 .437-3 .437-3 2-5.375 3.35-2.234 5.485-2.119 9.437-1.625"/><path fill="#F5F5F3" d="M466 192c3 3 3 3 3.375 7-.375 4-.375 4-3.375 7-3.656 1.113-5.315 1.32-8.812-.312C455 204 455 204 454 202c-.38-3.503-.402-5.363 1.5-8.375 3.619-2.352 6.28-2.094 10.5-1.625"/><path fill="#F6F6F4" d="M387 114c2.438 1.625 2.438 1.625 4 4 .563 2.938.563 2.938 0 6-2.187 2.875-2.187 2.875-5 5-5 0-5 0-7.812-2.125C376 124 376 124 375.438 120.938 376 118 376 118 377.563 115.625c3.372-2.248 5.462-2.193 9.437-1.625"/><path fill="#F5F7F5" d="M405 192c4.245-.539 6.856-.744 10.5 1.625 1.956 3.096 2.1 4.774 1.5 8.375-1.5 2.375-1.5 2.375-4 4-4.062.5-4.062.5-8 0-3.145-4.193-3.619-5.048-3-10z"/><path fill="#F2F2F0" d="M100 270c2.438 1.625 2.438 1.625 4 4 .563 3 .563 3 0 6-2.582 2.886-4.253 3.863-8.062 4.563C93 284 93 284 90.625 281.813 89 279 89 279 89 274c2.996-4.434 5.853-4.735 11-4"/><path fill="#0E485A" d="M316.938 463.438c4.152.762 5.62 2.158 8.062 5.562.063 3.125.063 3.125-1 6-4 3-4 3-7 3.5-3-.5-3-.5-5.375-2.687C310 473 310 473 310 468c2.108-3 3.322-3.87 6.938-4.562"/><path fill="#034357" d="M388 400c2.5 2.125 2.5 2.125 4 5 0 3.125 0 3.125-1 6-4 3-4 3-7.562 2.938C380 413 380 413 377 409c0-5 0-5 1.563-7.312 3.387-2.346 5.404-2.336 9.437-1.688"/><path fill="#F5F5F3" d="m308 88 4 3c.5 4 .5 4 0 8-4.394 3.296-5.708 3.674-11 3-3-4-3-4-3.437-7 .437-3 .437-3 2.062-5.375 3.07-2.1 4.72-2.158 8.375-1.625"/><path fill="#F6F6F4" d="M282 88c2.375 1.563 2.375 1.563 4 4 .5 3.563.5 3.563 0 7-4 3-4 3-7 3.438-3-.438-3-.438-5.375-2.063-2.112-3.087-2.237-4.703-1.625-8.375 2.78-4.064 5.187-4.802 10-4"/><path fill="#F5F5F3" d="M100 296c3 3 3 3 3.438 7l-.438 4c-4 3-4 3-7 3.5-3-.5-3-.5-5.375-2.687C89 305 89 305 89 300c3.002-4.443 5.849-4.656 11-4"/><path fill="#F6F6F4" d="M278.938 477.688C283 478 283 478 286 481c.5 3.438.5 3.438 0 7-2.125 2.5-2.125 2.5-5 4-3.125 0-3.125 0-6-1-3-4-3-4-2.812-7.625 1.162-4.83 1.745-5.29 6.75-5.687"/><path fill="#F3F6F5" d="M239.938 412.688C244 413 244 413 247 416c.5 3.438.5 3.438 0 7-2.125 2.5-2.125 2.5-5 4-3.125 0-3.125 0-6-1-3-4-3-4-2.812-7.625 1.162-4.83 1.745-5.29 6.75-5.687"/><path fill="#034357" d="M411.563 426c3.437 1 3.437 1 6.437 5 0 5 0 5-1.625 7.313-3.066 2.178-4.683 2.225-8.375 1.687-4-3-4-3-4.5-6.437.5-3.563.5-3.563 2.063-6.063 2.437-1.5 2.437-1.5 6-1.5m26-25.937C441 401 441 401 444 404c.54 3.63.464 5.322-1.625 8.375-3.087 2.112-4.703 2.237-8.375 1.625-2.375-1.625-2.375-1.625-4-4-.61-3.659-.445-5.305 1.563-8.437 2.437-1.563 2.437-1.563 6-1.5"/><path fill="#0C495D" d="M473 285c4-.437 4-.437 8 0 3 3 3 3 3.375 6.5C484 295 484 295 481 298c-4 .375-4 .375-8 0-3-3-3-3-3.375-5.937C470 289 470 289 473 285"/><path fill="#F1F1F0" d="M214.563 101.063C218 102 218 102 221 105c-.175 4.89-.472 6.472-4 10-4.926.629-5.834.125-10-3-.573-3.943-.566-6.094 1.563-9.5 2.437-1.5 2.437-1.5 6-1.437"/><path fill="#054356" d="M480 310c2.313 1.625 2.313 1.625 4 4 .612 3.672.487 5.288-1.625 8.375C480 324 480 324 477 324.563c-3-.563-3-.563-5.437-2.75C470 319 470 319 470 316.438c2.234-5.447 4.087-6.438 10-6.438"/><path fill="#034458" d="M423.438 412.563c3.562.437 3.562.437 6.062 2 1.5 2.437 1.5 2.437 1.375 6.062C430 424 430 424 428 426c-3.937.313-3.937.313-8 0-3-3-3-3-3.375-6.5.523-4.885 1.938-6.317 6.813-6.937"/><path fill="#F2F2F0" d="M110.625 205.125C114 206 114 206 116 209c.375 3.5.375 3.5 0 7-4 3-4 3-7.625 2.813C105 218 105 218 103 216c-.375-3.937-.375-3.937 0-8 4-3 4-3 7.625-2.875"/><path fill="#F4F6F5" d="M252.375 425.625C256 426 256 426 258.5 427.563c1.5 2.437 1.5 2.437 1.375 6.062C259 437 259 437 257 439c-3.88.431-6.15.532-9.5-1.562-1.5-2.438-1.5-2.438-1.375-6.063 1.152-4.442 1.649-5.239 6.25-5.75"/><path fill="#F1F1EF" d="M373 101c2.313 1.563 2.313 1.563 4 4 .5 3.563.5 3.563 0 7-4 3-4 3-7.625 2.813C366 114 366 114 364 112c-.375-3.937-.375-3.937 0-8 4-3 4-3 9-3"/><path fill="#F3F3F1" d="M110.625 361.188C114 362 114 362 116 364c.431 3.88.532 6.15-1.562 9.5-2.438 1.5-2.438 1.5-6.063 1.438C105 374 105 374 103 371c-.375-3.5-.375-3.5 0-7 4-3 4-3 7.625-2.812"/><path fill="#F2F2F0" d="M256 478c2.438 1.563 2.438 1.563 4 4-.214 6.214-.214 6.214-3 9-3.937.375-3.937.375-8 0-3-4-3-4-3-9 2.83-4.028 5.176-4.804 10-4"/><path fill="#F6F6F4" d="M217 465c2.438 1.563 2.438 1.563 4 4-.062 3.625-.062 3.625-1 7-3.704 2.47-5.621 2.47-10 2-3-4-3-4-2.875-7.625 1.444-5.571 4.603-6.02 9.875-5.375"/><path fill="#F1F1EF" d="M462.625 218.063C466 219 466 219 468 222c.46 3.6.412 5.357-1.562 8.438C464 232 464 232 460.375 231.938 457 231 457 231 455 228c-.46-3.6-.412-5.357 1.563-8.437C459 218 459 218 462.625 218.063M96.5 321.5c3.5.5 3.5.5 6.5 4.5.375 3.063.375 3.063 0 6-3.3 3.3-4.437 3.907-9 4-2.375-1.562-2.375-1.562-4-4-.437-3-.437-3 0-6 3-4 3-4 6.5-4.5"/><path fill="#F2F2F0" d="M97.625 244.063C101 245 101 245 103 248c.46 3.6.412 5.357-1.562 8.438C99 258 99 258 95.375 257.938 92 257 92 257 90 254c-.46-3.6-.412-5.357 1.563-8.437C94 244 94 244 97.625 244.063m377.438-39C478 206 478 206 481 209c.438 3.5.438 3.5 0 7-4.166 3.125-5.074 3.629-10 3-3-3-3-3-3.437-6.437C468 209 468 209 469.625 206.5c2.375-1.5 2.375-1.5 5.438-1.437"/><path fill="#F3F3F1" d="M295 465c4 3 4 3 4.438 5.938C299 474 299 474 296 478c-4.379.47-6.296.47-10-2-.937-3.375-.937-3.375-1-7 2.673-4.17 5.217-4.698 10-4"/><path fill="#F4F4F2" d="M330.938 88.688C335 89 335 89 338 92c.54 3.63.464 5.322-1.625 8.375-3.053 2.089-4.745 2.166-8.375 1.625-3-3-3-3-3.312-7.062.423-5.333.917-5.827 6.25-6.25"/><path fill="#F3F3F1" d="M252.938 88.625 257 89c3 4 3 4 3 9-2.125 2.375-2.125 2.375-5 4-4.59-.092-5.68-.68-9-4 .315-5.993.507-8.763 6.938-9.375"/><path fill="#07475B" d="M396.938 438.563c3.062.437 3.062.437 5.5 2C404 443 404 443 403.938 446.625 403 450 403 450 400 452c-6.453-.453-6.453-.453-9-3-.312-3.437-.312-3.437 0-7 3-3 3-3 5.938-3.437"/><path fill="#034357" d="M451.625 387.125C455 388 455 388 457 390c.313 3.438.313 3.438 0 7-3 3-3 3-6.5 3.375C447 400 447 400 444 397c-.539-3.616-.422-5.341 1.563-8.437C448 387 448 387 451.625 387.125"/><path fill="#F0F3F2" d="M301 193c3.938-.375 3.938-.375 8 0 3 3 3 3 3.5 5.938-.5 3.062-.5 3.062-2.687 5.437C307 206 307 206 302 206c-3.15-4.2-3.527-5.05-3-10z"/><path fill="#034256" d="M276.938 348.563c3.062.437 3.062.437 5.5 2.062C284 353 284 353 283.938 356.063 283 359 283 359 280 362c-4.687-.312-4.687-.312-9-1-.187-4.312-.187-4.312 0-9 3-3 3-3 5.938-3.437"/><path fill="#034357" d="M396.938 387.563c3.062.437 3.062.437 5.437 2.125C404 392 404 392 404 397c-1.625 2.313-1.625 2.313-4 4-3.062.438-3.062.438-6 0-3-3-3-3-3.375-6.5.485-4.528 1.708-6.252 6.313-6.937m-81 0c3.062.437 3.062.437 5.5 2C323 392 323 392 322.938 395.625 322 399 322 399 319 401c-5 0-5 0-7.312-1.625-2.167-3.05-2.234-4.707-1.688-8.375 3-3 3-3 5.938-3.437"/><path fill="#034256" d="M274 323c3.5.063 3.5.063 7 1 3 4 3 4 2.875 7.125C283 334 283 334 280 336c-3 .313-3 .313-6 0-3-3-3-3-3.375-6.5C271 326 271 326 274 323"/><path fill="#034357" d="M359.188 400.063C362 401 362 401 364 404c.313 3 .313 3 0 6-3 3-3 3-6.5 3.438L354 413c-3-4-3-4-3-9 2.733-3.055 4.045-4.019 8.188-3.937"/><path fill="#F2F5F4" d="M265.938 438.563c3.062.437 3.062.437 5.5 2.062C273 443 273 443 272.938 446.063 272 449 272 449 269 452c-3 .375-3 .375-6 0-3-3-3-3-3.375-6.5.485-4.528 1.708-6.252 6.313-6.937"/><path fill="#F4F4F3" d="M475.625 231.063C479 232 479 232 481 235c-.187 3.563-.187 3.563-1 7-3.47 2.314-4.918 2.51-9 2-3-4-3-4-3-9 2.342-3.56 3.312-4.012 7.625-3.937"/><path fill="#F0F0EE" d="M149.625 426.063C153 427 153 427 155 430c-.187 3.563-.187 3.563-1 7-3 2-3 2-6.562 1.813C144 438 144 438 142 435c0-5 0-5 1.563-7.375C146 426 146 426 149.625 426.063"/><path fill="#034358" d="M407 375c3.5.063 3.5.063 7 1 3 4 3 4 2.875 6.563C416 385 416 385 413 388c-3 .375-3 .375-6 0-3-3-3-3-3.375-6.5C404 378 404 378 407 375"/><path fill="#0B485B" d="M494 298c3 3 3 3 3.375 6-.375 3-.375 3-3.375 6-3.5.438-3.5.438-7 0-3.105-4.14-3.64-5.098-3-10 3.695-2.463 5.633-2.39 10-2"/><path fill="#034459" d="M423.5 362.625C427 363 427 363 430 366c.375 3 .375 3 0 6-3 3-3 3-6.5 3.375C420 375 420 375 417 372c-.375-3-.375-3 0-6 3-3 3-3 6.5-3.375"/><path fill="#074558" d="M490.563 324.25C494 325 494 325 496 327c.375 3.438.375 3.438 0 7-4 3-4 3-7.125 2.813C486 336 486 336 484 334c-.312-4-.312-4 0-8 3-2 3-2 6.563-1.75"/><path fill="#084659" d="M478.625 337.063C482 338 482 338 484 341c-.125 3-.125 3-1 6-4 3-4 3-6.562 2.875C474 349 474 349 471 346c0-5 0-5 1.563-7.375C475 337 475 337 478.625 337.063"/><path fill="#EEF2F1" d="M214.563 335.125C217 336 217 336 220 339c-.125 3.563-.125 3.563-1 7-3 2-3 2-8 2-2.375-2.187-2.375-2.187-4-5 0-2.625 0-2.625 1-5 4-3 4-3 6.563-2.875"/><path fill="#F3F3F1" d="M439 141c3 3 3 3 3.375 6-.375 3-.375 3-3.375 6-3.5.438-3.5.438-7 0-3-4-3-4-2.875-7.125 1.592-5.23 4.963-5.387 9.875-4.875"/><path fill="#0A475A" d="M369.938 464.563c3.062.437 3.062.437 5.5 2.062 1.562 2.375 1.562 2.375 1.5 5.5C376 475 376 475 373 477c-3 .313-3 .313-6 0-3-3-3-3-3.375-6 .533-4.267 2.059-5.804 6.313-6.437"/><path fill="#0B495D" d="M384.625 452.125C388 453 388 453 390 455c.313 2.938.313 2.938 0 6-3 3-3 3-6.5 3.375C380 464 380 464 377 461c0-5 0-5 1.563-7.375C381 452 381 452 384.625 452.125"/><path fill="#EDEDEB" d="M162.063 439.625 166 440c2 3 2 3 1.813 6.563C167 450 167 450 164 452c-5 0-5 0-7.312-1.687C155 448 155 448 155 443c3-3 3-3 7.063-3.375"/><path fill="#F3F3F1" d="M449.563 154.188C453 155 453 155 455 158v5c-3 3-3 3-6.5 3.438L445 166c-3-4-3-4-2.875-7.125 1.34-4.4 2.959-4.923 7.438-4.687"/><path fill="#F1F1EF" d="M423.563 128.188C427 129 427 129 429 132v5c-3 3-3 3-6.5 3.438L419 140c-3-4-3-4-2.875-7.125 1.34-4.4 2.959-4.923 7.438-4.687"/><path fill="#F3F6F4" d="M213.438 309.688C217 310 217 310 220 313c-.333 6.333-.333 6.333-3 9-2.875.438-2.875.438-6 0-2.437-2.187-2.437-2.187-4-5 .226-4.87 1.414-6.856 6.438-7.312"/><path fill="#F2F2F0" d="M133 154c6.333.333 6.333.333 9 3 .313 2.938.313 2.938 0 6-3 3-3 3-6.5 3.438L132 166c-3-4-3-4-2.875-6.562C130 157 130 157 133 154"/><path fill="#F4F4F2" d="M148.438 140.688C152 141 152 141 155 144c.375 3 .375 3 0 6-3 3-3 3-6.562 3.313C145 153 145 153 143 151c-.25-4-.25-4 0-8 2-2 2-2 5.438-2.312"/><path fill="#F3F3F1" d="M159 128c6.333.333 6.333.333 9 3 .313 2.938.313 2.938 0 6-3 3-3 3-5.937 3.438-3.063-.438-3.063-.438-5.5-2.125C155 136 155 136 155.063 133.438 156 131 156 131 159 128"/><path fill="#F1F1EF" d="M135.438 413.688C139 414 139 414 142 417c-.125 3.563-.125 3.563-1 7-3 2-3 2-8 2-2.375-1.625-2.375-1.625-4-4 .21-5.234.875-7.807 6.438-8.312"/><path fill="#074559" d="M344 464.625c3 .375 3 .375 6 3.375.375 3.563.375 3.563 0 7-3.47 2.313-4.922 2.425-9 2-3-3-3-3-3.375-6 .539-4.309 2.066-5.836 6.375-6.375"/><path fill="#F0F3F2" d="M278.438 452.688C282 453 282 453 285 456c0 5 0 5-1.687 7.313C281 465 281 465 276 465c-2.375-2.187-2.375-2.187-4-5 .226-4.87 1.414-6.856 6.438-7.312"/><path fill="#ECECEA" d="M303 478c3.063.125 3.063.125 6 1 2.314 3.47 2.51 4.918 2 9-4 3-4 3-7.125 2.938-.949-.31-1.897-.62-2.875-.938-2-4-2-4-1.812-6.562C300 481 300 481 303 478"/><path fill="#F2F5F4" d="M423.563 206.188C427 207 427 207 429 210c-.187 3.063-.187 3.063-1 6-3 2-3 2-6.625 1.75L418 217c-1.522-3.043-1.239-5.654-1-9 3-2 3-2 6.563-1.812"/><path fill="#EEEEEC" d="M172 115c3.563.125 3.563.125 7 1 2 3 2 3 2 8-4 3-4 3-7.687 2.813L170 126c-1.4-2.799-1.253-4.905-1-8z"/><path fill="#F1F1EF" d="M485 219c3.563.125 3.563.125 7 1 2 3 2 3 1.813 6.063C493 229 493 229 490 231h-5c-3-3-3-3-3.375-6 .375-3 .375-3 3.375-6"/><path fill="#EEEEED" d="M407 115c4.535.189 5.705.705 9 4-.125 3.063-.125 3.063-1 6-3.452 2.302-4.947 2.345-9 2-2-2-2-2-2.312-5.437C404 118 404 118 407 115"/><path fill="#F0F0EE" d="M463.125 167.125C466 168 466 168 468 171c-.187 3.063-.187 3.063-1 6-3 2-3 2-8 2-3-3-3-3-3.437-6 .673-4.62 3.003-6.057 7.562-5.875"/><path fill="#F1F1EF" d="M228.063 89.188C231 90 231 90 233 93v5c-3 3-3 3-6 3.438-3-.438-3-.438-6-4.438.125-3.125.125-3.125 1-6 3-2 3-2 6.063-1.812"/><path fill="#F0F0EE" d="M123 400.563c3 .437 3 .437 6 4.437-.202 4.142-.95 4.95-4 8-3.647-.223-5.384-.384-8-3-.312-2.937-.312-2.937 0-6 3-3 3-3 6-3.437"/><path fill="#F2F2F0" d="M175 452.625c3 .375 3 .375 6 3.375-.062 3.563-.062 3.563-1 7-4 2-4 2-6.625 1.813C171 464 171 464 169 461v-5c3-3 3-3 6-3.375"/><path fill="#074558" d="M463.5 375.75c3.5.25 3.5.25 5.5 2.25.25 3.5.25 3.5 0 7-2 2-2 2-5.437 2.375L460 387c-3-4-3-4-2.812-6.625 1.323-3.87 2.204-4.332 6.312-4.625"/><path fill="#F5F5F3" d="M227 478.625c3 .375 3 .375 6 3.375-.187 3.625-.187 3.625-1 7-3.043 1.522-5.654 1.239-9 1-2-3-2-3-2-8 3-3 3-3 6-3.375"/><path fill="#F3F3F1" d="M120 167c3.625.188 3.625.188 7 1 1.522 3.043 1.239 5.654 1 9-3 2-3 2-8 2-3-3-3-3-3.375-6 .375-3 .375-3 3.375-6"/><path fill="#F6F6F4" d="M93 349c2.938-.375 2.938-.375 6 0 3 3 3 3 3.438 6-.438 3-.438 3-4.438 6-3.37-.24-4.588-.588-7-3-.345-4.053-.302-5.548 2-9"/><path fill="#F3F3F1" d="M94 219c3.625.188 3.625.188 7 1 1.4 2.799 1.253 4.905 1 8l-3 3h-5c-3-3-3-3-3.375-6C91 222 91 222 94 219M355 89h5c3 4 3 4 3 9l-3 3c-6.444-.444-6.444-.444-8-2-.25-3.375-.25-3.375 0-7z"/><path fill="#1B1B1B" d="m441 179 3 1-3 4c.171 3.027.171 3.027 1 6l1 4-4-2a128 128 0 0 0-8 0v-11l4.438-.437c4.254-.05 4.254-.05 5.562-1.563"/><path fill="#F2F2F0" d="M81 284h5c3 3 3 3 3.438 6C89 293 89 293 85 296c-2.625-.125-2.625-.125-5-1-2-3-2-3-2-8z"/><path fill="#F0F0EE" d="M291.875 76.75C295 77 295 77 298 80c-.125 3.063-.125 3.063-1 6-3 2-3 2-8 2-1.937-2.187-1.937-2.187-3-5 1.603-5.879 1.603-5.879 5.875-6.25"/><path fill="#F2F2F0" d="M290 492h5l3 3c-.223 3.647-.384 5.384-3 8-3.5-.187-3.5-.187-7-1l-2-3c1-4 1-4 4-7"/><path fill="#F1F4F3" d="M383 194c3.32.008 5.992 2.68 6 5a6 6 0 0 1-6 6c-2.767-.006-4.994-2.233-5-6a5 5 0 0 1 5-5"/><path fill="#F1F1EF" d="M474 181c3.32.008 5.992 2.68 6 5a6 6 0 0 1-6 6c-2.767-.006-4.994-2.233-5-6a5 5 0 0 1 5-5"/><path fill="#EFEFEE" d="M396 103c3.32.008 5.992 2.68 6 5a6 6 0 0 1-6 6c-2.767-.006-4.994-2.233-5-6a5 5 0 0 1 5-5"/><path fill="#EFEFED" d="M187 466c3.32.008 5.992 2.68 6 5a6 6 0 0 1-6 6c-2.767-.006-4.994-2.233-5-6a5 5 0 0 1 5-5"/><path fill="#EDEDEB" d="M83 311c3.32.008 5.992 2.68 6 5a6 6 0 0 1-6 6c-2.767-.006-4.994-2.233-5-6a5 5 0 0 1 5-5"/><path fill="#F1F1F0" d="M487 271c3.32.008 5.992 2.68 6 5a6 6 0 0 1-6 6c-2.767-.006-4.994-2.233-5-6a5 5 0 0 1 5-5"/><path fill="#F1F1EF" d="M487 245c3.32.008 5.992 2.68 6 5a6 6 0 0 1-6 6c-2.767-.006-4.994-2.233-5-6a5 5 0 0 1 5-5"/><path fill="#EFEFEE" d="M109 181c3.32.008 5.992 2.68 6 5a6 6 0 0 1-6 6c-2.767-.006-4.994-2.233-5-6a5 5 0 0 1 5-5"/><path fill="#EDEDEB" d="M318 77c3.32.008 5.992 2.68 6 5a6 6 0 0 1-6 6c-2.767-.006-4.994-2.233-5-6a5 5 0 0 1 5-5"/><path fill="#F1F1EF" d="M109 388c3.32.008 5.992 2.68 6 5a6 6 0 0 1-6 6c-2.767-.006-4.994-2.233-5-6a5 5 0 0 1 5-5"/><path fill="#034256" d="M423 312c3.32.008 5.992 2.68 6 5a6 6 0 0 1-6 6c-2.767-.006-4.994-2.233-5-6a5 5 0 0 1 5-5"/><path fill="#EFEFED" d="M83 259c3.32.008 5.992 2.68 6 5a6 6 0 0 1-6 6c-2.767-.006-4.994-2.233-5-6a5 5 0 0 1 5-5"/><path fill="#F0F0EE" d="M187 103c3.32.008 5.992 2.68 6 5a6 6 0 0 1-6 6c-2.767-.006-4.994-2.233-5-6a5 5 0 0 1 5-5"/><path fill="#F1F4F3" d="M331 194c3.32.008 5.992 2.68 6 5a6 6 0 0 1-6 6c-2.767-.006-4.994-2.233-5-6a5 5 0 0 1 5-5"/><path fill="#F1F1EF" d="M266 492a5 5 0 0 1 5 5 5 5 0 0 1-5 5 5 5 0 0 1-5-5 5 5 0 0 1 5-5"/><path fill="#F3F3F1" d="M318 492a5 5 0 0 1 5 5 5 5 0 0 1-5 5 5 5 0 0 1-5-5 5 5 0 0 1 5-5"/><path fill="#F2F2F0" d="M266 77a5 5 0 0 1 5 5 5 5 0 0 1-5 5 5 5 0 0 1-5-5 5 5 0 0 1 5-5"/><path fill="#EEEEEC" d="M331 479a5 5 0 0 1 5 5 5 5 0 0 1-5 5 5 5 0 0 1-5-5 5 5 0 0 1 5-5"/><path fill="#EEF2F1" d="M227 375a5 5 0 0 1 5 5 5 5 0 0 1-5 5 5 5 0 0 1-5-5 5 5 0 0 1 5-5"/><path fill="#034255" d="M317 261a5 5 0 0 1 5 5 5 5 0 0 1-5 5 5 5 0 0 1-5-5 5 5 0 0 1 5-5"/><path fill="#F3F6F4" d="M227 272a5 5 0 0 1 5 5 5 5 0 0 1-5 5 5 5 0 0 1-5-5 5 5 0 0 1 5-5"/><path fill="#0C485B" d="M451 414.75c3 .25 3 .25 5 2.25-.375 3.625-.375 3.625-1 7-3.375.625-3.375.625-7 1-2-2-2-2-2.25-5 .344-4.13 1.12-4.906 5.25-5.25"/><path fill="#071012" d="M368 427h8l1 11h-10z"/><path fill="#F5F7F5" d="M292 207a5 5 0 0 1 5 5 5 5 0 0 1-5 5 5 5 0 0 1-5-5 5 5 0 0 1 5-5"/><path fill="#0B475A" d="M437 427.75c3 .25 3 .25 5 2.25v5l-3 3c-5.435-.435-5.435-.435-7-2-.187-2.937-.187-2.937 0-6 2-2 2-2 5-2.25"/><path fill="#064457" d="M464 402a5 5 0 0 1 5 5 5 5 0 0 1-5 5 5 5 0 0 1-5-5 5 5 0 0 1 5-5"/><path fill="#034256" d="M291 287a5 5 0 0 1 5 5 5 5 0 0 1-5 5 5 5 0 0 1-5-5 5 5 0 0 1 5-5"/><path fill="#EFF3F2" d="M436 220a5 5 0 0 1 5 5 5 5 0 0 1-5 5 5 5 0 0 1-5-5 5 5 0 0 1 5-5"/><path fill="#034255" d="M423 338a5 5 0 0 1 5 5 5 5 0 0 1-5 5 5 5 0 0 1-5-5 5 5 0 0 1 5-5"/><path fill="#034256" d="M304 274a5 5 0 0 1 5 5 5 5 0 0 1-5 5 5 5 0 0 1-5-5 5 5 0 0 1 5-5"/><path fill="#034154" d="M370 262c3.32.008 5.992 2.68 6 5a6 6 0 0 1-6 6c-2.767-.006-4.994-2.233-5-6a5 5 0 0 1 5-5"/><path fill="#181E1F" d="m258 210 .813 2.813c1.033 3.449 1.033 3.449 4.187 6.187 3.432.286 5.724.092 9-1v2c-3.772 2.515-5.52 2.448-10 2-3.687-1.937-3.687-1.937-7-4l-4-1c.375-2.937.375-2.937 1-6 2-1 2-1 6-1"/><path fill="#ECECEA" d="M240 77a5 5 0 0 1 5 5 5 5 0 0 1-5 5 5 5 0 0 1-5-5 5 5 0 0 1 5-5"/><path fill="#EDF1F1" d="M331 454a5 5 0 0 1 5 5 5 5 0 0 1-5 5 5 5 0 0 1-5-5 5 5 0 0 1 5-5"/><path fill="#074356" d="M423 440a5 5 0 0 1 5 5 5 5 0 0 1-5 5 5 5 0 0 1-5-5 5 5 0 0 1 5-5"/><path fill="#044255" d="M477 389a5 5 0 0 1 5 5 5 5 0 0 1-5 5 5 5 0 0 1-5-5 5 5 0 0 1 5-5"/><path fill="#044458" d="M477 364a5 5 0 0 1 5 5 5 5 0 0 1-5 5 5 5 0 0 1-5-5 5 5 0 0 1 5-5"/><path fill="#EAEAE8" d="M501 259a5 5 0 0 1 5 5 5 5 0 0 1-5 5 5 5 0 0 1-5-5 5 5 0 0 1 5-5"/><path fill="#14191B" d="M239 223h6l1.625 3.875c1.952 4.31 1.952 4.31 5.625 5.625l2.75.5-1 2c-5.6 0-8.134-1.41-13-4l-3-1z"/><path fill="#EBF0F0" d="M357 194a5 5 0 0 1 5 5 5 5 0 0 1-5 5 5 5 0 0 1-5-5 5 5 0 0 1 5-5"/><path fill="#1D1D1D" d="m377 126 4 2c3.01-.238 6.014-.56 9-1l-2 10h-8l-.375-3.25c-.464-3.918-.464-3.918-2.625-7.75"/><path fill="#ECECEA" d="M501 233a5 5 0 0 1 5 5 5 5 0 0 1-5 5 5 5 0 0 1-5-5 5 5 0 0 1 5-5"/><path fill="#165264" d="M490 351a5 5 0 0 1 5 5 5 5 0 0 1-5 5 5 5 0 0 1-5-5 5 5 0 0 1 5-5"/><path fill="#034256" d="M345 262a5 5 0 0 1 5 5 5 5 0 0 1-5 5 5 5 0 0 1-5-5 5 5 0 0 1 5-5"/><path fill="#EEEEEC" d="M475 259a5 5 0 0 1 5 5 5 5 0 0 1-5 5 5 5 0 0 1-5-5 5 5 0 0 1 5-5"/><path fill="#E9E9E7" d="M240 493a5 5 0 0 1 5 5 5 5 0 0 1-5 5 5 5 0 0 1-5-5 5 5 0 0 1 5-5"/><path fill="#F2F5F4" d="M305 454a5 5 0 0 1 5 5 5 5 0 0 1-5 5 5 5 0 0 1-5-5 5 5 0 0 1 5-5"/><path fill="#034358" d="M370 389c2.767.006 4.994 2.233 5 4a5 5 0 0 1-5 5c-2.214-.005-3.995-1.786-4-5a4 4 0 0 1 4-4"/><path fill="#EAEAE8" d="M488 194a5 5 0 0 1 5 5 5 5 0 0 1-5 5 5 5 0 0 1-5-5 5 5 0 0 1 5-5"/><path fill="#E4E4E2" d="M201 90a5 5 0 0 1 5 5 5 5 0 0 1-5 5 5 5 0 0 1-5-5 5 5 0 0 1 5-5"/><path fill="#0D495C" d="M410 453a5 5 0 0 1 5 5 5 5 0 0 1-5 5 5 5 0 0 1-5-5 5 5 0 0 1 5-5"/><path fill="#E8E8E6" d="M201 480a5 5 0 0 1 5 5 5 5 0 0 1-5 5 5 5 0 0 1-5-5 5 5 0 0 1 5-5"/><path fill="#EFEFED" d="M83 337c2.767.006 4.994 2.233 5 4a5 5 0 0 1-5 5c-2.214-.005-3.995-1.786-4-5a4 4 0 0 1 4-4"/><path fill="#E8E8E6" d="M96 194c2.767.006 4.994 2.233 5 4a5 5 0 0 1-5 5c-2.214-.005-3.995-1.786-4-5a4 4 0 0 1 4-4"/><path fill="#EEEEEC" d="M83 233c2.767.006 4.994 2.233 5 4a5 5 0 0 1-5 5c-2.214-.005-3.995-1.786-4-5a4 4 0 0 1 4-4"/><path fill="#1C2325" d="M352 183h10v3l-8 1-.75 2.813C352 193 352 193 348 196c-4.39.385-6.29.473-10-2v-2l3.75.625c4.356.759 4.356.759 8.25-1.625 1.304-4.05 1.304-4.05 2-8"/><path fill="#054357" d="M490 376a5 5 0 0 1 5 5 5 5 0 0 1-5 5 5 5 0 0 1-5-5 5 5 0 0 1 5-5"/><path fill="#F0F0EE" d="M344 77c2.767.006 4.994 2.233 5 4a5 5 0 0 1-5 5c-2.214-.005-3.995-1.786-4-5a4 4 0 0 1 4-4"/><path fill="#272726" d="m183 430 7 1 1 7-3.25.313c-4.061.456-4.061.456-7.75 3.687l-2-2 1.938-1.625c2.447-2.819 2.73-4.714 3.062-8.375"/><path fill="#034458" d="M302 376c2.767.006 4.994 2.233 5 4a5 5 0 0 1-5 5c-2.214-.005-3.995-1.786-4-5a4 4 0 0 1 4-4"/><path fill="#EEEEEC" d="M96 376c2.767.006 4.994 2.233 5 4a5 5 0 0 1-5 5c-2.214-.005-3.995-1.786-4-5a4 4 0 0 1 4-4"/><path fill="#034458" d="M290 364c2.767.006 4.994 2.233 5 4a5 5 0 0 1-5 5c-2.214-.005-3.995-1.786-4-5a4 4 0 0 1 4-4"/><path fill="#F0F0EE" d="M383 90c2.767.006 4.994 2.233 5 4a5 5 0 0 1-5 5c-2.214-.005-3.995-1.786-4-5a4 4 0 0 1 4-4"/><path fill="#F1F4F3" d="M318 467c2.767.006 4.994 2.233 5 4a5 5 0 0 1-5 5c-2.214-.005-3.995-1.786-4-5a4 4 0 0 1 4-4"/><path fill="#EDEDEB" d="M501 286c2.767.006 4.994 2.233 5 4a5 5 0 0 1-5 5c-2.214-.005-3.995-1.786-4-5a4 4 0 0 1 4-4"/><path fill="#EFEFED" d="M344 493c2.767.006 4.994 2.233 5 4a5 5 0 0 1-5 5c-2.214-.005-3.995-1.786-4-5a4 4 0 0 1 4-4"/><path fill="#1E2224" d="M227 236h5l1.063 3.313c2.357 4.487 4.216 5.173 8.937 6.687v1c-3.812.188-3.812.188-8 0l-3-3c-2.6-1.19-2.6-1.19-5-2 0-5 0-5 1-6"/><path fill="#181818" d="m428 166 2 1-2 3c-.08 2.665-.087 5.335 0 8l-8-1v-8l3.438-.937c3.35-.692 3.35-.692 4.562-2.063"/><path fill="#EAEFEF" d="M461 246c2.767.006 4.994 2.233 5 4a5 5 0 0 1-5 5c-2.214-.005-3.995-1.786-4-5a4 4 0 0 1 4-4"/><path fill="#182C32" d="M265 199h5l1.563 3.438c2.079 3.884 2.079 3.884 5.937 4.437l3.5.125 4 1c-3.932 2.621-6.35 2.436-11 2l-3-4c-3.088-1.28-3.088-1.28-6-2z"/><path fill="#070E10" d="M341 426h9v10l-8-1z"/><path fill="#EEF2F1" d="M448 234c2.767.006 4.994 2.233 5 4a5 5 0 0 1-5 5c-2.214-.005-3.995-1.786-4-5a4 4 0 0 1 4-4"/><path fill="#151515" d="M238 113c3.32.008 5.992 2.68 6 5a6 6 0 0 1-6 6c-2.767-.006-4.994-2.233-5-6a5 5 0 0 1 5-5"/><path fill="#034154" d="M344 390a4.001 4.001 0 0 1 0 8 4.001 4.001 0 0 1 0-8"/><path fill="#E8E8E6" d="M513 273c2.767.006 4.994 2.233 5 4a5 5 0 0 1-5 5c-2.214-.005-3.995-1.786-4-5a4 4 0 0 1 4-4"/><path fill="#E6E6E4" d="M513 247c2.767.006 4.994 2.233 5 4a5 5 0 0 1-5 5c-2.214-.005-3.995-1.786-4-5a4 4 0 0 1 4-4"/><path fill="#EEF2F2" d="M396 208c2.767.006 4.994 2.233 5 4a5 5 0 0 1-5 5c-2.214-.005-3.995-1.786-4-5a4 4 0 0 1 4-4"/><path fill="#181818" d="M345 113c3.32.008 5.992 2.68 6 5a6 6 0 0 1-6 6c-2.767-.006-4.994-2.233-5-6a5 5 0 0 1 5-5"/><path fill="#1A1A1A" d="M119 338c2.767.006 4.994 2.233 5 4a5 5 0 0 1-5 5c-2.214-.005-3.995-1.786-4-5a4 4 0 0 1 4-4"/><path fill="#124D5F" d="M491 272c4 2 4 2 6 4-.187 3.5-.187 3.5-1 7-3.85 2.567-5.586 1.833-10 1v-2l6-2c.21-4.14.21-4.14-1-8"/><path fill="#2B2B2B" d="M412 153a5 5 0 0 1 5 5 5 5 0 0 1-5 5 5 5 0 0 1-5-5 5 5 0 0 1 5-5"/><path fill="#E7EDED" d="M357 454a4.001 4.001 0 0 1 0 8 4.001 4.001 0 0 1 0-8"/><path fill="#F1F3F2" d="M488 299a4.001 4.001 0 0 1 0 8 4.001 4.001 0 0 1 0-8"/><path fill="#E8EEEE" d="M344 468c2.767.006 4.994 2.233 5 4a5 5 0 0 1-5 5c-2.214-.005-3.995-1.786-4-5a4 4 0 0 1 4-4"/><path fill="#E5ECEC" d="M227 298a4.001 4.001 0 0 1 0 8 4.001 4.001 0 0 1 0-8"/><path fill="#F0F3F3" d="M279 221a4.001 4.001 0 0 1 0 8 4.001 4.001 0 0 1 0-8"/><path fill="#141413" d="M146 391a5 5 0 0 1 5 5 5 5 0 0 1-5 5 5 5 0 0 1-5-5 5 5 0 0 1 5-5"/><path fill="#EAEFEE" d="M240 390a4.001 4.001 0 0 1 0 8 4.001 4.001 0 0 1 0-8"/><path fill="#0B0E0F" d="M424 194c2.767.006 4.994 2.233 5 4a5 5 0 0 1-5 5c-2.214-.005-3.995-1.786-4-5a4 4 0 0 1 4-4"/><path fill="#171717" d="M146 180c2.767.006 4.994 2.233 5 4a5 5 0 0 1-5 5c-2.214-.005-3.995-1.786-4-5a4 4 0 0 1 4-4"/><path fill="#EBF0EF" d="M292 442a4.001 4.001 0 0 1 0 8 4.001 4.001 0 0 1 0-8"/><path fill="#F4F7F5" d="M240 260a4.001 4.001 0 0 1 0 8 4.001 4.001 0 0 1 0-8"/><path fill="#121212" d="M397 141c2.767.006 4.994 2.233 5 4a5 5 0 0 1-5 5c-2.214-.005-3.995-1.786-4-5a4 4 0 0 1 4-4"/><path fill="#EFEFED" d="M357 481a4.001 4.001 0 0 1 0 8 4.001 4.001 0 0 1 0-8"/><path fill="#1B1B1B" d="m157 404 7 1v6l-3.312.875c-3.728.944-3.728.944-6.688 3.125l.938-2.125c1.095-2.964 1.626-5.752 2.062-8.875"/><path fill="#EFF3F2" d="M227 351a4.001 4.001 0 0 1 0 8 4.001 4.001 0 0 1 0-8"/><path fill="#0B0F10" d="M406 184h7l1 7h-9z"/><path fill="#EDEDEC" d="M449 130a4.001 4.001 0 0 1 0 8 4.001 4.001 0 0 1 0-8"/><path fill="#E7E7E5" d="M514 299a4.001 4.001 0 0 1 0 8 4.001 4.001 0 0 1 0-8"/><path fill="#161616" d="M120 233c2.214.005 3.995 1.786 4 3a4 4 0 0 1-4 4c-1.66-.004-2.996-1.34-3-4a3 3 0 0 1 3-3"/><path fill="#E8E8E6" d="M501 208a4.001 4.001 0 0 1 0 8 4.001 4.001 0 0 1 0-8"/><path fill="#151515" d="M187.563 141.938 191 142l-1 7h-7c-.043-2-.04-4 0-6 1-1 1-1 4.563-1.062"/><path fill="#E9E9E7" d="M136 130a4.001 4.001 0 0 1 0 8 4.001 4.001 0 0 1 0-8"/><path fill="#E9E9E8" d="M279 65a4.001 4.001 0 0 1 0 8 4.001 4.001 0 0 1 0-8"/><path fill="#E8E8E6" d="M136 442a4.001 4.001 0 0 1 0 8 4.001 4.001 0 0 1 0-8"/><path fill="#E7ECEB" d="M487 325c2.214.005 3.995 1.786 4 3a4 4 0 0 1-4 4c-1.66-.004-2.996-1.34-3-4a3 3 0 0 1 3-3"/><path fill="#EBEBE9" d="M501 312a4.001 4.001 0 0 1 0 8 4.001 4.001 0 0 1 0-8"/><path fill="#E7E7E5" d="M462 143a4.001 4.001 0 0 1 0 8 4.001 4.001 0 0 1 0-8"/><path fill="#E8E8E6" d="M436 117a4.001 4.001 0 0 1 0 8 4.001 4.001 0 0 1 0-8"/><path fill="#E4E4E2" d="M305 65a4.001 4.001 0 0 1 0 8 4.001 4.001 0 0 1 0-8"/><path fill="#191919" d="M170 418h7v6l-3.312.875c-3.728.944-3.728.944-6.688 3.125l2-4c.383-1.991.726-3.991 1-6"/><path fill="#212728" d="M303 185h6l1.25 2.813c1.666 3.554 1.666 3.554 5.75 6.187l4 1v2c-3.812-.293-6.33-.501-9.437-2.812C309 192 309 192 309 188h-6z"/><path fill="#EAEAE8" d="M123 143a4.001 4.001 0 0 1 0 8 4.001 4.001 0 0 1 0-8"/><path fill="#E3E3E2" d="M214 78a4.001 4.001 0 0 1 0 8 4.001 4.001 0 0 1 0-8"/><path fill="#EDEDEC" d="M279 507a4.001 4.001 0 0 1 0 8 4.001 4.001 0 0 1 0-8"/><path fill="#101010" d="M224 443h7v7h-7z"/><path fill="#EDEDEB" d="M70 273c2.214.005 3.995 1.786 4 3a4 4 0 0 1-4 4c-1.66-.004-2.996-1.34-3-4a3 3 0 0 1 3-3"/><path fill="#275765" d="M302 188c3.75-.375 3.75-.375 7 0l2 7-10-2-1 3-2-2c1.563-3 1.563-3 4-6"/><path fill="#121211" d="M159 165a5 5 0 0 1 5 5 5 5 0 0 1-5 5 5 5 0 0 1-5-5 5 5 0 0 1 5-5"/><path fill="#ECECEA" d="M149 117a4.001 4.001 0 0 1 0 8 4.001 4.001 0 0 1 0-8"/><path fill="#F1F1EF" d="M149 455a4.001 4.001 0 0 1 0 8 4.001 4.001 0 0 1 0-8"/><path fill="#E9E9E7" d="M70 299c2.214.005 3.995 1.786 4 3a4 4 0 0 1-4 4c-1.66-.004-2.996-1.34-3-4a3 3 0 0 1 3-3"/><path fill="#070F12" d="m442 288-1 7-8 1 1-7c5.75-1 5.75-1 8-1"/><path fill="#0F4D60" d="m207 286 2 11-8-4v-5c4-2 4-2 6-2"/><path fill="#ECECEA" d="M214 494a4.001 4.001 0 0 1 0 8 4.001 4.001 0 0 1 0-8"/><path fill="#EEEEEC" d="M370 78c2.214.005 3.995 1.786 4 3a4 4 0 0 1-4 4c-1.66-.004-2.996-1.34-3-4a3 3 0 0 1 3-3"/><path fill="#EFEFED" d="M305 507a4.001 4.001 0 0 1 0 8 4.001 4.001 0 0 1 0-8"/><path fill="#EBEBE9" d="M370 494a4.001 4.001 0 0 1 0 8 4.001 4.001 0 0 1 0-8"/><path fill="#E8EEED" d="M370 468a4.001 4.001 0 0 1 0 8 4.001 4.001 0 0 1 0-8"/><path fill="#EFEFED" d="M122 429c2.214.005 3.995 1.786 4 3a4 4 0 0 1-4 4c-1.66-.004-2.996-1.34-3-4a3 3 0 0 1 3-3"/><path fill="#151515" d="m168 153 9 3v6h-6z"/><path fill="#EDEDEB" d="M396 468c2.214.005 3.995 1.786 4 3a4 4 0 0 1-4 4c-1.66-.004-2.996-1.34-3-4a3 3 0 0 1 3-3"/><path fill="#F0F0EE" d="M83 208c2.214.005 3.995 1.786 4 3a4 4 0 0 1-4 4c-1.66-.004-2.996-1.34-3-4a3 3 0 0 1 3-3"/><path fill="#E7E7E5" d="M162 105a4.001 4.001 0 0 1 0 8 4.001 4.001 0 0 1 0-8"/><path fill="#E9E9E7" d="M331 507c2.214.005 3.995 1.786 4 3a4 4 0 0 1-4 4c-1.66-.004-2.996-1.34-3-4a3 3 0 0 1 3-3"/><path fill="#EDEDEB" d="M162 468a4.001 4.001 0 0 1 0 8 4.001 4.001 0 0 1 0-8"/><path fill="#DEE6E7" d="M253 248a4.001 4.001 0 0 1 0 8 4.001 4.001 0 0 1 0-8"/><path fill="#ECECEB" d="M252 507c2.214.005 3.995 1.786 4 3a4 4 0 0 1-4 4c-1.66-.004-2.996-1.34-3-4a3 3 0 0 1 3-3"/><path fill="#070D0F" d="M329 441h7l-1 7h-6z"/><path fill="#E2E9E9" d="M266 234c2.214.005 3.995 1.786 4 3a4 4 0 0 1-4 4c-1.66-.004-2.996-1.34-3-4a3 3 0 0 1 3-3"/><path fill="#111516" d="M378 188h1c0 5 0 5-2.062 7.375-3.82 2.113-5.792 1.798-9.938.625l-2-3 3.688.313c4.404.108 4.404.108 7.25-2.813z"/><path fill="#EAEFEF" d="M317 443c2.214.005 3.995 1.786 4 3a4 4 0 0 1-4 4c-1.66-.004-2.996-1.34-3-4a3 3 0 0 1 3-3"/><path fill="#F1F1EF" d="M83 364c2.214.005 3.995 1.786 4 3a4 4 0 0 1-4 4c-1.66-.004-2.996-1.34-3-4a3 3 0 0 1 3-3"/><path fill="#E3EAEA" d="M226 325c2.214.005 3.995 1.786 4 3a4 4 0 0 1-4 4c-1.66-.004-2.996-1.34-3-4a3 3 0 0 1 3-3"/><path fill="#EEEEEC" d="M70 326c2.214.005 3.995 1.786 4 3a4 4 0 0 1-4 4c-1.66-.004-2.996-1.34-3-4a3 3 0 0 1 3-3"/><path fill="#EFEFED" d="M70 247c2.214.005 3.995 1.786 4 3a4 4 0 0 1-4 4c-1.66-.004-2.996-1.34-3-4a3 3 0 0 1 3-3"/><path fill="#EEEEEC" d="M109 157c2.214.005 3.995 1.786 4 3a4 4 0 0 1-4 4c-1.66-.004-2.996-1.34-3-4a3 3 0 0 1 3-3"/><path fill="#EFEFED" d="M331 66c2.214.005 3.995 1.786 4 3a4 4 0 0 1-4 4c-1.66-.004-2.996-1.34-3-4a3 3 0 0 1 3-3"/><path fill="#F1F1EF" d="M252 66c2.214.005 3.995 1.786 4 3a4 4 0 0 1-4 4c-1.66-.004-2.996-1.34-3-4a3 3 0 0 1 3-3"/><path fill="#033F52" d="M410 353c2.214.005 3.995 1.786 4 3a4 4 0 0 1-4 4c-1.66-.004-2.996-1.34-3-4a3 3 0 0 1 3-3"/><path fill="#070B0D" d="M271 350v9l-6-2v-5c4.875-2 4.875-2 6-2"/><path fill="#E5EBEC" d="M317 209c2.214.005 3.995 1.786 4 3a4 4 0 0 1-4 4c-1.66-.004-2.996-1.34-3-4a3 3 0 0 1 3-3"/><path fill="#E9E9E7" d="M474 157c2.214.005 3.995 1.786 4 3a4 4 0 0 1-4 4c-1.66-.004-2.996-1.34-3-4a3 3 0 0 1 3-3"/><path fill="#EDEDEB" d="M422 105c2.214.005 3.995 1.786 4 3a4 4 0 0 1-4 4c-1.66-.004-2.996-1.34-3-4a3 3 0 0 1 3-3"/><path fill="#EFEFED" d="M109 416c2.214.005 3.995 1.786 4 3a4 4 0 0 1-4 4c-1.66-.004-2.996-1.34-3-4a3 3 0 0 1 3-3"/><path fill="#034054" d="M410 301c2.214.005 3.995 1.786 4 3a4 4 0 0 1-4 4c-1.66-.004-2.996-1.34-3-4a3 3 0 0 1 3-3"/><path fill="#E8EDED" d="M278 429c2.214.005 3.995 1.786 4 3a4 4 0 0 1-4 4c-1.66-.004-2.996-1.34-3-4a3 3 0 0 1 3-3"/><path fill="#034154" d="M410 326c2.214.005 3.995 1.786 4 3a4 4 0 0 1-4 4c-1.66-.004-2.996-1.34-3-4a3 3 0 0 1 3-3"/><path fill="#070E11" d="m448 275 7 1v6h-7z"/><path fill="#E9EEEE" d="M253 403a3.001 3.001 0 1 1-.002 6.002A3.001 3.001 0 0 1 253 403"/><path fill="#034256" d="M383 378c2.214.005 3.995 1.786 4 3a4 4 0 0 1-4 4c-1.66-.004-2.996-1.34-3-4a3 3 0 0 1 3-3"/><path fill="#034155" d="M397 365a3.001 3.001 0 1 1-.002 6.002A3.001 3.001 0 0 1 397 365"/><path fill="#EAEFEF" d="M474 287c2.214.005 3.995 1.786 4 3a4 4 0 0 1-4 4c-1.66-.004-2.996-1.34-3-4a3 3 0 0 1 3-3"/><path fill="#034155" d="M383 276c2.214.005 3.995 1.786 4 3a4 4 0 0 1-4 4c-1.66-.004-2.996-1.34-3-4a3 3 0 0 1 3-3"/><path fill="#ECF0F0" d="M266 416a3.001 3.001 0 1 1-.002 6.002A3.001 3.001 0 0 1 266 416"/><path fill="#E8EDED" d="M383 456c2.214.005 3.995 1.786 4 3a4 4 0 0 1-4 4c-1.66-.004-2.996-1.34-3-4a3 3 0 0 1 3-3"/><path fill="#070C0E" d="M447 302h9l-1 5-8 1z"/><path fill="#034255" d="M397 288a3.001 3.001 0 1 1-.002 6.002A3.001 3.001 0 0 1 397 288"/><path fill="#0C1011" d="m351 190 1 3c-4.43 3.322-5.685 3.483-11 3l-3-2v-2l3.688.688c4.495.325 5.856.012 9.312-2.688"/><path fill="#EAEAE8" d="M383 482c2.214.005 3.995 1.786 4 3a4 4 0 0 1-4 4c-1.66-.004-2.996-1.34-3-4a3 3 0 0 1 3-3"/><path fill="#034053" d="M291 314a3.001 3.001 0 1 1-.002 6.002A3.001 3.001 0 0 1 291 314"/><path fill="#DBDBD9" d="M175 481a3.001 3.001 0 1 1-.002 6.002A3.001 3.001 0 0 1 175 481"/><path fill="#104B5E" d="M241 225c2.214.005 3.995 1.786 4 3a4 4 0 0 1-4 4c-1.66-.004-2.996-1.34-3-4a3 3 0 0 1 3-3"/><path fill="#E2E2E0" d="M409 92c2.214.005 3.995 1.786 4 3a4 4 0 0 1-4 4c-1.66-.004-2.996-1.34-3-4a3 3 0 0 1 3-3"/><path fill="#E3E3E1" d="M174 92c2.214.005 3.995 1.786 4 3a4 4 0 0 1-4 4c-1.66-.004-2.996-1.34-3-4a3 3 0 0 1 3-3"/><path fill="#DEDEDC" d="M96 404c2.214.005 3.995 1.786 4 3a4 4 0 0 1-4 4c-1.66-.004-2.996-1.34-3-4a3 3 0 0 1 3-3"/><path fill="#232323" d="m118 313 6 1v5h-6z"/><path fill="#1D1D1D" d="M118 261h6v5l-6 1z"/><path fill="#E7E7E5" d="M96 170c2.214.005 3.995 1.786 4 3a4 4 0 0 1-4 4c-1.66-.004-2.996-1.34-3-4a3 3 0 0 1 3-3"/><path fill="#245B6D" d="M205 363v7l-5-1v-5c2-1 2-1 5-1"/><path fill="#034458" d="M291 340a3.001 3.001 0 1 1-.002 6.002A3.001 3.001 0 0 1 291 340"/><path fill="#F3F3F2" d="M514 222a3.001 3.001 0 1 1-.002 6.002A3.001 3.001 0 0 1 514 222"/><path fill="#E0E0DF" d="M501 183a3.001 3.001 0 1 1-.002 6.002A3.001 3.001 0 0 1 501 183"/><path fill="#F4F4F2" d="M488 170a3.001 3.001 0 1 1-.002 6.002A3.001 3.001 0 0 1 488 170"/><path fill="#033C4E" d="M330 378a3.001 3.001 0 1 1-.002 6.002A3.001 3.001 0 0 1 330 378"/><path fill="#E4E4E2" d="M501 339a3.001 3.001 0 1 1-.002 6.002A3.001 3.001 0 0 1 501 339"/><path fill="#E6ECEC" d="M475 313a3.001 3.001 0 1 1-.002 6.002A3.001 3.001 0 0 1 475 313"/><path fill="#DFE7E8" d="M410 222a3.001 3.001 0 1 1-.002 6.002A3.001 3.001 0 0 1 410 222"/><path fill="#141515" d="M251 444c2.214.005 3.995 1.786 4 3a4 4 0 0 1-4 4c-1.66-.004-2.996-1.34-3-4a3 3 0 0 1 3-3"/><path fill="#232323" d="M211 431h6v5h-6z"/><path fill="#E4EBEB" d="M475 339a3.001 3.001 0 1 1-.002 6.002A3.001 3.001 0 0 1 475 339"/><path fill="#E7E7E5" d="M514 326a3.001 3.001 0 1 1-.002 6.002A3.001 3.001 0 0 1 514 326"/><path fill="#303030" d="m131 221 6 2-1 4h-5z"/><path fill="#16191A" d="M299 195v2c-4.216 2.108-6.398 2.177-11 2v-3c7.625-1 7.625-1 11-1"/><path fill="#D7E1E3" d="M462 404a3.001 3.001 0 1 1-.002 6.002A3.001 3.001 0 0 1 462 404"/><path fill="#D9E2E3" d="M475 391a3.001 3.001 0 1 1-.002 6.002A3.001 3.001 0 0 1 475 391"/><path fill="#D8E1E2" d="M475 365a3.001 3.001 0 1 1-.002 6.002A3.001 3.001 0 0 1 475 365"/><path fill="#2C2C2C" d="M131 353h5l1 5h-6z"/><path fill="#1E5464" d="M216 401a3.001 3.001 0 1 1-.002 6.002A3.001 3.001 0 0 1 216 401"/><path fill="#DEE5E6" d="M488 378a3.001 3.001 0 1 1-.002 6.002A3.001 3.001 0 0 1 488 378"/><path fill="#EFF3F2" d="M462 274a3.001 3.001 0 1 1-.002 6.002A3.001 3.001 0 0 1 462 274"/><path fill="#101010" d="M316 117h6l-1 5h-5z"/><path fill="#070E10" d="M316 429h6v5h-6z"/><path fill="#070909" d="M455 250v5l-6 1v-5c4-1 4-1 6-1"/><path fill="#0D1214" d="M273 206c4.095.478 7.995.999 12 2-3.856 2.57-6.454 2.15-11 2z"/><path fill="#1F1F1F" d="M223 130h6l-1 5h-4z"/><path fill="#191919" d="M289 117h6l-1 5h-4z"/><path fill="#E4E4E3" d="M227 508a3.001 3.001 0 1 1-.002 6.002A3.001 3.001 0 0 1 227 508"/><path fill="#E9EEEE" d="M435 430c1.66.004 2.996 1.34 3 2a3 3 0 0 1-3 3c-1.107-.003-1.997-.893-2-3a2 2 0 0 1 2-2"/><path fill="#E5EBEC" d="M449 417c1.66.004 2.996 1.34 3 2a3 3 0 0 1-3 3c-1.107-.003-1.997-.893-2-3a2 2 0 0 1 2-2"/><path fill="#D7E1E3" d="M461 378c1.66.004 2.996 1.34 3 2a3 3 0 0 1-3 3c-1.107-.003-1.997-.893-2-3a2 2 0 0 1 2-2"/><path fill="#E4E4E3" d="M70 352c1.66.004 2.996 1.34 3 2a3 3 0 0 1-3 3c-1.107-.003-1.997-.893-2-3a2 2 0 0 1 2-2"/><path fill="#034155" d="M303 302c1.66.004 2.996 1.34 3 2a3 3 0 0 1-3 3c-1.107-.003-1.997-.893-2-3a2 2 0 0 1 2-2"/><path fill="#080808" d="M420 277h5v5l-5 1z"/><path fill="#034256" d="M330 277a3.001 3.001 0 1 1-.002 6.002A3.001 3.001 0 0 1 330 277"/><path fill="#E4E4E2" d="M70 222c1.66.004 2.996 1.34 3 2a3 3 0 0 1-3 3c-1.107-.003-1.997-.893-2-3a2 2 0 0 1 2-2"/><path fill="#1B2E34" d="M368 173h4l1 5h-6z"/><path fill="#263539" d="m342 173 5 1v4h-6z"/><path fill="#1A1A1A" d="M355 130h6l-1 5h-4z"/><path fill="#E2E2E0" d="M227 67a3.001 3.001 0 1 1-.002 6.002A3.001 3.001 0 0 1 227 67"/><path fill="#F3F5F3" d="M485 352h5v5h-5z"/><path fill="#213035" d="M214 250h5v5h-5z"/><path fill="#145063" d="M252 213h5v5l-6-1z"/><path fill="#080808" d="M263 117h6l-1 5-5-1z"/><path fill="#104E61" d="M339 469h2l1 6h6l-1 2c-2.812.188-2.812.188-6 0l-3-3c.313-2.687.313-2.687 1-5"/><path fill="#034358" d="m299 353 4 1v4h-5z"/><path fill="#D0D0CE" d="M186 80h4v5l-5-1z"/><path fill="#F2F2F0" d="m355 67 5 1-1 4h-4z"/><path fill="#F6F6F4" d="M357 508c1.66.004 2.996 1.34 3 2a3 3 0 0 1-3 3c-1.107-.003-1.997-.893-2-3a2 2 0 0 1 2-2"/><path fill="#070D0E" d="M303 444h4v5h-5z"/><path fill="#D9D9D7" d="M500 365c1.66.004 2.996 1.34 3 2a3 3 0 0 1-3 3c-1.107-.003-1.997-.893-2-3a2 2 0 0 1 2-2"/><path fill="#0E1111" d="m311 192 9 3v2c-6.75-.875-6.75-.875-9-2z"/><path fill="#D8D8D7" d="M83 184c1.66.004 2.996 1.34 3 2a3 3 0 0 1-3 3c-1.107-.003-1.997-.893-2-3a2 2 0 0 1 2-2"/><path fill="#D8D8D6" d="M396 80c1.66.004 2.996 1.34 3 2a3 3 0 0 1-3 3c-1.107-.003-1.997-.893-2-3a2 2 0 0 1 2-2"/><path fill="#D4D4D3" d="M187 495c1.66.004 2.996 1.34 3 2a3 3 0 0 1-3 3c-1.107-.003-1.997-.893-2-3a2 2 0 0 1 2-2"/><path fill="#D4DFE1" d="M421 444c1.66.004 2.996 1.34 3 2a3 3 0 0 1-3 3c-1.107-.003-1.997-.893-2-3a2 2 0 0 1 2-2"/><path fill="#D6D6D4" d="M474 418c1.66.004 2.996 1.34 3 2a3 3 0 0 1-3 3c-1.107-.003-1.997-.893-2-3a2 2 0 0 1 2-2"/><path fill="#D5D5D3" d="M83 391c1.66.004 2.996 1.34 3 2a3 3 0 0 1-3 3c-1.107-.003-1.997-.893-2-3a2 2 0 0 1 2-2"/><path fill="#1C5364" d="m226 237 4 1 1 5-5-1z"/><path fill="#111516" d="M392 195h9l-1 3a109 109 0 0 1-7-1z"/><path fill="#090D0E" d="M379 184h8v3l-8-1z"/><path fill="#1F1F1F" d="M395 171h4v6l-4-1z"/><path fill="#121211" d="m119 287 4 1v4l-4 1z"/><path fill="#070F11" d="M407 265h5v4h-5z"/><path fill="#E0E0DF" d="M409 482c1.66.004 2.996 1.34 3 2a3 3 0 0 1-3 3c-1.107-.003-1.997-.893-2-3a2 2 0 0 1 2-2"/><path fill="#DEDEDC" d="M485 405h5v4l-5-1z"/><path fill="#E5ECEC" d="m368 210 5 1v3h-5z"/><path fill="#E4E4E2" d="m395 495 3 1v4h-4z"/><path fill="#033F51" d="M377 456c2.12 2.615 4.13 5.196 6 8-4-1-4-1-6-3z"/><path fill="#E3EAEA" d="M408 456h3v5l-4-1z"/><path fill="#E6E6E5" d="m447 444 4 1v3h-5z"/><path fill="#E6ECEC" d="M395 444h3v5l-4-1z"/><path fill="#E3E3E1" d="m460 431 4 1v3h-5z"/><path fill="#EDEDEB" d="M513 352h3v5l-4-1z"/><path fill="#E5EBEC" d="m342 210 5 1-1 3h-4z"/><path fill="#EBEBE9" d="M435 457c1.66.004 2.996 1.34 3 2a3 3 0 0 1-3 3c-1.107-.003-1.997-.893-2-3a2 2 0 0 1 2-2"/><path fill="#424A4C" d="M318 173h2l1 5h-4z"/></svg>
