<svg xmlns="http://www.w3.org/2000/svg" fill="none" viewBox="0 0 1561 1555"><ellipse cx="779" cy="778.5" fill="#0D0D0D" rx="774" ry="773.5"/><path fill="#07607C" d="M1147.99 1082.71c6.44-7.34 18.69-9.48 26.82-2.42 7.55 7.27 7.78 14.68 5.01 22.46-5.01 10.56-18.8 15.89-29.73 6.63-8.84-13.43-6.93-19.07-2.1-26.67m61.44-9.38c-7.11 5.09-18.74 4.6-23.91-2.19-5.16-6.78-6.69-20.96 3.15-27.23 9.85-6.27 22.21-2.1 26.65 7.6 4.44 9.69-1.13 17.61-5.89 21.82m23.17-32.33c-6.13.16-15.58-5.09-15.99-15.19-.4-10.11 6.47-16.97 17.04-16.97 10.58 0 14.7 10.26 14.7 17.46-1.05 10.66-9.61 14.54-15.75 14.7m47.29-42.452c-5.25 5.422-15.12 5.872-19.69 1.622-6.34-5.918-5.76-15.174-.53-20.612 4.56-3.708 9.41-4.704 14.23-4.002 7.76 1.868 12.31 15.811 5.99 22.992M993.137 464.325c1.06 4.005 2.163 8.011 3.332 12.666l-16.508 1.234 2.942-13.575c3.332-2.425 6.642-1.862 10.234-.325m-64.864 13.585h-16.465c-1.882-5.001 2.704-8.076 1.947-12.99l10.32-.498c1.472 4.72 2.683 8.66 4.198 13.488M569.85 672.633l10.991-3.031c1.168 5.369 2.164 10.284 3.419 15.784-5.409 1.71-9.477-1.559-14.41-2.469zm277.602-207.401 4.976-.304c3.311 3.01 3.722 6.366 3.073 10.696l-7.962 1.104c-3.203-4.07-1.948-7.534-.087-11.496m-95.632 36.372c.259 2.166.605 4.807 1.016 8.228l-6.728.454c-2.921-2.857-3.073-5.629-1.363-8.14s3.959-2.663 7.075-.542M533.882 1060.15l.995-7.08 8.222-1.76c2.488 3.62.8 6.19-1.341 9.46zm-32.796-179.34c6.491-1.927 6.491-1.927 9.671 3.572a4.335 4.335 0 0 1-3.81 3.473 4.3 4.3 0 0 1-1.815-.203c-3.072-.65-4.998-2.49-4.046-6.842m43.798-169.963c-3.115 5.932-3.656 5.975-8.762 1.321 3.094-3.551 3.094-3.551 8.762-1.321M500 952.909l6.837-3.486c-.454 3.118-.26 5.564-.974 5.867-1.761.395-3.58.461-5.365.195-.173-.866-.325-1.818-.498-2.576m1.069-138.714 7.143-.488c0 1.131.215 2.085 0 2.218-3.904 2.241-3.925 2.219-7.143-1.73m814.981 139.721c0 7.513-6.09 13.603-13.59 13.603-7.51 0-13.6-6.09-13.6-13.603 0-7.514 6.09-13.604 13.6-13.604 7.5 0 13.59 6.09 13.59 13.604m.07 68.854c0 7.08-5.73 12.81-12.8 12.81s-12.81-5.73-12.81-12.81 5.74-12.81 12.81-12.81 12.8 5.73 12.8 12.81m-169.11 106.64c0 10.52-8.4 19.05-18.77 19.05s-18.78-8.53-18.78-19.05 8.41-19.05 18.78-19.05 18.77 8.53 18.77 19.05m-34.19 37.13c0 10.52-8.4 19.05-18.77 19.05s-18.78-8.53-18.78-19.05c0-10.53 8.41-19.06 18.78-19.06s18.77 8.53 18.77 19.06m-36.49 33.23c0 10.06-8.04 18.22-17.95 18.22s-17.95-8.16-17.95-18.22 8.04-18.21 17.95-18.21 17.95 8.15 17.95 18.21m-36.62 35.27c0 9.54-7.62 17.28-17.03 17.28s-17.03-7.74-17.03-17.28c0-9.55 7.62-17.29 17.03-17.29s17.03 7.74 17.03 17.29m-104.217 34.78c0 9.54-7.625 17.28-17.032 17.28s-17.032-7.74-17.032-17.28c0-9.55 7.626-17.29 17.032-17.29 9.407 0 17.032 7.74 17.032 17.29m68.717 0c0 9.54-7.627 17.28-17.034 17.28s-17.032-7.74-17.032-17.28c0-9.55 7.626-17.29 17.032-17.29 9.407 0 17.034 7.74 17.034 17.29m282.05-349.157c0 9.546-7.62 17.285-17.03 17.285-9.4 0-17.03-7.739-17.03-17.285s7.63-17.284 17.03-17.284c9.41 0 17.03 7.738 17.03 17.284m33.23-35.584c0 9.546-7.63 17.285-17.03 17.285-9.41 0-17.04-7.739-17.04-17.285s7.63-17.285 17.04-17.285c9.4 0 17.03 7.739 17.03 17.285m1.51-71.61c0 9.546-7.63 17.285-17.03 17.285-9.41 0-17.03-7.739-17.03-17.285s7.62-17.285 17.03-17.285c9.4 0 17.03 7.739 17.03 17.285m0-69.633c0 9.546-7.63 17.284-17.03 17.284-9.41 0-17.03-7.738-17.03-17.284s7.62-17.285 17.03-17.285c9.4 0 17.03 7.739 17.03 17.285m-32.69 35.126c0 10.694-8.54 19.363-19.08 19.363-10.53 0-19.08-8.669-19.08-19.363s8.55-19.362 19.08-19.362c10.54 0 19.08 8.669 19.08 19.362M867.501 1269.82c0 10.59-8.463 19.18-18.902 19.18s-18.902-8.59-18.902-19.18c0-10.6 8.463-19.18 18.902-19.18s18.902 8.58 18.902 19.18m106.019-36.15c0 11.63-9.287 21.05-20.744 21.05s-20.744-9.42-20.744-21.05 9.288-21.05 20.744-21.05c11.457 0 20.744 9.42 20.744 21.05m70.33-139.35c0 10.7-8.55 19.38-19.1 19.38s-19.1-8.68-19.1-19.38c0-10.71 8.55-19.39 19.1-19.39s19.1 8.68 19.1 19.39m31.99-33.88c0 9.78-7.82 17.72-17.46 17.72s-17.46-7.94-17.46-17.72c0-9.79 7.82-17.72 17.46-17.72s17.46 7.93 17.46 17.72m-212.744 0c0 9.78-7.816 17.72-17.458 17.72s-17.458-7.94-17.458-17.72c0-9.79 7.816-17.72 17.458-17.72s17.458 7.93 17.458 17.72M759.861 953.855c0 9.785-7.816 17.717-17.458 17.717s-17.458-7.932-17.458-17.717 7.816-17.717 17.458-17.717 17.458 7.933 17.458 17.717m0-70.297c0 9.785-7.816 17.717-17.458 17.717s-17.458-7.932-17.458-17.717 7.816-17.717 17.458-17.717 17.458 7.932 17.458 17.717m211.972 210.712c0 9.79-7.816 17.72-17.458 17.72-6.503 0-12.176-3.61-15.18-8.96a17.8 17.8 0 0 1-2.278-8.76c0-3.44.966-6.65 2.638-9.36 3.083-5.02 8.568-8.35 14.82-8.35 9.642 0 17.458 7.93 17.458 17.71m137.817-68.99c0 9.79-7.81 17.72-17.46 17.72-9.64 0-17.45-7.93-17.45-17.72 0-9.78 7.81-17.71 17.45-17.71 9.65 0 17.46 7.93 17.46 17.71m-7.43-69.609c0 5.206-4.16 9.427-9.29 9.427s-9.29-4.221-9.29-9.427 4.16-9.426 9.29-9.426 9.29 4.22 9.29 9.426m0-72.113c0 5.206-4.16 9.426-9.29 9.426s-9.29-4.22-9.29-9.426 4.16-9.426 9.29-9.426 9.29 4.22 9.29 9.426m0-69.281c0 5.206-4.16 9.427-9.29 9.427s-9.29-4.221-9.29-9.427 4.16-9.426 9.29-9.426 9.29 4.22 9.29 9.426m-35.07 175.04c0 5.206-4.16 9.426-9.29 9.426s-9.29-4.22-9.29-9.426 4.16-9.426 9.29-9.426 9.29 4.22 9.29 9.426m0-209.558c0 5.206-4.16 9.426-9.29 9.426s-9.29-4.22-9.29-9.426 4.16-9.427 9.29-9.427 9.29 4.221 9.29 9.427m-35.25 245.521c0 5.21-4.16 9.43-9.29 9.43s-9.29-4.22-9.29-9.43c0-5.2 4.16-9.42 9.29-9.42s9.29 4.22 9.29 9.42m-235.939-71.13c0 4.365 3.487 7.904 7.789 7.904s7.789-3.539 7.789-7.904-3.487-7.905-7.789-7.905-7.789 3.539-7.789 7.905m78.113 69.61c0 4.37 3.487 7.91 7.789 7.91s7.789-3.54 7.789-7.91c0-4.36-3.487-7.9-7.789-7.9s-7.789 3.54-7.789 7.9m-70.325-208.172c0-4.366 3.488-7.905 7.789-7.905s7.789 3.539 7.789 7.905-3.487 7.904-7.789 7.904-7.789-3.539-7.789-7.904m70.325-69.612c0-4.366 3.487-7.905 7.789-7.905s7.789 3.539 7.789 7.905-3.487 7.904-7.789 7.904-7.789-3.539-7.789-7.904m72.004.062c0-3.031 2.422-5.489 5.409-5.489 2.988 0 5.409 2.458 5.409 5.489 0 3.032-2.421 5.489-5.409 5.489s-5.409-2.457-5.409-5.489m106.372 98.756c0-3.032 2.42-5.489 5.41-5.489s5.41 2.457 5.41 5.489-2.42 5.489-5.41 5.489-5.41-2.458-5.41-5.489m0 74.874c0-3.032 2.42-5.49 5.41-5.49s5.41 2.458 5.41 5.49-2.42 5.489-5.41 5.489-5.41-2.458-5.41-5.489M929.568 1060.44c0 6.42-5.128 11.62-11.453 11.62-6.326 0-11.454-5.2-11.454-11.62s5.128-11.62 11.454-11.62c6.325 0 11.453 5.2 11.453 11.62M787.786 920.245c0 4.958-3.961 8.978-8.846 8.978-4.886 0-8.847-4.02-8.847-8.978s3.961-8.978 8.847-8.978 8.846 4.02 8.846 8.978m0-69.962c0 4.958-3.961 8.978-8.846 8.978-4.886 0-8.847-4.02-8.847-8.978s3.961-8.978 8.847-8.978 8.846 4.02 8.846 8.978m34.319 171.657c0 7.25-5.795 13.14-12.944 13.14s-12.944-5.89-12.944-13.14c0-7.26 5.795-13.14 12.944-13.14s12.944 5.88 12.944 13.14m-31.11-32.405c0 7.255-5.795 13.135-12.944 13.135s-12.944-5.88-12.944-13.135 5.795-13.136 12.944-13.136 12.944 5.881 12.944 13.136m353.945 1.41c0 9.785-7.82 17.715-17.46 17.715s-17.46-7.93-17.46-17.715 7.82-17.716 17.46-17.716 17.46 7.932 17.46 17.716m142.69-141.815c0 10.308-8.24 18.664-18.4 18.664-10.15 0-18.39-8.356-18.39-18.664 0-10.307 8.24-18.663 18.39-18.663 10.16 0 18.4 8.356 18.4 18.663m-138.08 210.38c0 11.63-9.29 21.05-20.75 21.05-11.45 0-20.74-9.42-20.74-21.05s9.29-21.05 20.74-21.05c11.46 0 20.75 9.42 20.75 21.05m34.51-34.23c0 11.63-9.29 21.05-20.75 21.05s-20.74-9.42-20.74-21.05c0-11.62 9.28-21.05 20.74-21.05s20.75 9.43 20.75 21.05m34.66-35.814c0 12.124-9.69 21.944-21.63 21.944s-21.63-9.82-21.63-21.944c0-12.121 9.69-21.947 21.63-21.947s21.63 9.826 21.63 21.947m-34.96-34.414c0 12.121-9.68 21.947-21.62 21.947-11.95 0-21.63-9.826-21.63-21.947s9.68-21.946 21.63-21.946c11.94 0 21.62 9.826 21.62 21.946m0-70.939c0 12.12-9.68 21.946-21.62 21.946-11.95 0-21.63-9.826-21.63-21.946s9.68-21.947 21.63-21.947c11.94 0 21.62 9.826 21.62 21.947m35.75 34.635c0 12.121-9.69 21.947-21.63 21.947s-21.63-9.826-21.63-21.947 9.69-21.947 21.63-21.947 21.63 9.826 21.63 21.947m34.31-33.542c0 12.121-9.69 21.947-21.63 21.947s-21.63-9.826-21.63-21.947 9.69-21.946 21.63-21.946 21.63 9.825 21.63 21.946m-.01 68.964c0 11.627-9.28 21.052-20.74 21.052s-20.74-9.425-20.74-21.052 9.28-21.051 20.74-21.051 20.74 9.425 20.74 21.051m-137.26 139.4c0 12.53-10 22.68-22.34 22.68s-22.35-10.15-22.35-22.68c0-12.52 10.01-22.67 22.35-22.67s22.34 10.15 22.34 22.67m59.7 71.07c0 7.78-6.21 14.09-13.88 14.09-7.66 0-13.88-6.31-13.88-14.09s6.22-14.08 13.88-14.08c7.67 0 13.88 6.3 13.88 14.08m36.89-34.53c0 7.78-6.22 14.09-13.89 14.09-7.66 0-13.88-6.31-13.88-14.09s6.22-14.09 13.88-14.09c7.67 0 13.89 6.31 13.89 14.09m34.39-35.92c0 7.78-6.21 14.08-13.88 14.08-7.66 0-13.88-6.3-13.88-14.08s6.22-14.09 13.88-14.09c7.67 0 13.88 6.31 13.88 14.09m34.24-35.67c0 7.51-6 13.6-13.41 13.6-7.4 0-13.41-6.09-13.41-13.6 0-7.52 6.01-13.61 13.41-13.61 7.41 0 13.41 6.09 13.41 13.61m-141.1-138.852c0 7.515-6 13.608-13.41 13.608-7.4 0-13.41-6.093-13.41-13.608s6.01-13.609 13.41-13.609c7.41 0 13.41 6.093 13.41 13.609m1.17-69.307c0 8.047-6.43 14.57-14.36 14.57s-14.35-6.523-14.35-14.57 6.42-14.57 14.35-14.57 14.36 6.523 14.36 14.57m-140.3 209.149c0 7.52-6 13.61-13.406 13.61s-13.409-6.09-13.409-13.61 6.003-13.61 13.409-13.61 13.406 6.09 13.406 13.61m30.36-314.877c0-5.206-4.16-9.426-9.29-9.426s-9.29 4.22-9.29 9.426 4.16 9.426 9.29 9.426 9.29-4.22 9.29-9.426m-30.36-34.228c0-7.515-6-13.608-13.406-13.608s-13.409 6.093-13.409 13.608 6.003 13.609 13.409 13.609 13.406-6.093 13.406-13.609m-68.061 0c0-7.515-6.003-13.608-13.409-13.608s-13.409 6.093-13.409 13.608 6.003 13.609 13.409 13.609 13.409-6.093 13.409-13.609m-71.551 0c0-7.906-6.315-14.315-14.106-14.315s-14.106 6.409-14.106 14.315c0 7.907 6.315 14.316 14.106 14.316s14.106-6.409 14.106-14.316m-70.022 70.248c0-7.593-6.066-13.748-13.548-13.748s-13.547 6.155-13.547 13.748 6.065 13.749 13.547 13.749 13.548-6.156 13.548-13.749m34.828-34.913c0-7.593-6.065-13.749-13.547-13.749s-13.548 6.156-13.548 13.749 6.066 13.748 13.548 13.748 13.547-6.155 13.547-13.748m313.776 454.03c0 7.52-6.01 13.61-13.41 13.61-7.41 0-13.41-6.09-13.41-13.61 0-7.51 6-13.6 13.41-13.6 7.4 0 13.41 6.09 13.41 13.6"/><path fill="#07607C" fill-rule="evenodd" d="m969.174 491.547-.005.502v.003zm209.606 274.541c-3.98 5.118-9.02 15.819-5.74 23.145-9.08-1.887-12.58-.916-20.8 2.676 3.23-6.198 3.85-13.609 1.74-20.264 8.38 2.245 19.11 1.765 24.8-5.557m11.46-32.347s14.26 6.566 22.29 0c-5.43 7.251-4.34 17.654-1.06 21.145-6.79-3.313-15.45-4.586-21.23 0 4.41-6.776 4.69-15.8 0-21.145m20.53-52.98s-1.24-.642-6.79-.752c-5.56-.11-11.45 2.615-11.45 2.615 2.06-1.791 3.03-15.603.84-15.626.49 0 1 .006 1.51.013l.22.003c4.88.07 10.71.152 17.84-4.201-3.55 5.989-3.33 12.757-2.17 17.948m-35.2-48.022.78 8.055c-5.21 1.724-9.44 1.71-13.23-1.322l-.01.066-.04-.108.05.042c1.14-7.816 1.47-7.985 12.45-6.733m-2.1 83.909c-3.54-4.044-13.07-5.327-17.62-1.481 2.97-4.545 2.98-6.962 1.23-13.985 2.8 2.653 12.48 2.709 16.39-1.177-3.29 3.275 0 16.643 0 16.643m-120.77-45.435c-1.09 6.654-2.01 10.865-6.46 15.202 4.56-2.552 11.43-3.981 15.06-3.111-.42-3.653.51-8.22 2.28-11.141-3.84 2.207-9.26 0-10.88-.95m44.2 34.49c-4.84 1.662-8.86.82-12.36.087l-.27-.056c.65 4.741.01 9.644-1.87 14.048 4.35-2.16 9.29-3.03 14.12-2.509-.72-3.935-.66-7.906.38-11.57m32.49 47.774c1.56 0 3.08.139 4.55.406-1.55-4.255-2.55-12.959 0-17.301-4.52 3.169-11.33 3.396-16.51 1.611 2.1 7.303.74 15.149-2.06 19.482a25.4 25.4 0 0 1 14.02-4.198m84.98 51.875c-1.83 1.415-4.5 11.487-1.64 18.03-10.28-6.443-17.47-3.987-26.97 3.848 3.42-7.044 5.22-16.043 1.06-23.47-.39-.521-.74-1.078-1.06-1.67.39.547.74 1.104 1.06 1.67 6.41 8.586 22.44 7.735 27.71 1.12z" clip-rule="evenodd"/><path fill="#07607C" fill-rule="evenodd" d="M1178.78 766.088c-3.98 5.118-9.02 15.819-5.74 23.145-9.08-1.887-12.58-.916-20.8 2.676 3.23-6.198 3.85-13.609 1.74-20.264 8.38 2.245 19.11 1.765 24.8-5.557m11.46-32.347s14.26 6.566 22.29 0c-5.43 7.251-4.34 17.654-1.06 21.145-6.79-3.313-15.45-4.586-21.23 0 4.41-6.776 4.69-15.8 0-21.145m20.53-52.98s-1.24-.642-6.79-.752c-5.56-.11-11.45 2.615-11.45 2.615 2.06-1.791 3.03-15.603.84-15.626.49 0 1 .006 1.51.013l.22.003c4.88.07 10.71.152 17.84-4.201-3.55 5.989-3.33 12.757-2.17 17.948m-35.2-48.022.78 8.055c-5.21 1.724-9.44 1.71-13.23-1.322l-.01.066-.04-.108.05.042c1.14-7.816 1.47-7.985 12.45-6.733m-2.1 83.909c-3.54-4.044-13.07-5.327-17.62-1.481 2.97-4.545 2.98-6.962 1.23-13.985 2.8 2.653 12.48 2.709 16.39-1.177-3.29 3.275 0 16.643 0 16.643M677.256 918.533l.422-.664.005-.009c1.359-2.131 2.199-3.45 2.199-4.583.85.787 7.363 1.304 8.459.787-.594 1.027-.926 3.747-.594 4.86-2.652-1.122-7.718-.841-10.491-.391m375.444-247.32c-1.09 6.654-2.01 10.865-6.46 15.202 4.56-2.552 11.43-3.981 15.06-3.111-.42-3.653.51-8.22 2.28-11.141-3.84 2.207-9.26 0-10.88-.95m44.2 34.49c-4.84 1.662-8.86.82-12.36.087l-.27-.056c.65 4.741.01 9.644-1.87 14.048 4.35-2.16 9.29-3.03 14.12-2.509-.72-3.935-.66-7.906.38-11.57m32.49 47.774c1.56 0 3.08.139 4.55.406-1.55-4.255-2.55-12.959 0-17.301-4.52 3.169-11.33 3.396-16.51 1.611 2.1 7.303.74 15.149-2.06 19.482a25.4 25.4 0 0 1 14.02-4.198m84.98 51.875c-1.83 1.415-4.5 11.487-1.64 18.03-10.28-6.443-17.47-3.987-26.97 3.848 3.42-7.044 5.22-16.043 1.06-23.47-.39-.521-.74-1.078-1.06-1.67.39.547.74 1.104 1.06 1.67 6.41 8.586 22.44 7.735 27.71 1.12zm-108.36 427.308c0 7.45-5.95 13.48-13.29 13.48s-13.29-6.03-13.29-13.48 5.95-13.49 13.29-13.49 13.29 6.04 13.29 13.49" clip-rule="evenodd"/><path fill="#07607C" fill-rule="evenodd" d="M1178.78 766.088c-3.98 5.118-9.02 15.819-5.74 23.145-9.08-1.887-12.58-.916-20.8 2.676 3.23-6.198 3.85-13.609 1.74-20.264 8.38 2.245 19.11 1.765 24.8-5.557M993.921 1175.41c-6.918-.96-16.016 3.39-16.016 3.39s4.146-7.13 4.975-11.94c.829-4.82-2.586-17.47-2.586-17.47a35.9 35.9 0 0 0 11.078 1.9c2.878.04 5.201-.39 7.542-.81.392-.07.784-.15 1.176-.22l.25-.04 3.5.94c-4.795 13.2.3 23.11 1.72 25.21.16.24.31.44.43.61v.01c.32.44.49.68.53.94.05.32-.1.66-.41 1.41-.15.36-.33.81-.55 1.39 0 0-4.72-4.36-11.639-5.32m-117.616 7.89c6.312 8.35 20.928 3.82 20.928 3.82-3.398 10.47-3.029 18.24 0 23.05-4.823-4.53-10.846-4.99-19.718-1.81 4.779-7.11 3.015-19.47-1.21-25.06m313.935-449.559s14.26 6.566 22.29 0c-5.43 7.251-4.34 17.654-1.06 21.145-6.79-3.313-15.45-4.586-21.23 0 4.41-6.776 4.69-15.8 0-21.145m20.53-52.98s-1.24-.642-6.79-.752c-5.56-.11-11.45 2.615-11.45 2.615 2.06-1.791 3.03-15.603.84-15.626.49 0 1 .006 1.51.013l.22.003c4.88.07 10.71.152 17.84-4.201-3.55 5.989-3.33 12.757-2.17 17.948m-35.2-48.022.78 8.055c-5.21 1.724-9.44 1.71-13.23-1.322l-.01.066-.04-.108.05.042c1.14-7.816 1.47-7.985 12.45-6.733m-2.1 83.909c-3.54-4.044-13.07-5.327-17.62-1.481 2.97-4.545 2.98-6.962 1.23-13.985 2.8 2.653 12.48 2.709 16.39-1.177-3.29 3.275 0 16.643 0 16.643M677.256 918.533l.422-.664.005-.009c1.359-2.131 2.199-3.45 2.199-4.583.85.787 7.363 1.304 8.459.787-.594 1.027-.926 3.747-.594 4.86-2.652-1.122-7.718-.841-10.491-.391m375.444-247.32c-1.09 6.654-2.01 10.865-6.46 15.202 4.56-2.552 11.43-3.981 15.06-3.111-.42-3.653.51-8.22 2.28-11.141-3.84 2.207-9.26 0-10.88-.95m44.2 34.49c-4.84 1.662-8.86.82-12.36.087l-.27-.056c.65 4.741.01 9.644-1.87 14.048 4.35-2.16 9.29-3.03 14.12-2.509-.72-3.935-.66-7.906.38-11.57m32.49 47.774c1.56 0 3.08.139 4.55.406-1.55-4.255-2.55-12.959 0-17.301-4.52 3.169-11.33 3.396-16.51 1.611 2.1 7.303.74 15.149-2.06 19.482a25.4 25.4 0 0 1 14.02-4.198m84.98 51.875c-1.83 1.415-4.5 11.487-1.64 18.03-10.28-6.443-17.47-3.987-26.97 3.848 3.42-7.044 5.22-16.043 1.06-23.47-.39-.521-.74-1.078-1.06-1.67.39.547.74 1.104 1.06 1.67 6.41 8.586 22.44 7.735 27.71 1.12zM788.446 1091.67a27 27 0 0 0-.047 1.6l-1.947-.12c-2.975-1.62-5.084-3.69-5.151-7.71a25.4 25.4 0 0 0 9.212-2.57 26.4 26.4 0 0 0-2.067 8.8m-40.679-35.63c3.113.47 4.66.66 5.724.45.453-4.28 2.418-8.9 4.562-12.27l-11.303 4.44.042.31c.371 2.75.683 5 .975 7.07" clip-rule="evenodd"/><path fill="#07607C" d="M874.363 648.281c5.006-3.57 6.854-6.089 7.633-11.347.716 4.56 3.81 7.767 6.214 10.258l.005.005c.363.377.711.737 1.032 1.084-3.391-1.552-9.8-1.417-14.884 0"/><path fill="#07607C" fill-rule="evenodd" d="M1259.73 672.772c0-12.826-10.25-23.224-22.89-23.224-6.41 0-12.2 2.674-16.36 6.982-.31.095-.63.2-.95.316.11-1.301-.74-1.341-.18-3.647 3.09-4.084 4.92-9.192 4.92-14.734 0-13.391-10.7-24.247-23.89-24.247-3.77 0-7.34.886-10.51 2.463a28.25 28.25 0 0 0 3.41-13.496c0-15.497-12.38-28.059-27.65-28.059l-9.29 2.403 1.89-8.636c0-16.492-13.17-29.861-29.42-29.861-1.65 0-3.27.138-4.85.403.35-1.879.53-3.817.53-5.798 0-17.296-13.82-31.318-30.86-31.318-13.23 0-24.52 8.449-28.9 20.319-2.03.378-4.1.508-6.19.374-11.18-.649-20.94-10.133-22.84-22.127-.29-1.914-.73-3.795-1.18-5.789v-.004c-.19-.825-.39-1.669-.58-2.543-1.46 0-2.84.031-4.16.061-2.5.057-4.8.109-7.19-.061-2.52-.178-5.02-.582-7.61-.999-1.18-.191-2.38-.384-3.6-.56.73 10.609.19 19.638-9.95 25.765-11.342 6.755-19.78 1.494-28.131-4.07-4.275-6.637-4.202-13.647-4.13-20.625v-.011l.005-.502q.013-1.092.014-2.181a101 101 0 0 1-14.042 2.165c-1.883.043-3.747-.386-5.62-.817-2.945-.678-5.911-1.36-9.006-.222 3.029 14.961-2.271 23.275-18.174 28.688-19.386-3.334-23.28-8.141-23.129-29.207a100 100 0 0 1-12.354 2.056 126 126 0 0 1-13.673-.822 37.43 37.43 0 0 1-4.328 21.326 46 46 0 0 1-5.106 3.876c-7.464 4.2-14.95 6.495-23.431 2.165-7.854-3.876-12.398-9.332-12.982-18.144-.088-1.22-.954-2.39-1.852-3.605-.426-.574-.859-1.159-1.22-1.764l-1.658.221c-4.03.537-7.707 1.028-11.518 1.619-.309.051-.618.317-1.054.693-.297.256-.654.563-1.11.887-.411 7.362-4.219 13.706-8.87 19.746-.448.572-.357 1.596-.269 2.6.036.404.072.804.072 1.171-1.799-1.533-3.23-.794-4.717-.026-.32.165-.642.332-.971.477a34.42 34.42 0 0 1-20.944 2.836 22.5 22.5 0 0 0-4.003 0c-1.449 22.647-4.932 27.129-23.799 31.589-15.708-.693-21.636-11.518-25.963-24.184H709.32c-3.397 4.655-4.111 8.855-1.947 13.467 2.266.169 4.516.517 6.728 1.039.623.2 1.25.39 1.878.58 3.799 1.15 7.605 2.302 10.39 5.591 6.231 7.253 6.426 17.321 1.904 25.981-3.938 7.513-12.224 11.778-25.206 8.855-8.005-1.818-12.614-8.076-13.587-18.273-.132-1.378-.423-2.726-.724-4.125a84 84 0 0 1-.423-2.046 31.7 31.7 0 0 0-16.486 3.161c.736 2.385.186 4.649-.37 6.938-.62 2.553-1.247 5.138-.106 7.958a48 48 0 0 1 5.387.282c10.969 1.71 18.542 9.938 18.672 20.243a20.4 20.4 0 0 1-5.584 14.669 20.4 20.4 0 0 1-6.536 4.613 20.4 20.4 0 0 1-7.807 1.741c-10.883.347-19.234-7.772-20.013-19.291-.1-1.561-.38-3.103-.69-4.808-.159-.872-.325-1.787-.479-2.769l-16.335 2.944q-.315 1.522-.601 2.946c-.418 2.07-.808 3.998-1.238 5.823-.147.626-.363 1.249-.578 1.873-.701 2.028-1.401 4.051.254 6.138 16.032 1.299 24.557 8.53 24.881 21.001.325 10.458-7.356 20.136-17.309 21.283a23.8 23.8 0 0 1-14.301-3.356c-7.927-4.228-8.713-11.448-9.535-18.99v-.002a152 152 0 0 0-.417-3.568l-14.496 2.165c-.197.8-.418 1.595-.639 2.386-1.211 4.347-2.4 8.614.639 13.376 9.207-1.073 14.574 4.926 20.726 11.801l.542.605a86 86 0 0 1 1.449 12.666c-.238 6.906-7.68 16.909-13.219 18.078q-.817.173-1.636.354c-5.01 1.094-10.096 2.205-15.305.253a12.4 12.4 0 0 0-4.327.151c.171.568.322 1.079.46 1.546.366 1.241.644 2.181.989 3.109 5.15 14.073-3.656 34.425-23.258 33.689a37.3 37.3 0 0 0-6.642 1.126c.229 4.363.229 8.735 0 13.099-.165 1.455-.731 2.851-1.305 4.268-1.004 2.481-2.035 5.027-.989 8.073 0 0-5.766 2.624-10.666 8.184l-15.924 6.084c-.124.947-.298 1.885-.471 2.819-.614 3.317-1.217 6.576.471 9.955a103 103 0 0 1 10.991 4.135c8.178 4.201 13.587 11.107 14.344 20.114 1.125 13.683-8.697 24.769-22.501 27.085-1.42.23-2.829.556-4.296.895l-.006.002q-.914.213-1.864.424v18.512l12.181 2.403c11.142 6.279 16.638 14.896 14.258 27.02a28.6 28.6 0 0 1-5.085 11.454c-3.726 4.797-9.266 5.889-14.777 6.975-2.2.434-4.395.867-6.469 1.534v20.611c1.601.276 3.187.46 4.746.641 5.412.628 10.493 1.217 14.726 5.487a28.15 28.15 0 0 1 8.287 17.992c.649 6.647-2.294 11.929-5.474 17.039-3.724 5.985-10.108 7.035-16.421 8.074-1.133.186-2.263.372-3.376.586-1.082 5.37-1.493 10.198 1.255 15.156a50 50 0 0 1 7.248 1.364c1.326.447 2.545 1.135 3.761 1.822.966.546 1.931 1.091 2.946 1.512.605.303 1.305.203 2.011.102.294-.042.588-.084.877-.097a66.5 66.5 0 0 1-1.503-11.415 17.63 17.63 0 0 1 4.733-11.074 17.6 17.6 0 0 1 10.736-5.445c10.451-1.538 18.694 2.793 21.636 11.453a18.66 18.66 0 0 1-4.738 19.814c-5.236 5.41-11.77 8.09-19.472 5.08-.995-.39-2.017-.72-3.288-1.12-.664-.21-1.398-.44-2.229-.72.623 1.73 1.271 3.33 1.887 4.86h.002v.01c1.308 3.23 2.472 6.11 2.957 9.06.451 4.99.509 10.02.173 15.02 1.026.06 1.973.09 2.865.13 1.911.08 3.568.14 5.205.35 6.902.84 13.263 2.66 17.72 8.53a24.56 24.56 0 0 1 4.93 11.15c.681 4.08.324 8.26-1.037 12.16a24.5 24.5 0 0 1-6.748 10.15 24.5 24.5 0 0 1-10.797 5.66c-1.475.37-2.959.71-4.485 1.06h-.01c-.866.2-1.746.4-2.645.61-.26 5.58-.389 10.43 2.358 15.15l6.599.46 7.486.5a63 63 0 0 1-.757-7.02c.087-8.09 7.313-17.86 14.258-19.48 10.429-2.43 19.754 1.01 24.34 9.07 7.292 12.79 1.017 31.61-15.967 31.44l-.983-.03h-.014c-2.468-.08-5.126-.17-7.03 3.12 2.546 3.36 2.193 7.21 1.826 11.2-.241 2.62-.488 5.31.078 7.96 1.859.31 3.741.46 5.626.44 6.663-.65 11.596 2.53 16.313 6.71 6.274 5.45 8.979 12.71 10.342 20.61a8.9 8.9 0 0 1 6.141-1.23 8.88 8.88 0 0 1 5.434 3.11c1.58 3.79.043 6.11-3.483 7.49q1.03.33 2.047.69c1.306.45 2.608.9 3.946 1.2 5.863 1.25 9.736 5.09 13.652 9.29 2.912 3.11 3.308 6.78 3.702 10.43.197 1.83.394 3.66.906 5.41l2.424-4.33 11.445 1.61c0 5.95.265 10.22 3.5 14.27 2.53 3.16 6.708 5.08 9.103 8.35 3.247 4.43 4.071 5.31 5.065 7.71 0 0 16.86 2.88 24.241-.95v1.32c-4.657 14.12 5.941 29.88 21.195 29.88 16.278 0 29.755-15.41 22.935-32.6 6.163 6.91 22.59 5.94 28.41.41-9.885 21.71 14.766 40.76 33.403 27.91 5.919-4.08 13.57-17.22 9.172-26.15 3.628 4.91 19.75 5.1 25.972-.95-4.204 21.01 9.038 31.38 21.379 31.38s29.011-8.93 24.446-33.52c17.172 6.22 33.249-.88 37.897-19.21.971-3.83 2.019-11.97-1.463-17.92 11.276 3.65 19.236 2.82 27.03-1.66-.118.23-.232.47-.342.7a22.78 22.78 0 0 0-4.515 13.67c0 12.52 10.004 22.67 22.345 22.67 6.378 0 11.343-2.21 14.903-5.66 8.78-5.73 10.58-19.56 6.43-28.4-.03-1.26.34-1.96.79-2.8.23-.44.48-.92.71-1.54 12.84 8.01 32.07 3.32 36.21-14.44 1.13-4.86-.79-15.45-3.13-18.85l1.38-.96s13 4.93 20.27 3c9.95-2.64 20.39-13.2 18.11-29.89-3.23-7.51-6.96-13.2-13.43-15.36-9.94-4.51-17.61-2.18-26.63 4.32-.24.38-.48.74-.71 1.11-3.74 5.83-6.58 10.26-6.25 17.73-.23 1.87 1.4 5.74 2.88 9.24.83 1.94 1.98 5.1 1.98 5.1s-.78.91-1.14 1.11c-.69-.06-4.25-3.04-5.45-4.04-5.17-4.34-15.39-2.23-21.15-.6-1.19.73-3.59.24-4.93.24l1.5-12.35c0-12.52-10-22.67-22.343-22.67-12.341 0-22.345 10.15-22.345 22.67 0 0 0 3.68 1.051 6.86 1.052 3.17 2.592 5.56 2.592 5.56s-3.643-3.91-15.059-3.91c-14.263 0-24.521 9.29-24.521 23.76-.402 8.79 4.042 15.69 4.042 15.69s-2.368-3-7.399-4.7-11.5-1.81-17.216.87c5.716-7.48 2.317-22.42-2.097-26.74 2.149.69 4.723 5.29 11.274 5.29 12.341 0 22.346-10.15 22.346-22.68 0-12.52-10.005-22.67-22.346-22.67-15.414 0-26.015 16.06-21.072 30.24-6.498-2.99-14.039-3.46-20.857-1.3 1.884-8.94-.61-17.94-5.902-24.71a18.84 18.84 0 0 0 10.99 3.53c10.549 0 19.1-8.68 19.1-19.38 0-10.71-8.551-19.39-19.1-19.39-10.548 0-19.1 8.68-19.1 19.39 0 4.09 1.25 7.89 3.384 11.02-4.932-4.04-11.173-6.52-18.08-6.52-3.475 0-6.809.61-9.903 1.74a26.6 26.6 0 0 0 1.012-7.29c0-14.47-11.563-26.21-25.826-26.21-4.07 0-7.92.96-11.345 2.66a26.5 26.5 0 0 0 2.114-10.4c0-14.48-11.563-26.21-25.826-26.21-3.635 0-7.483.94-10.621 2.31 6.374-14.87-3.911-39.983-29.949-38.188l-.209-3.1-.001-.007c-.23-3.377-.458-6.732-.617-10.098a21.52 21.52 0 0 0-11.251-18.382c-3.077-1.812-6.314-3.354-9.815-5.02-1.643-.783-3.344-1.593-5.113-2.471-2.737-3.411-2.298-7.524-1.844-11.774.107-1.001.215-2.01.282-3.02q.651.037 1.31.037c13.033 0 23.599-10.722 23.599-23.949 0-10.938-7.226-20.164-17.098-23.028-2.79-1.404-5.655-2.525-8.466-3.625l-.004-.002c-1.014-.397-2.021-.791-3.015-1.194A5803 5803 0 0 0 708 875.101l3.208-1.667.132.001c13.033 0 23.599-10.722 23.599-23.949 0-10.428-6.568-19.3-15.736-22.587a23.3 23.3 0 0 0-7.863-1.361l-1.393-4.283c-2.51-5.435 1.104-9.635 3.527-14.095 5.893-.843 11.261-2.47 16.854-4.547-1.911 4.115-4.263 7.356-4.263 12.178 0 9.785 7.816 17.717 17.458 17.717 14.49 0 26.193-19.724 14.499-30.804-6.277-5.948-10.49-6.496-20.878-6.496 4.659-6.377 5.193-12.636 3.141-21.79 22.725 4.199 35.765-16.851 31.764-35.524 16.99 2.712 41.149-16.618 37.055-35.114 20.255 1.695 36.911-14.902 36.911-31.978 2.44.727 8.541 1.643 11.528-1.768a27 27 0 0 0-.383 4.523c0 14.474 11.563 26.208 25.826 26.208s25.826-11.734 25.826-26.208c0-1.696-.159-3.353-.462-4.959l-.333-1.198c3.279 1.623 16.059 1.876 20.835-.279-.784 1.477-.784 4.215-.784 6.436 0 14.474 11.563 26.208 25.826 26.208s25.826-11.734 25.826-26.208c0-1.876-.194-3.705-.563-5.469 5.127 3.137 17.025 2.557 18.908.663l-.162 4.806c0 14.474 11.567 26.208 25.827 26.208 4.51 0 8.76-1.176 12.45-3.243a26.4 26.4 0 0 0-3.31 12.858c0 18.898 20.39 31.89 37.17 23.552-9.86 23.12 17.27 45.868 37.73 32.413-2.66 4.121-4.2 9.048-4.2 14.341 0 14.475 11.56 26.209 25.82 26.209 3.92 0 7.64-.886 10.97-2.472-7.33 15.241 3.79 34.438 21.22 34.438 4.89 0 9.88-1.675 14.73-2.447-4.24 7.903-3.21 36.016 22.53 36.016 23.02 0 28.81-24.944 18.49-42.425 5.31 7.156 18.71 13.002 31.11 3.963 15.8-11.38 11.77-36.359-5.08-43.735-4.16-1.819-12.6-3.552-17.35-1.091 1.36-4.936 2.3-12.202-4.1-22.054 2.95 2.645 16.3 3.578 23.42 0 12.31-7.624 15.36-21.696 9.75-34.384-6.77-10.457-16.04-14.403-26.35-12.447 0 0 3.71-16.117 0-22.198 5.67.649 9.17.051 12.28-.479l.38-.065c10.04-2.458 18.34-12.8 18.34-23.743m-80.95 93.316c-3.98 5.118-9.02 15.819-5.74 23.145-9.08-1.887-12.58-.916-20.8 2.676 3.23-6.198 3.85-13.609 1.74-20.264 8.38 2.245 19.11 1.765 24.8-5.557M993.921 1175.41c-6.918-.96-16.016 3.39-16.016 3.39s4.146-7.13 4.975-11.94c.829-4.82-2.586-17.47-2.586-17.47a35.9 35.9 0 0 0 11.078 1.9c2.878.04 5.201-.39 7.542-.81.392-.07.784-.15 1.176-.22l.25-.04 3.5.94c-4.795 13.2.3 23.11 1.72 25.21.16.24.31.44.43.61v.01c.32.44.49.68.53.94.05.32-.1.66-.41 1.41-.15.36-.33.81-.55 1.39 0 0-4.72-4.36-11.639-5.32m-117.616 7.89c6.312 8.35 20.928 3.82 20.928 3.82-3.398 10.47-3.029 18.24 0 23.05-4.823-4.53-10.846-4.99-19.718-1.81 4.779-7.11 3.015-19.47-1.21-25.06m313.935-449.559s14.26 6.566 22.29 0c-5.43 7.251-4.34 17.654-1.06 21.145-6.79-3.313-15.45-4.586-21.23 0 4.41-6.776 4.69-15.8 0-21.145m20.53-52.98s-1.24-.642-6.79-.752c-5.56-.11-11.45 2.615-11.45 2.615 2.06-1.791 3.03-15.603.84-15.626.49 0 1 .006 1.51.013l.22.003c4.88.07 10.71.152 17.84-4.201-3.55 5.989-3.33 12.757-2.17 17.948M738.701 1208.46c1.979-5.25 2.713-8.53 1.726-13.6 3.034 1.12 7.064.64 9.312 0-.744 4.55.121 10.57 1.091 13.6-3.095-1.68-8.169-1.37-12.129 0m436.869-575.721.78 8.055c-5.21 1.724-9.44 1.71-13.23-1.322l-.01.066-.04-.108.05.042c1.14-7.816 1.47-7.985 12.45-6.733m-2.1 83.909c-3.54-4.044-13.07-5.327-17.62-1.481 2.97-4.545 2.98-6.962 1.23-13.985 2.8 2.653 12.48 2.709 16.39-1.177-3.29 3.275 0 16.643 0 16.643m-76.57-10.945c-4.84 1.662-8.86.82-12.36.087l-.27-.056c.65 4.741.01 9.644-1.87 14.048 4.35-2.16 9.29-3.03 14.12-2.509-.72-3.935-.66-7.906.38-11.57m32.49 47.774c1.56 0 3.08.139 4.55.406-1.55-4.255-2.55-12.959 0-17.301-4.52 3.169-11.33 3.396-16.51 1.611 2.1 7.303.74 15.149-2.06 19.482a25.4 25.4 0 0 1 14.02-4.198m84.98 51.875c-1.83 1.415-4.5 11.487-1.64 18.03-10.28-6.443-17.47-3.987-26.97 3.848 3.42-7.044 5.22-16.043 1.06-23.47-.39-.521-.74-1.078-1.06-1.67.39.547.74 1.104 1.06 1.67 6.41 8.586 22.44 7.735 27.71 1.12zm-150.79-133.189c-1.77 2.921-2.7 7.488-2.28 11.141-3.63-.87-10.5.559-15.06 3.111 4.45-4.337 5.37-8.548 6.46-15.202 1.62.95 7.04 3.157 10.88.95m-116.539-23.882c5.005-3.57 6.853-6.089 7.632-11.347.716 4.56 3.811 7.767 6.214 10.258l.005.005q.281.29.547.569.25.262.485.515c-3.391-1.552-9.799-1.417-14.883 0M805.949 1212.02c2.448-4.35 4.899-11.22 3.352-17.54 3.867 2.96 10.957 0 10.957 0-.598 6.04-.745 12.22 2.191 17.54-5.883-2.66-10.679-2.8-16.5 0m-17.503-120.35a27 27 0 0 0-.047 1.6l-1.947-.12c-2.975-1.62-5.084-3.69-5.151-7.71a25.4 25.4 0 0 0 9.212-2.57 26.4 26.4 0 0 0-2.067 8.8m-40.679-35.63c3.113.47 4.66.66 5.724.45.453-4.28 2.418-8.9 4.562-12.27l-11.303 4.44.042.31c.371 2.75.683 5 .975 7.07m-59.426-141.976c-1.096.517-7.609 0-8.459-.787 0 1.133-.84 2.452-2.199 4.583l-.005.009-.422.664c2.773-.45 7.839-.731 10.491.391-.332-1.113 0-3.833.594-4.86M844.086 1153.8c3.017 3.91 4.279 10.31.373 15.87 2.977-1.77 14.779-2.54 17.522 0-1.419-2.9-2.453-10.91 0-15.87-5.288 2.89-13.922 2.81-17.895 0m30.277-505.519c5.006-3.57 6.854-6.089 7.633-11.347.716 4.56 3.81 7.767 6.214 10.258l.005.005c.363.377.711.737 1.032 1.084-3.391-1.552-9.8-1.417-14.884 0m-87.294 29.369c-2.166.949-4.038.926-6.768.181.495 2.003.968 4.044 0 6.366 2.327-1.045 4.467-.835 6.655-.248-.685-2.225-.744-4.493.113-6.299" clip-rule="evenodd"/><path fill="#07607C" fill-rule="evenodd" d="M1178.78 766.088c-3.98 5.118-9.02 15.819-5.74 23.145-9.08-1.887-12.58-.916-20.8 2.676 3.23-6.198 3.85-13.609 1.74-20.264 8.38 2.245 19.11 1.765 24.8-5.557M993.921 1175.41c-6.918-.96-16.016 3.39-16.016 3.39s4.146-7.13 4.975-11.94c.829-4.82-2.586-17.47-2.586-17.47a35.9 35.9 0 0 0 11.078 1.9c2.878.04 5.201-.39 7.542-.81.392-.07.784-.15 1.176-.22l.25-.04 3.5.94c-4.795 13.2.3 23.11 1.72 25.21.16.24.31.44.43.61v.01c.32.44.49.68.53.94.05.32-.1.66-.41 1.41-.15.36-.33.81-.55 1.39 0 0-4.72-4.36-11.639-5.32m-117.616 7.89c6.312 8.35 20.928 3.82 20.928 3.82-3.398 10.47-3.029 18.24 0 23.05-4.823-4.53-10.846-4.99-19.718-1.81 4.779-7.11 3.015-19.47-1.21-25.06m313.935-449.559s14.26 6.566 22.29 0c-5.43 7.251-4.34 17.654-1.06 21.145-6.79-3.313-15.45-4.586-21.23 0 4.41-6.776 4.69-15.8 0-21.145m20.53-52.98s-1.24-.642-6.79-.752c-5.56-.11-11.45 2.615-11.45 2.615 2.06-1.791 3.03-15.603.84-15.626.49 0 1 .006 1.51.013l.22.003c4.88.07 10.71.152 17.84-4.201-3.55 5.989-3.33 12.757-2.17 17.948m-35.2-48.022.78 8.055c-5.21 1.724-9.44 1.71-13.23-1.322 1.14-7.816 1.47-7.985 12.45-6.733m-12.45 6.733-.01.066-.04-.108zm10.35 77.176c-3.54-4.044-13.07-5.327-17.62-1.481 2.97-4.545 2.98-6.962 1.23-13.985 2.8 2.653 12.48 2.709 16.39-1.177-3.29 3.275 0 16.643 0 16.643M677.678 917.869l.005-.009c1.359-2.131 2.199-3.45 2.199-4.583.85.787 7.363 1.304 8.459.787-.594 1.027-.926 3.747-.594 4.86-2.652-1.122-7.718-.841-10.491-.391zM1096.9 705.703c-4.84 1.662-8.86.82-12.36.087l-.27-.056c.65 4.741.01 9.644-1.87 14.048 4.35-2.16 9.29-3.03 14.12-2.509-.72-3.935-.66-7.906.38-11.57m32.49 47.774c1.56 0 3.08.139 4.55.406-1.55-4.255-2.55-12.959 0-17.301-4.52 3.169-11.33 3.396-16.51 1.611 2.1 7.303.74 15.149-2.06 19.482a25.4 25.4 0 0 1 14.02-4.198m84.98 51.875c-1.83 1.415-4.5 11.487-1.64 18.03-10.28-6.443-17.47-3.987-26.97 3.848 3.42-7.044 5.22-16.043 1.06-23.47 6.41 8.586 22.44 7.735 27.71 1.12zm-27.55-1.592c-.39-.521-.74-1.078-1.06-1.67.39.547.74 1.104 1.06 1.67m-123.24-131.597c-1.77 2.921-2.7 7.488-2.28 11.141-3.63-.87-10.5.559-15.06 3.111 4.45-4.337 5.37-8.548 6.46-15.202 1.62.95 7.04 3.157 10.88.95M788.446 1091.67a27 27 0 0 0-.047 1.6l-1.947-.12c-2.975-1.62-5.084-3.69-5.151-7.71a25.4 25.4 0 0 0 9.212-2.57 26.4 26.4 0 0 0-2.067 8.8m-40.679-35.63c3.113.47 4.66.66 5.724.45.453-4.28 2.418-8.9 4.562-12.27l-11.303 4.44.042.31c.371 2.75.683 5 .975 7.07m126.596-407.759c5.006-3.57 6.854-6.089 7.633-11.347.716 4.56 3.81 7.767 6.214 10.258l.005.005c.363.377.711.737 1.032 1.084-3.391-1.552-9.8-1.417-14.884 0" clip-rule="evenodd"/><path fill="#FDFDFB" d="M344.391 546.686a33.58 33.58 0 0 1 21.923-4.322c.627-7.087 1.21-13.656 1.836-20.613-5.486-.843-11.858-1.037-17.711-2.874-6.48-2.161-9.483-8.319-12.571-13.959-.843-14.541 4.212-23.357 15.508-27.182 8.899-3.025 21.772 0 29.116 15.99v13.548l16.826-2.161c3.175-5.056 0-11.69 3.65-17.567-2.959-.216-5.032-.454-7.106-.475a24.175 24.175 0 0 1-23.025-15.99c-3.132-7.757-.518-17.675 6.826-24.244a20.4 20.4 0 0 1 7.387-3.954 100 100 0 0 1 10.67-2.269c17.668 7.584 20.303 11.668 19.785 30.251l15.983-1.599c2.83-5.1 1.685-10.934 3.132-16.941-2.98 0-5.356-.108-7.732 0-8.64.541-19.85-6.719-22.442-20.808-1.728-9.399 4.881-20.44 14.385-23.984a23.88 23.88 0 0 1 21.139 1.728 23.9 23.9 0 0 1 11.433 17.87c.281 2.744.346 5.51.562 8.967l15.919-2.463c.734-4.948 1.512-10.069 2.397-16.011h-12.376c-15.12-7.39-21.103-18.129-16.956-31.072a22.66 22.66 0 0 1 23.392-14.953c7.215.843 12.398 4.668 17.28 9.853 5.292 5.705 3.996 12.511 3.801 19.685l17.388-1.34c1.339-5.79 2.722-11.841 4.32-19.014-3.953.194-7.042 0-10.044.518-11.923 1.837-26.351-15.86-20.303-29.494 3.909-8.794 10.108-13.786 19.439-14.585a21.59 21.59 0 0 1 20.757 10.804c1.944 3.133 2.29 7.368 2.916 11.171.217 2.768.217 5.55 0 8.319l20.779-1.556c1.641-6.828-.864-14.931 4.493-21.111l8.747-8.232c7.733-5.121 16.135-4.322 25.574-1.859-.669-7.821-2.916-15.125 1.339-21.413a91 91 0 0 1 9.677-10.631c21.103-8.47 38.123 8.146 36.265 26.167 5.789 2.355 11.794-.194 17.906.908 1.275-6.936 2.441-13.397 3.802-20.808-5.616.842-10.973 4.321-16.502 1.382a43.2 43.2 0 0 1-8.359-4.58 26 26 0 0 1-5.551-7.714 18.4 18.4 0 0 1-2.398-8.125c.324-11.517 7.841-21.607 21.6-22.104 8.64-.26 14.774 4.472 19.439 11.408 4.666 6.937 1.663 14.262.259 21.738 13.803-3.89 13.803-3.89 28.08-1.405a69 69 0 0 0-.648-7.26c-2.743-14.175 9.784-24.957 19.612-25.929 14.04-1.383 27.54 9.788 26.568 22.818-.173 2.484 0 4.991 0 7.994h22.463c.173-2.549.475-4.904.432-7.26a24.095 24.095 0 0 1 14.629-22.92 24.1 24.1 0 0 1 9.368-1.928c11.815-.109 23.155 10.803 23.759 23.163.13 2.463 0 4.97 0 8.211H825.8c2.16-3.241-.778-6.483-.67-9.918 5.789-18.712 17.625-21.608 30.672-19.447 7.387 1.275 11.512 6.806 14.838 12.965 3.327 6.158 1.253 12.467 1.253 19.554 9.374-3.003 18.014-3.003 26.287 2.032 2.808-5.1-1.728-8.643-1.275-13.916 3.543-16.702 13.63-20.311 24.775-19.944 9.59.303 18.122 10.199 19.202 20.247s-7.106 19.209-21.232 23.768l-13.09-3.392a85 85 0 0 1 4.104 10.804 59.4 59.4 0 0 1 .648 9.615l17.604 1.253c.519-2.438.816-4.919.885-7.411-.604-9.767 9.569-21.241 21.902-22.645 10.8-1.21 20.93 5.683 25.099 16.098 2.268 5.704.799 11.128.108 17.588 5.486-.345 10.281-.734 15.119-.95 4.839-.217 8.641 3.025 12.961 4.818l-.28-.238a30.5 30.5 0 0 1 9.08 12.559 30.5 30.5 0 0 1 1.72 15.402l21.47 2.398c-.13-2.614-.24-5.013-.35-7.411-.56-11.712 6.14-20.095 18.19-22.818a22.23 22.23 0 0 1 14.49 2.141c4.46 2.331 7.99 6.1 10.02 10.694 4.04 9.421.37 22.083-8.46 27.442a27.1 27.1 0 0 1-10.09 3.003c-3.59.284-7.2.32-10.8.108.99 5.942 1.99 11.798 3.11 18.388l17.54 1.642c.65-17.286.65-17.286 14.28-28.241 10.8-2.895 20.71-1.858 27.6 7.973 7.41 10.567 5.4 20.938-3.78 31.548-5.12 4.451-12.59 6.006-21.6 4.732.61 5.963 1.17 11.408 1.77 17.286 4.73 2.506 10.24 1.404 16.18 2.852.37-2.867.58-5.753.63-8.643-.59-13.159 11.45-23.444 24.28-22.926 3.16.155 6.25.95 9.1 2.338a23.4 23.4 0 0 1 12.03 13.94c.96 3.017 1.29 6.198.98 9.349-.41 4.321-2.59 8.643-4.32 14.153 2.1-.478 4.16-1.113 6.16-1.902 13.54-6.72 28.38 0 32.83 16.833.47 2.435.39 4.943-.22 7.346a23.2 23.2 0 0 1-3.79 9.312 23.2 23.2 0 0 1-7.36 6.845 23.29 23.29 0 0 1-19.54 1.886q-1.98-.57-4.02-.886c-.28 0-.62.345-.92.518 3.97 16.746 4.66 10.307-.22 28.695 2.38 1.599 3.87-.626 5.68-1.318 13.95-5.402 29.92 5.813 30.04 20.83 0 10.674-5.72 17.135-14.27 22.018h-8.51c-3.94.146-7.83-.868-11.2-2.915a20.17 20.17 0 0 1-7.75-8.602c-1.49-2.787-2.67-5.704-4.01-8.643 1.27-5.207 2.52-10.415 3.84-15.773l-8.16 3.435c-3.85 0-7.69.324-11.52.108a13.83 13.83 0 0 1-6.99-1.62c-7.11-5.121-14.19-10.502-14.17-20.614v-8.773l-12.31.951-6.33-1.729c-.72 4.862-1 9.054-1.95 13.073a24.924 24.924 0 0 1-25.92 19.447c-11.16-.648-20.9-10.112-22.81-22.083-.41-2.701-1.1-5.337-1.75-8.319-4.32 0-7.79.216-11.33 0-3.55-.216-7.28-.994-11.19-1.556.73 10.61.19 19.598-9.94 25.713-11.252 6.763-19.676 1.491-28.078-4.062-4.817-7.476-4.126-15.428-4.104-23.271a101 101 0 0 1-14.018 2.16c-4.839.108-9.547-2.895-14.602-1.037 3.024 14.931-2.16 23.228-18.143 28.63-19.44-3.327-23.241-8.124-23.09-29.148a100 100 0 0 1-12.333 2.052c-4.562-.026-9.119-.3-13.651-.821a37.35 37.35 0 0 1-4.32 21.284 46 46 0 0 1-5.098 3.868c-7.451 4.17-14.925 6.374-23.392 2.16-7.733-3.867-12.268-9.313-12.96-18.107-.129-1.793-1.944-3.479-3.067-5.359-4.687.627-8.942 1.167-13.154 1.837-.626 0-1.145.778-2.16 1.577-.41 7.347-4.32 13.678-8.855 19.707-.627.799-.173 2.463-.238 3.738l.194-.195c-2.16-1.858-3.974-.151-5.832.67a34.38 34.38 0 0 1-20.908 2.831 22.4 22.4 0 0 0-3.996 0c-1.447 22.601-4.924 27.074-23.759 31.525-15.703-.691-21.6-11.495-25.92-24.136h-10.13c-3.391 4.646-4.168 8.838-1.944 13.44a43 43 0 0 1 6.718 1.038c4.32 1.404 9.007 2.333 12.247 6.158 6.112 7.238 6.48 17.286 1.9 25.929-3.931 7.498-12.203 11.754-25.163 8.837-7.992-1.815-12.593-8.059-13.565-18.236-.194-2.032-.734-4.019-1.144-6.159a31.7 31.7 0 0 0-16.459 3.155c1.555 5.035-2.635 9.529-.475 14.866a47 47 0 0 1 5.378.281c10.951 1.707 18.511 9.918 18.64 20.203a20.35 20.35 0 0 1-5.574 14.639 20.35 20.35 0 0 1-14.319 6.342c-10.799.346-19.202-7.757-19.979-19.252-.151-2.355-.713-4.667-1.167-7.563l-16.307 2.939c-.67 3.219-1.21 5.985-1.836 8.751s-2.527 5.272-.324 7.995c16.005 1.296 24.515 8.513 24.839 20.959.281 10.501-7.387 20.095-17.279 21.24a23.75 23.75 0 0 1-14.278-3.349c-9.158-4.883-8.769-13.764-9.935-22.515l-14.472 2.161c-1.296 5.186-3.607 10.112 0 15.73 9.461-1.102 14.86 5.272 21.232 12.381a85.6 85.6 0 0 1 1.447 12.641c-.151 6.893-7.473 16.854-13.197 18.042s-11.145 2.852-16.912.605a12.4 12.4 0 0 0-4.32.151c.626 2.161.972 3.371 1.447 4.646 5.141 14.045-3.65 34.356-23.219 33.621-2.24.174-4.459.55-6.631 1.124.228 4.355.228 8.718 0 13.073-.454 3.997-3.932 7.541-2.29 12.316 2.57-.346 4.644-.67 6.717-.886a17.58 17.58 0 0 1 18.014 9.01 19.24 19.24 0 0 1-4.514 25.93c-7.106 5.077-21.362 3.759-26.805-2.615a11.2 11.2 0 0 1-2.57-4.602 116 116 0 0 1-1.491-11.582c-.194-1.988 0-4.019 0-7.087l-15.897 6.071c-.54 4.322-2.16 8.363 0 12.749a102 102 0 0 1 10.973 4.127c8.164 4.192 13.564 11.085 14.32 20.073 1.123 13.656-8.64 24.72-22.463 27.032-2.009.324-3.975.842-6.156 1.318v18.474l12.16 2.399c11.124 6.266 16.61 14.866 14.235 26.966a28.5 28.5 0 0 1-5.206 11.56c-5.205 6.698-13.953 6.158-21.211 8.492v20.57c7.063 1.232 13.91.627 19.44 6.115a28.1 28.1 0 0 1 8.272 17.956c.648 6.634-2.289 11.906-5.464 17.005-4.32 7.131-12.463 7.325-19.764 8.643-1.08 5.424-1.49 10.242 1.253 15.126 2.442.274 4.861.729 7.236 1.361 2.333.799 4.32 2.377 6.696 3.327.864.368 2.03 0 3.067 0l2.16 2.161.432.584-.605-.433-2.16-2.16a66.4 66.4 0 0 1-1.534-11.539 17.58 17.58 0 0 1 15.444-16.486c10.519-1.426 18.748 2.852 21.6 11.43a18.62 18.62 0 0 1-4.731 19.772c-5.184 5.4-11.707 8.08-19.439 5.08-1.512-.61-3.089-1.04-5.508-1.84 1.944 5.38 4.125 9.51 4.838 13.89.45 4.99.508 10 .173 15 3.218.17 5.659.17 8.057.47 6.847.85 13.24 2.66 17.69 8.52a24.53 24.53 0 0 1 3.881 23.32 24.6 24.6 0 0 1-6.785 10.15 24.5 24.5 0 0 1-10.834 5.62c-2.311.58-4.644 1.08-7.128 1.66-.259 5.53-.388 10.37 2.355 15.13l6.588.45 7.473.5a63 63 0 0 1-.756-7c0-8.13 7.301-17.87 14.234-19.45 10.411-2.42 19.72 1.01 24.3 9.05 7.279 12.77 1.015 31.55-15.941 31.38-2.721 0-5.853-.65-8.013 3.09 4.212 5.55.475 12.44 1.9 19.12 1.856.31 3.735.45 5.616.43 6.653-.65 11.578 2.53 16.286 6.7 6.264 5.51 8.964 12.68 10.325 20.57-.54 3.05-1.08 6.07-1.814 10.11l9.892-.75c2.009.62 3.953 1.42 5.983 1.88 5.854 1.25 9.72 5.07 13.629 9.27 4.32 4.66 3.068 10.56 4.601 15.81-.864 3.98-1.749 7.98-2.829 12.97 4.32-.46 7.43-2.16 10.799-2.47 3.511.01 7.014.31 10.476.89a24.35 24.35 0 0 1 13.694 18.69c2.031 9.66-2.16 16.66-9.568 22.21-6.221 4.69-18.446 5.38-24.278.89-7.344-5.66-12.96-12.49-10.606-22.8.67-3.07 1.145-6.16 1.815-9.76-4.436 1-8.931 1.72-13.457 2.16a102 102 0 0 1-13.262-1.23c.303 2.76.432 5.14.864 7.45 2.16 11.24-2.613 20.59-13.607 26.3a22.32 22.32 0 0 1-14.065 2.21 22.32 22.32 0 0 1-12.546-6.73c-6.35-6.18-9.828-13.12-6.739-22.15.301-1.59.431-3.21.389-4.84-4.597.6-9.233.85-13.867.74a98 98 0 0 1-13.716-3.22c-2.657 3.89 1.404 7.11 1.426 10.8.561 15.54-14.213 24.18-24.343 22.04-10.54-2.16-18.899-13.48-17.279-23.77 2.289-13.78 12.311-18.95 31.967-16.12-1.21-7.17-2.398-14.19-3.672-21.6l-21.038-2.68c.216 2.81.497 5.55.605 8.32a21.21 21.21 0 0 1-13.133 20.26c-8.164 3.35-16.135 3.16-23.025-3.15-6.156-5.6-10-12.32-8.121-20.94s8.316-13.98 16.156-17.29c2.431-.58 4.945-.74 7.43-.47h7.323c-.994-5.94-1.923-11.47-2.981-17.83l-16.999-2.65a32.4 32.4 0 0 0-.821 6.24c.692 8.82-3.758 14.91-10.087 20.18-8.639 7.15-19.741 4.65-26.761-.58a22.2 22.2 0 0 1-7.819-25.76c4.168-10.91 11.901-15.97 23.975-15.69h4.946c-.712-5.59-1.36-10.69-2.052-16.01l-15.681-2.65a48 48 0 0 0-.799 5.92 23.9 23.9 0 0 1-2.249 10.1 23.8 23.8 0 0 1-6.307 8.21 23.9 23.9 0 0 1-9.184 4.77c-3.373.9-6.902 1.06-10.339.45a23.08 23.08 0 0 1-13.624-7.85 23.04 23.04 0 0 1-5.427-14.75 23.6 23.6 0 0 1 5.62-15.32 23.6 23.6 0 0 1 14.208-8.02c3.089-.48 6.286-.35 10.152-.54-.626-5.53-1.231-10.63-1.858-16.23l-16.653-2.4v6.49c-.173 12.23-9.05 22.64-20.454 23.76-11.405 1.13-21.751-5.44-25.315-18.49-2.16-7.52.67-14.18 5.789-19.67 4.73-5.05 10.216-8.98 17.862-7.84 2.013.09 4.03.01 6.027-.26l-1.923-17.28-17.279-2.66c-.691 16.14-1.383 17.95-7.949 24.33a19.3 19.3 0 0 1-6.573 4.6 19.2 19.2 0 0 1-7.877 1.53c-13.672-.79-23.414-11.34-22.766-22.36a23.44 23.44 0 0 1 9.893-18.11c6.264-4.81 13.499-3.26 21.275-2.93-.669-4.07-1.447-7.42-1.728-10.81s0-6.98 0-9.98l-23.025-4.75c-1.555 2.03.497 4.55 1.102 7.17a20.42 20.42 0 0 1-8.953 22.27 20.4 20.4 0 0 1-12.238 3.08 20.44 20.44 0 0 1-11.705-4.72c-7.733-6.24-9.31-15.83-5.551-25.1 3.758-9.27 15.271-13.336 23.154-11.02 2.29.67 4.493 1.6 8.035 2.89-.475-2.83-.259-4.77-1.101-5.919-4.32-5.769-4.32-11.841-1.987-18.28a9.8 9.8 0 0 0 0-3.198c-2.808-2.636-6.091-1.124-9.137-.972-12.96.626-20.757-7.649-24.429-18.41-4.017-11.798 8.273-30.748 21.448-29.991a63 63 0 0 0 6.588-.26c2.959-5.618 0-11.257 1.253-17.113l-20.52-4.321c.519 2.528 1.08 4.818 1.426 7.152 1.49 10.523-4.125 19.447-13.802 24.006-7.193 3.392-18.986 1.426-25.466-8.233a20.89 20.89 0 0 1-2.029-20.426 20.87 20.87 0 0 1 16.436-12.288c4.45-.54 9.072.519 14.321.908 1.727-4.322-2.765-8.146-2.398-12.576s.907-9.075 1.447-14.174c-7.776-1.124-16.329 2.463-23.392-3.976a40.5 40.5 0 0 1-7.841-10.005c-2.656-4.667-1.965-9.68-1.814-15.125 1.274-2.161 2.592-4.645 4.212-6.979 4.557-6.482 10.454-10.609 18.921-9.745 2.511.139 5.027.139 7.538 0v-22.407a66 66 0 0 0-6.674-.584c-11.21 0-21.059-6.244-23.759-16.529-2.765-10.804-1.21-19.253 9.676-27.291a19.1 19.1 0 0 1 12.053-3.803c3.132 0 6.263-.129 10.303-.259-3.456-7.692-2.312-14.672-.476-22.256a35 35 0 0 0-6.479-.324c-10.239 1.383-17.15-3.781-22.248-11.668-5.097-7.887-4.687-16.227.626-24.157a21.96 21.96 0 0 1 21.902-10.437c2.16.216 4.126.627 7.236 1.102a99 99 0 0 1-1.145-13.894c.544-4.836 1.417-9.63 2.614-14.347-2.052.454-3.629.713-5.162 1.124-8.511 2.398-18.511-.26-23.025-7.153-4.515-6.893-6.329-15.125-1.966-23.336a20.735 20.735 0 0 1 21.297-12.014c10.8.713 20.39 12.057 19.44 22.904-.26 3.069-1.059 6.094-1.728 9.702l19.439-4.062c.519-5.056 1.037-10.22 1.663-16.292a48 48 0 0 0-6.674-1.383 25.33 25.33 0 0 1-14.993-6.041 25.35 25.35 0 0 1-8.291-13.881c-1.987-10.372 2.959-18.021 10.584-24.201a45 45 0 0 1 7.538-4.04l15.811 1.231a9.2 9.2 0 0 0 1.036-3.068c0-.908-.928-1.75-1.425-2.615-.238-4.321-.454-8.643-.691-12.856h.345l-.345-.13 3.866-7.93zm798.969-69.749c.07-.688.01-1.383-.16-2.053-4.45-8.881-3.3-17.113 2.64-24.914.88-1.167 2.87-2.42.22-5.034-6.23 8.643-15.86 7.195-24.35 7.433v20.311zM596.716 1189.69c-.605 6.72-1.123 12.77-1.642 18.66h21.254c-.713-6.48-1.447-12.83-2.16-19.68zM327.737 855.545V842.97l-14.752-3.025v18.56a61 61 0 0 1 6.113-1.944c2.376-.476 4.816-.584 8.639-1.016M313.05 716.716l14.32-2.377c1.275-4.818 1.75-8.859-.28-13.288l-14.04-2.572zm529.576-389.974h13.694c1.641-5.207 3.24-9.81 1.728-14.564l-16.675.822c.432 4.732.799 8.88 1.253 13.742m-124.953-14.283h-19.116c2.895 4.862 1.275 10.502 5.335 14.391h11.146a880 880 0 0 1 2.635-14.391m232.302 49.503h11.642c.908-4.861 1.707-9.204 2.614-14.131l-16.653 1.599c.799 4.149 1.512 7.887 2.397 12.532m-178.152-48.574a16.9 16.9 0 0 0 2.764 12.965c3.802.562 7.539 1.037 11.448-1.664 0-3.608 2.355-7.173 0-11.214zm221.2 151.038c-3.586-1.534-6.89-2.161-10.217.324l-2.937 13.548 16.48-1.232c-1.209-4.71-2.203-8.708-3.326-12.705zM362.318 960.342a18.1 18.1 0 0 0-1.188-11.841 18.94 18.94 0 0 0-12.29-.778c.929 4.905-1.663 9.616.648 14.758zM577.06 1171.28c.497-5.56 1.383-9.71-1.166-13.66a17.74 17.74 0 0 0-11.469 0 15.2 15.2 0 0 0-2.005 6.29c-.202 2.22.085 4.45.838 6.54zM349.121 609.283l11.404-1.145c3.327-4.322 2.463-7.973.627-12.251l-13.089-2.723c.388 5.812.691 10.631 1.058 16.119m259.755-248.487c1.383-4.322 2.376-7.909.497-11.452l-14.709-1.621c.605 5.316.777 10.112 4.32 14.974zM326.722 772.507l-12.247-2.398v16.832l12.247-2.917zM928.16 477.974c-1.512-4.819-2.722-8.751-4.191-13.419l-10.303.497c.756 4.862-3.823 7.93-1.943 12.965zM570.364 672.291v10.264c4.925.907 8.986 4.17 14.386 2.463-1.188-5.488-2.16-10.393-3.413-15.752zM1054.3 470.93l11.17 2.765c0-1.274 0-2.16-.2-3.197 0-1.405-.32-2.809-.34-4.322 0-1.059.28-2.161.19-3.198-.08-1.037-.45-2.679-.84-4.71l-9.14.669c-.3 4.452-.52 8.19-.84 11.993m-206.706-5.597c-1.858 3.954-3.111 7.412 0 11.474l7.948-1.102c.648-4.322.238-7.671-3.067-10.674zm-284.163-79.948a35.5 35.5 0 0 0-.281 7.39c.151.929 1.944 1.945 3.175 2.269a5.24 5.24 0 0 0 4.071-.559 5.24 5.24 0 0 0 2.409-3.331c.799-3.262-1.469-4.991-9.374-5.791zm188.585 116.227c-3.11-2.16-5.486-1.771-7.063.541s-1.555 5.272 1.361 8.124l6.717-.454c-.41-3.435-.799-6.093-1.015-8.232zM535.74 1058.12l7.863.62c2.16-3.26 3.823-5.83 1.339-9.44l-8.208 1.75zm460.566-664.005a978 978 0 0 1-1.145-9.292l-9.655 2.874c.476 2.507.778 4.17 1.188 6.482zM387.525 985.882c-1.75 4.106-1.599 6.677 1.965 9.011l6.588-2.42c-.626-2.723-1.123-4.948-1.749-7.606zm-.324-424.46a9.94 9.94 0 0 0 1.577 10.069c7.279-1.058 7.279-1.058 5.572-9.183zm143.226 563.958c-.281 3.57-.475 5.79-.67 8.15 4.212 1.27 7.409 1.53 9.85-2.88-.583-1.21-.929-3.32-2.16-4.02-1.534-.88-3.78-.71-7.02-1.21zm496.123-703.478c-5.19 5.942-5.04 7.8.41 11.517 4.51-5.186 4.51-5.186-.41-11.517M501.851 879.983c-.951 4.322.972 6.18 4.039 6.828a4.3 4.3 0 0 0 3.547-.359 4.3 4.3 0 0 0 2.069-2.903c-3.197-5.489-3.197-5.489-9.59-3.566zM352.642 668.791c-1.491 3.781-1.232 6.482 2.678 7.627 2.592-.972 4.471-2.485 3.694-5.38s-3.003-3.306-6.372-2.247m316.994-317.135c-1.577 3.824-.476 6.115 2.483 7.238a4.56 4.56 0 0 0 3.888-.67c2.16-1.858 1.901-4.192-.216-6.849zm-316.303 528.5c-1.771 2.701-2.527 5.381-.259 8.017 3.672.41 6.199-.605 6.069-4.149s-2.181-4.84-5.81-3.868m192.084-169.728c-5.659-2.16-5.659-2.16-8.748 1.319 5.098 4.58 5.638 4.58 8.748-1.319m336.412-358.859c-1.253 4.322-.324 6.677 3.024 7.195a4.9 4.9 0 0 0 4.017-2.16c.627-1.21 0-3.133-.194-5.1zm-354.793 73.92c6.48 4.494 6.48 4.494 9.547-.713-4.666-3.285-4.666-3.285-9.547.713M424.158 535.688c4.989-.951 6.371-3.025 5.097-6.288-1.123-2.874-3.434-3.176-6.48-1.102.303 2.204.756 4.365 1.383 7.476zm-69.594 273.747c-1.318 3.003-3.283 4.861.626 7.281a321 321 0 0 1 4.817-4.321zm147.352 141.659c.172.843.324 1.707.496 2.571a14.7 14.7 0 0 0 5.357-.194c.713-.303.518-2.744.972-5.856zm-80.847 74.996 9.309 1.65-3.24-7.29zm395.616-674.499c-4.86 1.231-4.882 3.457-3.521 5.812.454.757 1.987.865 4.039 1.686-.173-3.025-.345-4.884-.518-7.498M459.429 498.523l1.944 1.102 4.32-3.004-4.557-3.76zm5.53 563.527c-.605-4-2.16-4.82-5.853-3.16.647 2.86 1.533 4.74 5.853 3.16m31.449 30.49c-.605 1.47-1.275 3.07-2.16 5.33h6.48c.95-3.97-.843-5.03-4.32-5.44zm246.407-733.97c3.456-2.831 3.456-2.831.626-6.634-2.873 2.032-2.829 4.128-.626 6.634M501.678 813.562c3.326 3.954 3.348 3.975 7.149 1.707.26-.152 0-1.081 0-2.161zm-143.14-70.247c-.41-2.658-2.008-3.522-4.32-2.528a2.638 2.638 0 0 0-.432 4.322c2.268 1.707 3.608.259 4.666-1.902z"/><path fill="#FDFDFB" d="M1220.53 498.976a21.23 21.23 0 0 1-5.88 15.572 21.22 21.22 0 0 1-15.31 6.533c-2.93.127-5.85-.331-8.6-1.346a22.2 22.2 0 0 1-7.42-4.569 22.2 22.2 0 0 1-5.07-7.082 22 22 0 0 1-1.93-8.493c-.08-2.931.43-5.849 1.49-8.581a22 22 0 0 1 4.7-7.336 22 22 0 0 1 7.16-4.948 22.1 22.1 0 0 1 8.53-1.79c13.17-.626 23.65 11.582 22.33 22.04M640.088 1245.13c10.346.28 21.837 9.9 21.383 22.28a22.11 22.11 0 0 1-22.766 20.78 22.45 22.45 0 0 1-14.626-6.77 22.48 22.48 0 0 1-6.325-14.83c.13-11.5 11.188-21.18 22.334-21.46m50.025 12.01c11.361-14.82 24.515-12.68 32.162-7.02 8.488 6.29 10.367 18.58 6.242 25.93-5.724 10.05-16.934 14.5-27.453 10.29-8.402-3.46-16.956-14.7-10.951-29.2m314.837-919.335c.36-.843 1.21-1.793 1.03-2.485-.84-3.09-1.94-6.072-3.22-9.874.59-2.161 1.45-4.733 2.16-7.477 2.16-9.658 11.78-14.304 20.2-13.937 4.27.301 8.35 1.88 11.71 4.531a21.27 21.27 0 0 1 7.12 10.335 20.44 20.44 0 0 1-.76 13.643 20.5 20.5 0 0 1-9.17 10.126 18.09 18.09 0 0 1-19.22 0c-3.24-1.858-5.77-5.316-10.07-5.078zM330.696 553.514a21.206 21.206 0 0 1-24.45-10.264c-3.672-6.331-2.16-18.042 4.082-23.768 5.702-5.38 12.636-7.995 20.628-5.186 12.657 4.473 16.89 14.045 12.592 28.285a31 31 0 0 1-12.852 10.933m892.814-1.167c-12.68-8.859-12.72-22.385-6.74-30.251 6.48-8.643 18.71-11.43 27.54-6.028 8.28 5.078 12.42 16.573 8.88 25.151a23.12 23.12 0 0 1-11.88 11.776c-5.44 2.723-6.85 2.593-17.8-.648M541.983 343.898a19.07 19.07 0 0 1-20.001-3.111 19.45 19.45 0 0 1-8.229-16.509 20.42 20.42 0 0 1 15.616-19.101c2.787-.626 5.616-.95 8.122-1.383 16.048 5.813 20.93 14.823 16.048 29.192a30.23 30.23 0 0 1-11.556 10.912m651.307 244.944c-8.1-4.148-12.18-11.581-15.87-19.339a23.54 23.54 0 0 1 7.9-15.881c7.04-6.007 15.47-7.304 22.75-3.198a20.83 20.83 0 0 1 9.09 9.133 20.85 20.85 0 0 1 1.98 12.736 20.86 20.86 0 0 1-5.9 11.462 20.8 20.8 0 0 1-11.5 5.8c-2.83.071-5.67-.168-8.45-.713M256.047 833.678a69 69 0 0 1-8.532-2.398 20.42 20.42 0 0 1-11.534-21.068c.756-7.39 8.251-15.32 15.962-16.789a17.28 17.28 0 0 1 14.903 4.322 67 67 0 0 1 6.221 6.849c2.786 17.286-.346 22.731-17.02 29.084m487.87-559.55c-10.8-.562-20.066-10.156-19.202-20.117.929-10.804 10.562-19.577 20.736-18.95a20.9 20.9 0 0 1 13.754 7.31 20.92 20.92 0 0 1 4.886 14.795c-.799 8.945-10.886 17.437-20.174 16.962m50.586-13.722a77 77 0 0 1 1.209-10.458c2.571-9.853 8.792-13.764 17.583-14.671 8.207-.843 14.428 3.587 18.467 10.523 4.32 7.303 1.555 18.842-5.227 24.006-8.64 6.482-19.029 6.072-26.135-1.405a80 80 0 0 1-5.897-7.995M274.647 744.114c.172 9.249-8.943 18.475-18.468 18.691a19.435 19.435 0 0 1-18.706-11.489 19.45 19.45 0 0 1 3.922-21.605 19.436 19.436 0 0 1 30.273 3.304 19.46 19.46 0 0 1 2.979 11.099m470.565 538.336c12.376.26 17.884 9.66 18.446 19.44.561 9.79-10.217 20.08-20.152 19.26a20.33 20.33 0 0 1-13.053-6.43 20.3 20.3 0 0 1-5.393-13.52c.021-2.58.567-5.12 1.606-7.48a19 19 0 0 1 4.433-6.24 19.1 19.1 0 0 1 6.537-3.97 18.8 18.8 0 0 1 7.576-1.06M255.055 654.854a19.2 19.2 0 0 1 12.974 5.586 19.2 19.2 0 0 1 5.644 12.953 18.51 18.51 0 0 1-17.279 18.453c-11.167.216-19.591-7.563-19.656-18.194a19.02 19.02 0 0 1 5.395-13.068 19 19 0 0 1 12.922-5.73m297.187-356.958c-2.484-12.965 1.318-22.688 10.627-25.713 10.519-3.414 18.965.518 24.213 10.069 4.644 8.448-1.49 19.555-7.43 23.271-9.288 5.813-17.388 3.717-27.41-7.627M289.615 1006.02c-2.499.05-4.98-.42-7.288-1.38a18.2 18.2 0 0 1-6.123-4.19 18.14 18.14 0 0 1-5.013-13.639 18.987 18.987 0 0 1 20.238-17.61c9.374.865 17.712 9.075 17.28 18.28-.367 11.906-10.411 19.859-19.094 18.539m-.52-418.798a18.71 18.71 0 0 1-17.949-18.691c.194-9.853 10.043-19.317 19.655-18.885 8.769.411 17.884 10.264 18.057 19.447s-9.439 19.404-19.763 18.129m699.8-278.955a18.66 18.66 0 0 1-12.864-5.365 18.67 18.67 0 0 1-5.56-12.785c0-10.977 7.992-19.08 18.554-18.928a19.28 19.28 0 0 1 12.995 5.341 19.32 19.32 0 0 1 5.93 12.744c.43 9.486-9.011 18.928-19.055 18.993m-104.321-71.629c10.044.173 18.662 8.946 18.209 18.583a18.76 18.76 0 0 1-5.421 12.45 18.74 18.74 0 0 1-12.399 5.527c-10.649 0-19.094-7.649-19.051-17.653.043-12.1 8.705-19.577 18.662-18.907M588.616 1267.32c0 9.18-9.483 18.04-19.051 17.98-10.454 0-19.44-9.12-18.856-19.1.279-5.04 2.54-9.75 6.289-13.12a19.04 19.04 0 0 1 13.712-4.86c9.374.2 18.014 9.42 17.906 19.1m86.442 15.93c10.152.28 17.971 7.36 18.165 19.88.13 8.64-10.087 17.41-18.921 17.28a19.1 19.1 0 0 1-12.801-5.94 19.15 19.15 0 0 1-5.234-13.12c.135-4.88 2.18-9.51 5.695-12.89a18.6 18.6 0 0 1 13.096-5.21m-1.493-1009.49c-2.16-.821-4.082-1.599-6.091-2.334-13.392-4.883-15.12-23.768-3.024-32.044a18.614 18.614 0 0 1 24.71 4.689c7.624 11.517 3.628 23.488-9.439 28.09-2.009.605-4.104 1.037-6.156 1.599M262.031 864.901c1.922 1.75 4.449 3.695 6.588 6.007a17.637 17.637 0 0 1-.216 24.762 18.8 18.8 0 0 1-12.848 5.469 18.8 18.8 0 0 1-13.072-4.907 17.77 17.77 0 0 1-1.296-24.935c5.184-6.072 8.489-7.131 20.844-6.396m498.841 398.339a61.4 61.4 0 0 1 6.35-9.7c6.653-7.07 16.481-7.22 23.997-.85 8.64 7.26 8.467 16.51 3.607 23.9-7.019 10.68-18.229 10.8-26.912 4.32a40 40 0 0 1-4.515-4.51zm-365.614-118.35c10.151.15 17.15 7.61 16.912 18.04a17.1 17.1 0 0 1-5.518 11.9 17.17 17.17 0 0 1-12.312 4.52 17.16 17.16 0 0 1-11.896-5.52 17.16 17.16 0 0 1-4.509-12.32 16.66 16.66 0 0 1 10.757-15.54c2.094-.8 4.327-1.16 6.566-1.08m30.15-768.623c-12.074-7.304-15.292-13.743-11.555-23.164a17.47 17.47 0 0 1 20.282-9.961 16.42 16.42 0 0 1 12.376 18.712c-1.253 10.005-7.949 14.586-21.103 14.413m-65.399 35.587c12.7 4.02 18.532 10.631 17.128 19.663-1.036 6.634-8.056 15.428-17.042 14.823-8.985-.605-15.854-6.482-16.977-14.887-1.274-9.356 4.428-15.925 16.891-19.599m803.371-.194c-8.64 0-17.28-8.946-16.89-17.481.41-9.075 8.74-17.286 17.27-17.286 9.25.173 17.89 9.14 17.5 18.194a18.014 18.014 0 0 1-17.88 16.573m-750.65 788.85c-.151-9.07 2.505-15.12 9.892-18.63a16.7 16.7 0 0 1 12.373-1.07 16.72 16.72 0 0 1 9.702 7.75 17.83 17.83 0 0 1-5.659 22.58 16.24 16.24 0 0 1-11.666 2.49 16.2 16.2 0 0 1-10.214-6.16 69 69 0 0 1-4.428-6.96m-.562-806.136a17.3 17.3 0 0 1-5.052 11.958 17.27 17.27 0 0 1-11.947 5.068 16.6 16.6 0 0 1-11.648-4.32 16.62 16.62 0 0 1-5.394-11.194c-.411-10.285 6.48-18.582 16.027-19.144 8.726-.497 17.711 8.297 18.014 17.632m803.502 35.976a17.27 17.27 0 0 1-5.36 11.249 17.26 17.26 0 0 1-11.53 4.719c-9.87-.302-17.52-7.822-17.28-16.724-.01-2.282.43-4.543 1.31-6.649a16.9 16.9 0 0 1 3.79-5.617 17 17 0 0 1 5.68-3.699 17.03 17.03 0 0 1 13.27.294c2.08.935 3.95 2.277 5.51 3.947a17.3 17.3 0 0 1 3.54 5.779 17.2 17.2 0 0 1 1.01 6.701zm-862.682 681.16c15.746-1.84 18.813 0 24.407 14.58-2.614 12.32-7.063 17.29-16.135 18.09-6.48.56-14.256-4.32-17.128-10.63-3.435-7.56-1.08-13.55 8.856-22.04m792.502-751.514a17 17 0 0 1-1.53 6.7 17.05 17.05 0 0 1-4.07 5.541 17 17 0 0 1-5.93 3.474 17 17 0 0 1-6.83.837c-8.33-.389-15.7-8.643-15.55-17.286.25-4.481 2.2-8.696 5.47-11.773a17.47 17.47 0 0 1 12.07-4.757c2.24-.042 4.46.383 6.53 1.248a16.13 16.13 0 0 1 8.94 9.434c.76 2.107 1.06 4.349.9 6.582M797.418 1301.53c3.866-12.23 10.411-17.94 18.77-16.3 4.036.77 7.696 2.88 10.389 5.98a18.3 18.3 0 0 1 4.45 11.14c0 6.48-6.998 14.32-13.932 15.12-10.864 1.45-15.595-2.44-19.677-15.94m-472.51-225.41c4.283.12 8.364 1.85 11.436 4.83a17.14 17.14 0 0 1 5.152 11.31c0 8.01-7.884 16.16-15.487 16.12-8.877 0-16.545-6.66-16.891-14.5-.158-2.21.128-4.43.841-6.53s1.838-4.03 3.31-5.68c1.471-1.66 3.259-3 5.258-3.96a16.6 16.6 0 0 1 6.381-1.59m767.812-735.765a15.3 15.3 0 0 1-5.93-1.337 15.2 15.2 0 0 1-4.94-3.548 15.2 15.2 0 0 1-3.16-5.194c-.7-1.927-1-3.973-.89-6.019 0-4.143 1.63-8.118 4.54-11.072a15.8 15.8 0 0 1 10.99-4.723c8.38-.13 17.78 7.649 16.89 16.897a16.36 16.36 0 0 1-5.67 11.098 16.35 16.35 0 0 1-11.83 3.898M604.536 238.561a17 17 0 0 1 16.438 16.293c.172 8.275-8.036 16.378-16.503 16.292a16.62 16.62 0 0 1-15.724-15.839c.022-8.664 6.804-16.94 15.789-16.746M241.189 961.206c-3.068-12.597-.281-20.505 8.099-23.768a16.564 16.564 0 0 1 19.44 6.763 15.975 15.975 0 0 1-3.629 21.111c-7.128 5.985-13.759 4.861-23.91-4.106m993.681-481.05c-9.93.259-17.28-6.482-17.43-16.011-.17-8.276 7.76-15.904 16.61-15.947 7.91 0 15.45 6.785 15.83 14.348.46 8.708-6.95 17.415-15.01 17.61M464.505 340.679c-8.64 0-15.941-7.411-15.617-15.471.411-9.961 6.48-16.551 15.595-16.768a16.75 16.75 0 0 1 11.871 5.186 16.77 16.77 0 0 1 4.631 12.101c-.173 7.605-8.316 15.038-16.48 14.952m156.573 963.371a48.5 48.5 0 0 1-3.391 6.85 16.34 16.34 0 0 1-7.955 5.99 16.4 16.4 0 0 1-9.951.28 16.63 16.63 0 0 1-8.333-6.39 16.65 16.65 0 0 1-2.834-10.12 17.14 17.14 0 0 1 3.754-9.23 17.16 17.16 0 0 1 8.255-5.57c2.598-.68 5.331-.66 7.915.07a15.03 15.03 0 0 1 6.773 4.1 17.15 17.15 0 0 1 4.523 6.34 17.1 17.1 0 0 1 1.244 7.68m-157.953-55.31a57 57 0 0 1-7.97-4.32 15.76 15.76 0 0 1-6.191-10.21 15.75 15.75 0 0 1 2.757-11.62 16.33 16.33 0 0 1 10.039-6.43c4.037-.8 8.228-.05 11.733 2.11a16.62 16.62 0 0 1 4.882 22.58c-3.456 5.23-9.094 6.44-15.25 7.89M325.017 447.831c6.479-.346 16.437 6.482 16.113 16.53a16.15 16.15 0 0 1-4.926 11.03 16.13 16.13 0 0 1-22.397 0 16.15 16.15 0 0 1-4.925-11.03 16.92 16.92 0 0 1 16.135-16.53m-64.884 171.262c-12.744.454-18.77-3.392-20.671-12.77-1.577-7.714 3.132-15.125 11.491-18.258 6.826-2.485 14.861 1.339 18.489 8.816 4.147 8.556 1.663 14.65-9.309 22.212m710.47-364.024c-4.32 12.706-9.979 17.286-19.439 15.45a16.06 16.06 0 0 1-12.96-15.925c0-7.001 6.696-14.866 13.478-15.666 9.461-1.102 14.99 3.631 18.921 16.141M219.914 793.596a16.53 16.53 0 0 1-15.27-15.125 15.51 15.51 0 0 1 18.377-15.633 15.51 15.51 0 0 1 12.337 12.219 15.52 15.52 0 0 1-6.724 16.012 15.5 15.5 0 0 1-8.72 2.527m553.678 528.634c9.655-2.29 16.87.49 20.801 10.22.194 10.91-3.996 17.5-12.377 19.21-5.897 1.21-14.256-3.22-16.869-8.93-3.391-7.41-.929-13.42 8.445-20.5M763.487 220.303a18.15 18.15 0 0 1 11.47-15.255c11.145-.195 18.726 4.473 19.72 12.1 1.058 7.995-4.709 16.335-12.247 17.74-9.137 1.75-15.076-2.744-18.943-14.585m70.456-1.383 3.521-8.643c11.361-7.455 19.893-6.482 24.71 2.528a15.13 15.13 0 0 1-6.48 20.052c-9.504 4.602-19.763-.108-21.751-13.937M275.314 499.344a15.26 15.26 0 0 1 4.486-10.489 15.25 15.25 0 0 1 10.504-4.442c7.624-.13 15.011 7.541 14.752 15.32-.259 7.778-8.121 14.866-15.573 14.563-6.458-.259-14.213-8.47-14.169-14.952m777.456-223.51h11.49c10.26 8.125 12.14 16.033 5.68 23.531-5.53 6.482-14.41 7.757-22.53 0-6.22-6.072-4.15-15.19 5.36-23.531m251.39 412.404c-1.96.084-3.92-.221-5.76-.896a15 15 0 0 1-4.98-3.039 14.9 14.9 0 0 1-3.43-4.718 15 15 0 0 1-1.36-5.673 16.12 16.12 0 0 1 4.39-10.54 16.12 16.12 0 0 1 10.28-4.975c7.84-.216 15.12 7.628 15.12 16.314-.13 6.482-7.45 13.527-14.26 13.527M723.334 1330.63c.928 12.06-2.009 17.81-9.936 19.99-3.629.97-7.488.56-10.836-1.14a15.27 15.27 0 0 1-7.308-8.09c-2.484-6.33.173-13.24 6.675-17.28s13.175-2.47 21.405 6.52m-28.99-1110.932c3.304-10.804 9.59-15.99 17.539-14.585a15.55 15.55 0 0 1 8.848 5.516 15.56 15.56 0 0 1 3.377 9.868 15.38 15.38 0 0 1-13.63 14.132c-7.624.843-13.197-4.322-16.134-14.931m587.416 272.277c2.47 13.527.57 16.876-13.15 22.818-7.54-2.334-14.17-5.964-14.95-15.233-.19-2.86.55-5.704 2.11-8.11a13.34 13.34 0 0 1 6.53-5.244c8.1-3.392 14.43-.778 19.46 5.769M484.247 289.858c4.752-13.462 7.646-15.255 21.384-13.634 8.294 6.482 10.195 11.063 7.711 18.733a14.84 14.84 0 0 1-13.932 9.767c-6.264.324-10.994-4.214-15.163-14.866m819.683 467.675a19.3 19.3 0 0 1-9.09-3.956 19.24 19.24 0 0 1-5.92-7.95c.64-2.917 1.34-6.028 1.98-8.988 3.57-4.819 8.64-6.288 14.02-7.714 7.13 2.593 12.83 6.741 12.4 15.298-.41 7.973-5.66 11.798-13.39 13.31M863.599 1336.83c.009 1.96-.382 3.89-1.149 5.69a14.4 14.4 0 0 1-3.31 4.76 14.32 14.32 0 0 1-10.661 3.9c-7.344-.17-14.45-7.95-14.061-14.78a15.646 15.646 0 0 1 14.536-14.39c1.945-.03 3.876.34 5.676 1.08s3.433 1.83 4.801 3.21a14.48 14.48 0 0 1 4.168 10.53m-557.894-280.49c-1.771 7.24-4.32 12.21-10.648 14.91-7.733 3.29-16.956-3.04-19.094-9.16a14.693 14.693 0 0 1 8.639-18.19c6.718-2.64 11.707-1.51 16.07 4.08a75 75 0 0 1 5.033 8.36m209.409 210.27a54.5 54.5 0 0 1-3.672 8.4 14.5 14.5 0 0 1-4.443 4.2 14.5 14.5 0 0 1-5.778 1.98c-2.046.24-4.119.04-6.081-.58a14.5 14.5 0 0 1-5.297-3.05c-4.061-3.86-6.48-8.64-4.709-14.43a15.56 15.56 0 0 1 5.032-7.42 15.44 15.44 0 0 1 8.295-3.38c2.668-.48 5.418-.05 7.815 1.22a12.2 12.2 0 0 1 5.426 5.76c1.231 2.11 2.138 4.45 3.412 7.3M226.891 695.044c5.443 4.322 9.482 8.47 7.927 15.601-1.685 7.627-7.15 10.955-13.91 12.964-12.96-3.867-16.848-8.967-14.839-19.014 1.641-8.06 8.208-11.172 20.822-9.551M883.08 1316.67a60 60 0 0 1-7.819-4.32 13.67 13.67 0 0 1-3.629-17.28 15.4 15.4 0 0 1 7.505-6.5 15.43 15.43 0 0 1 9.904-.57 14.4 14.4 0 0 1 7.528 6.45 14.4 14.4 0 0 1 1.565 9.8c-1.684 7.71-7.084 11.06-15.054 12.42M234.818 848.134a15.28 15.28 0 0 1-4.554 10.499 15.26 15.26 0 0 1-10.566 4.388c-7.149 0-13.586-7.087-13.889-14.93-.388-10.199 7.064-14.24 14.991-14.24a13.5 13.5 0 0 1 10.174 4.033 13.52 13.52 0 0 1 3.844 10.25m-14.191-195.593c-11.016-4.321-14.904-8.643-13.781-15.255a14.91 14.91 0 0 1 13.284-11.862 14 14 0 0 1 12.743 10.804c1.361 7.67-1.792 12.014-12.246 16.313m-.434 278.371c-6.869-.151-13.456-6.352-13.5-12.705a13.45 13.45 0 0 1 4.019-9.588 13.43 13.43 0 0 1 9.654-3.852c7.732.281 12.96 5.64 12.549 12.965-.41 7.325-5.875 13.332-12.722 13.18m432.163 405.898a12.67 12.67 0 0 1-3.705 9.09 12.6 12.6 0 0 1-9.082 3.72 13.03 13.03 0 0 1-9.131-4.07 13.05 13.05 0 0 1-3.58-9.33 13.08 13.08 0 0 1 4.069-9.14 13.08 13.08 0 0 1 9.334-3.58c1.693 0 3.368.35 4.917 1.04 1.55.68 2.938 1.68 4.078 2.94a12.1 12.1 0 0 1 2.537 4.34c.534 1.6.726 3.31.563 4.99m.001-1116.118a11.9 11.9 0 0 1-3.704 9.075 11.9 11.9 0 0 1-9.256 3.219c-7.97-.324-12.743-5.164-12.657-12.856a12.964 12.964 0 0 1 13.179-14.24 12.964 12.964 0 0 1 12.546 14.802zM522.413 1306.21c-.259-13.89 3.37-17.45 17.128-16.85 4.817 3.35 9.245 7.28 7.82 14.43a12.5 12.5 0 0 1-3.233 6.6 12.54 12.54 0 0 1-6.379 3.63c-6.955 1.79-11.405-2.01-15.336-7.81m16.846-1039.17c-11.189 0-15.66-2.528-17.064-9.377a13.44 13.44 0 0 1 8.64-15.234 12.96 12.96 0 0 1 14.753 5.51c4.039 6.828 2.505 11.733-6.329 19.101m366.718-47.688c0-5.964 6.069-12.187 12.311-12.511a14.08 14.08 0 0 1 13.954 13.289 13.64 13.64 0 0 1-3.977 8.987 13.63 13.63 0 0 1-8.983 3.978c-6.782.345-13.241-6.375-13.305-13.743m105.943 41.357c-.3-1.945-.69-3.695-.82-5.445-.03-1.335.04-2.671.2-3.998 7.32-10.177 13.32-12.057 20.21-6.482a12.7 12.7 0 0 1 3.42 3.728c.87 1.46 1.44 3.083 1.67 4.77s.11 3.403-.34 5.044a12.7 12.7 0 0 1-2.3 4.501c-5.25 6.547-12.01 6.093-22.04-2.118M241.966 1021.9c4.32-10.18 9.374-13.68 17.085-11.6 2.687.95 5.017 2.7 6.671 5.02a13.84 13.84 0 0 1 2.574 7.94 14.27 14.27 0 0 1-3.765 8.02 14.23 14.23 0 0 1-7.77 4.23c-6.566.87-11.534-3.71-14.795-13.61M1291.01 534.37c0-7.131 6.13-13.591 12.51-13.289 6.78.324 13.5 7.044 13.13 13.137a14.15 14.15 0 0 1-3.95 8.519 14.1 14.1 0 0 1-8.41 4.165c-6.09.303-14.38-6.482-13.28-12.532m-1021.872 2.009c-2.764 3.328-5.443 6.483-7.884 9.486-5.529 1.037-10.389 1.75-14.471-2.398-3.737-3.803-5.594-8.146-3.888-13.505a12.96 12.96 0 0 1 11.08-8.773c5.53-.951 9.483 2.528 12.291 6.785a37 37 0 0 1 2.872 8.405m662.37 799.371a13.44 13.44 0 0 1-3.286 8.72 13.47 13.47 0 0 1-8.162 4.49c-6.48.43-12.96-5.51-13.586-12.3-.454-5.25 5.486-11.99 10.951-12.42 7.149-.54 13.845 4.92 14.083 11.51m266.822-964.432c-6.16-2.592-11.28-5.79-10.8-13.159.28-4.537 5.37-9.118 10.21-9.593 7.09-.713 10.05 4.083 12.53 9.831a14.45 14.45 0 0 1-11.94 12.921m-837.697.066-9.115-4.322c-2.398-4.084-3.823-7.606-1.858-10.955a19.2 19.2 0 0 1 6.48-6.482c4.622-2.658 11.059 0 13.586 4.818 3.305 6.288.843 11.214-9.093 16.941m33.589 870.936a11.02 11.02 0 0 1-10.152-11.39c.45-2.98 2.038-5.67 4.43-7.51a11.67 11.67 0 0 1 8.4-2.34 11.28 11.28 0 0 1 8.813 12.53 10.94 10.94 0 0 1-4.107 6.52 10.94 10.94 0 0 1-7.384 2.19m-45.748-44.57c3.52-9.19 7.819-12.73 13.413-11.52a11.86 11.86 0 0 1 8.964 10.67 11.695 11.695 0 0 1-7.668 10.46c-6.113 1.82-10.346-.86-14.709-9.61m47.368-861.933c-9.288-3.803-12.16-7.022-11.426-12.403a10.565 10.565 0 0 1 9.917-9.696 10.565 10.565 0 0 1 10.97 8.486c1.533 5.705-.497 8.751-9.461 13.613m757.878-15.816c7.39-7.109 10.8-7.93 15.79-4.127s6.16 7.865 3.93 12.964c-1 2.297-2.78 4.163-5.03 5.267a10.55 10.55 0 0 1-7.24.762c-5.5-1.297-7.62-5.316-7.45-14.866m-592.21-92.892c-3.153-8.449-2.484-12.727 2.549-15.817a9.89 9.89 0 0 1 13.413 1.88 10.526 10.526 0 0 1 .108 13.635c-3.52 4.58-7.473 4.645-16.07.302M325.662 1173.41c-9.202-4.12-12.225-7.6-11.297-12.55.929-4.95 5.681-9.46 10.087-9.48 2.296.07 4.52.81 6.402 2.13a11.83 11.83 0 0 1 4.204 5.28c1.879 6.22-.281 9.72-9.396 14.62m10.412-775.514c-1.577 1.664-2.614 2.614-3.456 3.716a14.7 14.7 0 0 0-1.447 2.161c-6.199 1.815-10.433 1.167-13.414-2.312a14.6 14.6 0 0 1-3.196-7.541 9.74 9.74 0 0 1 8.985-10.026 17.6 17.6 0 0 1 8.769 2.939c3.737 2.42 3.37 6.676 3.759 11.063m644.488-171.348c-2.873-8.924-2.16-12.533 3.24-15.666a9.63 9.63 0 0 1 13.24 2.615 10.32 10.32 0 0 1 2.374 6.905 10.33 10.33 0 0 1-2.784 6.751c-4.191 4.386-8.079 4.256-16.07-.605m242.818 167.826c.15-6.267 3.96-10.307 9.79-10.458 5.83-.152 11.68 5.38 11.45 10.587-.24 5.208-5.6 11.02-11.5 10.35-5.89-.669-9.89-4.494-9.74-10.479M1339 558.138c8.49 3.954 11.08 7.346 9.83 12.835-.6 2.41-2.02 4.536-4.02 6.012a10.64 10.64 0 0 1-6.92 2.073 10.7 10.7 0 0 1-6.66-2.816c-1.82-1.685-3-3.953-3.33-6.415-.63-5.51 2.63-8.945 11.1-11.689M569.2 1347.27c-6.761-1.99-10.476-5.79-10.022-12.45a9.5 9.5 0 0 1 2.266-5.31 9.47 9.47 0 0 1 4.926-3.03c6.092-1.96 9.979 1.65 13.198 5.88.173 10.59-.13 10.93-10.368 14.91m490.54-90.43a9.76 9.76 0 0 1 6.91 3.51 9.7 9.7 0 0 1 1.84 3.5c.37 1.28.48 2.63.3 3.95-.1 1.33-.47 2.62-1.09 3.8a9.9 9.9 0 0 1-2.5 3.07 9.9 9.9 0 0 1-7.44 2.16 10.76 10.76 0 0 1-6.76-3.79 10.83 10.83 0 0 1-2.49-7.34c.33-2.66 1.7-5.08 3.8-6.74 2.1-1.65 4.77-2.42 7.43-2.12m-174.141-38.12a12.9 12.9 0 0 1 9.16 4.66 13 13 0 0 1 2.451 4.65c.49 1.7.625 3.48.398 5.23a13.15 13.15 0 0 1-1.45 5.05 13.1 13.1 0 0 1-3.315 4.07 13 13 0 0 1-4.648 2.44c-1.698.5-3.478.64-5.233.43a14.345 14.345 0 0 1-12.267-14.77 13.5 13.5 0 0 1 5.039-8.94 13.53 13.53 0 0 1 9.865-2.82m-69.976 0a12.92 12.92 0 0 1 9.16 4.66 13 13 0 0 1 2.45 4.65c.49 1.7.626 3.48.399 5.23a13.2 13.2 0 0 1-1.45 5.05 13.07 13.07 0 0 1-7.963 6.51c-1.698.5-3.478.64-5.233.43a14.34 14.34 0 0 1-8.97-5.03 14.35 14.35 0 0 1-3.297-9.74 13.5 13.5 0 0 1 5.038-8.94c2.79-2.2 6.335-3.21 9.866-2.82m-70.844-3.16c2.186.13 4.32.72 6.272 1.71s3.678 2.37 5.072 4.06a16 16 0 0 1 3.528 12.23 16.2 16.2 0 0 1-1.796 6.25 16.2 16.2 0 0 1-4.105 5.05 16.3 16.3 0 0 1-5.755 3.02c-2.103.61-4.308.79-6.481.53a17.75 17.75 0 0 1-11.107-6.23 17.75 17.75 0 0 1-4.084-12.06 16.7 16.7 0 0 1 6.239-11.07 16.7 16.7 0 0 1 12.217-3.49m-33.697-36.45c2.307.14 4.56.76 6.62 1.8a16.9 16.9 0 0 1 5.355 4.29 16.87 16.87 0 0 1 3.724 12.91 17.1 17.1 0 0 1-1.896 6.6 17.2 17.2 0 0 1-4.333 5.33 17.12 17.12 0 0 1-12.916 3.74 18.7 18.7 0 0 1-11.725-6.57 18.73 18.73 0 0 1-4.311-12.73 17.67 17.67 0 0 1 6.586-11.69 17.67 17.67 0 0 1 12.896-3.68M570.928 900.571a16.32 16.32 0 0 1 15.194 18.392 16.57 16.57 0 0 1-18.53 15.164 18.13 18.13 0 0 1-11.348-6.358 18.15 18.15 0 0 1-4.173-12.325 17.1 17.1 0 0 1 6.375-11.311 17.08 17.08 0 0 1 12.482-3.562m.001-69.676a16.32 16.32 0 0 1 15.194 18.392 16.57 16.57 0 0 1-6.029 11.539 16.57 16.57 0 0 1-12.501 3.625 18.143 18.143 0 0 1-15.521-18.683 17.1 17.1 0 0 1 6.375-11.311 17.08 17.08 0 0 1 12.482-3.562m314.762-311.858a14.1 14.1 0 0 1 10.02 5.097 14.12 14.12 0 0 1 3.117 10.805 14.34 14.34 0 0 1-10.297 12.65 14.3 14.3 0 0 1-5.725.461 15.68 15.68 0 0 1-13.419-16.154 14.77 14.77 0 0 1 16.304-12.859m139.849.115c1.99.121 3.94.649 5.71 1.553 1.78.903 3.35 2.162 4.62 3.699a14.5 14.5 0 0 1 2.76 5.233c.55 1.916.71 3.924.45 5.901a14.7 14.7 0 0 1-1.63 5.69 14.9 14.9 0 0 1-3.74 4.591 14.77 14.77 0 0 1-11.14 3.229 16.16 16.16 0 0 1-10.11-5.665 16.2 16.2 0 0 1-3.72-10.98c.5-3.976 2.54-7.597 5.68-10.078 3.15-2.48 7.14-3.62 11.12-3.173m-70.464 1.436a12.756 12.756 0 0 1 11.875 14.374 12.96 12.96 0 0 1-9.308 11.435 13 13 0 0 1-5.174.416 14.176 14.176 0 0 1-12.13-14.601 13.353 13.353 0 0 1 14.737-11.624M676.17 1143.13c2.452.14 4.847.8 7.037 1.91a17.93 17.93 0 0 1 9.651 18.29 18.2 18.2 0 0 1-6.622 12.67 18.1 18.1 0 0 1-6.458 3.39c-2.36.69-4.834.89-7.272.59a19.93 19.93 0 0 1-12.464-6.98 19.94 19.94 0 0 1-4.582-13.54c.608-4.9 3.124-9.36 7.001-12.42a18.7 18.7 0 0 1 13.709-3.91m-34.509-35.11a18.35 18.35 0 0 1 13.033 6.63 18.34 18.34 0 0 1 4.052 14.05 18.6 18.6 0 0 1-2.062 7.18 18.8 18.8 0 0 1-4.717 5.8 18.7 18.7 0 0 1-6.612 3.47c-2.416.7-4.948.91-7.445.6a20.37 20.37 0 0 1-12.76-7.15 20.4 20.4 0 0 1-4.692-13.86 19.2 19.2 0 0 1 7.168-12.72 19.18 19.18 0 0 1 14.035-4m347.622 149.24a9.8 9.8 0 0 1 3.816 1.04 9.9 9.9 0 0 1 3.087 2.47 9.74 9.74 0 0 1 2.147 7.45 9.85 9.85 0 0 1-1.093 3.8 9.85 9.85 0 0 1-2.498 3.07 9.8 9.8 0 0 1-3.503 1.84c-1.28.37-2.621.48-3.944.32a10.77 10.77 0 0 1-6.759-3.79 10.8 10.8 0 0 1-2.485-7.34c.33-2.66 1.694-5.08 3.797-6.74a10.2 10.2 0 0 1 7.435-2.12m-209.126-71.57c1.459.09 2.884.48 4.186 1.14s2.456 1.59 3.387 2.71c.931 1.13 1.62 2.44 2.026 3.84.405 1.41.517 2.88.329 4.33a10.85 10.85 0 0 1-3.939 7.54 11 11 0 0 1-3.843 2.02c-1.403.41-2.875.52-4.326.35a11.83 11.83 0 0 1-7.415-4.16 11.84 11.84 0 0 1-2.726-8.05 11.15 11.15 0 0 1 4.165-7.39 11.15 11.15 0 0 1 8.156-2.33m-139.654-139.48c1.458.08 2.883.47 4.186 1.13 1.303.67 2.456 1.59 3.387 2.72s1.62 2.43 2.025 3.84c.405 1.4.517 2.87.33 4.32a10.8 10.8 0 0 1-3.94 7.54 10.65 10.65 0 0 1-3.842 2.02 10.7 10.7 0 0 1-4.326.35c-2.9-.42-5.542-1.9-7.415-4.15a11.88 11.88 0 0 1-2.726-8.06 11.18 11.18 0 0 1 4.165-7.39 11.14 11.14 0 0 1 8.156-2.32m-34.051-103.819a10.65 10.65 0 0 1 7.573 3.852 10.66 10.66 0 0 1 2.355 8.166 10.84 10.84 0 0 1-3.939 7.54 10.83 10.83 0 0 1-8.169 2.368 11.846 11.846 0 0 1-10.141-12.208 11.163 11.163 0 0 1 12.321-9.718m0-141.323a10.67 10.67 0 0 1 7.573 3.852 10.67 10.67 0 0 1 2.355 8.166 10.84 10.84 0 0 1-7.782 9.56 10.8 10.8 0 0 1-4.326.348 11.846 11.846 0 0 1-10.141-12.207 11.163 11.163 0 0 1 12.321-9.719m-.975 72.413a9.25 9.25 0 0 1 6.578 3.346 9.27 9.27 0 0 1 2.045 7.092 9.407 9.407 0 0 1-10.517 8.607 10.29 10.29 0 0 1-8.809-10.604 9.696 9.696 0 0 1 10.703-8.441m1.301 134.419c1.871.11 3.697.61 5.368 1.46 1.67.85 3.148 2.03 4.341 3.48a13.6 13.6 0 0 1 2.597 4.92c.52 1.8.663 3.69.423 5.54a13.9 13.9 0 0 1-5.051 9.67 13.8 13.8 0 0 1-4.926 2.59c-1.8.52-3.686.67-5.546.45a15.204 15.204 0 0 1-13.002-15.65 14.32 14.32 0 0 1 5.34-9.48 14.3 14.3 0 0 1 10.456-2.98m0-278.316a13.65 13.65 0 0 1 9.709 4.938 13.68 13.68 0 0 1 3.02 10.469 13.9 13.9 0 0 1-5.051 9.667 13.9 13.9 0 0 1-10.472 3.035 15.2 15.2 0 0 1-9.507-5.326 15.2 15.2 0 0 1-3.495-10.324 14.313 14.313 0 0 1 15.796-12.459m174.38-175.587a13.65 13.65 0 0 1 9.709 4.938 13.67 13.67 0 0 1 3.019 10.469 13.886 13.886 0 0 1-15.522 12.703 15.2 15.2 0 0 1-9.507-5.327 15.2 15.2 0 0 1-3.495-10.324 14.313 14.313 0 0 1 15.796-12.459m-35.519 38.181a11.065 11.065 0 0 1 10.298 12.466 11.24 11.24 0 0 1-4.086 7.822 11.23 11.23 0 0 1-8.473 2.456 12.29 12.29 0 0 1-10.52-12.663 11.58 11.58 0 0 1 12.781-10.081M640.303 697.562a11.05 11.05 0 0 1 7.855 3.995 11.07 11.07 0 0 1 2.443 8.471 11.24 11.24 0 0 1-4.086 7.821 11.2 11.2 0 0 1-8.473 2.457 12.29 12.29 0 0 1-10.52-12.663 11.573 11.573 0 0 1 12.781-10.081m70.26-68.749a9.405 9.405 0 0 1 8.471 6.786c.358 1.24.457 2.54.291 3.819a9.57 9.57 0 0 1-3.477 6.655 9.55 9.55 0 0 1-7.209 2.09 10.46 10.46 0 0 1-8.95-10.774 9.85 9.85 0 0 1 10.874-8.576m-35.395 35.213a9.42 9.42 0 0 1 8.472 6.787c.357 1.24.456 2.54.29 3.819a9.554 9.554 0 0 1-10.685 8.745 10.455 10.455 0 0 1-8.95-10.774 9.85 9.85 0 0 1 10.873-8.577m68.846 488.394c1.22.07 2.412.4 3.502.95a9 9 0 0 1 2.833 2.27 8.94 8.94 0 0 1 1.97 6.83 9.07 9.07 0 0 1-3.295 6.31 9.03 9.03 0 0 1-6.833 1.98 9.9 9.9 0 0 1-6.202-3.48 9.9 9.9 0 0 1-2.281-6.73 9.33 9.33 0 0 1 3.484-6.18 9.28 9.28 0 0 1 6.822-1.95m-34.017-35.07c1.22.07 2.412.4 3.501.95a8.92 8.92 0 0 1 4.803 9.1 9.07 9.07 0 0 1-3.295 6.31 9.1 9.1 0 0 1-3.214 1.69 9 9 0 0 1-3.619.29 9.9 9.9 0 0 1-6.202-3.48 9.9 9.9 0 0 1-2.28-6.73 9.33 9.33 0 0 1 3.484-6.18 9.27 9.27 0 0 1 6.822-1.95m-34.526-34.9c1.22.08 2.412.4 3.502.96a8.9 8.9 0 0 1 2.833 2.26 9 9 0 0 1 1.694 3.21c.339 1.18.433 2.41.276 3.62a9.03 9.03 0 0 1-3.295 6.31 9 9 0 0 1-3.214 1.69 9 9 0 0 1-3.619.29 9.92 9.92 0 0 1-6.202-3.47 9.93 9.93 0 0 1-2.281-6.74 9.33 9.33 0 0 1 3.484-6.18 9.36 9.36 0 0 1 6.822-1.95m245.234 174.1c1.468.09 2.901.48 4.212 1.15a10.6 10.6 0 0 1 3.408 2.73 10.72 10.72 0 0 1 2.369 8.21c-.114 1.47-.525 2.9-1.206 4.2a10.9 10.9 0 0 1-2.757 3.39 10.9 10.9 0 0 1-3.866 2.03c-1.413.41-2.894.53-4.353.35a11.9 11.9 0 0 1-7.461-4.18 11.92 11.92 0 0 1-2.743-8.1 11.23 11.23 0 0 1 12.397-9.78m34.142 34.47c1.468.09 2.902.48 4.213 1.15a10.7 10.7 0 0 1 3.407 2.73 10.72 10.72 0 0 1 2.37 8.21c-.115 1.47-.525 2.9-1.206 4.2a10.8 10.8 0 0 1-2.758 3.39 10.92 10.92 0 0 1-8.219 2.38 11.92 11.92 0 0 1-10.204-12.28 11.23 11.23 0 0 1 12.397-9.78m34.38 35.23c1.338.08 2.645.43 3.84 1.04a9.9 9.9 0 0 1 3.107 2.49 9.8 9.8 0 0 1 2.16 7.49 9.93 9.93 0 0 1-7.138 8.77c-1.288.37-2.638.48-3.968.32a10.88 10.88 0 0 1-6.802-3.81 10.88 10.88 0 0 1-2.501-7.39 10.23 10.23 0 0 1 11.302-8.91m-138.624-71.54c1.669.11 3.299.55 4.79 1.31a12.1 12.1 0 0 1 3.874 3.1 12.2 12.2 0 0 1 2.694 9.34c-.13 1.67-.597 3.29-1.371 4.78a12.4 12.4 0 0 1-3.136 3.85 12.4 12.4 0 0 1-4.395 2.31c-1.606.46-3.29.6-4.949.4a13.56 13.56 0 0 1-8.483-4.76 13.56 13.56 0 0 1-3.119-9.21 12.77 12.77 0 0 1 4.765-8.45 12.8 12.8 0 0 1 9.33-2.67m104.265-34.23a10.87 10.87 0 0 1 7.752 3.94 10.9 10.9 0 0 1 2.074 3.93 10.9 10.9 0 0 1 .337 4.43 11.1 11.1 0 0 1-4.032 7.72 10.9 10.9 0 0 1-3.934 2.06c-1.437.42-2.944.54-4.429.36a12.12 12.12 0 0 1-7.591-4.25 12.15 12.15 0 0 1-2.791-8.25 11.425 11.425 0 0 1 12.614-9.94m69.482 3.04c1.18.07 2.33.39 3.39.92a8.7 8.7 0 0 1 2.74 2.2 8.67 8.67 0 0 1 1.91 6.62 8.7 8.7 0 0 1-.97 3.38 8.9 8.9 0 0 1-2.22 2.73 8.84 8.84 0 0 1-6.62 1.92 9.6 9.6 0 0 1-6.01-3.37 9.62 9.62 0 0 1-2.21-6.52c.3-2.37 1.51-4.52 3.38-5.99a9.04 9.04 0 0 1 6.61-1.89m0 69.65c1.18.07 2.33.39 3.39.92a8.6 8.6 0 0 1 2.74 2.2 8.5 8.5 0 0 1 1.64 3.11c.33 1.14.42 2.33.27 3.51a8.7 8.7 0 0 1-.97 3.38 8.8 8.8 0 0 1-2.22 2.73 8.84 8.84 0 0 1-6.62 1.92 9.6 9.6 0 0 1-6.01-3.37 9.6 9.6 0 0 1-2.2-6.52 9 9 0 0 1 3.37-5.99 9.04 9.04 0 0 1 6.61-1.89m-138.979 68.77c1.293.08 2.557.42 3.711 1.01a9.3 9.3 0 0 1 3.002 2.4c.826 1 1.437 2.16 1.796 3.4.359 1.25.459 2.56.292 3.84a9.6 9.6 0 0 1-1.062 3.7 9.7 9.7 0 0 1-2.43 2.99 9.8 9.8 0 0 1-3.406 1.79 9.6 9.6 0 0 1-3.835.3 10.505 10.505 0 0 1-8.99-10.82 9.9 9.9 0 0 1 3.692-6.55 9.9 9.9 0 0 1 7.23-2.06m-211.251 0c1.293.08 2.557.42 3.712 1.01a9.3 9.3 0 0 1 3.001 2.4c.826 1 1.437 2.16 1.796 3.4.359 1.25.459 2.56.292 3.84a9.6 9.6 0 0 1-1.062 3.7 9.7 9.7 0 0 1-2.43 2.99 9.8 9.8 0 0 1-3.406 1.79 9.6 9.6 0 0 1-3.835.3 10.505 10.505 0 0 1-8.99-10.82 9.9 9.9 0 0 1 3.692-6.55 9.9 9.9 0 0 1 7.23-2.06m141.011-.99c1.359.09 2.686.45 3.899 1.06a10 10 0 0 1 3.154 2.53 10 10 0 0 1 1.886 3.57c.377 1.31.482 2.68.307 4.03a10.1 10.1 0 0 1-3.669 7.03 10.1 10.1 0 0 1-3.578 1.88 10 10 0 0 1-4.029.32 11.04 11.04 0 0 1-9.444-11.37 10.4 10.4 0 0 1 3.879-6.88 10.44 10.44 0 0 1 7.595-2.17m-69.99 0a10.27 10.27 0 0 1 9.221 7.39c.389 1.35.497 2.77.316 4.16a10.4 10.4 0 0 1-1.151 4.01 10.5 10.5 0 0 1-2.633 3.23 10.42 10.42 0 0 1-7.847 2.28 11.44 11.44 0 0 1-7.123-3.99 11.42 11.42 0 0 1-2.619-7.74c.348-2.8 1.786-5.35 4.001-7.1a10.73 10.73 0 0 1 7.835-2.24M299.939 430.069a9.47 9.47 0 0 1-2.923 6.587 9.46 9.46 0 0 1-6.711 2.618 10.803 10.803 0 0 1-10.173-10.134 10.09 10.09 0 0 1 10.346-9.68 9.95 9.95 0 0 1 8.942 6.712 10 10 0 0 1 .519 3.897M441.2 1267.08l-5.508 8.24c-5.81 1.7-10.497 1.77-13.975-3.12a8.6 8.6 0 0 1-1.862-4.89 8.65 8.65 0 0 1 1.301-5.07c3.218-5.74 8.337-5.68 14.536-4.62zm-5.94-967.78h-9.029c-4.665-3.479-7.668-7.498-5.443-13.613a8.92 8.92 0 0 1 9.223-5.726c6.739 0 8.942 4.56 10.411 10.437-1.555 2.679-3.132 5.423-5.162 8.902m929.14 509.421c1.84-2.744 4.32-5.077 7.69-4.948 2.46.094 4.86.8 6.98 2.053a9.63 9.63 0 0 1 3.54 11.322 10.92 10.92 0 0 1-11.77 5.229c-5.72-1.62-6.85-3.997-6.44-13.656m-224.96-518.582c-1.03 1.88-1.79 3.457-2.76 4.905-.97 1.447-2.16 2.787-2.98 3.911-9.09.907-13.35-1.21-14.67-7.045a9.64 9.64 0 0 1 .74-6.735 9.6 9.6 0 0 1 5.01-4.565c5.89-2.334 10.19.281 14.66 9.529m-918.857 288.85a10.235 10.235 0 0 1-10.069-6.411 10.25 10.25 0 0 1-.731-4.155 10.97 10.97 0 0 1 10.8-9.939c5.032-.109 10.605 5.272 10.324 10.198-.28 4.927-4.73 10.847-10.324 10.307m5.592 399.655 5.314 9.032-5.659 8.881c-5.53 1.642-10.433 1.901-13.867-2.896a9.64 9.64 0 0 1-.54-11.041c2.981-4.84 7.754-5.726 14.752-3.976M1374.04 683.916c-9.33-4.322-11.23-6.979-10.15-12.122a9.68 9.68 0 0 1 3.53-5.701 9.72 9.72 0 0 1 6.38-2.056c5.53.389 8.34 3.976 9.4 12.964zM298.493 1133.05a41 41 0 0 1-5.162 3.01c-1.214.53-2.531.8-3.858.77a9.1 9.1 0 0 1-3.821-.94 9.1 9.1 0 0 1-3.061-2.48 9 9 0 0 1-1.723-3.53 10.08 10.08 0 0 1 .998-7.68 10 10 0 0 1 6.152-4.68 9.5 9.5 0 0 1 3.945.13 9.6 9.6 0 0 1 6.115 4.72 9.6 9.6 0 0 1 1.128 3.79 34 34 0 0 1-.713 6.89m174.351 164.07v9.1l-6.718 4.32c-11.426-4.15-12.095-5.92-6.48-16.3 4.644-2.5 8.705-1.18 13.198 2.88M455.521 254.443c2.16-4.84 5.098-7.757 9.979-8.881 4.493 1.405 7.949 4.127 8.035 9.486a9.23 9.23 0 0 1-7.279 8.146c-5.81.281-8.963-3.133-10.735-8.751m-199.082 218.95c-6.307-1.513-9.741-4.192-9.676-9.724a8.93 8.93 0 0 1 2.064-4.821 8.93 8.93 0 0 1 4.415-2.828c6.847-1.426 9.245 3.522 12.053 8.319-1.891 3.9-5 7.078-8.856 9.054m836.271-228.717 7.84 4.581c2.16 3.371 2.16 8.319.28 10.804a8.3 8.3 0 0 1-3.84 2.885 8.23 8.23 0 0 1-4.8.248c-5.21-1.232-7.39-4.991-7.35-11.02 2.31-2.182 4.8-4.559 7.87-7.498M265.444 1090.64a51.3 51.3 0 0 1-4.86 7.9 8.24 8.24 0 0 1-4.543 1.94 8.24 8.24 0 0 1-4.839-.99 8.27 8.27 0 0 1-3.418-3.57 8.3 8.3 0 0 1-.786-4.87c.778-3.5 3.931-7.07 6.869-7.37a6.8 6.8 0 0 1 4.082.67c2.29 1.47 4.277 3.63 7.495 6.29M1369.59 596.448c5.18-.843 9.18-.194 11.08 4.667.46 1.719.35 3.54-.32 5.191a8.22 8.22 0 0 1-3.35 3.971 8.65 8.65 0 0 1-4.61.722 8.66 8.66 0 0 1-4.31-1.781c-2.87-2.852-2.61-5.531 1.51-12.77M212.376 497.421l7.02-5.683c5.227 1.318 7.905 3.608 7.3 8.405-.388 3.025-1.814 5.532-5.075 5.942-5.357.649-7.215-2.917-9.245-8.664m283.276 833.039h7.992c2.354 6.01 2.354 6.01-.324 12.49l-8.186-.78c-2.808-4.11-3.132-7.32.518-11.71m7.861-1103.783-8.035-1.08c-2.744-3.133-3.953-6.201-1.88-9.162 2.528-3.63 6.221-4.192 10.152-2.16 2.679 6.417 2.679 6.417-.237 12.402M224.706 1062.33c-7.149 1.79-8.251 1.58-10.043-1.84a5.9 5.9 0 0 1 .95-7.67 6.16 6.16 0 0 1 4.183-2.09 6.17 6.17 0 0 1 4.457 1.42c3.866 3.2 2.527 6.72.453 10.18m837.674-835.955-8.1-.562c-3.2-4.43-2.36-7.909-.11-11.949l7.19-.432c4.52 2.636 4.69 6.201 1.02 12.943M711.691 1412.09l-6.479-1.38c-1.599-6.63-1.34-8.19 1.641-9.51 1.079-.65 2.359-.88 3.597-.65 1.239.23 2.349.91 3.121 1.91 2.656 3.5 1.663 6.56-1.88 9.63m-71.774-10.8c3.758 1.79 4.687 4.13 3.542 8.06l-5.659 1.73a5.1 5.1 0 0 1-1.513-1.41 5.1 5.1 0 0 1-.832-1.89 5.1 5.1 0 0 1 .79-3.96c.669-1.32 2.635-1.9 3.672-2.53m768.423-757.326c-1.75-2.161-3.55-3.35-4-4.992-.67-2.269 1.9-4.429 4.54-4.451.6-.017 1.2.108 1.75.363.55.256 1.03.636 1.4 1.11.38.474.64 1.029.76 1.621s.11 1.205-.05 1.789c-.65 1.599-2.52 2.68-4.4 4.56M798.953 522.81l9.591-6.05c10.799-2.161 18.575.821 22.787 11.236v13.094l-8.381 8.859a28 28 0 0 0-4.708 1.08c-12.053 5.381-24.148-8.88-21.038-21.197.605-2.398 1.296-4.775 1.944-7.152zm184.675 41.033a9.37 9.37 0 0 1 10.519 0 8.64 8.64 0 0 1 0 9.896c-10.022 3.457-12.441 1.275-10.519-9.896m-69.119 8.664c-1.232-4.17-1.296-7.606 2.807-9.27a4.68 4.68 0 0 1 3.602-.098 4.67 4.67 0 0 1 2.598 2.497 7.66 7.66 0 0 1 .475 5.769c-2.095 4.106-5.443 3.263-9.482 1.102m395.741 304.991c.4 1.492.69 3.008.89 4.538 0 1.273-.09 2.544-.28 3.803-3.46 4.905-6.96 4.97-13.85.518-1.44-4.321-1.36-8.297 2.88-11.128 3.69-2.484 6.69-.129 10.36 2.269"/><ellipse cx="1267.91" cy="638.056" fill="#FDFDFB" rx="17.612" ry="17.619"/><ellipse cx="1233.18" cy="603.598" fill="#FDFDFB" rx="18.389" ry="18.396"/><ellipse cx="1267.91" cy="569.203" fill="#FDFDFB" rx="18.389" ry="18.396"/><ellipse cx="1303.52" cy="603.598" fill="#FDFDFB" rx="16.12" ry="16.126"/><ellipse cx="1268.84" cy="499.586" fill="#FDFDFB" rx="15.202" ry="15.208"/><ellipse cx="1303.52" cy="533.926" fill="#FDFDFB" rx="12.981" ry="12.986"/><ellipse cx="1338.55" cy="568.492" fill="#FDFDFB" rx="10.578" ry="10.582"/><ellipse cx="1373.34" cy="603.252" fill="#FDFDFB" rx="8.845" ry="8.849"/><ellipse cx="1338.83" cy="498.695" fill="#FDFDFB" rx="8.121" ry="8.124"/><ellipse cx="1303.53" cy="463.529" fill="#FDFDFB" rx="8.979" ry="8.983"/><ellipse cx="1268.59" cy="429.163" fill="#FDFDFB" rx="9.656" ry="9.66"/><ellipse cx="1408.48" cy="638.844" fill="#FDFDFB" rx="5.517" ry="5.519"/><ellipse cx="919.109" cy="150.472" fill="#FDFDFB" rx="5.517" ry="5.519"/><ellipse cx="848.837" cy="150.472" fill="#FDFDFB" rx="5.517" ry="5.519"/><ellipse cx="778.999" cy="150.472" fill="#FDFDFB" rx="5.517" ry="5.519"/><ellipse cx="708.882" cy="150.472" fill="#FDFDFB" rx="5.517" ry="5.519"/><ellipse cx="639.636" cy="150.472" fill="#FDFDFB" rx="5.517" ry="5.519"/><ellipse cx="1337.09" cy="427.966" fill="#FDFDFB" rx="4.32" ry="4.322"/><ellipse cx="1302.18" cy="393.212" fill="#FDFDFB" rx="4.32" ry="4.322"/><ellipse cx="1267.39" cy="358.709" fill="#FDFDFB" rx="4.32" ry="4.322"/><ellipse cx="1232.47" cy="323.212" fill="#FDFDFB" rx="4.32" ry="4.322"/><ellipse cx="1197.69" cy="288.283" fill="#FDFDFB" rx="4.32" ry="4.322"/><ellipse cx="1162.92" cy="252.542" fill="#FDFDFB" rx="4.32" ry="4.322"/><ellipse cx="1127.91" cy="218.614" fill="#FDFDFB" rx="4.32" ry="4.322"/><ellipse cx="4.32" cy="4.322" fill="#FDFDFB" rx="4.32" ry="4.322" transform="matrix(-1 0 0 1 225.42 423.644)"/><ellipse cx="4.32" cy="4.322" fill="#FDFDFB" rx="4.32" ry="4.322" transform="matrix(-1 0 0 1 260.329 388.891)"/><ellipse cx="4.32" cy="4.322" fill="#FDFDFB" rx="4.32" ry="4.322" transform="matrix(-1 0 0 1 295.125 354.388)"/><ellipse cx="4.32" cy="4.322" fill="#FDFDFB" rx="4.32" ry="4.322" transform="matrix(-1 0 0 1 330.038 318.891)"/><ellipse cx="4.32" cy="4.322" fill="#FDFDFB" rx="4.32" ry="4.322" transform="matrix(-1 0 0 1 364.825 283.962)"/><ellipse cx="4.32" cy="4.322" fill="#FDFDFB" rx="4.32" ry="4.322" transform="matrix(-1 0 0 1 399.591 248.22)"/><ellipse cx="4.32" cy="4.322" fill="#FDFDFB" rx="4.32" ry="4.322" transform="matrix(-1 0 0 1 434.605 214.292)"/><ellipse cx="221.1" cy="1127.79" fill="#FDFDFB" rx="4.32" ry="4.322" transform="rotate(180 221.1 1127.79)"/><ellipse cx="256.009" cy="1162.54" fill="#FDFDFB" rx="4.32" ry="4.322" transform="rotate(180 256.009 1162.54)"/><ellipse cx="290.805" cy="1197.04" fill="#FDFDFB" rx="4.32" ry="4.322" transform="rotate(180 290.805 1197.04)"/><ellipse cx="325.718" cy="1232.54" fill="#FDFDFB" rx="4.32" ry="4.322" transform="rotate(180 325.718 1232.54)"/><ellipse cx="360.505" cy="1267.47" fill="#FDFDFB" rx="4.32" ry="4.322" transform="rotate(180 360.505 1267.47)"/><ellipse cx="395.271" cy="1303.21" fill="#FDFDFB" rx="4.32" ry="4.322" transform="rotate(180 395.271 1303.21)"/><ellipse cx="430.286" cy="1337.14" fill="#FDFDFB" rx="4.32" ry="4.322" transform="rotate(180 430.286 1337.14)"/><ellipse cx="1373.56" cy="533.422" fill="#FDFDFB" rx="5.517" ry="5.519"/><ellipse cx="1408.48" cy="708.345" fill="#FDFDFB" rx="5.517" ry="5.519"/><ellipse cx="1408.48" cy="778.904" fill="#FDFDFB" rx="5.517" ry="5.519"/><ellipse cx="1198.43" cy="708.773" fill="#FDFDFB" rx="5.517" ry="5.519"/><ellipse cx="1161.43" cy="673.63" fill="#FDFDFB" rx="5.517" ry="5.519"/><ellipse cx="1128.05" cy="639.82" fill="#FDFDFB" rx="5.517" ry="5.519"/><ellipse cx="811.856" cy="603.555" fill="#FDFDFB" rx="5.517" ry="5.519"/><ellipse cx="638.564" cy="778.5" fill="#FDFDFB" rx="5.517" ry="5.519"/><ellipse cx="638.564" cy="987.339" fill="#FDFDFB" rx="5.517" ry="5.519"/><ellipse cx="989.2" cy="568.737" fill="#FDFDFB" rx="6.505" ry="6.503" transform="rotate(-90 989.2 568.737)"/><ellipse cx="919.058" cy="568.737" fill="#FDFDFB" rx="6.505" ry="6.503" transform="rotate(-90 919.058 568.737)"/><ellipse cx="1408.48" cy="849.024" fill="#FDFDFB" rx="5.517" ry="5.519"/><ellipse cx="1303.72" cy="673.322" fill="#FDFDFB" rx="14.923" ry="14.929"/><ellipse cx="1303.72" cy="743.402" fill="#FDFDFB" rx="14.923" ry="14.929"/><ellipse cx="1268.71" cy="708.773" fill="#FDFDFB" rx="13.188" ry="13.193"/><ellipse cx="1233.67" cy="673.133" fill="#FDFDFB" rx="11.967" ry="11.972"/><ellipse cx="1199.04" cy="638.844" fill="#FDFDFB" rx="11.967" ry="11.972"/><ellipse cx="1163.81" cy="604.333" fill="#FDFDFB" rx="13.741" ry="13.746"/><ellipse cx="1128.85" cy="568.767" fill="#FDFDFB" rx="16.429" ry="16.435"/><ellipse cx="1093.5" cy="533.715" fill="#FDFDFB" rx="20.402" ry="20.41"/><ellipse cx="1338.37" cy="708.345" fill="#FDFDFB" rx="13.188" ry="13.193"/><ellipse cx="1338.37" cy="639.241" fill="#FDFDFB" rx="13.188" ry="13.193"/><ellipse cx="1339.21" cy="778.904" fill="#FDFDFB" rx="12.42" ry="12.425"/><ellipse cx="1303.72" cy="812.998" fill="#FDFDFB" rx="11.687" ry="11.692"/><ellipse cx="1058.84" cy="568.492" fill="#FDFDFB" rx="11.687" ry="11.692"/><ellipse cx="848.018" cy="569.351" fill="#FDFDFB" rx="9.494" ry="9.497"/><ellipse cx="1372.54" cy="743.402" fill="#FDFDFB" rx="11.404" ry="11.409"/><ellipse cx="1373.31" cy="813.966" fill="#FDFDFB" rx="10.634" ry="10.639"/><ellipse cx="1338.29" cy="848.494" fill="#FDFDFB" rx="10.634" ry="10.639"/><ellipse cx="1302.66" cy="883.144" fill="#FDFDFB" rx="10.634" ry="10.639"/><ellipse cx="1373.34" cy="882.579" fill="#FDFDFB" rx="8.194" ry="8.197"/><ellipse cx="1338.29" cy="918" fill="#FDFDFB" rx="8.194" ry="8.197"/><ellipse cx="1302.95" cy="952.032" fill="#FDFDFB" rx="8.194" ry="8.197"/><ellipse cx="1268.71" cy="919.333" fill="#FDFDFB" rx="8.194" ry="8.197"/><ellipse cx="1268.71" cy="848.494" fill="#FDFDFB" rx="8.194" ry="8.197"/><ellipse cx="1233.18" cy="743.402" fill="#FDFDFB" rx="8.194" ry="8.197"/><ellipse cx="1093.93" cy="604.333" fill="#FDFDFB" rx="8.194" ry="8.197"/><ellipse cx="1268.71" cy="778.5" fill="#FDFDFB" rx="9.527" ry="9.531"/><ellipse cx="1373.98" cy="952.121" fill="#FDFDFB" rx="6.799" ry="6.802"/><ellipse cx="1338.29" cy="987.647" fill="#FDFDFB" rx="6.799" ry="6.802"/><ellipse cx="1303.46" cy="1022.38" fill="#FDFDFB" rx="7.675" ry="7.678"/><ellipse cx="1268.71" cy="987.647" fill="#FDFDFB" rx="7.675" ry="7.678"/><ellipse cx="1268.71" cy="1057.56" fill="#FDFDFB" rx="7.675" ry="7.678"/><ellipse cx="1234.05" cy="1092.94" fill="#FDFDFB" rx="7.675" ry="7.678"/><ellipse cx="1200.38" cy="1128.13" fill="#FDFDFB" rx="7.675" ry="7.678"/><ellipse cx="1163.34" cy="1162.54" fill="#FDFDFB" rx="7.675" ry="7.678"/><ellipse cx="1233.71" cy="1023.36" fill="#FDFDFB" rx="7.328" ry="7.331"/><ellipse cx="1372.54" cy="674.692" fill="#FDFDFB" rx="11.404" ry="11.409"/><ellipse cx="1372.54" cy="675.065" fill="#FDFDFB" rx="11.032" ry="11.036"/><ellipse cx="1407.2" cy="918.427" fill="#FDFDFB" rx="5.517" ry="5.519"/><ellipse cx="150.288" cy="638.844" fill="#FDFDFB" rx="5.517" ry="5.519"/><ellipse cx="150.292" cy="708.345" fill="#FDFDFB" rx="5.517" ry="5.519"/><ellipse cx="150.292" cy="778.904" fill="#FDFDFB" rx="5.517" ry="5.519"/><ellipse cx="150.292" cy="849.024" fill="#FDFDFB" rx="5.517" ry="5.519"/><ellipse cx="149.007" cy="918.427" fill="#FDFDFB" rx="5.517" ry="5.519"/><ellipse cx="1372.08" cy="1023.27" fill="#FDFDFB" rx="5.517" ry="5.519"/><ellipse cx="1336.74" cy="1058.48" fill="#FDFDFB" rx="5.517" ry="5.519"/><ellipse cx="1302.7" cy="1093.04" fill="#FDFDFB" rx="6.483" ry="6.485"/><ellipse cx="1337.17" cy="1127.54" fill="#FDFDFB" rx="4.32" ry="4.322"/><ellipse cx="1302.33" cy="1162.87" fill="#FDFDFB" rx="4.32" ry="4.322"/><ellipse cx="1266.91" cy="1198.36" fill="#FDFDFB" rx="4.32" ry="4.322"/><ellipse cx="1232.03" cy="1233.04" fill="#FDFDFB" rx="4.32" ry="4.322"/><ellipse cx="1197.73" cy="1267.48" fill="#FDFDFB" rx="4.32" ry="4.322"/><ellipse cx="1161.89" cy="1302.34" fill="#FDFDFB" rx="4.32" ry="4.322"/><ellipse cx="1127.08" cy="1337.47" fill="#FDFDFB" rx="4.32" ry="4.322"/><ellipse cx="917.434" cy="1407.31" fill="#FDFDFB" rx="4.32" ry="4.322"/><ellipse cx="708.371" cy="1407.31" fill="#FDFDFB" rx="4.32" ry="4.322"/><ellipse cx="638.375" cy="1407.31" fill="#FDFDFB" rx="4.32" ry="4.322"/><ellipse cx="847.544" cy="1407.31" fill="#FDFDFB" rx="5.754" ry="5.756"/><ellipse cx="777.759" cy="1407.31" fill="#FDFDFB" rx="5.754" ry="5.756"/><ellipse cx="1267.32" cy="1129.05" fill="#FDFDFB" rx="6.483" ry="6.485"/><ellipse cx="1232.46" cy="1163.47" fill="#FDFDFB" rx="6.483" ry="6.485"/><ellipse cx="1197.73" cy="1198.36" fill="#FDFDFB" rx="6.483" ry="6.485"/><ellipse cx="1162.82" cy="1233.04" fill="#FDFDFB" rx="6.483" ry="6.485"/><ellipse cx="1127.23" cy="1267.48" fill="#FDFDFB" rx="6.483" ry="6.485"/><ellipse cx="1092.91" cy="1231.2" fill="#FDFDFB" rx="6.483" ry="6.485"/><ellipse cx="1058.07" cy="1199.01" fill="#FDFDFB" rx="6.483" ry="6.485"/><ellipse cx="1126.67" cy="1198.39" fill="#FDFDFB" rx="6.483" ry="6.485"/><ellipse cx="1092.91" cy="1302.34" fill="#FDFDFB" rx="6.483" ry="6.485"/><ellipse cx="1057.4" cy="1337.17" fill="#FDFDFB" rx="6.483" ry="6.485"/><ellipse cx="953.679" cy="1371.69" fill="#FDFDFB" rx="7.562" ry="7.565"/><ellipse cx="604.856" cy="1371.69" fill="#FDFDFB" rx="7.562" ry="7.565"/><ellipse cx="848.273" cy="1198.39" fill="#FDFDFB" rx="6.483" ry="6.485"/><ellipse cx="847.717" cy="1198.39" fill="#FDFDFB" rx="9.678" ry="9.681"/><ellipse cx="1022.12" cy="1372.65" fill="#FDFDFB" rx="5.517" ry="5.519"/><ellipse cx="535.017" cy="1372.65" fill="#FDFDFB" rx="5.517" ry="5.519"/><path fill="#FDFDFB" d="M885.373 175.589a9.44 9.44 0 0 1 6.713 3.415 9.45 9.45 0 0 1 2.088 7.238 9.6 9.6 0 0 1-10.733 8.784 10.5 10.5 0 0 1-8.99-10.822 9.897 9.897 0 0 1 10.922-8.615m-211.253 0a9.453 9.453 0 0 1 8.801 10.653 9.6 9.6 0 0 1-3.492 6.685 9.6 9.6 0 0 1-7.241 2.099 10.5 10.5 0 0 1-8.99-10.822 9.897 9.897 0 0 1 10.922-8.615m141.011-.985a9.935 9.935 0 0 1 9.246 11.191 10.1 10.1 0 0 1-1.117 3.886 10.07 10.07 0 0 1-6.13 5.017 10.1 10.1 0 0 1-4.029.324 11.04 11.04 0 0 1-9.444-11.368 10.4 10.4 0 0 1 3.879-6.882 10.4 10.4 0 0 1 7.595-2.168m-69.991.002a10.25 10.25 0 0 1 9.221 7.387c.389 1.35.497 2.765.316 4.157a10.405 10.405 0 0 1-11.631 9.519 11.383 11.383 0 0 1-9.742-11.727 10.72 10.72 0 0 1 11.836-9.336"/><ellipse cx="953.679" cy="185.338" fill="#FDFDFB" rx="7.562" ry="7.565"/><ellipse cx="604.856" cy="185.338" fill="#FDFDFB" rx="7.562" ry="7.565"/><ellipse cx="1022.12" cy="186.303" fill="#FDFDFB" rx="5.517" ry="5.519"/><ellipse cx="535.017" cy="186.303" fill="#FDFDFB" rx="5.517" ry="5.519"/><path fill="#FDFDFB" d="M195.219 884.927a9.45 9.45 0 0 1-10.649 8.804 9.6 9.6 0 0 1-6.681-3.493 9.6 9.6 0 0 1-2.099-7.244A10.51 10.51 0 0 1 186.608 874a9.9 9.9 0 0 1 8.611 10.927m0-211.333a9.46 9.46 0 0 1-6.814 8.512 9.45 9.45 0 0 1-3.835.292 9.6 9.6 0 0 1-6.681-3.493 9.6 9.6 0 0 1-2.099-7.244 10.51 10.51 0 0 1 10.818-8.993 9.89 9.89 0 0 1 8.611 10.926m.986 141.065a9.94 9.94 0 0 1-7.159 8.942 9.9 9.9 0 0 1-4.028.307 10.07 10.07 0 0 1-7.019-3.67 10.1 10.1 0 0 1-2.205-7.61 11.037 11.037 0 0 1 11.364-9.447 10.4 10.4 0 0 1 6.88 3.88 10.4 10.4 0 0 1 2.167 7.598m-.003-70.018a10.25 10.25 0 0 1-3.698 7.277 10.24 10.24 0 0 1-7.842 2.263 10.4 10.4 0 0 1-7.24-3.785 10.4 10.4 0 0 1-2.274-7.85 11.387 11.387 0 0 1 11.722-9.746 10.725 10.725 0 0 1 9.332 11.841"/><ellipse cx="185.475" cy="953.258" fill="#FDFDFB" rx="7.565" ry="7.562" transform="rotate(90 185.475 953.258)"/><ellipse cx="185.475" cy="604.304" fill="#FDFDFB" rx="7.565" ry="7.562" transform="rotate(90 185.475 604.304)"/><ellipse cx="184.508" cy="1021.73" fill="#FDFDFB" rx="5.519" ry="5.517" transform="rotate(90 184.508 1021.73)"/><ellipse cx="184.508" cy="534.439" fill="#FDFDFB" rx="5.519" ry="5.517" transform="rotate(90 184.508 534.439)"/></svg>
