<?xml version="1.0" standalone="no"?>
<!DOCTYPE svg PUBLIC "-//W3C//DTD SVG 20010904//EN"
 "http://www.w3.org/TR/2001/REC-SVG-20010904/DTD/svg10.dtd">
<svg version="1.0" xmlns="http://www.w3.org/2000/svg"
 width="400.000000pt" height="400.000000pt" viewBox="0 0 400.000000 400.000000"
 preserveAspectRatio="xMidYMid meet">

<g transform="translate(0.000000,400.000000) scale(0.100000,-0.100000)"
fill="#000000" stroke="none">
<path d="M0 2000 l0 -2000 2000 0 2000 0 0 2000 0 2000 -2000 0 -2000 0 0
-2000z m2790 945 l0 -155 -392 -2 -391 -3 302 -120 c198 -79 318 -132 349
-155 61 -46 108 -116 122 -183 7 -36 10 -236 8 -623 l-3 -569 -28 -57 c-16
-33 -49 -76 -78 -102 -86 -77 -77 -76 -643 -76 l-501 0 155 155 155 155 312 0
313 0 0 475 0 475 -470 0 -470 0 0 -630 0 -630 -160 0 -160 0 0 468 0 467 155
155 c85 85 155 158 155 162 0 5 -70 8 -155 8 l-155 0 0 155 0 155 468 2 467 3
-465 156 -465 156 -3 156 -3 157 791 0 790 0 0 -155z"/>
</g>
</svg>
