<svg xmlns="http://www.w3.org/2000/svg" viewBox="0 0 128 128"><circle cx="64" cy="64" r="64" fill="#282138"/><circle cx="64" cy="64" r="59" fill="#fff"/><path fill="#5A5564" d="m104.37 26.863-3.514 3.514a49.756 49.756 0 0 1 0 67.152l3.514 3.514a54.776 54.776 0 0 0 0-74.262zm-73.91.305a49.754 49.754 0 0 1 67.15 0l3.515-3.515a54.78 54.78 0 0 0-74.262 0zm-3.293 70.396a49.754 49.754 0 0 1 0-67.116l-3.514-3.515a54.78 54.78 0 0 0 0 74.263zm70.397 3.245a49.756 49.756 0 0 1-67.151 0l-3.515 3.515a54.78 54.78 0 0 0 74.263 0z"/><path fill="#F09242" d="M86.189 52.273c-.703-7.334-7.03-9.794-15.031-10.544V31.632h-6.186v9.911H60.03v-9.911h-6.14V41.8H41.344v6.619s4.569-.082 4.499 0a3.2 3.2 0 0 1 3.514 2.718v27.835a2.17 2.17 0 0 1-.75 1.511 2.15 2.15 0 0 1-1.593.54c.082.07-4.499 0-4.499 0l-1.171 7.391h12.43v10.333h6.185v-10.18h4.944V98.7H71.1V88.485c10.45-.633 17.737-3.21 18.651-12.992.738-7.873-2.964-11.388-8.88-12.805 3.596-1.77 5.822-5.05 5.319-10.415m-8.67 22.001c0 7.685-13.168 6.807-17.362 6.807V67.444c4.195.012 17.362-1.195 17.362 6.83m-2.87-19.213c0 7.03-10.989 6.174-14.48 6.174V48.841c3.491 0 14.48-1.102 14.48 6.22"/><svg xmlns="http://www.w3.org/2000/svg" fill="none" viewBox="0 0 128 128"><path fill="#1E1C29" stroke="#fff" stroke-width="3.37" d="M62 93.999C62 76.319 76.32 62 93.999 62 111.679 62 126 76.32 126 93.999 126 111.679 111.679 126 93.999 126S62 111.679 62 93.999Z"/><path fill="#1E1C29" d="M62.953 85.136c6.02-1.736 4.918-2.147 6.19-1.736 1.272.413 23.05 41.061 23.186 41.644"/><path stroke="#fff" stroke-width="3.37" d="M62.953 85.136c6.02-1.736 4.918-2.147 6.19-1.736 1.272.413 23.05 41.061 23.186 41.644"/><path fill="#1E1C29" d="M69.164 83.73c.75.153 9.156 5.337 10.081 6.523.927 1.188 2.184 4.999 3.192 5.762s1.934.508 2.858.169 4.033-4.49 4.874-5.083 1.848-.253 2.352.679c.503.93 16.14 29.028 16.762 30.159M95.671 96.472c.93-.676 1.016-.339 1.522-.928.508-.593.678-2.028.932-2.873.255-.847 1.27-.595 1.946-.34s1.354.593 1.946 1.44c.594.842 13.792 16.308 15.232 16.986 1.436.674 1.611.526 3.258.674"/><path stroke="#fff" stroke-width="3.37" d="M69.164 83.73c.75.153 9.156 5.337 10.081 6.523.927 1.188 2.184 4.999 3.192 5.762s1.934.508 2.858.169 4.033-4.49 4.874-5.083 1.848-.253 2.352.679c.503.93 16.14 29.028 16.762 30.159M90.656 91.373l-2.388 26.028m7.403-20.929c.93-.676 1.016-.339 1.522-.928.508-.593.678-2.028.932-2.873.255-.847 1.27-.595 1.946-.34s1.354.593 1.946 1.44c.594.842 13.792 16.308 15.232 16.986 1.436.674 1.611.526 3.258.674"/></svg></svg>
