<svg xmlns="http://www.w3.org/2000/svg" viewBox="0 0 128 128"><circle cx="64" cy="64" r="64" fill="#282138"/><circle cx="64" cy="64" r="59" fill="#fff"/><path fill="#5A5564" d="m104.37 26.863-3.514 3.514a49.756 49.756 0 0 1 0 67.152l3.514 3.514a54.776 54.776 0 0 0 0-74.262zm-73.91.305a49.754 49.754 0 0 1 67.15 0l3.515-3.515a54.78 54.78 0 0 0-74.262 0zm-3.293 70.396a49.754 49.754 0 0 1 0-67.116l-3.514-3.515a54.78 54.78 0 0 0 0 74.263zm70.397 3.245a49.756 49.756 0 0 1-67.151 0l-3.515 3.515a54.78 54.78 0 0 0 74.263 0z"/><path fill="#F09242" d="M86.189 52.273c-.703-7.334-7.03-9.794-15.031-10.544V31.632h-6.186v9.911H60.03v-9.911h-6.14V41.8H41.344v6.619s4.569-.082 4.499 0a3.2 3.2 0 0 1 3.514 2.718v27.835a2.17 2.17 0 0 1-.75 1.511 2.15 2.15 0 0 1-1.593.54c.082.07-4.499 0-4.499 0l-1.171 7.391h12.43v10.333h6.185v-10.18h4.944V98.7H71.1V88.485c10.45-.633 17.737-3.21 18.651-12.992.738-7.873-2.964-11.388-8.88-12.805 3.596-1.77 5.822-5.05 5.319-10.415m-8.67 22.001c0 7.685-13.168 6.807-17.362 6.807V67.444c4.195.012 17.362-1.195 17.362 6.83m-2.87-19.213c0 7.03-10.989 6.174-14.48 6.174V48.841c3.491 0 14.48-1.102 14.48 6.22"/><svg xmlns="http://www.w3.org/2000/svg" fill="none" viewBox="0 0 128 128"><path fill="#1e1c29" stroke="#fff" stroke-width="2.53" d="M78 101.999C78 88.739 88.74 78 101.999 78 115.259 78 126 88.74 126 101.999c0 13.26-10.741 24.001-24.001 24.001S78 115.259 78 101.999Z"/><path fill="#1e1c29" d="M78.715 95.352c4.515-1.302 3.688-1.61 4.642-1.302.954.31 17.288 30.796 17.39 31.233"/><path stroke="#fff" stroke-width="2.53" d="M78.715 95.352c4.515-1.302 3.688-1.61 4.642-1.302.954.31 17.288 30.796 17.39 31.233"/><path fill="#1e1c29" d="M83.373 94.298c.562.114 6.867 4.002 7.561 4.892.695.891 1.638 3.749 2.394 4.321s1.45.381 2.143.127 3.025-3.367 3.656-3.812c.63-.445 1.386-.19 1.764.509.377.698 12.105 21.771 12.571 22.619m-13.97-22.924-1.791 19.521Zm3.761 3.824c.698-.507.762-.254 1.142-.696.381-.445.508-1.521.699-2.155.191-.635.952-.446 1.459-.255s1.016.445 1.46 1.08c.445.632 10.344 12.231 11.424 12.74 1.077.505 1.208.394 2.443.505"/><path stroke="#fff" stroke-width="2.53" d="M83.373 94.298c.562.114 6.867 4.002 7.561 4.892.695.891 1.638 3.749 2.394 4.321s1.45.381 2.143.127 3.025-3.367 3.656-3.812c.63-.445 1.386-.19 1.764.509.377.698 12.105 21.771 12.571 22.619m-13.97-22.924-1.791 19.521m5.552-15.697c.698-.507.762-.254 1.142-.696.381-.445.508-1.521.699-2.155.191-.635.952-.446 1.459-.255s1.016.445 1.46 1.08c.445.632 10.344 12.231 11.424 12.74 1.077.505 1.208.394 2.443.505"/></svg></svg>
