<svg xmlns="http://www.w3.org/2000/svg" viewBox="0 0 400 400"><circle cx="200" cy="200" r="200" fill="#2F63F9"/><path fill="#E6C040" d="M285.313 78.875C291.977 83.802 298.045 89.245 304 95l2.277 2.156C321.86 112.23 333.424 132.45 340 153v3h-4l-1.031-2.719C329.593 139.441 323.539 127.2 315 115c-17.242-1.447-17.242-1.447-36.937-1.125l-20.34-.008L242 114l4 16c1.849 8.66 2.547 17.161 3 26h-4l-1.023-6.395-1.352-8.417-1.336-8.333c-1.033-6.295-2.148-12.578-3.289-18.855h-72c-4.008 20.95-4.008 20.95-7 42h-4c.253-13.948 3.312-27.359 6-41a3935 3935 0 0 0-35.562-.625l-20.004-.352L89 115c-9.206 13.151-15.747 25.859-21 41h-4c6.14-31.164 29.674-60.338 55.578-77.832 51.244-32.467 114.72-34.452 165.735.707"/><path fill="#E4BF42" d="M68 250h4l1.504 3.078c3.796 7.694 7.704 15.226 12.148 22.567C87 278 87 278 88 281l73-1-5-26v-4h4c2.064 10.32 4.03 20.66 6 31h72a2429 2429 0 0 0 3.625-22.25c.26-1.655.52-3.31.79-5.016.192-1.232.386-2.464.585-3.734h5c-.718 6.355-1.802 12.593-3 18.875l-1.062 5.617C243 279 243 279 242 281c11.978.21 23.958.315 35.938.375 6.67.07 13.341.14 20.214.21 5.56-.522 11.12-1.046 16.848-1.585 7.326-11.262 7.326-11.262 13.563-22.875.66-1.359 1.322-2.717 2.003-4.117L332 250h4c-3.789 18.943-18.001 35.38-31 49l-2.434 2.629c-23.164 24.306-58.561 39.352-91.882 40.61-24.384.249-47.63-2.263-69.684-13.239l-3.762-1.828C117.603 317.256 100.278 303.6 87 286l-1.828-2.422C68 259.908 68 259.908 68 250"/><path fill="#EFC537" d="M353.379 176.25c5.929 3.96 10.39 10.217 12.262 17.11 1.63 11.976.552 21.35-6.141 31.39-6.182 5.74-13.94 9.944-22.5 10.25l-2.738.148c-10.555.35-18.653-1.835-27.262-8.148-7.793-7.646-9.168-14.393-9.5-24.937.174-8.776 1.441-14.519 7.297-21.075 13.259-12.649 32.852-13.003 48.582-4.738"/><path fill="#ECC33A" d="M171 172c19 0 19 0 24.04 4.102l3.585 5.523 3.883 5.777L206 193l2.992 4.441C215 206.416 215 206.416 215 209h2l-.496-3.59c-.622-6.68-.598-13.264-.566-19.972l.027-7.63L216 172h18v62c-19 0-19 0-23.2-2.895l-2.488-3.917-2.8-4.153c-.83-1.331-1.658-2.663-2.512-4.035q-2.164-2.956-4.375-5.875c-3.345-4.628-6.45-9.363-9.625-14.125v35h-18z"/><path fill="#EDC439" d="M111 172h55v16h-38v7h36v16h-36v7h38v16h-55z"/><path fill="#3264F6" d="M93 285h70c1.608 4.287 3.208 8.576 4.762 12.883 5.25 14.29 10.741 26.964 21.238 38.117v1c-15.58.535-30.947-4.59-45-11l-3.54-1.586C122.569 315.964 105.225 302.646 93 287z"/><path fill="#F0C536" d="M41 172h17v23h29v-23h17v62H87v-23H58v23H41z"/><path fill="#3264F6" d="m256.41 284.902 19.652.036 19.66.027L311 285c-12.154 24.307-44.497 39.587-69 48-8.918 2.687-17.716 3.596-27 4l2.625-3.375c9.968-13.376 16.199-28.277 21.21-44.117 2.923-8.807 3.572-4.517 17.575-4.606"/><path fill="#3164F7" d="m189 58-2.562 3.313C175.188 76.443 169.295 92.163 163 110H93c11.659-23.318 42.319-38.547 65.563-46.875C168.357 60.045 178.72 58 189 58m26 0c33.573.125 65.35 19.282 88.5 42.125 7.5 7.567 7.5 7.567 7.5 9.875h-70c-3-8-3-8-4.36-11.79-4.769-13.155-10.12-24.851-18.82-35.882C216 60 216 60 215 58"/><path fill="#3164F7" d="M205 57c14.524 6.585 21.35 22.722 26.836 36.668C236 105.134 236 105.134 236 110h-69c5.23-19.177 12.34-39.779 29-52 3.228-1.614 5.406-1.4 9-1"/><path fill="#3264F6" d="M167 285h69c-2.482 17.377-10.92 37.449-24.492 49.148-4.613 3.406-7.842 4.607-13.508 3.852-18.275-11.422-25.345-33.208-31-53"/><path fill="#F0C536" d="M240 172h17v46h36v16h-53z"/><path fill="#3264F6" d="m330.75 187.75 4.234-.078c4.21.344 6.528.982 10.016 3.328 4.333 5.348 3.6 11.457 3 18-1.21 3.693-2.054 5.266-5.086 7.617-3.894 1.848-7.054 1.853-11.351 1.883-1.464.03-2.927.062-4.434.094-4.856-.699-6.746-2.122-10.129-5.594-1.577-3.155-1.292-6.25-1.375-9.75l-.148-4.234c.627-4.815 2.097-6.662 5.523-10.016 3.153-1.577 6.252-1.212 9.75-1.25"/></svg>
