<svg xmlns="http://www.w3.org/2000/svg" viewBox="0 0 1600 1600"><path fill="#040404" d="M627.939 334.317c-14.901 4.176-26.014 22.661-31.847 52.975-3.894 20.235-4.595 30.91-4.51 68.708.088 39.715 1.131 55.866 6.619 102.5 6.293 53.476 3.862 94.582-8.841 149.5-26.374 114.015-94.603 254.357-203.123 417.807-19.655 29.604-23.814 37.513-21.562 41 1.593 2.465 7.566 1.961 12.07-1.02 2.065-1.366 14.278-10.914 27.14-21.216C574.092 1008.236 751.805 920 889.5 903.459c18.568-2.23 49.349-2.967 65.5-1.567 18.005 1.56 19.854 1.956 21.602 4.624 2.878 4.391 1.037 6.852-10.949 14.637-60.346 39.192-118.566 86.077-150.525 121.217-36.281 39.894-47.889 62.922-56.022 111.145-4.447 26.37-7.152 54.462-7.426 77.142-.16 13.175.055 15.35 1.908 19.354 2.782 6.011 7.705 10.762 14.406 13.906l5.506 2.583 232.435.26c253.799.285 239.026.603 248.014-5.345 7.768-5.141 11.893-12.881 12.743-23.915.659-8.547-1.237-47.879-3.23-67-17.196-164.977-96.985-334.068-236.813-501.862C939.73 564.335 830.92 463.603 717.031 382.005c-20.917-14.987-63.072-42.679-69.245-45.489-6.674-3.037-13.973-3.846-19.847-2.199"/><path fill="#a38bfb" fill-rule="evenodd" d="M757 .66c-36.103 2.495-58.18 4.853-83 8.863-150.106 24.252-285.759 87.892-401.5 188.36-27.308 23.704-72.82 71.289-97.19 101.617C78.987 419.373 18.987 566.127 3.596 719.5.524 750.112-.265 772.456.303 812.786.964 859.722 3.112 886.076 9.534 926c24.089 149.763 87.892 285.771 188.349 401.5 23.704 27.308 71.289 72.82 101.617 97.19 119.873 96.323 266.627 156.323 420 171.714 30.612 3.072 52.956 3.861 93.286 3.293 46.936-.661 73.29-2.809 113.214-9.231 149.763-24.089 285.771-87.892 401.5-188.349 16.504-14.326 63.576-61.705 77.61-78.117 71.285-83.362 120.679-170.19 154.451-271.5 21.591-64.772 35.946-138.398 39.088-200.482.365-7.201 1.043-13.327 1.507-13.614s.844-18.072.844-39.522c0-25.745-.34-38.79-1-38.382-.626.387-1.002-1.741-1.005-5.691-.011-14.077-4.24-54.145-8.529-80.809-24.089-149.763-87.892-285.771-188.349-401.5-14.326-16.504-61.705-63.576-78.117-77.61-53.665-45.89-106.028-80.864-166.116-110.95-96.276-48.206-199.588-75.896-309.367-82.918C834.306.113 768.672-.146 757 .66M627.939 334.317c-14.901 4.176-26.014 22.661-31.847 52.975-3.894 20.235-4.595 30.91-4.51 68.708.088 39.715 1.131 55.866 6.619 102.5 6.293 53.476 3.862 94.582-8.841 149.5-26.374 114.015-94.603 254.357-203.123 417.807-19.655 29.604-23.814 37.513-21.562 41 1.593 2.465 7.566 1.961 12.07-1.02 2.065-1.366 14.278-10.914 27.14-21.216C574.092 1008.236 751.805 920 889.5 903.459c18.568-2.23 49.349-2.967 65.5-1.567 18.005 1.56 19.854 1.956 21.602 4.624 2.878 4.391 1.037 6.852-10.949 14.637-60.346 39.192-118.566 86.077-150.525 121.217-36.281 39.894-47.889 62.922-56.022 111.145-4.447 26.37-7.152 54.462-7.426 77.142-.16 13.175.055 15.35 1.908 19.354 2.782 6.011 7.705 10.762 14.406 13.906l5.506 2.583 232.435.26c253.799.285 239.026.603 248.014-5.345 7.768-5.141 11.893-12.881 12.743-23.915.659-8.547-1.237-47.879-3.23-67-17.196-164.977-96.985-334.068-236.813-501.862C939.73 564.335 830.92 463.603 717.031 382.005c-20.917-14.987-63.072-42.679-69.245-45.489-6.674-3.037-13.973-3.846-19.847-2.199M.455 800c0 21.725.132 30.612.294 19.75s.161-28.638 0-39.5C.587 769.388.455 778.275.455 800"/></svg>
