<svg xmlns="http://www.w3.org/2000/svg" viewBox="0 0 32 32"><circle cx="16" cy="16" r="16"/><path fill="url(#a)" fill-rule="evenodd" d="M26.864 11.895a5.18 5.18 0 0 1-1.36 3.555.36.36 0 0 0-.09.3c.583 3.276-.276 5.97-2.044 7.89-1.857 2.015-4.581 3.018-7.224 3.073h-.095c-2.642-.055-5.366-1.059-7.224-3.074-1.767-1.919-2.626-4.613-2.044-7.889a.36.36 0 0 0-.09-.3 5.18 5.18 0 0 1-.84-5.752c.933-1.93 3.293-3.437 5.709-2.933q.12.025.292.075c.359.106.69.287.98.52.646.515 1.832.86 3.188.86h.154c1.356 0 2.542-.344 3.187-.86.291-.232.622-.414.98-.52a4 4 0 0 1 .293-.075c2.416-.503 4.776 1.004 5.709 2.933.335.687.511 1.44.519 2.197M11.008 9.942c.309.057.604.174.872.342.445.28.345.892-.081 1.198l-2.18 1.559c-.426.306-1.048.21-1.182-.293a2.4 2.4 0 0 1-.063-.92c.04-.307.14-.597.292-.857.153-.259.358-.485.603-.658s.525-.296.822-.36a2.3 2.3 0 0 1 .917-.011m11.772.37a2.2 2.2 0 0 1 .896 1.515c.04.303.018.617-.063.92-.135.504-.756.6-1.183.294l-2.179-1.559c-.427-.306-.527-.918-.082-1.198a2.5 2.5 0 0 1 .872-.342 2.3 2.3 0 0 1 .917.01c.298.062.577.187.822.36M16.908 19.4a2.54 2.54 0 0 0-1.618 0c-.29.099-.542.252-.526.482.029.353.59.957.995 1.082.248.075.404.07.68 0 .406-.104.97-.729.996-1.082.018-.23-.237-.383-.527-.482m-3.312-1.607c.206.119.387.28.532.471.145.192.253.413.316.651.106.395-.282.693-.693.646l-1.045-.12-1.039-.116c-.41-.047-.716-.425-.524-.786a1.9 1.9 0 0 1 .459-.562c.187-.156.4-.27.627-.34a1.73 1.73 0 0 1 1.367.156m6.965.147c-.187-.155-.4-.27-.627-.34a1.73 1.73 0 0 0-1.367.156c-.206.12-.387.28-.532.472a1.9 1.9 0 0 0-.316.651c-.106.394.281.692.69.646l1.046-.12 1.04-.116c.412-.047.717-.425.525-.786a2 2 0 0 0-.459-.563"/><defs><linearGradient id="a" x1="39.803" x2="-6.432" y1="16.839" y2="17.535" gradientUnits="userSpaceOnUse"><stop stop-color="#F8F29C"/><stop offset=".165" stop-color="#F6DB2A"/><stop offset=".333" stop-color="#F4A435"/><stop offset=".55" stop-color="#E85A46"/><stop offset=".699" stop-color="#B93483"/><stop offset=".867" stop-color="#502B6E"/><stop offset="1" stop-color="#2A2136"/></linearGradient></defs></svg>
