<svg xmlns="http://www.w3.org/2000/svg" fill="none" viewBox="0 0 32 32"><circle cx="16" cy="16" r="16" fill="#000"/><g clip-path="url(#a)"><path fill="url(#b)" d="M10.589 7.095c0-.482.391-.873.873-.873h1.747c.482 0 .874.391.874.873v1.74c0 .482.39.872.873.872h1.728a.873.873 0 0 0 .873-.873V7.095c0-.482.391-.873.873-.873h1.747c.482 0 .873.391.873.873v1.747a.873.873 0 0 1-.873.873h-1.74a.873.873 0 0 0-.873.873v1.74a.873.873 0 0 1-.873.872h-1.747a.873.873 0 0 1-.874-.873v-1.739a.873.873 0 0 0-.873-.873h-1.74a.873.873 0 0 1-.873-.873V7.095zm-.873 11.349v1.74a.873.873 0 0 1-.873.872H7.095a.873.873 0 0 1-.873-.873v-1.747c0-.482.391-.873.873-.873h1.74a.873.873 0 0 0 .873-.873v-1.728a.873.873 0 0 0-.873-.873h-1.74a.873.873 0 0 1-.873-.873V11.47c0-.483.391-.873.873-.873h1.748c.482 0 .873.39.873.873v1.739c0 .482.39.873.873.873h1.74c.482 0 .873.39.873.873V16.7a.873.873 0 0 1-.873.873h-1.74a.873.873 0 0 0-.873.873zm11.34 6.105a.873.873 0 0 1-.874.873h-1.747a.873.873 0 0 1-.873-.873v-1.74a.873.873 0 0 0-.873-.872H14.96a.873.873 0 0 0-.873.873v1.74a.873.873 0 0 1-.873.872h-1.747a.873.873 0 0 1-.873-.873v-1.747c0-.482.39-.873.873-.873h1.74a.873.873 0 0 0 .872-.873v-1.739c0-.482.392-.873.874-.873H16.7c.482 0 .873.39.873.873v1.74c0 .481.391.872.873.872h1.74c.482 0 .873.391.873.873v1.747zm4.366-11.337a.873.873 0 0 1-.873.873h-1.74a.873.873 0 0 0-.873.873v1.728c0 .483.391.874.873.874h1.74c.482 0 .873.39.873.873v1.746a.873.873 0 0 1-.873.873h-1.747a.873.873 0 0 1-.873-.873V18.44a.873.873 0 0 0-.873-.873h-1.74a.873.873 0 0 1-.873-.873v-1.747c0-.482.391-.873.874-.873h1.74a.873.873 0 0 0 .872-.873v-1.74c0-.481.391-.872.874-.872h1.746c.482 0 .873.39.873.873z"/><circle cx="16" cy="16" r="15.556" stroke="url(#c)" stroke-width=".889"/></g><defs><linearGradient id="b" x1="36.96" x2="-4.271" y1="15.966" y2="16.544" gradientUnits="userSpaceOnUse"><stop stop-color="#F8F29C"/><stop offset=".165" stop-color="#F6DB2A"/><stop offset=".333" stop-color="#F4A435"/><stop offset=".55" stop-color="#E85A46"/><stop offset=".699" stop-color="#B93483"/><stop offset=".867" stop-color="#502B6E"/><stop offset="1" stop-color="#2A2136"/></linearGradient><linearGradient id="c" x1="51.23" x2="-17.489" y1="16.239" y2="17.202" gradientUnits="userSpaceOnUse"><stop stop-color="#F8F29C"/><stop offset=".165" stop-color="#F6DB2A"/><stop offset=".333" stop-color="#F4A435"/><stop offset=".55" stop-color="#E85A46"/><stop offset=".699" stop-color="#B93483"/><stop offset=".867" stop-color="#502B6E"/><stop offset="1" stop-color="#2A2136"/></linearGradient></defs></svg>
