<svg xmlns="http://www.w3.org/2000/svg" viewBox="0 0 128 128"><path fill="#FED955" d="M21.325 42.675H32V53.35H21.325zm0 21.325H32v10.675H21.325z"/><path fill="#FED955" d="M21.325 53.325H32V64H21.325zm0 21.35H32V85.35H21.325zM64 21.325h10.675V32H64zM64 96h10.675v10.675H64zm10.675-74.675H85.35V32H74.675z"/><path fill="#9695F8" d="M85.325 21.325H96V32H85.325zm-53.325 0h10.675V32H32zm64 64h10.675V96H96zm-74.675 0H32V96H21.325z"/><path fill="#9695F8" d="M74.675 10.675H85.35V21.35H74.675z"/><path fill="#5552FD" d="M74.675 0H85.35v10.675H74.675zm0 117.325H85.35V128H74.675z"/><path fill="#9695F8" d="M74.675 106.675H85.35v10.675H74.675zm-21.35-96H64V21.35H53.325z"/><path fill="#5552FD" d="M53.325 0H64v10.675H53.325zm0 117.325H64V128H53.325z"/><path fill="#9695F8" d="M53.325 106.675H64v10.675H53.325zm10.675-96h10.675V21.35H64z"/><path fill="#5552FD" d="M64 0h10.675v10.675H64zm0 117.325h10.675V128H64z"/><path fill="#9695F8" d="M64 106.675h10.675v10.675H64zm-21.325-96H53.35V21.35H42.675z"/><path fill="#5552FD" d="M42.675 0H53.35v10.675H42.675zm0 117.325H53.35V128H42.675z"/><path fill="#9695F8" d="M42.675 106.675H53.35v10.675H42.675zM96 32h10.675v10.675H96zm-74.675 0H32v10.675H21.325zm64 64H96v10.675H85.325zM32 96h10.675v10.675H32zm74.675-53.325h10.675V53.35h-10.675zm-96 0H21.35V53.35H10.675z"/><path fill="#5552FD" d="M0 42.675h10.675V53.35H0zM10.675 32H21.35v10.675H10.675zm96 0h10.675v10.675h-10.675zm-21.35 74.675H96v10.675H85.325zm-74.65-21.35H21.35V96H10.675zm10.65-64H32V32H21.325zm74.675 0h10.675V32H96zM96 96h10.675v10.675H96zm-74.675 0H32v10.675H21.325zM32 10.675h10.675V21.35H32zm53.325 0H96V21.35H85.325zm21.35 74.65h10.675V96h-10.675zM32 106.675h10.675v10.675H32zm85.325-64H128V53.35h-10.675z"/><path fill="#9695F8" d="M106.675 53.325h10.675V64h-10.675zm-96 0H21.35V64H10.675z"/><path fill="#5552FD" d="M0 53.325h10.675V64H0zm117.325 0H128V64h-10.675z"/><path fill="#9695F8" d="M106.675 64h10.675v10.675h-10.675zm-96 0H21.35v10.675H10.675z"/><path fill="#5552FD" d="M0 64h10.675v10.675H0zm117.325 0H128v10.675h-10.675z"/><path fill="#9695F8" d="M106.675 74.675h10.675V85.35h-10.675zm-96 0H21.35V85.35H10.675z"/><path fill="#5552FD" d="M0 74.675h10.675V85.35H0zm117.325 0H128V85.35h-10.675z"/><path fill="#FED955" d="M74.675 96H85.35v10.675H74.675zM64 42.675h10.675V53.35H64zM64 64h10.675v10.675H64zm0 10.675h10.675V85.35H64zM64 32h10.675v10.675H64z"/><path fill="#FED955" d="M64 85.325h10.675V96H64zM42.675 64H53.35v10.675H42.675zm0-10.675H53.35V64H42.675zm0 21.35H53.35V85.35H42.675zm0-42.675H53.35v10.675H42.675z"/><path fill="#FED955" d="M42.675 85.325H53.35V96H42.675zm32-21.325H85.35v10.675H74.675zm0-10.675H85.35V64H74.675zm0 21.35H85.35V85.35H74.675zm0-42.675H85.35v10.675H74.675z"/><path fill="#FED955" d="M74.675 85.325H85.35V96H74.675zm-21.35-64H64V32H53.325zm0 74.675H64v10.675H53.325z"/><path fill="#FED955" d="M42.675 21.325H53.35V32H42.675zm0 74.675H53.35v10.675H42.675zm10.65-53.325H64V53.35H53.325zm0 21.325H64v10.675H53.325z"/><path fill="#5552FD" d="M42.675 42.675H53.35V53.35H42.675zM64 53.325h10.675V64H64zm21.325-10.65H96V53.35H85.325zm0 21.325H96v10.675H85.325z"/><path fill="#5552FD" d="M85.325 53.325H96V64H85.325zm0 21.35H96V85.35H85.325zm0-42.675H96v10.675H85.325z"/><path fill="#5552FD" d="M85.325 85.325H96V96H85.325zM32 42.675h10.675V53.35H32zM32 64h10.675v10.675H32z"/><path fill="#5552FD" d="M32 53.325h10.675V64H32zm0 21.35h10.675V85.35H32zM32 32h10.675v10.675H32z"/><path fill="#5552FD" d="M32 85.325h10.675V96H32zm42.675-42.65H85.35V53.35H74.675zm-21.35 10.65H64V64H53.325z"/><path fill="#FED955" d="M53.325 74.675H64V85.35H53.325zm0-42.675H64v10.675H53.325z"/><path fill="#FED955" d="M53.325 85.325H64V96H53.325zM96 42.675h10.675V53.35H96zM96 64h10.675v10.675H96z"/><path fill="#FED955" d="M96 53.325h10.675V64H96zm0 21.35h10.675V85.35H96z"/></svg>
