<svg width="310" height="310" viewBox="0 0 310 310" fill="none" xmlns="http://www.w3.org/2000/svg">
<path d="M83.9583 137.24H101.719V119.479H83.9583V137.24Z" fill="#FED955"/>
<path d="M83.9583 172.76H101.719V155H83.9583V172.76Z" fill="#FED955"/>
<path d="M83.9583 155H101.719V137.24H83.9583V155Z" fill="#FED955"/>
<path d="M83.9583 190.521H101.719V172.76H83.9583V190.521Z" fill="#FED955"/>
<path d="M155 101.719H172.76V83.9584H155V101.719Z" fill="#FED955"/>
<path d="M155 208.281L172.76 208.281L172.76 226.041L155 226.041L155 208.281Z" fill="#FED955"/>
<path d="M172.76 101.719H190.521V83.9584H172.76V101.719Z" fill="#FED955"/>
<path d="M190.521 101.719H208.281V83.9584H190.521V101.719Z" fill="#9695F8"/>
<path d="M119.479 101.719L101.719 101.719L101.719 83.9584L119.479 83.9584L119.479 101.719Z" fill="#9695F8"/>
<path d="M226.041 208.281L208.281 208.281L208.281 190.521L226.041 190.521L226.041 208.281Z" fill="#9695F8"/>
<path d="M83.9583 208.281H101.719V190.521H83.9583V208.281Z" fill="#9695F8"/>
<path d="M172.76 83.9583H190.521V66.1979H172.76V83.9583Z" fill="#9695F8"/>
<path d="M172.76 66.1978H190.521V48.4374H172.76V66.1978Z" fill="#5552FD"/>
<path d="M172.76 261.562H190.521V243.802H172.76V261.562Z" fill="#5552FD"/>
<path d="M172.76 243.802H190.521V226.042H172.76V243.802Z" fill="#9695F8"/>
<path d="M137.24 83.9583H155V66.1979H137.24V83.9583Z" fill="#9695F8"/>
<path d="M137.24 66.1978H155V48.4374H137.24V66.1978Z" fill="#5552FD"/>
<path d="M137.24 261.562H155V243.802H137.24V261.562Z" fill="#5552FD"/>
<path d="M137.24 243.802H155V226.042H137.24V243.802Z" fill="#9695F8"/>
<path d="M155 83.9583H172.76V66.1979H155V83.9583Z" fill="#9695F8"/>
<path d="M155 66.1978H172.76V48.4374H155V66.1978Z" fill="#5552FD"/>
<path d="M155 261.562H172.76V243.802H155V261.562Z" fill="#5552FD"/>
<path d="M155 243.802H172.76V226.042H155V243.802Z" fill="#9695F8"/>
<path d="M119.479 83.9583H137.239V66.1979H119.479V83.9583Z" fill="#9695F8"/>
<path d="M119.479 66.1978H137.239V48.4374H119.479V66.1978Z" fill="#5552FD"/>
<path d="M119.479 261.562H137.239V243.802H119.479V261.562Z" fill="#5552FD"/>
<path d="M119.479 243.802H137.239V226.042H119.479V243.802Z" fill="#9695F8"/>
<path d="M208.281 119.479H226.041V101.719H208.281V119.479Z" fill="#9695F8"/>
<path d="M101.719 119.479L83.9583 119.479L83.9583 101.719L101.719 101.719L101.719 119.479Z" fill="#9695F8"/>
<path d="M208.281 226.041L190.521 226.041L190.521 208.281L208.281 208.281L208.281 226.041Z" fill="#9695F8"/>
<path d="M101.719 226.041H119.479V208.281H101.719V226.041Z" fill="#9695F8"/>
<path d="M226.041 137.24H243.802V119.479H226.041V137.24Z" fill="#9695F8"/>
<path d="M66.1979 137.24H83.9583V119.479H66.1979V137.24Z" fill="#9695F8"/>
<path d="M48.4374 137.24H66.1978V119.479H48.4374V137.24Z" fill="#5552FD"/>
<path d="M66.1979 119.479H83.9583V101.719H66.1979V119.479Z" fill="#5552FD"/>
<path d="M243.802 119.479L226.041 119.479L226.041 101.719L243.802 101.719L243.802 119.479Z" fill="#5552FD"/>
<path d="M190.521 243.802H208.281V226.042H190.521V243.802Z" fill="#5552FD"/>
<path d="M66.1978 190.521V208.281H83.9582V190.521H66.1978Z" fill="#5552FD"/>
<path d="M83.9583 101.719H101.719V83.9584H83.9583V101.719Z" fill="#5552FD"/>
<path d="M226.041 101.719L208.281 101.719L208.281 83.9584L226.041 83.9584L226.041 101.719Z" fill="#5552FD"/>
<path d="M208.281 226.041H226.041V208.281H208.281V226.041Z" fill="#5552FD"/>
<path d="M83.9583 208.281V226.041H101.719V208.281H83.9583Z" fill="#5552FD"/>
<path d="M101.719 83.9583H119.479V66.1979H101.719V83.9583Z" fill="#5552FD"/>
<path d="M208.281 83.9583L190.521 83.9583L190.521 66.1979L208.281 66.1979L208.281 83.9583Z" fill="#5552FD"/>
<path d="M226.041 208.281H243.802V190.521H226.041V208.281Z" fill="#5552FD"/>
<path d="M101.719 226.042V243.802H119.479V226.042H101.719Z" fill="#5552FD"/>
<path d="M243.802 137.24H261.562V119.479H243.802V137.24Z" fill="#5552FD"/>
<path d="M226.041 155H243.802V137.24H226.041V155Z" fill="#9695F8"/>
<path d="M66.1979 155H83.9583V137.24H66.1979V155Z" fill="#9695F8"/>
<path d="M48.4374 155H66.1978V137.24H48.4374V155Z" fill="#5552FD"/>
<path d="M243.802 155H261.562V137.24H243.802V155Z" fill="#5552FD"/>
<path d="M226.041 172.76H243.802V155H226.041V172.76Z" fill="#9695F8"/>
<path d="M66.1979 172.76H83.9583V155H66.1979V172.76Z" fill="#9695F8"/>
<path d="M48.4374 172.76H66.1978V155H48.4374V172.76Z" fill="#5552FD"/>
<path d="M243.802 172.76H261.562V155H243.802V172.76Z" fill="#5552FD"/>
<path d="M226.041 190.521H243.802V172.76H226.041V190.521Z" fill="#9695F8"/>
<path d="M66.1979 190.521H83.9583V172.76H66.1979V190.521Z" fill="#9695F8"/>
<path d="M48.4374 190.521H66.1978V172.76H48.4374V190.521Z" fill="#5552FD"/>
<path d="M243.802 190.521H261.562V172.76H243.802V190.521Z" fill="#5552FD"/>
<path d="M172.76 208.281L190.521 208.281L190.521 226.041L172.76 226.041L172.76 208.281Z" fill="#FED955"/>
<path d="M155 137.24H172.76V119.479H155V137.24Z" fill="#FED955"/>
<path d="M155 172.76H172.76V155H155V172.76Z" fill="#FED955"/>
<path d="M155 190.521H172.76V172.76H155V190.521Z" fill="#FED955"/>
<path d="M155 119.479H172.76V101.719H155V119.479Z" fill="#FED955"/>
<path d="M155 190.521L172.76 190.521L172.76 208.281L155 208.281L155 190.521Z" fill="#FED955"/>
<path d="M119.479 172.76H137.239V155H119.479V172.76Z" fill="#FED955"/>
<path d="M119.479 155H137.239V137.24H119.479V155Z" fill="#FED955"/>
<path d="M119.479 190.521H137.239V172.76H119.479V190.521Z" fill="#FED955"/>
<path d="M119.479 119.479H137.239V101.719H119.479V119.479Z" fill="#FED955"/>
<path d="M119.479 190.521L137.239 190.521L137.239 208.281L119.479 208.281L119.479 190.521Z" fill="#FED955"/>
<path d="M172.76 172.76H190.521V155H172.76V172.76Z" fill="#FED955"/>
<path d="M172.76 155H190.521V137.24H172.76V155Z" fill="#FED955"/>
<path d="M172.76 190.521H190.521V172.76H172.76V190.521Z" fill="#FED955"/>
<path d="M172.76 119.479H190.521V101.719H172.76V119.479Z" fill="#FED955"/>
<path d="M172.76 190.521L190.521 190.521L190.521 208.281L172.76 208.281L172.76 190.521Z" fill="#FED955"/>
<path d="M137.24 101.719H155V83.9584H137.24V101.719Z" fill="#FED955"/>
<path d="M137.24 208.281L155 208.281L155 226.041L137.24 226.041L137.24 208.281Z" fill="#FED955"/>
<path d="M119.479 101.719H137.239V83.9584H119.479V101.719Z" fill="#FED955"/>
<path d="M119.479 208.281L137.239 208.281L137.239 226.041L119.479 226.041L119.479 208.281Z" fill="#FED955"/>
<path d="M137.24 137.24H155V119.479H137.24V137.24Z" fill="#FED955"/>
<path d="M137.24 172.76H155V155H137.24V172.76Z" fill="#FED955"/>
<path d="M119.479 137.24H137.239V119.479H119.479V137.24Z" fill="#5552FD"/>
<path d="M155 155H172.76V137.24H155V155Z" fill="#5552FD"/>
<path d="M190.521 137.24H208.281V119.479H190.521V137.24Z" fill="#5552FD"/>
<path d="M190.521 172.76H208.281V155H190.521V172.76Z" fill="#5552FD"/>
<path d="M190.521 155H208.281V137.24H190.521V155Z" fill="#5552FD"/>
<path d="M190.521 190.521H208.281V172.76H190.521V190.521Z" fill="#5552FD"/>
<path d="M190.521 119.479H208.281V101.719H190.521V119.479Z" fill="#5552FD"/>
<path d="M190.521 190.521L208.281 190.521L208.281 208.281L190.521 208.281L190.521 190.521Z" fill="#5552FD"/>
<path d="M101.719 137.24H119.479V119.479H101.719V137.24Z" fill="#5552FD"/>
<path d="M101.719 172.76H119.479V155H101.719V172.76Z" fill="#5552FD"/>
<path d="M101.719 155H119.479V137.24H101.719V155Z" fill="#5552FD"/>
<path d="M101.719 190.521H119.479V172.76H101.719V190.521Z" fill="#5552FD"/>
<path d="M101.719 119.479H119.479V101.719H101.719V119.479Z" fill="#5552FD"/>
<path d="M101.719 190.521L119.479 190.521L119.479 208.281L101.719 208.281L101.719 190.521Z" fill="#5552FD"/>
<path d="M172.76 137.24H190.521V119.479H172.76V137.24Z" fill="#5552FD"/>
<path d="M137.24 155H155V137.24H137.24V155Z" fill="#5552FD"/>
<path d="M137.24 190.521H155V172.76H137.24V190.521Z" fill="#FED955"/>
<path d="M137.24 119.479H155V101.719H137.24V119.479Z" fill="#FED955"/>
<path d="M137.24 190.521L155 190.521L155 208.281L137.24 208.281L137.24 190.521Z" fill="#FED955"/>
<path d="M208.281 137.24H226.041V119.479H208.281V137.24Z" fill="#FED955"/>
<path d="M208.281 172.76H226.041V155H208.281V172.76Z" fill="#FED955"/>
<path d="M208.281 155H226.041V137.24H208.281V155Z" fill="#FED955"/>
<path d="M208.281 190.521H226.041V172.76H208.281V190.521Z" fill="#FED955"/>
</svg>
