<svg xmlns="http://www.w3.org/2000/svg" viewBox="0 0 500 500"><style>.st0{fill:#fed955}.st1{fill:#9695f8}.st2{fill:#5552fd}</style><path d="M83.3 166.7H125v41.7H83.3zm0 83.3H125v41.7H83.3z" class="st0"/><path d="M83.3 208.3H125V250H83.3zm0 83.4H125v41.7H83.3zM250 83.3h41.7V125H250zm0 291.7h41.7v41.7H250zm41.7-291.7h41.7V125h-41.7z" class="st0"/><path d="M333.3 83.3H375V125h-41.7zm-208.3 0h41.7V125H125zm250 250h41.7V375H375zm-291.7 0H125V375H83.3z" class="st1"/><path d="M291.7 41.7h41.7v41.7h-41.7z" class="st1"/><path d="M291.7 0h41.7v41.7h-41.7zm0 458.3h41.7V500h-41.7z" class="st2"/><path d="M291.7 416.7h41.7v41.7h-41.7zm-83.4-375H250v41.7h-41.7z" class="st1"/><path d="M208.3 0H250v41.7h-41.7zm0 458.3H250V500h-41.7z" class="st2"/><path d="M208.3 416.7H250v41.7h-41.7zm41.7-375h41.7v41.7H250z" class="st1"/><path d="M250 0h41.7v41.7H250zm0 458.3h41.7V500H250z" class="st2"/><path d="M250 416.7h41.7v41.7H250zm-83.3-375h41.7v41.7h-41.7z" class="st1"/><path d="M166.7 0h41.7v41.7h-41.7zm0 458.3h41.7V500h-41.7z" class="st2"/><path d="M166.7 416.7h41.7v41.7h-41.7zM375 125h41.7v41.7H375zm-291.7 0H125v41.7H83.3zm250 250H375v41.7h-41.7zM125 375h41.7v41.7H125zm291.7-208.3h41.7v41.7h-41.7zm-375 0h41.7v41.7H41.7z" class="st1"/><path d="M0 166.7h41.7v41.7H0zM41.7 125h41.7v41.7H41.7zm375 0h41.7v41.7h-41.7zm-83.4 291.7H375v41.7h-41.7zM41.7 333.3h41.7V375H41.7zm41.6-250H125V125H83.3zm291.7 0h41.7V125H375zm0 291.7h41.7v41.7H375zm-291.7 0H125v41.7H83.3zM125 41.7h41.7v41.7H125zm208.3 0H375v41.7h-41.7zm83.4 291.6h41.7V375h-41.7zM125 416.7h41.7v41.7H125zm333.3-250H500v41.7h-41.7z" class="st2"/><path d="M416.7 208.3h41.7V250h-41.7zm-375 0h41.7V250H41.7z" class="st1"/><path d="M0 208.3h41.7V250H0zm458.3 0H500V250h-41.7z" class="st2"/><path d="M416.7 250h41.7v41.7h-41.7zm-375 0h41.7v41.7H41.7z" class="st1"/><path d="M0 250h41.7v41.7H0zm458.3 0H500v41.7h-41.7z" class="st2"/><path d="M416.7 291.7h41.7v41.7h-41.7zm-375 0h41.7v41.7H41.7z" class="st1"/><path d="M0 291.7h41.7v41.7H0zm458.3 0H500v41.7h-41.7z" class="st2"/><path d="M291.7 375h41.7v41.7h-41.7zM250 166.7h41.7v41.7H250zm0 83.3h41.7v41.7H250zm0 41.7h41.7v41.7H250zm0-166.7h41.7v41.7H250z" class="st0"/><path d="M250 333.3h41.7V375H250zM166.7 250h41.7v41.7h-41.7zm0-41.7h41.7V250h-41.7zm0 83.4h41.7v41.7h-41.7zm0-166.7h41.7v41.7h-41.7z" class="st0"/><path d="M166.7 333.3h41.7V375h-41.7zm125-83.3h41.7v41.7h-41.7zm0-41.7h41.7V250h-41.7zm0 83.4h41.7v41.7h-41.7zm0-166.7h41.7v41.7h-41.7z" class="st0"/><path d="M291.7 333.3h41.7V375h-41.7zm-83.4-250H250V125h-41.7zm0 291.7H250v41.7h-41.7z" class="st0"/><path d="M166.7 83.3h41.7V125h-41.7zm0 291.7h41.7v41.7h-41.7zm41.6-208.3H250v41.7h-41.7zm0 83.3H250v41.7h-41.7z" class="st0"/><path d="M166.7 166.7h41.7v41.7h-41.7zm83.3 41.6h41.7V250H250zm83.3-41.6H375v41.7h-41.7zm0 83.3H375v41.7h-41.7z" class="st2"/><path d="M333.3 208.3H375V250h-41.7zm0 83.4H375v41.7h-41.7zm0-166.7H375v41.7h-41.7z" class="st2"/><path d="M333.3 333.3H375V375h-41.7zM125 166.7h41.7v41.7H125zm0 83.3h41.7v41.7H125z" class="st2"/><path d="M125 208.3h41.7V250H125zm0 83.4h41.7v41.7H125zm0-166.7h41.7v41.7H125z" class="st2"/><path d="M125 333.3h41.7V375H125zm166.7-166.6h41.7v41.7h-41.7zm-83.4 41.6H250V250h-41.7z" class="st2"/><path d="M208.3 291.7H250v41.7h-41.7zm0-166.7H250v41.7h-41.7z" class="st0"/><path d="M208.3 333.3H250V375h-41.7zM375 166.7h41.7v41.7H375zm0 83.3h41.7v41.7H375z" class="st0"/><path d="M375 208.3h41.7V250H375zm0 83.4h41.7v41.7H375z" class="st0"/></svg>
