<svg xmlns="http://www.w3.org/2000/svg" viewBox="0 0 128 128"><path fill="#AE0D59" d="M69.911.033q.654 1.164 1.284 2.342l.722 1.316c.5 1.337.5 1.337.574 2.619-.938 1.983-2.606 2.424-4.552 3.339-3.592 1.802-7.04 3.65-9.553 6.868v1.998c2.278-.568 2.694-1.09 4.229-2.779C68.64 9.581 77.258 5.72 85.92 5.471c1.848-.005 3.691.013 5.538.057.722 1.44.548 2.705.532 4.308l-.013 1.799-.019 1.385c-2.028.93-3.862 1.21-6.075 1.436-3.405.417-6.301 1.268-9.459 2.56q-1.5.51-3.006 1l.5 1.498c2.46-.308 4.534-1.044 6.828-1.967 9.516-3.616 19.257-3.32 28.751.468-.214 2.815-.441 5.095-2.005 7.493-1.782.592-2.368.348-4.134-.188-4.887-1.396-9.891-1.893-14.907-.811l.5 1.998 2.587-.07c11.53-.183 21.673 1.546 30.486 9.56l.501 1.998c-.827 1.288-.827 1.288-1.972 2.623l-1.142 1.35-.894 1.022c-2.041-.273-3.201-.879-4.823-2.123-4.326-3.11-8.455-4.62-13.718-5.37l-.501 1.999 1.472.297c10.993 2.444 19.802 8.061 26.183 17.373.908 1.81.908 1.81.846 3.067-.556 1.569-1.182 2.025-2.569 2.927l-1.167.792c-1.213.52-1.213.52-2.482.54-1.8-.758-2.346-1.908-3.367-3.549-2.771-4.184-5.84-7.233-10.397-9.459h-1.003l-.501 1.998 1.085.385c8.779 3.796 13.979 12.136 17.456 20.594 1.904 5.375 1.904 5.375 1.002 7.992-2.343 1.148-4.4 1.809-7.015 1.499-1.404-1.4-1.589-2.815-2.13-4.714-1.576-5.15-3.648-9.367-7.391-13.268l-1.002-.5c0 2.624.804 4.064 2.349 6.088 6.515 8.55 7.893 17.771 7.172 28.378l-1.003 2.497c-1.552.516-2.403.518-4.008.375l-1.316-.101c-1.19-.274-1.19-.274-2.693-1.772a88 88 0 0 1 .031-5.682c.071-4.66-.156-8.519-2.036-12.8h-1.503c.247 2.46.692 4.786 1.284 7.18 2.051 9.483.41 18.415-3.899 27.005-.893 1.28-.893 1.28-2.897 1.78-1.274-.41-1.274-.41-2.6-1.062l-1.336-.628c-1.075-.808-1.075-.808-1.565-1.936-.015-1.86.6-3.065 1.398-4.741 2.158-4.801 2.759-8.9 2.6-14.111l-2.005.5-.039 1.375c-.423 9.347-3.123 18.039-9.482 25.098l-1.246 1.401c-2.526 2.693-2.526 2.693-3.765 3.594-1.994-.018-3.035-.744-4.415-2.123-1.598-1.873-1.598-1.873-1.598-4.37.955-1.109.955-1.109 2.255-2.248 4.028-3.827 7.01-8.174 7.767-13.737l-2.004.5c-.996 1.785-.996 1.785-1.88 3.965-1.662 3.672-3.39 6.584-6.138 9.522l-1.008 1.141c-3.828 4.112-9.924 9.125-15.747 9.442l-1.284-.094q-.652-1.306-1.284-2.622l-.723-1.475c-.499-1.397-.499-1.397.002-3.395 1.737-1.021 1.737-1.021 3.978-2.092 3.732-1.886 6.653-3.909 9.552-6.9l1.002-.999v-1.498c-2.335.229-3.193 1.028-4.729 2.747-7.053 7.292-15.875 10.371-25.838 11.239-2.008-.152-2.008-.152-3.508-.499-.718-1.432-.567-2.684-.563-4.277l-.004-1.782c.066-1.434.066-1.434.567-1.934q2.22-.348 4.448-.655c4.85-.742 8.921-1.755 13.09-4.34l-.5-1.498a51 51 0 0 0-5.731 2.217c-8.887 3.696-18.737 3.87-27.78.571-1.566-.79-1.566-.79-2.067-2.289.39-1.457.39-1.457.97-3.09l.578-1.645.456-1.259c2.498.214 4.823.455 7.266 1.031 3.855.834 7.855.544 11.776.468v-2.498l-2.443.25c-11.11.957-20.575-1.748-29.627-8.242l-1.504-1.498c0-2.468 1.463-4.175 3.007-5.994 1.13-.482 1.13-.482 2.505-.5 1.604.864 1.604.864 3.352 2.092 3.893 2.61 7.416 4.488 12.183 4.901l.5-.999c-.449-1.188-.449-1.188-2.092-1.537l-2.073-.586C13.794 86.632 5.806 81.55.801 73.577c-.904-1.86-.979-3.106-.543-5.112 2.145-2.012 3.032-2.497 6.014-2.497 1.309 1.406 1.309 1.406 2.662 3.278 2.497 3.322 4.883 5.899 8.362 8.21H19.3c-.633-2.523-1.448-2.853-3.539-4.339-7.738-5.777-12.173-13.264-14.5-22.634-.079-2.018-.079-2.018 0-3.497 2.628-1.102 4.659-1.676 7.516-1.498l.595 1.592.419 1.103q.531 1.415 1.041 2.837c1.556 4.227 3.232 8.23 6.464 11.451.274-1.8.26-3.064-.693-4.648q-.933-1.26-1.873-2.512c-5.312-7.507-6.457-17.935-4.95-26.806l1.001-1.499c1.233-.181 1.233-.181 2.694-.156l1.452.006c1.367.15 1.367.15 3.37 1.15l-.052 1.939c-.082 5.237.146 9.987 1.556 15.043h2.005l-.33-1.252c-2.546-10.881-1.546-20.991 3.495-30.917.843-1.297.843-1.297 2.347-1.797 1.462.607 1.462.607 3.1 1.468l1.65.856 1.263.673c-.287 2.167-.83 3.94-1.722 5.932-1.77 4.14-2.412 7.577-2.287 12.05h1.503l.24-1.83c1.586-11.082 5.48-20.753 14.292-28.14 2.694 0 2.92.05 4.698 1.81 1.778 1.91 1.778 1.91 2.036 3.747-.812 1.618-1.827 2.45-3.24 3.555-2.931 2.604-4.94 6.321-6.5 9.87v1.498h2.004l.7-1.538C49.215 12.225 58.735-.74 69.912.033"/><path fill="#F8F8FC" d="M86.771 74.81q3.968 5.305 1.662 11.536-2.302 6.229-9.151 8.171c-2.18.618-4.485.643-6.678.074q-3.407-.86-5.582-3.242-7.896 3.528-14.838-.344-6.943-3.872-8.343-12.587a12 12 0 0 1-5.875-3.318q-2.417-2.477-3.487-6.248-1.72-6.05 2.732-11.336 4.452-5.285 10.33-4.592l6.881.835a16.24 16.24 0 0 1 3.837-6.503 15.9 15.9 0 0 1 6.439-4.133l-1.465-5.158a2.993 2.993 0 0 1 2.134-3.822 2.993 2.993 0 0 1 3.82 2.13l1.688 5.955q3.987.048 7.025 1.704 3.04 1.656 5.913 5.346l5.754-1.633a3 3 0 0 1 2.372.239 3 3 0 0 1 1.45 1.891 2.99 2.99 0 0 1-1.035 3.293c-.325.25-.698.429-1.096.528l-5.159 1.465c.58 2.51.567 5.12-.038 7.623a15.3 15.3 0 0 1-3.417 6.652zm-23.93 9.361a32 32 0 0 1-1.031-5.333c-.182-1.759-.2-3.53-.054-5.292a19.1 19.1 0 0 1-4.477 2.932 22 22 0 0 1-5.137 1.726q1.099 3.87 3.965 5.47t6.734.497M50.878 69.99q3.175-.897 5.382-2.385 2.203-1.48 5.397-4.961l-13.31-1.583q-3.22-.372-4.901 1.443-1.678 1.814-.923 4.496.736 2.58 2.757 3.292 2.025.71 5.598-.302m26.15 16.593q2.483-.7 3.524-2.875 1.048-2.172-.283-3.834L71.082 67.9a33 33 0 0 0-1.124 7.18q-.143 3.471.59 6.05.93 3.277 2.563 4.688t3.916.764m.299-23.882q.706-1.275.84-3.082a10.2 10.2 0 0 0-.376-3.592q-.9-3.171-3.604-4.764a7.13 7.13 0 0 0-5.78-.72 9.9 9.9 0 0 0-3.203 1.551 7.6 7.6 0 0 0-2.2 2.449l8.753 1.375z"/></svg>
