<svg xmlns="http://www.w3.org/2000/svg" fill="none" viewBox="0 0 80 80"><path fill="#D8382B" d="M40 80c22.091 0 40-17.909 40-40S62.091 0 40 0 0 17.909 0 40s17.909 40 40 40"/><path fill="#EADED1" d="M42.353 43.053h-1.486V9.44c1.846 1.453 6.106 5.187 7.96 9.567-.927.393-1.8.893-2.587 1.52-2.18 1.72-3.447 4.18-3.807 7.313-.06.547-.08 1.627-.08 1.627zm1.72-13.906v13.906h1.72c.427-7.033 8.58-13.22 16.214-9.213 2.946-5.407 2.506-13.267 2.506-13.267-5.02-1.453-13.06-2.026-17.2 1.287-2.24 1.773-3.24 4.56-3.24 7.28zm-6.42 13.906h1.487V9.44c-1.847 1.453-6.107 5.187-7.96 9.567.927.393 1.8.893 2.587 1.52 2.18 1.72 3.446 4.18 3.806 7.313.06.547.08 1.627.08 1.627zm-4.966-21.186c-4.134-3.307-12.18-2.734-17.2-1.287 0 0-.44 7.86 2.506 13.267 7.627-4.014 15.787 2.173 16.214 9.213h1.72V29.153c0-2.72-1-5.506-3.24-7.28zM70.56 47.1c-1.68-4.073-5.293-9.607-9.46-11.78-6.373-3.327-13.12 1.98-13.56 7.74h5.78c-.687 4.227-3.367 7.8-7.033 9.727-1.14.593-1.907 1.733-1.907 3.02v.58h-8.74v-.58c0-1.28-.767-2.42-1.907-3.02-3.666-1.927-6.346-5.5-7.033-9.727h5.78c-.44-5.76-7.193-11.067-13.56-7.74-4.167 2.173-7.787 7.707-9.46 11.78 3.22 2.88 8.993 6.367 13.64 6.5-.9 4.6 1.187 10.927 3.32 14.773 4.247-.76 10.807-3.233 13.593-6.62 2.787 3.387 9.347 5.867 13.594 6.62 2.133-3.84 4.22-10.166 3.32-14.773 4.646-.133 10.42-3.62 13.64-6.5z"/></svg>
