<svg xmlns="http://www.w3.org/2000/svg" viewBox="0 0 32 32"><circle cx="16" cy="16" r="16"/><path fill="url(#a)" d="M10.184 6.304a.97.97 0 0 1 .97-.97h1.942a.97.97 0 0 1 .97.97v1.932c0 .536.434.97.97.97h1.92a.97.97 0 0 0 .97-.97V6.304a.97.97 0 0 1 .97-.97h1.941a.97.97 0 0 1 .97.97v1.94a.97.97 0 0 1-.97.97h-1.933a.97.97 0 0 0-.97.97v1.933a.97.97 0 0 1-.97.97h-1.941a.97.97 0 0 1-.97-.97v-1.932a.97.97 0 0 0-.97-.97h-1.934a.97.97 0 0 1-.97-.97V6.303zm-.97 12.61v1.932a.97.97 0 0 1-.97.97H6.302a.97.97 0 0 1-.97-.97v-1.941a.97.97 0 0 1 .97-.97h1.933a.97.97 0 0 0 .97-.97v-1.92a.97.97 0 0 0-.97-.97H6.302a.97.97 0 0 1-.97-.97v-1.941a.97.97 0 0 1 .97-.97h1.942a.97.97 0 0 1 .97.97v1.932c0 .536.434.97.97.97h1.933a.97.97 0 0 1 .97.97v1.94a.97.97 0 0 1-.97.97h-1.933a.97.97 0 0 0-.97.97v-.004zm12.6 6.783a.97.97 0 0 1-.97.97h-1.942a.97.97 0 0 1-.97-.97v-1.933a.97.97 0 0 0-.97-.97h-1.92a.97.97 0 0 0-.971.97v1.933a.97.97 0 0 1-.97.97h-1.942a.97.97 0 0 1-.97-.97v-1.941a.97.97 0 0 1 .97-.97h1.933a.97.97 0 0 0 .97-.97v-1.933a.97.97 0 0 1 .97-.97h1.942a.97.97 0 0 1 .97.97v1.933c0 .535.435.97.97.97h1.933a.97.97 0 0 1 .97.97v1.94zm4.85-12.597a.97.97 0 0 1-.97.97h-1.933a.97.97 0 0 0-.97.97v1.92c0 .536.434.97.97.97h1.933a.97.97 0 0 1 .97.97v1.942a.97.97 0 0 1-.97.97h-1.94a.97.97 0 0 1-.97-.97v-1.933a.97.97 0 0 0-.97-.97H19.88a.97.97 0 0 1-.97-.97v-1.941a.97.97 0 0 1 .97-.97h1.933a.97.97 0 0 0 .97-.97v-1.933a.97.97 0 0 1 .97-.97h1.941a.97.97 0 0 1 .97.97z"/><defs><linearGradient id="a" x1="39.485" x2="-6.327" y1="16.159" y2="16.802" gradientUnits="userSpaceOnUse"><stop stop-color="#F8F29C"/><stop offset=".165" stop-color="#F6DB2A"/><stop offset=".333" stop-color="#F4A435"/><stop offset=".55" stop-color="#E85A46"/><stop offset=".699" stop-color="#B93483"/><stop offset=".867" stop-color="#502B6E"/><stop offset="1" stop-color="#2A2136"/></linearGradient></defs></svg>
