<svg xmlns="http://www.w3.org/2000/svg" viewBox="0 0 128 120"><path fill="#94FF0B" d="M118.165 36.397a33.6 33.6 0 0 0-5.528-4.484 33.2 33.2 0 0 0-3.415-13.065 33.3 33.3 0 0 0-9.641-11.676 33.37 33.37 0 0 0-35.32-3.207 33.33 33.33 0 0 0-28.37-1.363 33.5 33.5 0 0 0-12.298 8.81 33.3 33.3 0 0 0-8.26 20.81 33.14 33.14 0 0 0-10.752 11.3A33.24 33.24 0 0 0 .12 60.163a33.3 33.3 0 0 0 2.53 12.735 33.2 33.2 0 0 0 7.21 10.787 33.3 33.3 0 0 0 5.784 4.617 33.47 33.47 0 0 0 9.668 21.856 33.2 33.2 0 0 0 10.757 7.24 33.1 33.1 0 0 0 12.703 2.552l-.013-.019c5.299 0 10.52-1.274 15.227-3.714a33.43 33.43 0 0 0 30.127.289 33.4 33.4 0 0 0 11.701-9.601 33.23 33.23 0 0 0 6.844-18.8 33.3 33.3 0 0 0 10.779-11.386 33.56 33.56 0 0 0 4.449-16.707c0-8.85-3.494-17.34-9.72-23.614m.559 37.845a28.1 28.1 0 0 1-6.403 7.513 33.3 33.3 0 0 0-5.389-13.808 43.4 43.4 0 0 1-2.014 7.321 28.2 28.2 0 0 1 2.389 11.366v2.352a27.94 27.94 0 0 1-5.146 13.96 28.05 28.05 0 0 1-32.832 9.832 33.3 33.3 0 0 0 9.338-11.583 43.5 43.5 0 0 1-7.41 1.929 28 28 0 0 1-6.422 6.348 27.8 27.8 0 0 1-16.09 5.136c-6.64 0-13.06-2.38-18.104-6.71a28.06 28.06 0 0 1-9.41-16.772 33.1 33.1 0 0 0 12.134 2.284h.04c.77 0 1.533-.026 2.297-.078a44 44 0 0 1-5.43-5.519 27.8 27.8 0 0 1-10.713-3.57l-2.342-1.362A27.97 27.97 0 0 1 7.14 69.645a28 28 0 0 1-1.566-12.07 27.9 27.9 0 0 1 3.711-11.59 28.1 28.1 0 0 1 6.416-7.454q.11.67.237 1.33a33.4 33.4 0 0 0 3.008 8.66 35 35 0 0 0 2.073 3.575c.46-2.5 1.138-4.955 2.026-7.337q-.298-.666-.56-1.35a28 28 0 0 1-1.756-9.765v-2.535a28 28 0 0 1 3.125-10.728 27.9 27.9 0 0 1 8.918-10.029 28 28 0 0 1 25.882-3.069 33.3 33.3 0 0 0-9.326 11.577 44 44 0 0 1 7.575-1.949 28.05 28.05 0 0 1 12.999-9.598c3.872-1.386 8-1.902 12.094-1.511a28 28 0 0 1 11.595 3.76 28 28 0 0 1 8.897 8.323 27.9 27.9 0 0 1 4.475 11.097 33 33 0 0 0-12.28-2.37q-1.252.002-2.494.09a43.6 43.6 0 0 1 5.502 5.592 28.1 28.1 0 0 1 10.976 3.576l1.856 1.073a27.9 27.9 0 0 1 8.332 9.14 28.14 28.14 0 0 1 3.678 14.099c0 4.952-1.322 9.799-3.81 14.06"/><path fill="#FEF3C7" d="M64.32 102.032c23.152 0 41.92-18.818 41.92-42.032S87.472 17.968 64.32 17.968 22.4 36.786 22.4 60s18.768 42.032 41.92 42.032"/><path fill="#D97706" d="M52.356 79.624h-6.43a6.3 6.3 0 0 1-3.063-.757 6 6 0 0 1-2.243-2.1l-3.428-5.597a4.9 4.9 0 0 1-.818-2.744c0-1.007.272-1.875.819-2.715l3.487-5.683-3.488-5.655a4.95 4.95 0 0 1-.818-2.743c0-.98.272-1.904.819-2.744l3.427-5.597a5.77 5.77 0 0 1 2.243-2.1 6.4 6.4 0 0 1 3.063-.784h6.43l3.396-5.543a5.77 5.77 0 0 1 2.245-2.099 6.4 6.4 0 0 1 3.062-.784h6.522c1.121 0 2.122.252 3.062.784a6 6 0 0 1 2.245 2.099l3.426 5.543h6.43c1.122 0 2.122.25 3.063.783a6 6 0 0 1 2.244 2.1l3.397 5.598c.546.84.818 1.737.818 2.744a4.9 4.9 0 0 1-.818 2.743l-3.488 5.655 3.488 5.683c.546.84.818 1.735.818 2.715a4.95 4.95 0 0 1-.818 2.744l-3.397 5.598a5.77 5.77 0 0 1-2.244 2.099 6.4 6.4 0 0 1-3.063.757h-6.43l-3.426 5.543a5.77 5.77 0 0 1-2.245 2.099 6.4 6.4 0 0 1-3.062.755h-6.523a6.3 6.3 0 0 1-3.062-.755 6 6 0 0 1-2.245-2.1zm23.958-22.396h6.52l3.337-5.598-3.337-5.599h-6.52l-3.426 5.6zm-15.163 8.4h6.368l3.397-5.6-3.397-5.598H61.15l-3.397 5.598zm0-16.796h6.368l3.488-5.683-3.396-5.515h-6.522l-3.395 5.515 3.487 5.683zm-5.369 2.797-3.396-5.598h-6.43l-3.397 5.6 3.398 5.598h6.429zm0 16.798-3.396-5.598h-6.52l-3.337 5.598 3.397 5.598h6.43l3.396-5.598zm5.37 2.8-3.49 5.653 3.397 5.543h6.522l3.396-5.543-3.488-5.654H61.12zm15.162 2.798h6.43l3.397-5.598-3.397-5.598h-6.43l-3.426 5.598z"/></svg>
