<svg xmlns="http://www.w3.org/2000/svg" fill="none" viewBox="0 0 1472 1472"><g filter="url(#a)"><path fill="#E50571" d="M109 736c0-346.283 280.717-627 627-627 346.28 0 627 280.717 627 627 0 346.28-280.72 627-627 627-346.283 0-627-280.72-627-627"/><path fill="#fff" d="M994.445 853.465q49.086 65.58 20.585 142.578c-19.009 51.327-56.715 84.997-113.132 101.007q-40.466 11.49-82.565.9-42.094-10.575-69.008-40.05-97.613 43.605-183.417-4.26c-57.206-31.92-91.58-83.783-103.125-155.599q-42.706-10.408-72.595-41.017-29.889-30.607-43.114-77.212-21.23-74.811 33.785-140.114 55.012-65.305 127.668-56.77l85.084 10.31q13.742-44.978 47.423-80.378 33.686-35.399 79.593-51.076l-18.096-63.773q-4.525-15.942 2.942-29.325 7.463-13.383 23.409-17.907 15.941-4.524 29.325 2.942 13.382 7.467 17.905 23.409l20.882 73.582q49.203.618 86.816 21.082 37.61 20.469 73.078 66.06l71.132-20.185c10.63-3.016 20.4-2.036 29.32 2.943 8.93 4.978 14.89 12.779 17.91 23.409 3.01 10.627 2.04 20.403-2.94 29.325s-12.78 14.889-23.41 17.905l-63.775 18.099q10.775 47.298-.43 94.209-11.204 46.908-42.261 82.224zM698.653 969.209q-9.398-33.114-12.752-65.953-3.358-32.84-.672-65.402c-16.25 14.327-34.69 26.406-55.311 36.235q-30.935 14.74-63.514 21.336 13.57 47.83 48.996 67.592 35.423 19.764 83.253 6.192M550.827 793.833q39.241-11.135 66.505-29.472 27.263-18.34 66.739-61.346L519.503 683.46q-39.74-4.624-60.532 17.838-20.79 22.464-11.395 55.578 9.048 31.885 34.073 40.685 25.024 8.802 69.178-3.728m323.23 205.109q30.66-8.7 43.579-35.559 12.919-26.856-3.505-47.372L800.577 768.016q-12.166 45.858-13.907 88.754-1.737 42.9 7.31 74.785 11.485 40.471 31.677 57.931 20.196 17.465 48.4 9.456m3.683-295.227q8.784-15.747 10.399-38.068 1.615-22.324-4.647-44.399-11.14-39.245-44.549-58.916t-71.428-8.885q-22.073 6.265-39.608 19.192-17.534 12.925-27.196 30.246l108.186 17.003z"/></g><defs><filter id="a" width="1471.97" height="1471.97" x=".017" y=".017" color-interpolation-filters="sRGB" filterUnits="userSpaceOnUse"><feFlood flood-opacity="0" result="BackgroundImageFix"/><feColorMatrix in="SourceAlpha" result="hardAlpha" values="0 0 0 0 0 0 0 0 0 0 0 0 0 0 0 0 0 0 127 0"/><feOffset/><feGaussianBlur stdDeviation="54.492"/><feComposite in2="hardAlpha" operator="out"/><feColorMatrix values="0 0 0 0 0.898039 0 0 0 0 0.0196078 0 0 0 0 0.443137 0 0 0 0.5 0"/><feBlend in2="BackgroundImageFix" result="effect1_dropShadow_10339_6180"/><feColorMatrix in="SourceAlpha" result="hardAlpha" values="0 0 0 0 0 0 0 0 0 0 0 0 0 0 0 0 0 0 127 0"/><feOffset/><feGaussianBlur stdDeviation="21.797"/><feComposite in2="hardAlpha" operator="out"/><feColorMatrix values="0 0 0 0 1 0 0 0 0 0.666455 0 0 0 0 0.827271 0 0 0 0.25 0"/><feBlend in2="effect1_dropShadow_10339_6180" result="effect2_dropShadow_10339_6180"/><feBlend in="SourceGraphic" in2="effect2_dropShadow_10339_6180" result="shape"/></filter></defs></svg>
