<svg xmlns="http://www.w3.org/2000/svg" viewBox="0 0 250 250"><circle cx="125" cy="125" r="125" fill="#FFF"/><path d="M119 9.3c-2.8 5.7-61.1 120.8-70.1 138.4L40 164.8l17.8 16.3c9.7 9 28 25.8 40.5 37.4 12.6 11.5 23.1 21.1 23.5 21.2.5.2 58.4-48.8 79.2-67l3.4-3-13.6-26.6c-7.4-14.6-25.8-50.9-40.8-80.6S122.2 8 121.6 7.3c-.8-.8-1.5-.4-2.6 2M139.1 62c9.3 18.4 16.9 34.1 16.9 34.7 0 .7-2.8 2.6-6.2 4.2-3.5 1.5-11.1 5.1-16.9 8-5.9 2.8-11.1 5.1-11.7 5.1-1.3 0-33.2-15.6-34.5-16.9-.5-.5 4.4-11.3 12.1-26.7 18.9-37.5 21.5-42.5 22.5-42.1.5.1 8.5 15.3 17.8 33.7m-41 51.7 16.1 7.7-.5 3.6c-1.2 7.8-7 39.5-7.3 39.9-.2.2-6.9-3.9-14.8-9.2l-14.4-9.6-10.3 5.4c-5.7 3-10.8 5.5-11.2 5.5s5-11.5 12-25.5S80.9 106 81.3 106s8 3.5 16.8 7.7m77 19.5c7.2 14.3 12.9 26.2 12.7 26.3-.2.2-3.8-1.6-8.2-4.1-4.3-2.4-8.3-4.4-8.9-4.4-.7 0-12.9 2.9-27.2 6.4-14.3 3.6-26.1 6.3-26.4 6.1-.2-.2 1.1-8.9 2.8-19.2 2.7-16 3.5-19.1 5.4-20.6 3.2-2.5 35-17.6 36-17 .4.2 6.6 12.2 13.8 26.5"/></svg>
