<svg xmlns="http://www.w3.org/2000/svg" viewBox="0 0 128 128"><circle cx="64" cy="64" r="64" fill="#FFF"/><path d="M60.928 4.762c-1.434 2.918-31.283 61.85-35.891 70.86l-4.557 8.756 9.114 8.345c4.966 4.608 14.336 13.21 20.736 19.149 6.45 5.888 11.827 10.803 12.032 10.854.256.103 29.9-24.985 40.55-34.304l1.741-1.536-6.963-13.619C93.9 65.792 84.48 47.207 76.8 32 69.12 16.794 62.566 4.096 62.26 3.738c-.41-.41-.769-.205-1.332 1.024m10.291 26.982c4.762 9.42 8.653 17.46 8.653 17.766 0 .359-1.434 1.332-3.174 2.15-1.792.769-5.684 2.612-8.653 4.097-3.021 1.433-5.683 2.611-5.99 2.611-.666 0-16.999-7.987-17.665-8.653-.256-.256 2.253-5.785 6.196-13.67 9.676-19.2 11.008-21.76 11.52-21.555.256.05 4.352 7.833 9.113 17.254m-20.992 26.47 8.243 3.943L58.214 64c-.614 3.994-3.584 20.224-3.737 20.429-.103.102-3.533-1.997-7.578-4.71l-7.373-4.916-5.273 2.765c-2.919 1.536-5.53 2.816-5.735 2.816-.204 0 2.56-5.888 6.144-13.056s6.759-13.056 6.964-13.056c.204 0 4.096 1.792 8.601 3.942m39.424 9.984c3.687 7.322 6.605 13.415 6.503 13.466-.103.102-1.946-.82-4.199-2.1-2.201-1.228-4.25-2.252-4.557-2.252-.358 0-6.604 1.485-13.926 3.277-7.322 1.843-13.363 3.225-13.517 3.123-.102-.102.563-4.557 1.434-9.83 1.382-8.192 1.792-9.78 2.765-10.548 1.638-1.28 17.92-9.01 18.432-8.704.204.103 3.379 6.247 7.065 13.568"/></svg>
