<?xml version="1.0" standalone="no"?>
<!DOCTYPE svg PUBLIC "-//W3C//DTD SVG 20010904//EN"
 "http://www.w3.org/TR/2001/REC-SVG-20010904/DTD/svg10.dtd">
<svg version="1.0" xmlns="http://www.w3.org/2000/svg"
 width="250.000000pt" height="250.000000pt" viewBox="0 0 250.000000 250.000000"
 preserveAspectRatio="xMidYMid meet">

<g transform="translate(0.000000,250.000000) scale(0.100000,-0.100000)"
fill="#000000" stroke="none">
<path d="M1190 2407 c-28 -57 -611 -1208 -701 -1384 l-89 -171 178 -163 c97
-90 280 -258 405 -374 126 -115 231 -211 235 -212 5 -2 584 488 792 670 l34
30 -136 266 c-74 146 -258 509 -408 806 -150 297 -278 545 -284 552 -8 8 -15
4 -26 -20z m201 -527 c93 -184 169 -341 169 -347 0 -7 -28 -26 -62 -42 -35
-15 -111 -51 -169 -80 -59 -28 -111 -51 -117 -51 -13 0 -332 156 -345 169 -5
5 44 113 121 267 189 375 215 425 225 421 5 -1 85 -153 178 -337z m-410 -517
l161 -77 -5 -36 c-12 -78 -70 -395 -73 -399 -2 -2 -69 39 -148 92 l-144 96
-103 -54 c-57 -30 -108 -55 -112 -55 -4 0 50 115 120 255 70 140 132 255 136
255 4 0 80 -35 168 -77z m770 -195 c72 -143 129 -262 127 -263 -2 -2 -38 16
-82 41 -43 24 -83 44 -89 44 -7 0 -129 -29 -272 -64 -143 -36 -261 -63 -264
-61 -2 2 11 89 28 192 27 160 35 191 54 206 32 25 350 176 360 170 4 -2 66
-122 138 -265z"/>
</g>
</svg>
