<svg xmlns="http://www.w3.org/2000/svg" viewBox="0 0 1052 1051"><circle cx="525.639" cy="525.5" r="525.5" fill="#fff"/><path d="M455.079 354.629h68.518L368.395 696.625h-68.518zm137.072 0h-68.518l155.203 341.996h68.518zm-69.113 168.913 68.399 173.675H454.638z"/><path d="M900.245 578.282C873.82 761.093 716.494 901.547 526.363 901.547c-190.132 0-347.458-140.454-373.883-323.265H93.56c26.831 215.161 210.373 381.654 432.803 381.654 222.429 0 405.971-166.493 432.802-381.654zM152.48 469.238c26.425-182.812 183.751-323.266 373.883-323.266S873.82 286.426 900.245 469.238h58.92C932.334 254.076 748.792 87.583 526.363 87.583S120.391 254.076 93.56 469.238z"/></svg>
