<svg xmlns="http://www.w3.org/2000/svg" viewBox="0 0 128 120"><path fill="#94FF0B" d="M118.165 36.397a33.6 33.6 0 0 0-5.528-4.484 33.2 33.2 0 0 0-3.415-13.065 33.3 33.3 0 0 0-9.641-11.676 33.37 33.37 0 0 0-35.32-3.207 33.33 33.33 0 0 0-28.37-1.363 33.5 33.5 0 0 0-12.298 8.81 33.3 33.3 0 0 0-8.26 20.81 33.14 33.14 0 0 0-10.752 11.3A33.24 33.24 0 0 0 .12 60.163a33.3 33.3 0 0 0 2.53 12.735 33.2 33.2 0 0 0 7.21 10.787 33.3 33.3 0 0 0 5.784 4.617 33.47 33.47 0 0 0 9.668 21.856 33.2 33.2 0 0 0 10.757 7.24 33.1 33.1 0 0 0 12.703 2.552l-.013-.019c5.299 0 10.52-1.274 15.227-3.714a33.43 33.43 0 0 0 30.127.289 33.4 33.4 0 0 0 11.701-9.601 33.23 33.23 0 0 0 6.844-18.8 33.3 33.3 0 0 0 10.779-11.386 33.56 33.56 0 0 0 4.449-16.707c0-8.85-3.494-17.34-9.72-23.614m.559 37.845a28.1 28.1 0 0 1-6.403 7.513 33.3 33.3 0 0 0-5.389-13.808 43.4 43.4 0 0 1-2.014 7.321 28.2 28.2 0 0 1 2.389 11.366v2.352a27.94 27.94 0 0 1-5.146 13.96 28.05 28.05 0 0 1-32.832 9.832 33.3 33.3 0 0 0 9.338-11.583 43.5 43.5 0 0 1-7.41 1.929 28 28 0 0 1-6.422 6.348 27.8 27.8 0 0 1-16.09 5.136c-6.64 0-13.06-2.38-18.104-6.71a28.06 28.06 0 0 1-9.41-16.772 33.1 33.1 0 0 0 12.134 2.284h.04c.77 0 1.533-.026 2.297-.078a44 44 0 0 1-5.43-5.519 27.8 27.8 0 0 1-10.713-3.57l-2.342-1.362A27.97 27.97 0 0 1 7.14 69.645a28 28 0 0 1-1.566-12.07 27.9 27.9 0 0 1 3.711-11.59 28.1 28.1 0 0 1 6.416-7.454q.11.67.237 1.33a33.4 33.4 0 0 0 3.008 8.66 35 35 0 0 0 2.073 3.575c.46-2.5 1.138-4.955 2.026-7.337q-.298-.666-.56-1.35a28 28 0 0 1-1.756-9.765v-2.535a28 28 0 0 1 3.125-10.728 27.9 27.9 0 0 1 8.918-10.029 28 28 0 0 1 25.882-3.069 33.3 33.3 0 0 0-9.326 11.577 44 44 0 0 1 7.575-1.949 28.05 28.05 0 0 1 12.999-9.598c3.872-1.386 8-1.902 12.094-1.511a28 28 0 0 1 11.595 3.76 28 28 0 0 1 8.897 8.323 27.9 27.9 0 0 1 4.475 11.097 33 33 0 0 0-12.28-2.37q-1.252.002-2.494.09a43.6 43.6 0 0 1 5.502 5.592 28.1 28.1 0 0 1 10.976 3.576l1.856 1.073a27.9 27.9 0 0 1 8.332 9.14 28.14 28.14 0 0 1 3.678 14.099c0 4.952-1.322 9.799-3.81 14.06"/><path fill="#78350F" d="M63.68 102.032c23.152 0 41.92-18.818 41.92-42.032S86.832 17.968 63.68 17.968 21.76 36.786 21.76 60s18.768 42.032 41.92 42.032"/><path fill="#fff" d="M63.68 98.091c20.981 0 37.99-17.054 37.99-38.091S84.661 21.908 63.68 21.908 25.69 38.963 25.69 60s17.009 38.091 37.99 38.091"/><path fill="#78350F" d="M52.886 44.984a6.5 6.5 0 0 0-2.284-.9 6 6 0 0 0-2.402.028 5.9 5.9 0 0 0-2.154.947 5.6 5.6 0 0 0-1.58 1.73 5.9 5.9 0 0 0-.766 2.249 6.2 6.2 0 0 0 .165 2.418c.352 1.322 1.98 1.573 3.1.77l2.85-2.044 2.858-2.05c1.118-.804 1.378-2.412.213-3.148m30.139 1.805a5.68 5.68 0 0 0-3.735-2.677 6 6 0 0 0-2.402-.026 6.5 6.5 0 0 0-2.285.899c-1.166.734-.904 2.342.213 3.146l2.859 2.05 2.85 2.045c1.12.803 2.747.552 3.1-.77.214-.788.27-1.61.165-2.418a5.9 5.9 0 0 0-.765-2.249M66.058 68.93a6.64 6.64 0 0 0-4.239 0c-.76.259-1.422.66-1.38 1.266.076.927 1.546 2.514 2.608 2.841.65.197 1.057.184 1.782 0 1.062-.273 2.54-1.914 2.61-2.84.048-.607-.623-1.007-1.381-1.267m-7.283-2.985a4.7 4.7 0 0 0-1.393-1.24 4.4 4.4 0 0 0-1.747-.577 4.6 4.6 0 0 0-1.837.169c-.6.185-1.159.489-1.642.893a5 5 0 0 0-1.201 1.478c-.504.946.297 1.941 1.374 2.064l2.72.307 2.74.313c1.077.123 2.09-.661 1.814-1.696a5 5 0 0 0-.828-1.71m16.858-.852a4.9 4.9 0 0 0-1.644-.893 4.6 4.6 0 0 0-1.835-.17 4.4 4.4 0 0 0-1.746.58 4.7 4.7 0 0 0-1.395 1.24 5 5 0 0 0-.829 1.71c-.275 1.035.74 1.82 1.808 1.695l2.742-.312 2.725-.308c1.078-.121 1.879-1.116 1.376-2.063a5.1 5.1 0 0 0-1.202-1.479"/><path fill="#78350F" d="M88.582 58.555a13.61 13.61 0 0 0 2.202-15.11c-2.445-5.07-8.63-9.027-14.959-7.706q-.386.087-.765.2a7.6 7.6 0 0 0-2.568 1.365c-1.69 1.353-4.798 2.259-8.353 2.259h-.403c-3.552 0-6.66-.909-8.351-2.262a7.6 7.6 0 0 0-2.569-1.364 10 10 0 0 0-.765-.199c-6.33-1.321-12.513 2.636-14.957 7.706a13.6 13.6 0 0 0-1.36 5.77 13.63 13.63 0 0 0 3.563 9.34.96.96 0 0 1 .233.791c-1.525 8.604.726 15.683 5.358 20.723C49.754 85.362 56.89 88 63.813 88.142h.251c6.922-.143 14.06-2.779 18.925-8.072 4.633-5.042 6.883-12.12 5.358-20.724a.95.95 0 0 1 .234-.791m-4.052-1.492a1.14 1.14 0 0 0-.393 1.158c3.596 15.022-5.646 23.791-16.264 25.67h-.006q-1.539.275-3.1.355c-.061 0-.13.006-.192.006-.194.014-.393.014-.587.021h-.097c-.194-.007-.393-.007-.587-.02-.062 0-.13-.008-.194-.008a25 25 0 0 1-3.098-.355h-.008c-10.616-1.878-19.86-10.647-16.263-25.67a1.14 1.14 0 0 0-.392-1.157 9.87 9.87 0 0 1-3.707-7.815c.017-1.436.35-2.85.972-4.142 1.808-3.754 6.358-6.486 10.631-5.593.5.103 1.842.54 3.15 1.154.474.223.92.501 1.336.816 1.713 1.299 4.749 2.161 8.208 2.166 3.461-.004 6.498-.868 8.21-2.164a7.6 7.6 0 0 1 1.336-.817c1.307-.615 2.648-1.05 3.15-1.155 4.271-.893 8.821 1.84 10.63 5.595a9.8 9.8 0 0 1 .972 4.14 9.87 9.87 0 0 1-3.707 7.815"/></svg>
