<svg xmlns="http://www.w3.org/2000/svg" fill="none" viewBox="0 0 151 151"><circle cx="75.468" cy="75.128" r="75" fill="url(#a)"/><path fill="#664AED" d="m66.975 105.476-8.58-2.172-3.159 12.474 8.58 2.173z"/><path fill="#146AF4" d="m81.838 109.235-8.58-2.173-3.158 12.475 8.58 2.172zm18.938-74.885-8.58-2.172-3.159 12.475 8.58 2.173z"/><path fill="#664AED" d="m85.976 30.556-8.58-2.172-3.158 12.474 8.58 2.173z"/><path fill="#9077ED" d="m85.838 110.292-44.306-11.24 2.66-10.534L88.5 99.759c3.8.977 7.601-1.14 8.47-4.67.869-3.529-1.466-7.167-5.267-8.144L64.012 79.94l2.66-10.533 27.692 7.004c9.991 2.552 16.235 12.217 13.846 21.502s-12.434 14.877-22.425 12.325z"/><path fill="#664AED" d="m82.806 43.069-14.474-3.666-15.822 62.479 14.475 3.665z"/><path fill="#6FF1E1" d="m87.418 80.262-27.692-7.004 2.66-10.534 27.692 7.005c3.801.977 7.602-1.14 8.47-4.67.87-3.53-1.466-7.167-5.266-8.145l-38.66-9.773 2.66-10.534 38.66 9.774c9.991 2.552 16.235 12.216 13.846 21.501S97.354 82.76 87.363 80.208z"/><path fill="#664AED" d="m82.742 43.023-14.474-3.666-3.026 11.949 14.475 3.665z"/><defs><linearGradient id="a" x1=".468" x2="150.468" y1="75.128" y2="75.128" gradientUnits="userSpaceOnUse"><stop stop-color="#4473F0" stop-opacity=".5"/><stop offset="1" stop-color="#4473F0" stop-opacity="0"/></linearGradient></defs></svg>
