<svg xmlns="http://www.w3.org/2000/svg" fill="none" viewBox="0 0 1051 1051"><circle cx="525.5" cy="525.5" r="525.5" fill="#000"/><path fill="#fff" d="M454.941 354.629h68.518L368.256 696.625h-68.518zm137.072 0h-68.518l155.202 341.996h68.518zm-69.114 168.913 68.399 173.675H454.5z"/><path fill="#fff" d="M900.106 578.282c-26.425 182.811-183.751 323.265-373.882 323.265S178.767 761.093 152.341 578.282h-58.92c26.831 215.161 210.374 381.654 432.803 381.654s405.972-166.493 432.802-381.654zM152.341 469.238c26.426-182.812 183.752-323.266 373.883-323.266s347.457 140.454 373.882 323.266h58.92C932.196 254.076 748.653 87.583 526.224 87.583S120.252 254.076 93.422 469.238z"/></svg>
