<svg xmlns="http://www.w3.org/2000/svg" viewBox="0 0 400 400"><circle cx="200" cy="200" r="200" fill="#fffffe"/><path fill="#f4aa1c" d="M181.5 365.13c-4.25-1.25-10.25-3.88-13.25-5.88-60.63-40.13-60.63-40.13-80.5-59.75-27.38-26.88-39-43.88-39-56.88 0-2.63 2.38-15.5 5.13-28.38 4.88-22 5.25-25.38 6.13-49.88 1-34.13 2-37.5 15-51.13 5.13-5.38 13.88-13.38 19.38-17.63 5.5-4.38 14.25-12.5 19.5-18.25 9.13-10 10.25-10.75 22.5-16 7.13-3 21.13-9.88 31.13-15.13 29.75-15.88 29-15.63 46.38-14.13 16.88 1.5 19.13 2.5 43 18.88 7.63 5.25 16.5 11.38 19.75 13.63 3.38 2.25 12.13 6 20 8.38 15.75 5 21.63 8.13 35.25 18.88 11.38 8.88 17.38 16.63 19.5 24.88 1.88 7.75.75 26.38-2.63 41.25-3.13 14.25-3.13 27.75 0 46.38 3.63 21.5 3.38 42.75-.63 58.13-1.75 6.5-4.63 14.38-6.5 17.5-4.63 8.13-33.13 35.63-41 39.38-3.5 1.75-13.13 4.88-21.25 6.88-8.25 2.13-16.63 4.38-18.5 5.25-2 .75-8.75 7.63-15.25 15.38-15.5 18.63-18 19.88-40 20.25-12.63.25-18-.25-24.13-2zm53.5-81.5c0-1.5-.88-2.38-2.5-2.38-2.75 0-3.63 4.38-.88 5.38 2.25.75 3.38-.25 3.38-3M199.62 196c-.5-1.25-1.63-2.25-2.38-2.25-1.63 0-.63 39 1.13 43.25.63 1.38 1.25-6.25 1.63-18.25.38-11.38.25-21.63-.38-22.75m32.25 37.38c3.13-3 5.63-6.38 5.63-7.5 0-1.13-.25-2.13-.63-2.13-.75 0-12.38 12.5-12.88 13.88-1 2.75 2.63.75 7.88-4.25m-87.63-7.88c3.25-2.5 5.75-4.75 5.38-5-.88-.88-11.25 3.25-13.63 5.38s-2 4.13.75 4.13c.88 0 4.25-2 7.5-4.5zm-50.5-14.88c0-2.13-4.5-2.5-5.63-.63-.5.75-.5 2.25-.13 3.25.5 1.5 1.25 1.63 3.25.5 1.38-.75 2.5-2.13 2.5-3.13zm18-20.5c1.13-1.75-.5-5.13-2.38-5.13-2.13 0-4.75 3.38-3.75 5 1 1.5 5.25 1.63 6.13.13m-25.38-22.88c2.63-4.75 3-7.25 3.38-20.38.13-8.25.63-16.25.88-17.75.38-1.63 8.38-8.88 19.63-18.13 10.5-8.38 23.75-19.38 29.38-24.38 12.25-11 15-12.25 23-10.38 6.88 1.63 8.5 1 14.75-5.5 7-7.25 4.63-7.38-17.88-.5-7.5 2.25-10.38 4.13-21.75 14-7.13 6.25-18.5 15.75-25.13 21.13-17.88 14.63-30.5 25.88-32.63 29.13-1.5 2.5-1.5 4.88-.25 16.5.88 7.38 1.5 15.25 1.5 17.5 0 5.38 1.5 5 5.13-1.25zm116.38-36c-.25-.38-1.25.5-2.25 1.75-2.38 3.25-2.5 31.5-.13 32.38 1.13.38 1.63-3.75 2.13-16.5.38-9.38.5-17.25.25-17.63m-45.38 5.25c4.25-4.38 15.75-12.38 23.63-16.38 2.88-1.5 5.25-3 5.25-3.38 0-1.38-10.75 1.13-17.38 4.13-13.88 6-19.63 13.25-20.88 25.75l-.63 6.5 3.25-6.38c1.75-3.5 4.75-8.13 6.75-10.25zm48.88-32.13c.88-2.5 2.75-5 4.63-5.88 6.88-3.38 4.13-7-4-5.5l-4.38.88v8.13c0 8.75 1.38 9.63 3.75 2.38zm86-6c.38-2-.38-2.25-5.5-1.88-6 .38-8.88 2.75-4.63 3.88 4.75 1.25 9.75.25 10.13-2m-120.5-4.5c.88-1.25-3.38-2.63-8.25-2.63-3.38 0-5.38 1.5-3.88 3 1.25 1.13 11.38.88 12.13-.38z"/><g fill="#100f12"><path d="M181.5 365.13c-4.25-1.25-10.25-3.88-13.25-5.88-60.63-40.13-60.63-40.13-80.5-59.75-27.38-26.88-39-43.88-39-56.88 0-2.63 2.38-15.5 5.13-28.38 4.88-22 5.25-25.38 6.13-49.88 1-34.13 2-37.5 15-51.13 5.13-5.38 13.88-13.38 19.38-17.63 5.5-4.38 14.25-12.5 19.5-18.25 9.13-10 10.25-10.75 22.5-16 7.13-3 21.13-9.88 31.13-15.13 29.75-15.88 29-15.63 46.38-14.13 16.88 1.5 19.13 2.5 43 18.88 7.63 5.25 16.5 11.38 19.75 13.63 3.38 2.25 12.13 6 20 8.38 15.75 5 21.63 8.13 35.25 18.88 11.38 8.88 17.38 16.63 19.5 24.88 1.88 7.75.75 26.38-2.63 41.25-3.13 14.25-3.13 27.75 0 46.38 3.63 21.5 3.38 42.75-.63 58.13-1.75 6.5-4.63 14.38-6.5 17.5-4.63 8.13-33.13 35.63-41 39.38-3.5 1.75-13.13 4.88-21.25 6.88-8.25 2.13-16.63 4.38-18.5 5.25-2 .75-8.75 7.63-15.25 15.38-15.5 18.63-18 19.88-40 20.25-12.63.25-18-.25-24.13-2zm12.75-30.25c1.75-1.38 4.25-4.38 5.38-6.5 1.13-2.25 2.63-4.38 3.38-4.88 1-.75.88-1.38-.25-2.13-2.38-1.5.88-6.75 3.5-5.75 1.5.63 1.63.5.38-.75-2.5-2.5-1.88-3.75 1.25-3 1.63.5 5.38-.38 8.75-1.88 8.63-3.88 9.88-2.5 2.25 2.38-3.5 2.38-6.13 4.5-5.75 4.88 1.13 1.13 26.88-12.38 26.88-14.13 0-.88-1.25-2.5-2.75-3.63-2.88-2.13-2.88-2.13 1.13-1.5 4.13.63 6.88-1.25 4.13-3-1-.63-.38-3 2.38-8.63 4.13-8 9-12.13 18-15.25 3.13-1.13 4.63-2.38 4.63-4 0-2 .38-2.13 1.88-.88 1.13.88 1.88 1 1.88.25 0-.63 4.63-3 10.13-5.25 11.25-4.63 11.38-4.75 15.5-20.38 2.13-8 2.13-8.75.13-13l-2.13-4.5-4 3.63-3.88 3.63 3.38-4.63 3.5-4.75-3-4c-1.88-2.5-3.38-6.75-3.88-10.75-.75-6-.63-6.63 1.25-6.25 1.25.25 8 7.13 15.13 15.38 17.63 20.38 20.38 20.88 11.63 2.25-2.75-5.88-5-12.5-5-14.75 0-6 2.5-18.25 4.63-22.25 1.5-3.13 1.63-4.5.25-9.13-1-3-2.13-5.5-2.5-5.5-.5 0-2.63-1.5-4.75-3.25-3.25-2.63-3.63-3.75-3-7.13 1.25-6.63 2.75-8.75 4.88-7 1.13.88 1.63 2.63 1.25 4.13-.75 3 4.25 14.75 6.13 14.13.63-.25 2.25-5.25 3.38-11 1.25-5.75 3.63-15.13 5.38-20.63 4.38-14.25 4.25-15.5-3-22.75-6.88-6.88-13.88-12.25-13.88-10.63 0 .63 2.25 3.75 5 7.13 4.75 5.75 5.63 8.88 2 7.5-2-.75-6.38 5.63-4.88 7 .5.5 2 1.25 3.25 1.5 3.75.63 3 2.88-1.13 3.25-5.75.63-10-3.38-10.88-10.38-1.63-11.13-5.5-14-20.5-15.13-18.38-1.25-20-2-36.63-18.25-3.25-3.25-8.25-7-11-8.38-5.25-2.75-6.5-4.63-6.5-10.13 0-2.5-1.5-4.88-5.63-8.63-5.13-4.75-6.13-5.13-12.5-5.13-5.38 0-6.88.38-6.88 2 0 2.13-8.63 15.25-11.63 17.75-1.38 1.25-1.63 2.5-.88 5 2.38 8 1.25 7.5 18 6.88 12.25-.63 15.63-.38 17 1.13 1 1 2.75 2.13 4 2.5 1.13.5 2.75 2.38 3.75 4.38 1.38 3 3.75 4.25 17 8.63 23.25 7.75 26.13 9.88 31.5 22.5 3 6.88 3.25 12.13.63 14.25-1 .88-1.88 2.25-1.88 3-.13.75-2.5 4.5-5.38 8.25-6.25 8-15.25 13-25.5 14.25l-6.5.88-3.13-6c-1.63-3.25-4.75-7.63-6.75-9.5l-3.75-3.63-.75 9.25c-.5 5-1.13 10.5-1.38 12.25-.38 2.88.88 3.75 17 11.75 19.63 9.75 24.25 13.88 28.75 25.63 2 5.13 2.75 10 2.75 18.25.13 9.75-.38 12.25-3.25 18.63-7.5 16.13-19.63 26-38.13 30.88l-11.38 2.88-1.5 5.38c-.88 3.5-2.88 6.38-5.63 8.5-3.5 2.75-5.38 3.13-13.25 3.13-9.38-.13-19.25-1.5-20.75-3-.38-.5-1.13-3.75-1.5-7.25l-.63-6.5-9-2.13c-16-4-30.25-13.25-37.75-24.38-4.25-6.5-8.88-19.75-8.88-25.75 0-3.25.75-4 8.13-7.38 4.5-2 12-4.5 16.63-5.5 4.63-1.13 9.63-2.25 11.25-2.63 2.38-.5 4.75 1.25 13 9.63 6.25 6.25 10.5 9.63 11.13 9 .75-.75 1.13-6.13.88-12.13l-.38-10.88-10-4c-13.88-5.63-20.75-9.88-26.75-16.63-15.38-17.5-14.63-47.88 1.63-64.5 2.63-2.63 6.25-5.63 8.13-6.63 5.38-2.75 21.38-6.88 26.75-6.88 3.88 0 4.88-.5 5.88-3.25.75-1.75 1.25-5.5 1.25-8.25 0-4.88-.13-5-3.38-4.25-2 .5-5.13 1.25-7.25 1.63-2 .38-6.5 3.25-9.88 6.25-8.38 7.5-10.88 7.88-20.13 2.88-7.25-3.88-7.88-4-12.5-2.5-10.13 3.25-18.88 8.88-30.5 19.5-.25.25.13 1.25 1 2.25 1.13 1.38.75 2.5-1.75 5.5-1.88 2.13-4 3.63-5 3.25-2.75-1.13-4.13 3.38-6.13 20.25-1.25 10.75-3.5 21-6.5 30.5-4 12.63-5.13 15-9.75 19.38-7.88 7.25-10 14.13-9.13 28.5.75 13.25 1.13 14.88 5 16.5 1.5.75 3.88 3.5 5.38 6.25 1.38 2.75 3.88 5.63 5.63 6.38 13.5 6.25 15.88 8.38 12.25 10.63-2.38 1.38-1.63 2 14.38 11.75 11.13 6.88 14.25 8.25 17.25 7.63 3.5-.63 3.63-.5 3.25 2.88-.25 3.13 1.38 5.5 11.13 16 19.13 20.63 26 26.88 33 30.5 8.13 4.25 12.25 4.5 16.63 1zM230.38 266c15.38-3.38 33.38-22.75 33.38-36 0-5.5-3.25-4.88-4.38.88-.5 2.63-1.63 6.13-2.5 8-2.13 3.88-10.88 12.5-17.25 16.88-5.25 3.5-16.75 6.75-24.25 6.75-5.5 0-7.13 1.13-6 4 .88 2 10.63 1.88 21-.5zm74.88-4.25c9.5-4.75 9.88-8.38.75-5.5-11.13 3.25-18.5 6.5-18.5 8 0 2.5 10.75 1 17.75-2.5m-234-12.88c0-.75-.5-1.5-1.13-2-1.5-.88-4.5-10.38-6.38-19.88-.88-4-1.88-6.75-2.38-6.25-2 2.38-4.13 15.38-3.25 20 1.38 7.88 2.63 9.25 8.13 9.25 2.75 0 5-.5 5-1.13zm77.5-2.5c-.63-1.38-1.88-2.88-2.5-3.25-.75-.5-2.38-3-3.75-5.75-1.38-2.63-3.38-4.88-4.38-4.88-3.75 0-1.75 4.75 4.38 10.5 6.63 6.25 8.38 7.13 6.25 3.38m51.5-49.75c-1-3.13-21.63-12.5-32.38-14.75-4.63-.88-14.13-7.38-17.75-12.13-1.5-1.88-3.88-5.75-5.25-8.75-2.5-5.13-2.5-5.25-1.88-1.25 1.13 6.88 4.5 12.5 10.25 17.63 5.88 5.13 22 13.5 32.88 17.13l6.63 2.13-.88 17.63c-.5 9.75-1.13 18.75-1.38 20.13-.38 2.5-.38 2.5 1.38.13 1-1.38 1.88-4 1.88-5.88s.88-3.63 1.88-4.13c1.5-.5 1.88.5 1.88 4.75 0 3.13.38 6.63 1 7.88.88 2.25 2.63-37.5 1.75-40.5zm31.63 36.75c3.13-3 5.63-6.38 5.63-7.5 0-1.13-.25-2.13-.63-2.13-.75 0-12.38 12.5-12.88 13.88-1 2.75 2.63.75 7.88-4.25m-98.13-1.75c-1.38-2.13-1.38-2.13-.75 0 .38 1.25.88 3.25.88 4.38.13 1.88.25 1.88.75 0 .25-1.25-.13-3.13-.88-4.38m10.5-6c3.13-2.5 5.75-5.25 5.75-6.25 0-2.25-3.75-1-5.88 1.75-.75 1.13-1.75 1.63-2.25 1.13s-2.38.5-4.13 2.25c-1.88 1.63-3.88 3-4.63 3-1.63 0 2.13 2.5 3.88 2.5.75 0 4-2 7.25-4.38zm80.13-2c.63-2-1.5-8.25-2.38-7.13-.25.13-.75 2.75-1.25 5.63-.63 4.38-.5 5.13 1.13 4.63 1-.38 2.13-1.75 2.5-3.13m-138-56.38c2.63-4.75 3-7.25 3.38-20.38.13-8.25.63-16.25.88-17.75.38-1.63 8.25-8.88 19.63-18 10.5-8.5 23.63-19.5 29.25-24.38 12.13-11 15.13-12.38 23.13-10.5 6.88 1.63 8.5 1 14.75-5.5 7-7.25 4.63-7.38-17.88-.5-7.75 2.38-10.38 4.13-27 18.38-10.13 8.63-23.63 20.13-30.13 25.38s-14.5 12.25-17.88 15.5l-6.13 5.88.88 9.5c.38 5.25 1.13 13.63 1.63 18.63.38 4.88 1.13 9 1.63 9 .38 0 2.13-2.38 3.88-5.25zm116.38-36c-.25-.38-1.25.5-2.25 1.75-2.38 3.25-2.5 31.5-.13 32.38 1.13.38 1.63-3.75 2.13-16.5.38-9.38.5-17.25.25-17.63m-45.38 5.25c4.25-4.38 15.75-12.38 23.63-16.38 2.88-1.5 5.25-3 5.25-3.38 0-1.38-10.75 1.13-17.38 4.13-13.88 6-19.63 13.25-20.88 25.75l-.63 6.5 3.25-6.38c1.75-3.5 4.75-8.13 6.75-10.25zm110.5 4.75c5.5-7.38 5.38-7.75-4.38-17-7-6.63-13-9.5-31.63-14.88l-10-2.88-.38-5.13c-.25-3.38-1-5.13-2.13-5.13-2.25 0-3.38 4.38-2.88 10.75.38 4.5.75 4.88 5.38 5.88 7.63 1.63 20.75 6 25.75 8.5 5.5 2.75 13.5 10.75 14.38 14.63.5 1.5.13 3.63-.75 4.63-1.5 1.75-.63 6.88 1.13 6.88.38 0 3-2.88 5.5-6.25zm-61.63-36.88c.88-2.5 2.75-5 4.63-5.88 6.88-3.38 4.13-7-4-5.5l-4.38.88v8.13c0 8.75 1.38 9.63 3.75 2.38zm85.88-5.63c.88-3.13 1.63-3.13 7.75.13 2.88 1.38 5.75 2.38 6.63 2.13 1.63-.63-16.75-11-19.25-11-1 0-.75.63.63 1.38 3.75 2.13 2.5 4.75-2.5 5.13-4.88.38-7 2.88-3.25 3.88 5.63 1.5 9.38.88 10-1.63zm-120.38-4.88c.88-1.25-3.38-2.63-8.25-2.63-3.38 0-5.38 1.5-3.88 3 1.25 1.13 11.38.88 12.13-.38zm49.88-2.75c-.75-.75-2.38-1.13-3.63-.75-2 .5-1.88.63.5.75 1.5 0 2.75.75 2.75 1.63 0 .75.38 1 .88.63.5-.5.25-1.5-.5-2.25zm32.13-19.25c-3.75-3.75-7.38-6.88-8.13-6.88-1.75 0-8.5-6.88-8.13-8.38.25-1.88-7.38-2.63-8.75-1-1 1.25-.5 3.13 2.13 7.38 4.5 7.13 12.25 13.13 17.25 13.25 2.13 0 4.63.63 5.63 1.25 1 .63 3 1.25 4.38 1.25 1.88 0 .88-1.5-4.38-6.88z"/><path d="M85.13 235.38c-.88-.38 2.75-2.38 8-4.5l9.88-3.75 2.88 3.38c4.13 4.75 3.63 6.88-.75 2.75l-3.5-3.38-7.25 3.13c-4 1.88-7.25 3.25-7.38 3.13 0 0-.88-.38-1.88-.75zM95.25 206c-1.75-2.25-6.5-13.5-6.5-15.38 0-1 1.88-2.88 4.25-4.25 5-3.13 6.88-6.88 11.13-21.5 3.75-12.88 7.5-20.5 11-22.38 1.38-.75 3-2.75 3.63-4.5 1.5-3.88 3.13-3 4.13 2 1.25 5.63-3.13 15.88-9.75 23.13-6.88 7.38-7.88 10.75-5.13 16.5 2 4.13 2 4.38-.63 6.5-2.88 2.38-2.38 5.13.88 5.13 1.63 0 1.63.25-.13 2-2.5 2.5-.25 5.75 3.63 5.25 3.13-.5 4-3.75 1.75-6.13-1.75-1.88-2.5-6.13-1.13-6.13 1.5 0 7.63 10.38 6.88 11.5-.88 1.38-19 9.75-21.13 9.75-.88 0-2.13-.75-2.88-1.5z"/></g><g fill="#fec616"><path d="M187.13 357.5c-9.38-1.63-20.88-8.38-38.88-22.88-18.5-14.88-21.25-18.75-21.25-31.13 0-11.5 1.13-11 24.63 12.38 11.75 11.75 23.38 22.38 25.63 23.63 2.13 1.25 4 2.75 4 3.38 0 1.5 8.25 0 12.5-2.25 1.75-.88 4.5-3.13 6.25-5l3.13-3.5-5.63 3.5c-8 5-14.75 5.5-21.5 1.5-3.13-1.75-12.88-11.25-22.25-21.75-19-21.13-24.25-27.5-12.75-15.5 24.75 25.75 30 30.63 36.75 34 4 2 8.5 3.63 10.13 3.63 3.88 0 9.13-4.13 11.75-9.13 1.13-2.25 2.63-4.38 3.38-4.88 1-.75.88-1.38-.25-2.13-1.5-.88-1.5-1.5 0-3.75 2.25-3.63 4-2.63 4.75 2.38l.63 4.25 1.5-3.38c.88-1.88 2.38-3.38 3.38-3.38 1.13 0 7.38-2.75 14.13-6.25 6.75-3.38 12.38-6.25 12.5-6.25 1.38 0 0 13.75-1.63 16-1.13 1.63-1.75 3.13-1.38 3.5 1.75 1.75 7.13-11.38 7.13-17.63 0-3.5 1.38-5.38 10-13.13 10-9 14.25-15.13 5.38-7.5-2.63 2.13-6.13 5-7.63 6.38-1.63 1.25-3.63 2-4.25 1.5-.75-.38-1-.25-.63.38.38.75-.38 2-1.88 2.88-1.75 1.13-2.25 1.13-1.63.13.5-.88.25-2-.63-2.5-2.13-1.25 5.13-15.25 9.63-18.5 3.63-2.5 12.25-6.5 14.25-6.5.63 0 1.13 1.75 1.13 3.88v3.75l4.75-3.5c7.13-5.38 8.25-7.75 2.38-5.5-1.75.63-3.38.88-3.75.5-1.88-1.75 1.5-4.25 10.63-8 11.13-4.5 11.25-4.63 15.38-20.25 2.13-8 2.13-8.75.13-13-1.13-2.38-1.88-4.63-1.63-4.88.25-.38-1.25-2.5-3.5-4.75-3.13-3.25-4.13-5.75-4.75-10.88-.5-3.63-.63-6.88-.25-7.13 1.38-1.5 5.13 2 17 15.88 7.13 8.38 13.63 15.13 14.38 15.13.88 0 1.88 1 2.13 2.25.38 1.13.63-.5.75-3.63.13-3.63-1.5-10.38-4.38-18.75-5.25-14.75-5.88-23.25-2.5-29.75 1.88-3.63 2-4.75.63-9.63-1-3-2.13-5.5-2.5-5.5-.5 0-2.63-1.5-4.75-3.25-3.25-2.63-3.63-3.75-3-7.13 1.25-6.63 2.75-8.75 4.88-7 1.13.88 1.63 2.63 1.25 4.13-.75 3 4.25 14.75 6.13 14.13.63-.25 2.25-5.25 3.38-11 1.25-5.75 3.63-15.13 5.38-20.63 4.38-14.25 4.25-15.5-3-22.75-6.88-6.88-13.88-12.25-13.88-10.63 0 .63 2.25 3.75 5 7.13 4.75 5.75 5.63 8.88 2 7.5-2-.75-6.38 5.63-4.88 7 .5.5 2 1.25 3.25 1.5 3.75.63 3 2.88-1.13 3.25-5.75.63-10-3.38-10.88-10.38-1.63-11.13-5.5-14-20.5-15.13-18.38-1.25-20-2-36.63-18.25-3.25-3.25-8.25-7-11-8.38-5.25-2.75-6.5-4.63-6.5-10.13 0-2.5-1.5-4.88-5.63-8.63-5.13-4.75-6.13-5.13-12.5-5.13-6.5 0-7.5.63-7 4 0 .5-.63.63-1.5.25-2.25-.75-6.5 4.38-8.38 10.25-.88 2.75-2 5.5-2.5 6.13-.63.75-.25 3.5.75 6.25s2 5.5 2.13 6.13c.25 1.13-4.13 2.63-12.25 4.13-2 .38-6.5 3.25-9.88 6.25-8.38 7.5-10.88 7.88-20.13 2.88-7.25-3.88-7.88-4-12.5-2.5-10.13 3.25-18.88 8.88-30.5 19.5-.25.25.13 1.25 1 2.25 1.13 1.38.75 2.5-1.75 5.5-1.88 2.13-4 3.63-5 3.25-2.75-1.13-4.13 3.38-6.13 20.25-1.25 10.75-3.5 21-6.5 30.5-4 12.63-5.13 15-9.75 19.38-7.88 7.25-10 14.13-9.13 28.5.75 13.25 1.13 14.88 5 16.5 1.5.75 3.88 3.5 5.38 6.25 1.38 2.75 3.88 5.63 5.63 6.38 13.63 6.38 15.88 8.25 12.25 10.63-2.25 1.5-.75 2.63 14.88 12 6.38 3.88 11.25 7.25 11 7.63-.75.63-14.5-5.88-20.75-9.88-6-3.88-3.5-1.5 6.25 6 4.5 3.38 10 6.88 12.25 7.88 3.5 1.38 4 2.13 3.25 4.25-.5 1.5-1.13 6.75-1.38 11.75-.38 4.88-1.13 9-1.88 9-2.13 0-26.38-19-34.13-26.88-8.75-8.75-17.63-20-23-29.25-2.13-3.5-3.88-6.75-3.88-7 0-.38 2.25-.63 5.13-.63 2.75 0 4.88-.38 4.63-.88-3-6-5.13-11.88-6.63-19.25-1-4.88-2.25-9.38-2.63-10-.38-.63.88-4.63 2.75-8.88 12.38-29.25 12.13-28.38 11.25-38.5-2.63-30.25-2.5-34.75.5-39 3.38-4.75 16-16.13 35.63-31.75 7.63-6 18.38-15.13 24.13-20.13 10.75-9.5 13.38-11 38.38-21.63 15.25-6.5 26-12.5 29.38-16.5 1.38-1.63 4.13-2.38 10.63-2.5 8.63-.38 9.13-.25 17.5 5.25 4.88 3 15.88 11.25 24.63 18.38 16.88 13.63 18.5 14.63 41.5 23.63 16 6.25 28.63 14.38 36.38 23.25 4.13 5 4.38 5.63 4.38 14.88 0 6-1.5 17.13-4 29.5l-4.13 19.75.38 43.88.38 43.75-5.25 6.63c-6.5 8.13-32.25 30.75-44.25 38.63-4.75 3.25-13.25 7.5-18.75 9.5-11.75 4.25-14.63 6.25-32.5 23-7.5 7.13-15.88 14.13-18.38 15.38-5 2.5-14.13 2.88-25.13 1.13zm127-93.75c10.5-7.25 14.5-15.13 10.25-20.75-1.63-2.25-1.75-1.88-1.88 3.5v6l-13.75 11.38c-7.5 6.25-13.75 11.5-13.75 11.75 0 .5 10.25-5.88 19.13-11.88m-8.88-2c9.5-4.75 9.88-8.38.75-5.5-11.13 3.25-18.5 6.5-18.5 8 0 2.5 10.75 1 17.75-2.5m20-72.63c-1.38-2-3-5.75-3.5-8.5-.75-4.13-1-4.5-1.88-2.5-.5 1.38-1 5.13-1 8.38-.13 4.63.25 5.75 1.63 5.25 1-.38 2.88-.13 4.13.5 3.25 1.88 3.5.88.63-3.13zM86.37 167.24c2.63-4.75 3-7.25 3.38-20.38.13-8.25.63-16.25.88-17.75.38-1.63 8.25-8.88 19.63-18 10.5-8.5 23.63-19.5 29.25-24.38 12.13-11 15.13-12.38 23.13-10.5 6.88 1.63 8.5 1 14.75-5.5 7-7.25 4.63-7.38-17.88-.5-7.75 2.38-10.38 4.13-27 18.38-10.13 8.63-23.63 20.13-30.13 25.38s-14.5 12.25-17.88 15.5l-6.13 5.88.88 9.5c.38 5.25 1.13 13.63 1.63 18.63.38 4.88 1.13 9 1.63 9 .38 0 2.13-2.38 3.88-5.25zm242.25-23.38c.88-2.88 1.25-5.63 1-5.88-.38-.38-1.75 4-3.38 9.5-2 7.63-2.38 11.5-1.75 15.38 1 5 1.13 4.88 1.88-4.13.38-5.13 1.38-11.88 2.25-14.88zm-36.5-45.13c.88-3.13 1.63-3.13 7.75.13 2.88 1.38 5.75 2.38 6.63 2.13.75-.25-3.5-3.25-9.5-6.5s-11.25-5.75-11.63-5.38c-.25.38.63 1.25 2 2.13 4.25 2.13 3.25 4.75-2 5.25-4.88.38-7 2.88-3.25 3.88 5.63 1.5 9.38.88 10-1.63zm-120.38-4.88c.88-1.25-3.38-2.63-8.25-2.63-3.38 0-5.38 1.5-3.88 3 1.25 1.13 11.38.88 12.13-.38zm102.5-8.25c-2.88-.88-6.5-2.38-8.13-3.13-2.25-1.13-2.63-1.25-1.63 0 1.63 1.63 10.25 4.88 13 4.88 1-.13-.5-.88-3.25-1.75zm-20.5-13.75c-3.75-3.75-7.38-6.88-8.13-6.88-1.75 0-8.5-6.88-8.13-8.38.25-1.88-7.38-2.63-8.75-1-1 1.25-.5 3.13 2.13 7.38 4.5 7.13 12.25 13.13 17.25 13.25 2.13 0 4.63.63 5.63 1.25 1 .63 3 1.25 4.38 1.25 1.88 0 .88-1.5-4.38-6.88z"/><path d="M167.88 302.88c-4.13-.75-3.5-2.13 1.5-4 5.25-1.88 9.63-.75 9.13 2.13-.38 2.13-5.13 3-10.63 1.88zM196.5 284c-7.13-.38-8-.63-9.13-3.5-.63-1.75-.88-3.63-.5-4.25.38-.5.25-2.63-.13-4.75-.75-3.5-1.25-3.75-7.88-4.5-20.25-2.38-35.75-10.88-42-23.25-1.75-3.5-2.63-6.25-2-6.25s1.5 1.13 2 2.5c1.25 3.88 10.38 11 17 13.13 8 2.63 10.75 1.75 3.38-1-5.75-2.25-11.25-7.88-15.25-15.5-2-4.13-5.13-5.38-6-2.75-.25.75-1.13-.13-2-1.88-1.38-3.13-1.25-3.25 1.38-2.63 2 .5 4.5-.5 8.75-3.75 3.25-2.5 5.88-5.25 5.88-6.25s2-2 5-2.5c4.88-.88 5.25-.63 12.88 7.13 4.75 4.88 10.38 9.13 14.5 11l6.63 3 2.38-2.88c1.25-1.63 2.38-4.5 2.38-6.38 0-2 .88-3.75 1.88-4.25 1.5-.5 1.88.5 1.88 5.25 0 3.25.5 6.63 1.13 7.63 1.13 1.75 2.63-37.25 1.63-40.75-.88-3.13-21.63-12.5-32.38-14.75-4.63-.88-14.13-7.38-17.75-12.13-8.63-10.88-10-24.5-3.75-37.13 2.13-4.13 5.63-9 7.88-10.75 7.88-6 19.88-10.63 32.13-12.25l11.75-1.63.75-8.38c.38-4.63 1-8.63 1.38-9.13 1.5-1.5 14.38-2 15.25-.63.5.75 2 1.38 3.38 1.38 1.5 0 2.38.88 2.38 2.5 0 1.38-.88 2.5-1.88 2.5-2.25 0-3.38 4.25-2.88 10.75.38 4.5.75 4.88 5.38 5.88 7.63 1.63 20.75 6 25.75 8.5 5.5 2.75 13.5 10.75 14.38 14.63.5 1.5.13 3.63-.75 4.63-1.25 1.5-1.25 2.63-.25 5 1.25 2.75 1 3.38-2.63 6.13-2.25 1.63-6 3.38-8.38 3.88-4.25.75-4.63.5-8.63-5.75-3.38-5-5.63-7-11-9.38-12.38-5.5-12.5-5.25-13.63 17.63l-.75 15 13.5 6.88c22 11.13 31.25 22.38 33.88 40.75.63 4.38.38 5.5-1.25 5.5-1.13 0-2.13 1.75-2.75 4.63-1.25 6.75-3.5 10.63-9.75 16.5-10.88 10.38-17.38 13.5-31.88 14.88-7.5.88-8.38 1.13-8.13 3.5.38 4-2.75 18.5-4.13 18.63-.63 0-4.63-.13-9-.38zm35.38-50.63c3.13-3 5.63-6.38 5.63-7.5 0-1.13-.25-2.13-.63-2.13-.75 0-12.38 12.5-12.88 13.88-1 2.75 2.63.75 7.88-4.25m-8.38.38c2.25-1.38 5-4.38 6.13-6.75 1.88-4 1.88-4.5-.5-9-2.5-4.88-6.63-8.5-11.13-9.75-2.5-.75-2.63-.25-3.75 13.13-.63 7.63-.88 14-.63 14.38 1.25 1.25 6.13.25 9.88-2zM195.37 151c.5-8.38.63-15.38.38-15.63-1-1.13-12 4.5-15.13 7.63-4.5 4.5-4.38 11.63.38 16 4.88 4.5 9.25 7.25 11.63 7.25 1.63 0 2.13-2.38 2.75-15.25zm7.38-19.75c-.25-.38-1.25.5-2.25 1.75-2.38 3.25-2.5 31.5-.13 32.38 1.13.38 1.63-3.75 2.13-16.5.38-9.38.5-17.25.25-17.63m-45.38 5.25c4.25-4.38 15.75-12.38 23.63-16.38 2.88-1.5 5.25-3 5.25-3.38 0-1.38-10.75 1.13-17.38 4.13-13.88 6-19.63 13.25-20.88 25.75l-.63 6.5 3.25-6.38c1.75-3.5 4.75-8.13 6.75-10.25zm48.88-32.13c.88-2.5 2.75-5 4.63-5.88 6.88-3.38 4.13-7-4-5.5l-4.38.88V102c0 8.75 1.38 9.63 3.75 2.38zm23.38 176.13c-1.13-1.25.25-3 2.38-3 1 0 1.75.88 1.75 1.88 0 1.88-2.63 2.63-4.13 1.13zm-98.25-16.75c-2-1.13-.75-3.75 1.88-3.75 1.88 0 2.5 3.13.75 4.25-.5.25-1.75.13-2.63-.5"/><path d="M132.5 226.25c0-.63.63-1.25 1.38-1.25s2.13-.88 3.25-1.88c1-1.13 2.25-1.75 2.63-1.38.63.75-4.75 5.63-6.25 5.75-.63 0-1-.5-1-1.25zm-45-18c0-1 .88-2 1.88-2.5 1.13-.38 1.88 0 1.88 1s-.88 2-1.88 2.5c-1.13.38-1.88 0-1.88-1m7.75-2.25c-1.75-2.25-6.5-13.5-6.5-15.38 0-.88 1.63-2.63 3.63-4 7.63-4.88 12-13 18.88-35.5 1.38-4.63 3.38-8.75 4.38-9.13 1.13-.38 2.5-2.13 3.13-3.88 1.5-4 3.13-3.25 4.13 1.88 1.25 5.63-3.13 15.88-9.75 23.13-6.88 7.38-7.88 10.75-5.13 16.5 2 4.13 2 4.38-.63 6.5-2.88 2.38-2.38 5.13.88 5.13 1.63 0 1.63.25-.13 2-2.5 2.5-.25 5.75 3.63 5.25 3.13-.5 4-3.75 1.75-6.13-1.75-1.88-2.5-6.13-1.13-6.13 1.5 0 7.63 10.38 6.88 11.5-.88 1.38-19 9.75-21.13 9.75-.88 0-2.13-.75-2.88-1.5zm180.38-33.5c-.5-.88-.38-2 .38-2.75 1.75-1.75 5.63-.25 5 1.88-.75 2-4.25 2.63-5.38.88z"/></g><g fill="#a15525"><path d="M187.13 357.5c-9.38-1.63-20.88-8.38-38.88-22.88-18.5-14.88-21.25-18.75-21.25-31.13 0-11.5 1.13-11 24.63 12.38 11.75 11.75 23.38 22.38 25.63 23.63 2.13 1.25 4 2.75 4 3.38 0 1.5 8.25 0 12.5-2.25 1.75-.88 4.5-3.13 6.25-5l3.13-3.5-5.63 3.5c-8 5-14.75 5.5-21.5 1.5-3.13-1.75-12.88-11.25-22.25-21.75-19-21.13-24.25-27.5-12.75-15.5 24.75 25.75 30 30.63 36.75 34 11.63 5.88 13.5 5.25 25.25-9.5 3.13-3.88 3.88-4.25 4.5-2.5.63 1.75 1 1.63 2.25-1.13.75-1.75 2.25-3.25 3.25-3.25 1.13 0 7.38-2.75 14.13-6.25 6.75-3.38 12.38-6.25 12.5-6.25 1.38 0 0 13.75-1.63 16-1.13 1.63-1.75 3.13-1.38 3.5 1.75 1.75 7.13-11.38 7.13-17.63 0-3.5 1.38-5.38 10-13.13 5.5-5 10-9.63 10-10.38s-1.63.13-3.5 2c-1.88 1.88-3.88 3.38-4.38 3.38-1.25 0 11.13-11.13 16.63-15 2.38-1.63 5.38-4.25 6.5-5.75 2.13-2.63 8.5-4.88 8.5-3 0 .5 2.63.63 6 .25 5.63-.5 13.75-3.75 17.75-7.13 3.63-2.88 11.63-7.38 10.75-5.88-.5.75-6.75 6.25-13.88 12.25-7.25 5.88-13.13 11-13.13 11.38 0 .5 1-.13 2.25-1.13 1.13-1 6.5-4.5 11.75-7.75 15.88-9.63 19.5-15.88 14.88-25.13-1.63-3.25-2.63-7.63-2.63-11.63s-1.38-10.25-3.63-16.5c-5.88-16.13-6.88-22.38-4.38-28.88 2.25-5.88 2.63-10.25 1.13-14.38-.63-2-.25-2.75 1.5-3.25 1.88-.5 2.88-3 4.5-11.5 1.25-5.88 3.5-15.13 5.25-20.5 4.38-13.75 4.25-15.25-3.13-22.63-3.38-3.5-8.63-7.88-11.5-9.88-9.38-6.25-24.63-14.25-26-13.38-.63.38-1.25.13-1.25-.75 0-.75-1-1.13-2.5-.75-1.38.38-2.5.13-2.5-.63 0-.75-1.13-1-2.5-.63-1.38.38-2.25.13-1.75-.5.63-1-2.25-1.63-6.63-1.5-.88.13-1.25-.38-.88-1 .38-.63 0-1.13-.75-1.13s-9.25-7.5-18.88-16.75c-20.38-19.75-25-22.38-36.75-21.75-6.38.25-7.75 0-6.5-1.13.88-.88 5.5-1.75 10.38-1.88 8.5-.38 9-.25 17.38 5.25 4.88 3 15.88 11.25 24.63 18.38 16.88 13.63 18.5 14.63 41.5 23.63 16 6.25 28.63 14.38 36.38 23.25 4.13 5 4.38 5.63 4.38 14.88 0 6-1.5 17.13-4 29.5l-4.13 19.75.38 43.88.38 43.75-5.25 6.63c-6.5 8.13-32.25 30.75-44.25 38.63-4.75 3.25-13.25 7.5-18.75 9.5-11.75 4.25-14.63 6.25-32.5 23-7.5 7.13-15.88 14.13-18.38 15.38-5 2.5-14.13 2.88-25.13 1.13zm138.13-168.38c-1.38-2-3-5.75-3.5-8.5-.75-4.13-1-4.5-1.88-2.5-.5 1.38-1 5.13-1 8.38-.13 4.63.25 5.75 1.63 5.25 1-.38 2.88-.13 4.13.5 3.25 1.88 3.5.88.63-3.13zm3.38-45.25c.88-2.88 1.25-5.63 1-5.88-.38-.38-1.75 4-3.38 9.5-2 7.63-2.38 11.5-1.75 15.38 1 5 1.13 4.88 1.88-4.13.38-5.13 1.38-11.88 2.25-14.88zM106.25 302.5c-14.63-11.38-22.13-18.75-31.88-31.38-4.88-6.25-13.13-19.13-13.13-20.5 0-.38 2.25-.63 5-.63 4 0 7 1.38 14.13 6.13 10.5 7.13 30.13 19.5 38.75 24.5 3.25 1.88 5.75 3.75 5.38 4-.75.75-14.38-5.75-20.75-9.75-6-3.88-3.5-1.5 6.25 6 4.5 3.38 10 6.88 12.25 7.88 3.5 1.38 4 2.13 3.25 4.25-.5 1.5-1.13 6.75-1.38 11.75-.38 5.75-1.13 9-2 9-.88-.13-8-5.13-15.88-11.25z"/><path d="M243.38 297.38c1.5-1.88 9.13-6.63 9.13-5.75 0 .25-2.38 2.13-5.25 4-3 2-4.75 2.75-3.88 1.75m-28-13.13c1.25-6.63 3.25-10.5 5.38-10.5 2.25 0 1.75 3.88-1.13 9.88-2.25 4.63-5.13 5.13-4.25.63zM196.5 284c-7.13-.38-8-.63-9.13-3.5-.63-1.75-.88-3.63-.5-4.25.38-.5.25-2.63-.13-4.75-.75-3.5-1.25-3.75-7.88-4.5-20.25-2.38-35.75-10.88-42-23.25-1.75-3.5-2.63-6.25-2-6.25s1.5 1.13 2 2.5c2 6.5 16.75 14.75 26.38 14.75 2.13.13 6.13 1.25 8.88 2.75 2.75 1.38 9 3.38 13.63 4.25 9.25 1.63 9.25 1.75 7.25 9.88-1.25 5.13 1.25 7.13 8.5 7.13 5.63 0 6.13.25 5.75 2.75-.5 3.13-.5 3.13-10.75 2.5zm44.13-15.12c.38-.75 1.5-1.38 2.25-1.38 2.63 0 14.38-12.13 19.5-20 2.63-4.13 5.88-11.13 7.13-15.75 1.88-7.25 2-9.5.75-17-1.75-10.38-6.13-19.25-13-26.75-5.75-6.25-5.5-6.75 1.5-2.38 10.88 6.88 16.75 19.75 16.75 36.88 0 8.88-.63 11.88-3.38 17.88-4.25 9.38-9.38 15.88-17 21.38-6.38 4.75-16 9.38-14.5 7.13zM97.5 255.63c-.88-1-2-1.63-2.5-1.25s-.88-.75-.88-2.5.38-2.75 1-2.38c.63.38 1.13 1.25 1.13 2s.88 2.5 2.13 3.75c1.13 1.25 1.75 2.25 1.38 2.25-.38 0-1.38-.88-2.25-1.88zm114.63-15.25c-1.13-1-1.13-19.63-.13-32l.88-9.5 3.88.75c11.13 2.13 18.13 8.75 19.13 18.38.63 5.38.38 5.88-5.75 12.38-3.5 3.75-6.38 7.38-6.38 8 0 2.5-9.63 4.13-11.63 2zm11.38-6.63c2.25-1.38 5-4.38 6.13-6.75 1.88-4 1.88-4.5-.5-9-2.5-4.88-6.63-8.5-11.13-9.75-2.5-.75-2.63-.25-3.75 13.13-.63 7.63-.88 14-.63 14.38 1.25 1.25 6.13.25 9.88-2zm-9.26-74c.5-6.38 1.13-15.5 1.63-20.13l.75-8.5 3.75.88c7.88 1.75 19.13 7.88 24.63 13.5 5.88 6.13 9 7 13.5 3.75 4.63-3.25 4.63-1.13 0 2.38-2.25 1.75-6.13 3.5-8.5 4-4.25.75-4.63.5-8.63-5.75-3.38-5-5.63-7-11-9.38-12.25-5.5-12.5-5.13-13.75 16.75-.38 7.75-1.25 14-2 14s-.88-4.38-.38-11.5"/><path d="M222.88 166.75c-.75-2 .5-21.88 1.5-22.75.25-.38 1.38-.25 2.5.25 1.75.63 2 2.13 1.25 10.5-.5 5.25-1.13 10.63-1.38 11.88-.88 2.63-2.88 2.75-3.88.13zm32.87-6.5c2.13-1.13 5.25-3.25 6.88-4.63 5.38-4.38 16.13-18.5 16.13-21.25 0-3.63-6.13-13-11.38-17.38-4.88-4.25-12.63-7.75-27-12.5-5.75-1.88-10.63-3.88-10.88-4.25-.25-.5-.88-3.63-1.38-7-1-6.88 1-7.5 4.38-1.25 1.75 3.13 4.25 4.38 17.38 8.75 23.13 7.88 26 9.88 31.38 22.5 3 6.88 3.25 12.13.63 14.25-1 .88-1.88 2.25-1.88 3-.13 3.75-11.13 15.25-17.5 18.5-7.38 3.75-13.13 4.75-6.75 1.25zm-79.62-1.75c-2.5-4.63-2.13-12.88.88-16.88 3.63-4.88 10.25-9.13 14.38-9.13 5.63 0 5.25 2-.75 4.25-8.5 3.25-13.13 8.25-13.13 14 0 3.13.88 5.75 2.75 7.63l2.63 2.88h-2.63c-1.5 0-3.38-1.25-4.13-2.75m-33.5-14.87c-.13-4.88 7-18.25 11.63-21.75 7.88-6 19.88-10.63 32.38-12.25 13.63-2 16.75-.75 3.75 1.25-16.63 2.63-33.13 11-39.5 19.88-2.25 3-5 7.88-6.13 10.88-1.75 4.38-2.13 4.75-2.13 2z"/></g><g fill="#783e1b"><path d="M187.25 357.5c-7.5-1.25-18.38-6.75-27.75-13.75-6-4.63-6.88-5.63-5-6.38 1.38-.38 4.88.13 7.88 1.38 5.38 2.13 5.75 2.13 10-.5 2.63-1.5 3.88-1.88 3.25-.75-.75 1.25-.5 1.5 1.13.88 1.13-.5 1.88-.38 1.5.13-1.13 2 4.38 5.5 7.38 4.75 1.63-.38 6-.13 9.63.75 8.63 1.88 15.38 1.75 19.38-.38 3.75-2 12.25-10.13 11.88-11.38-.13-.5 1.13-2 2.88-3.25 1.63-1.38 2.63-2.75 2.25-3.25-.38-.38.63-.75 2.38-.75 3.75 0 6.25-3.25 8.5-11 2.13-6.75 7.5-13.13 13.88-16.25 5.38-2.63 8.63-2.5 8.63.5 0 1 .5 1.75 1.13 1.75 2.25 0 11.25-5.5 10.63-6.5-.38-.5 0-1 .75-1s1-.63.63-1.25c-.38-.75.13-1.63 1.13-2 1.13-.38 1.75-1.25 1.38-1.75-.38-.5 1.5-2.88 4.13-5.13 2.5-2.25 4.5-4.63 4.38-5.13-.25-.5.63-1.13 1.88-1.25 4.75-.38 3 .5 21.75-11.25 5.75-3.63 10-7.88 13-13 2.25-3.88 5.5-.13 5.5 6.38 0 7.13-5.88 14.38-25.38 31.38-19.25 16.75-30.25 24.13-42.75 28.5-11.75 4.25-14.63 6.25-32.5 23-7.5 7.13-15.88 14.13-18.38 15.38-5 2.5-14.13 2.88-25 1.13zm-72.87-48.75c-3.38-2.63-6.38-5.38-6.63-6.13s1.88-1.13 5-.88c3 .25 6.63.5 8.25.5 2.38.25 2.75.88 2.75 5.88 0 7-1.13 7-9.38.63zm8.37-14.5c-.88-1-1.25-1.75-.75-1.75.38 0-.5-1.13-2.13-2.5-3.38-2.75-1.63-3.25 3.25-1 3.13 1.38 3.75 3 2.13 5.5-.63 1.13-1.38 1-2.5-.25"/><path d="M295.63 271.38c0-2.5 1.38-4 6.88-7.25 3.75-2.25 7.25-4.13 7.75-4.13 2.5 0 .38 2.5-6.88 8.38-7.63 6.13-7.88 6.25-7.75 3m27.87-71c-3.38-8.75-3.13-10.38 1.5-7.88 2.38 1.25 2.5 1.13 1.75-1.75-.5-2.38-.25-3.25 1.13-3.25 1.5 0 1.88 2.13 2 10.63.25 13.38-1.75 14-6.38 2.25m-2.75-30c-3-3-3.13-3.38-1.38-5.38 1.63-1.75 1.75-2.38.38-3-.88-.38-.25-.5 1.5-.38 2.25.13 3.25 1.13 3.5 3.13.25 1.5 1 2.5 1.63 2 .63-.38 1 1 .88 3.13-.38 4.75-2.13 4.88-6.5.5zm-105.87-3.13c-.38-2.75-.13-4.25.5-3.63.63.63.88 2.63.63 4.63-.38 3.38-.5 3.25-1.13-1M329.5 116c-1.13-.63-2-1.88-2-2.88s-3.5-5.25-7.63-9.38c-4.25-4.25-7.38-7.88-7-8.25 1.5-1.63 20.88 13.63 23.38 18.38 1 1.63.63 2.25-1.75 2.63-1.63.38-3.88.13-5-.5"/></g></svg>
