<svg version="1.0" xmlns="http://www.w3.org/2000/svg" width="400px" height="400px" viewBox="0 0 400 400" preserveAspectRatio="xMidYMid meet">
 <g fill="#fffffe">
  <path d="M183.13 398.63 c-108.50 -9 -190.50 -105.50 -181.75 -213.88 3.88 -48 23 -90 56.75 -124.25 89.38 -90.63 238.13 -76.25 308.25 30 33.88 51.25 42.13 116.88 22.13 174.38 -29.88 86 -114.88 141.38 -205.38 133.75z"/>
 </g>
 <g fill="#f4aa1c">
  <path d="M181.50 365.13 c-4.25 -1.25 -10.25 -3.88 -13.25 -5.88 -60.63 -40.13 -60.63 -40.13 -80.50 -59.75 -27.38 -26.88 -39 -43.88 -39 -56.88 0 -2.63 2.38 -15.50 5.13 -28.38 4.88 -22 5.25 -25.38 6.13 -49.88 1 -34.13 2 -37.50 15 -51.13 5.13 -5.38 13.88 -13.38 19.38 -17.63 5.50 -4.38 14.25 -12.50 19.50 -18.25 9.13 -10 10.25 -10.75 22.50 -16 7.13 -3 21.13 -9.88 31.13 -15.13 29.75 -15.88 29 -15.63 46.38 -14.13 16.88 1.50 19.13 2.50 43 18.88 7.63 5.25 16.50 11.38 19.75 13.63 3.38 2.25 12.13 6 20 8.38 15.75 5 21.63 8.13 35.25 18.88 11.38 8.88 17.38 16.63 19.50 24.88 1.88 7.75 0.75 26.38 -2.63 41.25 -3.13 14.25 -3.13 27.75 0 46.38 3.63 21.50 3.38 42.75 -0.63 58.13 -1.75 6.50 -4.63 14.38 -6.50 17.50 -4.63 8.13 -33.13 35.63 -41 39.38 -3.50 1.75 -13.13 4.88 -21.25 6.88 -8.25 2.13 -16.63 4.38 -18.50 5.25 -2 0.75 -8.75 7.63 -15.25 15.38 -15.50 18.63 -18 19.88 -40 20.25 -12.63 0.25 -18 -0.25 -24.13 -2z m53.50 -81.50 c0 -1.50 -0.88 -2.38 -2.50 -2.38 -2.75 0 -3.63 4.38 -0.88 5.38 2.25 0.75 3.38 -0.25 3.38 -3z m-35.38 -87.63 c-0.50 -1.25 -1.63 -2.25 -2.38 -2.25 -1.63 0 -0.63 39 1.13 43.25 0.63 1.38 1.25 -6.25 1.63 -18.25 0.38 -11.38 0.25 -21.63 -0.38 -22.75z m32.25 37.38 c3.13 -3 5.63 -6.38 5.63 -7.50 0 -1.13 -0.25 -2.13 -0.63 -2.13 -0.75 0 -12.38 12.50 -12.88 13.88 -1 2.75 2.63 0.75 7.88 -4.25z m-87.63 -7.88 c3.25 -2.50 5.75 -4.75 5.38 -5 -0.88 -0.88 -11.25 3.25 -13.63 5.38 -2.38 2.13 -2 4.13 0.75 4.13 0.88 0 4.25 -2 7.50 -4.50z m-50.50 -14.88 c0 -2.13 -4.50 -2.50 -5.63 -0.63 -0.50 0.75 -0.50 2.25 -0.13 3.25 0.50 1.50 1.25 1.63 3.25 0.50 1.38 -0.75 2.50 -2.13 2.50 -3.13z m18 -20.50 c1.13 -1.75 -0.50 -5.13 -2.38 -5.13 -2.13 0 -4.75 3.38 -3.75 5 1 1.50 5.25 1.63 6.13 0.13z m-25.38 -22.88 c2.63 -4.75 3 -7.25 3.38 -20.38 0.13 -8.25 0.63 -16.25 0.88 -17.75 0.38 -1.63 8.38 -8.88 19.63 -18.13 10.50 -8.38 23.75 -19.38 29.38 -24.38 12.25 -11 15 -12.25 23 -10.38 6.88 1.63 8.50 1 14.75 -5.50 7 -7.25 4.63 -7.38 -17.88 -0.50 -7.50 2.25 -10.38 4.13 -21.75 14 -7.13 6.25 -18.50 15.75 -25.13 21.13 -17.88 14.63 -30.50 25.88 -32.63 29.13 -1.50 2.50 -1.50 4.88 -0.25 16.50 0.88 7.38 1.50 15.25 1.50 17.50 0 5.38 1.50 5 5.13 -1.25z m116.38 -36 c-0.25 -0.38 -1.25 0.50 -2.25 1.75 -2.38 3.25 -2.50 31.50 -0.13 32.38 1.13 0.38 1.63 -3.75 2.13 -16.50 0.38 -9.38 0.50 -17.25 0.25 -17.63z m-45.38 5.25 c4.25 -4.38 15.75 -12.38 23.63 -16.38 2.88 -1.50 5.25 -3 5.25 -3.38 0 -1.38 -10.75 1.13 -17.38 4.13 -13.88 6 -19.63 13.25 -20.88 25.75 l-0.63 6.50 3.25 -6.38 c1.75 -3.50 4.75 -8.13 6.75 -10.25z m48.88 -32.13 c0.88 -2.50 2.75 -5 4.63 -5.88 6.88 -3.38 4.13 -7 -4 -5.50 l-4.38 0.88 0 8.13 c0 8.75 1.38 9.63 3.75 2.38z m86 -6 c0.38 -2 -0.38 -2.25 -5.50 -1.88 -6 0.38 -8.88 2.75 -4.63 3.88 4.75 1.25 9.75 0.25 10.13 -2z m-120.50 -4.50 c0.88 -1.25 -3.38 -2.63 -8.25 -2.63 -3.38 0 -5.38 1.50 -3.88 3 1.25 1.13 11.38 0.88 12.13 -0.38z"/>
 </g>
 <g fill="#100f12">
  <path d="M181.50 365.13 c-4.25 -1.25 -10.25 -3.88 -13.25 -5.88 -60.63 -40.13 -60.63 -40.13 -80.50 -59.75 -27.38 -26.88 -39 -43.88 -39 -56.88 0 -2.63 2.38 -15.50 5.13 -28.38 4.88 -22 5.25 -25.38 6.13 -49.88 1 -34.13 2 -37.50 15 -51.13 5.13 -5.38 13.88 -13.38 19.38 -17.63 5.50 -4.38 14.25 -12.50 19.50 -18.25 9.13 -10 10.25 -10.75 22.50 -16 7.13 -3 21.13 -9.88 31.13 -15.13 29.75 -15.88 29 -15.63 46.38 -14.13 16.88 1.50 19.13 2.50 43 18.88 7.63 5.25 16.50 11.38 19.75 13.63 3.38 2.25 12.13 6 20 8.38 15.75 5 21.63 8.13 35.25 18.88 11.38 8.88 17.38 16.63 19.50 24.88 1.88 7.75 0.75 26.38 -2.63 41.25 -3.13 14.25 -3.13 27.75 0 46.38 3.63 21.50 3.38 42.75 -0.63 58.13 -1.75 6.50 -4.63 14.38 -6.50 17.50 -4.63 8.13 -33.13 35.63 -41 39.38 -3.50 1.75 -13.13 4.88 -21.25 6.88 -8.25 2.13 -16.63 4.38 -18.50 5.25 -2 0.75 -8.75 7.63 -15.25 15.38 -15.50 18.63 -18 19.88 -40 20.25 -12.63 0.25 -18 -0.25 -24.13 -2z m12.75 -30.25 c1.75 -1.38 4.25 -4.38 5.38 -6.50 1.13 -2.25 2.63 -4.38 3.38 -4.88 1 -0.75 0.88 -1.38 -0.25 -2.13 -2.38 -1.50 0.88 -6.75 3.50 -5.75 1.50 0.63 1.63 0.50 0.38 -0.75 -2.50 -2.50 -1.88 -3.75 1.25 -3 1.63 0.50 5.38 -0.38 8.75 -1.88 8.63 -3.88 9.88 -2.50 2.25 2.38 -3.50 2.38 -6.13 4.50 -5.75 4.88 1.13 1.13 26.88 -12.38 26.88 -14.13 0 -0.88 -1.25 -2.50 -2.75 -3.63 -2.88 -2.13 -2.88 -2.13 1.13 -1.50 4.13 0.63 6.88 -1.25 4.13 -3 -1 -0.63 -0.38 -3 2.38 -8.63 4.13 -8 9 -12.13 18 -15.25 3.13 -1.13 4.63 -2.38 4.63 -4 0 -2 0.38 -2.13 1.88 -0.88 1.13 0.88 1.88 1 1.88 0.25 0 -0.63 4.63 -3 10.13 -5.25 11.25 -4.63 11.38 -4.75 15.50 -20.38 2.13 -8 2.13 -8.75 0.13 -13 l-2.13 -4.50 -4 3.63 -3.88 3.63 3.38 -4.63 3.50 -4.75 -3 -4 c-1.88 -2.50 -3.38 -6.75 -3.88 -10.75 -0.75 -6 -0.63 -6.63 1.25 -6.25 1.25 0.25 8 7.13 15.13 15.38 17.63 20.38 20.38 20.88 11.63 2.25 -2.75 -5.88 -5 -12.50 -5 -14.75 0 -6 2.50 -18.25 4.63 -22.25 1.50 -3.13 1.63 -4.50 0.25 -9.13 -1 -3 -2.13 -5.50 -2.50 -5.50 -0.50 0 -2.63 -1.50 -4.75 -3.25 -3.25 -2.63 -3.63 -3.75 -3 -7.13 1.25 -6.63 2.75 -8.75 4.88 -7 1.13 0.88 1.63 2.63 1.25 4.13 -0.75 3 4.25 14.75 6.13 14.13 0.63 -0.25 2.25 -5.25 3.38 -11 1.25 -5.75 3.63 -15.13 5.38 -20.63 4.38 -14.25 4.25 -15.50 -3 -22.75 -6.88 -6.88 -13.88 -12.25 -13.88 -10.63 0 0.63 2.25 3.75 5 7.13 4.75 5.75 5.63 8.88 2 7.50 -2 -0.75 -6.38 5.63 -4.88 7 0.50 0.50 2 1.25 3.25 1.50 3.75 0.63 3 2.88 -1.13 3.25 -5.75 0.63 -10 -3.38 -10.88 -10.38 -1.63 -11.13 -5.50 -14 -20.50 -15.13 -18.38 -1.25 -20 -2 -36.63 -18.25 -3.25 -3.25 -8.25 -7 -11 -8.38 -5.25 -2.75 -6.50 -4.63 -6.50 -10.13 0 -2.50 -1.50 -4.88 -5.63 -8.63 -5.13 -4.75 -6.13 -5.13 -12.50 -5.13 -5.38 0 -6.88 0.38 -6.88 2 0 2.13 -8.63 15.25 -11.63 17.75 -1.38 1.25 -1.63 2.50 -0.88 5 2.38 8 1.25 7.50 18 6.88 12.25 -0.63 15.63 -0.38 17 1.13 1 1 2.75 2.13 4 2.50 1.13 0.50 2.75 2.38 3.75 4.38 1.38 3 3.75 4.25 17 8.63 23.25 7.75 26.13 9.88 31.50 22.50 3 6.88 3.25 12.13 0.63 14.25 -1 0.88 -1.88 2.25 -1.88 3 -0.13 0.75 -2.50 4.50 -5.38 8.25 -6.25 8 -15.25 13 -25.50 14.25 l-6.50 0.88 -3.13 -6 c-1.63 -3.25 -4.75 -7.63 -6.75 -9.50 l-3.75 -3.63 -0.75 9.25 c-0.50 5 -1.13 10.50 -1.38 12.25 -0.38 2.88 0.88 3.75 17 11.75 19.63 9.75 24.25 13.88 28.75 25.63 2 5.13 2.75 10 2.75 18.25 0.13 9.75 -0.38 12.25 -3.25 18.63 -7.50 16.13 -19.63 26 -38.13 30.88 l-11.38 2.88 -1.50 5.38 c-0.88 3.50 -2.88 6.38 -5.63 8.50 -3.50 2.75 -5.38 3.13 -13.25 3.13 -9.38 -0.13 -19.25 -1.50 -20.75 -3 -0.38 -0.50 -1.13 -3.75 -1.50 -7.25 l-0.63 -6.50 -9 -2.13 c-16 -4 -30.25 -13.25 -37.75 -24.38 -4.25 -6.50 -8.88 -19.75 -8.88 -25.75 0 -3.25 0.75 -4 8.13 -7.38 4.50 -2 12 -4.50 16.63 -5.50 4.63 -1.13 9.63 -2.25 11.25 -2.63 2.38 -0.50 4.75 1.25 13 9.63 6.25 6.25 10.50 9.63 11.13 9 0.75 -0.75 1.13 -6.13 0.88 -12.13 l-0.38 -10.88 -10 -4 c-13.88 -5.63 -20.75 -9.88 -26.75 -16.63 -15.38 -17.50 -14.63 -47.88 1.63 -64.50 2.63 -2.63 6.25 -5.63 8.13 -6.63 5.38 -2.75 21.38 -6.88 26.75 -6.88 3.88 0 4.88 -0.50 5.88 -3.25 0.75 -1.75 1.25 -5.50 1.25 -8.25 0 -4.88 -0.13 -5 -3.38 -4.25 -2 0.50 -5.13 1.25 -7.25 1.63 -2 0.38 -6.50 3.25 -9.88 6.25 -8.38 7.50 -10.88 7.88 -20.13 2.88 -7.25 -3.88 -7.88 -4 -12.50 -2.50 -10.13 3.25 -18.88 8.88 -30.50 19.50 -0.25 0.25 0.13 1.25 1 2.25 1.13 1.38 0.75 2.50 -1.75 5.50 -1.88 2.13 -4 3.63 -5 3.25 -2.75 -1.13 -4.13 3.38 -6.13 20.25 -1.25 10.75 -3.50 21 -6.50 30.50 -4 12.63 -5.13 15 -9.75 19.38 -7.88 7.25 -10 14.13 -9.13 28.50 0.75 13.25 1.13 14.88 5 16.50 1.50 0.75 3.88 3.50 5.38 6.25 1.38 2.75 3.88 5.63 5.63 6.38 13.50 6.25 15.88 8.38 12.25 10.63 -2.38 1.38 -1.63 2 14.38 11.75 11.13 6.88 14.25 8.25 17.25 7.63 3.50 -0.63 3.63 -0.50 3.25 2.88 -0.25 3.13 1.38 5.50 11.13 16 19.13 20.63 26 26.88 33 30.50 8.13 4.25 12.25 4.50 16.63 1z m36.13 -68.88 c15.38 -3.38 33.38 -22.75 33.38 -36 0 -5.50 -3.25 -4.88 -4.38 0.88 -0.50 2.63 -1.63 6.13 -2.50 8 -2.13 3.88 -10.88 12.50 -17.25 16.88 -5.25 3.50 -16.75 6.75 -24.25 6.75 -5.50 0 -7.13 1.13 -6 4 0.88 2 10.63 1.88 21 -0.50z m74.88 -4.25 c9.50 -4.75 9.88 -8.38 0.75 -5.50 -11.13 3.25 -18.50 6.50 -18.50 8 0 2.50 10.75 1 17.75 -2.50z m-234 -12.88 c0 -0.75 -0.50 -1.50 -1.13 -2 -1.50 -0.88 -4.50 -10.38 -6.38 -19.88 -0.88 -4 -1.88 -6.75 -2.38 -6.25 -2 2.38 -4.13 15.38 -3.25 20 1.38 7.88 2.63 9.25 8.13 9.25 2.75 0 5 -0.50 5 -1.13z m77.50 -2.50 c-0.63 -1.38 -1.88 -2.88 -2.50 -3.25 -0.75 -0.50 -2.38 -3 -3.75 -5.75 -1.38 -2.63 -3.38 -4.88 -4.38 -4.88 -3.75 0 -1.75 4.75 4.38 10.50 6.63 6.25 8.38 7.13 6.25 3.38z m51.50 -49.75 c-1 -3.13 -21.63 -12.50 -32.38 -14.75 -4.63 -0.88 -14.13 -7.38 -17.75 -12.13 -1.50 -1.88 -3.88 -5.75 -5.25 -8.75 -2.50 -5.13 -2.50 -5.25 -1.88 -1.25 1.13 6.88 4.50 12.50 10.25 17.63 5.88 5.13 22 13.50 32.88 17.13 l6.63 2.13 -0.88 17.63 c-0.50 9.75 -1.13 18.75 -1.38 20.13 -0.38 2.50 -0.38 2.50 1.38 0.13 1 -1.38 1.88 -4 1.88 -5.88 0 -1.88 0.88 -3.63 1.88 -4.13 1.50 -0.50 1.88 0.50 1.88 4.75 0 3.13 0.38 6.63 1 7.88 0.88 2.25 2.63 -37.50 1.75 -40.50z m31.63 36.75 c3.13 -3 5.63 -6.38 5.63 -7.50 0 -1.13 -0.25 -2.13 -0.63 -2.13 -0.75 0 -12.38 12.50 -12.88 13.88 -1 2.75 2.63 0.75 7.88 -4.25z m-98.13 -1.75 c-1.38 -2.13 -1.38 -2.13 -0.75 0 0.38 1.25 0.88 3.25 0.88 4.38 0.13 1.88 0.25 1.88 0.75 0 0.25 -1.25 -0.13 -3.13 -0.88 -4.38z m10.50 -6 c3.13 -2.50 5.75 -5.25 5.75 -6.25 0 -2.25 -3.75 -1 -5.88 1.75 -0.75 1.13 -1.75 1.63 -2.25 1.13 -0.50 -0.50 -2.38 0.50 -4.13 2.25 -1.88 1.63 -3.88 3 -4.63 3 -1.63 0 2.13 2.50 3.88 2.50 0.75 0 4 -2 7.25 -4.38z m80.13 -2 c0.63 -2 -1.50 -8.25 -2.38 -7.13 -0.25 0.13 -0.75 2.75 -1.25 5.63 -0.63 4.38 -0.50 5.13 1.13 4.63 1 -0.38 2.13 -1.75 2.50 -3.13z m-138 -56.38 c2.63 -4.75 3 -7.25 3.38 -20.38 0.13 -8.25 0.63 -16.25 0.88 -17.75 0.38 -1.63 8.25 -8.88 19.63 -18 10.50 -8.50 23.63 -19.50 29.25 -24.38 12.13 -11 15.13 -12.38 23.13 -10.50 6.88 1.63 8.50 1 14.75 -5.50 7 -7.25 4.63 -7.38 -17.88 -0.50 -7.75 2.38 -10.38 4.13 -27 18.38 -10.13 8.63 -23.63 20.13 -30.13 25.38 -6.50 5.25 -14.50 12.25 -17.88 15.50 l-6.13 5.88 0.88 9.50 c0.38 5.25 1.13 13.63 1.63 18.63 0.38 4.88 1.13 9 1.63 9 0.38 0 2.13 -2.38 3.88 -5.25z m116.38 -36 c-0.25 -0.38 -1.25 0.50 -2.25 1.75 -2.38 3.25 -2.50 31.50 -0.13 32.38 1.13 0.38 1.63 -3.75 2.13 -16.50 0.38 -9.38 0.50 -17.25 0.25 -17.63z m-45.38 5.25 c4.25 -4.38 15.75 -12.38 23.63 -16.38 2.88 -1.50 5.25 -3 5.25 -3.38 0 -1.38 -10.75 1.13 -17.38 4.13 -13.88 6 -19.63 13.25 -20.88 25.75 l-0.63 6.50 3.25 -6.38 c1.75 -3.50 4.75 -8.13 6.75 -10.25z m110.50 4.75 c5.50 -7.38 5.38 -7.75 -4.38 -17 -7 -6.63 -13 -9.50 -31.63 -14.88 l-10 -2.88 -0.38 -5.13 c-0.25 -3.38 -1 -5.13 -2.13 -5.13 -2.25 0 -3.38 4.38 -2.88 10.75 0.38 4.50 0.75 4.88 5.38 5.88 7.63 1.63 20.75 6 25.75 8.50 5.50 2.75 13.50 10.75 14.38 14.63 0.50 1.50 0.13 3.63 -0.75 4.63 -1.50 1.75 -0.63 6.88 1.13 6.88 0.38 0 3 -2.88 5.50 -6.25z m-61.63 -36.88 c0.88 -2.50 2.75 -5 4.63 -5.88 6.88 -3.38 4.13 -7 -4 -5.50 l-4.38 0.88 0 8.13 c0 8.75 1.38 9.63 3.75 2.38z m85.88 -5.63 c0.88 -3.13 1.63 -3.13 7.75 0.13 2.88 1.38 5.75 2.38 6.63 2.13 1.63 -0.63 -16.75 -11 -19.25 -11 -1 0 -0.75 0.63 0.63 1.38 3.75 2.13 2.50 4.75 -2.50 5.13 -4.88 0.38 -7 2.88 -3.25 3.88 5.63 1.50 9.38 0.88 10 -1.63z m-120.38 -4.88 c0.88 -1.25 -3.38 -2.63 -8.25 -2.63 -3.38 0 -5.38 1.50 -3.88 3 1.25 1.13 11.38 0.88 12.13 -0.38z m49.88 -2.75 c-0.75 -0.75 -2.38 -1.13 -3.63 -0.75 -2 0.50 -1.88 0.63 0.50 0.75 1.50 0 2.75 0.75 2.75 1.63 0 0.75 0.38 1 0.88 0.63 0.50 -0.50 0.25 -1.50 -0.50 -2.25z m32.13 -19.25 c-3.75 -3.75 -7.38 -6.88 -8.13 -6.88 -1.75 0 -8.50 -6.88 -8.13 -8.38 0.25 -1.88 -7.38 -2.63 -8.75 -1 -1 1.25 -0.50 3.13 2.13 7.38 4.50 7.13 12.25 13.13 17.25 13.25 2.13 0 4.63 0.63 5.63 1.25 1 0.63 3 1.25 4.38 1.25 1.88 0 0.88 -1.50 -4.38 -6.88z"/>
  <path d="M85.13 235.38 c-0.88 -0.38 2.75 -2.38 8 -4.50 l9.88 -3.75 2.88 3.38 c4.13 4.75 3.63 6.88 -0.75 2.75 l-3.50 -3.38 -7.25 3.13 c-4 1.88 -7.25 3.25 -7.38 3.13 0 0 -0.88 -0.38 -1.88 -0.75z"/>
  <path d="M95.25 206 c-1.75 -2.25 -6.50 -13.50 -6.50 -15.38 0 -1 1.88 -2.88 4.25 -4.25 5 -3.13 6.88 -6.88 11.13 -21.50 3.75 -12.88 7.50 -20.50 11 -22.38 1.38 -0.75 3 -2.75 3.63 -4.50 1.50 -3.88 3.13 -3 4.13 2 1.25 5.63 -3.13 15.88 -9.75 23.13 -6.88 7.38 -7.88 10.75 -5.13 16.50 2 4.13 2 4.38 -0.63 6.50 -2.88 2.38 -2.38 5.13 0.88 5.13 1.63 0 1.63 0.25 -0.13 2 -2.50 2.50 -0.25 5.75 3.63 5.25 3.13 -0.50 4 -3.75 1.75 -6.13 -1.75 -1.88 -2.50 -6.13 -1.13 -6.13 1.50 0 7.63 10.38 6.88 11.50 -0.88 1.38 -19 9.75 -21.13 9.75 -0.88 0 -2.13 -0.75 -2.88 -1.50z"/>
 </g>
 <g fill="#fec616">
  <path d="M187.13 357.50 c-9.38 -1.63 -20.88 -8.38 -38.88 -22.88 -18.50 -14.88 -21.25 -18.75 -21.25 -31.13 0 -11.50 1.13 -11 24.63 12.38 11.75 11.75 23.38 22.38 25.63 23.63 2.13 1.25 4 2.75 4 3.38 0 1.50 8.25 0 12.50 -2.25 1.75 -0.88 4.50 -3.13 6.25 -5 l3.13 -3.50 -5.63 3.50 c-8 5 -14.75 5.50 -21.50 1.50 -3.13 -1.75 -12.88 -11.25 -22.25 -21.75 -19 -21.13 -24.25 -27.50 -12.75 -15.50 24.75 25.75 30 30.63 36.75 34 4 2 8.50 3.63 10.13 3.63 3.88 0 9.13 -4.13 11.75 -9.13 1.13 -2.25 2.63 -4.38 3.38 -4.88 1 -0.75 0.88 -1.38 -0.25 -2.13 -1.50 -0.88 -1.50 -1.50 0 -3.75 2.25 -3.63 4 -2.63 4.75 2.38 l0.63 4.25 1.50 -3.38 c0.88 -1.88 2.38 -3.38 3.38 -3.38 1.13 0 7.38 -2.75 14.13 -6.25 6.75 -3.38 12.38 -6.25 12.50 -6.25 1.38 0 0 13.75 -1.63 16 -1.13 1.63 -1.75 3.13 -1.38 3.50 1.75 1.75 7.13 -11.38 7.13 -17.63 0 -3.50 1.38 -5.38 10 -13.13 10 -9 14.25 -15.13 5.38 -7.50 -2.63 2.13 -6.13 5 -7.63 6.38 -1.63 1.25 -3.63 2 -4.25 1.50 -0.75 -0.38 -1 -0.25 -0.63 0.38 0.38 0.75 -0.38 2 -1.88 2.88 -1.75 1.13 -2.25 1.13 -1.63 0.13 0.50 -0.88 0.25 -2 -0.63 -2.50 -2.13 -1.25 5.13 -15.25 9.63 -18.50 3.63 -2.50 12.25 -6.50 14.25 -6.50 0.63 0 1.13 1.75 1.13 3.88 l0 3.75 4.75 -3.50 c7.13 -5.38 8.25 -7.75 2.38 -5.50 -1.75 0.63 -3.38 0.88 -3.75 0.50 -1.88 -1.75 1.50 -4.25 10.63 -8 11.13 -4.50 11.25 -4.63 15.38 -20.25 2.13 -8 2.13 -8.75 0.13 -13 -1.13 -2.38 -1.88 -4.63 -1.63 -4.88 0.25 -0.38 -1.25 -2.50 -3.50 -4.75 -3.13 -3.25 -4.13 -5.75 -4.75 -10.88 -0.50 -3.63 -0.63 -6.88 -0.25 -7.13 1.38 -1.50 5.13 2 17 15.88 7.13 8.38 13.63 15.13 14.38 15.13 0.88 0 1.88 1 2.13 2.25 0.38 1.13 0.63 -0.50 0.75 -3.63 0.13 -3.63 -1.50 -10.38 -4.38 -18.75 -5.25 -14.75 -5.88 -23.25 -2.50 -29.75 1.88 -3.63 2 -4.75 0.63 -9.63 -1 -3 -2.13 -5.50 -2.50 -5.50 -0.50 0 -2.63 -1.50 -4.75 -3.25 -3.25 -2.63 -3.63 -3.75 -3 -7.13 1.25 -6.63 2.75 -8.75 4.88 -7 1.13 0.88 1.63 2.63 1.25 4.13 -0.75 3 4.25 14.75 6.13 14.13 0.63 -0.25 2.25 -5.25 3.38 -11 1.25 -5.75 3.63 -15.13 5.38 -20.63 4.38 -14.25 4.25 -15.50 -3 -22.75 -6.88 -6.88 -13.88 -12.25 -13.88 -10.63 0 0.63 2.25 3.75 5 7.13 4.75 5.75 5.63 8.88 2 7.50 -2 -0.75 -6.38 5.63 -4.88 7 0.50 0.50 2 1.25 3.25 1.50 3.75 0.63 3 2.88 -1.13 3.25 -5.75 0.63 -10 -3.38 -10.88 -10.38 -1.63 -11.13 -5.50 -14 -20.50 -15.13 -18.38 -1.25 -20 -2 -36.63 -18.25 -3.25 -3.25 -8.25 -7 -11 -8.38 -5.25 -2.75 -6.50 -4.63 -6.50 -10.13 0 -2.50 -1.50 -4.88 -5.63 -8.63 -5.13 -4.75 -6.13 -5.13 -12.50 -5.13 -6.50 0 -7.50 0.63 -7 4 0 0.50 -0.63 0.63 -1.50 0.25 -2.25 -0.75 -6.50 4.38 -8.38 10.25 -0.88 2.75 -2 5.50 -2.50 6.13 -0.63 0.75 -0.25 3.50 0.75 6.25 1 2.75 2 5.50 2.13 6.13 0.25 1.13 -4.13 2.63 -12.25 4.13 -2 0.38 -6.50 3.25 -9.88 6.25 -8.38 7.50 -10.88 7.88 -20.13 2.88 -7.25 -3.88 -7.88 -4 -12.50 -2.50 -10.13 3.25 -18.88 8.88 -30.50 19.50 -0.25 0.25 0.13 1.25 1 2.25 1.13 1.38 0.75 2.50 -1.75 5.50 -1.88 2.13 -4 3.63 -5 3.25 -2.75 -1.13 -4.13 3.38 -6.13 20.25 -1.25 10.75 -3.50 21 -6.50 30.50 -4 12.63 -5.13 15 -9.75 19.38 -7.88 7.25 -10 14.13 -9.13 28.50 0.75 13.25 1.13 14.88 5 16.50 1.50 0.75 3.88 3.50 5.38 6.25 1.38 2.75 3.88 5.63 5.63 6.38 13.63 6.38 15.88 8.25 12.25 10.63 -2.25 1.50 -0.75 2.63 14.88 12 6.38 3.88 11.25 7.25 11 7.63 -0.75 0.63 -14.50 -5.88 -20.75 -9.88 -6 -3.88 -3.50 -1.50 6.25 6 4.50 3.38 10 6.88 12.25 7.88 3.50 1.38 4 2.13 3.25 4.25 -0.50 1.50 -1.13 6.75 -1.38 11.75 -0.38 4.88 -1.13 9 -1.88 9 -2.13 0 -26.38 -19 -34.13 -26.88 -8.75 -8.75 -17.63 -20 -23 -29.25 -2.13 -3.50 -3.88 -6.75 -3.88 -7 0 -0.38 2.25 -0.63 5.13 -0.63 2.75 0 4.88 -0.38 4.63 -0.88 -3 -6 -5.13 -11.88 -6.63 -19.25 -1 -4.88 -2.25 -9.38 -2.63 -10 -0.38 -0.63 0.88 -4.63 2.75 -8.88 12.38 -29.25 12.13 -28.38 11.25 -38.50 -2.63 -30.25 -2.50 -34.75 0.50 -39 3.38 -4.75 16 -16.13 35.63 -31.75 7.63 -6 18.38 -15.13 24.13 -20.13 10.75 -9.50 13.38 -11 38.38 -21.63 15.25 -6.50 26 -12.50 29.38 -16.50 1.38 -1.63 4.13 -2.38 10.63 -2.50 8.63 -0.38 9.13 -0.25 17.50 5.25 4.88 3 15.88 11.25 24.63 18.38 16.88 13.63 18.50 14.63 41.50 23.63 16 6.25 28.63 14.38 36.38 23.25 4.13 5 4.38 5.63 4.38 14.88 0 6 -1.50 17.13 -4 29.50 l-4.13 19.75 0.38 43.88 0.38 43.75 -5.25 6.63 c-6.50 8.13 -32.25 30.75 -44.25 38.63 -4.75 3.25 -13.25 7.50 -18.75 9.50 -11.75 4.25 -14.63 6.25 -32.50 23 -7.50 7.13 -15.88 14.13 -18.38 15.38 -5 2.50 -14.13 2.88 -25.13 1.13z m127 -93.75 c10.50 -7.25 14.50 -15.13 10.25 -20.75 -1.63 -2.25 -1.75 -1.88 -1.88 3.50 l0 6 -13.75 11.38 c-7.50 6.25 -13.75 11.50 -13.75 11.75 0 0.50 10.25 -5.88 19.13 -11.88z m-8.88 -2 c9.50 -4.75 9.88 -8.38 0.75 -5.50 -11.13 3.25 -18.50 6.50 -18.50 8 0 2.50 10.75 1 17.75 -2.50z m20 -72.63 c-1.38 -2 -3 -5.75 -3.50 -8.50 -0.75 -4.13 -1 -4.50 -1.88 -2.50 -0.50 1.38 -1 5.13 -1 8.38 -0.13 4.63 0.25 5.75 1.63 5.25 1 -0.38 2.88 -0.13 4.13 0.50 3.25 1.88 3.50 0.88 0.63 -3.13z m-238.88 -21.88 c2.63 -4.75 3 -7.25 3.38 -20.38 0.13 -8.25 0.63 -16.25 0.88 -17.75 0.38 -1.63 8.25 -8.88 19.63 -18 10.50 -8.50 23.63 -19.50 29.25 -24.38 12.13 -11 15.13 -12.38 23.13 -10.50 6.88 1.63 8.50 1 14.75 -5.50 7 -7.25 4.63 -7.38 -17.88 -0.50 -7.75 2.38 -10.38 4.13 -27 18.38 -10.13 8.63 -23.63 20.13 -30.13 25.38 -6.50 5.25 -14.50 12.25 -17.88 15.50 l-6.13 5.88 0.88 9.50 c0.38 5.25 1.13 13.63 1.63 18.63 0.38 4.88 1.13 9 1.63 9 0.38 0 2.13 -2.38 3.88 -5.25z m242.25 -23.38 c0.88 -2.88 1.25 -5.63 1 -5.88 -0.38 -0.38 -1.75 4 -3.38 9.50 -2 7.63 -2.38 11.50 -1.75 15.38 1 5 1.13 4.88 1.88 -4.13 0.38 -5.13 1.38 -11.88 2.25 -14.88z m-36.50 -45.13 c0.88 -3.13 1.63 -3.13 7.75 0.13 2.88 1.38 5.75 2.38 6.63 2.13 0.75 -0.25 -3.50 -3.25 -9.50 -6.50 -6 -3.25 -11.25 -5.75 -11.63 -5.38 -0.25 0.38 0.63 1.25 2 2.13 4.25 2.13 3.25 4.75 -2 5.25 -4.88 0.38 -7 2.88 -3.25 3.88 5.63 1.50 9.38 0.88 10 -1.63z m-120.38 -4.88 c0.88 -1.25 -3.38 -2.63 -8.25 -2.63 -3.38 0 -5.38 1.50 -3.88 3 1.25 1.13 11.38 0.88 12.13 -0.38z m102.50 -8.25 c-2.88 -0.88 -6.50 -2.38 -8.13 -3.13 -2.25 -1.13 -2.63 -1.25 -1.63 0 1.63 1.63 10.25 4.88 13 4.88 1 -0.13 -0.50 -0.88 -3.25 -1.75z m-20.50 -13.75 c-3.75 -3.75 -7.38 -6.88 -8.13 -6.88 -1.75 0 -8.50 -6.88 -8.13 -8.38 0.25 -1.88 -7.38 -2.63 -8.75 -1 -1 1.25 -0.50 3.13 2.13 7.38 4.50 7.13 12.25 13.13 17.25 13.25 2.13 0 4.63 0.63 5.63 1.25 1 0.63 3 1.25 4.38 1.25 1.88 0 0.88 -1.50 -4.38 -6.88z"/>
  <path d="M167.88 302.88 c-4.13 -0.75 -3.50 -2.13 1.50 -4 5.25 -1.88 9.63 -0.75 9.13 2.13 -0.38 2.13 -5.13 3 -10.63 1.88z"/>
  <path d="M196.50 284 c-7.13 -0.38 -8 -0.63 -9.13 -3.50 -0.63 -1.75 -0.88 -3.63 -0.50 -4.25 0.38 -0.50 0.25 -2.63 -0.13 -4.75 -0.75 -3.50 -1.25 -3.75 -7.88 -4.50 -20.25 -2.38 -35.75 -10.88 -42 -23.25 -1.75 -3.50 -2.63 -6.25 -2 -6.25 0.63 0 1.50 1.13 2 2.50 1.25 3.88 10.38 11 17 13.13 8 2.63 10.75 1.75 3.38 -1 -5.75 -2.25 -11.25 -7.88 -15.25 -15.50 -2 -4.13 -5.13 -5.38 -6 -2.75 -0.25 0.75 -1.13 -0.13 -2 -1.88 -1.38 -3.13 -1.25 -3.25 1.38 -2.63 2 0.50 4.50 -0.50 8.75 -3.75 3.25 -2.50 5.88 -5.25 5.88 -6.25 0 -1 2 -2 5 -2.50 4.88 -0.88 5.25 -0.63 12.88 7.13 4.75 4.88 10.38 9.13 14.50 11 l6.63 3 2.38 -2.88 c1.25 -1.63 2.38 -4.50 2.38 -6.38 0 -2 0.88 -3.75 1.88 -4.25 1.50 -0.50 1.88 0.50 1.88 5.25 0 3.25 0.50 6.63 1.13 7.63 1.13 1.75 2.63 -37.25 1.63 -40.75 -0.88 -3.13 -21.63 -12.50 -32.38 -14.75 -4.63 -0.88 -14.13 -7.38 -17.75 -12.13 -8.63 -10.88 -10 -24.50 -3.75 -37.13 2.13 -4.13 5.63 -9 7.88 -10.75 7.88 -6 19.88 -10.63 32.13 -12.25 l11.75 -1.63 0.75 -8.38 c0.38 -4.63 1 -8.63 1.38 -9.13 1.50 -1.50 14.38 -2 15.25 -0.63 0.50 0.75 2 1.38 3.38 1.38 1.50 0 2.38 0.88 2.38 2.50 0 1.38 -0.88 2.50 -1.88 2.50 -2.25 0 -3.38 4.25 -2.88 10.75 0.38 4.50 0.75 4.88 5.38 5.88 7.63 1.63 20.75 6 25.75 8.50 5.50 2.75 13.50 10.75 14.38 14.63 0.50 1.50 0.13 3.63 -0.75 4.63 -1.25 1.50 -1.25 2.63 -0.25 5 1.25 2.75 1 3.38 -2.63 6.13 -2.25 1.63 -6 3.38 -8.38 3.88 -4.25 0.75 -4.63 0.50 -8.63 -5.75 -3.38 -5 -5.63 -7 -11 -9.38 -12.38 -5.50 -12.50 -5.25 -13.63 17.63 l-0.75 15 13.50 6.88 c22 11.13 31.25 22.38 33.88 40.75 0.63 4.38 0.38 5.50 -1.25 5.50 -1.13 0 -2.13 1.75 -2.75 4.63 -1.25 6.75 -3.50 10.63 -9.75 16.50 -10.88 10.38 -17.38 13.50 -31.88 14.88 -7.50 0.88 -8.38 1.13 -8.13 3.50 0.38 4 -2.75 18.50 -4.13 18.63 -0.63 0 -4.63 -0.13 -9 -0.38z m35.38 -50.63 c3.13 -3 5.63 -6.38 5.63 -7.50 0 -1.13 -0.25 -2.13 -0.63 -2.13 -0.75 0 -12.38 12.50 -12.88 13.88 -1 2.75 2.63 0.75 7.88 -4.25z m-8.38 0.38 c2.25 -1.38 5 -4.38 6.13 -6.75 1.88 -4 1.88 -4.50 -0.50 -9 -2.50 -4.88 -6.63 -8.50 -11.13 -9.75 -2.50 -0.75 -2.63 -0.25 -3.75 13.13 -0.63 7.63 -0.88 14 -0.63 14.38 1.25 1.25 6.13 0.25 9.88 -2z m-28.13 -82.75 c0.50 -8.38 0.63 -15.38 0.38 -15.63 -1 -1.13 -12 4.50 -15.13 7.63 -4.50 4.50 -4.38 11.63 0.38 16 4.88 4.50 9.25 7.25 11.63 7.25 1.63 0 2.13 -2.38 2.75 -15.25z m7.38 -19.75 c-0.25 -0.38 -1.25 0.50 -2.25 1.75 -2.38 3.25 -2.50 31.50 -0.13 32.38 1.13 0.38 1.63 -3.75 2.13 -16.50 0.38 -9.38 0.50 -17.25 0.25 -17.63z m-45.38 5.25 c4.25 -4.38 15.75 -12.38 23.63 -16.38 2.88 -1.50 5.25 -3 5.25 -3.38 0 -1.38 -10.75 1.13 -17.38 4.13 -13.88 6 -19.63 13.25 -20.88 25.75 l-0.63 6.50 3.25 -6.38 c1.75 -3.50 4.75 -8.13 6.75 -10.25z m48.88 -32.13 c0.88 -2.50 2.75 -5 4.63 -5.88 6.88 -3.38 4.13 -7 -4 -5.50 l-4.38 0.88 0 8.13 c0 8.75 1.38 9.63 3.75 2.38z"/>
  <path d="M229.63 280.50 c-1.13 -1.25 0.25 -3 2.38 -3 1 0 1.75 0.88 1.75 1.88 0 1.88 -2.63 2.63 -4.13 1.13z"/>
  <path d="M131.38 263.75 c-2 -1.13 -0.75 -3.75 1.88 -3.75 1.88 0 2.50 3.13 0.75 4.25 -0.50 0.25 -1.75 0.13 -2.63 -0.50z"/>
  <path d="M132.50 226.25 c0 -0.63 0.63 -1.25 1.38 -1.25 0.75 0 2.13 -0.88 3.25 -1.88 1 -1.13 2.25 -1.75 2.63 -1.38 0.63 0.75 -4.75 5.63 -6.25 5.75 -0.63 0 -1 -0.50 -1 -1.25z"/>
  <path d="M87.50 208.25 c0 -1 0.88 -2 1.88 -2.50 1.13 -0.38 1.88 0 1.88 1 0 1 -0.88 2 -1.88 2.50 -1.13 0.38 -1.88 0 -1.88 -1z"/>
  <path d="M95.25 206 c-1.75 -2.25 -6.50 -13.50 -6.50 -15.38 0 -0.88 1.63 -2.63 3.63 -4 7.63 -4.88 12 -13 18.88 -35.50 1.38 -4.63 3.38 -8.75 4.38 -9.13 1.13 -0.38 2.50 -2.13 3.13 -3.88 1.50 -4 3.13 -3.25 4.13 1.88 1.25 5.63 -3.13 15.88 -9.75 23.13 -6.88 7.38 -7.88 10.75 -5.13 16.50 2 4.13 2 4.38 -0.63 6.50 -2.88 2.38 -2.38 5.13 0.88 5.13 1.63 0 1.63 0.25 -0.13 2 -2.50 2.50 -0.25 5.75 3.63 5.25 3.13 -0.50 4 -3.75 1.75 -6.13 -1.75 -1.88 -2.50 -6.13 -1.13 -6.13 1.50 0 7.63 10.38 6.88 11.50 -0.88 1.38 -19 9.75 -21.13 9.75 -0.88 0 -2.13 -0.75 -2.88 -1.50z"/>
  <path d="M275.63 172.50 c-0.50 -0.88 -0.38 -2 0.38 -2.75 1.75 -1.75 5.63 -0.25 5 1.88 -0.75 2 -4.25 2.63 -5.38 0.88z"/>
 </g>
 <g fill="#a15525">
  <path d="M187.13 357.50 c-9.38 -1.63 -20.88 -8.38 -38.88 -22.88 -18.50 -14.88 -21.25 -18.75 -21.25 -31.13 0 -11.50 1.13 -11 24.63 12.38 11.75 11.75 23.38 22.38 25.63 23.63 2.13 1.25 4 2.75 4 3.38 0 1.50 8.25 0 12.50 -2.25 1.75 -0.88 4.50 -3.13 6.25 -5 l3.13 -3.50 -5.63 3.50 c-8 5 -14.75 5.50 -21.50 1.50 -3.13 -1.75 -12.88 -11.25 -22.25 -21.75 -19 -21.13 -24.25 -27.50 -12.75 -15.50 24.75 25.75 30 30.63 36.75 34 11.63 5.88 13.50 5.25 25.25 -9.50 3.13 -3.88 3.88 -4.25 4.50 -2.50 0.63 1.75 1 1.63 2.25 -1.13 0.75 -1.75 2.25 -3.25 3.25 -3.25 1.13 0 7.38 -2.75 14.13 -6.25 6.75 -3.38 12.38 -6.25 12.50 -6.25 1.38 0 0 13.75 -1.63 16 -1.13 1.63 -1.75 3.13 -1.38 3.50 1.75 1.75 7.13 -11.38 7.13 -17.63 0 -3.50 1.38 -5.38 10 -13.13 5.50 -5 10 -9.63 10 -10.38 0 -0.75 -1.63 0.13 -3.50 2 -1.88 1.88 -3.88 3.38 -4.38 3.38 -1.25 0 11.13 -11.13 16.63 -15 2.38 -1.63 5.38 -4.25 6.50 -5.75 2.13 -2.63 8.50 -4.88 8.50 -3 0 0.50 2.63 0.63 6 0.25 5.63 -0.50 13.75 -3.75 17.75 -7.13 3.63 -2.88 11.63 -7.38 10.75 -5.88 -0.50 0.75 -6.75 6.25 -13.88 12.25 -7.25 5.88 -13.13 11 -13.13 11.38 0 0.50 1 -0.13 2.25 -1.13 1.13 -1 6.50 -4.50 11.75 -7.75 15.88 -9.63 19.50 -15.88 14.88 -25.13 -1.63 -3.25 -2.63 -7.63 -2.63 -11.63 0 -4 -1.38 -10.25 -3.63 -16.50 -5.88 -16.13 -6.88 -22.38 -4.38 -28.88 2.25 -5.88 2.63 -10.25 1.13 -14.38 -0.63 -2 -0.25 -2.75 1.50 -3.25 1.88 -0.50 2.88 -3 4.50 -11.50 1.25 -5.88 3.50 -15.13 5.25 -20.50 4.38 -13.75 4.25 -15.25 -3.13 -22.63 -3.38 -3.50 -8.63 -7.88 -11.50 -9.88 -9.38 -6.25 -24.63 -14.25 -26 -13.38 -0.63 0.38 -1.25 0.13 -1.25 -0.75 0 -0.75 -1 -1.13 -2.50 -0.75 -1.38 0.38 -2.50 0.13 -2.50 -0.63 0 -0.75 -1.13 -1 -2.50 -0.63 -1.38 0.38 -2.25 0.13 -1.75 -0.50 0.63 -1 -2.25 -1.63 -6.63 -1.50 -0.88 0.13 -1.25 -0.38 -0.88 -1 0.38 -0.63 0 -1.13 -0.75 -1.13 -0.75 0 -9.25 -7.50 -18.88 -16.75 -20.38 -19.75 -25 -22.38 -36.75 -21.75 -6.38 0.25 -7.75 0 -6.50 -1.13 0.88 -0.88 5.50 -1.75 10.38 -1.88 8.50 -0.38 9 -0.25 17.38 5.25 4.88 3 15.88 11.25 24.63 18.38 16.88 13.63 18.50 14.63 41.50 23.63 16 6.25 28.63 14.38 36.38 23.25 4.13 5 4.38 5.63 4.38 14.88 0 6 -1.50 17.13 -4 29.50 l-4.13 19.75 0.38 43.88 0.38 43.75 -5.25 6.63 c-6.50 8.13 -32.25 30.75 -44.25 38.63 -4.75 3.25 -13.25 7.50 -18.75 9.50 -11.75 4.25 -14.63 6.25 -32.50 23 -7.50 7.13 -15.88 14.13 -18.38 15.38 -5 2.50 -14.13 2.88 -25.13 1.13z m138.13 -168.38 c-1.38 -2 -3 -5.75 -3.50 -8.50 -0.75 -4.13 -1 -4.50 -1.88 -2.50 -0.50 1.38 -1 5.13 -1 8.38 -0.13 4.63 0.25 5.75 1.63 5.25 1 -0.38 2.88 -0.13 4.13 0.50 3.25 1.88 3.50 0.88 0.63 -3.13z m3.38 -45.25 c0.88 -2.88 1.25 -5.63 1 -5.88 -0.38 -0.38 -1.75 4 -3.38 9.50 -2 7.63 -2.38 11.50 -1.75 15.38 1 5 1.13 4.88 1.88 -4.13 0.38 -5.13 1.38 -11.88 2.25 -14.88z"/>
  <path d="M106.25 302.50 c-14.63 -11.38 -22.13 -18.75 -31.88 -31.38 -4.88 -6.25 -13.13 -19.13 -13.13 -20.50 0 -0.38 2.25 -0.63 5 -0.63 4 0 7 1.38 14.13 6.13 10.50 7.13 30.13 19.50 38.75 24.50 3.25 1.88 5.75 3.75 5.38 4 -0.75 0.75 -14.38 -5.75 -20.75 -9.75 -6 -3.88 -3.50 -1.50 6.25 6 4.50 3.38 10 6.88 12.25 7.88 3.50 1.38 4 2.13 3.25 4.25 -0.50 1.50 -1.13 6.75 -1.38 11.75 -0.38 5.75 -1.13 9 -2 9 -0.88 -0.13 -8 -5.13 -15.88 -11.25z"/>
  <path d="M243.38 297.38 c1.50 -1.88 9.13 -6.63 9.13 -5.75 0 0.25 -2.38 2.13 -5.25 4 -3 2 -4.75 2.75 -3.88 1.75z"/>
  <path d="M215.38 284.25 c1.25 -6.63 3.25 -10.50 5.38 -10.50 2.25 0 1.75 3.88 -1.13 9.88 -2.25 4.63 -5.13 5.13 -4.25 0.63z"/>
  <path d="M196.50 284 c-7.13 -0.38 -8 -0.63 -9.13 -3.50 -0.63 -1.75 -0.88 -3.63 -0.50 -4.25 0.38 -0.50 0.25 -2.63 -0.13 -4.75 -0.75 -3.50 -1.25 -3.75 -7.88 -4.50 -20.25 -2.38 -35.75 -10.88 -42 -23.25 -1.75 -3.50 -2.63 -6.25 -2 -6.25 0.63 0 1.50 1.13 2 2.50 2 6.50 16.75 14.75 26.38 14.75 2.13 0.13 6.13 1.25 8.88 2.75 2.75 1.38 9 3.38 13.63 4.25 9.25 1.63 9.25 1.75 7.25 9.88 -1.25 5.13 1.25 7.13 8.50 7.13 5.63 0 6.13 0.25 5.75 2.75 -0.50 3.13 -0.50 3.13 -10.75 2.50z"/>
  <path d="M240.63 268.88 c0.38 -0.75 1.50 -1.38 2.25 -1.38 2.63 0 14.38 -12.13 19.50 -20 2.63 -4.13 5.88 -11.13 7.13 -15.75 1.88 -7.25 2 -9.50 0.75 -17 -1.75 -10.38 -6.13 -19.25 -13 -26.75 -5.75 -6.25 -5.50 -6.75 1.50 -2.38 10.88 6.88 16.75 19.75 16.75 36.88 0 8.88 -0.63 11.88 -3.38 17.88 -4.25 9.38 -9.38 15.88 -17 21.38 -6.38 4.75 -16 9.38 -14.50 7.13z"/>
  <path d="M97.50 255.63 c-0.88 -1 -2 -1.63 -2.50 -1.25 -0.50 0.38 -0.88 -0.75 -0.88 -2.50 0 -1.75 0.38 -2.75 1 -2.38 0.63 0.38 1.13 1.25 1.13 2 0 0.75 0.88 2.50 2.13 3.75 1.13 1.25 1.75 2.25 1.38 2.25 -0.38 0 -1.38 -0.88 -2.25 -1.88z"/>
  <path d="M212.13 240.38 c-1.13 -1 -1.13 -19.63 -0.13 -32 l0.88 -9.50 3.88 0.75 c11.13 2.13 18.13 8.75 19.13 18.38 0.63 5.38 0.38 5.88 -5.75 12.38 -3.50 3.75 -6.38 7.38 -6.38 8 0 2.50 -9.63 4.13 -11.63 2z m11.38 -6.63 c2.25 -1.38 5 -4.38 6.13 -6.75 1.88 -4 1.88 -4.50 -0.50 -9 -2.50 -4.88 -6.63 -8.50 -11.13 -9.75 -2.50 -0.75 -2.63 -0.25 -3.75 13.13 -0.63 7.63 -0.88 14 -0.63 14.38 1.25 1.25 6.13 0.25 9.88 -2z"/>
  <path d="M214.25 159.75 c0.50 -6.38 1.13 -15.50 1.63 -20.13 l0.75 -8.50 3.75 0.88 c7.88 1.75 19.13 7.88 24.63 13.50 5.88 6.13 9 7 13.50 3.75 4.63 -3.25 4.63 -1.13 0 2.38 -2.25 1.75 -6.13 3.50 -8.50 4 -4.25 0.75 -4.63 0.50 -8.63 -5.75 -3.38 -5 -5.63 -7 -11 -9.38 -12.25 -5.50 -12.50 -5.13 -13.75 16.75 -0.38 7.75 -1.25 14 -2 14 -0.75 0 -0.88 -4.38 -0.38 -11.50z"/>
  <path d="M222.88 166.75 c-0.75 -2 0.50 -21.88 1.50 -22.75 0.25 -0.38 1.38 -0.25 2.50 0.25 1.75 0.63 2 2.13 1.25 10.50 -0.50 5.25 -1.13 10.63 -1.38 11.88 -0.88 2.63 -2.88 2.75 -3.88 0.13z"/>
  <path d="M255.75 160.25 c2.13 -1.13 5.25 -3.25 6.88 -4.63 5.38 -4.38 16.13 -18.50 16.13 -21.25 0 -3.63 -6.13 -13 -11.38 -17.38 -4.88 -4.25 -12.63 -7.75 -27 -12.50 -5.75 -1.88 -10.63 -3.88 -10.88 -4.25 -0.25 -0.50 -0.88 -3.63 -1.38 -7 -1 -6.88 1 -7.50 4.38 -1.25 1.75 3.13 4.25 4.38 17.38 8.75 23.13 7.88 26 9.88 31.38 22.50 3 6.88 3.25 12.13 0.63 14.25 -1 0.88 -1.88 2.25 -1.88 3 -0.13 3.75 -11.13 15.25 -17.50 18.50 -7.38 3.75 -13.13 4.75 -6.75 1.25z"/>
  <path d="M176.13 158.50 c-2.50 -4.63 -2.13 -12.88 0.88 -16.88 3.63 -4.88 10.25 -9.13 14.38 -9.13 5.63 0 5.25 2 -0.75 4.25 -8.50 3.25 -13.13 8.25 -13.13 14 0 3.13 0.88 5.75 2.75 7.63 l2.63 2.88 -2.63 0 c-1.50 0 -3.38 -1.25 -4.13 -2.75z"/>
  <path d="M142.63 143.63 c-0.13 -4.88 7 -18.25 11.63 -21.75 7.88 -6 19.88 -10.63 32.38 -12.25 13.63 -2 16.75 -0.75 3.75 1.25 -16.63 2.63 -33.13 11 -39.50 19.88 -2.25 3 -5 7.88 -6.13 10.88 -1.75 4.38 -2.13 4.75 -2.13 2z"/>
 </g>
 <g fill="#783e1b">
  <path d="M187.25 357.50 c-7.50 -1.25 -18.38 -6.75 -27.75 -13.75 -6 -4.63 -6.88 -5.63 -5 -6.38 1.38 -0.38 4.88 0.13 7.88 1.38 5.38 2.13 5.75 2.13 10 -0.50 2.63 -1.50 3.88 -1.88 3.25 -0.75 -0.75 1.25 -0.50 1.50 1.13 0.88 1.13 -0.50 1.88 -0.38 1.50 0.13 -1.13 2 4.38 5.50 7.38 4.75 1.63 -0.38 6 -0.13 9.63 0.75 8.63 1.88 15.38 1.75 19.38 -0.38 3.75 -2 12.25 -10.13 11.88 -11.38 -0.13 -0.50 1.13 -2 2.88 -3.25 1.63 -1.38 2.63 -2.75 2.25 -3.25 -0.38 -0.38 0.63 -0.75 2.38 -0.75 3.75 0 6.25 -3.25 8.50 -11 2.13 -6.75 7.50 -13.13 13.88 -16.25 5.38 -2.63 8.63 -2.50 8.63 0.50 0 1 0.50 1.75 1.13 1.75 2.25 0 11.25 -5.50 10.63 -6.50 -0.38 -0.50 0 -1 0.75 -1 0.75 0 1 -0.63 0.63 -1.25 -0.38 -0.75 0.13 -1.63 1.13 -2 1.13 -0.38 1.75 -1.25 1.38 -1.75 -0.38 -0.50 1.50 -2.88 4.13 -5.13 2.50 -2.25 4.50 -4.63 4.38 -5.13 -0.25 -0.50 0.63 -1.13 1.88 -1.25 4.75 -0.38 3 0.50 21.75 -11.25 5.75 -3.63 10 -7.88 13 -13 2.25 -3.88 5.50 -0.13 5.50 6.38 0 7.13 -5.88 14.38 -25.38 31.38 -19.25 16.75 -30.25 24.13 -42.75 28.50 -11.75 4.25 -14.63 6.25 -32.50 23 -7.50 7.13 -15.88 14.13 -18.38 15.38 -5 2.50 -14.13 2.88 -25 1.13z"/>
  <path d="M114.38 308.75 c-3.38 -2.63 -6.38 -5.38 -6.63 -6.13 -0.25 -0.75 1.88 -1.13 5 -0.88 3 0.25 6.63 0.50 8.25 0.50 2.38 0.25 2.75 0.88 2.75 5.88 0 7 -1.13 7 -9.38 0.63z"/>
  <path d="M122.75 294.25 c-0.88 -1 -1.25 -1.75 -0.75 -1.75 0.38 0 -0.50 -1.13 -2.13 -2.50 -3.38 -2.75 -1.63 -3.25 3.25 -1 3.13 1.38 3.75 3 2.13 5.50 -0.63 1.13 -1.38 1 -2.50 -0.25z"/>
  <path d="M295.63 271.38 c0 -2.50 1.38 -4 6.88 -7.25 3.75 -2.25 7.25 -4.13 7.75 -4.13 2.50 0 0.38 2.50 -6.88 8.38 -7.63 6.13 -7.88 6.25 -7.75 3z"/>
  <path d="M323.50 200.38 c-3.38 -8.75 -3.13 -10.38 1.50 -7.88 2.38 1.25 2.50 1.13 1.75 -1.75 -0.50 -2.38 -0.25 -3.25 1.13 -3.25 1.50 0 1.88 2.13 2 10.63 0.25 13.38 -1.75 14 -6.38 2.25z"/>
  <path d="M320.75 170.38 c-3 -3 -3.13 -3.38 -1.38 -5.38 1.63 -1.75 1.75 -2.38 0.38 -3 -0.88 -0.38 -0.25 -0.50 1.50 -0.38 2.25 0.13 3.25 1.13 3.50 3.13 0.25 1.50 1 2.50 1.63 2 0.63 -0.38 1 1 0.88 3.13 -0.38 4.75 -2.13 4.88 -6.50 0.50z"/>
  <path d="M214.88 167.25 c-0.38 -2.75 -0.13 -4.25 0.50 -3.63 0.63 0.63 0.88 2.63 0.63 4.63 -0.38 3.38 -0.50 3.25 -1.13 -1z"/>
  <path d="M329.50 116 c-1.13 -0.63 -2 -1.88 -2 -2.88 0 -1 -3.50 -5.25 -7.63 -9.38 -4.25 -4.25 -7.38 -7.88 -7 -8.25 1.50 -1.63 20.88 13.63 23.38 18.38 1 1.63 0.63 2.25 -1.75 2.63 -1.63 0.38 -3.88 0.13 -5 -0.50z"/>
 </g>
</svg>