<svg xmlns="http://www.w3.org/2000/svg" viewBox="0 0 128 128"><circle cx="64" cy="64" r="64" fill="#2775C9"/><path fill="#fff" d="M63 110a47 47 0 0 1-43.422-29.014A47 47 0 1 1 63 110m-2.8-64.44a10.32 10.32 0 0 0-9.8 9.88c0 4.84 2.96 8 9.24 9.32l4.4 1.04c4.28 1 6.04 2.44 6.04 4.88S67 75.52 63 75.52a7.6 7.6 0 0 1-7.2-3.64 2.72 2.72 0 0 0-2.44-1.56H51a1.4 1.4 0 0 0-1.12 1.64 10.92 10.92 0 0 0 10.44 8.32v3.36a2.82 2.82 0 1 0 5.64 0v-3.4a10.48 10.48 0 0 0 10.36-10.32c0-5.08-2.92-8-9.84-9.48l-4-.88c-4-1-5.88-2.32-5.88-4.56s2.4-4.72 6.4-4.72a6.56 6.56 0 0 1 6.36 3.24 3.2 3.2 0 0 0 2.88 1.84h1.88a1.68 1.68 0 0 0 1.24-2 10.6 10.6 0 0 0-9.52-8V42.6a2.82 2.82 0 1 0-5.64 0zM27.76 63a35.16 35.16 0 0 0 24 33.32h.56a1.8 1.8 0 0 0 1.8-1.8v-.84a3.76 3.76 0 0 0-2.32-3.48 29.44 29.44 0 0 1 0-54.6 3.72 3.72 0 0 0 2.32-3.44v-.92a1.68 1.68 0 0 0-2.24-1.6A35.16 35.16 0 0 0 27.76 63m70.48 0a35.16 35.16 0 0 0-24-33.28h-.6a1.88 1.88 0 0 0-1.88 1.88v.6a4 4 0 0 0 2.44 3.6 29.44 29.44 0 0 1 0 54.56 4 4 0 0 0-2.4 3.56v.68a1.88 1.88 0 0 0 2.48 1.76A35.16 35.16 0 0 0 98.24 63"/></svg>
