<svg xmlns="http://www.w3.org/2000/svg" viewBox="0 0 128 128"><path fill="#50AF95" d="M23.424 8.883.102 57.907a.934.934 0 0 0 .205 1.101l63.027 60.39a.957.957 0 0 0 1.332 0l63.027-60.39a.94.94 0 0 0 .205-1.1L104.576 8.882a.96.96 0 0 0-.87-.563H24.294c-.358 0-.69.205-.87.563"/><path fill="#fff" d="M72.09 62.925c-.461.025-2.79.179-8.013.179-4.147 0-7.091-.128-8.115-.18-16.026-.716-28.007-3.506-28.007-6.834 0-3.354 11.955-6.119 28.007-6.836V60.16c1.05.077 4.044.256 8.192.256 4.966 0 7.475-.205 7.91-.256V49.254c16 .717 27.93 3.508 27.93 6.836S88.09 62.208 72.09 62.925m0-14.797v-9.754h22.323V23.501H33.638v14.873h22.324v9.754c-18.15.845-31.796 4.429-31.796 8.73 0 4.3 13.645 7.884 31.796 8.73v31.257H72.09V65.587c18.099-.845 31.718-4.429 31.718-8.73 0-4.3-13.594-7.884-31.718-8.729"/></svg>
