<svg xmlns="http://www.w3.org/2000/svg" viewBox="0 0 64 64"><circle cx="32" cy="32" r="32" fill="#78350F"/><circle cx="32" cy="32" r="29" fill="#fff"/><path fill="#78350F" d="M23.76 20.568a5 5 0 0 0-1.743-.685 4.6 4.6 0 0 0-1.834.021 4.5 4.5 0 0 0-1.644.721c-.49.348-.9.799-1.207 1.317a4.5 4.5 0 0 0-.584 1.712 4.7 4.7 0 0 0 .126 1.841c.269 1.006 1.512 1.198 2.366.586l2.176-1.556 2.182-1.56c.853-.613 1.053-1.837.163-2.397m23.006 1.374a4.33 4.33 0 0 0-2.851-2.038 4.6 4.6 0 0 0-1.834-.02 5 5 0 0 0-1.744.684c-.89.56-.69 1.784.163 2.396l2.182 1.561 2.176 1.556c.854.612 2.097.42 2.366-.586a4.7 4.7 0 0 0 .126-1.841 4.5 4.5 0 0 0-.584-1.712M33.815 38.799a5.08 5.08 0 0 0-3.235 0c-.58.197-1.086.503-1.054.964.058.706 1.18 1.914 1.991 2.163.496.15.807.14 1.36 0 .811-.208 1.939-1.457 1.992-2.163.037-.461-.475-.767-1.054-.965m-5.559-2.271a3.6 3.6 0 0 0-1.064-.944 3.4 3.4 0 0 0-1.333-.44 3.5 3.5 0 0 0-1.402.129c-.453.14-.88.368-1.254.68a3.8 3.8 0 0 0-.917 1.125c-.385.72.227 1.478 1.049 1.571l2.076.234 2.092.238c.822.094 1.596-.503 1.385-1.291a3.8 3.8 0 0 0-.632-1.302m12.868-.649a3.7 3.7 0 0 0-1.255-.68 3.5 3.5 0 0 0-1.401-.129 3.4 3.4 0 0 0-1.333.441c-.411.239-.775.56-1.065.944s-.505.825-.632 1.302c-.21.788.564 1.385 1.38 1.291l2.093-.238 2.08-.234c.823-.093 1.434-.85 1.05-1.571a3.9 3.9 0 0 0-.917-1.126"/><path fill="#78350F" d="M51.009 30.9a10.35 10.35 0 0 0 2.719-7.11 10.3 10.3 0 0 0-1.038-4.394c-1.866-3.859-6.587-6.872-11.419-5.866a8 8 0 0 0-.584.151 5.8 5.8 0 0 0-1.96 1.04c-1.291 1.03-3.663 1.72-6.376 1.72h-.308c-2.712 0-5.084-.692-6.375-1.722a5.8 5.8 0 0 0-1.961-1.039 8 8 0 0 0-.584-.151c-4.831-1.006-9.552 2.007-11.418 5.866a10.3 10.3 0 0 0-1.038 4.393 10.36 10.36 0 0 0 2.72 7.111.73.73 0 0 1 .178.602c-1.164 6.55.554 11.94 4.09 15.777 3.714 4.03 9.162 6.038 14.447 6.147h.191c5.284-.109 10.733-2.116 14.447-6.146 3.536-3.838 5.254-9.227 4.09-15.778a.73.73 0 0 1 .178-.602zm-3.093-1.136a.87.87 0 0 0-.3.882c2.745 11.436-4.31 18.112-12.415 19.543h-.005q-1.171.209-2.366.27c-.047 0-.1.005-.147.005-.148.01-.3.01-.448.016h-.037l-.01-.001h-.027c-.148-.005-.3-.005-.448-.015-.047 0-.1-.006-.148-.006a19 19 0 0 1-2.365-.27h-.006c-8.104-1.43-15.16-8.106-12.414-19.543a.87.87 0 0 0-.3-.881 7.5 7.5 0 0 1-2.83-5.95 7.45 7.45 0 0 1 .743-3.153c1.38-2.858 4.853-4.938 8.115-4.258.382.078 1.406.41 2.404.878.362.17.702.382 1.02.622 1.308.988 3.625 1.645 6.266 1.648 2.642-.002 4.96-.66 6.267-1.647.318-.24.657-.452 1.02-.622.997-.468 2.021-.8 2.404-.879 3.261-.68 6.734 1.4 8.115 4.259.474.985.732 2.064.742 3.153a7.5 7.5 0 0 1-2.83 5.95"/></svg>
