<svg xmlns="http://www.w3.org/2000/svg" fill="none" viewBox="0 0 1739 1739"><rect width="1738.27" height="1738.27" fill="url(#a)" rx="869.136"/><path fill="url(#b)" fill-rule="evenodd" d="M1286.29 1270.21c.1.74.15 1.49.17 2.25.02 5.9-3.02 11.4-8.04 14.49l-402.608 248.26c-5.444 3.35-12.291 3.37-17.715.02L458.74 1290.07a16.93 16.93 0 0 1-8.063-14.47c0-.51.021-1.03.084-1.54a14 14 0 0 1-.084-1.62l-.024-306.3c0-.37.021-.739.042-1.09a16.87 16.87 0 0 1 4.312-12.423c5.36-5.939 14.133-7.302 21.022-3.291l392.426 227.754 388.805-225.554c.63-.39 1.3-.7 1.97-.993 2.85-2.2 6.41-3.504 10.3-3.504 9.32 0 16.9 7.574 16.9 16.901l.03 303.89c0 .82-.07 1.6-.17 2.38m-801.819-24.5 115.999-70.08-116.017-159.68zm135.937-42.63-120.334 72.69 312.537 191.89zm306.281 261.05 310.371-191.39-119.93-72.11zm210.311-291 115.66 69.54-.02-229.54zm-277.023 38.11-331.761-192.56 340.222 468.33 337.072-466.38-328.572 190.61a16.91 16.91 0 0 1-16.961 0M466.979 883.927c-9.066-.311-16.334-7.749-16.334-16.901l-.032-398.136c0-.993.084-1.968.252-2.903a15.5 15.5 0 0 1-.252-2.803 16.89 16.89 0 0 1 8.061-14.468l402.627-246.932a16.85 16.85 0 0 1 17.63-.02l399.359 243.817a16.95 16.95 0 0 1 8.1 14.467c0 .253-.02.488-.02.741s.02.506.02.778l.04 403.375c0 7.127-4.44 13.242-10.68 15.715L876.594 1100.23a16.95 16.95 0 0 1-16.291 0zm17.433-390.931.025 320.363 143.584-234.021zm768.188-3.038-144.94 87.569 144.96 236.241zm-162.61 58.75c37.16-22.452 146.94-88.776 146.94-88.776L914.848 263.278zM819.657 266.959 500.072 462.97l145.62 87.568zM495.015 860.775l373.432 205.355L1241.8 860.755 868.382 252.179z" clip-rule="evenodd"/><path fill="#120370" fill-rule="evenodd" d="M1286.29 1270.21c.1.74.15 1.49.17 2.25.02 5.9-3.02 11.4-8.04 14.49l-402.608 248.26c-5.444 3.35-12.291 3.37-17.715.02L458.74 1290.07a16.93 16.93 0 0 1-8.063-14.47c0-.51.021-1.03.084-1.54a14 14 0 0 1-.084-1.62l-.024-306.3c0-.37.021-.739.042-1.09a16.87 16.87 0 0 1 4.312-12.423c5.36-5.939 14.133-7.302 21.022-3.291l392.426 227.754 388.805-225.554c.63-.39 1.3-.7 1.97-.993 2.85-2.2 6.41-3.504 10.3-3.504 9.32 0 16.9 7.574 16.9 16.901l.03 303.89c0 .82-.07 1.6-.17 2.38m-801.819-24.5 115.999-70.08-116.017-159.68zm135.937-42.63-120.334 72.69 312.537 191.89zm306.281 261.05 310.371-191.39-119.93-72.11zm210.311-291 115.66 69.54-.02-229.54zm-277.023 38.11-331.761-192.56 340.222 468.33 337.072-466.38-328.572 190.61a16.91 16.91 0 0 1-16.961 0M466.979 883.927c-9.066-.311-16.334-7.749-16.334-16.901l-.032-398.136c0-.993.084-1.968.252-2.903a15.5 15.5 0 0 1-.252-2.803 16.89 16.89 0 0 1 8.061-14.468l402.627-246.932a16.85 16.85 0 0 1 17.63-.02l399.359 243.817a16.95 16.95 0 0 1 8.1 14.467c0 .253-.02.488-.02.741s.02.506.02.778l.04 403.375c0 7.127-4.44 13.242-10.68 15.715L876.594 1100.23a16.95 16.95 0 0 1-16.291 0zm17.433-390.931.025 320.363 143.584-234.021zm768.188-3.038-144.94 87.569 144.96 236.241zm-162.61 58.75c37.16-22.452 146.94-88.776 146.94-88.776L914.848 263.278zM819.657 266.959 500.072 462.97l145.62 87.568zM495.015 860.775l373.432 205.355L1241.8 860.755 868.382 252.179z" clip-rule="evenodd"/><circle cx="869.136" cy="869.135" r="801.778" stroke="#120370" stroke-width="30.42"/><defs><linearGradient id="a" x1="120.442" x2="1625.97" y1="1142" y2="594.509" gradientUnits="userSpaceOnUse"><stop stop-color="#29BCFA"/><stop offset=".43" stop-color="#6464E4"/><stop offset="1" stop-color="#B45AFA"/></linearGradient><linearGradient id="b" x1="862.306" x2="1278.75" y1="1514.39" y2="468.586" gradientUnits="userSpaceOnUse"><stop stop-color="#29BCFA"/><stop offset=".43" stop-color="#6464E4"/><stop offset="1" stop-color="#B45AFA"/></linearGradient></defs></svg>
