<svg xmlns="http://www.w3.org/2000/svg" viewBox="0 0 250 250"><path fill="#FDD468" d="M74 0h102v24h25v25h25v25h24v102h-24v25h-25v25h-25v24H74v-24H49v-25H24v-25H0V74h24V49h25V24h25z"/><path fill="#29161B" d="M74 0h102v24h25v25h25v25h24v102h-24v25h-25v25h-25v24H74v-24H49v-25H24v-25H0V74h24V49h25V24h25zm1 25v25H50v25H25v100h25v25h25v25h100v-25h25v-25h25V75h-25V50h-25V25z"/><path fill="#FDEFC9" d="M50 50h100v25h-50v25H75v75H25V75h25z"/><path fill="#FDD468" d="M75 25h100v25h25v25h-25v75h-25v-50h-50V75h50V50H75z"/><path fill="#3BC260" d="M100 100h50v75h-50z"/><path fill="#BE9243" d="M75 200h100v25H75zM200 75h25v100h-25z"/><path fill="#BE9244" d="M25 75h25v100H25zm50-50h100v25H75z"/><path fill="#241219" d="M0 74h24v102H0zM74 0h102v24H74z"/><path fill="#868D22" d="M100 150h50v25h-50z"/><path fill="#C09445" d="M75 100h25v50H75z"/><path fill="#868D22" d="M150 100h25v50h-25z"/><path fill="#C09445" d="M100 75h50v25h-50z"/><path fill="#241219" d="M176 201h25v25h-25zm-127 0h25v25H49zm152-25h25v25h-25z"/><path fill="#BE9244" d="M50 175h25v25H50z"/><path fill="#241219" d="M24 176h25v25H24z"/><path fill="#BE9243" d="M175 175h25v25h-25z"/><path fill="#FDEFC8" d="M50 150h25v25H50z"/><path fill="#FDD469" d="M50 125h25v25H50z"/><path fill="#95E1A8" d="M100 100h25v25h-25z"/><path fill="#FDEFC8" d="M175 75h25v25h-25z"/><path fill="#BE9244" d="M175 50h25v25h-25z"/><path fill="#BE9245" d="M50 50h25v25H50z"/><path fill="#241219" d="M201 49h25v25h-25zM24 49h25v25H24zm152-25h25v25h-25zM49 24h25v25H49z"/></svg>
