<svg xmlns="http://www.w3.org/2000/svg" viewBox="0 0 128 128"><path fill="url(#a)" d="M126.084 79.482c-8.549 34.286-43.278 55.152-77.572 46.602-34.28-8.548-55.148-43.276-46.595-77.56C10.462 14.236 45.192-6.632 79.475 1.916c34.292 8.548 55.158 43.279 46.609 77.566"/><path fill="#fff" fill-rule="evenodd" d="M74.781 29.41a4 4 0 1 1 7.729 2.07l-1.695 6.324 1.051.282c7.567 2.027 12.057 9.805 10.03 17.372l-.094.35c-1.581 5.9-6.75 9.88-12.53 10.223l-.001.005h-.092l-.007.001-.028.001c-.421.035-.5.64-.08.771v.002c7.282 2.884 11.405 10.834 9.329 18.582-2.236 8.343-10.811 13.294-19.154 11.058l-2.456-.658-1.694 6.323a4 4 0 0 1-4.9 2.828 4 4 0 0 1-2.828-4.899l1.694-6.322-7.027-1.883-1.694 6.322a4 4 0 1 1-7.728-2.07l1.694-6.323-7.029-1.883-3.863-1.036a4.365 4.365 0 1 1 2.26-8.43l3.863 1.034 10.919-40.75-3.51-.94a4.365 4.365 0 0 1 2.26-8.432l3.512.941 5.62 1.507 1.694-6.324a4 4 0 1 1 7.729 2.07l-1.695 6.325 7.027 1.882zM55.807 56.413a5.143 5.143 0 0 1 3.637-6.298l14.39-3.856a5.143 5.143 0 0 1 2.661 9.934l-14.39 3.856a5.14 5.14 0 0 1-6.298-3.636m-6.58 23.269a5.14 5.14 0 0 1 3.636-6.298l14.39-3.856a5.142 5.142 0 1 1 2.662 9.935l-14.39 3.855a5.14 5.14 0 0 1-6.298-3.636" clip-rule="evenodd"/><path fill="#0C1618" d="M98.8 57.6c15.906 0 28.8-12.894 28.8-28.8S114.706 0 98.8 0 70 12.894 70 28.8s12.894 28.8 28.8 28.8"/><path fill="#FCFDFC" d="m100.802 12.137.275.04c2.828.446 5.5 1.539 7.768 3.3l.088.066q.123.095.245.194l.14.11c.623.507 1.237 1.054 1.758 1.667q.13.15.266.293a13 13 0 0 1 1.358 1.789l.121.188c.258.4.503.804.731 1.222l.109.193c.059.11.105.211.151.327l.078.172c1.917 4.22 2.096 8.955.477 13.3q-.223.564-.481 1.113l-.078.173a13.2 13.2 0 0 1-1.59 2.648l-.181.236-.094.122-.192.25a10 10 0 0 1-.714.827 7 7 0 0 0-.253.282q-.345.397-.748.737-.146.13-.288.265c-.241.221-.495.423-.755.621l-.13.101c-1.956 1.506-4.216 2.53-6.616 3.09l-.178.043c-1.121.244-2.259.335-3.404.336l-.571.002a16 16 0 0 1-4.927-.863l-.183-.06q-.625-.217-1.227-.496l-.121-.052a15.3 15.3 0 0 1-3.251-1.915l-.13-.1c-.372-.287-.74-.585-1.073-.92a6 6 0 0 0-.278-.259 9 9 0 0 1-.45-.426l-.149-.15c-.793-.821-1.46-1.748-2.072-2.71l-.08-.126c-.775-1.228-1.884-3.064-1.884-4.55l1.605-.01.903-.005.716.014c.116.155.163.277.226.457.34.944.765 1.867 1.332 2.698l.086.134c.69 1.057 1.552 2.111 2.546 2.897q.126.099.248.201c.324.27.657.51 1.011.739l.174.118c.158.106.322.2.486.296q.242.142.478.295c.148.085.3.151.456.219l.153.07c.973.438 1.952.784 2.998 1.006l.24.06c.349.074.704.115 1.057.163v-4.305l-.482-.074a8 8 0 0 1-.297-.075l-.141-.034-.155-.04-.098-.024a3.6 3.6 0 0 1-.643-.236l-.11-.035a3 3 0 0 1-.385-.175 5 5 0 0 0-.22-.101 9 9 0 0 1-.444-.21l-.155-.078c-.132-.069-.132-.069-.243-.143v-.074l-.095-.025a1.4 1.4 0 0 1-.387-.235v-.074l-.148-.037a4 4 0 0 1-.211-.144l-.11-.079c-.087-.074-.087-.074-.124-.186l-.148-.074a7.4 7.4 0 0 1-1.187-1.224l-.086-.108c-.637-.801-1.119-1.717-1.47-2.676l-.06-.157c-.812-2.26-.591-4.875.393-7.043l.112-.185.111-.26c.502-.97 1.199-1.895 2.039-2.598l.169-.158c.238-.215.496-.4.757-.585l.157-.111c.28-.196.55-.38.874-.496q.185-.073.36-.172a3 3 0 0 1 .5-.223l.147-.069c1.654-.704 3.68-.783 5.412-.376l.134.03a9.2 9.2 0 0 1 3.647 1.752l.15.117a9.5 9.5 0 0 1 2 2.183v.112h.074c.105.156.195.306.259.482l.079.174c.07.16.07.16.07.235q-.916.013-1.83.02l-1.03.012c-.889-.034-.889-.034-1.353-.504-.381-.376-.837-.657-1.31-.902l-.148-.077c-.429-.214-.875-.35-1.335-.48v-.073l-.157.004c-.214-.004-.214-.004-.419-.041-.983-.154-2.223-.04-3.159.338-.083.032-.083.032-.193.032v.075l-.219.093-.122.052c-.104.04-.104.04-.179.04v.074l-.115.047c-.624.282-1.23.836-1.664 1.364l-.068.078a5.1 5.1 0 0 0-.784 1.258l-.13.246a3 3 0 0 0-.247.712c-.031.118-.031.118-.105.267-.329 1.877-.051 3.655 1.037 5.233q.197.248.408.482l.133.155.127.142.076.085c.323.343.719.644 1.147.843v.074l.153.047a.8.8 0 0 1 .276.133c1.165.727 2.823.668 4.13.525v-.074l.097-.023c1.231-.312 2.237-.903 3.128-1.796q.96-.023 1.922-.013l1.068.006.827.007c-.295.741-.794 1.411-1.331 1.995q-.104.115-.204.232a6.6 6.6 0 0 1-.911.854l-.134.105c-1.111.855-2.792 1.862-4.239 1.862v4.342c.235-.025.235-.025.362-.073.165-.053.332-.076.504-.103.921-.157 1.843-.393 2.692-.789l.266-.104a11 11 0 0 0 1.345-.675q.148-.084.3-.165c.656-.364 1.257-.84 1.832-1.32l.131-.107q.69-.581 1.278-1.266l.096-.11a13.4 13.4 0 0 0 2.202-3.564l.073-.173c.709-1.707 1.005-3.5 1.011-5.34l.003-.518a11 11 0 0 0-.235-1.949l-.055-.28-.056-.276-.055-.295a3 3 0 0 0-.167-.559l-.25-.757a9 9 0 0 0-.327-.827 13 13 0 0 1-.149-.334 4 4 0 0 0-.255-.508 4 4 0 0 1-.161-.311 4 4 0 0 0-.284-.483 6 6 0 0 1-.17-.266q-.422-.662-.925-1.264l-.084-.106a11.5 11.5 0 0 0-1.695-1.676l-.144-.121c-2.871-2.387-6.599-3.338-10.28-2.998q-.76.097-1.511.262l-.28.058c-.832.183-1.637.52-2.413.868l-.174.077q-.189.082-.374.175c-.095.046-.095.046-.169.046v.074l-.143.06c-.489.227-.95.538-1.377.869l-.117.088A16 16 0 0 0 89.2 18.89l-.126.115a5.5 5.5 0 0 0-.547.548c-.09.104-.184.202-.279.303a9 9 0 0 0-.68.853l-.103.138c-.477.635-.9 1.332-1.22 2.06a3 3 0 0 1-.158.289q-.058.148-.112.297l-.083.195c-.116.275-.21.559-.308.842-.054.15-.054.15-.09.188-1.086.12-2.21.034-3.299 0 .242-1 .567-2.016 1.037-2.933l.188-.4c.19-.4.4-.78.628-1.158l.074-.126q.489-.806 1.075-1.544l.127-.167c1.282-1.642 2.876-2.993 4.654-4.064l.145-.091.15-.092.135-.085a.85.85 0 0 1 .349-.104v-.074c.301-.154.6-.306.915-.432q.233-.096.465-.196c.47-.197.937-.375 1.427-.514q.156-.044.31-.092c.8-.245 1.615-.387 2.443-.51l.269-.04c1.373-.163 2.847-.172 4.216.04"/><path fill="#FC7102" d="M98.8 32.288a3.487 3.487 0 1 0 0-6.975 3.487 3.487 0 0 0 0 6.975"/><defs><linearGradient id="a" x1="64" x2="64" y1="0" y2="128" gradientUnits="userSpaceOnUse"><stop stop-color="#FEDF70"/><stop offset="1" stop-color="#D88528"/></linearGradient></defs></svg>
