<svg xmlns="http://www.w3.org/2000/svg" viewBox="0 0 98 128"><path d="M44.093 95.744c-2.14.011-4.696-.115-7.25-.275-2.101-.13-4.189-.408-6.27-.743-3.751-.605-7.432-1.492-11.03-2.72-3.367-1.15-6.61-2.57-9.684-4.363-3.08-1.794-5.552-4.219-7.46-7.211C.818 77.95.068 75.214.011 72.284c-.028-1.463-.02-2.924.259-4.369.353-1.85 1.11-3.53 2.184-5.072.494-.711 1.045-1.375 1.598-2.036q.778-.928 1.542-1.867c2.74-3.384 4.396-7.26 5.208-11.503.282-1.47.468-2.962.518-4.463.03-.915-.24-1.714-.965-2.35-1.956-1.72-3.307-3.87-4.345-6.227-1.177-2.67-1.953-5.46-2.38-8.346-.202-1.372-.416-2.742-.503-4.128-.254-4.123-.09-8.203 1.292-12.155.546-1.564 1.222-3.06 2.187-4.416 1.701-2.397 4.074-3.832 6.832-4.7 2.384-.75 4.794-.887 7.221-.218.614.169 1.22.377 1.76.73.991.644 1.592 1.568 1.923 2.685.196.654.208.6.756.6.612 0 .984.326 1.158.884.106.338.188.687.242 1.037.048.297.222.415.488.452.223.03.45.03.668.101.572.185.84.61.744 1.208-.024.148-.078.288-.047.443.044.235.106.396.419.415.63.04 1.139.373 1.544.84a6.7 6.7 0 0 1 1.29 2.284c.414 1.243.877 2.47 1.18 3.745.166.692.321 1.386.418 2.092.054.401.195.76.473 1.058.317.34.706.5 1.167.408 2.634-.518 5.303-.596 7.974-.657a82 82 0 0 0 2.933-.114c1.186-.069 2.367-.024 3.551.02 1.843.066 3.686.139 5.527.202.96.033 1.915.12 2.866.247.727.096 1.28-.183 1.77-.669.106-.105.198-.227.283-.35 1.405-2.042 3.382-3.18 5.775-3.7 3.59-.779 6.988-.216 10.232 1.405 3.278 1.637 4.817 4.388 4.97 7.964.064 1.499.069 2.997-.315 4.47-.179.692-.39 1.372-.718 2.005-.273.526-.223.945.144 1.433 1.838 2.428 3.504 4.963 4.65 7.803.838 2.075 1.396 4.228 1.881 6.405.424 1.904.774 3.82.829 5.776.028 1.01.084 2.026.049 3.035-.052 1.404.563 2.293 1.866 2.804 1.794.706 3.437 1.687 4.943 2.885.339.27.666.551.993.833 2.034 1.74 2.872 3.991 2.945 6.616.117 4.252-1.293 8.018-3.792 11.348-3.61 4.81-8.268 8.35-13.84 10.676-3.228 1.348-6.58 2.317-9.972 3.154-2.278.563-4.559 1.116-6.88 1.492a98 98 0 0 1-7.27.912c-4.443.373-7.425.406-12.144.333M37.387 115.3c.937-.2 1.876-.394 2.834-.458.909-.061 1.831-.044 2.664.326 1.158.514 2.04 1.351 2.665 2.489.934 1.705.746 3.463.419 5.253-.257 1.402-1.05 2.46-2.138 3.33-.896.718-1.925 1.156-3.036 1.419a9 9 0 0 1-1.668.256c-1.843.079-3.69.161-5.524-.043-2.33-.258-4.143-1.367-5.3-3.447-.815-1.464-1.206-3.063-1.53-4.681-.467-2.329-.535-4.686-.4-7.052.086-1.515.155-3.03.489-4.52a16 16 0 0 1 .958-2.931c1.179-2.657 3.205-4.28 6.046-4.906 1.648-.364 3.321-.385 4.995-.37 1.202.009 2.407-.012 3.594.252.663.148 1.306.359 1.901.683 1.478.802 2.222 2.024 2.095 3.726-.033.43-.023.861-.144 1.283-.484 1.698-1.541 2.862-3.266 3.324-1.608.431-3.237.394-4.863.042-.292-.064-.574-.181-.88-.179-.212-.082-.429-.058-.645-.014-.033.007-.108-.009-.092.036.012.03.09.049.13.086.397.106.795.214 1.153.432.48.291.774.71.87 1.252.158.875.093 1.754-.046 2.625-.13.811-.702 1.247-1.422 1.522-.174.065-.36.107-.539.159-.056.049-.115.089-.193.087.028.037.073.023.11.03.255.05.51.078.76-.004zm23.482-.113c.923-.181 1.84-.38 2.78-.448.93-.068 1.871-.051 2.718.326 1.236.547 2.142 1.459 2.763 2.692.7 1.386.671 2.824.488 4.283-.389 3.088-2.373 4.702-5.214 5.49a8.5 8.5 0 0 1-2.005.298c-1.71.049-3.424.124-5.133-.045-2.523-.246-4.42-1.442-5.597-3.719-.652-1.264-1.007-2.622-1.304-3.994-.513-2.397-.638-4.824-.504-7.27.064-1.18.09-2.36.26-3.532.223-1.55.647-3.04 1.324-4.452 1.215-2.525 3.239-4.017 5.967-4.603 1.63-.35 3.285-.368 4.94-.357 1.184.007 2.37-.01 3.54.247.72.157 1.415.387 2.055.752 1.299.739 1.981 1.837 2.003 3.347.014 1.053-.123 2.054-.716 2.955-.852 1.29-2.064 1.972-3.59 2.165-1.513.19-3 .11-4.473-.282-.476-.126-.956-.206-1.464-.143.07.174.228.167.36.197.164.04.332.063.494.108 1.1.314 1.565.858 1.688 1.979.068.617.032 1.236-.01 1.853-.066.978-.614 1.576-1.51 1.895q-.213.072-.43.141c-.096.105-.237.096-.36.136-.053.016-.105.014-.112 0 .33-.071.682.103 1.04-.019zM13.503 97.27c-.078.859-.175 1.157.972 1.508.125.038.242.104.367.146.31.103.572.082.798-.211.228-.296.508-.551.762-.828 1.37-1.48 3.25-1.548 4.757-.833 1.56.74 2.415 2.045 2.777 3.682.612 2.777-.139 5.223-1.913 7.39-.951 1.161-2.08 2.111-3.453 2.749-1.953.91-3.274 2.399-4.093 4.369-.33.795-.701 1.574-1.064 2.355-.536 1.16-1.353 2.117-2.292 2.964-1.04.94-2.283 1.269-3.665.992-1.315-.263-2.549-.75-3.728-1.393-1.8-.98-2.434-2.8-2.208-4.552.132-1.03.46-2.005.787-2.983.298-.889.571-1.783.743-2.704.294-1.586.134-3.134-.374-4.656-.256-.762-.574-1.508-.734-2.298-.389-1.914-.066-3.738.828-5.448.796-1.52 1.965-2.742 3.364-3.726 1.216-.857 2.57-1.206 4.062-.894 2.13.446 3.472 2.212 3.31 4.371zm59.511 4.954c-.01-.699.165-1.687.565-2.634a5.05 5.05 0 0 1 2.015-2.355 11 11 0 0 1 1.963-.97c1.875-.716 3.718-1.513 5.615-2.175.833-.288 1.65-.623 2.483-.91 2.246-.776 4.29-.455 6.103 1.124.57.497 1.085 1.041 1.495 1.677 1.257 1.953 1.7 4.097 1.452 6.39a3.9 3.9 0 0 1-.824 2.003c-.21.265-.41.537-.628.793-.697.814-.817 1.752-.565 2.746.27 1.074.777 2.066 1.172 3.098.558 1.454 1.05 2.927 1.2 4.487.07.713.033 1.418-.202 2.108-.316.922-.87 1.649-1.697 2.172a11.15 11.15 0 0 1-4.448 1.653c-1.36.19-2.514-.305-3.481-1.241-.74-.717-1.21-1.615-1.64-2.535-.556-1.189-1.001-2.42-1.437-3.656-.193-.546-.414-1.086-.713-1.585-.616-1.035-1.442-1.748-2.713-1.86-.848-.075-1.667-.296-2.364-.826a7.7 7.7 0 0 1-1.746-1.82c-1.094-1.62-1.588-3.417-1.603-5.682z"/><path fill="#CDD7D7" d="M60.87 115.188c-.37.171-.759.115-1.215.084.228-.178.426-.229.65-.201.155.194.385.033.564.117"/><path fill="#BFC3C3" d="M37.387 115.301c-.379.176-.765.126-1.252.072.226-.18.389-.227.577-.185.195.223.461.014.678.113z"/><path fill="#CBEAEA" d="M36.693 109.198c-.19.036-.339-.054-.494-.159.374-.063.739-.12 1.096.051-.195.068-.428-.065-.604.108z"/><path fill="#FFDC70" d="M15.92 41.81c.019-.452-.198-.74-.614-.902-.245-.096-.48-.214-.723-.317-2.08-.875-3.742-2.275-5.09-4.06-1.524-2.016-2.5-4.296-3.277-6.679-.673-2.056-1.047-4.172-1.356-6.304a36 36 0 0 1-.395-5.262c.007-3.392.612-6.668 1.982-9.785a12.4 12.4 0 0 1 1.887-3.05c1.485-1.753 3.418-2.782 5.569-3.458 2.071-.65 4.166-.769 6.28-.22a7 7 0 0 1 1.105.41c.855.38 1.347 1.049 1.634 1.9.096.284.179.575.301.844.252.556.678.91 1.311.899.346-.007.473.136.509.44.016.148.044.296.075.444.16.797.624 1.313 1.438 1.458.266.047.36.13.285.4a1.7 1.7 0 0 0-.055.499c.029.694.445 1.151 1.14 1.252.148.021.299.021.45.03.397.024.717.197.964.51.233.295.429.614.577.96 1.028 2.407 1.796 4.886 2.01 7.508.11 1.35-.007 2.695-.125 4.04-.023.28-.059.561-.061.84-.007.432.158.7.478.805.357.12.619-.03.826-.314.021-.03.047-.06.068-.09.74-.429.998-1.172 1.08-1.925.102-.91.688-1.35 1.363-1.768.078-.05.177-.066.228-.153.688-.206 1.4-.239 2.107-.31 1.572-.154 3.15-.201 4.728-.232a91 91 0 0 0 2.818-.107c1.388-.068 2.777-.035 4.166.016q2.818.103 5.632.211c.376.014.748.05 1.118.12.534.4.983.837.946 1.592-.038.765.426 1.222 1.059 1.543.699.458 1.186.235 1.283-.59.075-.65.05-1.316.242-1.947.73-2.374 2.238-4.055 4.592-4.88 2.846-1 5.715-.918 8.57.02.948.312 1.859.704 2.713 1.22 1.747 1.055 2.848 2.575 3.293 4.56.468 2.08.341 4.124-.435 6.12-.551 1.414-1.478 2.505-2.796 3.267-.26.15-.525.293-.782.448-.642.387-.692.795-.165 1.346.087.11.236.021.33.103h.004c.36.13.723.139 1.107.115 1.047-.063 1.932.209 2.593 1.135.989 1.389 1.728 2.901 2.39 4.454 1.31 3.086 2.254 6.283 2.69 9.613.148 1.13.266 2.268.282 3.412.04 2.793.81 5.338 2.485 7.615a14.1 14.1 0 0 1 2.415 5.35c.47 2.117.043 4.13-.755 6.095-1.274 3.135-3.206 5.84-5.472 8.33-1.923 2.116-3.929 4.137-6.301 5.77-2.857 1.965-6.009 3.252-9.37 4.038-2.365.553-4.787.753-7.204.943-2.773.218-5.543.387-8.323.473-1.617.052-3.234.108-4.848.066-4.46-.12-8.9-.453-13.235-1.611-2.8-.748-5.535-1.665-8.155-2.948-1.944-.952-3.9-1.853-5.693-3.077-2.304-1.571-4.496-3.279-6.4-5.319-2.575-2.756-4.561-5.863-5.439-9.58-.781-3.312-.242-6.428 1.403-9.39.682-1.232 1.466-2.402 2.144-3.636.953-1.733 1.374-3.611 1.523-5.546.165-2.148.908-4.12 1.664-6.095.158-.41.442-.741.781-1.018.212-.174.356-.38.424-.64z"/><path fill="#EAC451" d="M15.92 41.81c.042.29-.085.526-.29.697-.826.697-1.07 1.689-1.386 2.646-.186.565-.348 1.132-.581 1.684-.23.544-.261 1.156-.332 1.747-.19 1.608-.332 3.224-.869 4.772-.456 1.318-1.155 2.512-1.901 3.682-.928 1.457-1.74 2.972-2.264 4.623-.318 1.001-.469 2.026-.504 3.079-.054 1.665.216 3.279.744 4.843.557 1.653 1.348 3.201 2.315 4.662 1.184 1.792 2.59 3.394 4.162 4.845 2.236 2.064 4.712 3.811 7.336 5.347.824.481 1.713.854 2.594 1.232.553.237 1.085.513 1.624.776 1.71.83 3.514 1.405 5.326 1.958 1.577.481 3.175.873 4.797 1.163.88.158 1.767.291 2.652.425.944.143 1.895.22 2.84.293 1.006.08 2.023.11 3.032.16 1.747.086 3.493.13 5.237.065 1.257-.047 2.514-.035 3.768-.105 1.215-.07 2.432-.127 3.641-.233 1.116-.098 2.236-.159 3.35-.288.87-.1 1.75-.152 2.622-.263 2.494-.312 4.945-.804 7.284-1.77 1.06-.436 2.095-.92 3.133-1.4 1.198-.556 2.238-1.36 3.295-2.135 1.765-1.292 3.285-2.854 4.768-4.439 1.495-1.597 2.904-3.279 4.05-5.148 1.18-1.92 2.187-3.928 2.67-6.151.334-1.546.219-3.08-.266-4.585-.513-1.597-1.231-3.089-2.23-4.444-.376-.512-.78-1.03-1.018-1.61-.483-1.165-1.064-2.302-1.184-3.597a109 109 0 0 1-.23-2.952c-.067-1-.156-2-.295-3a32 32 0 0 0-.697-3.562c-.593-2.301-1.344-4.548-2.356-6.708-.5-1.07-1.014-2.127-1.68-3.105-.252-.37-.51-.739-.847-1.043-.111-.101-.208-.22-.365-.254-.584-.122-1.156-.323-1.768-.166-.353.091-.663.026-.882-.296.324-.1.621-.258.913-.429.193-.115.386-.232.588-.333.97-.476 1.737-.312 2.387.551 2.393 3.176 4.26 6.611 5.241 10.493.553 2.18 1.057 4.369 1.325 6.604.172 1.438.146 2.882.146 4.325a9 9 0 0 0 .11 1.343c.152 1 .632 1.79 1.479 2.355.454.305.944.544 1.448.753 1.68.696 3.203 1.65 4.608 2.798.334.272.647.57.967.86 1.497 1.37 2.088 3.115 2.118 5.09.031 1.927-.475 3.733-1.183 5.508-1.071 2.679-2.745 4.932-4.755 6.973-3.87 3.928-8.447 6.705-13.684 8.43a97.4 97.4 0 0 1-13.867 3.486c-2.742.476-5.51.753-8.287.964-4.004.307-8.007.246-12.013.194a94 94 0 0 1-7.325-.368 69 69 0 0 1-8.35-1.306c-4.628-1.002-9.1-2.465-13.362-4.531-2.22-1.077-4.387-2.242-6.24-3.903-2.221-1.993-4.102-4.247-5.132-7.084-1.151-3.164-1.264-6.377-.189-9.59.495-1.475 1.356-2.751 2.34-3.947.835-1.016 1.692-2.012 2.497-3.049 2.893-3.727 4.613-7.953 5.34-12.591q.283-1.806.417-3.629c.019-.264.08-.518.158-.766.19-.624.557-.79 1.165-.545.21.085.414.181.623.263.636.254.843.188 1.227-.375z"/><path fill="#E9C351" d="M35.782 20.77c-.172.382-.57.527-.861.776-.269.23-.466.424-.497.813-.045.558-.254 1.093-.47 1.607-.147.345-.403.635-.84.647.032-.352.056-.706.098-1.058.094-.792.301-1.543.894-2.122a2.24 2.24 0 0 1 1.676-.666z"/><path fill="#E8C351" d="M58.358 23.602c-.193-.063-.39-.117-.579-.19a.77.77 0 0 1-.506-.619c-.047-.328-.181-.645-.134-.985.04-.284-.068-.5-.283-.685-.211-.183-.402-.387-.503-.656a1.4 1.4 0 0 1 .553.037c1.035.251 1.358.669 1.365 1.726.002.458-.153.93.09 1.37z"/><path fill="#EAC451" d="M75.203 33.265c-.13.023-.252.035-.33-.104a.47.47 0 0 1 .33.104"/><path fill="#DC0000" d="M35.573 107.181c-.127.075-.262.146-.384.23-.666.455-.843.992-.626 1.9.219 1.414 1.172 2.188 2.389 2.739.318.143.628.307.426.751-.087.222-.301.272-.492.335-.304.096-.617.166-.923.253a2.1 2.1 0 0 0-1.139.779c-.642.856-.198 1.808.443 2.176.79.453 1.61.439 2.445.216 1.153-.305 2.323-.415 3.514-.401 1.186.014 2.092.556 2.789 1.459.438.567.741 1.215.826 1.942.118.405 0 .776-.176 1.132-.523 1.063-1.365 1.764-2.467 2.181-.944.359-1.935.46-2.925.549a40 40 0 0 1-4.616.12c-2.132-.057-3.928-.835-5.176-2.608-.757-1.079-1.085-2.341-1.268-3.631-.16-1.111-.301-2.23-.238-3.353.035-.615-.301-1.161-.245-1.771.017-.166-.033-.338.043-.497 0-2.261.442-4.428 1.468-6.449.904-1.78 2.337-2.941 4.28-3.474.927-.253 1.87-.363 2.828-.445 1.147-.099 2.293-.078 3.434-.05 1.045.026 2.102.05 3.112.399.48.167.953.359 1.36.664.873.652 1.047 1.557.864 2.563-.087.483-.264.936-.636 1.285-.807.568-1.725.774-2.692.842-1.372.096-2.716-.281-4.086-.223-.73.031-1.452.094-2.132.392z"/><path fill="#A91616" d="M27.77 111.68c-.002.485 0 .963.262 1.404a.8.8 0 0 1 .084.378c.02.915.01 1.827.109 2.739.17 1.55.444 3.068 1.238 4.435a4.7 4.7 0 0 0 1.358 1.473c.725.518 1.492.936 2.372 1.097.457.085.916.181 1.386.181.958 0 1.92.061 2.874-.014 1.577-.124 3.18-.092 4.703-.647 1.287-.472 2.106-1.382 2.62-2.613.075-.181.032-.371.063-.553.186.351.122.734.106 1.099-.057 1.241-.353 2.402-1.217 3.356a5.3 5.3 0 0 1-2.015 1.391 8.2 8.2 0 0 1-3.13.586c-1.41-.016-2.82.001-4.227-.004-1.422-.005-2.702-.429-3.78-1.36-.892-.77-1.391-1.799-1.77-2.887-.624-1.794-.944-3.652-1.106-5.533-.094-1.081-.07-2.171-.02-3.255.022-.422-.114-.858.09-1.269zm7.803-4.499c.503-.417 1.122-.501 1.732-.544.972-.068 1.935.075 2.902.174.941.096 1.906.159 2.838-.174.473-.168.958-.312 1.436-.464-.699.992-1.723 1.306-2.869 1.363-1.309.063-2.603.035-3.876-.338-.709-.207-1.44-.192-2.163-.017"/><path fill="#A81616" d="M37.378 112.801c.042-.279-.083-.437-.34-.556-.451-.214-.903-.427-1.305-.741a4.3 4.3 0 0 1-.904-.971c-.257-.373-.323-.784-.266-1.222.447.715 1.118 1.062 1.932 1.175.092.012.18.051.269.08.663.213.743.293.72.987-.014.415.127.851-.106 1.25z"/><path fill="#DC0000" d="M51.252 111.567c-.007-2.28.443-4.461 1.49-6.492.895-1.733 2.3-2.872 4.192-3.407.96-.272 1.94-.387 2.935-.465 1.146-.089 2.29-.077 3.432-.046 1.136.03 2.29.056 3.37.511.398.166.793.335 1.134.61.791.635.968 1.482.81 2.425-.061.363-.136.738-.412 1.024-1.29.737-2.664 1.049-4.152.903-1.186-.115-2.365-.41-3.572-.18-.925.176-1.775.469-2.316 1.308-.167.35-.287.709-.214 1.103.072.105-.015.258.1.351v-.004c.391 1.154 1.213 1.909 2.298 2.397.459.206.692.49.541 1.003-.028.256-.235.326-.428.39-.32.105-.65.185-.975.274a2.12 2.12 0 0 0-1.186.802c-.602.823-.256 1.764.462 2.169.531.303 1.101.404 1.727.331.824-.094 1.605-.373 2.431-.45.77-.073 1.54-.125 2.302-.031.833.101 1.523.54 2.071 1.154.556.624.92 1.36 1.031 2.202.021 1.002-.598 1.67-1.275 2.252-1.093.935-2.462 1.14-3.842 1.278-.972.096-1.946.122-2.92.197-1.316.103-2.644.051-3.92-.291-1.835-.49-3.202-1.583-3.958-3.379-.652-1.548-.819-3.188-.944-4.829-.063-.837.03-1.684-.23-2.505a.93.93 0 0 1 .023-.607z"/><path fill="#A91616" d="M51.252 111.567c.005.338.031.664.2.976.132.244.165.53.156.818-.05 1.574.122 3.131.466 4.662.268 1.194.727 2.343 1.629 3.206.83.793 1.816 1.389 2.982 1.588 1.127.192 2.27.298 3.412.218 1.12-.077 2.243-.11 3.359-.23.887-.096 1.775-.251 2.6-.647 1.178-.565 1.884-1.494 2.265-2.709.179.371.127.772.106 1.157-.066 1.219-.363 2.364-1.217 3.297a5.46 5.46 0 0 1-2.278 1.494 8.4 8.4 0 0 1-2.872.483c-1.428-.016-2.857 0-4.286-.007a5.8 5.8 0 0 1-3.045-.856c-1.21-.732-1.888-1.858-2.347-3.129-.508-1.409-.835-2.861-1.035-4.352-.215-1.605-.231-3.204-.18-4.813.012-.384-.12-.783.085-1.156m6.908-3.811c.106-.347.295-.624.61-.83.56-.368 1.165-.549 1.829-.657.892-.145 1.748-.014 2.612.124 1.596.254 3.133.085 4.609-.588a.8.8 0 0 1 .38-.08c-.442.725-1.023 1.278-1.868 1.501-.454.12-.915.174-1.384.209-1.414.105-2.789-.099-4.161-.406-.993-.223-1.902-.049-2.627.729z"/><path fill="#A81616" d="M60.883 112.608c.073-.471-.186-.701-.59-.87a4.4 4.4 0 0 1-1.966-1.595c-.195-.283-.317-.586-.284-.935.42.645 1.026.973 1.772 1.147 1.318.307 1.16.417 1.156 1.498 0 .253.094.521-.088.755"/><path fill="#A81616" d="M58.045 109.21c-.139-.087-.125-.218-.101-.352.09.101.108.223.101.352"/><path fill="#DC0000" d="M4.856 96.942c.957-1.52 2.2-2.643 4.074-2.866 1.075-.126 2.8.552 3.194 1.907.068.24.1.476.103.718.005.375-.01.748-.019 1.123-.021.828.33 1.445 1.057 1.841.527.288 1.073.521 1.688.579.626.061 1.15-.122 1.579-.567.221-.23.428-.474.624-.723.995-1.273 2.396-1.278 3.586-.668 1.311.67 1.867 1.855 2.06 3.227.315 2.247-.39 4.2-1.836 5.915-.146.173-.31.323-.504.443-.682.359-1.419.598-2.09.985-2.847 1.653-4.919 4.027-6.458 6.895a10.4 10.4 0 0 1-.932 1.405c-.318.412-.739.645-1.262.635-1.383-.023-2.68-.415-3.864-1.102-.822-.476-1.13-1.264-.977-2.221.238-1.501.553-2.985.866-4.472a9.4 9.4 0 0 0-.421-5.312c-.85-2.256-.725-4.569-.716-6.886 0-.305.177-.567.25-.858z"/><path fill="#A91616" d="M4.856 96.942c-.193 1.302-.071 2.613-.113 3.919-.033 1.004.155 1.972.473 2.913.31.922.581 1.853.736 2.812.174 1.072.193 2.146-.026 3.222-.327 1.604-.63 3.215-.932 4.824-.134.718.273 1.621.989 1.987 1.156.595 2.384.994 3.705 1.029.503.014.875-.199 1.195-.603.669-.841 1.12-1.81 1.68-2.715.551-.894 1.161-1.743 1.91-2.486.823-.819 1.593-1.693 2.572-2.341.955-.633 1.932-1.217 3.031-1.576a.85.85 0 0 1 .386-.054c-.463.509-1.078.798-1.668 1.117-1.229.661-2.392 1.409-3.347 2.441-.911.987-1.58 2.129-2.147 3.337-.442.948-.859 1.907-1.337 2.836-.388.757-.913 1.407-1.71 1.803-.763.378-1.53.312-2.305.103-1.035-.279-2.01-.699-2.968-1.189-1.337-.685-1.71-2.23-1.537-3.278.158-.948.478-1.841.77-2.747.553-1.714 1.01-3.442.89-5.274a11.6 11.6 0 0 0-.697-3.222c-.4-1.096-.774-2.188-.68-3.38.096-1.25.456-2.413 1.13-3.475z"/><path fill="#DC0000" d="M76.893 107.974c-.438-.209-.758-.556-1.034-.936-1.11-1.536-1.722-3.227-1.558-5.147.064-.753.229-1.487.605-2.146.52-.915 1.356-1.515 2.295-1.905 2.13-.886 4.286-1.714 6.442-2.532.91-.345 1.824-.702 2.756-.98.913-.273 1.876-.376 2.824-.08.6.187 1.123.534 1.596.933.996.835 1.76 1.839 2.12 3.11.074.239.06.473.005.717-.367 1.71-.939 3.354-1.579 4.977-.459 1.163-.772 2.366-.746 3.609.024 1.102.25 2.193.546 3.262.285 1.03.617 2.043.814 3.098.151.807-.032 1.53-.418 2.212-.888 1.567-2.738 2.345-4.487 1.918-.65-.159-1.078-.574-1.388-1.144-.64-1.173-1.08-2.43-1.56-3.67-.408-1.049-.846-2.071-1.683-2.89-.862-.839-1.867-1.358-3.008-1.686-.848-.244-1.733-.352-2.542-.718z"/><path fill="#A91616" d="M76.893 107.974c.623.028 1.212.223 1.812.366.527.124 1.05.288 1.558.476 1.711.626 2.91 1.794 3.627 3.464.633 1.477 1.097 3.023 1.848 4.454.386.736.915 1.139 1.77 1.278 2.108.344 4.1-1.276 4.384-3.187.069-.455-.054-.896-.155-1.326-.202-.851-.468-1.69-.69-2.537a20 20 0 0 1-.51-2.685c-.184-1.555.193-2.99.725-4.416.555-1.487 1.136-2.967 1.438-4.536.066-.347.263-.664.242-1.032.372.964.596 1.94.473 2.997-.103.894-.414 1.658-1.021 2.31-1.222 1.311-1.373 2.861-.98 4.51.269 1.131.784 2.179 1.194 3.265.414 1.102.833 2.204 1.057 3.363.108.556.131 1.121-.007 1.67-.217.858-.716 1.503-1.519 1.92a14.7 14.7 0 0 1-3.248 1.239c-1.181.29-2.141-.078-2.956-.917-.395-.406-.678-.894-.932-1.396-.79-1.576-1.348-3.246-1.99-4.883a7 7 0 0 0-.653-1.301c-.854-1.306-1.993-2.162-3.6-2.306-.622-.056-1.225-.201-1.721-.614-.057-.047-.094-.115-.142-.171z"/><path d="M36.14 42.167c.581.14 1.167.263 1.742.43 2.367.686 4.184 2.11 5.53 4.153.396.598.591 1.282.834 1.946.301.577.357 1.206.433 1.839.164 1.36.226 2.723.202 4.092-.03 1.8-.852 3.143-2.342 4.116-.878.575-1.866.889-2.86 1.173-2.374.68-4.803 1.074-7.26 1.32-2.431.244-4.86.502-7.292.727-2.469.23-4.94.443-7.418.054-1.092-.171-1.996-.63-2.686-1.498-.824-1.117-.845-2.346-.503-3.624.183-.687.473-1.332.77-1.975.107-.234.25-.457.305-.715.79-2.207 2.156-4.06 3.655-5.82 1.17-1.373 2.4-2.688 3.952-3.654 2.38-1.48 4.945-2.416 7.746-2.73 1.24-.139 2.478-.075 3.716-.096.506-.01.984.185 1.48.26zm42.673 5.626c.393 1.253.662 2.533.909 3.82.506 2.118.423 4.276.358 6.42-.047 1.569-.855 2.758-2.55 3.133-1.035.23-2.082.333-3.127.375-3.223.129-6.426.01-9.573-.811-1.619-.423-3.273-.688-4.912-1.032-1.786-.376-3.547-.85-5.246-1.522-1.763-.7-2.633-2.2-2.344-4.07.261-1.676.763-3.278 1.643-4.746.47-.91.93-1.827 1.443-2.713.517-.896 1.181-1.666 1.866-2.437.998-1.128 2.222-1.926 3.483-2.693.987-.731 2.126-1.142 3.312-1.332 3.853-.614 7.527-.16 10.824 2.092 1.977 1.351 3.204 3.258 3.917 5.516zM67.064 78.607c.563-.234 1.104-.504 1.6-.86.353-.343.784-.575 1.2-.826.926-.556.98-.678.792-1.721-.045-.247-.18-.51.05-.744.121-.162.216-.35.42-.436.377-.157.815-.01.97.42.405 1.123 1.172 1.937 2.114 2.622.09.065.176.143.247.227.219.263.245.565.087.83-.16.27-.43.39-.767.333-.092-.016-.18-.051-.269-.077-.153-.073-.325-.091-.475-.171-1.189-.638-2.403.054-3.1.966-.567.743-.885 1.602-1.012 2.533-.217 1.576-.974 2.777-2.464 3.452-.497.225-.746.586-.711 1.154.035.62-.11 1.194-.614 1.618-1.031.95-2.3 1.105-3.71.13-.713-.425-1-1.087-1.052-1.88-.051-.766-.325-1.409-.979-1.87-.485-.343-.986-.522-1.584-.402-1.638.328-3.269.708-4.94.856-2.111.188-4.215.324-6.35.223-3.159-.15-6.244-.638-9.254-1.567-4-1.231-7.862-2.8-11.425-5.014-.906-.563-1.685-.692-2.573-.007-.515.397-.804.286-1.226-.25-.167-.477-.002-.829.391-1.115.457-.33.89-.687 1.245-1.126.32-.391.588-.816.758-1.299.115-.33.301-.607.699-.638.372-.03.593.176.753.479.12.31.094.612 0 .93-.181.627-.04.995.51 1.338.26.16.483.351.707.55.873.552 1.753 1.087 2.716 1.471.558.056 1.024.352 1.518.572 3.498 1.548 7.077 2.848 10.872 3.462 1.501.244 3.014.35 4.537.431 3.044.17 6.04-.1 9.012-.694 3.166-.633 6.176-1.747 9.132-3.025.716-.31 1.368-.795 2.177-.88z"/><path fill="#FFE9A5" d="M40.875 29.677c-1.052.035-2.1 0-3.132-.228a4.7 4.7 0 0 1-1.349-.54c-.706-.407-1.2-1.472-.953-2.377.343-1.258 1.09-2.153 2.198-2.777.857-.481 1.784-.762 2.747-.966 1.099-.233 2.21-.376 3.314-.556.925-.153 1.859-.23 2.786-.284 1.212-.07 2.436-.113 3.658.044.593.078 1.188.115 1.78.226.872.164 1.708.457 2.515.792 1.28.53 2.519 1.164 3.778 1.743.605.277.986.722 1.137 1.37.04.168.049.335.018.501-.235 1.257-.927 2.186-2.054 2.794-.53.286-1.076.541-1.66.689-.981.249-1.664.875-2.285 1.635a3.77 3.77 0 0 1-2.603 1.402c-.403.04-.814-.084-1.212-.197-1.156-.328-2.173-.922-3.126-1.628-.544-.403-1.092-.783-1.702-1.088-.738-.37-1.525-.504-2.332-.55-.506-.031-1.017-.005-1.523-.005"/><path d="m53.98 63.307.551.373c.683.452 1.113 1.076 1.269 1.88.487 1.492-.04 2.794-.782 4.049-1.346 2.277-3.453 3.386-5.997 3.717-1 .131-1.97-.235-2.892-.629-1.803-.769-3.102-2.073-4.013-3.785-.57-1.07-.46-2.207-.346-3.347.164-.867.659-1.51 1.379-1.998a6.06 6.06 0 0 1 2.662-.966c1.398-.16 2.808-.178 4.21-.117 1.358.058 2.742.058 3.96.823M18.756 32.355c.195.157.44.208.657.316.134.068.277.125.39.218a.67.67 0 0 1 .189.767c-.111.268-.316.406-.608.425-.254.016-.48-.08-.703-.174-1.963-.832-3.474-2.207-4.691-3.921-1.744-2.458-2.7-5.202-2.947-8.199-.167-2.03.066-4 .82-5.9a8.6 8.6 0 0 1 1.19-2.095c1.836-2.37 4.625-3.18 7.454-2.155 2.012.73 3.559 2.07 4.818 3.752 1.892 2.526 2.909 5.385 3.168 8.52a15.6 15.6 0 0 1-.007 2.414c-.043.57-.7 1.015-1.224.52l-.127-.11c-.264-.218-.181-.52-.17-.788.066-1.815-.15-3.593-.703-5.323-.857-2.679-2.302-4.963-4.604-6.637-1.104-.803-2.356-1.25-3.747-1.185-1.996.092-3.295 1.231-4.213 2.88-1.061 1.907-1.26 3.992-1.085 6.112a14.6 14.6 0 0 0 2 6.269c.907 1.54 2.05 2.866 3.578 3.832.207.131.41.267.567.457z"/><path fill="#FFE9A5" d="M18.332 9.184c-1.45.091-2.723.37-3.987.736-1.4.408-2.407 1.309-3.32 2.38a13 13 0 0 0-1.354 1.926c-.694 1.194-1.106 2.488-1.422 3.82-.082.345-.148.695-.237 1.037-.083.312-.353.502-.615.457-.242-.042-.376-.243-.388-.598-.01-.319.052-.628.099-.942.144-1.014.214-2.038.362-3.05.288-1.979.626-3.953 1.582-5.747 1.22-2.29 3.04-3.917 5.498-4.808.475-.171.981-.213 1.485-.27 1.182-.133 2.319.054 3.406.467 1.25.474 2.384 1.154 3.436 1.998 1.194.962 2.013 2.202 2.862 3.434.662.956 1.311 1.925 1.794 2.978.515 1.123 1.148 2.193 1.581 3.351.221.594.424 1.194.488 1.834.018.183.096.359.145.54.111.408-.108.71-.532.708-.348 0-.616-.16-.764-.479-.144-.304-.292-.61-.403-.926-.63-1.806-1.685-3.368-2.805-4.897a10.75 10.75 0 0 0-3.378-2.988 6.5 6.5 0 0 0-2.608-.825c-.353-.035-.694-.188-.922-.134z"/><path fill="#EAC451" d="M18.756 32.355c-1.137-.511-2.052-1.311-2.85-2.242-1.926-2.24-3.004-4.855-3.378-7.768-.235-1.845-.13-3.663.466-5.436a7.4 7.4 0 0 1 1.311-2.404c1.38-1.667 3.347-2.256 5.418-1.627 1.1.333 2.053.921 2.9 1.679 1.958 1.754 3.177 3.96 3.907 6.454.461 1.576.654 3.187.56 4.831-.016.3-.026.598.043.894-.565-.106-.634-.568-.704-1.009-.186-1.175-.283-2.364-.666-3.506-.511-1.527-1.3-2.894-2.257-4.18-.638-.853-1.4-1.561-2.37-2.02-1.584-.754-3.157-.697-4.696.128-.718.387-1.19 1.016-1.535 1.733-.45.938-.63 1.947-.67 2.981a25 25 0 0 0-.003 1.518 14.4 14.4 0 0 0 1 4.908c.643 1.656 1.686 3.03 2.957 4.25.242.232.508.452.565.816zM53.969 49.36c-.42 1.1-.878 2.186-1.194 3.323-.233.833-.416 1.672-.299 2.547.172 1.274.817 2.183 2.01 2.706 1.088.477 2.234.777 3.37 1.098 1.884.532 3.818.823 5.727 1.24 1.542.338 3.072.72 4.639.932 1.327.18 2.66.236 3.994.222 1.466-.014 2.933-.044 4.39-.253.503-.072 1-.169 1.478-.345.83-.304 1.379-.874 1.645-1.723.202-.652.256-1.323.261-1.998.012-1.67-.09-3.333-.245-4.996-.016-.166-.014-.335-.02-.504.204.598.423 1.191.609 1.794.214.697.522 1.36.703 2.069.16.619.243 1.257.238 1.878-.007 1.1-.416 2.104-.96 3.063-.67 1.182-1.787 1.67-3.006 1.975-1.05.262-2.125.387-3.208.495-1.033.1-2.061.098-3.092.075a30 30 0 0 1-2.514-.183q-1.058-.114-2.116-.24c-.762-.089-1.513-.234-2.266-.36-1.271-.214-2.526-.517-3.78-.82-1.391-.332-2.702-.883-4.018-1.432-1.078-.45-2.106-.98-3.07-1.642a4.2 4.2 0 0 1-1.044-1.01c-.586-.824-.74-1.745-.621-2.756.228-1.952 1.21-3.546 2.297-5.101.018-.028.06-.04.094-.059zM22.034 78.15c.515.422.73.483 1.24.077.859-.678 1.61-.574 2.516-.026 4.542 2.759 9.429 4.7 14.614 5.88 1.981.45 4 .657 6.032.753 2.544.12 5.072-.01 7.59-.364a30 30 0 0 0 3.204-.628c.819-.207 1.59-.19 2.297.363.543.427.922.934.939 1.647.021.865.327 1.601.948 2.209-.701-.251-1.11-.793-1.43-1.421-.05-.099-.071-.214-.116-.315-.478-1.083-.772-1.175-1.998-1.032-.838.099-1.64.366-2.462.547a21.6 21.6 0 0 1-3.385.438c-1.95.113-3.902.094-5.855.097-1.558.002-3.093-.212-4.625-.47a24 24 0 0 1-3.481-.865 46 46 0 0 1-3.575-1.348 60 60 0 0 1-3.976-1.86c-1.468-.753-2.892-1.585-4.34-2.373a7.2 7.2 0 0 0-2.06-.718 1 1 0 0 0-.653.11c-.535.272-1.24.056-1.427-.699zM15.02 60.52c1.017 1.016 2.295 1.359 3.68 1.46 2.583.19 5.146-.043 7.711-.31q2.467-.257 4.938-.485c3.112-.291 6.193-.74 9.177-1.703a9 9 0 0 0 1.8-.793q2.211-1.296 2.387-3.844c.092-1.35-.026-2.697-.165-4.038-.073-.706-.2-1.407-.303-2.11.652.696.918 1.575 1.122 2.466.278 1.204.443 2.425.363 3.666-.101 1.614-.454 3.145-1.53 4.416a6.9 6.9 0 0 1-2.568 1.879c-1.523.659-3.142.952-4.778 1.191-1.202.176-2.417.237-3.615.424q-.11.018-.226.01c-.885-.068-1.76.091-2.638.136-1.29.068-2.582.122-3.867.225-2.01.162-4.02.099-6.028.066-1.447-.024-2.88-.303-4.083-1.213-.532-.403-1.05-.84-1.377-1.444z"/><path fill="#FFE9A5" d="M67.064 78.607c-1.052.582-2.158 1.044-3.267 1.504-2.834 1.172-5.726 2.155-8.75 2.71a38 38 0 0 1-5.098.559 38 38 0 0 1-7.98-.488c-2.19-.366-4.323-.966-6.41-1.717a56 56 0 0 1-5.355-2.218c-.132-.064-.285-.096-.386-.216.252-.242.525-.124.784-.028 1.264.469 2.542.896 3.83 1.297 1.517.471 3.066.811 4.631 1.097 1.01.183 2.022.36 3.036.5.866.12 1.74.227 2.617.288 1.069.073 2.14.164 3.201.068.951-.084 1.907-.014 2.855-.176.495-.084 1.005-.072 1.509-.12a44 44 0 0 0 3.933-.553c3.06-.55 6.058-1.337 9.035-2.211q.566-.167 1.13-.338c.236-.07.468-.148.687.042z"/><path d="M65.925 24.934c-.666-.058-.894-.244-.902-.893-.03-2.186.855-3.851 2.797-4.622 1.741-.692 3.464-.606 5.119.25 1.807.934 2.671 2.92 2.203 4.895-.473 1.991-1.733 3.222-3.677 3.792-.452.134-.812.014-.974-.31-.177-.351-.03-.703.4-.97l.139-.094c.242-.291.617-.345.925-.516 1.421-.781 2.085-2.556 1.508-4.048-.265-.69-.774-1.16-1.421-1.447-1.26-.553-2.547-.589-3.82-.016-1.337.6-1.577 1.808-1.669 3.077-.033.443-.077.832-.623.902zM30.59 35.54c-.092-.007-.188-.002-.278-.025-.586-.16-.758-.7-.372-1.159.06-.07.14-.122.21-.183.292-.258.65-.359 1.019-.44 2.257-.502 4.521-.986 6.833-1.14 1.984-.134 3.96-.052 5.787.849 1.76.867 2.554 2.354 2.558 4.282 0 .542.043 1.086-.028 1.625-.047.08-.085.167-.143.24-.193.246-.45.32-.746.232-.302-.09-.455-.31-.49-.612-.035-.294.035-.596-.092-.878-.266-.248-.136-.602-.245-.893-.202-1.555-.922-2.357-2.44-2.777-1.584-.438-3.192-.37-4.802-.256-.859.061-1.713.17-2.556.352-1.174.214-2.34.465-3.502.732-.233.054-.463.155-.71.054zm23.376 5.167q-.08.075-.165.148c-.235.206-.496.248-.779.105-.266-.136-.411-.427-.374-.753.024-.201.066-.403.099-.605.11-1.634.744-3.067 1.73-4.35.433-.563 1.054-.889 1.716-1.133 1.17-.429 2.386-.64 3.622-.776 2.102-.23 4.194-.096 6.286.1.476.045.982-.128 1.424.18.17.095.36.074.544.105.475.082.741.377.704.778-.038.397-.344.624-.845.62-.092 0-.184-.008-.276-.01-.953.195-1.906.017-2.857-.016-.485-.017-.972-.078-1.46-.078-1.689-.2-3.355.042-5.024.28-1.892.269-3.135 1.23-3.545 3.142a9.3 9.3 0 0 0-.428 1.484c-.056.289-.125.58-.372.781z"/><path fill="#EAC451" d="M65.925 24.934c.4-.204.532-.525.506-.968-.035-.626.125-1.227.36-1.806a2.35 2.35 0 0 1 1.127-1.212c1.518-.79 3.046-.758 4.524.08 1.076.611 1.577 1.824 1.342 3.039-.3 1.552-1.208 2.535-2.759 2.915-.01-.366.087-.69.34-.976a2.55 2.55 0 0 0 .649-1.515c.059-.856-.189-1.637-.831-2.225-.372-.338-.864-.437-1.37-.303a2.7 2.7 0 0 0-1 .49c-.6.481-1.194.966-1.507 1.698-.26.61-.7.903-1.379.781zM36.14 42.167c-.878-.066-1.756-.15-2.639-.157-3.396-.023-6.573.76-9.539 2.432-1.544.87-2.822 2.036-3.996 3.337-1.667 1.846-3.112 3.842-4.173 6.098-.054.115-.085.25-.203.33.118-.86.426-1.665.782-2.443.57-1.243 1.177-2.47 2.05-3.537.875-1.07 1.772-2.113 2.829-3.025 1.135-.98 2.398-1.8 3.756-2.44a15 15 0 0 1 4.34-1.291c1.09-.153 2.18-.141 3.258-.068 1.202.08 2.405.286 3.533.767zm31.385-8.546c-1.127.014-2.252-.084-3.375-.169-2.186-.164-4.354-.06-6.5.392-.422.09-.834.223-1.243.356-1.191.387-2.04 1.166-2.566 2.292-.419.9-.781 1.822-.99 2.795-.024.108-.017.225-.106.312-.44-1.276-.358-2.551.143-3.773.34-.824.97-1.452 1.711-1.966 1.229-.851 2.596-1.29 4.07-1.498 1.257-.178 2.516-.132 3.768-.075a18.2 18.2 0 0 1 4.25.699c.349.1.763.16.838.635m-21.203 5.725c.009-1.03-.015-2.057-.309-3.058-.414-1.412-1.322-2.367-2.683-2.901-1.148-.453-2.351-.634-3.58-.662-1.981-.044-3.935.216-5.872.6-1.25.25-2.504.48-3.726.847.066-.133.158-.262.193-.403.085-.345.332-.52.622-.678.882-.476 1.843-.725 2.815-.933q1.094-.237 2.198-.418.719-.117 1.447-.143c.304-.012.593-.1.888-.108 1.734-.047 3.462.061 5.039.85 1.765.881 2.838 2.295 3.074 4.315.096.823-.109 1.63-.01 2.443a.28.28 0 0 1-.099.251z"/><path fill="#FFE9A5" d="M61.09 21.968c.177-1.1.502-2.137 1.222-3.023 1.245-1.532 2.9-2.331 4.804-2.63 1.05-.163 2.116-.24 3.187-.05.38.067.781.055 1.165.14.127.028.256.063.37.124.376.206.437.375.322.826-.111.431-.196.5-.664.509-1.238.023-2.478.068-3.646.515-1.713.66-3.28 1.565-4.526 2.946-.273.303-.496.654-.739.985-.045.061-.075.132-.122.188-.292.359-.633.495-.92.368-.267-.117-.474-.528-.455-.9zM44.743 37.435c.12.288.097.59.106.893l-.047.718c-.268-.012-.402-.162-.52-.336-1.165-1.714-2.843-2.591-4.839-2.962a13.5 13.5 0 0 0-3.639-.2c-1.21.106-2.431.055-3.629.301-.306.063-.628.04-.946.099-.283.051-.56-.066-.638-.41 1.367-.423 2.768-.69 4.18-.908.713.002 1.42-.099 2.128-.141 1.41-.085 2.82.01 4.208.265 1.636.3 2.782 1.302 3.636 2.676z"/><path fill="#E2BC46" d="M41.77 65.563c-.017.654-.06 1.311.063 1.958.269 1.443 1.069 2.585 2.11 3.567 1.232 1.168 2.718 1.846 4.403 2.078a3.9 3.9 0 0 0 1.565-.115c1.384-.387 2.716-.914 3.754-1.948 1.207-1.206 2.057-2.61 2.193-4.367.031-.399-.089-.781-.056-1.173.304.26.285.631.318.973.106 1.142-.21 2.189-.78 3.162-.694 1.189-1.565 2.228-2.659 3.081-.337.263-.72.397-1.097.554a8.5 8.5 0 0 1-2.888.654c-1.464.066-2.758-.453-3.907-1.334a12 12 0 0 1-2.266-2.242c-.86-1.124-1.106-2.397-.916-3.76.05-.36-.066-.755.165-1.088z"/><path fill="#EAC451" d="M65.127 87.932c.365-.549.532-1.15.466-1.806-.047-.476.184-.779.581-.992a4 4 0 0 1 .252-.124c1.417-.634 2.137-1.773 2.333-3.263.138-1.067.487-2.066 1.207-2.847 1.014-1.097 2.217-1.594 3.538-.523-.803-.009-1.403.47-2.025.873-.374.241-.701.553-1.023.87-.34.333-.5.725-.57 1.182-.094.603-.146 1.215-.417 1.782-.508 1.063-1.172 1.998-2.17 2.648-.416.272-.753.589-1.01 1.016-.291.48-.675.886-1.162 1.184"/><path fill="#EAC351" d="M78.813 47.793c-.296-.623-.562-1.26-.896-1.867-1.311-2.392-3.267-4.033-5.833-4.946a15.24 15.24 0 0 0-8.157-.614c-.925.18-1.796.54-2.65.933-.17.078-.323.197-.516.218.068-.297.346-.394.56-.515.982-.556 2.008-1 3.13-1.206.551-.1 1.071-.328 1.639-.363.776-.052 1.53-.204 2.332-.11 1.146.133 2.252.363 3.307.816 1.294.553 2.551 1.172 3.624 2.113 1.566 1.374 2.71 3.02 3.37 4.997.062.18.116.357.09.547z"/><path fill="#FFE9A5" d="M63.244 34.862c.991-.04 1.972.112 2.959.148.482.016.965.068 1.45.105-.043.117-.118.195-.248.185-.638-.042-1.264.106-1.9.13-2.223.084-4.421.351-6.537 1.09-1.288.45-2.465 1.076-3.401 2.092a7 7 0 0 0-1.172 1.698c-.085.176-.114.45-.427.398q.225-.856.457-1.71c.052-.192.073-.398.205-.564.89-1.619 2.342-2.43 4.076-2.864 1.335-.333 2.69-.478 4.056-.598.17-.014.338-.012.487-.108z"/><path fill="#010000" d="M84.107 61.539c-.02.03-.014.06.009.087a.5.5 0 0 1 .03.328c-.42 1.735-1.607 3.44-3.636 3.935q-.056.006-.11.014c-.53.094-.834-.037-.968-.417-.127-.362.052-.685.518-.929a7 7 0 0 1 .504-.244c1.118-.476 1.75-1.358 2.109-2.474q.041-.135.087-.265c.263-.774.807-.887 1.372-.284.047.078.04.171.082.249z"/><path fill="#010100" d="M8.812 62.526c.068-.11.122-.237.21-.328.352-.364.908-.272 1.117.187.076.167.095.36.135.542.211.983.637 1.794 1.704 2.083.035.009.07.025.106.037.338.12.61.314.633.701.023.366-.212.58-.518.727-.125.099-.268.115-.424.101-1.67-.152-3.314-2.397-2.963-4.052z"/><path fill="#EAC451" d="M80.508 65.89c.31-.167.619-.341.937-.498 1.419-.706 2.116-1.954 2.56-3.391l.111-.375c.657.34.697.91.555 1.529-.103.454-.242.898-.404 1.336-.41 1.09-1.269 1.677-2.3 2.071a.96.96 0 0 1-1.203-.413c-.068-.115-.1-.237-.254-.26z"/><path fill="#FFE9A5" d="M23.878 26.862c.178 0 .273-.004.367 0 .362.017.531.132.595.394.073.312-.016.535-.306.715-.238.148-.487.28-.727.425-.904.551-1.711 1.203-2.269 2.125-.096.16-.2.316-.318.46-.233.28-.395.323-.682.201-.344-.145-.584-.424-.535-.708.118-.678.25-1.349.634-1.951.54-.845 1.343-1.279 2.273-1.522.341-.09.685-.21.968-.141z"/><path fill="#E9C451" d="M8.812 62.526c-.014 1.018.367 1.907.967 2.695.598.785 1.45 1.151 2.422 1.254-.256.716-.81.978-1.438.61-.974-.572-1.871-1.243-2.389-2.293a2.1 2.1 0 0 1-.24-.97c.005-.276.066-.53.27-.71.19-.166.267-.396.41-.586z"/><path fill="#E9C250" d="M53.98 63.307c-.668-.227-1.32-.535-2.047-.542a14 14 0 0 1-1.4-.084c-1.65-.183-3.296-.028-4.936.108-.72.06-1.417.333-2.088.628q-.18.076-.36.148c.021-.122.103-.195.207-.249.744-.391 1.48-.783 2.335-.9 1.238-.169 2.462-.432 3.726-.347 1.48.1 2.92.342 4.271.987.12.059.236.117.292.249z"/><path fill="#FFE9A5" d="M70.008 26.037c.05.29-.115.49-.346.64-.25.162-.484.04-.67-.117q-.598-.507-1.267-.922c-.313-.192-.407-.558-.282-.83.103-.223.412-.298.786-.247.593.08 1.125.259 1.516.746.17.214.287.437.261.727z"/><path fill="#E9C250" d="M70.705 74.456c-.016.338.073.66.146.985.155.697.021 1.046-.581 1.405-.525.314-1.031.664-1.603.9a.37.37 0 0 1 .136-.234c.669-.589 1.026-1.353 1.274-2.186.108-.363.25-.701.63-.867z"/><path fill="#E7C150" d="M27.1 77.27c-.323-.107-.594-.31-.876-.49-.513-.328-.685-.811-.508-1.402.091-.305.207-.6.164-.927.26.282.41.61.434.993.011.192.11.349.192.516.212.431.448.85.594 1.313z"/><path fill="#EAC451" d="M84.107 61.539a.29.29 0 0 1-.083-.249c.097.061.108.148.083.249"/><path fill="#FFA9A9" d="M38.755 102.088c.812.004 1.546-.033 2.266.145.349.087.688.199.991.387.977.605 1 1.879.042 2.519-.35.234-.74.34-1.167.368-.8.052-1.565-.162-2.344-.272-1.055-.153-2.1-.124-3.126.185-1.546.472-2.488 1.548-2.994 3.04a8.2 8.2 0 0 0-.348 1.644c-.021.166-.04.335-.082.497-.141.523-.473.828-.92.856-.429.028-.82-.246-1.017-.746a5.4 5.4 0 0 1-.337-1.473c-.125-1.264.2-2.399.934-3.443 1.47-2.084 3.441-3.29 5.986-3.583.732-.085 1.464-.077 2.116-.122zm-1.62 19.505c-1.647-.066-3.137-.525-4.304-1.759-.391-.415-.685-.887-.805-1.456-.125-.596.157-1.342.659-1.684.284-.195.588-.207.913-.089.461.164.908.365 1.32.623 1.36.845 2.818.943 4.34.608.384-.085.768-.176 1.154-.253a1.86 1.86 0 0 1 1.054.079c.574.223.857.814.687 1.419-.15.537-.524.903-.953 1.213a6.8 6.8 0 0 1-2.831 1.184c-.407.073-.815.138-1.236.117zm24.963-19.468c.75-.028 1.504-.075 2.245.108.33.082.652.185.944.359 1.038.621 1.052 1.937.026 2.582-.704.443-1.48.389-2.243.265-.909-.148-1.81-.328-2.74-.284a6.7 6.7 0 0 0-1.28.178c-2 .493-3.05 1.865-3.488 3.786-.099.436-.146.886-.224 1.327a1.8 1.8 0 0 1-.124.429c-.163.352-.448.561-.836.577-.386.017-.687-.162-.887-.495-.226-.377-.32-.804-.389-1.224-.23-1.442.024-2.765.897-3.992 1.713-2.408 4.072-3.513 6.971-3.611.377-.012.751 0 1.128 0zm-1.591 19.468c-1.403-.019-2.66-.396-3.768-1.21a3.77 3.77 0 0 1-1.234-1.506c-.303-.668-.27-1.297.215-1.888.367-.445.687-.56 1.23-.373a6.4 6.4 0 0 1 1.27.603c1.376.851 2.852.955 4.391.605.384-.087.767-.181 1.153-.249.746-.131 1.344.104 1.62.615.273.504.131 1.144-.389 1.684-.167.173-.36.33-.558.469-1.19.825-2.518 1.219-3.93 1.25m-40.061-18.6c-.047 1.538-1.311 3.067-2.537 3.586-.203.087-.438.112-.66.131a15 15 0 0 1-1.237.059c-.897 0-1.74.162-2.528.631-1.142.682-2.575.051-3.001-1.128-.438-1.215-1.11-2.278-1.93-3.263-.41-.492-.774-1.01-.908-1.658-.142-.685-.008-1.315.423-1.852.826-1.03 1.784-.716 2.356-.052.356.413.763.779 1.1 1.201.628.795 1.49 1.076 2.433 1.254 1.02.193 1.92-.042 2.782-.588.821-.521 1.723-.551 2.594-.176.71.305 1.12.921 1.113 1.853zm65.99-5.802c1.11-.017 1.733.614 1.625 1.627-.043.383-.238.702-.471.997q-.261.33-.527.657c-.431.53-.549 1.123-.405 1.789.141.659.247 1.325.061 1.998-.134.49-.303.964-.638 1.356-.635.739-1.537 1.018-2.36.436-.88-.621-1.775-.591-2.726-.518-.755.056-1.487.011-2.2-.298-1.385-.6-1.785-1.825-1.502-3.082.235-1.039.885-1.794 1.749-2.378 1.094-.74 2.32-1.198 3.556-1.632.812-.286 1.633-.546 2.483-.697.245-.042.445-.208.68-.248.22-.038.45-.007.673-.007z"/><path fill="#fff" d="M29.49 47.252c-.404 1.008-.762 2.035-.865 3.123-.327 3.44.607 6.405 3.328 8.687.153.13.353.223.435.48-.181.125-.398.146-.612.17-2.542.253-5.081.527-7.628.75-1.927.17-3.864.263-5.797.047-.525-.059-1.038-.166-1.513-.408-.85-.431-1.224-1.133-1.097-2.075q.12-.895.494-1.72c.391-.867.753-1.749 1.264-2.558 1.245-1.363 2.665-2.521 4.218-3.516 2.231-1.43 4.665-2.406 7.216-3.107.374-.103.374-.096.56.127z"/><path fill="#D9D9D9" fill-opacity=".314" d="M29.49 47.252c-.074-.12-.171-.099-.291-.064-1.382.41-2.754.837-4.081 1.41a24 24 0 0 0-4.164 2.31c-.6.415-1.16.875-1.699 1.367-.563.516-1.17.98-1.758 1.468.21-.565.534-1.07.859-1.571 1.167-1.804 2.502-3.48 4.114-4.904 2.25-1.989 4.896-3.166 7.89-3.546.484-.061.969-.122 1.459-.117.127 0 .284-.007.33.15.034.127-.083.2-.168.27-1.078.884-1.848 2.005-2.49 3.22z"/><path fill="#FEFFFF" d="M38.308 48.64c.004.277-.076.49-.269.626-.285.204-.4.471-.43.807a.67.67 0 0 1-.5.614.68.68 0 0 1-.797-.267c-.191-.26-.452-.373-.74-.474-.76-.27-.882-.858-.289-1.402.327-.298.558-.633.661-1.077.097-.417.415-.654.808-.654.383 0 .626.209.755.56.1.268.247.495.483.674.2.152.32.363.317.59z"/><path fill="#FEFEFE" d="M39.546 46.745c.117.002.306.09.419.277.134.223.331.345.555.452.336.162.579.418.685.779.108.366-.03.718-.325.875-.292.154-.612.108-.86-.188-.152-.18-.336-.288-.529-.403-.31-.185-.59-.406-.718-.762-.193-.538.144-1.051.77-1.03z"/><path fill="#FDFDFD" d="M40.428 50.507c-.014.478-.518.9-1.057.886-.567-.014-.934-.384-.915-.921.019-.523.426-.901.96-.89.567.012 1.024.432 1.012.922z"/><path fill="#fff" d="M77.57 48.8c.44 1.125.646 2.307.759 3.496.15 1.583.254 3.176.244 4.768a7 7 0 0 1-.176 1.503c-.116.51-.429.812-.918.966-.45.144-.913.228-1.38.27-2.737.244-5.476.343-8.207-.091-.814-.13-1.623-.303-2.43-.474-.483-.103-.495-.162-.191-.572.098-.134.219-.256.336-.375 1.511-1.499 2.33-3.333 2.596-5.42.32-2.51-.207-4.836-1.565-6.975-.019-.03-.026-.07-.04-.105-.028-.256.179-.272.332-.277 2.5-.073 4.968.115 7.322 1.022.981.378 1.834 1.027 2.711 1.61.255.168.469.374.61.649z"/><path fill="#D9D9D9" fill-opacity=".314" d="M77.57 48.8c-.891-.713-1.878-1.286-2.852-1.874-.918-.554-1.954-.744-2.98-.922-1.51-.263-3.036-.413-4.573-.357-.195.008-.421-.072-.565.146-.37-.443-.706-.915-1.12-1.323a8.2 8.2 0 0 0-2.551-1.712c-.134-.056-.342-.063-.353-.227-.017-.21.167-.317.348-.39a7.5 7.5 0 0 1 1.73-.48c2.836-.41 5.585-.118 8.165 1.18 2.49 1.252 3.987 3.327 4.756 5.958z"/><path fill="#FEFEFE" d="M60.316 50.387c-.005.03.005.115-.03.176-.229.41-.285.886-.495 1.302-.287.567-.901.605-1.25.077-.223-.34-.3-.762-.576-1.076q-.017-.022-.021-.052c-.1-.307.287-1.56.541-1.759.259-.202.65-.216.87.038.234.27.502.5.754.745.139.134.203.312.205.551z"/><path fill="#FDFDFD" d="M58.156 48.565c-.695.014-1.074-.528-.817-1.102.176-.397.433-.75.741-1.051.426-.413 1.012-.22 1.184.35.139.452.085.844-.285 1.174-.124.113-.22.256-.336.378a.8.8 0 0 1-.49.25z"/><path fill="#F9FAFA" d="M56.786 50.176a.685.685 0 0 1-.72-.633.704.704 0 0 1 .69-.73c.355 0 .684.322.694.678a.674.674 0 0 1-.664.687z"/><path fill="#ADDDF6" d="M61.89 85.029c-.126-.648-.47-1.164-.943-1.616-.365-.35-.31-.556.167-.725a64 64 0 0 0 5.611-2.275c.033-.014.073-.012.11-.016.323.501.078.978-.105 1.43-.252.62-.695 1.119-1.248 1.485-.79.523-1.478 1.128-2.014 1.918-.495.727-1.443.572-1.577-.2z"/><path fill="#6AAACB" d="M61.89 85.029c.038.042.076.08.111.124.438.56.951.565 1.373-.005.22-.298.411-.617.67-.889.365-.382.791-.68 1.227-.966.41-.272.746-.615 1.033-1.009.412-.565.605-1.189.53-1.887.077-.101.195-.101.305-.106.346-.01.403.05.32.387-.082.326-.12.66-.171.99-.14.905-.572 1.61-1.443 1.995a3.8 3.8 0 0 0-.78.446c-.602.46-.938 1.056-.94 1.822 0 .15.004.3 0 .448-.012.584-.342.896-.92.873a1.3 1.3 0 0 1-1.225-1.05 6.3 6.3 0 0 1-.096-1.171z"/><path fill="#FFF6DB" d="M46.705 23.818c1.615.028 3.5.136 5.348.575.915.218 1.793.544 2.565 1.102.075.054.165.096.228.164.704.767.605 1.424-.275 1.91-.294.16-.614.274-.923.414-.633.286-1.122.755-1.539 1.288a9 9 0 0 1-1.085 1.137c-.673.61-1.92.7-2.69.209a6.8 6.8 0 0 1-1.309-1.058c-.71-.753-1.586-1.255-2.567-1.562-.626-.194-1.253-.276-1.933-.16-.845.146-1.71.177-2.577.16-.828-.016-1.735-.837-1.092-1.946.395-.685 1.01-1.105 1.716-1.386 1.136-.455 2.33-.648 3.551-.746.77-.061 1.535-.082 2.582-.1"/><path fill="#fff" d="M49.021 64.864c.942.005 1.871.153 2.803.265.111.014.22.059.323.101.318.13.536.352.576.699.045.373-.122.664-.44.847a3.6 3.6 0 0 1-1.607.471c-.92.047-1.838.06-2.74-.216a4.3 4.3 0 0 0-2.008-.145c-.3.051-.6.04-.844-.192-.243-.23-.278-.409-.125-.697.101-.19.261-.317.44-.422.36-.214.755-.336 1.163-.41.812-.148 1.624-.317 2.46-.298z"/><path fill="#FFF6DB" d="M16.694 5.038c1.285-.068 2.37.408 3.408.98 1.069.59 2.003 1.362 2.916 2.179 1.535 1.372 2.787 2.962 3.886 4.685.101.16.158.338.233.507.11.25.085.455-.153.575-.24.12-.367-.076-.496-.244-.344-.444-.709-.87-1.04-1.323-.916-1.238-2.034-2.259-3.406-2.95a11.8 11.8 0 0 0-3.903-1.173c-1.635-.2-3.109.244-4.566.86-.45.19-.899.374-1.36.533-.257.09-.513.103-.777.091-.492-.02-.767-.403-.647-.884.12-.478.346-.907.633-1.304.701-.97 1.673-1.594 2.759-2.05.819-.342 1.67-.55 2.518-.49z"/><path fill="#FEF5DA" d="M44.742 37.435q-.641-.656-1.287-1.31c-.725-.73-1.62-1.127-2.624-1.266-1.222-.168-2.45-.262-3.684-.222-.614.02-1.224.15-1.843.103-.18-.014-.379.051-.532-.106.537-.19 1.104-.22 1.66-.286 1.795-.218 3.594-.347 5.382.056.273.061.544.141.812.23 1.356.45 2.114 1.534 2.116 2.803zm18.502-2.573c-.29.35-.715.286-1.085.316-1.586.122-3.15.36-4.639.924-1.127.427-2.024 1.173-2.678 2.193-.045.068-.038.26-.217.139.132-.59.377-1.133.678-1.654.32-.556.784-.938 1.389-1.172.793-.31 1.617-.484 2.455-.594 1.23-.162 2.464-.272 3.709-.202.13.008.259.033.388.052z"/><path fill="#FFF6DB" d="M61.648 21.25c.069-.614.356-1.135.751-1.597 1.085-1.264 2.48-2.012 4.063-2.49.762-.23 1.543-.268 2.313-.418a.7.7 0 0 1 .226 0c.242.026.461.124.504.375.05.284-.198.394-.407.453-.396.11-.803.16-1.203.255-1.497.36-2.759 1.117-3.9 2.128-.452.4-.864.818-1.205 1.315-.104.15-.259.272-.407.383-.137.1-.29.152-.471.053-.19-.103-.273-.246-.264-.457m-38.582 6.29c.155-.005.305.012.383.171.08.169.064.359-.092.453-.732.44-1.287 1.06-1.819 1.707a.367.367 0 0 1-.506.08c-.165-.103-.259-.24-.207-.467.19-.858 1.4-1.918 2.245-1.944z"/><path fill="#FFF6DA" d="M69.07 26.074c-.151.005-.26-.02-.344-.105-.149-.15-.332-.24-.511-.343-.282-.164-.358-.347-.247-.54.15-.264.376-.184.59-.116.318.1.525.349.747.577.103.105.13.215.05.351-.076.13-.173.195-.288.174z"/><path fill="#FFE6E6" d="M40.157 104.918c-.508-.103-1.002-.201-1.487-.354-1.177-.368-2.333-.27-3.458.214-.362.154-.706.351-1.07.497-.365.145-.624.07-.798-.178-.149-.214-.123-.484.084-.779a2.86 2.86 0 0 1 1.046-.915 7.5 7.5 0 0 1 2.405-.734 9.8 9.8 0 0 1 2.8.012c.615.091 1.102.352 1.39.926.27.542.044 1.056-.54 1.217-.127.036-.254.064-.372.092zm-2.883 15.767c-1.144-.129-2.332-.553-3.243-1.58-.153-.174-.238-.38-.33-.584a.49.49 0 0 1 .113-.57c.168-.174.384-.235.617-.129.188.084.372.173.54.3.988.76 2.103 1.013 3.327.816a2.6 2.6 0 0 1 .614-.04c.565.045.78.439.53.95a.95.95 0 0 1-.381.399c-.483.29-1.031.448-1.787.443zm26.75-16.944c-.006.293-.126.556-.394.69-.37.185-.786.276-1.196.246-.762-.057-1.52-.221-2.283-.235-.607-.012-1.233.035-1.812.282-.139.058-.285.096-.421.157-.217.098-.407.033-.586-.08-.325-.204-.36-.488-.057-.72a5.1 5.1 0 0 1 1.535-.804c1.113-.352 2.255-.554 3.432-.483.414.025.82.093 1.205.243.3.118.567.305.576.699zM60.8 120.348c-1.12.119-2.14-.247-3.086-.887-.204-.138-.374-.312-.548-.481-.282-.279-.322-.462-.167-.68.165-.232.539-.37.795-.251a7.3 7.3 0 0 0 1.215.436c1.057.275 2.116.219 3.182.097.39-.045.786-.094 1.163.082.501.234.586.677.214 1.078-.27.291-.624.416-.993.488-.572.11-1.151.16-1.775.12zm-45.853-14.513c-.513-.026-1.278-.11-2.048-.124-.605-.012-1.033-.408-1.212-.947a4.87 4.87 0 0 0-1.523-2.243 1.4 1.4 0 0 1-.35-.433c-.153-.303-.111-.582.077-.847.2-.281.455-.317.718-.084.226.197.417.433.64.633.492.438 1.022.814 1.652 1.039 1.079.387 2.13.274 3.178-.108.492-.178.953-.429 1.487-.502.895-.12 1.382.396 1.125 1.257-.282.952-.892 1.63-1.795 2.045-.544.251-.946.321-1.95.314m69.29-6.98c.316.006.617-.039.852.228.285.324.344.603.123.967-.127.206-.285.391-.436.581-.228.286-.357.594-.33.978.034.467.008.936.013 1.403.004.349-.163.612-.42.818-.211.171-.46.279-.729.141-.91-.467-1.888-.406-2.862-.378-.344.01-.68-.026-.972-.213-.421-.27-.647-.861-.52-1.384a2.1 2.1 0 0 1 .65-1.083c.764-.699 1.675-1.119 2.621-1.483.42-.161.848-.3 1.26-.478.256-.112.515-.073.755-.096z"/><path fill="#D9F2FF" d="M61.877 83.438c-.005-.405.056-.506.435-.642.37-.132.746-.244 1.12-.364.304-.096.598-.21.883-.359.132-.067.266-.152.41-.178.214-.037.45-.084.588.18.141.273-.024.435-.203.568-.312.233-.642.444-.974.65-.398.246-.774.511-1.101.854-.311.328-.633.286-.888-.08-.134-.195-.32-.38-.266-.63z"/></svg>
