<svg xmlns="http://www.w3.org/2000/svg" viewBox="0 0 416.38 545.79"><path d="M187.34 408.25c-9.09.05-19.95-.49-30.8-1.17-8.93-.56-17.8-1.74-26.64-3.17-15.94-2.58-31.58-6.36-46.87-11.6-14.3-4.9-28.08-10.96-41.14-18.6-13.09-7.65-23.59-17.99-31.7-30.75C3.48 332.38.29 320.71.05 308.22c-.12-6.24-.08-12.47 1.1-18.63 1.5-7.89 4.72-15.05 9.28-21.63 2.1-3.03 4.44-5.86 6.79-8.68 2.2-2.64 4.39-5.29 6.55-7.96 11.64-14.43 18.68-30.96 22.13-49.05 1.2-6.27 1.99-12.63 2.2-19.03.13-3.9-1.02-7.31-4.1-10.02-8.31-7.33-14.05-16.5-18.46-26.55-5-11.39-8.3-23.28-10.11-35.59-.86-5.85-1.77-11.69-2.14-17.6-1.08-17.58-.38-34.98 5.49-51.83 2.32-6.67 5.19-13.05 9.29-18.83C35.3 12.6 45.38 6.48 57.1 2.78 67.23-.42 77.47-1 87.78 1.85c2.61.72 5.18 1.61 7.48 3.11 4.21 2.75 6.76 6.69 8.17 11.45.83 2.79.88 2.56 3.21 2.56 2.6 0 4.18 1.39 4.92 3.77.45 1.44.8 2.93 1.03 4.42.2 1.27.94 1.77 2.07 1.93.95.13 1.91.13 2.84.43 2.43.79 3.57 2.6 3.16 5.15-.1.63-.33 1.23-.2 1.89.19 1 .45 1.69 1.78 1.77 2.68.17 4.84 1.59 6.56 3.58 2.48 2.87 4.27 6.12 5.48 9.74 1.76 5.3 3.73 10.53 5.02 15.97.7 2.95 1.36 5.91 1.77 8.92.23 1.71.83 3.24 2.01 4.51 1.35 1.45 3 2.13 4.96 1.74 11.19-2.21 22.53-2.54 33.88-2.8 4.15-.09 8.31-.25 12.46-.49 5.04-.29 10.06-.1 15.09.09 7.83.28 15.66.59 23.48.86 4.08.14 8.14.51 12.18 1.05 3.09.41 5.44-.78 7.52-2.85.45-.45.84-.97 1.2-1.49 5.97-8.71 14.37-13.56 24.54-15.78 15.25-3.32 29.69-.92 43.47 5.99 13.93 6.98 20.47 18.71 21.12 33.96.27 6.39.29 12.78-1.34 19.06-.76 2.95-1.66 5.85-3.05 8.55-1.16 2.24-.95 4.03.61 6.11 7.81 10.35 14.89 21.16 19.76 33.27 3.56 8.85 5.93 18.03 7.99 27.31 1.8 8.12 3.29 16.29 3.52 24.63.12 4.31.36 8.64.21 12.94-.22 5.99 2.39 9.78 7.93 11.96 7.62 3.01 14.6 7.19 21 12.3 1.44 1.15 2.83 2.35 4.22 3.55 8.64 7.42 12.2 17.02 12.51 28.21.5 18.13-5.49 34.19-16.11 48.39-15.34 20.51-35.13 35.6-58.8 45.52-13.72 5.75-27.96 9.88-42.37 13.45-9.68 2.4-19.37 4.76-29.23 6.36-10.25 1.66-20.54 3.01-30.89 3.89-18.88 1.59-31.55 1.73-51.6 1.42m-28.49 83.39c3.98-.85 7.97-1.68 12.04-1.95 3.86-.26 7.78-.19 11.32 1.39 4.92 2.19 8.67 5.76 11.32 10.61 3.97 7.27 3.17 14.77 1.78 22.4-1.09 5.98-4.46 10.49-9.08 14.2-3.81 3.06-8.18 4.93-12.9 6.05-2.33.55-4.69.99-7.09 1.09-7.83.34-15.68.69-23.47-.18-9.9-1.1-17.6-5.83-22.52-14.7-3.46-6.24-5.12-13.06-6.5-19.96-1.98-9.93-2.27-19.98-1.7-30.07.37-6.46.66-12.92 2.08-19.27.97-4.3 2.29-8.48 4.07-12.5 5.01-11.33 13.62-18.25 25.69-20.92 7-1.55 14.11-1.64 21.22-1.58 5.11.04 10.23-.05 15.27 1.08 2.82.63 5.55 1.53 8.08 2.91 6.28 3.42 9.44 8.63 8.9 15.89-.14 1.83-.1 3.67-.61 5.47-2.06 7.24-6.55 12.2-13.88 14.17-6.83 1.84-13.75 1.68-20.66.18-1.24-.27-2.44-.77-3.74-.76-.9-.35-1.82-.25-2.74-.06-.14.03-.46-.04-.39.15.05.13.38.21.55.37 1.69.45 3.38.91 4.9 1.84 2.04 1.24 3.29 3.03 3.7 5.34.67 3.73.39 7.48-.2 11.19-.55 3.46-2.98 5.32-6.04 6.49-.74.28-1.53.46-2.29.68-.24.21-.49.38-.82.37.12.16.31.1.47.13 1.08.21 2.16.33 3.23-.02Zm99.77-.48c3.92-.77 7.82-1.62 11.81-1.91 3.95-.29 7.95-.22 11.55 1.39 5.25 2.33 9.1 6.22 11.74 11.48 2.97 5.91 2.85 12.04 2.07 18.26-1.65 13.17-10.08 20.05-22.15 23.41-2.78.77-5.64 1.18-8.52 1.27-7.27.21-14.55.53-21.81-.19-10.72-1.05-18.78-6.15-23.78-15.86-2.77-5.39-4.28-11.18-5.54-17.03-2.18-10.22-2.71-20.57-2.14-31 .27-5.03.38-10.06 1.1-15.06.95-6.61 2.75-12.96 5.63-18.98 5.16-10.77 13.76-17.13 25.35-19.63 6.93-1.49 13.96-1.57 20.99-1.52 5.03.03 10.07-.04 15.04 1.05 3.06.67 6.01 1.65 8.73 3.21 5.52 3.15 8.42 7.83 8.51 14.27.06 4.49-.52 8.76-3.04 12.6-3.62 5.5-8.77 8.41-15.25 9.23-6.43.81-12.75.47-19.01-1.2-2.02-.54-4.06-.88-6.22-.61.3.74.97.71 1.53.84.7.17 1.41.27 2.1.46 4.67 1.34 6.65 3.66 7.17 8.44.29 2.63.14 5.27-.04 7.9-.28 4.17-2.61 6.72-6.42 8.08-.6.21-1.21.4-1.82.6-.41.45-1.01.41-1.53.58-.23.07-.45.06-.48 0 1.4-.3 2.9.44 4.42-.08Zm-201.25-76.4c-.33 3.66-.74 4.93 4.13 6.43.53.16 1.03.44 1.56.62 1.32.44 2.43.35 3.39-.9.97-1.26 2.16-2.35 3.24-3.53 5.82-6.31 13.81-6.6 20.21-3.55 6.63 3.15 10.26 8.72 11.8 15.7 2.6 11.84-.59 22.27-8.13 31.51-4.04 4.95-8.84 9-14.67 11.72-8.3 3.88-13.91 10.23-17.39 18.63-1.4 3.39-2.98 6.71-4.52 10.04-2.28 4.95-5.75 9.03-9.74 12.64-4.42 4.01-9.7 5.41-15.57 4.23-5.59-1.12-10.83-3.2-15.84-5.94-7.65-4.18-10.34-11.94-9.38-19.41.56-4.39 1.95-8.55 3.34-12.72 1.27-3.79 2.43-7.6 3.16-11.53 1.25-6.76.57-13.36-1.59-19.85-1.09-3.25-2.44-6.43-3.12-9.8-1.65-8.16-.28-15.94 3.52-23.23 3.38-6.48 8.35-11.69 14.29-15.89 5.17-3.65 10.92-5.14 17.26-3.81 9.05 1.9 14.75 9.43 14.06 18.64Zm252.85 21.12c-.04-2.98.7-7.19 2.4-11.23 1.8-4.25 4.65-7.58 8.56-10.04 2.65-1.67 5.42-3.02 8.34-4.14 7.97-3.05 15.8-6.45 23.86-9.27 3.54-1.23 7.01-2.66 10.55-3.88 9.54-3.31 18.23-1.94 25.93 4.79 2.42 2.12 4.61 4.44 6.35 7.15 5.34 8.33 7.22 17.47 6.17 27.25-.34 3.15-1.53 6.02-3.5 8.54-.89 1.13-1.74 2.29-2.67 3.38-2.96 3.47-3.47 7.47-2.4 11.71 1.15 4.58 3.3 8.81 4.98 13.21 2.37 6.2 4.46 12.48 5.1 19.13.3 3.04.14 6.05-.86 8.99-1.34 3.93-3.7 7.03-7.21 9.26-5.8 3.69-12.11 6.09-18.9 7.05-5.78.81-10.68-1.3-14.79-5.29-3.14-3.06-5.14-6.89-6.97-10.81-2.36-5.07-4.25-10.32-6.1-15.59-.82-2.33-1.76-4.63-3.03-6.76-2.62-4.41-6.13-7.45-11.53-7.93-3.6-.32-7.08-1.26-10.04-3.52-2.88-2.19-5.39-4.75-7.42-7.76-4.65-6.91-6.75-14.57-6.81-24.23Z" class="cls-7"/><path fill="#cdd7d7" d="M258.62 491.16c-1.57.73-3.22.49-5.16.36.97-.76 1.81-.98 2.76-.86.66.83 1.64.14 2.4.5"/><path fill="#bfc3c3" d="M158.85 491.64c-1.61.75-3.25.54-5.32.31.96-.77 1.65-.97 2.45-.79.83.95 1.96.06 2.88.48Z"/><path fill="#cbeaea" d="M155.9 465.62c-.81.15-1.44-.23-2.1-.68 1.59-.27 3.14-.51 4.66.22-.83.29-1.82-.28-2.57.46Z"/><path fill="#ffdc70" d="M67.64 178.28c.08-1.93-.84-3.16-2.61-3.85-1.04-.41-2.04-.91-3.07-1.35-8.84-3.73-15.9-9.7-21.63-17.31-6.47-8.6-10.62-18.32-13.92-28.48-2.86-8.77-4.45-17.79-5.76-26.88-1.07-7.45-1.7-14.92-1.68-22.44.03-14.46 2.6-28.43 8.42-41.72 2.06-4.7 4.69-9.07 8.02-13.01 6.31-7.47 14.52-11.86 23.66-14.74 8.8-2.77 17.7-3.28 26.68-.94 1.62.42 3.16 1.06 4.7 1.75 3.63 1.62 5.72 4.47 6.94 8.1.41 1.21.76 2.45 1.28 3.6 1.07 2.37 2.88 3.88 5.57 3.83 1.47-.03 2.01.58 2.16 1.88.07.63.19 1.26.32 1.89.68 3.4 2.65 5.6 6.11 6.22 1.13.2 1.53.55 1.21 1.7-.19.68-.25 1.42-.23 2.13.12 2.96 1.89 4.91 4.84 5.34.63.09 1.27.09 1.91.13 1.69.1 3.05.84 4.1 2.17.99 1.26 1.82 2.62 2.45 4.1 4.37 10.26 7.63 20.83 8.54 32.01.47 5.76-.03 11.49-.53 17.23-.1 1.19-.25 2.39-.26 3.58-.03 1.84.67 2.98 2.03 3.43 1.52.51 2.63-.13 3.51-1.34.09-.13.2-.25.29-.38 3.14-1.83 4.24-5 4.59-8.21.43-3.88 2.92-5.76 5.79-7.54.33-.21.75-.28.97-.65 2.92-.88 5.95-1.02 8.95-1.32 6.68-.66 13.38-.86 20.09-.99 3.99-.08 7.98-.26 11.97-.46 5.9-.29 11.8-.15 17.7.07 7.98.29 15.96.6 23.93.9 1.6.06 3.18.21 4.75.51 2.27 1.71 4.18 3.57 4.02 6.79-.16 3.26 1.81 5.21 4.5 6.58 2.97 1.95 5.04 1 5.45-2.52.32-2.77.21-5.61 1.03-8.3 3.1-10.12 9.51-17.29 19.51-20.81 12.09-4.26 24.28-3.91 36.41.09 4.03 1.33 7.9 3 11.53 5.2 7.42 4.5 12.1 10.98 13.99 19.44 1.99 8.87 1.45 17.59-1.85 26.1-2.34 6.03-6.28 10.68-11.88 13.93-1.1.64-2.23 1.25-3.32 1.91-2.73 1.65-2.94 3.39-.7 5.74.37.47 1 .09 1.4.44h.02c1.53.55 3.07.59 4.7.49 4.45-.27 8.21.89 11.02 4.84 4.2 5.92 7.34 12.37 10.15 18.99 5.57 13.16 9.58 26.79 11.43 40.99.63 4.82 1.13 9.67 1.2 14.55.17 11.91 3.44 22.76 10.56 32.47 5.01 6.84 8.43 14.5 10.26 22.81 2 9.03.18 17.61-3.21 25.99-5.41 13.37-13.62 24.9-23.25 35.52-8.17 9.02-16.69 17.64-26.77 24.6-12.14 8.38-25.53 13.87-39.81 17.22-10.05 2.36-20.34 3.21-30.61 4.02-11.78.93-23.55 1.65-35.36 2.02-6.87.22-13.74.46-20.6.28-18.95-.51-37.81-1.93-56.23-6.87-11.9-3.19-23.52-7.1-34.65-12.57-8.26-4.06-16.57-7.9-24.19-13.12-9.79-6.7-19.1-13.98-27.19-22.68-10.94-11.75-19.38-25-23.11-40.85-3.32-14.12-1.03-27.41 5.96-40.04 2.9-5.25 6.23-10.24 9.11-15.5 4.05-7.39 5.84-15.4 6.47-23.65.7-9.16 3.86-17.57 7.07-25.99.67-1.75 1.88-3.16 3.32-4.34.9-.74 1.51-1.62 1.8-2.73Z"/><path fill="#eac451" d="M67.64 178.28c.18 1.23-.36 2.24-1.23 2.97-3.51 2.97-4.55 7.2-5.89 11.28-.79 2.41-1.48 4.83-2.47 7.18-.98 2.32-1.11 4.93-1.41 7.45-.81 6.86-1.41 13.75-3.69 20.35-1.94 5.62-4.91 10.71-8.08 15.7-3.94 6.21-7.39 12.67-9.62 19.71-1.35 4.27-1.99 8.64-2.14 13.13-.23 7.1.92 13.98 3.16 20.65 2.37 7.05 5.73 13.65 9.84 19.88 5.03 7.64 11 14.47 17.68 20.66 9.5 8.8 20.02 16.25 31.17 22.8 3.5 2.05 7.28 3.64 11.02 5.25 2.35 1.01 4.61 2.19 6.9 3.31 7.27 3.54 14.93 5.99 22.63 8.35 6.7 2.05 13.49 3.72 20.38 4.96 3.74.67 7.51 1.24 11.27 1.81 4.01.61 8.05.94 12.07 1.25 4.27.34 8.59.47 12.88.68 7.42.37 14.84.56 22.25.28 5.34-.2 10.68-.15 16.01-.45 5.16-.3 10.33-.54 15.47-.99 4.74-.42 9.5-.68 14.23-1.23 3.7-.43 7.44-.65 11.14-1.12 10.6-1.33 21.01-3.43 30.95-7.55 4.5-1.86 8.9-3.92 13.31-5.97 5.09-2.37 9.51-5.8 14-9.1 7.5-5.51 13.96-12.17 20.26-18.93 6.35-6.81 12.34-13.98 17.21-21.95 5.01-8.19 9.29-16.75 11.34-26.23 1.42-6.59.93-13.13-1.13-19.55-2.18-6.81-5.23-13.17-9.47-18.95-1.6-2.18-3.32-4.39-4.33-6.86-2.05-4.97-4.52-9.82-5.03-15.34-.39-4.2-.7-8.39-.98-12.59-.28-4.26-.66-8.53-1.25-12.79a137 137 0 0 0-2.96-15.19c-2.52-9.81-5.71-19.39-10.01-28.6-2.13-4.56-4.31-9.07-7.14-13.24-1.07-1.58-2.17-3.15-3.6-4.45-.47-.43-.88-.94-1.55-1.08-2.48-.52-4.91-1.38-7.51-.71-1.5.39-2.82.11-3.75-1.26 1.38-.43 2.64-1.1 3.88-1.83.82-.49 1.64-.99 2.5-1.42 4.12-2.03 7.38-1.33 10.14 2.35 10.17 13.54 18.1 28.19 22.27 44.74 2.35 9.3 4.49 18.63 5.63 28.16.73 6.13.62 12.29.62 18.44 0 1.93.18 3.83.47 5.73.64 4.26 2.68 7.63 6.28 10.04 1.93 1.3 4.01 2.32 6.15 3.21 7.14 2.97 13.61 7.04 19.58 11.93 1.42 1.16 2.75 2.43 4.11 3.67 6.36 5.84 8.87 13.28 9 21.7.13 8.22-2.02 15.92-5.03 23.49-4.55 11.42-11.66 21.03-20.2 29.73-16.44 16.75-35.89 28.59-58.14 35.95-19.28 6.38-38.92 11.38-58.92 14.86-11.65 2.03-23.41 3.21-35.21 4.11-17.01 1.31-34.02 1.05-51.04.83-10.39-.14-20.77-.62-31.12-1.57-11.94-1.09-23.76-3.02-35.48-5.57-19.66-4.27-38.66-10.51-56.77-19.32-9.43-4.59-18.64-9.56-26.51-16.64-9.44-8.5-17.43-18.11-21.81-30.21-4.89-13.49-5.37-27.19-.8-40.89 2.1-6.29 5.76-11.73 9.94-16.83 3.55-4.33 7.19-8.58 10.61-13 12.29-15.89 19.6-33.91 22.69-53.69.8-5.13 1.39-10.29 1.77-15.47.08-1.13.34-2.21.67-3.27.81-2.66 2.37-3.37 4.95-2.32.89.36 1.76.77 2.65 1.12 2.7 1.08 3.58.8 5.21-1.6Z"/><path fill="#e9c351" d="M152.03 88.56c-.73 1.63-2.42 2.25-3.66 3.31-1.14.98-1.98 1.81-2.11 3.47-.19 2.38-1.08 4.66-2 6.85-.62 1.47-1.71 2.71-3.57 2.76.14-1.5.24-3.01.42-4.51.4-3.38 1.28-6.58 3.8-9.05 1.96-1.92 4.34-2.91 7.12-2.84Z"/><path fill="#e8c351" d="M247.95 100.64c-.82-.27-1.66-.5-2.46-.81-1.21-.46-1.98-1.43-2.15-2.64-.2-1.4-.77-2.75-.57-4.2.17-1.21-.29-2.13-1.2-2.92-.9-.78-1.71-1.65-2.14-2.8.8-.12 1.58-.03 2.35.16 4.4 1.07 5.77 2.85 5.8 7.36.01 1.95-.65 3.96.38 5.84Z"/><path fill="#eac451" d="M319.52 141.84c-.55.1-1.07.15-1.4-.44.52-.01 1 .1 1.4.44"/><path fill="#dc0000" d="M151.14 457.02c-.54.32-1.11.62-1.63.98-2.83 1.94-3.58 4.23-2.66 8.1.93 6.03 4.98 9.33 10.15 11.68 1.35.61 2.67 1.31 1.81 3.2-.37.95-1.28 1.16-2.09 1.43-1.29.41-2.62.71-3.92 1.08-1.99.56-3.59 1.65-4.84 3.32-2.73 3.65-.84 7.71 1.88 9.28 3.36 1.93 6.84 1.87 10.39.92 4.9-1.3 9.87-1.77 14.93-1.71 5.04.06 8.89 2.37 11.85 6.22 1.86 2.42 3.15 5.18 3.51 8.28.5 1.73 0 3.31-.75 4.83-2.22 4.53-5.8 7.52-10.48 9.3-4.01 1.53-8.22 1.96-12.43 2.34-6.52.59-13.07.69-19.61.51-9.06-.24-16.69-3.56-21.99-11.12-3.22-4.6-4.61-9.98-5.39-15.48-.68-4.74-1.28-9.51-1.01-14.3.15-2.62-1.28-4.95-1.04-7.55.07-.71-.14-1.44.18-2.12 0-9.64 1.88-18.88 6.24-27.5 3.84-7.59 9.93-12.54 18.18-14.81 3.94-1.08 7.95-1.55 12.02-1.9 4.87-.42 9.74-.33 14.59-.21 4.44.11 8.93.21 13.22 1.7 2.04.71 4.05 1.53 5.78 2.83 3.71 2.78 4.45 6.64 3.67 10.93-.37 2.06-1.12 3.99-2.7 5.48-3.43 2.42-7.33 3.3-11.44 3.59-5.83.41-11.54-1.2-17.36-.95-3.1.13-6.17.4-9.06 1.67Z"/><path fill="#a91616" d="M117.99 476.2c-.01 2.07 0 4.11 1.11 5.99.27.45.35 1.07.36 1.61.08 3.9.04 7.79.46 11.68.72 6.61 1.89 13.08 5.26 18.91 1.44 2.49 3.39 4.57 5.77 6.28 3.08 2.21 6.34 3.99 10.08 4.68 1.94.36 3.89.77 5.89.77 4.07 0 8.16.26 12.21-.06 6.7-.53 13.51-.39 19.98-2.76 5.47-2.01 8.95-5.89 11.13-11.14.32-.77.14-1.58.27-2.36.79 1.5.52 3.13.45 4.69-.24 5.29-1.5 10.24-5.17 14.31a22.55 22.55 0 0 1-8.56 5.93c-4.25 1.67-8.69 2.56-13.3 2.5-5.99-.07-11.98 0-17.96-.02-6.04-.02-11.48-1.83-16.06-5.8-3.79-3.28-5.91-7.67-7.52-12.31-2.65-7.65-4.01-15.57-4.7-23.59-.4-4.61-.3-9.26-.08-13.88.09-1.8-.49-3.66.38-5.41Zm33.15-19.18c2.14-1.78 4.77-2.14 7.36-2.32 4.13-.29 8.22.32 12.33.74 4 .41 8.1.68 12.06-.74 2.01-.72 4.07-1.33 6.1-1.98-2.97 4.23-7.32 5.57-12.19 5.81-5.56.27-11.06.15-16.47-1.44-3.01-.88-6.12-.82-9.19-.07"/><path fill="#a81616" d="M158.81 480.98c.18-1.19-.35-1.86-1.44-2.37-1.92-.91-3.84-1.82-5.55-3.16-1.53-1.19-2.76-2.57-3.84-4.14-1.09-1.59-1.37-3.34-1.13-5.21 1.9 3.05 4.75 4.53 8.21 5.01.39.05.76.22 1.14.34 2.82.91 3.16 1.25 3.06 4.21-.06 1.77.54 3.63-.45 5.33Z"/><path fill="#dc0000" d="M217.76 475.72c-.03-9.72 1.88-19.02 6.33-27.68 3.8-7.39 9.77-12.25 17.81-14.53 4.08-1.16 8.24-1.65 12.47-1.98 4.87-.38 9.73-.33 14.58-.2 4.83.13 9.73.24 14.32 2.18 1.69.71 3.37 1.43 4.82 2.6 3.36 2.71 4.11 6.32 3.44 10.34-.26 1.55-.58 3.15-1.75 4.37-5.48 3.14-11.32 4.47-17.64 3.85-5.04-.49-10.05-1.75-15.18-.77-3.93.75-7.54 2-9.84 5.58-.71 1.49-1.22 3.02-.91 4.7.31.45-.06 1.1.43 1.5v-.02c1.66 4.92 5.15 8.14 9.76 10.22 1.95.88 2.94 2.09 2.3 4.28-.12 1.09-1 1.39-1.82 1.66-1.36.45-2.76.79-4.14 1.17-2.07.57-3.76 1.67-5.04 3.42-2.56 3.51-1.09 7.52 1.96 9.25 2.26 1.29 4.68 1.72 7.34 1.41 3.5-.4 6.82-1.59 10.33-1.92 3.27-.31 6.54-.53 9.78-.13 3.54.43 6.47 2.3 8.8 4.92 2.36 2.66 3.91 5.8 4.38 9.39.09 4.27-2.54 7.12-5.42 9.6-4.64 3.99-10.46 4.86-16.32 5.45-4.13.41-8.27.52-12.41.84-5.59.44-11.23.22-16.65-1.24-7.8-2.09-13.61-6.75-16.82-14.41-2.77-6.6-3.48-13.59-4.01-20.59-.27-3.57.13-7.18-.98-10.68-.25-.79-.23-1.74.1-2.59Z"/><path fill="#a91616" d="M217.76 475.72c.02 1.44.13 2.83.85 4.16.56 1.04.7 2.26.66 3.49-.21 6.71.52 13.35 1.98 19.88 1.14 5.09 3.09 9.99 6.92 13.67 3.53 3.38 7.72 5.92 12.67 6.77 4.79.82 9.65 1.27 14.5.93 4.76-.33 9.53-.47 14.27-.98 3.77-.41 7.54-1.07 11.05-2.76 5-2.41 8-6.37 9.62-11.55.76 1.58.54 3.29.45 4.93-.28 5.2-1.54 10.08-5.17 14.06-2.68 2.95-5.94 5.07-9.68 6.37-3.93 1.37-7.99 2.11-12.2 2.06-6.07-.07-12.14 0-18.21-.03-4.64-.02-8.95-1.22-12.94-3.65-5.14-3.12-8.02-7.92-9.97-13.34-2.16-6.01-3.55-12.2-4.4-18.56-.91-6.84-.98-13.66-.76-20.52.05-1.64-.51-3.34.36-4.93m29.35-16.25c.45-1.48 1.25-2.66 2.59-3.54 2.38-1.57 4.95-2.34 7.77-2.8 3.79-.62 7.43-.06 11.1.53 6.78 1.08 13.31.36 19.58-2.51a3.5 3.5 0 0 1 1.62-.34c-1.88 3.09-4.35 5.45-7.94 6.4-1.93.51-3.89.74-5.88.89-6.01.45-11.85-.42-17.68-1.73-4.22-.95-8.08-.21-11.16 3.11Z"/><path fill="#a81616" d="M258.68 480.16c.31-2.01-.79-2.99-2.51-3.71-3.44-1.43-6.23-3.72-8.35-6.8-.83-1.21-1.35-2.5-1.21-3.99 1.79 2.75 4.36 4.15 7.53 4.89 5.6 1.31 4.93 1.78 4.91 6.39 0 1.08.4 2.22-.37 3.22"/><path fill="#a81616" d="M246.62 465.67c-.59-.37-.53-.93-.43-1.5.38.43.46.95.43 1.5"/><path fill="#dc0000" d="M20.63 413.36c4.07-6.48 9.35-11.27 17.31-12.22 4.57-.54 11.9 2.35 13.57 8.13.29 1.02.43 2.03.44 3.06.02 1.6-.04 3.19-.08 4.79-.09 3.53 1.4 6.16 4.49 7.85 2.24 1.23 4.56 2.22 7.17 2.47 2.66.26 4.89-.52 6.71-2.42.94-.98 1.82-2.02 2.65-3.08 4.23-5.43 10.18-5.45 15.24-2.85 5.57 2.86 7.93 7.91 8.75 13.76 1.34 9.58-1.66 17.91-7.8 25.22-.62.74-1.32 1.38-2.14 1.89-2.9 1.53-6.03 2.55-8.88 4.2-12.1 7.05-20.9 17.17-27.44 29.4-1.14 2.12-2.5 4.09-3.96 5.99-1.35 1.76-3.14 2.75-5.36 2.71-5.88-.1-11.39-1.77-16.42-4.7-3.49-2.03-4.8-5.39-4.15-9.47 1.01-6.4 2.35-12.73 3.68-19.07 1.62-7.74.92-15.42-1.79-22.65-3.61-9.62-3.08-19.48-3.04-29.36 0-1.3.75-2.42 1.06-3.66Z"/><path fill="#a91616" d="M20.63 413.36c-.82 5.55-.3 11.14-.48 16.71-.14 4.28.66 8.41 2.01 12.42 1.32 3.93 2.47 7.9 3.13 11.99.74 4.57.82 9.15-.11 13.74-1.39 6.84-2.68 13.71-3.96 20.57-.57 3.06 1.16 6.91 4.2 8.47 4.91 2.54 10.13 4.24 15.74 4.39 2.14.06 3.72-.85 5.08-2.57 2.84-3.59 4.76-7.72 7.14-11.58 2.34-3.81 4.93-7.43 8.11-10.6 3.5-3.49 6.77-7.22 10.93-9.98 4.06-2.7 8.21-5.19 12.88-6.72.54-.18 1.07-.31 1.64-.23-1.97 2.17-4.58 3.4-7.09 4.76-5.22 2.82-10.16 6.01-14.22 10.41-3.87 4.21-6.71 9.08-9.12 14.23-1.88 4.04-3.65 8.13-5.68 12.09-1.65 3.23-3.88 6-7.27 7.69-3.24 1.61-6.5 1.33-9.79.44-4.4-1.19-8.54-2.98-12.61-5.07-5.68-2.92-7.27-9.51-6.53-13.98.67-4.04 2.03-7.85 3.27-11.71 2.35-7.31 4.29-14.68 3.78-22.49-.31-4.74-1.35-9.3-2.96-13.74-1.7-4.67-3.29-9.33-2.89-14.41.41-5.33 1.94-10.29 4.8-14.82Z"/><path fill="#dc0000" d="M326.7 460.4c-1.86-.89-3.22-2.37-4.39-3.99-4.72-6.55-7.32-13.76-6.62-21.95.27-3.21.97-6.34 2.57-9.15 2.21-3.9 5.76-6.46 9.75-8.12 9.05-3.78 18.21-7.31 27.37-10.8 3.87-1.47 7.75-2.99 11.71-4.18 3.88-1.16 7.97-1.6 12-.34 2.55.8 4.77 2.28 6.78 3.98 4.23 3.56 7.48 7.84 9.01 13.26.31 1.02.25 2.02.02 3.06-1.56 7.29-3.99 14.3-6.71 21.22-1.95 4.96-3.28 10.09-3.17 15.39.1 4.7 1.06 9.35 2.32 13.91 1.21 4.39 2.62 8.71 3.46 13.21.64 3.44-.14 6.52-1.78 9.43-3.77 6.68-11.63 10-19.06 8.18-2.76-.68-4.58-2.45-5.9-4.88-2.72-5-4.59-10.36-6.63-15.65-1.73-4.47-3.59-8.83-7.15-12.32-3.66-3.58-7.93-5.79-12.78-7.19-3.6-1.04-7.36-1.5-10.8-3.06Z"/><path fill="#a91616" d="M326.7 460.4c2.65.12 5.15.95 7.7 1.56 2.24.53 4.46 1.23 6.62 2.03 7.27 2.67 12.36 7.65 15.41 14.77 2.69 6.3 4.66 12.89 7.85 18.99 1.64 3.14 3.89 4.86 7.52 5.45 8.96 1.47 17.42-5.44 18.63-13.59.29-1.94-.23-3.82-.66-5.65-.86-3.63-1.99-7.21-2.93-10.82-.98-3.77-1.71-7.56-2.17-11.45-.78-6.63.82-12.75 3.08-18.83 2.36-6.34 4.83-12.65 6.11-19.34.28-1.48 1.12-2.83 1.03-4.4 1.58 4.11 2.53 8.27 2.01 12.78-.44 3.81-1.76 7.07-4.34 9.85-5.19 5.59-5.83 12.2-4.16 19.23 1.14 4.82 3.33 9.29 5.07 13.92 1.76 4.7 3.54 9.4 4.49 14.34.46 2.37.56 4.78-.03 7.12-.92 3.66-3.04 6.41-6.45 8.19-4.41 2.29-8.97 4.09-13.8 5.28-5.02 1.24-9.1-.33-12.56-3.91-1.68-1.73-2.88-3.81-3.96-5.95-3.36-6.72-5.73-13.84-8.46-20.82-.76-1.94-1.63-3.81-2.77-5.55-3.63-5.57-8.47-9.22-15.3-9.83-2.64-.24-5.2-.86-7.31-2.62-.24-.2-.4-.49-.6-.73Z"/><path d="M153.55 179.8c2.47.6 4.96 1.12 7.4 1.83 10.06 2.93 17.78 9 23.5 17.71 1.68 2.55 2.51 5.47 3.54 8.3 1.28 2.46 1.52 5.14 1.84 7.84.7 5.8.96 11.61.86 17.45-.13 7.67-3.62 13.4-9.95 17.55-3.73 2.45-7.93 3.79-12.15 5-10.09 2.9-20.41 4.58-30.85 5.63-10.33 1.04-20.65 2.14-30.98 3.1-10.49.98-20.99 1.89-31.52.23-4.64-.73-8.48-2.69-11.41-6.39-3.5-4.76-3.59-10-2.14-15.45.78-2.93 2.01-5.68 3.27-8.42.46-1 1.07-1.95 1.3-3.05 3.36-9.41 9.16-17.31 15.53-24.82 4.97-5.85 10.2-11.46 16.79-15.58 10.11-6.31 21.01-10.3 32.91-11.64 5.27-.59 10.53-.32 15.79-.41 2.15-.04 4.18.79 6.29 1.11Zm181.31 23.99c1.67 5.34 2.81 10.8 3.86 16.29 2.15 9.03 1.8 18.23 1.52 27.37-.2 6.69-3.63 11.76-10.83 13.36-4.4.98-8.85 1.42-13.29 1.6-13.69.55-27.3.04-40.67-3.46-6.88-1.8-13.91-2.93-20.87-4.4-7.59-1.6-15.07-3.62-22.29-6.49-7.49-2.98-11.19-9.38-9.96-17.35 1.11-7.15 3.24-13.98 6.98-20.24 2-3.88 3.95-7.79 6.13-11.57 2.2-3.82 5.02-7.1 7.93-10.39 4.24-4.81 9.44-8.21 14.8-11.48 4.19-3.12 9.03-4.87 14.07-5.68 16.37-2.62 31.98-.68 45.99 8.92 8.4 5.76 13.61 13.89 16.64 23.52Zm-49.92 131.39c2.39-1 4.69-2.15 6.8-3.67 1.5-1.46 3.33-2.45 5.1-3.52 3.93-2.37 4.16-2.89 3.36-7.34-.19-1.05-.76-2.17.21-3.17.52-.69.92-1.49 1.79-1.86 1.6-.67 3.46-.04 4.12 1.79 1.72 4.79 4.98 8.26 8.98 11.18.38.28.75.61 1.05.97.93 1.12 1.04 2.41.37 3.54-.68 1.15-1.83 1.66-3.26 1.42-.39-.07-.76-.22-1.14-.33-.65-.31-1.38-.39-2.02-.73-5.05-2.72-10.21.23-13.17 4.12-2.41 3.17-3.76 6.83-4.3 10.8-.92 6.72-4.14 11.84-10.47 14.72-2.11.96-3.17 2.5-3.02 4.92.15 2.64-.47 5.09-2.61 6.9-4.38 4.05-9.77 4.71-15.76.55-3.03-1.81-4.25-4.63-4.47-8.01-.22-3.27-1.38-6.01-4.16-7.98-2.06-1.46-4.19-2.22-6.73-1.71-6.96 1.4-13.89 3.02-20.99 3.65-8.97.8-17.91 1.38-26.98.95-13.42-.64-26.53-2.72-39.32-6.68-16.99-5.25-33.4-11.94-48.54-21.38-3.85-2.4-7.16-2.95-10.93-.03-2.19 1.69-3.42 1.22-5.21-1.07-.71-2.03-.01-3.53 1.66-4.75 1.94-1.41 3.78-2.93 5.29-4.8 1.36-1.67 2.5-3.48 3.22-5.54.49-1.41 1.28-2.59 2.97-2.72 1.58-.13 2.52.75 3.2 2.04.51 1.32.4 2.61 0 3.97-.77 2.67-.17 4.24 2.17 5.7 1.1.68 2.05 1.5 3 2.35 3.71 2.35 7.45 4.63 11.54 6.27 2.37.24 4.35 1.5 6.45 2.44 14.86 6.6 30.07 12.14 46.19 14.76 6.38 1.04 12.81 1.49 19.28 1.84 12.93.72 25.66-.43 38.29-2.96 13.45-2.7 26.24-7.45 38.8-12.9 3.04-1.32 5.81-3.39 9.25-3.75Z" class="cls-7"/><path fill="#ffe9a5" d="M173.67 126.54c-4.47.15-8.92 0-13.31-.97-2.04-.45-3.92-1.25-5.73-2.3-3-1.74-5.1-6.28-4.05-10.14 1.46-5.36 4.63-9.18 9.34-11.84 3.64-2.05 7.58-3.25 11.67-4.12 4.67-.99 9.39-1.6 14.08-2.37 3.93-.65 7.9-.98 11.84-1.21 5.15-.3 10.35-.48 15.54.19 2.52.33 5.05.49 7.56.96 3.71.7 7.26 1.95 10.69 3.38 5.44 2.26 10.7 4.96 16.05 7.43 2.57 1.18 4.19 3.08 4.83 5.84.17.72.21 1.43.08 2.14-1 5.36-3.94 9.32-8.73 11.91-2.25 1.22-4.57 2.31-7.05 2.94-4.17 1.06-7.07 3.73-9.71 6.97-2.82 3.46-6.6 5.53-11.06 5.98-1.71.17-3.46-.36-5.15-.84-4.91-1.4-9.23-3.93-13.28-6.94-2.31-1.72-4.64-3.34-7.23-4.64-3.14-1.58-6.48-2.15-9.91-2.35-2.15-.13-4.32-.02-6.47-.02"/><path d="M229.35 269.94c.78.53 1.56 1.07 2.34 1.59 2.9 1.93 4.73 4.59 5.39 8.02 2.07 6.36-.17 11.91-3.32 17.26-5.72 9.71-14.67 14.44-25.48 15.85-4.25.56-8.37-1-12.29-2.68-7.66-3.28-13.18-8.84-17.05-16.14-2.42-4.56-1.95-9.41-1.47-14.27.7-3.7 2.8-6.44 5.86-8.52a25.7 25.7 0 0 1 11.31-4.12c5.94-.68 11.93-.76 17.89-.5 5.77.25 11.65.25 16.82 3.51M79.69 137.96c.83.67 1.87.89 2.79 1.35.57.29 1.18.53 1.66.93.95.78 1.26 2.15.8 3.27-.47 1.14-1.34 1.73-2.58 1.81-1.08.07-2.04-.34-2.99-.74-8.34-3.55-14.76-9.41-19.93-16.72-7.41-10.48-11.47-22.18-12.52-34.96-.71-8.66.28-17.06 3.48-25.16 1.27-3.21 2.95-6.2 5.06-8.93 7.8-10.11 19.65-13.56 31.67-9.19 8.55 3.11 15.12 8.83 20.47 16 8.04 10.77 12.36 22.96 13.46 36.33.28 3.44.22 6.85-.03 10.29-.18 2.43-2.97 4.33-5.2 2.22-.17-.16-.36-.31-.54-.47-1.12-.93-.77-2.22-.72-3.36.28-7.74-.64-15.32-2.99-22.7-3.64-11.42-9.78-21.16-19.56-28.3-4.69-3.42-10.01-5.33-15.92-5.05-8.48.39-14 5.25-17.9 12.28-4.51 8.13-5.35 17.02-4.61 26.06.78 9.52 3.65 18.47 8.5 26.73 3.85 6.57 8.71 12.22 15.2 16.34.88.56 1.74 1.14 2.41 1.95Z" class="cls-7"/><path fill="#ffe9a5" d="M77.89 39.16c-6.16.39-11.57 1.58-16.94 3.14-5.95 1.74-10.23 5.58-14.11 10.15-2.18 2.57-4.07 5.3-5.75 8.21-2.95 5.09-4.7 10.61-6.04 16.29-.35 1.47-.63 2.96-1.01 4.42-.35 1.33-1.5 2.14-2.61 1.95-1.03-.18-1.6-1.04-1.65-2.55-.04-1.36.22-2.68.42-4.02.61-4.32.91-8.69 1.54-13 1.22-8.44 2.66-16.86 6.72-24.51 5.18-9.76 12.92-16.7 23.36-20.5 2.02-.73 4.17-.91 6.31-1.15 5.02-.57 9.85.23 14.47 1.99 5.31 2.02 10.13 4.92 14.6 8.52 5.07 4.1 8.55 9.39 12.16 14.64 2.81 4.08 5.57 8.21 7.62 12.7 2.19 4.79 4.88 9.35 6.72 14.29.94 2.53 1.8 5.09 2.07 7.82.08.78.41 1.53.62 2.3.47 1.74-.46 3.03-2.26 3.02-1.48 0-2.62-.68-3.25-2.04-.61-1.3-1.24-2.6-1.71-3.95-2.68-7.7-7.16-14.36-11.92-20.88-3.87-5.29-8.69-9.49-14.35-12.74a27.45 27.45 0 0 0-11.08-3.52c-1.5-.15-2.95-.8-3.92-.57Z"/><path fill="#eac451" d="M79.69 137.96c-4.83-2.18-8.72-5.59-12.11-9.56-8.18-9.55-12.76-20.7-14.35-33.12-1-7.87-.55-15.62 1.98-23.18 1.25-3.74 3.05-7.2 5.57-10.25 5.86-7.11 14.22-9.62 23.02-6.94 4.67 1.42 8.72 3.93 12.32 7.16 8.32 7.48 13.5 16.89 16.6 27.52 1.96 6.72 2.78 13.59 2.38 20.6-.07 1.28-.11 2.55.18 3.81-2.4-.45-2.69-2.42-2.99-4.3-.79-5.01-1.2-10.08-2.83-14.95-2.17-6.51-5.52-12.34-9.59-17.82-2.71-3.64-5.95-6.66-10.07-8.62-6.73-3.21-13.41-2.97-19.95.55-3.05 1.65-5.06 4.33-6.52 7.39-1.91 4-2.68 8.3-2.85 12.71-.08 2.15-.06 4.32-.01 6.47.17 7.23 1.64 14.18 4.25 20.93 2.73 7.06 7.16 12.92 12.56 18.12 1.03.99 2.16 1.93 2.4 3.48Zm149.61 72.51c-1.78 4.69-3.73 9.32-5.07 14.17-.99 3.55-1.77 7.13-1.27 10.86.73 5.43 3.47 9.31 8.54 11.54 4.62 2.03 9.49 3.31 14.32 4.68 8 2.27 16.22 3.51 24.33 5.29 6.55 1.44 13.05 3.07 19.71 3.97 5.64.77 11.3 1.01 16.97.95 6.23-.06 12.46-.19 18.65-1.08 2.14-.31 4.25-.72 6.28-1.47 3.53-1.3 5.86-3.73 6.99-7.35.86-2.78 1.09-5.64 1.11-8.52.05-7.12-.38-14.21-1.04-21.3-.07-.71-.06-1.43-.09-2.15.87 2.55 1.8 5.08 2.59 7.65.91 2.97 2.22 5.8 2.99 8.82.68 2.64 1.03 5.36 1.01 8.01-.03 4.69-1.77 8.97-4.08 13.06-2.85 5.04-7.59 7.12-12.77 8.42-4.46 1.12-9.03 1.65-13.63 2.11-4.39.43-8.76.42-13.14.32-3.56-.08-7.13-.4-10.68-.78-3-.32-5.99-.67-8.99-1.02-3.24-.38-6.43-1-9.63-1.54-5.4-.91-10.73-2.2-16.06-3.49-5.91-1.42-11.48-3.77-17.07-6.11-4.58-1.92-8.95-4.18-13.04-7-1.73-1.19-3.25-2.63-4.44-4.31-2.49-3.51-3.14-7.44-2.64-11.75.97-8.32 5.14-15.12 9.76-21.75.08-.12.26-.17.4-.25ZM93.62 333.23c2.19 1.8 3.1 2.06 5.27.33 3.65-2.89 6.84-2.45 10.69-.11 19.3 11.76 40.06 20.04 62.09 25.07 8.42 1.92 17 2.8 25.63 3.21 10.81.51 21.55-.04 32.25-1.55 4.59-.65 9.12-1.54 13.61-2.68 3.48-.88 6.76-.81 9.76 1.55 2.31 1.82 3.92 3.98 3.99 7.02.09 3.69 1.39 6.83 4.03 9.42-2.98-1.07-4.72-3.38-6.08-6.06-.21-.42-.3-.91-.49-1.34-2.03-4.62-3.28-5.01-8.49-4.4-3.56.42-6.97 1.56-10.46 2.33-4.74 1.04-9.52 1.59-14.38 1.87-8.29.48-16.58.4-24.88.41-6.62.01-13.14-.9-19.65-2-5.02-.85-9.95-2.09-14.79-3.69-5.14-1.7-10.21-3.63-15.19-5.75-5.73-2.44-11.36-5.08-16.89-7.93-6.24-3.21-12.29-6.76-18.44-10.12-2.73-1.49-5.69-2.46-8.75-3.06-.96-.19-1.89.02-2.78.47-2.27 1.16-5.27.24-6.06-2.98Zm-29.8-75.17c4.32 4.33 9.75 5.79 15.64 6.22 10.97.81 21.86-.18 32.76-1.32 6.99-.73 13.98-1.42 20.98-2.07 13.22-1.24 26.31-3.15 38.99-7.26 2.67-.86 5.23-1.96 7.65-3.38 6.26-3.68 9.64-9.15 10.14-16.39.39-5.76-.11-11.5-.7-17.22-.31-3.01-.85-6-1.29-9 2.77 2.97 3.9 6.72 4.77 10.52 1.18 5.13 1.88 10.34 1.54 15.63-.43 6.88-1.93 13.41-6.5 18.83-2.98 3.53-6.69 6.18-10.91 8.01-6.47 2.81-13.35 4.06-20.3 5.08-5.11.75-10.27 1.01-15.36 1.81-.31.05-.64.06-.96.04-3.76-.29-7.48.39-11.21.58-5.48.29-10.97.52-16.43.96-8.54.69-17.08.42-25.61.28-6.15-.1-12.24-1.29-17.35-5.17-2.26-1.72-4.46-3.58-5.85-6.16Z"/><path fill="#ffe9a5" d="M284.94 335.18c-4.47 2.48-9.17 4.45-13.88 6.41-12.04 5-24.33 9.19-37.18 11.56-7.16 1.32-14.38 2.04-21.66 2.38-11.38.52-22.68-.2-33.9-2.08-9.31-1.56-18.37-4.12-27.24-7.32-7.73-2.79-15.35-5.88-22.75-9.46-.56-.27-1.21-.41-1.64-.92 1.07-1.03 2.23-.53 3.33-.12 5.37 2 10.8 3.82 16.27 5.53 6.45 2.01 13.03 3.46 19.68 4.68 4.29.78 8.59 1.53 12.9 2.13 3.68.51 7.39.97 11.12 1.23 4.54.31 9.09.7 13.6.29 4.04-.36 8.1-.06 12.13-.75 2.1-.36 4.27-.31 6.41-.51 5.62-.5 11.17-1.36 16.71-2.36 13-2.35 25.74-5.7 38.39-9.43 1.6-.47 3.2-.96 4.8-1.44 1-.3 1.99-.63 2.92.18Z"/><path d="M280.1 106.32c-2.83-.25-3.8-1.04-3.83-3.81-.13-9.32 3.63-16.42 11.88-19.71 7.4-2.95 14.72-2.58 21.75 1.07 7.68 3.98 11.35 12.45 9.36 20.87-2.01 8.49-7.36 13.74-15.62 16.17-1.92.57-3.45.06-4.14-1.32-.75-1.5-.13-3 1.7-4.14.2-.13.39-.27.59-.4 1.03-1.24 2.62-1.47 3.93-2.2 6.04-3.33 8.86-10.9 6.41-17.26-1.13-2.94-3.29-4.95-6.04-6.17-5.35-2.36-10.82-2.51-16.23-.07-5.68 2.56-6.7 7.71-7.09 13.12-.14 1.89-.33 3.55-2.65 3.85Zm-150.13 45.22c-.39-.03-.8-.01-1.18-.11-2.49-.68-3.22-2.98-1.58-4.94.25-.3.59-.52.89-.78 1.24-1.1 2.76-1.53 4.33-1.88 9.59-2.14 19.21-4.2 29.03-4.86 8.43-.57 16.83-.22 24.59 3.62 7.48 3.7 10.85 10.04 10.87 18.26 0 2.31.18 4.63-.12 6.93-.2.34-.36.71-.61 1.02-.82 1.05-1.91 1.37-3.17.99-1.28-.38-1.93-1.32-2.08-2.61-.15-1.25.15-2.54-.39-3.74-1.13-1.06-.58-2.57-1.04-3.81-.86-6.63-3.92-10.05-10.37-11.84-6.73-1.87-13.56-1.58-20.4-1.09-3.65.26-7.28.72-10.86 1.5-4.99.91-9.94 1.98-14.88 3.12-.99.23-1.97.66-3.02.23Zm99.32 22.03c-.23.21-.46.42-.7.63-1 .88-2.11 1.06-3.31.45-1.13-.58-1.75-1.82-1.59-3.21.1-.86.28-1.72.42-2.58.47-6.97 3.16-13.08 7.35-18.55 1.84-2.4 4.48-3.79 7.29-4.83 4.97-1.83 10.14-2.73 15.39-3.31 8.93-.98 17.82-.41 26.71.43 2.02.19 4.17-.55 6.05.76.72.41 1.53.32 2.31.45 2.02.35 3.15 1.61 2.99 3.32-.16 1.69-1.46 2.66-3.59 2.64-.39 0-.78-.03-1.17-.04-4.05.83-8.1.07-12.14-.07-2.06-.07-4.13-.33-6.2-.33-7.18-.85-14.26.18-21.35 1.19-8.04 1.15-13.32 5.25-15.06 13.4-.78 2.06-1.39 4.17-1.82 6.33-.24 1.23-.53 2.47-1.58 3.33Z" class="cls-7"/><path fill="#eac451" d="M280.1 106.32c1.7-.87 2.26-2.24 2.15-4.13-.15-2.67.53-5.23 1.53-7.7.94-2.32 2.62-4.04 4.79-5.17 6.45-3.37 12.94-3.23 19.22.34 4.57 2.61 6.7 7.78 5.7 12.96-1.27 6.62-5.13 10.81-11.72 12.43-.04-1.56.37-2.94 1.44-4.16 1.61-1.84 2.59-4.04 2.76-6.46.25-3.65-.8-6.98-3.53-9.49-1.58-1.44-3.67-1.86-5.82-1.29-1.55.41-2.99 1.08-4.25 2.09-2.55 2.05-5.07 4.12-6.4 7.24-1.11 2.6-2.98 3.85-5.86 3.33ZM153.55 179.8c-3.73-.28-7.46-.64-11.21-.67-14.43-.1-27.93 3.24-40.53 10.37-6.56 3.71-11.99 8.68-16.98 14.23-7.08 7.87-13.22 16.38-17.73 26-.23.49-.36 1.07-.86 1.41.5-3.67 1.81-7.1 3.32-10.42 2.42-5.3 5-10.53 8.71-15.08 3.72-4.56 7.53-9.01 12.02-12.9a70 70 0 0 1 15.96-10.4 63.3 63.3 0 0 1 18.44-5.51c4.63-.65 9.26-.6 13.84-.29 5.11.34 10.22 1.22 15.01 3.27Zm133.35-36.44c-4.79.06-9.57-.36-14.34-.72-9.29-.7-18.5-.26-27.62 1.67-1.79.38-3.54.95-5.28 1.52-5.06 1.65-8.67 4.97-10.9 9.77-1.78 3.84-3.32 7.77-4.21 11.92-.1.46-.07.96-.45 1.33-1.87-5.44-1.52-10.88.61-16.09 1.44-3.51 4.12-6.19 7.27-8.38 5.22-3.63 11.03-5.5 17.29-6.39 5.34-.76 10.69-.56 16.01-.32 6.1.28 12.16 1.26 18.06 2.98 1.48.43 3.24.68 3.56 2.71m-90.09 24.41c.04-4.39-.06-8.77-1.31-13.04-1.76-6.02-5.62-10.09-11.4-12.37-4.88-1.93-9.99-2.7-15.21-2.82-8.42-.19-16.72.92-24.95 2.56-5.31 1.06-10.64 2.04-15.83 3.61.28-.57.67-1.12.82-1.72.36-1.47 1.41-2.22 2.64-2.89 3.75-2.03 7.83-3.09 11.96-3.98 3.1-.67 6.21-1.27 9.34-1.78a49 49 0 0 1 6.15-.61c1.29-.05 2.52-.43 3.77-.46 7.37-.2 14.71.26 21.41 3.62 7.5 3.76 12.06 9.79 13.06 18.4.41 3.51-.46 6.95-.04 10.42.05.4-.09.79-.42 1.07Z"/><path fill="#ffe9a5" d="M259.56 93.67c.75-4.69 2.13-9.11 5.19-12.89 5.29-6.53 12.32-9.94 20.41-11.21 4.46-.7 8.99-1.03 13.54-.22 1.62.29 3.32.24 4.95.6.54.12 1.09.27 1.57.53 1.6.88 1.86 1.6 1.37 3.52-.47 1.84-.83 2.13-2.82 2.17-5.26.1-10.53.29-15.49 2.2-7.28 2.81-13.94 6.67-19.23 12.56-1.16 1.29-2.11 2.79-3.14 4.2-.19.26-.32.56-.52.8-1.24 1.53-2.69 2.11-3.91 1.57-1.13-.5-2.01-2.25-1.93-3.84Zm-69.46 65.95c.51 1.23.41 2.52.45 3.81-.07 1.01-.13 2.01-.2 3.06-1.14-.05-1.71-.69-2.21-1.43-4.95-7.31-12.08-11.05-20.56-12.63-5.12-.96-10.31-1.3-15.46-.85-5.14.45-10.33.23-15.42 1.28-1.3.27-2.67.17-4.02.42-1.2.22-2.38-.28-2.71-1.75 5.81-1.8 11.76-2.94 17.76-3.87 3.03.01 6.03-.42 9.04-.6 5.99-.36 11.98.04 17.88 1.13 6.95 1.28 11.82 5.55 15.45 11.41Z"/><path fill="#e2bc46" d="M177.47 279.56c-.07 2.79-.25 5.59.27 8.35 1.14 6.15 4.54 11.02 8.96 15.21 5.24 4.98 11.55 7.87 18.71 8.86 2.25.31 4.52.11 6.65-.49 5.88-1.65 11.54-3.9 15.95-8.31 5.13-5.14 8.74-11.13 9.32-18.62.13-1.7-.38-3.33-.24-5 1.29 1.11 1.21 2.69 1.35 4.15.45 4.87-.89 9.33-3.31 13.48-2.95 5.07-6.65 9.5-11.3 13.14-1.43 1.12-3.06 1.69-4.66 2.36-3.93 1.64-8.05 2.6-12.27 2.79-6.22.28-11.72-1.93-16.6-5.69-3.6-2.78-6.86-5.92-9.63-9.56-3.65-4.79-4.7-10.22-3.89-16.03.21-1.54-.28-3.22.7-4.64Z"/><path fill="#eac451" d="M276.71 374.94c1.55-2.34 2.26-4.9 1.98-7.7-.2-2.03.78-3.32 2.47-4.23.35-.19.71-.37 1.07-.53 6.02-2.7 9.08-7.56 9.91-13.91.59-4.55 2.07-8.81 5.13-12.14 4.31-4.68 9.42-6.8 15.03-2.23-3.41-.04-5.96 2-8.6 3.72-1.59 1.03-2.98 2.36-4.35 3.71-1.44 1.42-2.12 3.09-2.42 5.04-.4 2.57-.62 5.18-1.77 7.6-2.16 4.53-4.98 8.52-9.22 11.29-1.77 1.16-3.2 2.51-4.29 4.33-1.24 2.05-2.87 3.78-4.94 5.05"/><path fill="#eac351" d="M334.86 203.79c-1.26-2.66-2.39-5.37-3.81-7.96-5.57-10.2-13.88-17.2-24.78-21.09-11.3-4.04-22.88-4.92-34.66-2.62-3.93.77-7.63 2.3-11.26 3.98-.72.33-1.37.84-2.19.93.29-1.27 1.47-1.68 2.38-2.2 4.17-2.37 8.53-4.26 13.3-5.14 2.34-.43 4.55-1.4 6.96-1.55 3.3-.22 6.5-.87 9.91-.47 4.87.57 9.57 1.55 14.05 3.48 5.5 2.36 10.84 5 15.4 9.01 6.65 5.86 11.51 12.88 14.32 21.31.26.77.49 1.52.38 2.33Z"/><path fill="#ffe9a5" d="M268.71 148.65c4.21-.17 8.38.48 12.57.63 2.05.07 4.1.29 6.16.45-.18.5-.5.83-1.05.79-2.71-.18-5.37.45-8.07.55-9.45.36-18.79 1.5-27.78 4.65-5.47 1.92-10.47 4.59-14.45 8.92-2.01 2.18-3.69 4.56-4.98 7.24-.36.75-.48 1.92-1.81 1.7.64-2.43 1.28-4.87 1.94-7.29.22-.82.31-1.7.87-2.41 3.78-6.9 9.95-10.36 17.32-12.21 5.67-1.42 11.43-2.04 17.23-2.55.72-.06 1.44-.05 2.07-.46Z"/><path fill="#010000" d="M357.35 262.4c-.08.13-.06.26.04.37.21.45.24.93.13 1.4-1.79 7.4-6.83 14.67-15.45 16.78-.16.02-.32.03-.47.06-2.25.4-3.54-.16-4.11-1.78-.54-1.54.22-2.92 2.2-3.96.7-.37 1.41-.73 2.14-1.04 4.75-2.03 7.44-5.79 8.96-10.55.12-.38.24-.76.37-1.13 1.12-3.3 3.43-3.78 5.83-1.21.2.33.17.73.35 1.06Z"/><path fill="#010100" d="M37.44 266.61c.29-.47.52-1.01.89-1.4 1.5-1.55 3.86-1.16 4.75.8.32.71.4 1.53.57 2.31.9 4.19 2.71 7.65 7.24 8.88.15.04.3.11.45.16 1.44.51 2.59 1.34 2.69 2.99.1 1.56-.9 2.47-2.2 3.1-.53.42-1.14.49-1.8.43-7.1-.65-14.08-10.22-12.59-17.28Z"/><path fill="#eac451" d="M342.06 280.95c1.32-.71 2.63-1.45 3.98-2.12 6.03-3.01 8.99-8.33 10.88-14.46.16-.53.31-1.07.47-1.6 2.79 1.45 2.96 3.88 2.36 6.52-.44 1.94-1.03 3.83-1.72 5.7-1.74 4.65-5.39 7.15-9.77 8.83-1.99.76-4.02.07-5.11-1.76-.29-.49-.43-1.01-1.08-1.11Z"/><path fill="#ffe9a5" d="M101.45 114.54c.76 0 1.16-.02 1.56 0 1.54.07 2.26.56 2.53 1.68.31 1.33-.07 2.28-1.3 3.05-1.01.63-2.07 1.19-3.09 1.81-3.84 2.35-7.27 5.13-9.64 9.06-.41.68-.85 1.35-1.35 1.96-.99 1.2-1.68 1.38-2.9.86-1.46-.62-2.48-1.81-2.27-3.02.5-2.89 1.06-5.75 2.69-8.32 2.3-3.6 5.71-5.45 9.66-6.49 1.45-.38 2.91-.89 4.11-.6Z"/><path fill="#e9c451" d="M37.44 266.61c-.06 4.34 1.56 8.13 4.11 11.49 2.54 3.35 6.16 4.91 10.29 5.35-1.09 3.05-3.44 4.17-6.11 2.6-4.14-2.44-7.95-5.3-10.15-9.78-.63-1.29-1.04-2.64-1.02-4.13.02-1.18.28-2.26 1.15-3.03.8-.71 1.13-1.69 1.74-2.5Z"/><path fill="#e9c250" d="M229.35 269.94c-2.84-.97-5.61-2.28-8.7-2.31-1.99-.02-3.97-.14-5.95-.36-7.01-.78-14-.12-20.97.46-3.06.26-6.02 1.42-8.87 2.68-.51.22-1.02.42-1.53.63.09-.52.44-.83.88-1.06 3.16-1.67 6.29-3.34 9.92-3.84 5.26-.72 10.46-1.84 15.83-1.48 6.29.43 12.41 1.46 18.15 4.21.51.25 1 .5 1.24 1.06Z"/><path fill="#ffe9a5" d="M297.45 111.02c.21 1.24-.49 2.09-1.47 2.73-1.06.69-2.06.17-2.85-.5-1.7-1.44-3.48-2.75-5.38-3.93-1.33-.82-1.73-2.38-1.2-3.54.44-.95 1.75-1.27 3.34-1.05 2.52.34 4.78 1.1 6.44 3.18.72.91 1.22 1.86 1.11 3.1Z"/><path fill="#e9c250" d="M300.41 317.48c-.07 1.44.31 2.81.62 4.2.66 2.97.09 4.46-2.47 5.99-2.23 1.34-4.38 2.83-6.81 3.84.05-.42.28-.74.58-1 2.84-2.51 4.36-5.77 5.41-9.32.46-1.55 1.06-2.99 2.68-3.7Z"/><path fill="#e7c150" d="M115.14 329.48c-1.37-.46-2.52-1.32-3.72-2.09-2.18-1.4-2.91-3.46-2.16-5.98.39-1.3.88-2.56.7-3.95 1.1 1.2 1.74 2.6 1.84 4.23.05.82.47 1.49.82 2.2.9 1.84 1.9 3.63 2.52 5.6Z"/><path fill="#eac451" d="M357.35 262.4c-.3-.29-.39-.66-.35-1.06.41.26.46.63.35 1.06"/><path fill="#ffa9a9" d="M164.66 435.3c3.45.02 6.57-.14 9.63.62 1.48.37 2.92.85 4.21 1.65 4.15 2.58 4.25 8.01.18 10.74-1.49 1-3.15 1.45-4.96 1.57-3.4.22-6.65-.69-9.96-1.16-4.48-.65-8.92-.53-13.28.79-6.57 2.01-10.57 6.6-12.72 12.96-.77 2.27-1.19 4.63-1.48 7.01-.09.71-.17 1.43-.35 2.12-.6 2.23-2.01 3.53-3.91 3.65-1.82.12-3.48-1.05-4.32-3.18-.8-2.01-1.22-4.13-1.43-6.28-.53-5.39.85-10.23 3.97-14.68 6.24-8.89 14.62-14.03 25.43-15.28 3.11-.36 6.22-.33 8.99-.52Zm-6.88 83.17c-7-.28-13.33-2.24-18.29-7.5-1.66-1.77-2.91-3.78-3.42-6.21-.53-2.54.67-5.72 2.8-7.18 1.21-.83 2.5-.88 3.88-.38 1.96.7 3.86 1.56 5.61 2.66 5.78 3.6 11.97 4.02 18.44 2.59 1.63-.36 3.26-.75 4.9-1.08 1.52-.31 3.02-.22 4.48.34 2.44.95 3.64 3.47 2.92 6.05-.64 2.29-2.23 3.85-4.05 5.17-3.61 2.61-7.64 4.27-12.03 5.05-1.73.31-3.46.59-5.25.5Zm106.06-83.01c3.19-.12 6.39-.32 9.54.46 1.4.35 2.77.79 4.01 1.53 4.41 2.65 4.47 8.26.11 11.01-2.99 1.89-6.29 1.66-9.53 1.13-3.86-.63-7.69-1.4-11.64-1.21-1.85.09-3.66.32-5.44.76-8.5 2.1-12.96 7.95-14.82 16.14-.42 1.86-.62 3.78-.95 5.66-.11.62-.27 1.26-.53 1.83-.69 1.5-1.9 2.39-3.55 2.46-1.64.07-2.92-.69-3.77-2.11-.96-1.61-1.36-3.43-1.65-5.22-.98-6.15.1-11.79 3.81-17.02 7.28-10.27 17.3-14.98 29.62-15.4 1.6-.05 3.19 0 4.79 0Zm-6.76 83.01c-5.96-.08-11.3-1.69-16.01-5.16-2.29-1.68-4.07-3.82-5.24-6.42-1.29-2.85-1.15-5.53.91-8.05 1.56-1.9 2.92-2.39 5.23-1.59 1.89.65 3.69 1.52 5.39 2.57 5.85 3.63 12.12 4.07 18.66 2.58 1.63-.37 3.26-.77 4.9-1.06 3.17-.56 5.71.44 6.88 2.62 1.16 2.15.56 4.88-1.65 7.18-.71.74-1.53 1.41-2.37 2-5.06 3.52-10.7 5.2-16.7 5.33M86.87 439.16c-.2 6.56-5.57 13.08-10.78 15.29-.86.37-1.86.48-2.8.56-1.75.15-3.51.25-5.26.25-3.81 0-7.39.69-10.74 2.69-4.85 2.91-10.94.22-12.75-4.81-1.86-5.18-4.72-9.71-8.2-13.91-1.74-2.1-3.29-4.31-3.86-7.07-.6-2.92-.03-5.61 1.8-7.9 3.51-4.39 7.58-3.05 10.01-.22 1.51 1.76 3.24 3.32 4.67 5.12 2.67 3.39 6.33 4.59 10.34 5.35 4.33.82 8.16-.18 11.82-2.51 3.49-2.22 7.32-2.35 11.02-.75 3.02 1.3 4.76 3.93 4.73 7.9Zm280.38-24.74c4.71-.07 7.36 2.62 6.9 6.94-.18 1.63-1.01 2.99-2 4.25-.74.94-1.49 1.87-2.24 2.8-1.83 2.26-2.33 4.79-1.72 7.63.6 2.81 1.05 5.65.26 8.52-.57 2.09-1.29 4.11-2.71 5.78-2.7 3.15-6.53 4.34-10.03 1.86-3.74-2.65-7.54-2.52-11.58-2.21-3.21.24-6.32.05-9.35-1.27-5.88-2.56-7.58-7.78-6.38-13.14 1-4.43 3.76-7.65 7.43-10.14 4.65-3.16 9.86-5.11 15.11-6.96 3.45-1.22 6.94-2.33 10.55-2.97 1.04-.18 1.89-.89 2.89-1.06.93-.16 1.91-.03 2.86-.03Z"/><path fill="#fff" d="M125.3 201.48c-1.72 4.3-3.24 8.68-3.68 13.32-1.39 14.67 2.58 27.31 14.14 37.04.65.55 1.5.95 1.85 2.05-.77.53-1.69.62-2.6.72-10.8 1.08-21.59 2.25-32.41 3.2-8.19.72-16.42 1.12-24.63.2-2.23-.25-4.41-.71-6.43-1.74-3.61-1.84-5.2-4.83-4.66-8.85.34-2.54 1.04-4.99 2.1-7.33 1.66-3.7 3.2-7.46 5.37-10.91 5.29-5.81 11.32-10.75 17.92-14.99 9.48-6.1 19.82-10.26 30.66-13.25 1.59-.44 1.59-.41 2.38.54Z"/><path fill="#d9d9d950" d="M125.3 201.48c-.32-.51-.73-.42-1.24-.27-5.87 1.75-11.7 3.57-17.34 6.01-6.23 2.7-12.12 5.99-17.69 9.85-2.55 1.77-4.93 3.73-7.22 5.83-2.39 2.2-4.97 4.18-7.47 6.26.89-2.41 2.27-4.56 3.65-6.7 4.96-7.69 10.63-14.84 17.48-20.91 9.56-8.48 20.8-13.5 33.52-15.12 2.06-.26 4.12-.52 6.2-.5.54 0 1.21-.03 1.4.64.15.54-.35.85-.71 1.15-4.58 3.77-7.85 8.55-10.58 13.73Z"/><path fill="#feffff" d="M162.76 207.4c.02 1.18-.32 2.09-1.14 2.67-1.21.87-1.7 2.01-1.83 3.44-.12 1.3-.87 2.24-2.12 2.62-1.36.42-2.57 0-3.39-1.14-.81-1.11-1.92-1.59-3.14-2.02-3.23-1.15-3.75-3.66-1.23-5.98 1.39-1.27 2.37-2.7 2.81-4.59.41-1.78 1.76-2.79 3.43-2.79 1.63 0 2.66.89 3.21 2.39.42 1.14 1.05 2.11 2.05 2.87.85.65 1.36 1.55 1.35 2.52Z"/><path fill="#fefefe" d="M168.02 199.32c.5.01 1.3.38 1.78 1.18.57.95 1.41 1.47 2.36 1.93 1.43.69 2.46 1.78 2.91 3.32.46 1.56-.13 3.06-1.38 3.73-1.24.66-2.6.46-3.65-.8-.65-.77-1.43-1.23-2.25-1.72-1.32-.79-2.51-1.73-3.05-3.25-.82-2.29.61-4.48 3.27-4.39Z"/><path fill="#fdfdfd" d="M171.77 215.36c-.06 2.04-2.2 3.84-4.49 3.78-2.41-.06-3.97-1.64-3.89-3.93.08-2.23 1.81-3.84 4.08-3.79 2.41.05 4.35 1.84 4.3 3.93Z"/><path fill="#fff" d="M329.58 208.08c1.87 4.8 2.74 9.84 3.22 14.91.64 6.75 1.08 13.54 1.04 20.33-.01 2.16-.27 4.29-.75 6.41-.49 2.17-1.82 3.46-3.9 4.12-1.91.61-3.88.97-5.86 1.15-11.63 1.04-23.27 1.46-34.87-.39-3.46-.55-6.9-1.29-10.33-2.02-2.05-.44-2.1-.69-.81-2.44.42-.57.93-1.09 1.43-1.6 6.42-6.39 9.9-14.21 11.03-23.11 1.36-10.7-.88-20.62-6.65-29.74-.08-.13-.11-.3-.17-.45-.12-1.09.76-1.16 1.41-1.18 10.62-.31 21.11.49 31.11 4.36 4.17 1.61 7.79 4.38 11.52 6.86 1.08.72 1.99 1.6 2.59 2.77Z"/><path fill="#d9d9d950" d="M329.58 208.08c-3.79-3.04-7.98-5.48-12.12-7.99-3.9-2.36-8.3-3.17-12.66-3.93-6.42-1.12-12.9-1.76-19.43-1.52-.83.03-1.79-.31-2.4.62-1.57-1.89-3-3.9-4.76-5.64-3.16-3.11-6.76-5.57-10.84-7.3-.57-.24-1.45-.27-1.5-.97-.07-.89.71-1.35 1.48-1.66 2.37-.95 4.82-1.69 7.35-2.05 12.05-1.75 23.73-.5 34.69 5.03 10.58 5.34 16.94 14.19 20.21 25.41Z"/><path fill="#fefefe" d="M256.27 214.85c-.02.13.02.49-.13.75-.97 1.75-1.21 3.78-2.1 5.55-1.22 2.42-3.83 2.58-5.31.33-.95-1.45-1.28-3.25-2.45-4.59-.05-.06-.07-.14-.09-.22-.42-1.31 1.22-6.65 2.3-7.5 1.1-.86 2.76-.92 3.7.16.99 1.15 2.13 2.13 3.2 3.18.59.57.86 1.33.87 2.35Z"/><path fill="#fdfdfd" d="M247.09 207.08c-2.95.06-4.56-2.25-3.47-4.7.75-1.69 1.84-3.2 3.15-4.48 1.81-1.76 4.3-.94 5.03 1.49.59 1.93.36 3.6-1.21 5.01-.53.48-.94 1.09-1.43 1.61-.63.67-1.42 1-2.08 1.07Z"/><path fill="#f9fafa" d="M241.27 213.95c-1.62.05-2.95-1.12-3.06-2.7-.11-1.62 1.3-3.12 2.93-3.11 1.51 0 2.91 1.37 2.95 2.89.05 1.57-1.21 2.88-2.82 2.93Z"/><path fill="#adddf6" d="M262.96 362.56c-.54-2.76-2-4.96-4.01-6.89-1.55-1.49-1.32-2.37.71-3.09 8.09-2.87 16.05-6.07 23.84-9.7.14-.06.31-.05.47-.07 1.37 2.14.33 4.17-.45 6.1-1.07 2.64-2.95 4.77-5.3 6.33-3.36 2.23-6.28 4.81-8.56 8.18-2.1 3.1-6.13 2.44-6.7-.85Z"/><path fill="#6aaacb" d="M262.96 362.56c.16.18.32.34.47.53 1.86 2.39 4.04 2.41 5.83-.02.94-1.27 1.75-2.63 2.85-3.79 1.55-1.63 3.36-2.9 5.21-4.12 1.74-1.16 3.17-2.62 4.39-4.3 1.75-2.41 2.57-5.07 2.25-8.05.33-.43.83-.43 1.3-.45 1.47-.04 1.71.21 1.36 1.65-.35 1.39-.51 2.81-.73 4.22-.59 3.86-2.43 6.87-6.13 8.51-1.17.52-2.29 1.12-3.31 1.9-2.56 1.96-3.99 4.5-4 7.77 0 .64.02 1.28 0 1.91-.05 2.49-1.45 3.82-3.91 3.72-2.54-.11-4.74-1.97-5.2-4.48-.3-1.64-.42-3.31-.41-4.99Z"/><path fill="#fff6db" d="M198.44 101.56c6.86.12 14.87.58 22.72 2.45 3.89.93 7.62 2.32 10.9 4.7.32.23.7.41.97.7 2.99 3.27 2.57 6.07-1.17 8.14-1.25.69-2.61 1.17-3.92 1.77-2.69 1.22-4.77 3.22-6.54 5.49-1.39 1.78-2.96 3.36-4.61 4.85-2.86 2.6-8.16 2.98-11.43.89-2.01-1.29-3.91-2.75-5.56-4.51-3.02-3.21-6.74-5.35-10.91-6.66-2.66-.83-5.32-1.18-8.21-.68-3.59.62-7.27.75-10.95.68-3.52-.07-7.37-3.57-4.64-8.3 1.68-2.92 4.29-4.71 7.29-5.91 4.83-1.94 9.9-2.76 15.09-3.18 3.27-.26 6.52-.35 10.97-.43"/><path fill="#fff" d="M208.28 276.58c4 .02 7.95.65 11.91 1.13.47.06.93.25 1.37.43 1.35.55 2.28 1.5 2.45 2.98.19 1.59-.52 2.83-1.87 3.61a15.16 15.16 0 0 1-6.83 2.01c-3.91.2-7.81.26-11.64-.92-2.76-.85-5.62-1.12-8.53-.62-1.28.22-2.55.17-3.59-.82-1.03-.98-1.18-1.74-.53-2.97.43-.81 1.11-1.35 1.87-1.8 1.53-.91 3.21-1.43 4.94-1.75 3.45-.63 6.9-1.35 10.45-1.27Z"/><path fill="#fff6db" d="M70.93 21.48c5.46-.29 10.07 1.74 14.48 4.18 4.54 2.52 8.51 5.81 12.39 9.29 6.52 5.85 11.84 12.63 16.51 19.98.43.68.67 1.44.99 2.16.47 1.07.36 1.94-.65 2.45-1.02.51-1.56-.32-2.11-1.04-1.46-1.89-3.01-3.71-4.42-5.64-3.89-5.28-8.64-9.63-14.47-12.58-5.19-2.62-10.71-4.28-16.58-5-6.95-.85-13.21 1.04-19.4 3.67-1.91.81-3.82 1.59-5.78 2.27-1.09.38-2.18.44-3.3.39-2.09-.09-3.26-1.72-2.75-3.77.51-2.04 1.47-3.87 2.69-5.56 2.98-4.14 7.11-6.8 11.72-8.74 3.48-1.46 7.1-2.35 10.7-2.09Z"/><path fill="#fef5da" d="M190.1 159.62c-1.82-1.86-3.64-3.73-5.47-5.58-3.08-3.12-6.88-4.81-11.15-5.4-5.19-.72-10.41-1.12-15.65-.95-2.61.09-5.2.64-7.83.44-.77-.06-1.61.22-2.26-.45 2.28-.81 4.69-.94 7.05-1.22 7.63-.93 15.27-1.48 22.87.24 1.16.26 2.31.6 3.45.98 5.76 1.92 8.98 6.54 8.99 11.95Zm78.61-10.97c-1.23 1.49-3.04 1.22-4.61 1.35-6.74.52-13.38 1.53-19.71 3.94-4.79 1.82-8.6 5-11.38 9.35-.19.29-.16 1.11-.92.59.56-2.51 1.6-4.83 2.88-7.05 1.36-2.37 3.33-4 5.9-5 3.37-1.32 6.87-2.06 10.43-2.53 5.23-.69 10.47-1.16 15.76-.86.55.03 1.1.14 1.65.22Z"/><path fill="#fff6db" d="M261.93 90.61c.29-2.62 1.51-4.84 3.19-6.81 4.61-5.39 10.54-8.58 17.26-10.62 3.24-.98 6.56-1.14 9.83-1.78.31-.06.64-.04.96 0 1.03.11 1.96.53 2.14 1.6.21 1.21-.84 1.68-1.73 1.93-1.68.47-3.41.68-5.11 1.09-6.36 1.53-11.72 4.76-16.57 9.07-1.92 1.71-3.67 3.49-5.12 5.61-.44.64-1.1 1.16-1.73 1.63-.58.43-1.23.65-2 .23-.81-.44-1.16-1.05-1.12-1.95M98 117.43c.66-.02 1.3.05 1.63.73.34.72.27 1.53-.39 1.93-3.11 1.88-5.47 4.52-7.73 7.28-.57.69-1.39.82-2.15.34-.7-.44-1.1-1.02-.88-1.99.81-3.66 5.95-8.18 9.54-8.29Z"/><path fill="#fff6da" d="M293.46 111.18c-.64.02-1.1-.09-1.46-.45-.63-.64-1.41-1.02-2.17-1.46-1.2-.7-1.52-1.48-1.05-2.3.64-1.13 1.6-.79 2.51-.5 1.35.43 2.23 1.49 3.17 2.46.44.45.55.92.21 1.5-.32.55-.73.83-1.22.74Z"/><path fill="#ffe6e6" d="M170.62 447.37c-2.16-.44-4.26-.86-6.32-1.51-5-1.57-9.91-1.15-14.69.91-1.54.66-3 1.5-4.55 2.12s-2.65.3-3.39-.76c-.63-.91-.52-2.06.36-3.32 1.16-1.66 2.64-2.97 4.44-3.9 3.22-1.65 6.62-2.63 10.22-3.13 3.99-.56 7.93-.53 11.9.05 2.61.39 4.68 1.5 5.9 3.95 1.15 2.31.19 4.5-2.29 5.19-.54.15-1.08.27-1.58.39Zm-12.25 67.23c-4.86-.55-9.91-2.36-13.78-6.74-.65-.74-1.01-1.62-1.4-2.49-.4-.91-.16-1.77.48-2.43.71-.74 1.63-1 2.62-.55.8.36 1.58.74 2.29 1.28 4.2 3.24 8.94 4.32 14.14 3.48.88-.14 1.74-.24 2.61-.17 2.4.19 3.31 1.87 2.25 4.05-.36.75-.92 1.27-1.62 1.7-2.05 1.24-4.38 1.91-7.59 1.89Zm113.65-72.25c-.02 1.25-.53 2.37-1.67 2.94-1.57.79-3.34 1.18-5.08 1.05-3.24-.24-6.46-.94-9.7-1-2.58-.05-5.24.15-7.7 1.2-.59.25-1.21.41-1.79.67-.92.42-1.73.14-2.49-.34-1.38-.87-1.53-2.08-.24-3.07 1.97-1.5 4.17-2.68 6.52-3.43 4.73-1.5 9.58-2.36 14.58-2.06 1.76.11 3.49.4 5.12 1.04 1.28.5 2.41 1.3 2.45 2.98Zm-13.69 70.81c-4.76.51-9.09-1.05-13.11-3.78-.87-.59-1.59-1.33-2.33-2.05-1.2-1.19-1.37-1.97-.71-2.9.7-.99 2.29-1.58 3.38-1.07 1.67.77 3.37 1.39 5.16 1.86 4.49 1.17 8.99.93 13.52.41 1.66-.19 3.34-.4 4.94.35 2.13 1 2.49 2.89.91 4.6-1.15 1.24-2.65 1.77-4.22 2.08-2.43.47-4.89.68-7.54.51ZM63.51 451.28c-2.18-.11-5.43-.47-8.7-.53-2.57-.05-4.39-1.74-5.15-4.04-1.27-3.85-3.42-6.98-6.47-9.56a6 6 0 0 1-1.49-1.85c-.65-1.29-.47-2.48.33-3.61.85-1.2 1.93-1.35 3.05-.36.96.84 1.77 1.85 2.72 2.7 2.09 1.87 4.34 3.47 7.02 4.43 4.58 1.65 9.05 1.17 13.5-.46 2.09-.76 4.05-1.83 6.32-2.14 3.8-.51 5.87 1.69 4.78 5.36-1.2 4.06-3.79 6.95-7.63 8.72-2.31 1.07-4.02 1.37-8.28 1.34m294.4-29.76c1.34.02 2.62-.17 3.62.97 1.21 1.38 1.46 2.57.52 4.12-.54.88-1.21 1.67-1.85 2.48-.97 1.22-1.52 2.53-1.4 4.17.14 1.99.03 3.99.05 5.98.02 1.49-.69 2.61-1.78 3.49-.9.73-1.96 1.19-3.1.6-3.87-1.99-8.02-1.73-12.16-1.61-1.46.04-2.89-.11-4.13-.91-1.79-1.15-2.75-3.67-2.21-5.9.44-1.81 1.33-3.32 2.76-4.62 3.25-2.98 7.12-4.77 11.14-6.32 1.78-.69 3.6-1.28 5.35-2.04 1.09-.48 2.19-.31 3.21-.41Z"/><path fill="#d9f2ff" d="M262.9 355.78c-.02-1.73.24-2.16 1.85-2.74 1.57-.56 3.17-1.04 4.76-1.55 1.29-.41 2.54-.9 3.75-1.53.56-.29 1.13-.65 1.74-.76.91-.16 1.91-.36 2.5.77.6 1.16-.1 1.85-.86 2.42-1.33.99-2.73 1.89-4.14 2.77-1.69 1.05-3.29 2.18-4.68 3.64-1.32 1.4-2.69 1.22-3.77-.34-.57-.83-1.36-1.62-1.13-2.69Z"/></svg>
