<svg xmlns="http://www.w3.org/2000/svg" viewBox="0 0 32 32"><circle cx="16" cy="16" r="16" fill="#78350F"/><path fill="#fff" d="M26.867 11.895a5.18 5.18 0 0 1-1.36 3.555.36.36 0 0 0-.09.3c.582 3.276-.276 5.97-2.044 7.89-1.858 2.015-4.582 3.018-7.224 3.073h-.095c-2.643-.055-5.367-1.059-7.224-3.074-1.768-1.919-2.627-4.613-2.045-7.889a.36.36 0 0 0-.09-.3 5.18 5.18 0 0 1-.84-5.752c.933-1.93 3.294-3.437 5.71-2.933q.12.025.291.075c.36.106.69.287.98.52.646.515 1.832.86 3.188.86h.154c1.357 0 2.543-.344 3.188-.86.29-.232.621-.414.98-.52q.172-.049.292-.075c2.416-.503 4.777 1.004 5.71 2.933.334.687.51 1.44.518 2.197m-3.057 3.428a.43.43 0 0 1 .15-.44 3.75 3.75 0 0 0 1.416-2.975 3.7 3.7 0 0 0-.372-1.577c-.69-1.429-2.426-2.469-4.057-2.13-.191.04-.703.206-1.202.44a3 3 0 0 0-.51.311c-.654.494-1.812.823-3.133.823s-2.48-.33-3.133-.823a3 3 0 0 0-.51-.311c-.5-.234-1.011-.4-1.202-.44-1.631-.34-3.368.7-4.058 2.13a3.7 3.7 0 0 0-.371 1.576 3.75 3.75 0 0 0 1.415 2.975c.131.106.19.277.15.44-1.373 5.72 2.155 9.057 6.207 9.772h.002a10 10 0 0 0 1.22.137h.037a3 3 0 0 0 .224.009h.037l.075-.002q.075 0 .149-.006l.037-.001.037-.002q.597-.03 1.183-.134h.002c4.052-.716 7.58-4.054 6.207-9.772m-12.8-5.381c.308.057.603.174.871.342.446.28.346.892-.081 1.198l-1.09.78-1.089.779c-.427.306-1.049.21-1.183-.293a2.4 2.4 0 0 1-.063-.92c.04-.307.14-.597.292-.857.153-.259.359-.485.604-.658s.524-.296.822-.36q.452-.098.916-.011m11.773.37a2.2 2.2 0 0 1 .896 1.515c.04.303.019.617-.063.92-.134.504-.756.6-1.183.294l-1.088-.778-1.09-.78c-.428-.307-.528-.919-.082-1.199.268-.168.563-.285.872-.342a2.3 2.3 0 0 1 .916.01c.298.062.577.187.822.36m-5.87 9.088a2.54 2.54 0 0 0-1.618 0c-.29.099-.542.252-.527.482.03.353.59.957.996 1.082.248.075.403.07.68 0 .406-.104.97-.729.996-1.082.018-.23-.237-.383-.527-.482m-3.313-1.608c.205.12.387.28.532.473.145.191.253.412.316.65.105.395-.282.693-.693.646l-1.046-.12-1.038-.116c-.41-.047-.716-.425-.524-.786.116-.215.271-.407.458-.562s.4-.27.627-.34a1.73 1.73 0 0 1 1.368.155m6.965.148a1.8 1.8 0 0 0-.627-.34 1.73 1.73 0 0 0-1.367.156c-.206.12-.387.28-.532.472a1.9 1.9 0 0 0-.316.651c-.106.394.282.692.69.646l1.046-.12 1.04-.116c.412-.047.717-.425.525-.786a2 2 0 0 0-.459-.563"/></svg>
