<svg xmlns="http://www.w3.org/2000/svg" viewBox="0 0 32 32"><circle cx="16" cy="16" r="16" fill="#FBBF24"/><path fill="#78350F" d="M22.562 18.914q1.246 1.666.522 3.623-.723 1.956-2.874 2.566a4 4 0 0 1-2.097.023q-1.07-.27-1.753-1.018-2.48 1.108-4.66-.108t-2.62-3.953a3.77 3.77 0 0 1-1.845-1.042q-.759-.778-1.095-1.962-.54-1.9.858-3.56t3.244-1.442l2.161.262a5.1 5.1 0 0 1 1.205-2.042 5 5 0 0 1 2.022-1.298l-.46-1.62a.94.94 0 0 1 .075-.745.94.94 0 0 1 .595-.455.94.94 0 0 1 .745.074.94.94 0 0 1 .455.595l.53 1.87q1.252.015 2.206.535.955.52 1.857 1.679l1.807-.513a.94.94 0 0 1 .745.075.94.94 0 0 1 .455.594.94.94 0 0 1-.075.745.94.94 0 0 1-.594.455l-1.62.46a5.2 5.2 0 0 1-.012 2.394 4.8 4.8 0 0 1-1.073 2.089zm-7.515 2.94a10 10 0 0 1-.324-1.675 9 9 0 0 1-.017-1.662 6 6 0 0 1-1.406.921q-.786.375-1.613.542.345 1.215 1.245 1.718t2.115.157M11.29 17.4q.997-.282 1.69-.749.692-.465 1.695-1.558l-4.18-.497q-1.011-.117-1.539.453-.527.57-.29 1.412.231.81.866 1.034.636.223 1.758-.095m8.212 5.211q.78-.22 1.107-.903.329-.682-.089-1.204l-2.885-3.76a10.4 10.4 0 0 0-.353 2.255q-.045 1.09.185 1.9.292 1.029.805 1.472t1.23.24m.094-7.5q.222-.4.264-.968a3.2 3.2 0 0 0-.118-1.128q-.283-.996-1.132-1.496a2.24 2.24 0 0 0-1.815-.226q-.562.159-1.006.487a2.4 2.4 0 0 0-.691.769l2.749.432z"/></svg>
