<svg xmlns="http://www.w3.org/2000/svg" fill="none" viewBox="0 0 32 32"><circle cx="16" cy="16" r="16" fill="#000"/><path stroke="#fff" stroke-opacity=".2" stroke-width=".5" d="M.25 16C.25 7.302 7.302.25 16 .25S31.75 7.302 31.75 16 24.698 31.75 16 31.75.25 24.698.25 16Z"/><path fill="url(#a)" fill-rule="evenodd" d="M26.864 11.895a5.18 5.18 0 0 1-1.36 3.555.36.36 0 0 0-.09.3c.583 3.276-.276 5.97-2.044 7.89-1.857 2.015-4.581 3.018-7.224 3.073h-.095c-2.642-.055-5.366-1.059-7.224-3.074-1.767-1.919-2.626-4.613-2.044-7.889a.36.36 0 0 0-.09-.3 5.18 5.18 0 0 1-.84-5.752c.933-1.93 3.293-3.437 5.709-2.933q.12.025.292.075c.359.106.69.287.98.52.646.515 1.832.86 3.188.86h.154c1.356 0 2.542-.344 3.187-.86.291-.232.622-.414.98-.52a4 4 0 0 1 .293-.075c2.416-.503 4.776 1.004 5.709 2.933.335.687.511 1.44.519 2.197M11.008 9.942c.309.057.604.174.872.342.445.28.345.892-.081 1.198l-2.18 1.559c-.426.306-1.048.21-1.182-.293a2.4 2.4 0 0 1-.063-.92c.04-.307.14-.597.292-.857.153-.259.358-.485.603-.658s.525-.296.822-.36a2.3 2.3 0 0 1 .917-.011m11.772.37a2.2 2.2 0 0 1 .896 1.515c.04.303.018.617-.063.92-.135.504-.756.6-1.183.294l-2.179-1.559c-.427-.306-.527-.918-.082-1.198a2.5 2.5 0 0 1 .872-.342 2.3 2.3 0 0 1 .917.01c.298.062.577.187.822.36M16.908 19.4a2.54 2.54 0 0 0-1.618 0c-.29.099-.542.252-.526.482.029.353.59.957.995 1.082.248.075.404.07.68 0 .406-.104.97-.729.996-1.082.018-.23-.237-.383-.527-.482m-3.312-1.607c.206.119.387.28.532.471.145.192.253.413.316.651.106.395-.282.693-.693.646l-1.045-.12-1.039-.116c-.41-.047-.716-.425-.524-.786a1.9 1.9 0 0 1 .459-.562c.187-.156.4-.27.627-.34a1.73 1.73 0 0 1 1.367.156m6.965.147c-.187-.155-.4-.27-.627-.34a1.73 1.73 0 0 0-1.367.156c-.206.12-.387.28-.532.472a1.9 1.9 0 0 0-.316.651c-.106.394.281.692.69.646l1.046-.12 1.04-.116c.412-.047.717-.425.525-.786a2 2 0 0 0-.459-.563" clip-rule="evenodd"/><path stroke="url(#b)" stroke-width=".5" d="m22.923 10.108.002.002c.272.196.502.444.672.734l.001.001c.17.29.28.61.325.95m-1-1.687.688 2.64m-.688-2.64a2.5 2.5 0 0 0-.914-.4 2.6 2.6 0 0 0-1.015-.012c-.34.063-.665.191-.959.376a.85.85 0 0 0-.402.826c.03.303.203.595.47.787h.001l2.179 1.559m.64-3.136-.495 2.932m1.494-1.245-.248.032m.248-.032-.248.032m.248-.032c.044.336.02.683-.07 1.018m-.178-.986a2.3 2.3 0 0 0-.292-.856zm.179.986-.242-.066m.242.066v-.001l-.242-.064m.242.065a.86.86 0 0 1-.67.629 1.15 1.15 0 0 1-.9-.198m1.328-.496c-.134.503-.756.599-1.183.293m-.145.203.145-.203m-.145.203.145-.203m-4.745 6.86c.018-.228-.106-.396-.24-.505a1.5 1.5 0 0 0-.456-.234 2.8 2.8 0 0 0-1.778 0 1.5 1.5 0 0 0-.456.235c-.134.109-.256.276-.24.501v.004a1 1 0 0 0 .144.405c.074.127.17.254.278.37.208.225.486.444.75.525.14.042.267.066.403.065a1.7 1.7 0 0 0 .411-.062c.274-.07.557-.295.763-.521.108-.118.205-.247.279-.375.07-.124.131-.267.142-.409Zm0 0-.25-.02m.25.02V19.9l-.25-.019m0 0c-.026.353-.59.978-.995 1.082-.277.07-.432.075-.68 0-.406-.125-.967-.73-.996-1.082-.016-.23.237-.384.527-.482a2.54 2.54 0 0 1 1.618 0c.29.098.545.251.526.482Zm-3.107-1.768c.165.217.287.467.358.737l-.241.064c.105.394-.282.693-.693.646zm0 0a2.1 2.1 0 0 0-.606-.538 1.98 1.98 0 0 0-1.567-.178 2.1 2.1 0 0 0-.713.386 2.2 2.2 0 0 0-.518.637.72.72 0 0 0 .052.774.95.95 0 0 0 .664.378l1.038.117zm6.394-.366h.001a2.2 2.2 0 0 1 .517.636v.001a.72.72 0 0 1-.052.773.95.95 0 0 1-.664.379l-1.04.117-1.046.119a.95.95 0 0 1-.731-.218.72.72 0 0 1-.23-.74m3.245-1.067-3.003 1.13m3.003-1.13a2.1 2.1 0 0 0-.713-.387m.713.387-.16.192m-3.084.875.241.064m-.241-.064.241.064m-.241-.064c.071-.27.193-.52.358-.738s.372-.401.606-.537c.235-.137.495-.223.764-.253.268-.03.542-.006.803.074m-2.29 1.518a1.9 1.9 0 0 1 .316-.651c.145-.192.327-.353.532-.472a1.73 1.73 0 0 1 1.367-.156m.075-.239-.074.24m.074-.24-.074.24m0 0c.226.07.44.183.627.339m0 0c.184.156.342.348.458.563zm6.053-6.042a4.93 4.93 0 0 1-1.295 3.385l-.002.002a.61.61 0 0 0-.149.51c.57 3.205-.271 5.819-1.982 7.676-1.803 1.955-4.456 2.939-7.043 2.992h-.09c-2.586-.054-5.24-1.037-7.042-2.992-1.711-1.857-2.552-4.471-1.982-7.676v-.001a.61.61 0 0 0-.15-.51l-.001-.002a4.93 4.93 0 0 1-1.295-3.384c.008-.72.176-1.436.494-2.09.892-1.845 3.148-3.274 5.433-2.798q.108.023.273.07c.325.096.626.261.895.476.706.564 1.957.915 3.343.915h.154c1.387 0 2.637-.35 3.344-.915.269-.214.57-.38.895-.474a4 4 0 0 1 .273-.072c2.285-.475 4.541.954 5.433 2.798.318.654.486 1.37.494 2.09Zm.25-.003a5.18 5.18 0 0 1-1.36 3.556zm-14.851-1.822a2.8 2.8 0 0 0-.96-.376 2.6 2.6 0 0 0-1.015.011c-.33.072-.64.208-.914.401a2.4 2.4 0 0 0-.674.736 2.5 2.5 0 0 0-.325.95c-.043.34-.02.684.07 1.018a.86.86 0 0 0 .67.63c.298.064.632-.006.9-.198l2.179-1.559c.268-.192.44-.485.47-.787a.85.85 0 0 0-.401-.826Zm-1.005-.13c.308.057.603.173.872.342l-2.611.028c.245-.173.524-.295.822-.36q.452-.097.917-.01Z"/><defs><linearGradient id="a" x1="16.099" x2="16.099" y1="6.667" y2="26.713" gradientUnits="userSpaceOnUse"><stop stop-color="#fff" stop-opacity=".3"/><stop offset="1" stop-color="#fff" stop-opacity=".4"/></linearGradient><linearGradient id="b" x1="16.098" x2="16.098" y1="6.667" y2="26.712" gradientUnits="userSpaceOnUse"><stop stop-color="#fff" stop-opacity=".2"/><stop offset="1" stop-color="#fff" stop-opacity=".5"/></linearGradient></defs></svg>
