<svg xmlns="http://www.w3.org/2000/svg" fill="none" viewBox="0 0 32 32"><circle cx="16" cy="16" r="16" fill="#000"/><path stroke="#fff" stroke-opacity=".2" stroke-width=".5" d="M.25 16C.25 7.302 7.302.25 16 .25S31.75 7.302 31.75 16 24.698 31.75 16 31.75.25 24.698.25 16Z"/><path fill="url(#a)" fill-rule="evenodd" d="M15.958 24.99a4.8 4.8 0 0 1-.655-.878c-.468-.736-1.252-2.464-1.254-4.364-1.655.966-3.564 1.154-4.442 1.116a4.8 4.8 0 0 1-.986-.104q.552 2.688 2.767 3.924 2.15 1.2 4.57.306m5.94-7.87a5.2 5.2 0 0 0 .981-2.042q.308-1.287.012-2.585l1.75-.496a1.02 1.02 0 0 0 .642-.492 1.02 1.02 0 0 0 .08-.804 1.02 1.02 0 0 0-.49-.643 1.02 1.02 0 0 0-.805-.08l-1.952.554q-.973-1.251-2.005-1.813-1.032-.561-2.382-.578l-.573-2.02a1.02 1.02 0 0 0-.491-.642 1.02 1.02 0 0 0-.805-.08 1.02 1.02 0 0 0-.642.49 1.02 1.02 0 0 0-.081.805l.496 1.75a5.4 5.4 0 0 0-2.183 1.402 5.6 5.6 0 0 0-1.144 1.76l5.84.72zM9.59 12.238a3.833 3.833 0 0 0 .029 7.666h.022c.892.042 3.061-.204 4.605-1.453l3.066-5.261zm5.476 6.713 3.013-5.17 4.707 6.037a3.833 3.833 0 0 1-6.656 3.805l-.011-.02c-.477-.743-1.334-2.71-1.053-4.652" clip-rule="evenodd"/><path stroke="url(#b)" stroke-width=".5" d="m22.054 16.913-.16-.206q-.074.107-.154.21zm0 0q-.074.106-.155.207zM16.916 6.19l.24-.069-.24.069m0 0-1.48-.178a.77.77 0 0 1 .493-.373.77.77 0 0 1 .614.058.77.77 0 0 1 .373.493m7.657 5.566.068.24zm.55-.987.241-.068-.24.068Zm-12.453.63q.359-.747.961-1.38a5.1 5.1 0 0 1 2.084-1.338l.224-.077-.065-.228-.496-1.75a.77.77 0 0 1 .058-.614zm-3.046 8.255h-.006a3.583 3.583 0 0 1-.042-7.166l7.329.904-2.852 4.893c-1.477 1.171-3.55 1.41-4.401 1.37h-.028Zm6.722 3.844-.003-.005-.011-.02-.003-.004c-.455-.71-1.272-2.59-1.023-4.434l2.802-4.808 4.468 5.73a3.583 3.583 0 0 1-6.23 3.54Zm-2.534-3.336c.102 1.79.826 3.369 1.278 4.08q.195.334.435.631c-1.419.436-2.751.298-4.015-.407-1.307-.73-2.16-1.855-2.56-3.396q.323.043.652.044c.848.036 2.598-.129 4.21-.952Z"/><defs><linearGradient id="a" x1="15.598" x2="15.598" y1="5.352" y2="25.539" gradientUnits="userSpaceOnUse"><stop stop-color="#fff" stop-opacity=".3"/><stop offset="1" stop-color="#fff" stop-opacity=".4"/></linearGradient><linearGradient id="b" x1="15.598" x2="15.598" y1="5.352" y2="25.539" gradientUnits="userSpaceOnUse"><stop stop-color="#fff" stop-opacity=".2"/><stop offset="1" stop-color="#fff" stop-opacity=".5"/></linearGradient></defs></svg>
