<svg xmlns="http://www.w3.org/2000/svg" fill="none" viewBox="0 0 32 32"><circle cx="16" cy="16" r="16" fill="#000"/><path stroke="#fff" stroke-opacity=".2" stroke-width=".5" d="M.25 16C.25 7.302 7.302.25 16 .25S31.75 7.302 31.75 16 24.698 31.75 16 31.75.25 24.698.25 16Z"/><path fill="url(#a)" d="M10.184 6.304a.97.97 0 0 1 .97-.97h1.942a.97.97 0 0 1 .97.97v1.932c0 .536.434.97.97.97h1.92a.97.97 0 0 0 .97-.97V6.304a.97.97 0 0 1 .97-.97h1.941a.97.97 0 0 1 .97.97v1.94a.97.97 0 0 1-.97.97h-1.933a.97.97 0 0 0-.97.97v1.933a.97.97 0 0 1-.97.97h-1.941a.97.97 0 0 1-.97-.97v-1.932a.97.97 0 0 0-.97-.97h-1.934a.97.97 0 0 1-.97-.97V6.303zm-.97 12.61v1.932a.97.97 0 0 1-.97.97H6.302a.97.97 0 0 1-.97-.97v-1.941a.97.97 0 0 1 .97-.97h1.933a.97.97 0 0 0 .97-.97v-1.92a.97.97 0 0 0-.97-.97H6.302a.97.97 0 0 1-.97-.97v-1.941a.97.97 0 0 1 .97-.97h1.942a.97.97 0 0 1 .97.97v1.932c0 .536.434.97.97.97h1.933a.97.97 0 0 1 .97.97v1.94a.97.97 0 0 1-.97.97h-1.933a.97.97 0 0 0-.97.97v-.004zm12.6 6.783a.97.97 0 0 1-.97.97h-1.942a.97.97 0 0 1-.97-.97v-1.933a.97.97 0 0 0-.97-.97h-1.92a.97.97 0 0 0-.971.97v1.933a.97.97 0 0 1-.97.97h-1.942a.97.97 0 0 1-.97-.97v-1.941a.97.97 0 0 1 .97-.97h1.933a.97.97 0 0 0 .97-.97v-1.933a.97.97 0 0 1 .97-.97h1.942a.97.97 0 0 1 .97.97v1.933c0 .535.435.97.97.97h1.933a.97.97 0 0 1 .97.97v1.94zm4.85-12.597a.97.97 0 0 1-.97.97h-1.933a.97.97 0 0 0-.97.97v1.92c0 .536.434.97.97.97h1.933a.97.97 0 0 1 .97.97v1.942a.97.97 0 0 1-.97.97h-1.94a.97.97 0 0 1-.97-.97v-1.933a.97.97 0 0 0-.97-.97H19.88a.97.97 0 0 1-.97-.97v-1.941a.97.97 0 0 1 .97-.97h1.933a.97.97 0 0 0 .97-.97v-1.933a.97.97 0 0 1 .97-.97h1.941a.97.97 0 0 1 .97.97z"/><path stroke="url(#b)" stroke-width=".5" d="M8.964 20.846v-1.93zm0 0a.72.72 0 0 1-.72.72m.72-.72-.72.72m0 0H6.302m1.942 0H6.302m0 0a.72.72 0 0 1-.72-.72m.72.72-.72-.72m0 0v-1.941m0 1.94v-1.94m0 0a.72.72 0 0 1 .72-.72m-.72.72.72-.72m0 0h1.933m-1.933 0h1.933m0 0a1.22 1.22 0 0 0 1.22-1.22m-1.22 1.22 1.22-1.22m0 0v-1.92m0 1.92v-1.92m0 0a1.22 1.22 0 0 0-1.22-1.22m1.22 1.22-1.22-1.22m0 0H6.302m1.933 0H6.302m0 0a.72.72 0 0 1-.72-.72m.72.72-.72-.72m0 0v-1.941m0 1.94v-1.94m0 0a.72.72 0 0 1 .72-.72m-.72.72.72-.72m0 0h1.942m-1.942 0h1.942m0 0a.72.72 0 0 1 .72.72m-.72-.72.72.72m0 0v1.932m0-1.932v1.932m0 0c0 .674.546 1.22 1.22 1.22m-1.22-1.22 1.22 1.22m0 0h1.933m-1.933 0h1.933m0 0a.72.72 0 0 1 .72.72m-.72-.72.72.72m0 0v1.94m0-1.94v1.94m0 0a.72.72 0 0 1-.72.72m.72-.72-.72.72m0 0h-1.933m1.933 0h-1.933m0 0a1.22 1.22 0 0 0-1.22 1.217zm.245-11.142h.005v-.25a.72.72 0 0 1 .72-.72h1.942a.72.72 0 0 1 .72.72v1.932c0 .674.546 1.22 1.22 1.22h1.92a1.22 1.22 0 0 0 1.22-1.22V6.304a.72.72 0 0 1 .72-.72h1.941a.72.72 0 0 1 .72.72v1.94a.72.72 0 0 1-.72.72h-1.933a1.22 1.22 0 0 0-1.22 1.22v1.933a.72.72 0 0 1-.72.72h-1.941a.72.72 0 0 1-.72-.72v-1.932a1.22 1.22 0 0 0-1.22-1.22h-1.934a.72.72 0 0 1-.72-.72zm11.139 18.893h-.005v.25a.72.72 0 0 1-.72.72h-1.941a.72.72 0 0 1-.72-.72v-1.933a1.22 1.22 0 0 0-1.22-1.22h-1.92a1.22 1.22 0 0 0-1.221 1.22v1.933a.72.72 0 0 1-.72.72h-1.942a.72.72 0 0 1-.72-.72v-1.941a.72.72 0 0 1 .72-.72h1.933a1.22 1.22 0 0 0 1.22-1.22v-1.933a.72.72 0 0 1 .72-.72h1.942a.72.72 0 0 1 .72.72v1.933c0 .674.547 1.22 1.22 1.22h1.933a.72.72 0 0 1 .72.72zM26.415 13.1a.72.72 0 0 1-.72.72h-1.933a1.22 1.22 0 0 0-1.22 1.22v1.92c0 .674.546 1.22 1.22 1.22h1.933a.72.72 0 0 1 .72.72v1.942a.72.72 0 0 1-.72.72h-1.94a.72.72 0 0 1-.72-.72v-1.933a1.22 1.22 0 0 0-1.22-1.22H19.88a.72.72 0 0 1-.72-.72v-1.941a.72.72 0 0 1 .72-.72h1.933a1.22 1.22 0 0 0 1.22-1.22v-1.933a.72.72 0 0 1 .72-.72h1.941a.72.72 0 0 1 .72.72z"/><defs><linearGradient id="a" x1="15.999" x2="15.999" y1="5.333" y2="26.667" gradientUnits="userSpaceOnUse"><stop stop-color="#fff" stop-opacity=".3"/><stop offset="1" stop-color="#fff" stop-opacity=".4"/></linearGradient><linearGradient id="b" x1="15.999" x2="15.999" y1="5.333" y2="26.667" gradientUnits="userSpaceOnUse"><stop stop-color="#fff" stop-opacity=".2"/><stop offset="1" stop-color="#fff" stop-opacity=".5"/></linearGradient></defs></svg>
