<svg xmlns="http://www.w3.org/2000/svg" viewBox="0 0 64 64"><circle cx="32" cy="32" r="32"/><circle cx="32" cy="32" r="31.5" fill="#84c3eb"/><path fill="#facb4c" d="M28.1 14.356c-2.409.405-4.492 2.712-4.5 4.981 0 .05 1.713.063 8.4.063 4.62 0 8.4-.017 8.4-.037-.017-2.156-1.756-4.255-4.075-4.92-.435-.125-7.553-.2-8.225-.087m-5.833 6.896c-2.511.332-4.686 2.597-4.715 4.911l-.002.137H32c12.486 0 14.45-.01 14.45-.071 0-1.054-.637-2.473-1.514-3.373-.759-.78-1.57-1.226-2.811-1.548-.334-.086-19.223-.14-19.858-.056m-4.749 6.952c-3.81.641-4.01 6.196-.256 7.096.649.156 28.827.156 29.476 0 3.632-.87 3.658-5.894.037-7.044-.282-.09-28.733-.14-29.257-.052m.483 9.708c.008 1.567 1.308 3.471 2.924 4.283 1.278.643.676.613 11.85.594l9.5-.017.425-.112c2.38-.633 4.2-2.772 4.2-4.939 0-.011-6.503-.021-14.45-.021H18zm5.599 6.725c.019 2.333 2.1 4.625 4.55 5.011.558.088 7.742.068 8.263-.022 2.275-.397 4.202-2.452 4.373-4.663l.028-.363h-8.607c-4.734 0-8.607.017-8.607.037"/><path d="M30.545.051C20.027.68 10.678 6.013 5.263 14.472c-.177.276-.365.563-.417.637-.37.527-1.646 2.928-2.015 3.791-.076.179-.171.392-.21.475-1.02 2.154-2.134 6.33-2.393 8.975-.706 7.203.596 13.488 4.058 19.6.256.452.444.755.992 1.6 2.621 4.037 6.646 7.838 10.756 10.155.721.407 1.152.64 1.566.849 7.131 3.584 15.233 4.379 22.975 2.254.622-.171 2.559-.804 2.825-.923.096-.043.49-.206.875-.363a36 36 0 0 0 3.025-1.446l.625-.348c11.736-6.518 18.14-20.662 15.42-34.053-.749-3.691-2.298-7.599-4.17-10.525-3.931-6.142-8.852-10.226-15.65-12.986-2.034-.826-5.751-1.737-7.9-1.938-2.049-.19-3.807-.251-5.08-.175m3.555.5c3.161.194 6.728 1.002 9.6 2.176.996.406 1.149.474 1.92.843 1.951.935 3.525 1.897 5.355 3.27.495.372.911.689.925.705s.16.142.325.279c3.623 3.002 7.178 7.759 8.722 11.67.05.127.197.49.327.806 1.077 2.617 1.734 5.355 2.134 8.9.087.77.088 4.743.002 5.575-.347 3.346-1.065 6.324-2.175 9.025-.414 1.007-.324.805-.835 1.87-2.6 5.41-6.793 10.064-11.878 13.182-1.111.682-3.215 1.781-3.997 2.088-.137.055-.563.225-.945.38-12.589 5.09-27.484 1.17-36.083-9.495-.177-.22-.333-.411-.347-.425a43 43 0 0 1-.834-1.125 32 32 0 0 1-1.16-1.75l-.354-.575c-.379-.611-1.471-2.774-1.78-3.525C1.62 41.018.982 38.478.591 34.75.548 34.338.526 33.401.526 32 .526 13.692 15.756-.575 34.1.551m-5.8 13.28c-1.219.195-2.038.526-2.875 1.164-1.416 1.079-2.319 2.872-2.324 4.617l-.001.288h17.8l-.002-.288c-.014-2.705-1.894-5.01-4.648-5.698-.306-.076-7.519-.152-7.95-.083m8.045.584c2.195.578 3.976 2.621 4.021 4.61l.009.4h-16.75l.009-.4c.05-2.232 2.071-4.285 4.666-4.741.069-.012 1.79-.019 3.825-.014l3.7.008zm-14.05 6.338a5.88 5.88 0 0 0-5.231 5.51l-.029.537h29.93l-.029-.537c-.147-2.685-1.977-4.788-4.736-5.444-.409-.098-19.042-.159-19.905-.066m19.639.5c2.356.323 4.26 2.338 4.544 4.81l.034.287H17.488l.034-.287c.281-2.45 2.176-4.472 4.503-4.807.456-.066 19.429-.068 19.909-.003m-24.528 6.473c-4.264.772-4.55 6.796-.381 8.031l.4.118h29.15l.4-.118c4.188-1.24 3.881-7.284-.409-8.032-.608-.106-28.574-.105-29.16.001m29.369.489c3.558 1.064 3.687 5.919.188 7.066l-.438.144h-29.05l-.438-.144c-3.609-1.183-3.286-6.421.438-7.108.632-.117 28.905-.076 29.3.042m-29.325 9.08c0 2.819 1.879 5.177 4.675 5.865l.45.111 9.475.016c6.093.011 9.654-.001 9.975-.033 2.982-.299 5.132-2.535 5.353-5.566l.036-.488H32.432c-14.669 0-14.982.002-14.982.095m29.46.58c-.16 2.223-1.77 4.131-4.035 4.784l-.4.116-9.822.013c-8.599.012-9.877.004-10.262-.062a5.37 5.37 0 0 1-4.419-4.739l-.034-.337 14.494.012 14.493.013zM23.1 44.381c0 2.458 1.709 4.78 4.075 5.535.83.265.714.259 5.1.258h4.1l.483-.133c2.609-.718 4.431-2.965 4.44-5.478l.002-.463H23.1zm17.75.342c0 2.136-1.842 4.301-4.155 4.884l-.47.118h-8l-.544-.138c-1.907-.484-3.36-1.883-3.904-3.758-.132-.458-.213-1.063-.16-1.2.027-.072.846-.079 8.631-.079h8.602z"/></svg>
