<svg xmlns="http://www.w3.org/2000/svg" viewBox="0 0 64 64"><circle cx="32" cy="32" r="32" fill="#FFF"/><path d="M36.31 44.048h-9.249a128 128 0 0 1-.038-2.233q0-4.118 1.486-6.77c.99-1.781 2.984-3.766 5.957-5.988 2.971-2.211 4.755-3.663 5.324-4.355.905-1.076 1.349-2.278 1.349-3.582q0-2.72-2.377-4.672-2.376-1.938-6.402-1.939-3.88.003-6.5 2.03-2.605 2.027-3.591 6.18l-9.351-1.066q.392-5.953 5.525-10.103c3.428-2.767 7.913-4.15 13.485-4.15q8.763.003 13.967 4.207c3.454 2.801 5.187 6.056 5.187 9.785 0 2.053-.642 4.002-1.906 5.841-1.276 1.835-3.987 4.341-8.149 7.504q-3.23 2.464-4.01 3.958-.782 1.495-.707 5.353M27.061 56.6v-9.332h10.192V56.6z"/></svg>
